<svg width="140" height="43" viewBox="0 0 140 43" fill="none" xmlns="http://www.w3.org/2000/svg">
<g style="mix-blend-mode:multiply" opacity="0.53">
<g style="mix-blend-mode:multiply" opacity="0.03">
<path d="M103.036 42.8797H30.2704C25.5007 42.867 20.93 40.9666 17.5573 37.5939C14.1846 34.2212 12.2842 29.6505 12.2715 24.8808C12.2842 20.1134 14.1854 15.5452 17.5587 12.1763C20.9321 8.80742 25.5029 6.91235 30.2704 6.90601H103.036C107.799 6.91871 112.364 8.81655 115.732 12.1847C119.1 15.5529 120.998 20.1175 121.011 24.8808C120.998 29.6464 119.101 34.2135 115.733 37.5855C112.366 40.9575 107.801 42.8607 103.036 42.8797Z" fill="#010001"/>
</g>
<g style="mix-blend-mode:multiply" opacity="0.05">
<path d="M103.036 42.7354H30.2704C25.5029 42.7291 20.9321 40.834 17.5587 37.4652C14.1854 34.0963 12.2842 29.5281 12.2715 24.7606C12.2842 19.9909 14.1846 15.4202 17.5573 12.0475C20.93 8.6748 25.5007 6.77442 30.2704 6.76172H103.036C107.801 6.78076 112.366 8.68397 115.733 12.056C119.101 15.428 120.998 19.9951 121.011 24.7606C120.998 29.5239 119.1 34.0885 115.732 37.4567C112.364 40.8249 107.799 42.7227 103.036 42.7354Z" fill="#010002"/>
</g>
<g style="mix-blend-mode:multiply" opacity="0.08">
<path d="M103.036 42.6151H30.2704C25.5007 42.6024 20.93 40.702 17.5573 37.3293C14.1846 33.9566 12.2842 29.3859 12.2715 24.6162C12.2842 19.8487 14.1854 15.2805 17.5587 11.9116C20.9321 8.54277 25.5029 6.64771 30.2704 6.64136H103.036C107.799 6.65406 112.364 8.5519 115.732 11.9201C119.1 15.2883 120.998 19.8529 121.011 24.6162C120.998 29.3817 119.101 33.9488 115.733 37.3208C112.366 40.6928 107.801 42.596 103.036 42.6151Z" fill="#020003"/>
</g>
<g style="mix-blend-mode:multiply" opacity="0.1">
<path d="M103.036 42.4705H30.2704C25.5029 42.4642 20.9321 40.5691 17.5587 37.2003C14.1854 33.8314 12.2842 29.2632 12.2715 24.4957C12.2779 19.7241 14.1762 15.1497 17.5503 11.7756C20.9243 8.40156 25.4987 6.50319 30.2704 6.49683H103.036C107.803 6.50955 112.372 8.41069 115.74 11.7841C119.109 15.1575 121.004 19.7282 121.011 24.4957C120.998 29.259 119.1 33.8236 115.732 37.1918C112.364 40.56 107.799 42.4578 103.036 42.4705Z" fill="#020004"/>
</g>
<g style="mix-blend-mode:multiply" opacity="0.13">
<path d="M103.036 42.3503H30.2704C25.5007 42.3376 20.93 40.4372 17.5573 37.0645C14.1846 33.6918 12.2842 29.1211 12.2715 24.3514C12.2842 19.5817 14.1846 15.011 17.5573 11.6383C20.93 8.26562 25.5007 6.36524 30.2704 6.35254H103.036C107.801 6.37158 112.366 8.27475 115.733 11.6468C119.101 15.0188 120.998 19.5859 121.011 24.3514C120.998 29.117 119.101 33.6841 115.733 37.0561C112.366 40.4281 107.801 42.3312 103.036 42.3503Z" fill="#030005"/>
</g>
<g style="mix-blend-mode:multiply" opacity="0.15">
<path d="M103.036 42.206H30.2704C27.8996 42.2155 25.5501 41.7572 23.3567 40.8572C21.1633 39.9572 19.169 38.6333 17.4881 36.9613C15.8072 35.2893 14.4727 33.3021 13.561 31.1136C12.6493 28.925 12.1784 26.578 12.1753 24.2071C12.1816 21.8383 12.6548 19.4939 13.5679 17.3081C14.481 15.1223 15.816 13.138 17.4966 11.4685C19.1772 9.7991 21.1704 8.47735 23.3623 7.57887C25.5541 6.6804 27.9016 6.22283 30.2704 6.23232H103.036C107.799 6.24502 112.364 8.14287 115.732 11.5111C119.1 14.8792 120.998 19.4438 121.011 24.2071C121.004 28.9746 119.109 33.5454 115.741 36.9188C112.372 40.2922 107.803 42.1933 103.036 42.206Z" fill="#030006"/>
</g>
<g style="mix-blend-mode:multiply" opacity="0.18">
<path d="M103.036 42.0617H30.2706C25.5071 42.0809 20.9298 40.2137 17.539 36.868C14.1483 33.5224 12.2199 28.9704 12.1754 24.2072C12.1659 21.8271 12.6273 19.4686 13.533 17.2675C14.4387 15.0665 15.7708 13.0663 17.4527 11.3822C19.1345 9.69811 21.1329 8.36332 23.3328 7.4547C25.5326 6.54608 27.8905 6.08159 30.2706 6.08796H103.036C107.802 6.107 112.366 8.01017 115.734 11.3822C119.101 14.7542 120.998 19.3213 121.011 24.0868C120.998 28.8501 119.1 33.4147 115.732 36.7829C112.364 40.1511 107.799 42.049 103.036 42.0617Z" fill="#040007"/>
</g>
<g style="mix-blend-mode:multiply" opacity="0.21">
<path d="M103.036 41.9412H30.2704C25.4987 41.9349 20.9243 40.0365 17.5503 36.6625C14.1762 33.2884 12.2779 28.714 12.2715 23.9424C12.2842 19.1749 14.1854 14.6067 17.5587 11.2378C20.9321 7.86894 25.5029 5.97388 30.2704 5.96753H103.036C107.799 5.98023 112.364 7.87807 115.732 11.2463C119.1 14.6144 120.998 19.179 121.011 23.9424C121.004 28.7098 119.109 33.2806 115.74 36.654C112.372 40.0274 107.803 41.9285 103.036 41.9412Z" fill="#050008"/>
</g>
<g style="mix-blend-mode:multiply" opacity="0.23">
<path d="M103.036 41.7969H30.2704C25.5029 41.7906 20.9321 39.8956 17.5587 36.5267C14.1854 33.1578 12.2842 28.5896 12.2715 23.8221C12.2842 19.0524 14.1846 14.4817 17.5573 11.109C20.93 7.73632 25.5007 5.83594 30.2704 5.82324H103.036C107.801 5.84229 112.366 7.74545 115.733 11.1175C119.101 14.4895 120.998 19.0566 121.011 23.8221C120.998 28.5854 119.1 33.15 115.732 36.5182C112.364 39.8864 107.799 41.7842 103.036 41.7969Z" fill="#050009"/>
</g>
<g style="mix-blend-mode:multiply" opacity="0.26">
<path d="M103.036 41.6766H30.2704C25.5007 41.6639 20.93 39.7635 17.5573 36.3908C14.1846 33.0181 12.2842 28.4474 12.2715 23.6777C12.2842 18.9102 14.1854 14.342 17.5587 10.9732C20.9321 7.6043 25.5029 5.70923 30.2704 5.70288H103.036C107.799 5.71558 112.364 7.61343 115.732 10.9816C119.1 14.3498 120.998 18.9144 121.011 23.6777C120.998 28.4432 119.101 33.0103 115.733 36.3824C112.366 39.7544 107.801 41.6575 103.036 41.6766Z" fill="#06000A"/>
</g>
<g style="mix-blend-mode:multiply" opacity="0.28">
<path d="M103.036 41.5323H30.2704C25.5029 41.5259 20.9321 39.6309 17.5587 36.262C14.1854 32.8932 12.2842 28.3249 12.2715 23.5575C12.2842 18.7878 14.1846 14.2171 17.5573 10.8444C20.93 7.47168 25.5007 5.5713 30.2704 5.55859H103.036C107.801 5.57764 112.366 7.48084 115.733 10.8529C119.101 14.2249 120.998 18.7919 121.011 23.5575C120.998 28.3208 119.1 32.8854 115.732 36.2536C112.364 39.6217 107.799 41.5196 103.036 41.5323Z" fill="#06000B"/>
</g>
<g style="mix-blend-mode:multiply" opacity="0.31">
<path d="M103.036 41.4119H30.2704C25.5007 41.3992 20.93 39.4989 17.5573 36.1262C14.1846 32.7535 12.2842 28.1828 12.2715 23.4131C12.2842 18.6456 14.1854 14.0774 17.5587 10.7085C20.9321 7.33965 25.5029 5.44458 30.2704 5.43823H103.036C107.799 5.45093 112.364 7.34878 115.732 10.717C119.1 14.0851 120.998 18.6497 121.011 23.4131C120.998 28.1786 119.101 32.7457 115.733 36.1177C112.366 39.4897 107.801 41.3929 103.036 41.4119Z" fill="#07000C"/>
</g>
<g style="mix-blend-mode:multiply" opacity="0.33">
<path d="M103.036 41.2674H30.2704C25.5029 41.2611 20.9321 39.366 17.5587 35.9972C14.1854 32.6283 12.2842 28.0601 12.2715 23.2926C12.2779 18.5209 14.1762 13.9466 17.5503 10.5725C20.9243 7.19844 25.4987 5.30007 30.2704 5.2937H103.036C107.803 5.30643 112.372 7.20757 115.74 10.5809C119.109 13.9543 121.004 18.5251 121.011 23.2926C120.998 28.0559 119.1 32.6205 115.732 35.9887C112.364 39.3569 107.799 41.2547 103.036 41.2674Z" fill="#07000D"/>
</g>
<g style="mix-blend-mode:multiply" opacity="0.36">
<path d="M103.036 41.0509H30.2704C25.5007 41.0382 20.93 39.1378 17.5573 35.7652C14.1846 32.3925 12.2842 27.8218 12.2715 23.0521C12.3095 18.2991 14.221 13.753 17.591 10.401C20.961 7.0491 25.5173 5.16194 30.2704 5.14941H103.036C107.801 5.16846 112.366 7.07163 115.733 10.4436C119.101 13.8156 120.998 18.3827 121.011 23.1483C120.973 27.8971 119.065 32.4396 115.7 35.7909C112.335 39.1422 107.785 41.0321 103.036 41.0509Z" fill="#08000E"/>
</g>
<g style="mix-blend-mode:multiply" opacity="0.38">
<path d="M103.036 41.0511H30.2705C25.4989 41.0447 20.9245 39.1464 17.5504 35.7723C14.1763 32.3982 12.278 27.8238 12.2716 23.0522C12.2621 20.6813 12.7205 18.3319 13.6205 16.1385C14.5205 13.9451 15.8444 11.9508 17.5163 10.2698C19.1883 8.58891 21.1755 7.25439 23.3641 6.34272C25.5527 5.43106 27.8996 4.96018 30.2705 4.95703H103.036C107.799 4.96973 112.364 6.86758 115.732 10.2358C119.1 13.6039 120.998 18.1685 121.011 22.9319C121.024 25.3027 120.568 27.6528 119.671 29.8474C118.774 32.042 117.453 34.0381 115.783 35.7213C114.113 37.4044 112.128 38.7416 109.941 39.6561C107.753 40.5707 105.407 41.0448 103.036 41.0511Z" fill="#08000F"/>
</g>
<g style="mix-blend-mode:multiply" opacity="0.41">
<path d="M103.036 40.8585H30.2704C25.5029 40.8522 20.9321 38.9572 17.5587 35.5883C14.1854 32.2194 12.2842 27.6512 12.2715 22.8837C12.3032 18.1266 14.2119 13.5743 17.5826 10.2172C20.9532 6.86005 25.5131 4.96961 30.2704 4.95703H103.036C107.801 4.97608 112.366 6.87928 115.733 10.2513C119.101 13.6233 120.998 18.1904 121.011 22.9559C120.979 27.7067 119.073 32.2528 115.707 35.6054C112.341 38.9581 107.787 40.846 103.036 40.8585Z" fill="#090010"/>
</g>
<g style="mix-blend-mode:multiply" opacity="0.44">
<path d="M103.036 40.7381H30.2704C25.5007 40.7254 20.93 38.825 17.5573 35.4523C14.1846 32.0796 12.2842 27.5089 12.2715 22.7392C12.2842 17.9718 14.1854 13.4036 17.5587 10.0347C20.9321 6.66582 25.5029 4.77075 30.2704 4.7644H103.036C107.799 4.77711 112.364 6.67495 115.732 10.0431C119.1 13.4113 120.998 17.9759 121.011 22.7392C120.998 27.5048 119.101 32.0719 115.733 35.4439C112.366 38.8159 107.801 40.7191 103.036 40.7381Z" fill="#0A0011"/>
</g>
<g style="mix-blend-mode:multiply" opacity="0.46">
<path d="M103.036 40.5938H30.2704C25.5029 40.5875 20.9321 38.6924 17.5587 35.3236C14.1854 31.9547 12.2842 27.3865 12.2715 22.619C12.2842 17.8493 14.1846 13.2786 17.5573 9.9059C20.93 6.5332 25.5007 4.63282 30.2704 4.62012H103.036C107.801 4.63916 112.366 6.54233 115.733 9.91434C119.101 13.2864 120.998 17.8535 121.011 22.619C120.998 27.3823 119.1 31.9469 115.732 35.3151C112.364 38.6833 107.799 40.5811 103.036 40.5938Z" fill="#0A0012"/>
</g>
<g style="mix-blend-mode:multiply" opacity="0.49">
<path d="M103.036 40.4735H30.2704C25.5007 40.4608 20.93 38.5604 17.5573 35.1877C14.1846 31.815 12.2842 27.2443 12.2715 22.4746C12.2842 17.7071 14.1854 13.1389 17.5587 9.77004C20.9321 6.40117 25.5029 4.5061 30.2704 4.49976H103.036C107.799 4.51246 112.364 6.4103 115.732 9.77848C119.1 13.1467 120.998 17.7113 121.011 22.4746C120.998 27.2401 119.101 31.8072 115.733 35.1792C112.366 38.5512 107.801 40.4544 103.036 40.4735Z" fill="#0B0013"/>
</g>
<g style="mix-blend-mode:multiply" opacity="0.51">
<path d="M103.036 40.3292H30.2704C25.5029 40.3228 20.9321 38.4278 17.5587 35.0589C14.1854 31.6901 12.2842 27.1218 12.2715 22.3543C12.2842 17.5846 14.1846 13.0139 17.5573 9.64125C20.93 6.26855 25.5007 4.36817 30.2704 4.35547H103.036C107.801 4.37451 112.366 6.27772 115.733 9.64973C119.101 13.0217 120.998 17.5888 121.011 22.3543C120.998 27.1177 119.1 31.6823 115.732 35.0504C112.364 38.4186 107.799 40.3165 103.036 40.3292Z" fill="#0B0013"/>
</g>
<g style="mix-blend-mode:multiply" opacity="0.54">
<path d="M103.036 40.2088H30.2704C25.5007 40.1961 20.93 38.2957 17.5573 34.923C14.1846 31.5503 12.2842 26.9796 12.2715 22.2099C12.2842 17.4425 14.1854 12.8743 17.5587 9.50539C20.9321 6.13652 25.5029 4.24146 30.2704 4.23511H103.036C107.799 4.24781 112.364 6.14565 115.732 9.51384C119.1 12.882 120.998 17.4466 121.011 22.2099C120.998 26.9755 119.101 31.5426 115.733 34.9146C112.366 38.2866 107.801 40.1898 103.036 40.2088Z" fill="#0C0014"/>
</g>
<g style="mix-blend-mode:multiply" opacity="0.56">
<path d="M103.036 40.0643H30.2704C25.5029 40.0579 20.9321 38.1629 17.5587 34.794C14.1854 31.4252 12.2842 26.8569 12.2715 22.0895C12.2779 17.3178 14.1762 12.7434 17.5503 9.36938C20.9243 5.99531 25.4987 4.09694 30.2704 4.09058H103.036C107.803 4.1033 112.372 6.00444 115.74 9.37782C119.109 12.7512 121.004 17.322 121.011 22.0895C120.998 26.8528 119.1 31.4174 115.732 34.7855C112.364 38.1537 107.799 40.0516 103.036 40.0643Z" fill="#0C0015"/>
</g>
<g style="mix-blend-mode:multiply" opacity="0.59">
<path d="M103.036 39.944H30.2704C25.5007 39.9313 20.93 38.031 17.5573 34.6583C14.1846 31.2856 12.2842 26.7149 12.2715 21.9452C12.2842 17.1755 14.1846 12.6048 17.5573 9.23207C20.93 5.85937 25.5007 3.95899 30.2704 3.94629H103.036C107.801 3.96533 112.366 5.8685 115.733 9.24051C119.101 12.6125 120.998 17.1796 121.011 21.9452C120.998 26.7107 119.101 31.2778 115.733 34.6498C112.366 38.0218 107.801 39.925 103.036 39.944Z" fill="#0D0016"/>
</g>
<g style="mix-blend-mode:multiply" opacity="0.62">
<path d="M103.036 39.7998H30.2704C27.8996 39.8093 25.5501 39.3509 23.3567 38.4509C21.1633 37.551 19.169 36.2271 17.4881 34.5551C15.8072 32.8831 14.4727 30.8959 13.561 28.7073C12.6493 26.5187 12.1784 24.1718 12.1753 21.8009C12.1816 19.4321 12.6548 17.0877 13.5679 14.9019C14.481 12.7161 15.816 10.7317 17.4966 9.06228C19.1772 7.39285 21.1704 6.0711 23.3623 5.17262C25.5541 4.27415 27.9016 3.81658 30.2704 3.82607H103.036C107.799 3.83877 112.364 5.73662 115.732 9.1048C119.1 12.473 120.998 17.0376 121.011 21.8009C121.004 26.5684 119.109 31.1391 115.741 34.5125C112.372 37.8859 107.803 39.787 103.036 39.7998Z" fill="#0E0017"/>
</g>
<g style="mix-blend-mode:multiply" opacity="0.64">
<path d="M103.036 39.6554H30.2706C25.5071 39.6747 20.9298 37.8074 17.539 34.4618C14.1483 31.1161 12.2199 26.5642 12.1754 21.8009C12.1659 19.4208 12.6273 17.0623 13.533 14.8613C14.4387 12.6602 15.7708 10.6601 17.4527 8.97597C19.1345 7.29186 21.1329 5.95707 23.3328 5.04845C25.5326 4.13983 27.8905 3.67534 30.2706 3.68171H103.036C107.802 3.70075 112.366 5.60392 115.734 8.97593C119.101 12.3479 120.998 16.915 121.011 21.6806C120.998 26.4439 119.1 31.0085 115.732 34.3767C112.364 37.7449 107.799 39.6427 103.036 39.6554Z" fill="#0E0018"/>
</g>
<g style="mix-blend-mode:multiply" opacity="0.67">
<path d="M103.036 39.535H30.2704C25.5007 39.5223 20.93 37.6219 17.5573 34.2492C14.1846 30.8765 12.2842 26.3058 12.2715 21.5361C12.2842 16.7686 14.1854 12.2004 17.5587 8.83156C20.9321 5.46269 25.5029 3.56763 30.2704 3.56128H103.036C107.799 3.57398 112.364 5.47182 115.732 8.84001C119.1 12.2082 120.998 16.7728 121.011 21.5361C120.998 26.3016 119.101 30.8687 115.733 34.2408C112.366 37.6128 107.801 39.5159 103.036 39.535Z" fill="#0F0019"/>
</g>
<g style="mix-blend-mode:multiply" opacity="0.69">
<path d="M103.036 39.3907H30.2704C25.5029 39.3843 20.9321 37.4893 17.5587 34.1204C14.1854 30.7516 12.2842 26.1833 12.2715 21.4159C12.2842 16.6462 14.1846 12.0755 17.5573 8.70277C20.93 5.33007 25.5007 3.42969 30.2704 3.41699H103.036C107.801 3.43604 112.366 5.3392 115.733 8.71122C119.101 12.0832 120.998 16.6503 121.011 21.4159C120.998 26.1792 119.1 30.7438 115.732 34.112C112.364 37.4801 107.799 39.378 103.036 39.3907Z" fill="#0F001A"/>
</g>
<g style="mix-blend-mode:multiply" opacity="0.72">
<path d="M103.036 39.2703H30.2704C25.5007 39.2576 20.93 37.3573 17.5573 33.9846C14.1846 30.6119 12.2842 26.0412 12.2715 21.2715C12.2842 16.504 14.1854 11.9358 17.5587 8.56691C20.9321 5.19805 25.5029 3.30298 30.2704 3.29663H103.036C107.799 3.30933 112.364 5.20718 115.732 8.57536C119.1 11.9435 120.998 16.5081 121.011 21.2715C120.998 26.037 119.101 30.6041 115.733 33.9761C112.366 37.3481 107.801 39.2513 103.036 39.2703Z" fill="#10001B"/>
</g>
<g style="mix-blend-mode:multiply" opacity="0.74">
<path d="M103.036 39.126H30.2704C25.5029 39.1197 20.9321 37.2247 17.5587 33.8558C14.1854 30.4869 12.2842 25.9187 12.2715 21.1512C12.2842 16.3815 14.1846 11.8108 17.5573 8.43812C20.93 5.06543 25.5007 3.16505 30.2704 3.15234H103.036C107.801 3.17139 112.366 5.07459 115.733 8.4466C119.101 11.8186 120.998 16.3857 121.011 21.1512C120.998 25.9145 119.1 30.4791 115.732 33.8473C112.364 37.2155 107.799 39.1133 103.036 39.126Z" fill="#10001C"/>
</g>
<g style="mix-blend-mode:multiply" opacity="0.77">
<path d="M103.036 39.0057H30.2704C25.5007 38.993 20.93 37.0926 17.5573 33.7199C14.1846 30.3472 12.2842 25.7765 12.2715 21.0068C12.2842 16.2393 14.1854 11.6711 17.5587 8.30227C20.9321 4.9334 25.5029 3.03833 30.2704 3.03198H103.036C107.799 3.04468 112.364 4.94253 115.732 8.31071C119.1 11.6789 120.998 16.2435 121.011 21.0068C120.998 25.7724 119.101 30.3394 115.733 33.7115C112.366 37.0835 107.801 38.9866 103.036 39.0057Z" fill="#11001D"/>
</g>
<g style="mix-blend-mode:multiply" opacity="0.79">
<path d="M103.036 38.8612H30.2704C25.5029 38.8548 20.9321 36.9598 17.5587 33.5909C14.1854 30.222 12.2842 25.6538 12.2715 20.8863C12.2779 16.1147 14.1762 11.5403 17.5503 8.16625C20.9243 4.79219 25.4987 2.89382 30.2704 2.88745H103.036C107.803 2.90018 112.372 4.80132 115.74 8.1747C119.109 11.5481 121.004 16.1188 121.011 20.8863C120.998 25.6496 119.1 30.2142 115.732 33.5824C112.364 36.9506 107.799 38.8484 103.036 38.8612Z" fill="#11001E"/>
</g>
<g style="mix-blend-mode:multiply" opacity="0.82">
<path d="M103.036 38.6447H30.2704C25.5007 38.632 20.93 36.7316 17.5573 33.3589C14.1846 29.9862 12.2842 25.4155 12.2715 20.6458C12.3095 15.8928 14.221 11.3467 17.591 7.9948C20.961 4.64285 25.5173 2.75569 30.2704 2.74316H103.036C107.801 2.76221 112.366 4.66538 115.733 8.03739C119.101 11.4094 120.998 15.9765 121.011 20.742C120.973 25.4909 119.065 30.0334 115.7 33.3846C112.335 36.7359 107.785 38.6258 103.036 38.6447Z" fill="#12001F"/>
</g>
<g style="mix-blend-mode:multiply" opacity="0.85">
<path d="M103.036 38.6448H30.2705C25.4989 38.6384 20.9245 36.7401 17.5504 33.366C14.1763 29.992 12.278 25.4176 12.2716 20.6459C12.2621 18.2751 12.7205 15.9257 13.6205 13.7322C14.5205 11.5388 15.8444 9.54451 17.5163 7.86358C19.1883 6.18266 21.1755 4.84814 23.3641 3.93647C25.5527 3.02481 27.8996 2.55393 30.2705 2.55078H103.036C107.799 2.56348 112.364 4.46133 115.732 7.82951C119.1 11.1977 120.998 15.7623 121.011 20.5256C121.024 22.8965 120.568 25.2465 119.671 27.4411C118.774 29.6358 117.453 31.6318 115.783 33.315C114.113 34.9982 112.128 36.3353 109.941 37.2499C107.753 38.1645 105.407 38.6385 103.036 38.6448Z" fill="#130020"/>
</g>
<g style="mix-blend-mode:multiply" opacity="0.87">
<path d="M103.036 38.4523H30.2704C25.5029 38.4459 20.9321 36.5509 17.5587 33.1821C14.1854 29.8132 12.2842 25.2449 12.2715 20.4775C12.3032 15.7203 14.2119 11.1681 17.5826 7.81093C20.9532 4.4538 25.5131 2.56336 30.2704 2.55078H103.036C107.801 2.56983 112.366 4.47303 115.733 7.84504C119.101 11.2171 120.998 15.7841 121.011 20.5497C120.979 25.3004 119.073 29.8466 115.707 33.1992C112.341 36.5518 107.787 38.4397 103.036 38.4523Z" fill="#130021"/>
</g>
<g style="mix-blend-mode:multiply" opacity="0.9">
<path d="M103.036 38.3319H30.2704C25.5007 38.3192 20.93 36.4188 17.5573 33.0461C14.1846 29.6734 12.2842 25.1027 12.2715 20.333C12.2842 15.5655 14.1854 10.9973 17.5587 7.62844C20.9321 4.25957 25.5029 2.3645 30.2704 2.35815H103.036C107.799 2.37086 112.364 4.2687 115.732 7.63688C119.1 11.0051 120.998 15.5697 121.011 20.333C120.998 25.0985 119.101 29.6656 115.733 33.0376C112.366 36.4096 107.801 38.3128 103.036 38.3319Z" fill="#140022"/>
</g>
<g style="mix-blend-mode:multiply" opacity="0.92">
<path d="M103.036 38.1876H30.2704C25.5029 38.1812 20.9321 36.2862 17.5587 32.9173C14.1854 29.5485 12.2842 24.9802 12.2715 20.2127C12.2842 15.443 14.1846 10.8723 17.5573 7.49965C20.93 4.12695 25.5007 2.22657 30.2704 2.21387H103.036C107.801 2.23291 112.366 4.13608 115.733 7.50809C119.101 10.8801 120.998 15.4472 121.011 20.2127C120.998 24.9761 119.1 29.5407 115.732 32.9088C112.364 36.277 107.799 38.1749 103.036 38.1876Z" fill="#140023"/>
</g>
<g style="mix-blend-mode:multiply" opacity="0.95">
<path d="M103.036 38.0672H30.2704C25.5007 38.0545 20.93 36.1541 17.5573 32.7814C14.1846 29.4087 12.2842 24.838 12.2715 20.0683C12.2842 15.3009 14.1854 10.7327 17.5587 7.36379C20.9321 3.99492 25.5029 2.09985 30.2704 2.09351H103.036C107.799 2.10621 112.364 4.00405 115.732 7.37223C119.1 10.7404 120.998 15.305 121.011 20.0683C120.998 24.8339 119.101 29.401 115.733 32.773C112.366 36.145 107.801 38.0482 103.036 38.0672Z" fill="#150024"/>
</g>
<g style="mix-blend-mode:multiply" opacity="0.97">
<path d="M103.036 37.9229H30.2704C25.5029 37.9166 20.9321 36.0215 17.5587 32.6527C14.1854 29.2838 12.2842 24.7156 12.2715 19.9481C12.2842 15.1784 14.1846 10.6077 17.5573 7.235C20.93 3.8623 25.5007 1.96192 30.2704 1.94922H103.036C107.801 1.96826 112.366 3.87147 115.733 7.24348C119.101 10.6155 120.998 15.1826 121.011 19.9481C120.998 24.7114 119.1 29.276 115.732 32.6442C112.364 36.0124 107.799 37.9102 103.036 37.9229Z" fill="#150025"/>
</g>
<g style="mix-blend-mode:multiply" opacity="0.53">
<path d="M103.036 37.8026H30.2704C25.5007 37.7899 20.93 35.8895 17.5573 32.5168C14.1846 29.1441 12.2842 24.5734 12.2715 19.8037C12.2842 15.0362 14.1854 10.468 17.5587 7.09914C20.9321 3.73027 25.5029 1.83521 30.2704 1.82886H103.036C107.799 1.84156 112.364 3.7394 115.732 7.10759C119.1 10.4758 120.998 15.0404 121.011 19.8037C120.998 24.5692 119.101 29.1363 115.733 32.5083C112.366 35.8803 107.801 37.7835 103.036 37.8026Z" fill="#160026"/>
</g>
</g>
<path d="M103.037 37.8026H30.2713C25.5016 37.7899 20.9309 35.8895 17.5582 32.5168C14.1855 29.1441 12.2852 24.5734 12.2725 19.8037C12.2852 15.0362 14.1863 10.468 17.5597 7.09914C20.9331 3.73027 25.5039 1.83521 30.2713 1.82886H103.037C107.8 1.84156 112.365 3.7394 115.733 7.10759C119.101 10.4758 120.999 15.0404 121.012 19.8037C120.999 24.5692 119.102 29.1363 115.734 32.5083C112.367 35.8803 107.802 37.7835 103.037 37.8026Z" fill="#5E0499"/>
<path d="M30.2708 36.7437C25.4333 36.7437 20.7941 34.822 17.3735 31.4014C13.9529 27.9809 12.0313 23.3416 12.0312 18.5042C12.0313 13.6667 13.9529 9.02743 17.3735 5.60686C20.7941 2.18629 25.4333 0.264648 30.2708 0.264648H103.036C107.874 0.264648 112.513 2.18629 115.934 5.60686C119.354 9.02743 121.276 13.6667 121.276 18.5042C121.276 23.3416 119.354 27.9809 115.934 31.4014C112.513 34.822 107.874 36.7437 103.036 36.7437H30.2708Z" fill="#8810E4"/>
<path d="M103.036 0.505296C107.801 0.524341 112.366 2.42754 115.733 5.79956C119.101 9.17157 120.998 13.7387 121.011 18.5042C120.998 23.2675 119.1 27.8321 115.732 31.2003C112.364 34.5685 107.799 36.4663 103.036 36.479H30.2703C25.5028 36.4727 20.9321 34.5776 17.5587 31.2087C14.1853 27.8399 12.2842 23.2717 12.2714 18.5042C12.2841 13.7345 14.1845 9.16381 17.5572 5.79111C20.9299 2.41841 25.5006 0.517998 30.2703 0.505296H103.036ZM103.036 0H30.2703C27.8403 -1.44839e-07 25.4341 0.478604 23.1891 1.40853C20.944 2.33845 18.9041 3.70148 17.1859 5.41976C15.4676 7.13803 14.1046 9.17791 13.1747 11.4229C12.2447 13.668 11.7661 16.0742 11.7661 18.5042C11.7661 20.9342 12.2447 23.3404 13.1747 25.5854C14.1046 27.8305 15.4676 29.8704 17.1859 31.5887C18.9041 33.3069 20.944 34.6699 23.1891 35.5998C25.4341 36.5298 27.8403 37.0084 30.2703 37.0084H103.036C105.466 37.0084 107.872 36.5298 110.117 35.5998C112.362 34.6699 114.402 33.3069 116.12 31.5887C117.839 29.8704 119.202 27.8305 120.132 25.5854C121.061 23.3404 121.54 20.9342 121.54 18.5042C121.54 16.0742 121.061 13.668 120.132 11.4229C119.202 9.17791 117.839 7.13803 116.12 5.41976C114.402 3.70148 112.362 2.33845 110.117 1.40853C107.872 0.478604 105.466 -1.4484e-07 103.036 0Z" fill="#4B0395"/>
<g style="mix-blend-mode:soft-light" opacity="0.35">
<g style="mix-blend-mode:soft-light" opacity="0.35">
<path d="M10.6838 36.7436H0L36.4309 1.13086H47.1147L10.6838 36.7436Z" fill="white"/>
</g>
<g style="mix-blend-mode:soft-light" opacity="0.35">
<path d="M32.5813 36.7436H21.8975L58.3284 1.13086H69.0122L32.5813 36.7436Z" fill="white"/>
</g>
<g style="mix-blend-mode:soft-light" opacity="0.35">
<path d="M56.3069 36.7436H45.623L82.0539 1.13086H92.7378L56.3069 36.7436Z" fill="white"/>
</g>
<g style="mix-blend-mode:soft-light" opacity="0.35">
<path d="M81.0671 36.7436H70.3833L106.814 1.13086H117.498L81.0671 36.7436Z" fill="white"/>
</g>
<g style="mix-blend-mode:soft-light" opacity="0.35">
<path d="M102.844 36.7436H92.1362L128.591 1.13086H139.275L102.844 36.7436Z" fill="white"/>
</g>
</g>
<g style="mix-blend-mode:hard-light" opacity="0.42">
<path style="mix-blend-mode:hard-light" opacity="0.42" d="M103.012 0.529297H30.1747C20.2342 0.529297 12.1758 8.5823 12.1758 18.5162C12.1758 28.45 20.2342 36.503 30.1747 36.503H103.012C112.953 36.503 121.011 28.45 121.011 18.5162C121.011 8.5823 112.953 0.529297 103.012 0.529297Z" fill="url(#paint0_radial_619_6247)"/>
</g>
<g opacity="0.38">
<path opacity="0.38" d="M102.459 1.10693H30.2709C25.5268 1.13873 20.9881 3.0473 17.647 6.41548C14.3059 9.78366 12.434 14.3375 12.4404 19.0818C12.4404 19.3464 12.4404 19.6111 12.4404 19.8758C12.6377 15.2723 14.5952 10.9203 17.9089 7.71859C21.2226 4.51687 25.6393 2.70999 30.2468 2.67103H102.459C107.068 2.70413 111.488 4.50909 114.803 7.71202C118.118 10.9149 120.074 15.2703 120.265 19.8758C120.265 19.6111 120.265 19.3464 120.265 19.0818C120.272 14.3417 118.403 9.79142 115.067 6.42392C111.731 3.05642 107.199 1.14505 102.459 1.10693Z" fill="#F9A871"/>
</g>
<path d="M63.302 27.22C62.7593 27.22 62.18 27.1393 61.564 26.978C60.948 26.802 60.442 26.5527 60.046 26.23C59.8553 26.0687 59.7013 25.8633 59.584 25.614C59.4813 25.35 59.43 25.1007 59.43 24.866C59.43 24.6167 59.5327 24.382 59.738 24.162C59.958 23.942 60.266 23.832 60.662 23.832C60.926 23.832 61.256 23.9713 61.652 24.25C61.8867 24.3967 62.1433 24.5287 62.422 24.646C62.7007 24.7633 62.9867 24.822 63.28 24.822C63.984 24.822 64.5927 24.6973 65.106 24.448C65.6193 24.184 66.0153 23.8247 66.294 23.37C66.5727 22.9153 66.712 22.38 66.712 21.764C66.712 21.2067 66.58 20.73 66.316 20.334C66.0667 19.938 65.7293 19.63 65.304 19.41C64.8933 19.19 64.446 19.08 63.962 19.08C63.5073 19.08 63.1113 19.1533 62.774 19.3C62.4367 19.4467 62.1287 19.6007 61.85 19.762C61.5713 19.9087 61.2927 19.982 61.014 19.982C60.53 19.982 60.1707 19.8793 59.936 19.674C59.7013 19.454 59.5547 19.1973 59.496 18.904C59.4373 18.6107 59.4227 18.3467 59.452 18.112L60.134 12.766C60.1927 12.458 60.3393 12.2087 60.574 12.018C60.8233 11.8127 61.1167 11.71 61.454 11.71H67.812C68.164 11.71 68.4573 11.8273 68.692 12.062C68.9267 12.2967 69.044 12.59 69.044 12.942C69.044 13.2793 68.9267 13.5653 68.692 13.8C68.4573 14.02 68.164 14.13 67.812 14.13H62.136L62.378 13.932L61.784 18.398L61.498 17.562C61.586 17.4153 61.7767 17.276 62.07 17.144C62.3633 17.012 62.7007 16.902 63.082 16.814C63.4633 16.7113 63.8373 16.66 64.204 16.66C65.1867 16.66 66.0667 16.8873 66.844 17.342C67.6213 17.782 68.23 18.3907 68.67 19.168C69.1247 19.9307 69.352 20.796 69.352 21.764C69.352 22.864 69.1027 23.8247 68.604 24.646C68.1053 25.4673 67.4013 26.1053 66.492 26.56C65.5973 27 64.534 27.22 63.302 27.22ZM76.9898 27.22C75.7284 27.22 74.6578 26.89 73.7778 26.23C72.9124 25.5553 72.2524 24.624 71.7978 23.436C71.3431 22.2333 71.1158 20.8547 71.1158 19.3C71.1158 17.7307 71.3431 16.352 71.7978 15.164C72.2524 13.976 72.9124 13.052 73.7778 12.392C74.6578 11.7173 75.7284 11.38 76.9898 11.38C78.2511 11.38 79.3144 11.7173 80.1798 12.392C81.0598 13.052 81.7271 13.976 82.1818 15.164C82.6364 16.352 82.8638 17.7307 82.8638 19.3C82.8638 20.8547 82.6364 22.2333 82.1818 23.436C81.7271 24.624 81.0598 25.5553 80.1798 26.23C79.3144 26.89 78.2511 27.22 76.9898 27.22ZM76.9898 24.58C77.6058 24.58 78.1338 24.3893 78.5738 24.008C79.0284 23.612 79.3804 23.0253 79.6298 22.248C79.8791 21.456 80.0038 20.4733 80.0038 19.3C80.0038 18.112 79.8791 17.1293 79.6298 16.352C79.3804 15.5747 79.0284 14.9953 78.5738 14.614C78.1338 14.218 77.6058 14.02 76.9898 14.02C76.3884 14.02 75.8604 14.218 75.4058 14.614C74.9511 14.9953 74.5991 15.5747 74.3498 16.352C74.1004 17.1293 73.9758 18.112 73.9758 19.3C73.9758 20.4733 74.1004 21.456 74.3498 22.248C74.5991 23.0253 74.9511 23.612 75.4058 24.008C75.8604 24.3893 76.3884 24.58 76.9898 24.58Z" fill="#FFF04B"/>
<path d="M61.564 26.978L61.445 27.3946L61.4543 27.397L61.564 26.978ZM60.046 26.23L59.7662 26.5607L59.7724 26.5658L60.046 26.23ZM59.584 25.614L59.1803 25.771L59.1857 25.7849L59.1921 25.7984L59.584 25.614ZM59.738 24.162L59.4317 23.8557L59.4265 23.861L59.4214 23.8665L59.738 24.162ZM61.652 24.25L61.4027 24.6042L61.4124 24.611L61.4224 24.6173L61.652 24.25ZM62.422 24.646L62.5901 24.2468L62.422 24.646ZM65.106 24.448L65.2953 24.8377L65.3041 24.8332L65.106 24.448ZM66.294 23.37L65.9247 23.1437L66.294 23.37ZM66.316 20.334L65.9493 20.5649L65.9556 20.5743L66.316 20.334ZM65.304 19.41L65.0994 19.7918L65.105 19.7947L65.304 19.41ZM62.774 19.3L62.6013 18.9028L62.6013 18.9028L62.774 19.3ZM61.85 19.762L62.0517 20.1453L62.0595 20.1412L62.067 20.1368L61.85 19.762ZM59.936 19.674L59.6398 19.99L59.6452 19.9951L59.6508 20L59.936 19.674ZM59.496 18.904L59.9207 18.8191L59.496 18.904ZM59.452 18.112L59.0224 18.0572L59.0222 18.0583L59.452 18.112ZM60.134 12.766L59.7085 12.685L59.706 12.698L59.7044 12.7112L60.134 12.766ZM60.574 12.018L60.8471 12.3542L60.8493 12.3523L60.574 12.018ZM68.692 12.062L68.3857 12.3683V12.3683L68.692 12.062ZM68.692 13.8L68.9884 14.1161L68.9983 14.1063L68.692 13.8ZM62.136 14.13L61.8617 13.7948L60.9226 14.5631H62.136V14.13ZM62.378 13.932L62.8073 13.9891L62.9518 12.9029L62.1037 13.5968L62.378 13.932ZM61.784 18.398L61.3742 18.5382L61.9705 20.2812L62.2133 18.4551L61.784 18.398ZM61.498 17.562L61.1266 17.3392L61.023 17.5118L61.0882 17.7022L61.498 17.562ZM62.07 17.144L61.8923 16.749H61.8923L62.07 17.144ZM63.082 16.814L63.1794 17.236L63.187 17.2343L63.1946 17.2322L63.082 16.814ZM66.844 17.342L66.6253 17.7159L66.6306 17.7189L66.844 17.342ZM68.67 19.168L68.293 19.3814L68.298 19.3898L68.67 19.168ZM68.604 24.646L68.2338 24.4212L68.604 24.646ZM66.492 26.56L66.6832 26.9487L66.6857 26.9474L66.492 26.56ZM63.302 26.7869C62.8021 26.7869 62.2599 26.7125 61.6737 26.559L61.4543 27.397C62.1001 27.5661 62.7166 27.6531 63.302 27.6531V26.7869ZM61.683 26.5615C61.1096 26.3977 60.6601 26.1716 60.3196 25.8942L59.7724 26.5658C60.2239 26.9337 60.7864 27.2063 61.445 27.3945L61.683 26.5615ZM60.3258 25.8994C60.1872 25.7821 60.0695 25.6285 59.9759 25.4296L59.1921 25.7984C59.3331 26.0981 59.5234 26.3552 59.7662 26.5606L60.3258 25.8994ZM59.9877 25.457C59.9006 25.233 59.8631 25.0371 59.8631 24.866H58.9969C58.9969 25.1642 59.0621 25.467 59.1803 25.771L59.9877 25.457ZM59.8631 24.866C59.8631 24.7482 59.9078 24.6149 60.0546 24.4575L59.4214 23.8665C59.1575 24.1491 58.9969 24.4851 58.9969 24.866H59.8631ZM60.0443 24.4683C60.1624 24.3501 60.348 24.2651 60.662 24.2651V23.3989C60.184 23.3989 59.7536 23.5339 59.4317 23.8557L60.0443 24.4683ZM60.662 24.2651C60.7888 24.2651 61.027 24.3398 61.4027 24.6042L61.9013 23.8958C61.485 23.6029 61.0632 23.3989 60.662 23.3989V24.2651ZM61.4224 24.6173C61.6784 24.7773 61.9559 24.9197 62.2539 25.0452L62.5901 24.2468C62.3308 24.1376 62.0949 24.0161 61.8816 23.8827L61.4224 24.6173ZM62.2539 25.0452C62.5841 25.1842 62.9271 25.2551 63.28 25.2551V24.3889C63.0462 24.3889 62.8172 24.3424 62.5901 24.2468L62.2539 25.0452ZM63.28 25.2551C64.0346 25.2551 64.7108 25.1215 65.2952 24.8376L64.9168 24.0584C64.4746 24.2732 63.9334 24.3889 63.28 24.3889V25.2551ZM65.3041 24.8332C65.8819 24.536 66.3398 24.1242 66.6633 23.5963L65.9247 23.1437C65.6909 23.5252 65.3567 23.832 64.9079 24.0628L65.3041 24.8332ZM66.6633 23.5963C66.9898 23.0635 67.1451 22.4473 67.1451 21.764H66.2789C66.2789 22.3127 66.1555 22.7671 65.9247 23.1437L66.6633 23.5963ZM67.1451 21.764C67.1451 21.1361 66.9955 20.5724 66.6764 20.0937L65.9556 20.5743C66.1645 20.8876 66.2789 21.2772 66.2789 21.764H67.1451ZM66.6825 20.1032C66.3911 19.6403 65.9952 19.2799 65.503 19.0253L65.105 19.7947C65.4635 19.9801 65.7423 20.2357 65.9495 20.5648L66.6825 20.1032ZM65.5085 19.0282C65.0325 18.7732 64.5145 18.6469 63.962 18.6469V19.5131C64.3775 19.5131 64.7542 19.6068 65.0995 19.7918L65.5085 19.0282ZM63.962 18.6469C63.4615 18.6469 63.0044 18.7275 62.6013 18.9028L62.9467 19.6972C63.2183 19.5791 63.5531 19.5131 63.962 19.5131V18.6469ZM62.6013 18.9028C62.2509 19.0552 61.9278 19.2165 61.633 19.3872L62.067 20.1368C62.3295 19.9849 62.6225 19.8382 62.9467 19.6972L62.6013 18.9028ZM61.6483 19.3787C61.4236 19.497 61.2137 19.5489 61.014 19.5489V20.4151C61.3717 20.4151 61.719 20.3204 62.0517 20.1453L61.6483 19.3787ZM61.014 19.5489C60.5795 19.5489 60.3434 19.4549 60.2212 19.348L59.6508 20C59.998 20.3037 60.4805 20.4151 61.014 20.4151V19.5489ZM60.2322 19.358C60.0582 19.1948 59.9603 19.0171 59.9207 18.8191L59.0713 18.9889C59.149 19.3776 59.3445 19.7132 59.6398 19.99L60.2322 19.358ZM59.9207 18.8191C59.8689 18.5598 59.8595 18.3438 59.8818 18.1657L59.0222 18.0583C58.9858 18.3495 59.0058 18.6615 59.0713 18.9889L59.9207 18.8191ZM59.8816 18.1668L60.5636 12.8208L59.7044 12.7112L59.0224 18.0572L59.8816 18.1668ZM60.5595 12.847C60.5998 12.6353 60.6949 12.4779 60.8471 12.3542L60.3009 11.6818C59.9838 11.9395 59.7855 12.2807 59.7085 12.685L60.5595 12.847ZM60.8493 12.3523C61.0175 12.2139 61.2123 12.1431 61.454 12.1431V11.2769C61.021 11.2769 60.6292 11.4115 60.2987 11.6837L60.8493 12.3523ZM61.454 12.1431H67.812V11.2769H61.454V12.1431ZM67.812 12.1431C68.0569 12.1431 68.2376 12.2201 68.3857 12.3683L68.9983 11.7557C68.6771 11.4345 68.2711 11.2769 67.812 11.2769V12.1431ZM68.3857 12.3683C68.5339 12.5164 68.6109 12.6971 68.6109 12.942H69.4771C69.4771 12.4829 69.3195 12.0769 68.9983 11.7557L68.3857 12.3683ZM68.6109 12.942C68.6109 13.1666 68.5377 13.3418 68.3857 13.4937L68.9983 14.1063C69.3157 13.7889 69.4771 13.3921 69.4771 12.942H68.6109ZM68.3958 13.484C68.2493 13.6214 68.0653 13.6969 67.812 13.6969V14.5631C68.2627 14.5631 68.6654 14.4186 68.9882 14.116L68.3958 13.484ZM67.812 13.6969H62.136V14.5631H67.812V13.6969ZM62.4103 14.4652L62.6523 14.2672L62.1037 13.5968L61.8617 13.7948L62.4103 14.4652ZM61.9487 13.8749L61.3547 18.3409L62.2133 18.4551L62.8073 13.9891L61.9487 13.8749ZM62.1938 18.2578L61.9078 17.4218L61.0882 17.7022L61.3742 18.5382L62.1938 18.2578ZM61.8694 17.7848C61.8868 17.7559 61.9743 17.662 62.2477 17.539L61.8923 16.749C61.579 16.89 61.2852 17.0747 61.1266 17.3392L61.8694 17.7848ZM62.2477 17.539C62.5104 17.4208 62.82 17.319 63.1794 17.236L62.9846 16.392C62.5814 16.485 62.2163 16.6032 61.8923 16.749L62.2477 17.539ZM63.1946 17.2322C63.542 17.1387 63.8782 17.0931 64.204 17.0931V16.2269C63.7965 16.2269 63.3846 16.284 62.9694 16.3958L63.1946 17.2322ZM64.204 17.0931C65.117 17.0931 65.9203 17.3035 66.6253 17.7159L67.0627 16.9681C66.213 16.4712 65.2563 16.2269 64.204 16.2269V17.0931ZM66.6306 17.7189C67.3396 18.1202 67.8918 18.6724 68.2931 19.3814L69.0469 18.9546C68.5682 18.109 67.903 17.4438 67.0574 16.9651L66.6306 17.7189ZM68.298 19.3898C68.7091 20.0794 68.9189 20.8668 68.9189 21.764H69.7851C69.7851 20.7252 69.5403 19.7819 69.042 18.9462L68.298 19.3898ZM68.9189 21.764C68.9189 22.7964 68.6856 23.677 68.2338 24.4212L68.9742 24.8708C69.5197 23.9723 69.7851 22.9316 69.7851 21.764H68.9189ZM68.2338 24.4212C67.78 25.1687 67.1391 25.7522 66.2983 26.1726L66.6857 26.9474C67.6636 26.4585 68.4307 25.766 68.9742 24.8708L68.2338 24.4212ZM66.3009 26.1713C65.478 26.576 64.483 26.7869 63.302 26.7869V27.6531C64.585 27.6531 65.7167 27.424 66.6831 26.9487L66.3009 26.1713ZM73.7778 26.23L73.5114 26.5716L73.5179 26.5765L73.7778 26.23ZM71.7978 23.436L71.3926 23.5892L71.3933 23.5908L71.7978 23.436ZM71.7978 15.164L71.3933 15.0092L71.7978 15.164ZM73.7778 12.392L74.0405 12.7364L74.0413 12.7357L73.7778 12.392ZM80.1798 12.392L79.9134 12.7336L79.9199 12.7385L80.1798 12.392ZM82.1818 15.164L82.5863 15.0092L82.1818 15.164ZM82.1818 23.436L82.5863 23.5908L82.5869 23.5892L82.1818 23.436ZM80.1798 26.23L80.4425 26.5744L80.4433 26.5737L80.1798 26.23ZM78.5738 24.008L78.8575 24.3353L78.8583 24.3346L78.5738 24.008ZM79.6298 22.248L80.0422 22.3803L80.0429 22.3781L79.6298 22.248ZM79.6298 16.352L79.2174 16.4843L79.6298 16.352ZM78.5738 14.614L78.284 14.9359L78.2897 14.941L78.2954 14.9459L78.5738 14.614ZM75.4058 14.614L75.6842 14.9459L75.6903 14.9406L75.4058 14.614ZM74.3498 16.352L73.9374 16.2197L74.3498 16.352ZM74.3498 22.248L73.9366 22.3781L73.9374 22.3803L74.3498 22.248ZM75.4058 24.008L75.1213 24.3347L75.1274 24.3399L75.4058 24.008ZM76.9898 26.7869C75.8078 26.7869 74.832 26.4792 74.0377 25.8835L73.5179 26.5765C74.4836 27.3008 75.6491 27.6531 76.9898 27.6531V26.7869ZM74.0441 25.8884C73.2503 25.2696 72.6333 24.4074 72.2023 23.2812L71.3933 23.5908C71.8716 24.8406 72.5746 25.8411 73.5115 26.5716L74.0441 25.8884ZM72.2029 23.2828C71.7702 22.1382 71.5489 20.813 71.5489 19.3H70.6827C70.6827 20.8964 70.916 22.3285 71.3926 23.5892L72.2029 23.2828ZM71.5489 19.3C71.5489 17.7716 71.7704 16.4473 72.2023 15.3188L71.3933 15.0092C70.9158 16.2567 70.6827 17.6897 70.6827 19.3H71.5489ZM72.2023 15.3188C72.6331 14.1931 73.2492 13.3399 74.0405 12.7364L73.5151 12.0476C72.5757 12.7641 71.8718 13.7589 71.3933 15.0092L72.2023 15.3188ZM74.0413 12.7357C74.8355 12.1269 75.81 11.8131 76.9898 11.8131V10.9469C75.6469 10.9469 74.4801 11.3078 73.5143 12.0483L74.0413 12.7357ZM76.9898 11.8131C78.1697 11.8131 79.1353 12.1269 79.9135 12.7336L80.4461 12.0504C79.4936 11.3078 78.3325 10.9469 76.9898 10.9469V11.8131ZM79.9199 12.7385C80.7249 13.3422 81.3471 14.1949 81.7773 15.3188L82.5863 15.0092C82.1071 13.7571 81.3947 12.7618 80.4397 12.0455L79.9199 12.7385ZM81.7773 15.3188C82.2092 16.4473 82.4307 17.7716 82.4307 19.3H83.2969C83.2969 17.6897 83.0637 16.2567 82.5863 15.0092L81.7773 15.3188ZM82.4307 19.3C82.4307 20.813 82.2094 22.1382 81.7766 23.2828L82.5869 23.5892C83.0635 22.3285 83.2969 20.8964 83.2969 19.3H82.4307ZM81.7773 23.2812C81.3469 24.4056 80.7238 25.2672 79.9163 25.8863L80.4433 26.5737C81.3958 25.8435 82.1073 24.8424 82.5863 23.5908L81.7773 23.2812ZM79.9171 25.8856C79.1389 26.4792 78.1719 26.7869 76.9898 26.7869V27.6531C78.3303 27.6531 79.49 27.3008 80.4425 26.5744L79.9171 25.8856ZM76.9898 25.0131C77.7034 25.0131 78.3339 24.7891 78.8575 24.3353L78.2901 23.6807C77.9337 23.9896 77.5081 24.1469 76.9898 24.1469V25.0131ZM78.8583 24.3346C79.39 23.8715 79.777 23.2071 80.0422 22.3803L79.2174 22.1157C78.9839 22.8435 78.6669 23.3525 78.2893 23.6814L78.8583 24.3346ZM80.0429 22.3781C80.3097 21.5306 80.4369 20.5008 80.4369 19.3H79.5707C79.5707 20.4459 79.4485 21.3814 79.2166 22.1179L80.0429 22.3781ZM80.4369 19.3C80.4369 18.0856 80.31 17.0544 80.0422 16.2197L79.2174 16.4843C79.4483 17.2042 79.5707 18.1384 79.5707 19.3H80.4369ZM80.0422 16.2197C79.777 15.3927 79.3888 14.7322 78.8521 14.2821L78.2954 14.9459C78.6681 15.2584 78.9839 15.7566 79.2174 16.4843L80.0422 16.2197ZM78.8635 14.2921C78.3405 13.8213 77.708 13.5869 76.9898 13.5869V14.4531C77.5036 14.4531 77.927 14.6146 78.284 14.9359L78.8635 14.2921ZM76.9898 13.5869C76.2836 13.5869 75.6546 13.8229 75.1213 14.2874L75.6903 14.9406C76.0663 14.6131 76.4933 14.4531 76.9898 14.4531V13.5869ZM75.1274 14.2821C74.5908 14.7322 74.2026 15.3927 73.9374 16.2197L74.7622 16.4843C74.9956 15.7566 75.3114 15.2584 75.6841 14.9459L75.1274 14.2821ZM73.9374 16.2197C73.6696 17.0544 73.5427 18.0856 73.5427 19.3H74.4089C74.4089 18.1384 74.5313 17.2042 74.7622 16.4843L73.9374 16.2197ZM73.5427 19.3C73.5427 20.5008 73.6698 21.5306 73.9366 22.3781L74.7629 22.1179C74.5311 21.3814 74.4089 20.4459 74.4089 19.3H73.5427ZM73.9374 22.3803C74.2026 23.2071 74.5896 23.8715 75.1213 24.3346L75.6903 23.6814C75.3127 23.3525 74.9957 22.8435 74.7622 22.1157L73.9374 22.3803ZM75.1274 24.3399C75.6612 24.7876 76.2881 25.0131 76.9898 25.0131V24.1469C76.4888 24.1469 76.0597 23.9911 75.6841 23.6761L75.1274 24.3399Z" fill="#7A3100"/>
<g opacity="0.64">
<path opacity="0.2" d="M40.2326 10.3951C38.7 9.0199 36.9627 7.8915 35.0832 7.05041C34.4574 6.79528 33.8029 6.6175 33.1341 6.52103C27.0222 5.53446 20.429 10.5876 18.4077 17.7824C16.7233 23.8221 18.8168 29.3806 23.0759 31.7147C24.831 32.5994 26.7152 33.2004 28.6584 33.4953C34.5778 34.4338 41.0026 29.549 42.9516 22.5468C43.6499 20.4659 43.7657 18.2337 43.2864 16.0918C42.8072 13.9499 41.7511 11.9799 40.2326 10.3951Z" fill="black"/>
<path opacity="0.4" d="M39.631 9.91375C38.0766 8.53816 36.3143 7.41739 34.4094 6.59309C33.7836 6.33796 33.1291 6.16022 32.4603 6.06374C26.3724 5.07717 19.8033 10.1063 17.8061 17.301C16.1217 23.2926 18.1911 28.827 22.4502 31.1371C24.1982 32.0183 26.074 32.6192 28.0087 32.9177C33.904 33.8802 40.2807 28.9955 42.2297 22.0173C42.934 19.9537 43.0642 17.7375 42.6065 15.6057C42.1487 13.4738 41.1202 11.5064 39.631 9.91375Z" fill="black"/>
<path opacity="0.6" d="M39.0292 9.45681C37.4798 8.08653 35.7262 6.96622 33.8316 6.13618C33.2132 5.88402 32.567 5.70631 31.9066 5.6068C25.8428 4.6443 19.2978 9.64932 17.3006 16.7959C15.6162 22.7635 17.6856 28.2738 21.9206 30.5838C23.6588 31.4683 25.5272 32.0695 27.455 32.3645C33.3263 33.3029 39.6789 28.4423 41.6279 21.5122C42.3228 19.4553 42.4481 17.2486 41.9906 15.1262C41.5331 13.0038 40.5098 11.0448 39.0292 9.45681Z" fill="black"/>
<path opacity="0.8" d="M38.4277 8.97548C36.8798 7.6213 35.1355 6.5098 33.2542 5.6789C32.6275 5.45184 31.9838 5.27482 31.3292 5.14952C25.2895 4.18701 18.7685 9.168 16.8916 16.2906C15.2313 22.234 17.3007 27.7444 21.5116 30.0303C23.2469 30.8963 25.1056 31.4888 27.022 31.7869C32.8692 32.7253 39.1977 27.8888 41.1227 20.9828C41.7959 18.9241 41.9009 16.7219 41.4265 14.6085C40.9522 12.4951 39.9161 10.549 38.4277 8.97548Z" fill="black"/>
<path opacity="0.64" d="M37.802 8.51823C36.288 7.14296 34.556 6.02892 32.6767 5.22166C32.0545 4.98056 31.4096 4.80319 30.7516 4.69227C24.736 3.72977 18.2631 8.71074 16.314 15.7852C14.6537 21.7046 16.675 27.2631 20.91 29.4528C22.6223 30.3539 24.479 30.9485 26.3963 31.2094C32.2195 32.1478 38.4276 27.3353 40.4489 20.4533C41.13 18.4108 41.2435 16.2215 40.7773 14.1194C40.3112 12.0174 39.2828 10.0814 37.802 8.51823Z" fill="black"/>
</g>
<path d="M37.802 8.51823C36.288 7.14296 34.556 6.02892 32.6767 5.22166C32.0545 4.98056 31.4096 4.80319 30.7516 4.69227C24.736 3.72977 18.2631 8.71074 16.314 15.7852C14.6537 21.7046 16.675 27.2631 20.91 29.4528C22.6223 30.3539 24.479 30.9485 26.3963 31.2094C32.2195 32.1478 38.4276 27.3353 40.4489 20.4533C41.13 18.4108 41.2435 16.2215 40.7773 14.1194C40.3112 12.0174 39.2828 10.0814 37.802 8.51823Z" fill="#E37508"/>
<path d="M37.4896 19.154C35.6127 25.8193 29.5008 30.4875 23.7979 29.5731C18.0951 28.6587 14.991 22.4987 16.8679 15.8333C18.7447 9.16797 24.8567 4.4998 30.5595 5.41418C36.2624 6.32857 39.3905 12.4886 37.4896 19.154Z" fill="url(#paint1_linear_619_6247)"/>
<path d="M35.9496 19.0094C34.3374 24.8326 28.9473 28.8992 23.9182 28.1051C18.8891 27.311 16.146 21.8969 17.7822 16.0738C19.4185 10.2506 24.7845 6.18402 29.8136 7.00215C34.8427 7.82028 37.4896 13.1862 35.9496 19.0094Z" fill="url(#paint2_linear_619_6247)"/>
<path d="M35.2761 19.1539C33.8083 24.4476 28.9476 28.1774 24.472 27.4555C19.9963 26.7336 17.5178 21.8489 19.0097 16.5551C20.5016 11.2613 25.3382 7.53158 29.8379 8.25346C34.3377 8.97534 36.768 13.8601 35.2761 19.1539Z" fill="url(#paint3_linear_619_6247)"/>
<path d="M38.3082 13.1862C38.6174 15.6096 38.4041 18.071 37.6826 20.405C37.1773 22.0894 39.2466 21.1991 39.5835 20.6938C40.3511 19.3944 40.7037 17.8917 40.5942 16.3866C40.5942 14.3653 40.3295 13.09 39.0782 12.2959C37.827 11.5019 38.1397 12.32 38.3082 13.1862Z" fill="url(#paint4_linear_619_6247)"/>
<defs>
<radialGradient id="paint0_radial_619_6247" cx="0" cy="0" r="1" gradientUnits="userSpaceOnUse" gradientTransform="translate(8402.31 144340) scale(3588.31 1186.05)">
<stop stop-color="#FFC65D"/>
<stop offset="1"/>
</radialGradient>
<linearGradient id="paint1_linear_619_6247" x1="1383.75" y1="4503.36" x2="1374.53" y2="4508.5" gradientUnits="userSpaceOnUse">
<stop stop-color="#FFFF61"/>
<stop offset="1" stop-color="#FFC70D"/>
</linearGradient>
<linearGradient id="paint2_linear_619_6247" x1="1155.84" y1="3986.13" x2="1305.99" y2="4089.59" gradientUnits="userSpaceOnUse">
<stop stop-color="#E37508"/>
<stop offset="1" stop-color="#FFC70D"/>
</linearGradient>
<linearGradient id="paint3_linear_619_6247" x1="1079.9" y1="3656.22" x2="1068.24" y2="3662.5" gradientUnits="userSpaceOnUse">
<stop stop-color="#FFFF61"/>
<stop offset="1" stop-color="#FFC70D"/>
</linearGradient>
<linearGradient id="paint4_linear_619_6247" x1="236.757" y1="1814.29" x2="254.269" y2="1775.16" gradientUnits="userSpaceOnUse">
<stop stop-color="#E37508"/>
<stop offset="1" stop-color="#FFC70D"/>
</linearGradient>
</defs>
</svg>
