<svg width="140" height="43" viewBox="0 0 140 43" fill="none" xmlns="http://www.w3.org/2000/svg">
<g style="mix-blend-mode:multiply" opacity="0.53">
<g style="mix-blend-mode:multiply" opacity="0.03">
<path d="M103.311 42.8797H30.5453C25.7756 42.867 21.2049 40.9666 17.8322 37.5939C14.4595 34.2212 12.5591 29.6505 12.5464 24.8808C12.5591 20.1134 14.4603 15.5452 17.8337 12.1763C21.207 8.80742 25.7778 6.91235 30.5453 6.90601H103.311C108.074 6.91871 112.639 8.81655 116.007 12.1847C119.375 15.5529 121.273 20.1175 121.286 24.8808C121.273 29.6464 119.376 34.2135 116.008 37.5855C112.641 40.9575 108.076 42.8607 103.311 42.8797Z" fill="#010001"/>
</g>
<g style="mix-blend-mode:multiply" opacity="0.05">
<path d="M103.311 42.7354H30.5453C25.7778 42.7291 21.207 40.834 17.8337 37.4652C14.4603 34.0963 12.5591 29.5281 12.5464 24.7606C12.5591 19.9909 14.4595 15.4202 17.8322 12.0475C21.2049 8.6748 25.7756 6.77442 30.5453 6.76172H103.311C108.076 6.78076 112.641 8.68397 116.008 12.056C119.376 15.428 121.273 19.9951 121.286 24.7606C121.273 29.5239 119.375 34.0885 116.007 37.4567C112.639 40.8249 108.074 42.7227 103.311 42.7354Z" fill="#010002"/>
</g>
<g style="mix-blend-mode:multiply" opacity="0.08">
<path d="M103.311 42.6151H30.5453C25.7756 42.6024 21.2049 40.702 17.8322 37.3293C14.4595 33.9566 12.5591 29.3859 12.5464 24.6162C12.5591 19.8487 14.4603 15.2805 17.8337 11.9116C21.207 8.54277 25.7778 6.64771 30.5453 6.64136H103.311C108.074 6.65406 112.639 8.5519 116.007 11.9201C119.375 15.2883 121.273 19.8529 121.286 24.6162C121.273 29.3817 119.376 33.9488 116.008 37.3208C112.641 40.6928 108.076 42.596 103.311 42.6151Z" fill="#020003"/>
</g>
<g style="mix-blend-mode:multiply" opacity="0.1">
<path d="M103.311 42.4705H30.5453C25.7778 42.4642 21.207 40.5691 17.8337 37.2003C14.4603 33.8314 12.5591 29.2632 12.5464 24.4957C12.5528 19.7241 14.4511 15.1497 17.8252 11.7756C21.1992 8.40156 25.7736 6.50319 30.5453 6.49683H103.311C108.078 6.50955 112.647 8.41069 116.015 11.7841C119.384 15.1575 121.279 19.7282 121.286 24.4957C121.273 29.259 119.375 33.8236 116.007 37.1918C112.639 40.56 108.074 42.4578 103.311 42.4705Z" fill="#020004"/>
</g>
<g style="mix-blend-mode:multiply" opacity="0.13">
<path d="M103.311 42.3503H30.5453C25.7756 42.3376 21.2049 40.4372 17.8322 37.0645C14.4595 33.6918 12.5591 29.1211 12.5464 24.3514C12.5591 19.5817 14.4595 15.011 17.8322 11.6383C21.2049 8.26562 25.7756 6.36524 30.5453 6.35254H103.311C108.076 6.37158 112.641 8.27475 116.008 11.6468C119.376 15.0188 121.273 19.5859 121.286 24.3514C121.273 29.117 119.376 33.6841 116.008 37.0561C112.641 40.4281 108.076 42.3312 103.311 42.3503Z" fill="#030005"/>
</g>
<g style="mix-blend-mode:multiply" opacity="0.15">
<path d="M103.311 42.206H30.5453C28.1745 42.2155 25.825 41.7572 23.6316 40.8572C21.4382 39.9572 19.4439 38.6333 17.763 36.9613C16.0821 35.2893 14.7476 33.3021 13.8359 31.1136C12.9242 28.925 12.4533 26.578 12.4502 24.2071C12.4565 21.8383 12.9297 19.4939 13.8428 17.3081C14.7559 15.1223 16.0909 13.138 17.7715 11.4685C19.4521 9.7991 21.4453 8.47735 23.6372 7.57887C25.829 6.6804 28.1765 6.22283 30.5453 6.23232H103.311C108.074 6.24502 112.639 8.14287 116.007 11.5111C119.375 14.8792 121.273 19.4438 121.286 24.2071C121.279 28.9746 119.384 33.5454 116.015 36.9188C112.647 40.2922 108.078 42.1933 103.311 42.206Z" fill="#030006"/>
</g>
<g style="mix-blend-mode:multiply" opacity="0.18">
<path d="M103.311 42.0617H30.5455C25.782 42.0809 21.2047 40.2137 17.8139 36.868C14.4232 33.5224 12.4948 28.9704 12.4503 24.2072C12.4408 21.8271 12.9022 19.4686 13.8079 17.2675C14.7136 15.0665 16.0457 13.0663 17.7276 11.3822C19.4094 9.69811 21.4078 8.36332 23.6077 7.4547C25.8075 6.54608 28.1654 6.08159 30.5455 6.08796H103.311C108.077 6.107 112.641 8.01017 116.009 11.3822C119.376 14.7542 121.273 19.3213 121.286 24.0868C121.273 28.8501 119.375 33.4147 116.007 36.7829C112.639 40.1511 108.074 42.049 103.311 42.0617Z" fill="#040007"/>
</g>
<g style="mix-blend-mode:multiply" opacity="0.21">
<path d="M103.311 41.9412H30.5453C25.7736 41.9349 21.1992 40.0365 17.8252 36.6625C14.4511 33.2884 12.5528 28.714 12.5464 23.9424C12.5591 19.1749 14.4603 14.6067 17.8337 11.2378C21.207 7.86894 25.7778 5.97388 30.5453 5.96753H103.311C108.074 5.98023 112.639 7.87807 116.007 11.2463C119.375 14.6144 121.273 19.179 121.286 23.9424C121.279 28.7098 119.384 33.2806 116.015 36.654C112.647 40.0274 108.078 41.9285 103.311 41.9412Z" fill="#050008"/>
</g>
<g style="mix-blend-mode:multiply" opacity="0.23">
<path d="M103.311 41.7969H30.5453C25.7778 41.7906 21.207 39.8956 17.8337 36.5267C14.4603 33.1578 12.5591 28.5896 12.5464 23.8221C12.5591 19.0524 14.4595 14.4817 17.8322 11.109C21.2049 7.73632 25.7756 5.83594 30.5453 5.82324H103.311C108.076 5.84229 112.641 7.74545 116.008 11.1175C119.376 14.4895 121.273 19.0566 121.286 23.8221C121.273 28.5854 119.375 33.15 116.007 36.5182C112.639 39.8864 108.074 41.7842 103.311 41.7969Z" fill="#050009"/>
</g>
<g style="mix-blend-mode:multiply" opacity="0.26">
<path d="M103.311 41.6766H30.5453C25.7756 41.6639 21.2049 39.7635 17.8322 36.3908C14.4595 33.0181 12.5591 28.4474 12.5464 23.6777C12.5591 18.9102 14.4603 14.342 17.8337 10.9732C21.207 7.6043 25.7778 5.70923 30.5453 5.70288H103.311C108.074 5.71558 112.639 7.61343 116.007 10.9816C119.375 14.3498 121.273 18.9144 121.286 23.6777C121.273 28.4432 119.376 33.0103 116.008 36.3824C112.641 39.7544 108.076 41.6575 103.311 41.6766Z" fill="#06000A"/>
</g>
<g style="mix-blend-mode:multiply" opacity="0.28">
<path d="M103.311 41.5323H30.5453C25.7778 41.5259 21.207 39.6309 17.8337 36.262C14.4603 32.8932 12.5591 28.3249 12.5464 23.5575C12.5591 18.7878 14.4595 14.2171 17.8322 10.8444C21.2049 7.47168 25.7756 5.5713 30.5453 5.55859H103.311C108.076 5.57764 112.641 7.48084 116.008 10.8529C119.376 14.2249 121.273 18.7919 121.286 23.5575C121.273 28.3208 119.375 32.8854 116.007 36.2536C112.639 39.6217 108.074 41.5196 103.311 41.5323Z" fill="#06000B"/>
</g>
<g style="mix-blend-mode:multiply" opacity="0.31">
<path d="M103.311 41.4119H30.5453C25.7756 41.3992 21.2049 39.4989 17.8322 36.1262C14.4595 32.7535 12.5591 28.1828 12.5464 23.4131C12.5591 18.6456 14.4603 14.0774 17.8337 10.7085C21.207 7.33965 25.7778 5.44458 30.5453 5.43823H103.311C108.074 5.45093 112.639 7.34878 116.007 10.717C119.375 14.0851 121.273 18.6497 121.286 23.4131C121.273 28.1786 119.376 32.7457 116.008 36.1177C112.641 39.4897 108.076 41.3929 103.311 41.4119Z" fill="#07000C"/>
</g>
<g style="mix-blend-mode:multiply" opacity="0.33">
<path d="M103.311 41.2674H30.5453C25.7778 41.2611 21.207 39.366 17.8337 35.9972C14.4603 32.6283 12.5591 28.0601 12.5464 23.2926C12.5528 18.5209 14.4511 13.9466 17.8252 10.5725C21.1992 7.19844 25.7736 5.30007 30.5453 5.2937H103.311C108.078 5.30643 112.647 7.20757 116.015 10.5809C119.384 13.9543 121.279 18.5251 121.286 23.2926C121.273 28.0559 119.375 32.6205 116.007 35.9887C112.639 39.3569 108.074 41.2547 103.311 41.2674Z" fill="#07000D"/>
</g>
<g style="mix-blend-mode:multiply" opacity="0.36">
<path d="M103.311 41.0509H30.5453C25.7756 41.0382 21.2049 39.1378 17.8322 35.7652C14.4595 32.3925 12.5591 27.8218 12.5464 23.0521C12.5844 18.2991 14.4959 13.753 17.8659 10.401C21.2359 7.0491 25.7922 5.16194 30.5453 5.14941H103.311C108.076 5.16846 112.641 7.07163 116.008 10.4436C119.376 13.8156 121.273 18.3827 121.286 23.1483C121.248 27.8971 119.339 32.4396 115.975 35.7909C112.61 39.1422 108.06 41.0321 103.311 41.0509Z" fill="#08000E"/>
</g>
<g style="mix-blend-mode:multiply" opacity="0.38">
<path d="M103.311 41.0511H30.5454C25.7738 41.0447 21.1994 39.1464 17.8253 35.7723C14.4512 32.3982 12.5529 27.8238 12.5465 23.0522C12.537 20.6813 12.9954 18.3319 13.8954 16.1385C14.7954 13.9451 16.1193 11.9508 17.7912 10.2698C19.4632 8.58891 21.4504 7.25439 23.639 6.34272C25.8276 5.43106 28.1745 4.96018 30.5454 4.95703H103.311C108.074 4.96973 112.639 6.86758 116.007 10.2358C119.375 13.6039 121.273 18.1685 121.286 22.9319C121.298 25.3027 120.843 27.6528 119.946 29.8474C119.049 32.042 117.728 34.0381 116.058 35.7213C114.388 37.4044 112.403 38.7416 110.216 39.6561C108.028 40.5707 105.682 41.0448 103.311 41.0511Z" fill="#08000F"/>
</g>
<g style="mix-blend-mode:multiply" opacity="0.41">
<path d="M103.311 40.8585H30.5453C25.7778 40.8522 21.207 38.9572 17.8337 35.5883C14.4603 32.2194 12.5591 27.6512 12.5464 22.8837C12.5781 18.1266 14.4869 13.5743 17.8575 10.2172C21.2281 6.86005 25.788 4.96961 30.5453 4.95703H103.311C108.076 4.97608 112.641 6.87928 116.008 10.2513C119.376 13.6233 121.273 18.1904 121.286 22.9559C121.254 27.7067 119.348 32.2528 115.982 35.6054C112.615 38.9581 108.062 40.846 103.311 40.8585Z" fill="#090010"/>
</g>
<g style="mix-blend-mode:multiply" opacity="0.44">
<path d="M103.311 40.7381H30.5453C25.7756 40.7254 21.2049 38.825 17.8322 35.4523C14.4595 32.0796 12.5591 27.5089 12.5464 22.7392C12.5591 17.9718 14.4603 13.4036 17.8337 10.0347C21.207 6.66582 25.7778 4.77075 30.5453 4.7644H103.311C108.074 4.77711 112.639 6.67495 116.007 10.0431C119.375 13.4113 121.273 17.9759 121.286 22.7392C121.273 27.5048 119.376 32.0719 116.008 35.4439C112.641 38.8159 108.076 40.7191 103.311 40.7381Z" fill="#0A0011"/>
</g>
<g style="mix-blend-mode:multiply" opacity="0.46">
<path d="M103.311 40.5938H30.5453C25.7778 40.5875 21.207 38.6924 17.8337 35.3236C14.4603 31.9547 12.5591 27.3865 12.5464 22.619C12.5591 17.8493 14.4595 13.2786 17.8322 9.9059C21.2049 6.5332 25.7756 4.63282 30.5453 4.62012H103.311C108.076 4.63916 112.641 6.54233 116.008 9.91434C119.376 13.2864 121.273 17.8535 121.286 22.619C121.273 27.3823 119.375 31.9469 116.007 35.3151C112.639 38.6833 108.074 40.5811 103.311 40.5938Z" fill="#0A0012"/>
</g>
<g style="mix-blend-mode:multiply" opacity="0.49">
<path d="M103.311 40.4735H30.5453C25.7756 40.4608 21.2049 38.5604 17.8322 35.1877C14.4595 31.815 12.5591 27.2443 12.5464 22.4746C12.5591 17.7071 14.4603 13.1389 17.8337 9.77004C21.207 6.40117 25.7778 4.5061 30.5453 4.49976H103.311C108.074 4.51246 112.639 6.4103 116.007 9.77848C119.375 13.1467 121.273 17.7113 121.286 22.4746C121.273 27.2401 119.376 31.8072 116.008 35.1792C112.641 38.5512 108.076 40.4544 103.311 40.4735Z" fill="#0B0013"/>
</g>
<g style="mix-blend-mode:multiply" opacity="0.51">
<path d="M103.311 40.3292H30.5453C25.7778 40.3228 21.207 38.4278 17.8337 35.0589C14.4603 31.6901 12.5591 27.1218 12.5464 22.3543C12.5591 17.5846 14.4595 13.0139 17.8322 9.64125C21.2049 6.26855 25.7756 4.36817 30.5453 4.35547H103.311C108.076 4.37451 112.641 6.27772 116.008 9.64973C119.376 13.0217 121.273 17.5888 121.286 22.3543C121.273 27.1177 119.375 31.6823 116.007 35.0504C112.639 38.4186 108.074 40.3165 103.311 40.3292Z" fill="#0B0013"/>
</g>
<g style="mix-blend-mode:multiply" opacity="0.54">
<path d="M103.311 40.2088H30.5453C25.7756 40.1961 21.2049 38.2957 17.8322 34.923C14.4595 31.5503 12.5591 26.9796 12.5464 22.2099C12.5591 17.4425 14.4603 12.8743 17.8337 9.50539C21.207 6.13652 25.7778 4.24146 30.5453 4.23511H103.311C108.074 4.24781 112.639 6.14565 116.007 9.51384C119.375 12.882 121.273 17.4466 121.286 22.2099C121.273 26.9755 119.376 31.5426 116.008 34.9146C112.641 38.2866 108.076 40.1898 103.311 40.2088Z" fill="#0C0014"/>
</g>
<g style="mix-blend-mode:multiply" opacity="0.56">
<path d="M103.311 40.0643H30.5453C25.7778 40.0579 21.207 38.1629 17.8337 34.794C14.4603 31.4252 12.5591 26.8569 12.5464 22.0895C12.5528 17.3178 14.4511 12.7434 17.8252 9.36938C21.1992 5.99531 25.7736 4.09694 30.5453 4.09058H103.311C108.078 4.1033 112.647 6.00444 116.015 9.37782C119.384 12.7512 121.279 17.322 121.286 22.0895C121.273 26.8528 119.375 31.4174 116.007 34.7855C112.639 38.1537 108.074 40.0516 103.311 40.0643Z" fill="#0C0015"/>
</g>
<g style="mix-blend-mode:multiply" opacity="0.59">
<path d="M103.311 39.944H30.5453C25.7756 39.9313 21.2049 38.031 17.8322 34.6583C14.4595 31.2856 12.5591 26.7149 12.5464 21.9452C12.5591 17.1755 14.4595 12.6048 17.8322 9.23207C21.2049 5.85937 25.7756 3.95899 30.5453 3.94629H103.311C108.076 3.96533 112.641 5.8685 116.008 9.24051C119.376 12.6125 121.273 17.1796 121.286 21.9452C121.273 26.7107 119.376 31.2778 116.008 34.6498C112.641 38.0218 108.076 39.925 103.311 39.944Z" fill="#0D0016"/>
</g>
<g style="mix-blend-mode:multiply" opacity="0.62">
<path d="M103.311 39.7998H30.5453C28.1745 39.8093 25.825 39.3509 23.6316 38.4509C21.4382 37.551 19.4439 36.2271 17.763 34.5551C16.0821 32.8831 14.7476 30.8959 13.8359 28.7073C12.9242 26.5187 12.4533 24.1718 12.4502 21.8009C12.4565 19.4321 12.9297 17.0877 13.8428 14.9019C14.7559 12.7161 16.0909 10.7317 17.7715 9.06228C19.4521 7.39285 21.4453 6.0711 23.6372 5.17262C25.829 4.27415 28.1765 3.81658 30.5453 3.82607H103.311C108.074 3.83877 112.639 5.73662 116.007 9.1048C119.375 12.473 121.273 17.0376 121.286 21.8009C121.279 26.5684 119.384 31.1391 116.015 34.5125C112.647 37.8859 108.078 39.787 103.311 39.7998Z" fill="#0E0017"/>
</g>
<g style="mix-blend-mode:multiply" opacity="0.64">
<path d="M103.311 39.6554H30.5455C25.782 39.6747 21.2047 37.8074 17.8139 34.4618C14.4232 31.1161 12.4948 26.5642 12.4503 21.8009C12.4408 19.4208 12.9022 17.0623 13.8079 14.8613C14.7136 12.6602 16.0457 10.6601 17.7276 8.97597C19.4094 7.29186 21.4078 5.95707 23.6077 5.04845C25.8075 4.13983 28.1654 3.67534 30.5455 3.68171H103.311C108.077 3.70075 112.641 5.60392 116.009 8.97593C119.376 12.3479 121.273 16.915 121.286 21.6806C121.273 26.4439 119.375 31.0085 116.007 34.3767C112.639 37.7449 108.074 39.6427 103.311 39.6554Z" fill="#0E0018"/>
</g>
<g style="mix-blend-mode:multiply" opacity="0.67">
<path d="M103.311 39.535H30.5453C25.7756 39.5223 21.2049 37.6219 17.8322 34.2492C14.4595 30.8765 12.5591 26.3058 12.5464 21.5361C12.5591 16.7686 14.4603 12.2004 17.8337 8.83156C21.207 5.46269 25.7778 3.56763 30.5453 3.56128H103.311C108.074 3.57398 112.639 5.47182 116.007 8.84001C119.375 12.2082 121.273 16.7728 121.286 21.5361C121.273 26.3016 119.376 30.8687 116.008 34.2408C112.641 37.6128 108.076 39.5159 103.311 39.535Z" fill="#0F0019"/>
</g>
<g style="mix-blend-mode:multiply" opacity="0.69">
<path d="M103.311 39.3907H30.5453C25.7778 39.3843 21.207 37.4893 17.8337 34.1204C14.4603 30.7516 12.5591 26.1833 12.5464 21.4159C12.5591 16.6462 14.4595 12.0755 17.8322 8.70277C21.2049 5.33007 25.7756 3.42969 30.5453 3.41699H103.311C108.076 3.43604 112.641 5.3392 116.008 8.71122C119.376 12.0832 121.273 16.6503 121.286 21.4159C121.273 26.1792 119.375 30.7438 116.007 34.112C112.639 37.4801 108.074 39.378 103.311 39.3907Z" fill="#0F001A"/>
</g>
<g style="mix-blend-mode:multiply" opacity="0.72">
<path d="M103.311 39.2703H30.5453C25.7756 39.2576 21.2049 37.3573 17.8322 33.9846C14.4595 30.6119 12.5591 26.0412 12.5464 21.2715C12.5591 16.504 14.4603 11.9358 17.8337 8.56691C21.207 5.19805 25.7778 3.30298 30.5453 3.29663H103.311C108.074 3.30933 112.639 5.20718 116.007 8.57536C119.375 11.9435 121.273 16.5081 121.286 21.2715C121.273 26.037 119.376 30.6041 116.008 33.9761C112.641 37.3481 108.076 39.2513 103.311 39.2703Z" fill="#10001B"/>
</g>
<g style="mix-blend-mode:multiply" opacity="0.74">
<path d="M103.311 39.126H30.5453C25.7778 39.1197 21.207 37.2247 17.8337 33.8558C14.4603 30.4869 12.5591 25.9187 12.5464 21.1512C12.5591 16.3815 14.4595 11.8108 17.8322 8.43812C21.2049 5.06543 25.7756 3.16505 30.5453 3.15234H103.311C108.076 3.17139 112.641 5.07459 116.008 8.4466C119.376 11.8186 121.273 16.3857 121.286 21.1512C121.273 25.9145 119.375 30.4791 116.007 33.8473C112.639 37.2155 108.074 39.1133 103.311 39.126Z" fill="#10001C"/>
</g>
<g style="mix-blend-mode:multiply" opacity="0.77">
<path d="M103.311 39.0057H30.5453C25.7756 38.993 21.2049 37.0926 17.8322 33.7199C14.4595 30.3472 12.5591 25.7765 12.5464 21.0068C12.5591 16.2393 14.4603 11.6711 17.8337 8.30227C21.207 4.9334 25.7778 3.03833 30.5453 3.03198H103.311C108.074 3.04468 112.639 4.94253 116.007 8.31071C119.375 11.6789 121.273 16.2435 121.286 21.0068C121.273 25.7724 119.376 30.3394 116.008 33.7115C112.641 37.0835 108.076 38.9866 103.311 39.0057Z" fill="#11001D"/>
</g>
<g style="mix-blend-mode:multiply" opacity="0.79">
<path d="M103.311 38.8612H30.5453C25.7778 38.8548 21.207 36.9598 17.8337 33.5909C14.4603 30.222 12.5591 25.6538 12.5464 20.8863C12.5528 16.1147 14.4511 11.5403 17.8252 8.16625C21.1992 4.79219 25.7736 2.89382 30.5453 2.88745H103.311C108.078 2.90018 112.647 4.80132 116.015 8.1747C119.384 11.5481 121.279 16.1188 121.286 20.8863C121.273 25.6496 119.375 30.2142 116.007 33.5824C112.639 36.9506 108.074 38.8484 103.311 38.8612Z" fill="#11001E"/>
</g>
<g style="mix-blend-mode:multiply" opacity="0.82">
<path d="M103.311 38.6447H30.5453C25.7756 38.632 21.2049 36.7316 17.8322 33.3589C14.4595 29.9862 12.5591 25.4155 12.5464 20.6458C12.5844 15.8928 14.4959 11.3467 17.8659 7.9948C21.2359 4.64285 25.7922 2.75569 30.5453 2.74316H103.311C108.076 2.76221 112.641 4.66538 116.008 8.03739C119.376 11.4094 121.273 15.9765 121.286 20.742C121.248 25.4909 119.339 30.0334 115.975 33.3846C112.61 36.7359 108.06 38.6258 103.311 38.6447Z" fill="#12001F"/>
</g>
<g style="mix-blend-mode:multiply" opacity="0.85">
<path d="M103.311 38.6448H30.5454C25.7738 38.6384 21.1994 36.7401 17.8253 33.366C14.4512 29.992 12.5529 25.4176 12.5465 20.6459C12.537 18.2751 12.9954 15.9257 13.8954 13.7322C14.7954 11.5388 16.1193 9.54451 17.7912 7.86358C19.4632 6.18266 21.4504 4.84814 23.639 3.93647C25.8276 3.02481 28.1745 2.55393 30.5454 2.55078H103.311C108.074 2.56348 112.639 4.46133 116.007 7.82951C119.375 11.1977 121.273 15.7623 121.286 20.5256C121.298 22.8965 120.843 25.2465 119.946 27.4411C119.049 29.6358 117.728 31.6318 116.058 33.315C114.388 34.9982 112.403 36.3353 110.216 37.2499C108.028 38.1645 105.682 38.6385 103.311 38.6448Z" fill="#130020"/>
</g>
<g style="mix-blend-mode:multiply" opacity="0.87">
<path d="M103.311 38.4523H30.5453C25.7778 38.4459 21.207 36.5509 17.8337 33.1821C14.4603 29.8132 12.5591 25.2449 12.5464 20.4775C12.5781 15.7203 14.4869 11.1681 17.8575 7.81093C21.2281 4.4538 25.788 2.56336 30.5453 2.55078H103.311C108.076 2.56983 112.641 4.47303 116.008 7.84504C119.376 11.2171 121.273 15.7841 121.286 20.5497C121.254 25.3004 119.348 29.8466 115.982 33.1992C112.615 36.5518 108.062 38.4397 103.311 38.4523Z" fill="#130021"/>
</g>
<g style="mix-blend-mode:multiply" opacity="0.9">
<path d="M103.311 38.3319H30.5453C25.7756 38.3192 21.2049 36.4188 17.8322 33.0461C14.4595 29.6734 12.5591 25.1027 12.5464 20.333C12.5591 15.5655 14.4603 10.9973 17.8337 7.62844C21.207 4.25957 25.7778 2.3645 30.5453 2.35815H103.311C108.074 2.37086 112.639 4.2687 116.007 7.63688C119.375 11.0051 121.273 15.5697 121.286 20.333C121.273 25.0985 119.376 29.6656 116.008 33.0376C112.641 36.4096 108.076 38.3128 103.311 38.3319Z" fill="#140022"/>
</g>
<g style="mix-blend-mode:multiply" opacity="0.92">
<path d="M103.311 38.1876H30.5453C25.7778 38.1812 21.207 36.2862 17.8337 32.9173C14.4603 29.5485 12.5591 24.9802 12.5464 20.2127C12.5591 15.443 14.4595 10.8723 17.8322 7.49965C21.2049 4.12695 25.7756 2.22657 30.5453 2.21387H103.311C108.076 2.23291 112.641 4.13608 116.008 7.50809C119.376 10.8801 121.273 15.4472 121.286 20.2127C121.273 24.9761 119.375 29.5407 116.007 32.9088C112.639 36.277 108.074 38.1749 103.311 38.1876Z" fill="#140023"/>
</g>
<g style="mix-blend-mode:multiply" opacity="0.95">
<path d="M103.311 38.0672H30.5453C25.7756 38.0545 21.2049 36.1541 17.8322 32.7814C14.4595 29.4087 12.5591 24.838 12.5464 20.0683C12.5591 15.3009 14.4603 10.7327 17.8337 7.36379C21.207 3.99492 25.7778 2.09985 30.5453 2.09351H103.311C108.074 2.10621 112.639 4.00405 116.007 7.37223C119.375 10.7404 121.273 15.305 121.286 20.0683C121.273 24.8339 119.376 29.401 116.008 32.773C112.641 36.145 108.076 38.0482 103.311 38.0672Z" fill="#150024"/>
</g>
<g style="mix-blend-mode:multiply" opacity="0.97">
<path d="M103.311 37.9229H30.5453C25.7778 37.9166 21.207 36.0215 17.8337 32.6527C14.4603 29.2838 12.5591 24.7156 12.5464 19.9481C12.5591 15.1784 14.4595 10.6077 17.8322 7.235C21.2049 3.8623 25.7756 1.96192 30.5453 1.94922H103.311C108.076 1.96826 112.641 3.87147 116.008 7.24348C119.376 10.6155 121.273 15.1826 121.286 19.9481C121.273 24.7114 119.375 29.276 116.007 32.6442C112.639 36.0124 108.074 37.9102 103.311 37.9229Z" fill="#150025"/>
</g>
<g style="mix-blend-mode:multiply" opacity="0.53">
<path d="M103.311 37.8026H30.5453C25.7756 37.7899 21.2049 35.8895 17.8322 32.5168C14.4595 29.1441 12.5591 24.5734 12.5464 19.8037C12.5591 15.0362 14.4603 10.468 17.8337 7.09914C21.207 3.73027 25.7778 1.83521 30.5453 1.82886H103.311C108.074 1.84156 112.639 3.7394 116.007 7.10759C119.375 10.4758 121.273 15.0404 121.286 19.8037C121.273 24.5692 119.376 29.1363 116.008 32.5083C112.641 35.8803 108.076 37.7835 103.311 37.8026Z" fill="#160026"/>
</g>
</g>
<path d="M103.312 37.8026H30.5462C25.7766 37.7899 21.2058 35.8895 17.8331 32.5168C14.4604 29.1441 12.5601 24.5734 12.5474 19.8037C12.5601 15.0362 14.4612 10.468 17.8346 7.09914C21.208 3.73027 25.7788 1.83521 30.5462 1.82886H103.312C108.075 1.84156 112.64 3.7394 116.008 7.10759C119.376 10.4758 121.274 15.0404 121.287 19.8037C121.274 24.5692 119.377 29.1363 116.009 32.5083C112.642 35.8803 108.077 37.7835 103.312 37.8026Z" fill="#5E0499"/>
<path d="M30.5457 36.7437C25.7083 36.7437 21.069 34.822 17.6484 31.4014C14.2278 27.9809 12.3062 23.3416 12.3062 18.5042C12.3062 13.6667 14.2278 9.02743 17.6484 5.60686C21.069 2.18629 25.7083 0.264648 30.5457 0.264648H103.311C108.149 0.264648 112.788 2.18629 116.208 5.60686C119.629 9.02743 121.551 13.6667 121.551 18.5042C121.551 23.3416 119.629 27.9809 116.208 31.4014C112.788 34.822 108.149 36.7437 103.311 36.7437H30.5457Z" fill="#8810E4"/>
<path d="M103.311 0.505296C108.076 0.524341 112.641 2.42754 116.008 5.79956C119.376 9.17157 121.273 13.7387 121.286 18.5042C121.273 23.2675 119.375 27.8321 116.007 31.2003C112.639 34.5685 108.074 36.4663 103.311 36.479H30.5452C25.7777 36.4727 21.207 34.5776 17.8336 31.2087C14.4602 27.8399 12.5591 23.2717 12.5463 18.5042C12.559 13.7345 14.4594 9.16381 17.8321 5.79111C21.2048 2.41841 25.7755 0.517998 30.5452 0.505296H103.311ZM103.311 0H30.5452C28.1152 -1.44839e-07 25.709 0.478604 23.464 1.40853C21.2189 2.33845 19.179 3.70148 17.4608 5.41976C15.7425 7.13803 14.3795 9.17791 13.4496 11.4229C12.5196 13.668 12.041 16.0742 12.041 18.5042C12.041 20.9342 12.5196 23.3404 13.4496 25.5854C14.3795 27.8305 15.7425 29.8704 17.4608 31.5887C19.179 33.3069 21.2189 34.6699 23.464 35.5998C25.709 36.5298 28.1152 37.0084 30.5452 37.0084H103.311C105.741 37.0084 108.147 36.5298 110.392 35.5998C112.637 34.6699 114.677 33.3069 116.395 31.5887C118.113 29.8704 119.476 27.8305 120.406 25.5854C121.336 23.3404 121.815 20.9342 121.815 18.5042C121.815 16.0742 121.336 13.668 120.406 11.4229C119.476 9.17791 118.113 7.13803 116.395 5.41976C114.677 3.70148 112.637 2.33845 110.392 1.40853C108.147 0.478604 105.741 -1.4484e-07 103.311 0Z" fill="#4B0395"/>
<g style="mix-blend-mode:soft-light" opacity="0.35">
<g style="mix-blend-mode:soft-light" opacity="0.35">
<path d="M10.9587 36.7436H0.274902L36.7058 1.13086H47.3896L10.9587 36.7436Z" fill="white"/>
</g>
<g style="mix-blend-mode:soft-light" opacity="0.35">
<path d="M32.8562 36.7436H22.1724L58.6033 1.13086H69.2871L32.8562 36.7436Z" fill="white"/>
</g>
<g style="mix-blend-mode:soft-light" opacity="0.35">
<path d="M56.5818 36.7436H45.8979L82.3288 1.13086H93.0127L56.5818 36.7436Z" fill="white"/>
</g>
<g style="mix-blend-mode:soft-light" opacity="0.35">
<path d="M81.342 36.7436H70.6582L107.089 1.13086H117.773L81.342 36.7436Z" fill="white"/>
</g>
<g style="mix-blend-mode:soft-light" opacity="0.35">
<path d="M103.119 36.7436H92.4111L128.866 1.13086H139.55L103.119 36.7436Z" fill="white"/>
</g>
</g>
<g style="mix-blend-mode:hard-light" opacity="0.42">
<path style="mix-blend-mode:hard-light" opacity="0.42" d="M103.287 0.529297H30.4496C20.5091 0.529297 12.4507 8.5823 12.4507 18.5162C12.4507 28.45 20.5091 36.503 30.4496 36.503H103.287C113.228 36.503 121.286 28.45 121.286 18.5162C121.286 8.5823 113.228 0.529297 103.287 0.529297Z" fill="url(#paint0_radial_619_6456)"/>
</g>
<g opacity="0.38">
<path opacity="0.38" d="M102.734 1.10693H30.5458C25.8017 1.13873 21.263 3.0473 17.9219 6.41548C14.5808 9.78366 12.7089 14.3375 12.7153 19.0818C12.7153 19.3464 12.7153 19.6111 12.7153 19.8758C12.9126 15.2723 14.8701 10.9203 18.1838 7.71859C21.4975 4.51687 25.9142 2.70999 30.5217 2.67103H102.734C107.343 2.70413 111.763 4.50909 115.078 7.71202C118.393 10.9149 120.349 15.2703 120.54 19.8758C120.54 19.6111 120.54 19.3464 120.54 19.0818C120.547 14.3417 118.678 9.79142 115.342 6.42392C112.006 3.05642 107.474 1.14505 102.734 1.10693Z" fill="#F9A871"/>
</g>
<path d="M71.5769 27.22C71.0342 27.22 70.4549 27.1393 69.8389 26.978C69.2229 26.802 68.7169 26.5527 68.3209 26.23C68.1302 26.0687 67.9762 25.8633 67.8589 25.614C67.7562 25.35 67.7049 25.1007 67.7049 24.866C67.7049 24.6167 67.8076 24.382 68.0129 24.162C68.2329 23.942 68.5409 23.832 68.9369 23.832C69.2009 23.832 69.5309 23.9713 69.9269 24.25C70.1616 24.3967 70.4182 24.5287 70.6969 24.646C70.9756 24.7633 71.2616 24.822 71.5549 24.822C72.2589 24.822 72.8676 24.6973 73.3809 24.448C73.8942 24.184 74.2902 23.8247 74.5689 23.37C74.8476 22.9153 74.9869 22.38 74.9869 21.764C74.9869 21.2067 74.8549 20.73 74.5909 20.334C74.3416 19.938 74.0042 19.63 73.5789 19.41C73.1682 19.19 72.7209 19.08 72.2369 19.08C71.7822 19.08 71.3862 19.1533 71.0489 19.3C70.7116 19.4467 70.4036 19.6007 70.1249 19.762C69.8462 19.9087 69.5676 19.982 69.2889 19.982C68.8049 19.982 68.4456 19.8793 68.2109 19.674C67.9762 19.454 67.8296 19.1973 67.7709 18.904C67.7122 18.6107 67.6976 18.3467 67.7269 18.112L68.4089 12.766C68.4676 12.458 68.6142 12.2087 68.8489 12.018C69.0982 11.8127 69.3916 11.71 69.7289 11.71H76.0869C76.4389 11.71 76.7322 11.8273 76.9669 12.062C77.2016 12.2967 77.3189 12.59 77.3189 12.942C77.3189 13.2793 77.2016 13.5653 76.9669 13.8C76.7322 14.02 76.4389 14.13 76.0869 14.13H70.4109L70.6529 13.932L70.0589 18.398L69.7729 17.562C69.8609 17.4153 70.0516 17.276 70.3449 17.144C70.6382 17.012 70.9756 16.902 71.3569 16.814C71.7382 16.7113 72.1122 16.66 72.4789 16.66C73.4616 16.66 74.3416 16.8873 75.1189 17.342C75.8962 17.782 76.5049 18.3907 76.9449 19.168C77.3996 19.9307 77.6269 20.796 77.6269 21.764C77.6269 22.864 77.3776 23.8247 76.8789 24.646C76.3802 25.4673 75.6762 26.1053 74.7669 26.56C73.8722 27 72.8089 27.22 71.5769 27.22Z" fill="#FFF04B"/>
<path d="M69.8389 26.978L69.7199 27.3946L69.7292 27.397L69.8389 26.978ZM68.3209 26.23L68.0411 26.5607L68.0473 26.5658L68.3209 26.23ZM67.8589 25.614L67.4552 25.771L67.4606 25.7849L67.467 25.7984L67.8589 25.614ZM68.0129 24.162L67.7066 23.8557L67.7014 23.861L67.6963 23.8665L68.0129 24.162ZM69.9269 24.25L69.6776 24.6042L69.6873 24.611L69.6973 24.6173L69.9269 24.25ZM70.6969 24.646L70.865 24.2468L70.6969 24.646ZM73.3809 24.448L73.5702 24.8377L73.579 24.8332L73.3809 24.448ZM74.5689 23.37L74.1996 23.1437L74.5689 23.37ZM74.5909 20.334L74.2243 20.5649L74.2305 20.5743L74.5909 20.334ZM73.5789 19.41L73.3743 19.7918L73.3799 19.7947L73.5789 19.41ZM71.0489 19.3L70.8762 18.9028L70.8762 18.9028L71.0489 19.3ZM70.1249 19.762L70.3266 20.1453L70.3344 20.1412L70.3419 20.1368L70.1249 19.762ZM68.2109 19.674L67.9147 19.99L67.9201 19.9951L67.9257 20L68.2109 19.674ZM67.7709 18.904L68.1956 18.8191L67.7709 18.904ZM67.7269 18.112L67.2973 18.0572L67.2971 18.0583L67.7269 18.112ZM68.4089 12.766L67.9834 12.685L67.9809 12.698L67.9793 12.7112L68.4089 12.766ZM68.8489 12.018L69.122 12.3542L69.1242 12.3523L68.8489 12.018ZM76.9669 12.062L76.6606 12.3683V12.3683L76.9669 12.062ZM76.9669 13.8L77.2633 14.1161L77.2732 14.1063L76.9669 13.8ZM70.4109 14.13L70.1366 13.7948L69.1975 14.5631H70.4109V14.13ZM70.6529 13.932L71.0823 13.9891L71.2267 12.9029L70.3786 13.5968L70.6529 13.932ZM70.0589 18.398L69.6491 18.5382L70.2454 20.2812L70.4882 18.4551L70.0589 18.398ZM69.7729 17.562L69.4015 17.3392L69.2979 17.5118L69.3631 17.7022L69.7729 17.562ZM70.3449 17.144L70.1672 16.749H70.1672L70.3449 17.144ZM71.3569 16.814L71.4543 17.236L71.4619 17.2343L71.4695 17.2322L71.3569 16.814ZM75.1189 17.342L74.9002 17.7159L74.9055 17.7189L75.1189 17.342ZM76.9449 19.168L76.5679 19.3814L76.5729 19.3898L76.9449 19.168ZM76.8789 24.646L76.5087 24.4212L76.8789 24.646ZM74.7669 26.56L74.9581 26.9487L74.9606 26.9474L74.7669 26.56ZM71.5769 26.7869C71.077 26.7869 70.5348 26.7125 69.9486 26.559L69.7292 27.397C70.375 27.5661 70.9915 27.6531 71.5769 27.6531V26.7869ZM69.9579 26.5615C69.3845 26.3977 68.935 26.1716 68.5945 25.8942L68.0473 26.5658C68.4988 26.9337 69.0613 27.2063 69.7199 27.3945L69.9579 26.5615ZM68.6007 25.8994C68.4621 25.7821 68.3444 25.6285 68.2508 25.4296L67.467 25.7984C67.608 26.0981 67.7983 26.3552 68.0411 26.5606L68.6007 25.8994ZM68.2626 25.457C68.1755 25.233 68.138 25.0371 68.138 24.866H67.2718C67.2718 25.1642 67.337 25.467 67.4552 25.771L68.2626 25.457ZM68.138 24.866C68.138 24.7482 68.1827 24.6149 68.3295 24.4575L67.6963 23.8665C67.4325 24.1491 67.2718 24.4851 67.2718 24.866H68.138ZM68.3192 24.4683C68.4373 24.3501 68.6229 24.2651 68.9369 24.2651V23.3989C68.4589 23.3989 68.0285 23.5339 67.7066 23.8557L68.3192 24.4683ZM68.9369 24.2651C69.0637 24.2651 69.3019 24.3398 69.6776 24.6042L70.1762 23.8958C69.7599 23.6029 69.3381 23.3989 68.9369 23.3989V24.2651ZM69.6973 24.6173C69.9533 24.7773 70.2308 24.9197 70.5288 25.0452L70.865 24.2468C70.6057 24.1376 70.3698 24.0161 70.1565 23.8827L69.6973 24.6173ZM70.5288 25.0452C70.859 25.1842 71.2021 25.2551 71.5549 25.2551V24.3889C71.3211 24.3889 71.0921 24.3424 70.865 24.2468L70.5288 25.0452ZM71.5549 25.2551C72.3095 25.2551 72.9857 25.1215 73.5701 24.8376L73.1917 24.0584C72.7495 24.2732 72.2083 24.3889 71.5549 24.3889V25.2551ZM73.579 24.8332C74.1568 24.536 74.6147 24.1242 74.9382 23.5963L74.1996 23.1437C73.9658 23.5252 73.6316 23.832 73.1828 24.0628L73.579 24.8332ZM74.9382 23.5963C75.2647 23.0635 75.42 22.4473 75.42 21.764H74.5538C74.5538 22.3127 74.4304 22.7671 74.1996 23.1437L74.9382 23.5963ZM75.42 21.764C75.42 21.1361 75.2704 20.5724 74.9513 20.0937L74.2305 20.5743C74.4394 20.8876 74.5538 21.2772 74.5538 21.764H75.42ZM74.9574 20.1032C74.666 19.6403 74.2701 19.2799 73.7779 19.0253L73.3799 19.7947C73.7384 19.9801 74.0172 20.2357 74.2244 20.5648L74.9574 20.1032ZM73.7834 19.0282C73.3074 18.7732 72.7894 18.6469 72.2369 18.6469V19.5131C72.6524 19.5131 73.0291 19.6068 73.3744 19.7918L73.7834 19.0282ZM72.2369 18.6469C71.7364 18.6469 71.2793 18.7275 70.8762 18.9028L71.2216 19.6972C71.4932 19.5791 71.828 19.5131 72.2369 19.5131V18.6469ZM70.8762 18.9028C70.5258 19.0552 70.2027 19.2165 69.9079 19.3872L70.3419 20.1368C70.6044 19.9849 70.8974 19.8382 71.2216 19.6972L70.8762 18.9028ZM69.9232 19.3787C69.6985 19.497 69.4886 19.5489 69.2889 19.5489V20.4151C69.6466 20.4151 69.9939 20.3204 70.3266 20.1453L69.9232 19.3787ZM69.2889 19.5489C68.8544 19.5489 68.6183 19.4549 68.4961 19.348L67.9257 20C68.2729 20.3037 68.7554 20.4151 69.2889 20.4151V19.5489ZM68.5071 19.358C68.3331 19.1948 68.2352 19.0171 68.1956 18.8191L67.3462 18.9889C67.4239 19.3776 67.6194 19.7132 67.9147 19.99L68.5071 19.358ZM68.1956 18.8191C68.1438 18.5598 68.1344 18.3438 68.1567 18.1657L67.2971 18.0583C67.2607 18.3495 67.2807 18.6615 67.3462 18.9889L68.1956 18.8191ZM68.1565 18.1668L68.8385 12.8208L67.9793 12.7112L67.2973 18.0572L68.1565 18.1668ZM68.8344 12.847C68.8747 12.6353 68.9698 12.4779 69.122 12.3542L68.5758 11.6818C68.2587 11.9395 68.0604 12.2807 67.9834 12.685L68.8344 12.847ZM69.1242 12.3523C69.2924 12.2139 69.4872 12.1431 69.7289 12.1431V11.2769C69.2959 11.2769 68.9041 11.4115 68.5736 11.6837L69.1242 12.3523ZM69.7289 12.1431H76.0869V11.2769H69.7289V12.1431ZM76.0869 12.1431C76.3318 12.1431 76.5125 12.2201 76.6606 12.3683L77.2732 11.7557C76.952 11.4345 76.546 11.2769 76.0869 11.2769V12.1431ZM76.6606 12.3683C76.8088 12.5164 76.8858 12.6971 76.8858 12.942H77.752C77.752 12.4829 77.5944 12.0769 77.2732 11.7557L76.6606 12.3683ZM76.8858 12.942C76.8858 13.1666 76.8126 13.3418 76.6606 13.4937L77.2732 14.1063C77.5906 13.7889 77.752 13.3921 77.752 12.942H76.8858ZM76.6707 13.484C76.5242 13.6214 76.3402 13.6969 76.0869 13.6969V14.5631C76.5376 14.5631 76.9403 14.4186 77.2631 14.116L76.6707 13.484ZM76.0869 13.6969H70.4109V14.5631H76.0869V13.6969ZM70.6852 14.4652L70.9272 14.2672L70.3786 13.5968L70.1366 13.7948L70.6852 14.4652ZM70.2236 13.8749L69.6296 18.3409L70.4882 18.4551L71.0823 13.9891L70.2236 13.8749ZM70.4687 18.2578L70.1827 17.4218L69.3631 17.7022L69.6491 18.5382L70.4687 18.2578ZM70.1443 17.7848C70.1617 17.7559 70.2492 17.662 70.5226 17.539L70.1672 16.749C69.8539 16.89 69.5601 17.0747 69.4015 17.3392L70.1443 17.7848ZM70.5226 17.539C70.7853 17.4208 71.0949 17.319 71.4543 17.236L71.2595 16.392C70.8563 16.485 70.4912 16.6032 70.1672 16.749L70.5226 17.539ZM71.4695 17.2322C71.8169 17.1387 72.1531 17.0931 72.4789 17.0931V16.2269C72.0714 16.2269 71.6595 16.284 71.2443 16.3958L71.4695 17.2322ZM72.4789 17.0931C73.3919 17.0931 74.1952 17.3035 74.9002 17.7159L75.3376 16.9681C74.4879 16.4712 73.5312 16.2269 72.4789 16.2269V17.0931ZM74.9055 17.7189C75.6145 18.1202 76.1667 18.6724 76.568 19.3814L77.3218 18.9546C76.8431 18.109 76.1779 17.4438 75.3323 16.9651L74.9055 17.7189ZM76.5729 19.3898C76.984 20.0794 77.1938 20.8668 77.1938 21.764H78.06C78.06 20.7252 77.8152 19.7819 77.3169 18.9462L76.5729 19.3898ZM77.1938 21.764C77.1938 22.7964 76.9605 23.677 76.5087 24.4212L77.2491 24.8708C77.7946 23.9723 78.06 22.9316 78.06 21.764H77.1938ZM76.5087 24.4212C76.0549 25.1687 75.414 25.7522 74.5732 26.1726L74.9606 26.9474C75.9385 26.4585 76.7056 25.766 77.2491 24.8708L76.5087 24.4212ZM74.5758 26.1713C73.7529 26.576 72.7579 26.7869 71.5769 26.7869V27.6531C72.8599 27.6531 73.9916 27.424 74.9581 26.9487L74.5758 26.1713Z" fill="#7A3100"/>
<g opacity="0.64">
<path opacity="0.2" d="M40.5075 10.3951C38.9749 9.0199 37.2376 7.8915 35.3581 7.05041C34.7323 6.79528 34.0778 6.6175 33.409 6.52103C27.2971 5.53446 20.7039 10.5876 18.6826 17.7824C16.9982 23.8221 19.0917 29.3806 23.3508 31.7147C25.1059 32.5994 26.9901 33.2004 28.9333 33.4953C34.8527 34.4338 41.2775 29.549 43.2265 22.5468C43.9248 20.4659 44.0406 18.2337 43.5614 16.0918C43.0821 13.9499 42.026 11.9799 40.5075 10.3951Z" fill="black"/>
<path opacity="0.4" d="M39.9059 9.91375C38.3515 8.53816 36.5892 7.41739 34.6843 6.59309C34.0585 6.33796 33.404 6.16022 32.7352 6.06374C26.6473 5.07717 20.0782 10.1063 18.081 17.301C16.3966 23.2926 18.466 28.827 22.7251 31.1371C24.4731 32.0183 26.3489 32.6192 28.2836 32.9177C34.1789 33.8802 40.5556 28.9955 42.5046 22.0173C43.2089 19.9537 43.3391 17.7375 42.8814 15.6057C42.4236 13.4738 41.3951 11.5064 39.9059 9.91375Z" fill="black"/>
<path opacity="0.6" d="M39.3041 9.45681C37.7547 8.08653 36.0011 6.96622 34.1065 6.13618C33.4881 5.88402 32.8419 5.70631 32.1815 5.6068C26.1177 4.6443 19.5727 9.64932 17.5755 16.7959C15.8911 22.7635 17.9605 28.2738 22.1955 30.5838C23.9337 31.4683 25.8021 32.0695 27.7299 32.3645C33.6012 33.3029 39.9538 28.4423 41.9028 21.5122C42.5977 19.4553 42.723 17.2486 42.2655 15.1262C41.808 13.0038 40.7847 11.0448 39.3041 9.45681Z" fill="black"/>
<path opacity="0.8" d="M38.7026 8.97548C37.1547 7.6213 35.4104 6.5098 33.5291 5.6789C32.9024 5.45184 32.2587 5.27482 31.6041 5.14952C25.5644 4.18701 19.0434 9.168 17.1665 16.2906C15.5062 22.234 17.5756 27.7444 21.7865 30.0303C23.5218 30.8963 25.3806 31.4888 27.2969 31.7869C33.1441 32.7253 39.4726 27.8888 41.3976 20.9828C42.0708 18.9241 42.1758 16.7219 41.7014 14.6085C41.2271 12.4951 40.191 10.549 38.7026 8.97548Z" fill="black"/>
<path opacity="0.64" d="M38.0769 8.51823C36.5629 7.14296 34.8309 6.02892 32.9516 5.22166C32.3294 4.98056 31.6845 4.80319 31.0265 4.69227C25.0109 3.72977 18.538 8.71074 16.5889 15.7852C14.9286 21.7046 16.9499 27.2631 21.1849 29.4528C22.8972 30.3539 24.7539 30.9485 26.6712 31.2094C32.4944 32.1478 38.7025 27.3353 40.7238 20.4533C41.4049 18.4108 41.5184 16.2215 41.0522 14.1194C40.5861 12.0174 39.5577 10.0814 38.0769 8.51823Z" fill="black"/>
</g>
<path d="M38.0769 8.51823C36.5629 7.14296 34.8309 6.02892 32.9516 5.22166C32.3294 4.98056 31.6845 4.80319 31.0265 4.69227C25.0109 3.72977 18.538 8.71074 16.5889 15.7852C14.9286 21.7046 16.9499 27.2631 21.1849 29.4528C22.8972 30.3539 24.7539 30.9485 26.6712 31.2094C32.4944 32.1478 38.7025 27.3353 40.7238 20.4533C41.4049 18.4108 41.5184 16.2215 41.0522 14.1194C40.5861 12.0174 39.5577 10.0814 38.0769 8.51823Z" fill="#E37508"/>
<path d="M37.7645 19.154C35.8876 25.8193 29.7757 30.4875 24.0728 29.5731C18.37 28.6587 15.2659 22.4987 17.1428 15.8333C19.0196 9.16797 25.1316 4.4998 30.8344 5.41418C36.5373 6.32857 39.6654 12.4886 37.7645 19.154Z" fill="url(#paint1_linear_619_6456)"/>
<path d="M36.2245 19.0094C34.6123 24.8326 29.2222 28.8992 24.1931 28.1051C19.164 27.311 16.4209 21.8969 18.0572 16.0738C19.6934 10.2506 25.0594 6.18402 30.0885 7.00215C35.1176 7.82028 37.7645 13.1862 36.2245 19.0094Z" fill="url(#paint2_linear_619_6456)"/>
<path d="M35.551 19.1539C34.0832 24.4476 29.2225 28.1774 24.7469 27.4555C20.2712 26.7336 17.7928 21.8489 19.2846 16.5551C20.7765 11.2613 25.6131 7.53158 30.1128 8.25346C34.6126 8.97534 37.0429 13.8601 35.551 19.1539Z" fill="url(#paint3_linear_619_6456)"/>
<path d="M38.5831 13.1862C38.8923 15.6096 38.679 18.071 37.9575 20.405C37.4522 22.0894 39.5215 21.1991 39.8584 20.6938C40.626 19.3944 40.9786 17.8917 40.8691 16.3866C40.8691 14.3653 40.6044 13.09 39.3531 12.2959C38.1019 11.5019 38.4146 12.32 38.5831 13.1862Z" fill="url(#paint4_linear_619_6456)"/>
<defs>
<radialGradient id="paint0_radial_619_6456" cx="0" cy="0" r="1" gradientUnits="userSpaceOnUse" gradientTransform="translate(8402.58 144340) scale(3588.31 1186.05)">
<stop stop-color="#FFC65D"/>
<stop offset="1"/>
</radialGradient>
<linearGradient id="paint1_linear_619_6456" x1="1384.03" y1="4503.36" x2="1374.8" y2="4508.5" gradientUnits="userSpaceOnUse">
<stop stop-color="#FFFF61"/>
<stop offset="1" stop-color="#FFC70D"/>
</linearGradient>
<linearGradient id="paint2_linear_619_6456" x1="1156.12" y1="3986.13" x2="1306.26" y2="4089.59" gradientUnits="userSpaceOnUse">
<stop stop-color="#E37508"/>
<stop offset="1" stop-color="#FFC70D"/>
</linearGradient>
<linearGradient id="paint3_linear_619_6456" x1="1080.17" y1="3656.22" x2="1068.51" y2="3662.5" gradientUnits="userSpaceOnUse">
<stop stop-color="#FFFF61"/>
<stop offset="1" stop-color="#FFC70D"/>
</linearGradient>
<linearGradient id="paint4_linear_619_6456" x1="237.032" y1="1814.29" x2="254.544" y2="1775.16" gradientUnits="userSpaceOnUse">
<stop stop-color="#E37508"/>
<stop offset="1" stop-color="#FFC70D"/>
</linearGradient>
</defs>
</svg>
