<svg width="297" height="44" viewBox="0 0 297 44" fill="none" xmlns="http://www.w3.org/2000/svg">
<rect width="297" height="44" rx="22" fill="url(#paint0_linear_619_9682)"/>
<path d="M35.7787 15.0752C31.4829 10.9752 24.5179 10.9747 20.2217 15.0752C15.9259 19.1757 15.9264 25.8241 20.2217 29.9251C24.5174 34.0247 31.4824 34.0252 35.7787 29.9251C40.074 25.8241 40.0735 19.1762 35.7787 15.0752ZM29.4345 27.0654C29.4345 27.8219 28.7922 28.435 27.9997 28.435C27.2072 28.435 26.5649 27.8219 26.5649 27.0654V21.5871C26.5649 20.8307 27.2072 20.2175 27.9997 20.2175C28.7922 20.2175 29.4345 20.8307 29.4345 21.5871V27.0654ZM27.9744 19.246C27.1479 19.246 26.5969 18.6873 26.6142 17.9974C26.5969 17.2743 27.1479 16.7324 27.9911 16.7324C28.8348 16.7324 29.3685 17.2748 29.3862 17.9974C29.3857 18.6873 28.8352 19.246 27.9744 19.246Z" fill="#D58900"/>
<path d="M61.18 27.37C61.324 27.766 61.702 28 62.098 28C62.224 28 62.35 27.982 62.44 27.946C62.962 27.748 63.214 27.172 63.034 26.65L59.056 16.048C58.894 15.652 58.516 15.4 58.102 15.418C57.706 15.4 57.31 15.652 57.148 16.048L53.17 26.65C52.99 27.172 53.242 27.748 53.764 27.946C53.872 27.982 53.98 28 54.106 28C54.502 28 54.88 27.766 55.042 27.37L55.924 25.03H60.298L61.18 27.37ZM56.644 23.05L58.102 19.18L59.56 23.05H56.644ZM65.1307 27.028C65.1307 27.55 65.5627 28 66.1027 28C66.5887 28 66.9667 27.658 67.0567 27.226C67.7407 27.694 68.6047 28 69.5047 28C71.9347 28 73.8787 25.948 73.8787 23.518C73.8787 21.052 71.9347 19 69.5047 19C68.6227 19 67.7587 19.288 67.0927 19.756V16.372C67.0927 15.85 66.6607 15.4 66.1027 15.4C65.5627 15.4 65.1307 15.85 65.1307 16.372V23.5C65.1307 23.5 65.1307 23.5 65.1307 23.518V27.028ZM67.8127 21.7C68.2627 21.232 68.8387 20.962 69.5047 20.962C70.1527 20.962 70.7467 21.232 71.1967 21.7C71.6467 22.15 71.9167 22.798 71.9167 23.518C71.9167 24.202 71.6467 24.85 71.1967 25.3C70.7467 25.768 70.1527 26.038 69.5047 26.038C68.8387 26.038 68.2627 25.768 67.8127 25.3C67.3627 24.85 67.0927 24.202 67.0927 23.518C67.0927 22.798 67.3627 22.15 67.8127 21.7ZM80.7575 28.054C81.9455 28.054 83.0255 27.532 83.7635 26.686C84.5735 25.894 85.0235 24.778 85.0235 23.518C85.0235 22.294 84.5735 21.232 83.7635 20.368C83.0255 19.522 81.9455 19 80.7575 19C79.5155 19 78.4715 19.522 77.6615 20.368C76.8875 21.232 76.4195 22.294 76.4195 23.518C76.4195 24.778 76.8875 25.894 77.6615 26.686C78.4715 27.532 79.5155 28.054 80.7575 28.054ZM79.0295 21.646C79.4795 21.25 80.0735 20.962 80.7575 20.962C81.3875 20.962 81.9635 21.25 82.4135 21.646C82.8635 22.132 83.1155 22.78 83.1155 23.518C83.1155 24.292 82.8635 24.922 82.4135 25.426C81.9635 25.858 81.3875 26.092 80.7575 26.092C80.0735 26.092 79.4795 25.858 79.0295 25.426C78.6155 24.922 78.3815 24.292 78.3815 23.518C78.3815 22.78 78.6155 22.132 79.0295 21.646ZM94.9843 24.256V19.954C94.9843 19.45 94.5163 19 94.0123 19C93.4723 19 93.0763 19.45 93.0763 19.954V24.256C93.0583 25.282 92.2303 26.092 91.1863 26.092C90.1603 26.092 89.3503 25.282 89.3503 24.256V19.954C89.3503 19.45 88.9363 19 88.3963 19C87.8743 19 87.4423 19.45 87.4423 19.954V24.256C87.4423 26.308 89.1343 28 91.1863 28C93.2563 28 94.9843 26.308 94.9843 24.256ZM101.523 19H101.073V16.39C101.073 15.832 100.641 15.4 100.083 15.4C99.5253 15.4 99.0753 15.832 99.0753 16.39V19H98.5533C97.9953 19 97.5633 19.432 97.5633 19.99C97.5633 20.53 97.9953 20.98 98.5533 20.98H99.0753V26.002C99.0753 27.1 99.9753 28 101.073 28C101.631 28 102.063 27.568 102.063 27.01C102.063 26.452 101.631 26.002 101.073 26.002V20.98H101.523C102.063 20.98 102.531 20.53 102.531 19.99C102.531 19.432 102.063 19 101.523 19ZM121.345 22.798V16.39C121.345 15.832 120.913 15.4 120.355 15.4C119.797 15.4 119.347 15.832 119.347 16.39V22.798C119.347 24.562 117.925 26.002 116.143 26.002C114.379 26.002 112.939 24.562 112.939 22.798V16.39C112.939 15.832 112.471 15.4 111.931 15.4C111.373 15.4 110.941 15.832 110.941 16.39V22.798C110.941 25.66 113.245 28 116.143 28C119.023 28 121.345 25.66 121.345 22.798ZM124.899 26.758C125.619 27.334 126.699 27.982 128.103 28C128.985 28 129.795 27.73 130.443 27.28C131.091 26.812 131.577 26.074 131.577 25.192C131.577 24.778 131.451 24.364 131.235 24.004C130.929 23.5 130.443 23.158 129.957 22.942C129.435 22.69 128.877 22.528 128.283 22.42H128.265L128.247 22.402C127.635 22.294 127.167 22.132 126.933 21.97C126.807 21.898 126.753 21.826 126.735 21.79C126.699 21.736 126.699 21.718 126.699 21.646C126.699 21.556 126.753 21.394 126.987 21.232C127.221 21.052 127.617 20.908 128.067 20.908C128.643 20.908 129.147 21.196 129.723 21.574C130.173 21.88 130.767 21.754 131.055 21.322C131.325 20.872 131.199 20.278 130.767 19.99C130.191 19.594 129.309 19 128.067 19C127.239 19 126.483 19.234 125.853 19.666C125.259 20.116 124.791 20.818 124.791 21.646C124.791 22.06 124.899 22.456 125.097 22.78C125.421 23.266 125.853 23.59 126.339 23.824C126.807 24.04 127.347 24.184 127.905 24.292H127.923C128.571 24.418 129.111 24.616 129.363 24.796C129.507 24.886 129.579 24.958 129.597 25.012C129.633 25.066 129.651 25.102 129.651 25.192C129.651 25.336 129.579 25.516 129.327 25.732C129.039 25.912 128.589 26.074 128.103 26.074C127.401 26.092 126.591 25.678 126.123 25.282C125.727 24.94 125.097 24.994 124.773 25.426C124.449 25.822 124.503 26.434 124.899 26.758Z" fill="#23003D"/>
<path d="M275.91 30.42L282.43 23.9C283.2 23.13 283.2 21.87 282.43 21.1L275.91 14.58" stroke="#D58900" stroke-width="2" stroke-miterlimit="10" stroke-linecap="round" stroke-linejoin="round"/>
<defs>
<linearGradient id="paint0_linear_619_9682" x1="148.5" y1="0" x2="148.5" y2="44" gradientUnits="userSpaceOnUse">
<stop stop-color="#FFE384"/>
<stop offset="1" stop-color="#FFCF35"/>
</linearGradient>
</defs>
</svg>
