<svg width="280" height="56" viewBox="0 0 280 56" fill="none" xmlns="http://www.w3.org/2000/svg">
<rect width="280" height="56" rx="28" fill="url(#paint0_linear_619_12954)"/>
<path d="M13 17.7108C14.1371 11.7895 18.15 9.5609 21.4862 9" stroke="white" stroke-width="3" stroke-linecap="round"/>
<path d="M69.0064 23.968L63.8224 36.16C63.7104 36.464 63.5344 36.704 63.2944 36.88C63.0704 37.04 62.8224 37.12 62.5504 37.12C62.1184 37.12 61.7984 37 61.5904 36.76C61.3824 36.52 61.2784 36.224 61.2784 35.872C61.2784 35.728 61.3024 35.576 61.3504 35.416L67.3264 21.064C67.4544 20.744 67.6464 20.496 67.9024 20.32C68.1744 20.144 68.4624 20.072 68.7664 20.104C69.0544 20.104 69.3184 20.192 69.5584 20.368C69.8144 20.528 69.9984 20.76 70.1104 21.064L76.0144 35.128C76.0944 35.336 76.1344 35.528 76.1344 35.704C76.1344 36.136 75.9904 36.48 75.7024 36.736C75.4304 36.992 75.1264 37.12 74.7904 37.12C74.5024 37.12 74.2384 37.032 73.9984 36.856C73.7744 36.68 73.5984 36.44 73.4704 36.136L68.3104 24.112L69.0064 23.968ZM64.5664 33.232L65.8864 30.472L72.3664 30.472L72.8224 33.232L64.5664 33.232ZM87.9586 19.24C88.3746 19.24 88.7186 19.376 88.9906 19.648C89.2626 19.92 89.3986 20.272 89.3986 20.704L89.3986 35.536C89.3986 35.952 89.2626 36.304 88.9906 36.592C88.7186 36.864 88.3746 37 87.9586 37C87.5426 37 87.1986 36.864 86.9266 36.592C86.6546 36.304 86.5186 35.952 86.5186 35.536L86.5186 34.36L87.0466 34.576C87.0466 34.784 86.9346 35.04 86.7106 35.344C86.4866 35.632 86.1826 35.92 85.7986 36.208C85.4146 36.496 84.9586 36.744 84.4306 36.952C83.9186 37.144 83.3586 37.24 82.7506 37.24C81.6466 37.24 80.6466 36.96 79.7506 36.4C78.8546 35.824 78.1426 35.04 77.6146 34.048C77.1026 33.04 76.8466 31.888 76.8466 30.592C76.8466 29.28 77.1026 28.128 77.6146 27.136C78.1426 26.128 78.8466 25.344 79.7266 24.784C80.6066 24.208 81.5826 23.92 82.6546 23.92C83.3426 23.92 83.9746 24.024 84.5506 24.232C85.1266 24.44 85.6226 24.704 86.0386 25.024C86.4706 25.344 86.7986 25.672 87.0226 26.008C87.2626 26.328 87.3826 26.6 87.3826 26.824L86.5186 27.136L86.5186 20.704C86.5186 20.288 86.6546 19.944 86.9266 19.672C87.1986 19.384 87.5426 19.24 87.9586 19.24ZM83.1106 34.6C83.8146 34.6 84.4306 34.424 84.9586 34.072C85.4866 33.72 85.8946 33.24 86.1826 32.632C86.4866 32.024 86.6386 31.344 86.6386 30.592C86.6386 29.824 86.4866 29.136 86.1826 28.528C85.8946 27.92 85.4866 27.44 84.9586 27.088C84.4306 26.736 83.8146 26.56 83.1106 26.56C82.4226 26.56 81.8146 26.736 81.2866 27.088C80.7586 27.44 80.3426 27.92 80.0386 28.528C79.7506 29.136 79.6066 29.824 79.6066 30.592C79.6066 31.344 79.7506 32.024 80.0386 32.632C80.3426 33.24 80.7586 33.72 81.2866 34.072C81.8146 34.424 82.4226 34.6 83.1106 34.6ZM102.549 19.24C102.965 19.24 103.309 19.376 103.581 19.648C103.853 19.92 103.989 20.272 103.989 20.704L103.989 35.536C103.989 35.952 103.853 36.304 103.581 36.592C103.309 36.864 102.965 37 102.549 37C102.133 37 101.789 36.864 101.517 36.592C101.245 36.304 101.109 35.952 101.109 35.536L101.109 34.36L101.637 34.576C101.637 34.784 101.525 35.04 101.301 35.344C101.077 35.632 100.773 35.92 100.389 36.208C100.005 36.496 99.5489 36.744 99.0209 36.952C98.5089 37.144 97.9489 37.24 97.3409 37.24C96.2369 37.24 95.2369 36.96 94.3409 36.4C93.4449 35.824 92.7329 35.04 92.2049 34.048C91.6929 33.04 91.4369 31.888 91.4369 30.592C91.4369 29.28 91.6929 28.128 92.2049 27.136C92.7329 26.128 93.4369 25.344 94.3169 24.784C95.1969 24.208 96.1729 23.92 97.2449 23.92C97.9329 23.92 98.5649 24.024 99.1409 24.232C99.7169 24.44 100.213 24.704 100.629 25.024C101.061 25.344 101.389 25.672 101.613 26.008C101.853 26.328 101.973 26.6 101.973 26.824L101.109 27.136L101.109 20.704C101.109 20.288 101.245 19.944 101.517 19.672C101.789 19.384 102.133 19.24 102.549 19.24ZM97.7009 34.6C98.4049 34.6 99.0209 34.424 99.5489 34.072C100.077 33.72 100.485 33.24 100.773 32.632C101.077 32.024 101.229 31.344 101.229 30.592C101.229 29.824 101.077 29.136 100.773 28.528C100.485 27.92 100.077 27.44 99.5489 27.088C99.0209 26.736 98.4049 26.56 97.7009 26.56C97.0129 26.56 96.4049 26.736 95.8769 27.088C95.3489 27.44 94.9329 27.92 94.6289 28.528C94.3409 29.136 94.1969 29.824 94.1969 30.592C94.1969 31.344 94.3409 32.024 94.6289 32.632C94.9329 33.24 95.3489 33.72 95.8769 34.072C96.4049 34.424 97.0129 34.6 97.7009 34.6ZM125.858 20.2C126.242 20.2 126.554 20.328 126.794 20.584C127.034 20.84 127.154 21.16 127.154 21.544L127.154 35.536C127.154 35.952 127.01 36.304 126.722 36.592C126.45 36.864 126.106 37 125.69 37C125.482 37 125.266 36.968 125.042 36.904C124.834 36.824 124.674 36.72 124.562 36.592L115.13 24.616L115.754 24.232L115.754 35.656C115.754 36.04 115.626 36.36 115.37 36.616C115.13 36.872 114.81 37 114.41 37C114.026 37 113.714 36.872 113.474 36.616C113.234 36.36 113.114 36.04 113.114 35.656L113.114 21.664C113.114 21.248 113.25 20.904 113.522 20.632C113.81 20.344 114.162 20.2 114.578 20.2C114.802 20.2 115.034 20.248 115.274 20.344C115.514 20.424 115.69 20.552 115.802 20.728L124.946 32.392L124.538 32.68L124.538 21.544C124.538 21.16 124.658 20.84 124.898 20.584C125.138 20.328 125.458 20.2 125.858 20.2ZM136.09 37.24C134.73 37.24 133.546 36.96 132.538 36.4C131.546 35.824 130.778 35.048 130.234 34.072C129.706 33.096 129.442 31.992 129.442 30.76C129.442 29.32 129.73 28.096 130.306 27.088C130.898 26.064 131.666 25.28 132.61 24.736C133.554 24.192 134.554 23.92 135.61 23.92C136.426 23.92 137.194 24.088 137.914 24.424C138.65 24.76 139.298 25.224 139.858 25.816C140.418 26.392 140.858 27.064 141.178 27.832C141.514 28.6 141.682 29.416 141.682 30.28C141.666 30.664 141.514 30.976 141.226 31.216C140.938 31.456 140.602 31.576 140.218 31.576L131.05 31.576L130.33 29.176L139.138 29.176L138.61 29.656L138.61 29.008C138.578 28.544 138.41 28.128 138.106 27.76C137.818 27.392 137.45 27.104 137.002 26.896C136.57 26.672 136.106 26.56 135.61 26.56C135.13 26.56 134.682 26.624 134.266 26.752C133.85 26.88 133.49 27.096 133.186 27.4C132.882 27.704 132.642 28.112 132.466 28.624C132.29 29.136 132.202 29.784 132.202 30.568C132.202 31.432 132.378 32.168 132.73 32.776C133.098 33.368 133.562 33.824 134.122 34.144C134.698 34.448 135.306 34.6 135.946 34.6C136.538 34.6 137.01 34.552 137.362 34.456C137.714 34.36 137.994 34.248 138.202 34.12C138.426 33.976 138.626 33.856 138.802 33.76C139.09 33.616 139.362 33.544 139.618 33.544C139.97 33.544 140.258 33.664 140.482 33.904C140.722 34.144 140.842 34.424 140.842 34.744C140.842 35.176 140.618 35.568 140.17 35.92C139.754 36.272 139.17 36.584 138.418 36.856C137.666 37.112 136.89 37.24 136.09 37.24ZM158.502 24.16C158.87 24.16 159.19 24.304 159.462 24.592C159.734 24.864 159.87 25.216 159.87 25.648C159.87 25.76 159.862 25.864 159.846 25.96C159.83 26.04 159.806 26.12 159.774 26.2L156.102 36.088C155.99 36.408 155.79 36.656 155.502 36.832C155.214 36.992 154.91 37.048 154.59 37C154.046 36.968 153.638 36.664 153.366 36.088L150.99 29.248L151.614 29.272L149.382 36.088C149.11 36.664 148.702 36.968 148.158 37C147.854 37.048 147.55 36.992 147.246 36.832C146.958 36.656 146.758 36.408 146.646 36.088L142.974 26.2C142.91 26.024 142.878 25.84 142.878 25.648C142.878 25.264 143.006 24.92 143.262 24.616C143.518 24.312 143.87 24.16 144.318 24.16C144.622 24.16 144.894 24.232 145.134 24.376C145.374 24.52 145.542 24.752 145.638 25.072L148.542 32.944L147.942 32.896L150.126 26.968C150.382 26.376 150.822 26.08 151.446 26.08C151.798 26.08 152.062 26.16 152.238 26.32C152.43 26.464 152.582 26.68 152.694 26.968L154.878 32.896L154.158 32.992L157.11 25.072C157.302 24.464 157.766 24.16 158.502 24.16ZM179.907 21.016C180.323 21.224 180.563 21.552 180.627 22C180.707 22.448 180.595 22.856 180.291 23.224C180.083 23.512 179.811 23.672 179.475 23.704C179.155 23.736 178.827 23.672 178.491 23.512C178.107 23.336 177.699 23.2 177.267 23.104C176.851 23.008 176.411 22.96 175.947 22.96C175.083 22.96 174.307 23.096 173.619 23.368C172.947 23.64 172.371 24.032 171.891 24.544C171.411 25.04 171.043 25.632 170.787 26.32C170.547 27.008 170.427 27.768 170.427 28.6C170.427 29.576 170.563 30.424 170.835 31.144C171.123 31.864 171.515 32.464 172.011 32.944C172.507 33.424 173.091 33.784 173.763 34.024C174.435 34.248 175.163 34.36 175.947 34.36C176.379 34.36 176.811 34.32 177.243 34.24C177.675 34.16 178.091 34.016 178.491 33.808C178.827 33.648 179.155 33.592 179.475 33.64C179.811 33.688 180.091 33.856 180.315 34.144C180.635 34.544 180.747 34.96 180.651 35.392C180.571 35.808 180.331 36.112 179.931 36.304C179.515 36.512 179.083 36.688 178.635 36.832C178.203 36.96 177.763 37.056 177.315 37.12C176.867 37.2 176.411 37.24 175.947 37.24C174.795 37.24 173.699 37.056 172.659 36.688C171.635 36.32 170.715 35.776 169.899 35.056C169.099 34.336 168.467 33.44 168.003 32.368C167.539 31.28 167.307 30.024 167.307 28.6C167.307 27.368 167.515 26.232 167.931 25.192C168.363 24.152 168.963 23.256 169.731 22.504C170.515 21.736 171.435 21.144 172.491 20.728C173.547 20.296 174.699 20.08 175.947 20.08C176.651 20.08 177.339 20.16 178.011 20.32C178.683 20.48 179.315 20.712 179.907 21.016ZM192.986 23.92C193.402 23.92 193.746 24.056 194.018 24.328C194.29 24.6 194.426 24.952 194.426 25.384L194.426 35.536C194.426 35.952 194.29 36.304 194.018 36.592C193.746 36.864 193.402 37 192.986 37C192.57 37 192.226 36.864 191.954 36.592C191.682 36.304 191.546 35.952 191.546 35.536L191.546 34.36L192.074 34.576C192.074 34.784 191.962 35.04 191.738 35.344C191.514 35.632 191.21 35.92 190.826 36.208C190.442 36.496 189.986 36.744 189.458 36.952C188.946 37.144 188.386 37.24 187.778 37.24C186.674 37.24 185.674 36.96 184.778 36.4C183.882 35.824 183.17 35.04 182.642 34.048C182.13 33.04 181.874 31.888 181.874 30.592C181.874 29.28 182.13 28.128 182.642 27.136C183.17 26.128 183.874 25.344 184.754 24.784C185.634 24.208 186.61 23.92 187.682 23.92C188.37 23.92 189.002 24.024 189.578 24.232C190.154 24.44 190.65 24.704 191.066 25.024C191.498 25.344 191.826 25.672 192.05 26.008C192.29 26.328 192.41 26.6 192.41 26.824L191.546 27.136L191.546 25.384C191.546 24.968 191.682 24.624 191.954 24.352C192.226 24.064 192.57 23.92 192.986 23.92ZM188.138 34.6C188.842 34.6 189.458 34.424 189.986 34.072C190.514 33.72 190.922 33.24 191.21 32.632C191.514 32.024 191.666 31.344 191.666 30.592C191.666 29.824 191.514 29.136 191.21 28.528C190.922 27.92 190.514 27.44 189.986 27.088C189.458 26.736 188.842 26.56 188.138 26.56C187.45 26.56 186.842 26.736 186.314 27.088C185.786 27.44 185.37 27.92 185.066 28.528C184.778 29.136 184.634 29.824 184.634 30.592C184.634 31.344 184.778 32.024 185.066 32.632C185.37 33.24 185.786 33.72 186.314 34.072C186.842 34.424 187.45 34.6 188.138 34.6ZM198.504 37C198.088 37 197.744 36.864 197.472 36.592C197.2 36.304 197.064 35.952 197.064 35.536L197.064 25.624C197.064 25.208 197.2 24.864 197.472 24.592C197.744 24.304 198.088 24.16 198.504 24.16C198.92 24.16 199.264 24.304 199.536 24.592C199.808 24.864 199.944 25.208 199.944 25.624L199.944 27.88L199.776 26.272C199.952 25.888 200.176 25.552 200.448 25.264C200.736 24.96 201.056 24.712 201.408 24.52C201.76 24.312 202.136 24.16 202.536 24.064C202.936 23.968 203.336 23.92 203.736 23.92C204.216 23.92 204.616 24.056 204.936 24.328C205.272 24.6 205.44 24.92 205.44 25.288C205.44 25.816 205.304 26.2 205.032 26.44C204.76 26.664 204.464 26.776 204.144 26.776C203.84 26.776 203.56 26.72 203.304 26.608C203.064 26.496 202.784 26.44 202.464 26.44C202.176 26.44 201.88 26.512 201.576 26.656C201.288 26.784 201.016 26.992 200.76 27.28C200.52 27.568 200.32 27.928 200.16 28.36C200.016 28.776 199.944 29.272 199.944 29.848L199.944 35.536C199.944 35.952 199.808 36.304 199.536 36.592C199.264 36.864 198.92 37 198.504 37ZM216.963 19.24C217.379 19.24 217.723 19.376 217.995 19.648C218.267 19.92 218.403 20.272 218.403 20.704L218.403 35.536C218.403 35.952 218.267 36.304 217.995 36.592C217.723 36.864 217.379 37 216.963 37C216.547 37 216.203 36.864 215.931 36.592C215.659 36.304 215.523 35.952 215.523 35.536L215.523 34.36L216.051 34.576C216.051 34.784 215.939 35.04 215.715 35.344C215.491 35.632 215.187 35.92 214.803 36.208C214.419 36.496 213.963 36.744 213.435 36.952C212.923 37.144 212.363 37.24 211.755 37.24C210.651 37.24 209.651 36.96 208.755 36.4C207.859 35.824 207.147 35.04 206.619 34.048C206.107 33.04 205.851 31.888 205.851 30.592C205.851 29.28 206.107 28.128 206.619 27.136C207.147 26.128 207.851 25.344 208.731 24.784C209.611 24.208 210.587 23.92 211.659 23.92C212.347 23.92 212.979 24.024 213.555 24.232C214.131 24.44 214.627 24.704 215.043 25.024C215.475 25.344 215.803 25.672 216.027 26.008C216.267 26.328 216.387 26.6 216.387 26.824L215.523 27.136L215.523 20.704C215.523 20.288 215.659 19.944 215.931 19.672C216.203 19.384 216.547 19.24 216.963 19.24ZM212.115 34.6C212.819 34.6 213.435 34.424 213.963 34.072C214.491 33.72 214.899 33.24 215.187 32.632C215.491 32.024 215.643 31.344 215.643 30.592C215.643 29.824 215.491 29.136 215.187 28.528C214.899 27.92 214.491 27.44 213.963 27.088C213.435 26.736 212.819 26.56 212.115 26.56C211.427 26.56 210.819 26.736 210.291 27.088C209.763 27.44 209.347 27.92 209.043 28.528C208.755 29.136 208.611 29.824 208.611 30.592C208.611 31.344 208.755 32.024 209.043 32.632C209.347 33.24 209.763 33.72 210.291 34.072C210.819 34.424 211.427 34.6 212.115 34.6Z" fill="#23003D"/>
<defs>
<linearGradient id="paint0_linear_619_12954" x1="140" y1="0" x2="140" y2="56" gradientUnits="userSpaceOnUse">
<stop stop-color="#FFE486"/>
<stop offset="0.515625" stop-color="#FFCC4E"/>
<stop offset="1" stop-color="#FFD02B"/>
<stop offset="1" stop-color="#D2A61B"/>
</linearGradient>
</defs>
</svg>
