<svg width="41" height="40" viewBox="0 0 41 40" fill="none" xmlns="http://www.w3.org/2000/svg">
<path d="M1.72485 14.4492V25.5338C1.72485 27.2588 2.06644 28.9326 2.74962 30.5039C3.41572 32.024 4.35508 33.3903 5.56772 34.5688C6.76328 35.7473 8.1809 36.6696 9.73513 37.3015C11.3577 37.9676 13.0656 38.3092 14.8419 38.3092H25.9606C27.7368 38.3092 29.4448 37.9676 31.0673 37.3015C32.6215 36.6525 34.0391 35.7302 35.2347 34.5688C36.4302 33.3903 37.3867 32.024 38.0528 30.5039C38.3944 29.7353 38.6505 28.9326 38.8213 28.1128C38.9921 27.2759 39.0946 26.4048 39.0946 25.5338V14.4492C39.0946 12.7242 38.753 11.0504 38.0699 9.47912C37.4038 7.95905 36.4644 6.5927 35.2518 5.41422C34.0562 4.23574 32.6386 3.31345 31.0844 2.68151C29.4619 2.01542 27.7539 1.67383 25.9776 1.67383H14.859C13.0827 1.67383 11.3747 2.01542 9.75218 2.68151C9.08608 2.95478 8.45417 3.27929 7.85639 3.65504C7.03658 4.15034 6.28508 4.74812 5.58482 5.4313C4.45758 6.52438 3.56943 7.78826 2.92041 9.17169C2.86917 9.27417 2.81793 9.37665 2.78377 9.47912C2.06643 11.0675 1.72485 12.7413 1.72485 14.4492Z" fill="#D58900"/>
<path d="M39.6072 8.83006C38.8557 7.10504 37.7967 5.56789 36.4304 4.2357C35.064 2.9035 33.4927 1.86166 31.7165 1.14432C29.889 0.392827 27.9419 0 25.9436 0H14.8249C12.8266 0 10.8796 0.375747 9.05209 1.14432C8.93254 1.19556 8.79587 1.2468 8.67631 1.29804C7.05377 2.01537 5.60203 3.00598 4.33816 4.2357C3.26215 5.29462 2.35695 6.49018 1.6567 7.78822C1.46882 8.1298 1.31508 8.47139 1.16137 8.83006V8.84714C1.11013 8.94962 1.07598 9.05209 1.04182 9.15457C0.888105 9.53032 0.751486 9.92314 0.63193 10.2989C0.307421 11.3237 0.119548 12.3826 0.0341505 13.4757C0.0170711 13.8002 0 14.1247 0 14.4663V25.5508C0 27.4979 0.392793 29.3937 1.16137 31.1699C1.91286 32.895 2.9718 34.4321 4.33816 35.7643C5.70451 37.0965 7.27583 38.1383 9.05209 38.8557C10.8796 39.6072 12.8266 40 14.8249 40H25.9436C26.8147 40 27.6857 39.9317 28.5397 39.778C29.0179 39.6926 29.4791 39.5901 29.9573 39.4705C30.5551 39.2997 31.1358 39.1119 31.7165 38.8728C31.7848 38.8386 31.8702 38.8044 31.9385 38.7703C33.6123 38.0529 35.1153 37.0453 36.4304 35.7643C37.6088 34.62 38.5824 33.2878 39.2997 31.836C39.4022 31.614 39.5047 31.392 39.6072 31.1699C40.3757 29.3937 40.7686 27.4979 40.7686 25.5508V14.4492C40.7686 12.5021 40.3757 10.6234 39.6072 8.83006ZM36.4475 29.8548C35.8668 31.1699 35.0469 32.3655 34.0051 33.3903C32.9633 34.415 31.7335 35.2178 30.3843 35.7643C30.1964 35.8326 30.0085 35.918 29.8206 35.9693C29.3595 36.123 28.8984 36.2596 28.4201 36.3621C28.0444 36.4475 27.6516 36.5158 27.2758 36.55C26.8318 36.6012 26.3877 36.6183 25.9436 36.6183H14.8249C13.2878 36.6183 11.7848 36.3279 10.3843 35.7472C9.0179 35.1836 7.80527 34.3809 6.76342 33.3732C5.72158 32.3484 4.90176 31.1699 4.32106 29.8377C3.72328 28.4714 3.43294 27.0196 3.43294 25.5167V14.4492C3.43294 13.7489 3.50127 13.0658 3.62083 12.3997C3.68915 12.0581 3.77454 11.6994 3.87702 11.3578C3.92826 11.187 3.97948 11.0333 4.03072 10.8796C4.11612 10.6234 4.21858 10.3843 4.32106 10.1281C4.3723 10.0085 4.42356 9.90606 4.4748 9.80359C5.03842 8.60803 5.80698 7.53202 6.76342 6.60974C7.80527 5.58497 9.03498 4.78224 10.3843 4.2357C10.6404 4.13322 10.8966 4.03074 11.1528 3.94535C12.3313 3.55252 13.561 3.36465 14.8249 3.36465H25.9436C27.4808 3.36465 28.9838 3.655 30.3843 4.2357C31.7506 4.79932 32.9633 5.60205 34.0051 6.60974C35.0469 7.6345 35.8668 8.81298 36.4475 10.1452C37.0452 11.5115 37.3356 12.9633 37.3356 14.4663V25.5508C37.3527 27.0367 37.0452 28.4885 36.4475 29.8548Z" fill="#D58900"/>
<path d="M11.1699 3.94536C10.9137 4.03075 10.6575 4.13323 10.4013 4.23571C9.03492 4.79933 7.82229 5.60206 6.78045 6.60975C5.824 7.54911 5.0554 8.62512 4.49178 9.8036C3.29622 9.27413 2.32271 8.45432 1.69077 7.8053C2.39103 6.49019 3.27915 5.31171 4.37223 4.25278C5.63611 3.02307 7.08789 2.03246 8.71043 1.31512C10.1109 2.1691 10.8453 3.31342 11.1699 3.94536Z" fill="#D58900"/>
<path opacity="0.33" d="M4.06475 9.13755C4.57714 9.12047 5.08952 9.12047 5.6019 9.12047C27.3098 9.13755 34.6028 22.2375 36.5669 27.1051C37.011 28.2153 37.1818 28.8984 37.1818 28.8984C37.1818 28.8984 37.3184 28.8301 37.5746 28.7106C37.865 27.6858 38.0187 26.6098 38.0187 25.5338V14.4493C38.0187 12.8609 37.6942 11.3237 37.0622 9.87196C36.4474 8.47145 35.5763 7.20758 34.4832 6.13157C33.3731 5.05557 32.0921 4.2016 30.6403 3.6209C29.1544 3.00604 27.5661 2.69861 25.9435 2.69861H14.8248C13.2022 2.69861 11.6139 3.00604 10.1279 3.6209C8.69328 4.21868 7.39524 5.05557 6.28508 6.13157C5.39695 7.03678 4.64545 8.02739 4.06475 9.13755Z" fill="#D58900"/>
<path d="M24.4236 5.20922C24.4236 5.20922 28.6592 4.97011 31.7335 7.08796C34.8078 9.20581 33.0657 9.80359 29.0692 8.45431C25.0726 7.10504 20.6661 5.4825 24.4236 5.20922Z" fill="#D58900"/>
<path d="M20.9564 5.10673C19.6242 5.02133 18.07 5.03841 17.8821 5.70451C17.6942 6.37061 20.1708 6.28521 21.093 6.08026C22.0153 5.8753 21.7079 5.15797 20.9564 5.10673Z" fill="#D58900"/>
<path d="M3.87699 11.3578C3.77451 11.6994 3.68911 12.041 3.62079 12.3996C2.69851 11.8019 1.53709 11.0333 0.614799 10.2989C0.734355 9.90604 0.871016 9.53029 1.02473 9.15454C1.7933 9.78648 2.92054 10.6917 3.87699 11.3578Z" fill="#D58900"/>
<path d="M2.76675 14.4492V25.5338C2.76675 27.1222 3.09123 28.6593 3.72317 30.1111C4.33803 31.5116 5.2091 32.7755 6.30218 33.8515C7.41234 34.9275 8.6933 35.7814 10.145 36.3621C11.631 36.977 13.2193 37.2844 14.8419 37.2844H25.9606C27.5832 37.2844 29.1715 36.977 30.6574 36.3621C32.0921 35.7644 33.3902 34.9275 34.5003 33.8515C35.6105 32.7755 36.4815 31.5116 37.0793 30.1111C37.2842 29.6499 37.438 29.1888 37.5746 28.7106C37.865 27.6858 38.0187 26.6098 38.0187 25.5338V14.4492C38.0187 12.8609 37.6942 11.3237 37.0622 9.87196C36.4474 8.47145 35.5763 7.20758 34.4832 6.13157C33.3731 5.05557 32.0921 4.2016 30.6404 3.6209C29.1544 3.00604 27.5661 2.69861 25.9435 2.69861H14.8248C13.2022 2.69861 11.6139 3.00604 10.128 3.6209C8.69328 4.21868 7.39524 5.05557 6.28508 6.13157C5.37987 7.0197 4.6284 8.02739 4.0477 9.12047C3.92815 9.35958 3.80857 9.61577 3.68902 9.87196C3.09124 11.3237 2.76675 12.8779 2.76675 14.4492ZM4.09895 14.4492C4.09895 12.5022 4.64546 10.6747 5.60191 9.10339C7.48064 6.04617 10.9136 3.97956 14.8419 3.97956H25.9606C31.8872 3.97956 36.7035 8.65933 36.7035 14.4322V25.5167C36.7035 26.0462 36.6694 26.5756 36.584 27.088C35.8154 32.1264 31.3577 35.9864 25.9606 35.9864H14.8419C8.91533 35.9864 4.09895 31.3066 4.09895 25.5338V14.4492Z" fill="#D58900"/>
<path d="M2.97191 13.8514V24.4577C2.97191 26.1144 3.29643 27.7028 3.92837 29.2228C4.54323 30.6746 5.43133 31.9897 6.54149 33.117C7.66873 34.2442 8.96678 35.1152 10.4356 35.7301C11.9386 36.362 13.5441 36.6866 15.2008 36.6866H25.568C27.2247 36.6866 28.8301 36.362 30.3331 35.7301C31.7849 35.1152 33.1 34.2271 34.2272 33.117C35.3545 31.9897 36.2255 30.6917 36.8404 29.2228C37.1478 28.4713 37.3869 27.7199 37.5577 26.9342C37.7285 26.1315 37.8139 25.2946 37.8139 24.4577V13.8514C37.8139 12.1947 37.4894 10.5892 36.8575 9.08621C36.2426 7.63445 35.3545 6.31934 34.2443 5.1921C33.1171 4.06486 31.8191 3.1938 30.3502 2.57895C28.8472 1.94701 27.2417 1.6225 25.585 1.6225H15.2178C13.5611 1.6225 11.9728 1.94701 10.4527 2.57895C9.83784 2.83514 9.24004 3.14257 8.67642 3.50123C7.90784 3.97946 7.2076 4.54308 6.55859 5.1921C5.51674 6.23394 4.67983 7.44658 4.06497 8.77878C4.01374 8.88125 3.97961 8.98373 3.92837 9.08621C3.29643 10.5892 2.97191 12.1947 2.97191 13.8514Z" fill="url(#paint0_linear_619_13111)"/>
<path d="M38.3263 8.45431C37.6261 6.81469 36.6355 5.32878 35.3545 4.0649C34.0907 2.80103 32.6047 1.79334 30.9651 1.09308C29.2571 0.375747 27.4467 0 25.5851 0H15.2179C13.3562 0 11.5458 0.358668 9.83786 1.09308C9.7183 1.14432 9.59875 1.19556 9.49627 1.2468C7.99328 1.92997 6.62694 2.88642 5.44846 4.0649C4.44077 5.07259 3.60386 6.21691 2.95484 7.46371C2.78405 7.78822 2.63034 8.11272 2.49371 8.45431V8.47139C2.45955 8.57387 2.40832 8.65927 2.37416 8.76174C2.23752 9.12041 2.1009 9.49616 1.99842 9.85483C1.70807 10.8454 1.52021 11.8531 1.45189 12.895C1.43481 13.2024 1.4177 13.5269 1.4177 13.8343V24.4406C1.4177 26.3023 1.77639 28.1127 2.5108 29.8207C3.21106 31.4603 4.20165 32.9462 5.48261 34.2101C6.74648 35.474 8.23238 36.4816 9.87201 37.1819C11.58 37.8992 13.3904 38.275 15.252 38.275H25.6193C26.4391 38.275 27.2418 38.2067 28.0445 38.07C28.4886 37.9846 28.9327 37.8992 29.3596 37.7626C29.9233 37.6089 30.4698 37.421 30.9993 37.1819C31.0676 37.1477 31.1359 37.1136 31.2042 37.0965C32.7585 36.4133 34.176 35.4398 35.3887 34.2272C36.4988 33.117 37.387 31.8702 38.0701 30.4697C38.1726 30.2647 38.2751 30.0427 38.3605 29.8377C39.0778 28.1298 39.4536 26.3194 39.4536 24.4577V13.8514C39.4024 11.9898 39.0437 10.1623 38.3263 8.45431ZM35.3716 28.5909C34.8421 29.8548 34.0735 30.9991 33.1 31.9727C32.1265 32.9462 30.9822 33.7148 29.7183 34.2442C29.5475 34.3126 29.3767 34.3809 29.2059 34.4492C28.779 34.6029 28.352 34.7225 27.9079 34.8249C27.5492 34.9103 27.1905 34.9616 26.8319 35.0128C26.422 35.064 26.0121 35.0811 25.5851 35.0811H15.2179C13.7832 35.0811 12.3827 34.8079 11.0847 34.2442C9.82079 33.7148 8.67646 32.9462 7.70293 31.9727C6.7294 30.9991 5.96082 29.8548 5.43136 28.5909C4.88482 27.2758 4.59448 25.8924 4.59448 24.4577V13.8514C4.59448 13.1853 4.66282 12.5192 4.78237 11.8873C4.85069 11.5457 4.91899 11.2212 5.02147 10.8967C5.07271 10.743 5.12393 10.5892 5.17517 10.4355C5.26057 10.1964 5.34598 9.9573 5.44846 9.71819C5.49969 9.61571 5.53386 9.51324 5.5851 9.39368C6.11456 8.24936 6.8319 7.2246 7.72003 6.33647C8.69355 5.36294 9.83788 4.59436 11.1018 4.0649C11.3409 3.96243 11.58 3.87703 11.8191 3.79163C12.9122 3.41588 14.0565 3.22801 15.235 3.22801H25.6022C27.0368 3.22801 28.4373 3.50128 29.7354 4.0649C30.9993 4.59436 32.1436 5.36294 33.1171 6.33647C34.0906 7.30999 34.8592 8.45431 35.3887 9.71819C35.9352 11.0333 36.2256 12.4167 36.2256 13.8514V24.4577C36.2085 25.8924 35.9352 27.2758 35.3716 28.5909Z" fill="#F2D847"/>
<path d="M11.7849 3.77458C11.5457 3.85998 11.3066 3.94537 11.0675 4.04785C9.80361 4.57731 8.65932 5.34589 7.6858 6.31941C6.79767 7.20754 6.08033 8.24939 5.55087 9.37663C4.42363 8.86425 3.51841 8.07859 2.93771 7.46374C3.58673 6.21694 4.42359 5.07262 5.43128 4.06493C6.60976 2.88645 7.97615 1.94708 9.47914 1.24683C10.8113 2.06664 11.4945 3.1768 11.7849 3.77458Z" fill="#FFEFA1"/>
<path opacity="0.33" d="M5.15817 8.74471C5.6364 8.72763 6.11461 8.72763 6.59283 8.72763C26.8319 8.74471 33.6466 21.281 35.4741 25.9437C35.9011 27.0026 36.0548 27.6687 36.0548 27.6687C36.0548 27.6687 36.1915 27.6004 36.4135 27.4979C36.6868 26.5073 36.8234 25.4825 36.8234 24.4407V13.8515C36.8234 12.3314 36.5331 10.8626 35.9353 9.46205C35.3717 8.11277 34.5518 6.91721 33.5271 5.87537C32.4852 4.83352 31.2897 4.03079 29.9404 3.46717C28.557 2.88647 27.0711 2.57904 25.551 2.57904H15.1838C13.6637 2.57904 12.1949 2.86939 10.7944 3.46717C9.44511 4.03079 8.24955 4.8506 7.2077 5.87537C6.40497 6.72934 5.70472 7.70287 5.15817 8.74471Z" fill="white"/>
<path d="M24.1504 4.98716C24.1504 4.98716 28.0957 4.76513 30.9651 6.7805C33.8344 8.79587 32.2119 9.37657 28.4715 8.09561C24.7482 6.81466 20.6491 5.26043 24.1504 4.98716Z" fill="white"/>
<path d="M20.9052 4.9018C19.6584 4.8164 18.2237 4.83348 18.0359 5.4825C17.8651 6.13152 20.1708 6.04612 21.0419 5.84117C21.9129 5.63621 21.6225 4.93596 20.9052 4.9018Z" fill="white"/>
<path d="M4.98738 10.8797C4.8849 11.2042 4.81656 11.5458 4.74824 11.8703C3.87719 11.3067 2.8012 10.5552 1.94723 9.85492C2.06679 9.47918 2.18633 9.12051 2.32297 8.76184C3.04031 9.3767 4.09925 10.2478 4.98738 10.8797Z" fill="#FFEFA1"/>
<path d="M3.94554 13.8515V24.4578C3.94554 25.9778 4.23588 27.4467 4.83366 28.8472C5.39728 30.1965 6.21711 31.392 7.24188 32.4339C8.28372 33.4757 9.47928 34.2784 10.8286 34.8421C12.212 35.4228 13.6979 35.7302 15.218 35.7302H25.5852C27.1052 35.7302 28.5741 35.4398 29.9746 34.8421C31.3239 34.2784 32.5194 33.4586 33.5613 32.4339C34.6031 31.392 35.4058 30.1965 35.9695 28.8472C36.1573 28.4031 36.311 27.9591 36.4306 27.515C36.7039 26.5244 36.8405 25.4996 36.8405 24.4578V13.8515C36.8405 12.3314 36.5502 10.8626 35.9524 9.46205C35.3888 8.11277 34.5689 6.91721 33.5442 5.87537C32.5023 4.83352 31.3068 4.03079 29.9575 3.46717C28.5741 2.88647 27.0882 2.57904 25.5681 2.57904H15.2009C13.6808 2.57904 12.212 2.86939 10.8115 3.46717C9.46219 4.03079 8.26663 4.8506 7.22478 5.87537C6.37081 6.72934 5.68764 7.68579 5.1411 8.74471C5.02154 8.98382 4.91908 9.22294 4.81661 9.46205C4.23591 10.8455 3.94554 12.3314 3.94554 13.8515ZM5.19235 13.8515C5.19235 11.9898 5.70472 10.2306 6.59285 8.74471C8.33495 5.80705 11.5459 3.84292 15.2009 3.84292H25.5681C31.1018 3.84292 35.5766 8.33481 35.5766 13.8515V24.4578C35.5766 24.9702 35.5425 25.4655 35.4571 25.9608C34.7397 30.7772 30.5724 34.4834 25.551 34.4834H15.1838C9.65008 34.4834 5.17525 29.9915 5.17525 24.4749V13.8515H5.19235Z" fill="#D58900"/>
<path d="M22.0325 11.9214C22.0495 11.9214 22.0837 11.9214 22.1008 11.9214H22.1179C22.152 11.9214 22.1691 11.9214 22.2033 11.9214C22.5449 11.9555 22.8694 12.0409 23.1426 12.2117C23.7063 12.5362 24.1161 13.1169 24.1161 13.8172V14.0051V15.4568H30.8967C31.2383 15.4568 31.5457 15.7642 31.7335 16.2254C31.8702 16.567 31.9556 16.994 31.9556 17.4722V18.0187V22.0666V23.0742C31.9556 24.304 31.4774 25.2946 30.8796 25.2946H24.0991V25.4141V26.7463C24.0991 27.959 23.1085 28.83 22.0154 28.83C21.6738 28.83 21.3151 28.7446 20.9735 28.5567L9.94023 22.1861C9.12042 21.7079 8.7788 20.8027 8.93252 19.9829C8.7788 19.2314 9.10334 18.4116 9.94023 17.9846L20.9735 12.1946C21.2639 12.0409 21.5542 11.9726 21.8446 11.9385C21.8787 11.9385 21.9129 11.9385 21.93 11.9385C21.93 11.9385 21.93 11.9385 21.9471 11.9385C21.9812 11.9214 21.9983 11.9214 22.0325 11.9214ZM22.0325 9.92309C21.9983 9.92309 21.9641 9.92309 21.9129 9.92309H21.8958C21.8446 9.92309 21.7763 9.92309 21.7079 9.94016C21.1272 9.9914 20.5807 10.1451 20.0512 10.4184L9.01792 16.2083C7.58325 16.9598 6.76344 18.4457 6.93424 19.9829C6.86592 20.666 6.9684 21.3492 7.24167 21.9982C7.58326 22.801 8.18104 23.4671 8.94962 23.9111L19.9829 30.2818C20.5978 30.6404 21.3151 30.8283 22.0154 30.8283C23.0743 30.8283 24.082 30.4184 24.8506 29.684C25.5167 29.035 25.9436 28.1981 26.0632 27.2929H30.8796C31.5115 27.2929 32.1093 27.0537 32.6217 26.6268C32.9462 26.3364 33.2365 25.9607 33.4415 25.5166C33.7831 24.8163 33.9539 23.9794 33.9539 23.0742V22.0666V18.0187V17.4722C33.9539 16.7549 33.8172 16.0546 33.5781 15.4568C33.0487 14.1929 32.0581 13.4414 30.8796 13.4414H26.0803C25.9607 12.2117 25.2434 11.1186 24.1161 10.4696C23.5867 10.1622 22.9718 9.97432 22.3399 9.92309C22.2886 9.92309 22.2374 9.92309 22.1862 9.90601C22.1691 9.90601 22.152 9.90601 22.152 9.90601C22.1179 9.92309 22.0666 9.92309 22.0325 9.92309Z" fill="white"/>
<path d="M19.5387 25.2947H30.8965C31.4943 25.2947 31.9725 24.3041 31.9725 23.0744V18.0189C31.9725 17.5065 31.8871 17.0283 31.7505 16.6526C31.5626 16.1402 31.2552 15.7986 30.9136 15.7986H19.5558C18.958 15.7986 18.4798 16.7892 18.4798 18.0189V23.0744C18.4627 24.3041 18.9409 25.2947 19.5387 25.2947Z" fill="#A86700"/>
<path d="M9.95717 18.5825L20.9905 12.2119C21.7078 11.802 22.5277 11.8703 23.1425 12.2461C23.7061 12.6047 24.116 13.2367 24.116 14.0052V26.7465C24.116 28.3519 22.391 29.3425 21.0076 28.5398L9.97427 22.1692C8.57376 21.3665 8.57374 19.3682 9.95717 18.5825Z" fill="#A86700"/>
<path d="M19.5387 24.082H30.8965C31.4943 24.082 31.9725 23.1768 31.9725 22.0666V17.4723C31.9725 16.9941 31.8871 16.5671 31.7505 16.2255C31.5626 15.7473 31.2552 15.4569 30.9136 15.4569H19.5558C18.958 15.4569 18.4798 16.3621 18.4798 17.4723V22.0666C18.4627 23.1768 18.9409 24.082 19.5387 24.082Z" fill="#D58900"/>
<path d="M9.95723 17.9847L20.9906 12.1948C21.7079 11.8191 22.5277 11.8874 23.1426 12.229C23.7062 12.5535 24.1161 13.1342 24.1161 13.8344V25.4314C24.1161 26.8831 22.3911 27.7883 21.0077 27.071L9.97433 21.2811C8.57382 20.5296 8.5738 18.7021 9.95723 17.9847Z" fill="#D58900"/>
<defs>
<linearGradient id="paint0_linear_619_13111" x1="20.7172" y1="1.02882" x2="20.0875" y2="35.7936" gradientUnits="userSpaceOnUse">
<stop offset="0.6958" stop-color="#FEE581"/>
<stop offset="0.7454" stop-color="#FDE37C"/>
<stop offset="0.8026" stop-color="#FADC6E"/>
<stop offset="0.8635" stop-color="#F5D157"/>
<stop offset="0.9268" stop-color="#EFC237"/>
<stop offset="0.932" stop-color="#EEC134"/>
</linearGradient>
</defs>
</svg>
