<svg width="264" height="56" viewBox="0 0 264 56" fill="none" xmlns="http://www.w3.org/2000/svg">
<rect width="264" height="56" rx="28" fill="url(#paint0_linear_649_105)"/>
<path d="M17 17.7108C18.1371 11.7895 22.15 9.5609 25.4862 9" stroke="white" stroke-width="3" stroke-linecap="round"/>
<path d="M65.7967 19.016C66.2127 19.224 66.4527 19.552 66.5167 20C66.5967 20.448 66.4847 20.856 66.1807 21.224C65.9727 21.512 65.7007 21.672 65.3647 21.704C65.0447 21.736 64.7167 21.672 64.3807 21.512C63.9967 21.336 63.5887 21.2 63.1567 21.104C62.7407 21.008 62.3007 20.96 61.8367 20.96C60.9727 20.96 60.1967 21.096 59.5087 21.368C58.8367 21.64 58.2607 22.032 57.7807 22.544C57.3007 23.04 56.9327 23.632 56.6767 24.32C56.4367 25.008 56.3167 25.768 56.3167 26.6C56.3167 27.576 56.4527 28.424 56.7247 29.144C57.0127 29.864 57.4047 30.464 57.9007 30.944C58.3967 31.424 58.9807 31.784 59.6527 32.024C60.3247 32.248 61.0527 32.36 61.8367 32.36C62.2687 32.36 62.7007 32.32 63.1327 32.24C63.5647 32.16 63.9807 32.016 64.3807 31.808C64.7167 31.648 65.0447 31.592 65.3647 31.64C65.7007 31.688 65.9807 31.856 66.2047 32.144C66.5247 32.544 66.6367 32.96 66.5407 33.392C66.4607 33.808 66.2207 34.112 65.8207 34.304C65.4047 34.512 64.9727 34.688 64.5247 34.832C64.0927 34.96 63.6527 35.056 63.2047 35.12C62.7567 35.2 62.3007 35.24 61.8367 35.24C60.6847 35.24 59.5887 35.056 58.5487 34.688C57.5247 34.32 56.6047 33.776 55.7887 33.056C54.9887 32.336 54.3567 31.44 53.8927 30.368C53.4287 29.28 53.1967 28.024 53.1967 26.6C53.1967 25.368 53.4047 24.232 53.8207 23.192C54.2527 22.152 54.8527 21.256 55.6207 20.504C56.4047 19.736 57.3247 19.144 58.3807 18.728C59.4367 18.296 60.5887 18.08 61.8367 18.08C62.5407 18.08 63.2287 18.16 63.9007 18.32C64.5727 18.48 65.2047 18.712 65.7967 19.016ZM71.8196 18.2C72.2036 18.2 72.5396 18.344 72.8276 18.632C73.1316 18.904 73.2836 19.248 73.2836 19.664L73.2836 33.536C73.2836 33.952 73.1316 34.304 72.8276 34.592C72.5236 34.864 72.1716 35 71.7716 35C71.3236 35 70.9636 34.864 70.6916 34.592C70.4196 34.304 70.2836 33.952 70.2836 33.536L70.2836 19.664C70.2836 19.248 70.4276 18.904 70.7156 18.632C71.0036 18.344 71.3716 18.2 71.8196 18.2ZM82.4516 18.2C82.8996 18.2 83.2596 18.344 83.5316 18.632C83.8036 18.904 83.9396 19.248 83.9396 19.664L83.9396 33.536C83.9396 33.952 83.7956 34.304 83.5076 34.592C83.2356 34.864 82.8676 35 82.4036 35C82.0196 35 81.6756 34.864 81.3716 34.592C81.0836 34.304 80.9396 33.952 80.9396 33.536L80.9396 19.664C80.9396 19.248 81.0916 18.904 81.3956 18.632C81.6996 18.344 82.0516 18.2 82.4516 18.2ZM71.7476 25.184L82.4516 25.184L82.4516 27.944L71.7476 27.944L71.7476 25.184ZM94.9016 21.968L89.7176 34.16C89.6056 34.464 89.4296 34.704 89.1896 34.88C88.9656 35.04 88.7176 35.12 88.4456 35.12C88.0136 35.12 87.6936 35 87.4856 34.76C87.2776 34.52 87.1736 34.224 87.1736 33.872C87.1736 33.728 87.1976 33.576 87.2456 33.416L93.2216 19.064C93.3496 18.744 93.5416 18.496 93.7976 18.32C94.0696 18.144 94.3576 18.072 94.6616 18.104C94.9496 18.104 95.2136 18.192 95.4536 18.368C95.7096 18.528 95.8936 18.76 96.0056 19.064L101.91 33.128C101.99 33.336 102.03 33.528 102.03 33.704C102.03 34.136 101.886 34.48 101.598 34.736C101.326 34.992 101.022 35.12 100.686 35.12C100.398 35.12 100.134 35.032 99.8936 34.856C99.6696 34.68 99.4936 34.44 99.3656 34.136L94.2056 22.112L94.9016 21.968ZM90.4616 31.232L91.7816 28.472L98.2616 28.472L98.7176 31.232L90.4616 31.232ZM114.526 32.192C114.942 32.192 115.286 32.328 115.558 32.6C115.846 32.856 115.99 33.192 115.99 33.608C115.99 34.008 115.846 34.344 115.558 34.616C115.286 34.872 114.942 35 114.526 35L106.726 35C106.31 35 105.958 34.864 105.67 34.592C105.398 34.304 105.262 33.952 105.262 33.536L105.262 19.664C105.262 19.248 105.406 18.904 105.694 18.632C105.982 18.344 106.35 18.2 106.798 18.2C107.182 18.2 107.518 18.344 107.806 18.632C108.11 18.904 108.262 19.248 108.262 19.664L108.262 32.6L107.734 32.192L114.526 32.192ZM129.202 32.192C129.618 32.192 129.962 32.328 130.234 32.6C130.522 32.856 130.666 33.192 130.666 33.608C130.666 34.008 130.522 34.344 130.234 34.616C129.962 34.872 129.618 35 129.202 35L121.402 35C120.986 35 120.634 34.864 120.346 34.592C120.074 34.304 119.938 33.952 119.938 33.536L119.938 19.664C119.938 19.248 120.082 18.904 120.37 18.632C120.658 18.344 121.026 18.2 121.474 18.2C121.858 18.2 122.194 18.344 122.482 18.632C122.786 18.904 122.938 19.248 122.938 19.664L122.938 32.6L122.41 32.192L129.202 32.192ZM136.079 18.2L144.119 18.2C144.535 18.2 144.879 18.336 145.151 18.608C145.439 18.864 145.583 19.2 145.583 19.616C145.583 20.016 145.439 20.344 145.151 20.6C144.879 20.84 144.535 20.96 144.119 20.96L137.399 20.96L137.615 20.552L137.615 25.232L137.423 25.04L143.039 25.04C143.455 25.04 143.799 25.176 144.071 25.448C144.359 25.704 144.503 26.04 144.503 26.456C144.503 26.856 144.359 27.184 144.071 27.44C143.799 27.68 143.455 27.8 143.039 27.8L137.495 27.8L137.615 27.608L137.615 32.456L137.423 32.24L144.119 32.24C144.535 32.24 144.879 32.384 145.151 32.672C145.439 32.944 145.583 33.264 145.583 33.632C145.583 34.032 145.439 34.36 145.151 34.616C144.879 34.872 144.535 35 144.119 35L136.079 35C135.663 35 135.311 34.864 135.023 34.592C134.751 34.304 134.615 33.952 134.615 33.536L134.615 19.664C134.615 19.248 134.751 18.904 135.023 18.632C135.311 18.344 135.663 18.2 136.079 18.2ZM162.293 18.2C162.677 18.2 162.989 18.328 163.229 18.584C163.469 18.84 163.589 19.16 163.589 19.544L163.589 33.536C163.589 33.952 163.445 34.304 163.157 34.592C162.885 34.864 162.541 35 162.125 35C161.917 35 161.701 34.968 161.477 34.904C161.269 34.824 161.109 34.72 160.997 34.592L151.565 22.616L152.189 22.232L152.189 33.656C152.189 34.04 152.061 34.36 151.805 34.616C151.565 34.872 151.245 35 150.845 35C150.461 35 150.149 34.872 149.909 34.616C149.669 34.36 149.549 34.04 149.549 33.656L149.549 19.664C149.549 19.248 149.685 18.904 149.957 18.632C150.245 18.344 150.597 18.2 151.013 18.2C151.237 18.2 151.469 18.248 151.709 18.344C151.949 18.424 152.125 18.552 152.237 18.728L161.381 30.392L160.973 30.68L160.973 19.544C160.973 19.16 161.093 18.84 161.333 18.584C161.573 18.328 161.893 18.2 162.293 18.2ZM176.318 35.24C175.102 35.24 173.966 35.016 172.91 34.568C171.854 34.12 170.926 33.504 170.126 32.72C169.326 31.92 168.694 31 168.23 29.96C167.782 28.92 167.558 27.8 167.558 26.6C167.558 25.4 167.782 24.28 168.23 23.24C168.694 22.2 169.326 21.288 170.126 20.504C170.926 19.704 171.854 19.08 172.91 18.632C173.966 18.184 175.102 17.96 176.318 17.96C177.07 17.96 177.798 18.04 178.502 18.2C179.206 18.36 179.854 18.6 180.446 18.92C180.686 19.048 180.862 19.224 180.974 19.448C181.102 19.656 181.166 19.872 181.166 20.096C181.166 20.48 181.038 20.824 180.782 21.128C180.526 21.432 180.198 21.584 179.798 21.584C179.67 21.584 179.534 21.568 179.39 21.536C179.262 21.504 179.134 21.456 179.006 21.392C178.606 21.216 178.182 21.08 177.734 20.984C177.286 20.888 176.814 20.84 176.318 20.84C175.278 20.84 174.326 21.104 173.462 21.632C172.614 22.144 171.934 22.84 171.422 23.72C170.926 24.584 170.678 25.544 170.678 26.6C170.678 27.64 170.926 28.6 171.422 29.48C171.934 30.36 172.614 31.064 173.462 31.592C174.326 32.104 175.278 32.36 176.318 32.36C176.798 32.36 177.326 32.312 177.902 32.216C178.478 32.12 178.95 31.992 179.318 31.832L179.102 32.552L179.102 28.448L179.51 28.808L176.846 28.808C176.43 28.808 176.078 28.672 175.79 28.4C175.518 28.128 175.382 27.784 175.382 27.368C175.382 26.952 175.518 26.608 175.79 26.336C176.078 26.064 176.43 25.928 176.846 25.928L180.782 25.928C181.198 25.928 181.542 26.072 181.814 26.36C182.086 26.632 182.222 26.976 182.222 27.392L182.222 32.48C182.222 32.8 182.142 33.064 181.982 33.272C181.838 33.48 181.67 33.648 181.478 33.776C180.742 34.224 179.934 34.584 179.054 34.856C178.19 35.112 177.278 35.24 176.318 35.24ZM187.773 18.2L195.813 18.2C196.229 18.2 196.573 18.336 196.845 18.608C197.133 18.864 197.277 19.2 197.277 19.616C197.277 20.016 197.133 20.344 196.845 20.6C196.573 20.84 196.229 20.96 195.813 20.96L189.093 20.96L189.309 20.552L189.309 25.232L189.117 25.04L194.733 25.04C195.149 25.04 195.493 25.176 195.765 25.448C196.053 25.704 196.197 26.04 196.197 26.456C196.197 26.856 196.053 27.184 195.765 27.44C195.493 27.68 195.149 27.8 194.733 27.8L189.189 27.8L189.309 27.608L189.309 32.456L189.117 32.24L195.813 32.24C196.229 32.24 196.573 32.384 196.845 32.672C197.133 32.944 197.277 33.264 197.277 33.632C197.277 34.032 197.133 34.36 196.845 34.616C196.573 34.872 196.229 35 195.813 35L187.773 35C187.357 35 187.005 34.864 186.717 34.592C186.445 34.304 186.309 33.952 186.309 33.536L186.309 19.664C186.309 19.248 186.445 18.904 186.717 18.632C187.005 18.344 187.357 18.2 187.773 18.2ZM206.643 35.24C205.523 35.24 204.515 35.104 203.619 34.832C202.723 34.544 201.867 34.048 201.051 33.344C200.843 33.168 200.683 32.968 200.571 32.744C200.459 32.52 200.403 32.296 200.403 32.072C200.403 31.704 200.531 31.384 200.787 31.112C201.059 30.824 201.395 30.68 201.795 30.68C202.099 30.68 202.371 30.776 202.611 30.968C203.219 31.464 203.819 31.84 204.411 32.096C205.019 32.352 205.763 32.48 206.643 32.48C207.235 32.48 207.779 32.392 208.275 32.216C208.771 32.024 209.171 31.776 209.475 31.472C209.779 31.152 209.931 30.792 209.931 30.392C209.931 29.912 209.787 29.504 209.499 29.168C209.211 28.832 208.771 28.552 208.179 28.328C207.587 28.088 206.835 27.904 205.923 27.776C205.059 27.648 204.299 27.456 203.643 27.2C202.987 26.928 202.435 26.592 201.987 26.192C201.555 25.776 201.227 25.296 201.003 24.752C200.779 24.192 200.667 23.568 200.667 22.88C200.667 21.84 200.931 20.952 201.459 20.216C202.003 19.48 202.731 18.92 203.643 18.536C204.555 18.152 205.563 17.96 206.667 17.96C207.707 17.96 208.667 18.12 209.547 18.44C210.443 18.744 211.171 19.136 211.731 19.616C212.195 19.984 212.427 20.408 212.427 20.888C212.427 21.24 212.291 21.56 212.019 21.848C211.747 22.136 211.427 22.28 211.059 22.28C210.819 22.28 210.603 22.208 210.411 22.064C210.155 21.84 209.811 21.632 209.379 21.44C208.947 21.232 208.491 21.064 208.011 20.936C207.531 20.792 207.083 20.72 206.667 20.72C205.979 20.72 205.395 20.808 204.915 20.984C204.451 21.16 204.099 21.4 203.859 21.704C203.619 22.008 203.499 22.36 203.499 22.76C203.499 23.24 203.635 23.64 203.907 23.96C204.195 24.264 204.603 24.512 205.131 24.704C205.659 24.88 206.291 25.04 207.027 25.184C207.987 25.36 208.827 25.568 209.547 25.808C210.283 26.048 210.891 26.36 211.371 26.744C211.851 27.112 212.211 27.584 212.451 28.16C212.691 28.72 212.811 29.408 212.811 30.224C212.811 31.264 212.523 32.16 211.947 32.912C211.371 33.664 210.611 34.24 209.667 34.64C208.739 35.04 207.731 35.24 206.643 35.24Z" fill="#23003D"/>
<defs>
<linearGradient id="paint0_linear_649_105" x1="132" y1="0" x2="132" y2="56" gradientUnits="userSpaceOnUse">
<stop stop-color="#FFE486"/>
<stop offset="0.515625" stop-color="#FFCC4E"/>
<stop offset="1" stop-color="#FFD02B"/>
<stop offset="1" stop-color="#D2A61B"/>
</linearGradient>
</defs>
</svg>
