<svg width="45" height="45" viewBox="0 0 45 45" fill="none" xmlns="http://www.w3.org/2000/svg">
<path d="M1.88512 15.949V28.1841C1.88512 30.0881 2.26216 31.9356 3.01624 33.67C3.75148 35.3479 4.78834 36.856 6.12684 38.1568C7.44649 39.4576 9.01122 40.4757 10.7268 41.1732C12.5177 41.9084 14.4029 42.2854 16.3636 42.2854H28.6363C30.5969 42.2854 32.4821 41.9084 34.2731 41.1732C35.9886 40.4568 37.5533 39.4388 38.873 38.1568C40.1926 36.856 41.2483 35.3479 41.9836 33.67C42.3606 32.8217 42.6434 31.9356 42.8319 31.0307C43.0204 30.107 43.1336 29.1455 43.1336 28.1841V15.949C43.1336 14.045 42.7565 12.1975 42.0024 10.4631C41.2672 8.78523 40.2303 7.27707 38.8918 5.97627C37.5722 4.67547 36.0075 3.65746 34.2919 2.95993C32.501 2.2247 30.6157 1.84766 28.6551 1.84766H16.3824C14.4218 1.84766 12.5366 2.2247 10.7456 2.95993C10.0104 3.26156 9.31286 3.61976 8.65303 4.0345C7.74813 4.58121 6.91863 5.24104 6.14569 5.99512C4.90145 7.20166 3.92115 8.59671 3.20476 10.1237C3.14821 10.2368 3.09164 10.35 3.05394 10.4631C2.281 12.2163 1.88512 14.0638 1.88512 15.949Z" fill="#D58900"/>
<path d="M43.7181 9.74655C42.8886 7.84248 41.7197 6.14579 40.2116 4.67533C38.7034 3.20486 36.969 2.05488 35.0084 1.26309C32.9912 0.433601 30.8421 0 28.6364 0H16.3636C14.158 0 12.0088 0.414749 9.99162 1.26309C9.85966 1.31965 9.70885 1.37621 9.57689 1.43276C7.78593 2.22455 6.1835 3.31798 4.78844 4.67533C3.60076 5.84416 2.60158 7.16381 1.82865 8.59657C1.62127 8.97361 1.45162 9.35065 1.28195 9.74655V9.7654C1.2254 9.87851 1.18768 9.99162 1.14997 10.1047C0.980306 10.5195 0.829484 10.9531 0.697519 11.3678C0.339329 12.499 0.131956 13.6678 0.037695 14.8743C0.0188429 15.2325 0 15.5907 0 15.9677V28.2028C0 30.3519 0.433608 32.4445 1.28195 34.4051C2.11145 36.3092 3.28027 38.0059 4.78844 39.4763C6.29661 40.9468 8.031 42.0968 9.99162 42.8886C12.0088 43.7181 14.158 44.1517 16.3636 44.1517H28.6364C29.5978 44.1517 30.5593 44.0763 31.5019 43.9066C32.0297 43.8123 32.5388 43.6992 33.0666 43.5673C33.7264 43.3787 34.3674 43.1714 35.0084 42.9074C35.0838 42.8697 35.1781 42.832 35.2535 42.7943C37.101 42.0025 38.76 40.8903 40.2116 39.4763C41.5124 38.2132 42.5869 36.7428 43.3787 35.1404C43.4918 34.8953 43.605 34.6502 43.7181 34.4051C44.5664 32.4445 45 30.3519 45 28.2028V15.9677C45 13.7998 44.5664 11.726 43.7181 9.74655ZM40.2304 32.9535C39.5895 34.4051 38.6845 35.7248 37.5346 36.8559C36.3846 37.987 35.0272 38.8731 33.5379 39.4763C33.3306 39.5518 33.1232 39.646 32.9158 39.7026C32.4068 39.8722 31.8978 40.0231 31.3699 40.1362C30.9552 40.2304 30.5216 40.3058 30.1068 40.3435C29.6167 40.4001 29.1265 40.4189 28.6364 40.4189H16.3636C14.667 40.4189 13.008 40.0985 11.4621 39.4575C9.95393 38.8354 8.61541 37.9493 7.46543 36.837C6.31546 35.7059 5.41057 34.4051 4.7696 32.9347C4.10977 31.4265 3.78927 29.8241 3.78927 28.1651V15.93C3.78927 15.1571 3.86468 14.403 3.99664 13.6678C4.07205 13.2907 4.16631 12.8949 4.27942 12.5178C4.33598 12.3293 4.39254 12.1596 4.4491 11.9899C4.54336 11.7072 4.65648 11.4432 4.7696 11.1605C4.82615 11.0285 4.88269 10.9154 4.93925 10.8023C5.56137 9.48262 6.40972 8.29493 7.46543 7.27692C8.61541 6.14579 9.97278 5.25974 11.4621 4.65648C11.7449 4.54336 12.0277 4.43025 12.3104 4.33599C13.6112 3.90239 14.9686 3.69502 16.3636 3.69502H28.6364C30.3331 3.69502 31.9921 4.0155 33.5379 4.65648C35.0461 5.2786 36.3846 6.16464 37.5346 7.27692C38.6845 8.40805 39.5895 9.70885 40.2304 11.1793C40.8903 12.6875 41.2107 14.2899 41.2107 15.9489V28.1839C41.2296 29.8429 40.8903 31.4453 40.2304 32.9535Z" fill="#D58900"/>
<path d="M12.3294 4.35489C12.0466 4.44915 11.7638 4.56226 11.4811 4.67537C9.9729 5.29749 8.63438 6.18354 7.4844 7.29582C6.42868 8.33268 5.58036 9.52037 4.95824 10.8212C3.63859 10.2367 2.56401 9.33185 1.86649 8.61547C2.63942 7.16385 3.61972 5.86306 4.82626 4.69423C6.22132 3.33687 7.82375 2.24345 9.6147 1.45166C11.1606 2.39427 11.9712 3.65736 12.3294 4.35489Z" fill="#D58900"/>
<path d="M26.9585 5.75017C26.9585 5.75017 31.6338 5.48624 35.0272 7.8239C38.4206 10.1616 36.4977 10.8214 32.0863 9.33207C27.6749 7.84275 22.811 6.0518 26.9585 5.75017Z" fill="#D58900"/>
<path d="M23.1314 5.63674C21.661 5.54248 19.9454 5.56133 19.7381 6.29656C19.5307 7.0318 22.2643 6.93753 23.2823 6.71131C24.3003 6.48508 23.9609 5.6933 23.1314 5.63674Z" fill="#D58900"/>
<path d="M4.27928 12.5369C4.16617 12.9139 4.0719 13.291 3.9965 13.6869C2.97848 13.0271 1.69654 12.1787 0.678528 11.3681C0.810493 10.9345 0.961314 10.5197 1.13098 10.105C1.97933 10.8025 3.22356 11.8017 4.27928 12.5369Z" fill="#D58900"/>
<path d="M3.05396 15.949V28.184C3.05396 29.9373 3.41216 31.634 4.10969 33.2364C4.78837 34.7823 5.74982 36.1773 6.95636 37.365C8.18175 38.5527 9.59565 39.4953 11.1981 40.1363C12.8382 40.815 14.5915 41.1543 16.3824 41.1543H28.6551C30.4461 41.1543 32.1993 40.815 33.8395 40.1363C35.4231 39.4765 36.8558 38.5527 38.0812 37.365C39.3066 36.1773 40.268 34.7823 40.9279 33.2364C41.1541 32.7274 41.3238 32.2184 41.4746 31.6905C41.7951 30.5594 41.9647 29.3717 41.9647 28.184V15.949C41.9647 14.1958 41.6065 12.4991 40.909 10.8966C40.2303 9.35078 39.2689 7.95572 38.0624 6.76804C36.837 5.58035 35.4231 4.63775 33.8206 3.99677C32.1805 3.3181 30.4272 2.97876 28.6363 2.97876H16.3636C14.5726 2.97876 12.8194 3.3181 11.1792 3.99677C9.59566 4.6566 8.1629 5.58035 6.93751 6.76804C5.93835 7.74835 5.10884 8.86062 4.46786 10.0672C4.3359 10.3311 4.20394 10.6139 4.07197 10.8966C3.41215 12.4991 3.05396 14.2146 3.05396 15.949ZM4.52443 15.949C4.52443 13.7999 5.12771 11.7827 6.18343 10.0483C8.25716 6.67377 12.0464 4.39267 16.3824 4.39267H28.6551C35.1968 4.39267 40.5131 9.55815 40.5131 15.9302V28.1652C40.5131 28.7496 40.4754 29.334 40.3811 29.8996C39.5328 35.461 34.6124 39.7215 28.6551 39.7215H16.3824C9.84073 39.7215 4.52443 34.5561 4.52443 28.184V15.949Z" fill="#D58900"/>
<path d="M41.4933 33.3117L35.0648 40.2869L13.0078 41.041L3.77026 33.9715L3.01617 10.2178L10.1046 2.93983L33.2738 2.29993L40.7204 8.52113L41.4933 33.3117Z" fill="#FEE581"/>
<path d="M42.3043 9.3318C41.5313 7.522 40.4379 5.88187 39.024 4.48681C37.6289 3.09175 35.9888 1.97948 34.179 1.20654C32.2938 0.414751 30.2955 0 28.2406 0H16.7785C14.7236 0 12.7253 0.395899 10.8401 1.20654C10.7081 1.2631 10.5761 1.31965 10.463 1.37621C8.80405 2.13029 7.29589 3.18601 5.99509 4.48681C4.88282 5.59908 3.95905 6.86217 3.24267 8.23838C3.05414 8.59657 2.88448 8.95476 2.73367 9.3318V9.35065C2.69596 9.46377 2.63942 9.55803 2.60171 9.67114C2.45089 10.067 2.30006 10.4818 2.18695 10.8777C1.86647 11.9711 1.6591 13.0834 1.58369 14.2334C1.56484 14.5727 1.54597 14.9309 1.54597 15.2702V26.9774C1.54597 29.0323 1.94187 31.0306 2.75251 32.9158C3.52545 34.7256 4.61888 36.3657 6.03279 37.7608C7.42785 39.1559 9.06797 40.2681 10.8778 41.0411C12.763 41.8329 14.7613 42.2476 16.8162 42.2476H28.2594C29.1643 42.2476 30.0504 42.1722 30.9364 42.0214C31.4266 41.9271 31.9168 41.8329 32.3881 41.682C33.0102 41.5124 33.6134 41.305 34.1979 41.0411C34.2733 41.0034 34.3487 40.9657 34.4241 40.9468C36.1396 40.1927 37.7043 39.1182 39.0428 37.7797C40.2682 36.5543 41.2486 35.1781 42.0026 33.6322C42.1158 33.406 42.2289 33.1609 42.3231 32.9347C43.1149 31.0494 43.5297 29.0511 43.5297 26.9962V15.2891C43.492 13.2153 43.0961 11.217 42.3043 9.3318ZM39.0428 31.5585C38.4584 32.9535 37.6101 34.2166 36.5355 35.2912C35.461 36.3657 34.1979 37.2141 32.8028 37.7985C32.6143 37.8739 32.4258 37.9493 32.2372 38.0247C31.7659 38.1944 31.2946 38.3264 30.8045 38.4395C30.4086 38.5337 30.0127 38.5903 29.6168 38.6468C29.1643 38.7034 28.7119 38.7223 28.2406 38.7223H16.7785C15.1949 38.7223 13.6491 38.4206 12.2163 37.7985C10.8212 37.2141 9.55813 36.3657 8.48356 35.2912C7.40899 34.2166 6.56064 32.9535 5.97622 31.5585C5.37295 30.1068 5.05249 28.5798 5.05249 26.9962V15.2891C5.05249 14.5538 5.12789 13.8186 5.25986 13.1211C5.33526 12.744 5.41068 12.3858 5.52379 12.0277C5.58035 11.858 5.61803 11.6883 5.69344 11.5186C5.7877 11.2547 5.88198 10.9908 5.99509 10.7269C6.05165 10.6137 6.08934 10.5006 6.1459 10.3687C6.73031 9.10557 7.5221 7.97445 8.50241 6.99414C9.57698 5.91957 10.8401 5.07122 12.2351 4.48681C12.4991 4.3737 12.763 4.27943 13.0269 4.18517C14.2335 3.77043 15.4965 3.56306 16.7973 3.56306H28.2406C29.8242 3.56306 31.37 3.86469 32.8028 4.48681C34.1979 5.07122 35.461 5.91957 36.5355 6.99414C37.6101 8.06871 38.4584 9.3318 39.0428 10.7269C39.6461 12.1785 39.9666 13.7055 39.9666 15.2891V26.9962C39.9666 28.5798 39.665 30.1068 39.0428 31.5585Z" fill="#F2D847"/>
<path d="M13.008 4.16621C12.7441 4.26047 12.4802 4.35473 12.2162 4.46784C10.8212 5.05226 9.55807 5.9006 8.4835 6.97517C7.50319 7.95548 6.7114 9.10547 6.12698 10.3497C4.88274 9.78415 3.88357 8.91694 3.2426 8.23827C3.95898 6.86206 4.88275 5.59897 5.99503 4.4867C7.29582 3.1859 8.80398 2.14904 10.463 1.3761C11.9334 2.281 12.6875 3.50639 13.008 4.16621Z" fill="#FFEFA1"/>
<g opacity="0.33">
<path opacity="0.33" d="M5.69327 9.65205C6.22113 9.6332 6.74899 9.6332 7.27685 9.6332C29.6166 9.65205 37.1386 23.4895 39.1558 28.6361C39.6271 29.805 39.7968 30.5402 39.7968 30.5402C39.7968 30.5402 39.9476 30.4648 40.1926 30.3517C40.4943 29.2583 40.6451 28.1271 40.6451 26.996V15.2888C40.6451 13.611 40.3246 11.9897 39.6648 10.4438C39.0427 8.95453 38.1378 7.63488 37.0067 6.4849C35.8567 5.33492 34.537 4.44887 33.0477 3.82675C31.5207 3.18578 29.8805 2.84644 28.2027 2.84644H16.7783C15.1005 2.84644 13.4792 3.16692 11.9333 3.82675C10.444 4.44887 9.12437 5.35377 7.97439 6.4849C7.06949 7.4275 6.29654 8.50207 5.69327 9.65205Z" fill="white"/>
</g>
<path d="M26.6568 5.50494C26.6568 5.50494 31.0117 5.25986 34.1788 7.48441C37.346 9.70896 35.555 10.3499 31.4264 8.93603C27.3166 7.52212 22.7921 5.80657 26.6568 5.50494Z" fill="white"/>
<path d="M23.075 5.41023C21.6988 5.31597 20.1152 5.33482 19.9078 6.0512C19.7005 6.76758 22.2643 6.67332 23.2258 6.4471C24.1873 6.22087 23.8668 5.44794 23.075 5.41023Z" fill="white"/>
<path d="M5.50488 12.0089C5.39177 12.3671 5.31638 12.7442 5.24097 13.1023C4.27951 12.4802 3.09182 11.6507 2.14922 10.8778C2.28118 10.4631 2.41314 10.0672 2.56395 9.67126C3.35574 10.3499 4.52457 11.3114 5.50488 12.0089Z" fill="#FFEFA1"/>
<path d="M4.35484 15.289V26.9962C4.35484 28.674 4.67534 30.2953 5.33517 31.8412C5.95729 33.3305 6.86218 34.6502 7.99331 35.8001C9.14329 36.9501 10.4629 37.8362 11.9523 38.4583C13.4793 39.0993 15.1194 39.4386 16.7972 39.4386H28.2405C29.9183 39.4386 31.5396 39.1181 33.0855 38.4583C34.5748 37.8362 35.8944 36.9313 37.0444 35.8001C38.1944 34.6502 39.0804 33.3305 39.7026 31.8412C39.9099 31.351 40.0796 30.8609 40.2116 30.3707C40.5132 29.2773 40.664 28.1462 40.664 27.015V15.3079C40.664 13.63 40.3435 12.0088 39.6837 10.4629C39.0616 8.97356 38.1567 7.65391 37.0256 6.50394C35.8756 5.35396 34.5559 4.46791 33.0666 3.84579C31.5396 3.20482 29.8995 2.86548 28.2216 2.86548H16.7784C15.1006 2.86548 13.4793 3.18597 11.9334 3.84579C10.4441 4.46791 9.12444 5.37281 7.97446 6.50394C7.03186 7.44654 6.27776 8.50226 5.67449 9.67109C5.54253 9.93502 5.42941 10.199 5.3163 10.4629C4.67532 11.971 4.35484 13.6112 4.35484 15.289ZM5.73106 15.289C5.73106 13.2341 6.29661 11.2924 7.27692 9.65224C9.19984 6.40968 12.744 4.24168 16.7784 4.24168H28.2216C34.3297 4.24168 39.269 9.19979 39.269 15.289V26.9962C39.269 27.5618 39.2313 28.1085 39.137 28.6552C38.3452 33.9715 33.7453 38.0624 28.2028 38.0624H16.7784C10.6703 38.0624 5.73106 33.1043 5.73106 27.015V15.289Z" fill="#D58900"/>
<path d="M28.4102 11.0095C28.9381 11.0095 29.4471 11.2169 29.843 11.6128L32.1241 13.8939C32.52 14.2898 32.7274 14.8177 32.7274 15.3267V15.3455C32.7839 15.534 32.8216 15.7414 32.8216 15.9488C32.8216 16.4766 32.6143 16.9857 32.2184 17.3815L27.9201 21.6798L32.1241 25.8839C32.52 26.2797 32.7274 26.8265 32.7274 27.3543C32.9347 28.0518 32.7651 28.8436 32.2184 29.3904L29.9373 31.6715C29.5414 32.0673 29.0135 32.2747 28.5045 32.2747C27.9766 32.2747 27.4676 32.0673 27.0717 31.6715L22.5095 27.1092L17.9473 31.6715C17.5514 32.0673 17.0235 32.2747 16.5145 32.2747C15.9867 32.2747 15.4777 32.0673 15.0818 31.6715L12.8007 29.3904C12.4048 28.9945 12.1974 28.4477 12.1974 27.9199C11.99 27.2224 12.1597 26.4306 12.7064 25.8839L17.0047 21.5856L12.8007 17.3815C12.4048 16.9857 12.1974 16.4389 12.1974 15.9111C11.99 15.2136 12.1597 14.4218 12.7064 13.8751L14.9875 11.5939C15.3834 11.198 15.9113 10.9907 16.4203 10.9907C16.9481 10.9907 17.4571 11.198 17.853 11.5939L22.4153 16.1562L26.9775 11.5939C27.3734 11.2169 27.9012 11.0095 28.4102 11.0095ZM28.4102 8.80383C27.2791 8.80383 26.2045 9.23743 25.4128 10.0481L22.4153 13.0456L19.4178 10.0481C18.6071 9.23743 17.5514 8.80383 16.4203 8.80383C15.2891 8.80383 14.2146 9.23743 13.4228 10.0481L11.1417 12.3292C10.1048 13.366 9.69007 14.8365 9.99171 16.2504C10.0671 17.2684 10.4819 18.2299 11.2171 18.9651L13.8564 21.6044L11.1228 24.338C10.086 25.3748 9.67123 26.8453 9.97286 28.2592C10.0483 29.2772 10.463 30.2387 11.1982 30.9739L13.4794 33.255C14.29 34.0657 15.3457 34.4993 16.4768 34.4993C17.608 34.4993 18.6825 34.0657 19.4743 33.255L22.4718 30.2575L25.4693 33.255C26.2799 34.0657 27.3357 34.4993 28.4668 34.4993C29.5979 34.4993 30.6725 34.0657 31.4643 33.255L33.7454 30.9739C34.7822 29.9371 35.197 28.4666 34.8954 27.0527C34.8199 26.0347 34.4052 25.0732 33.67 24.338L31.0307 21.6987L33.7642 18.9651C34.5749 18.1545 35.0085 17.0988 35.0085 15.9676C35.0085 15.666 34.9708 15.3644 34.9142 15.0627C34.8388 14.0447 34.424 13.0833 33.6888 12.348L31.4077 10.0669C30.6159 9.23743 29.5413 8.80383 28.4102 8.80383Z" fill="white"/>
<path d="M12.8006 26.5063L27.0716 12.2352C27.8634 11.4434 29.1454 11.4434 29.9372 12.2352L32.2183 14.5163C32.6142 14.9122 32.8215 15.4401 32.8215 15.9491C32.8215 16.4769 32.6142 16.9859 32.2183 17.3818L17.9472 31.6529C17.1554 32.4447 15.8735 32.4447 15.0817 31.6529L12.8006 29.3718C12.0088 28.5988 12.0088 27.298 12.8006 26.5063Z" fill="#A86700"/>
<path d="M27.0716 31.6716L12.8006 17.4005C12.0088 16.6087 12.0088 15.3268 12.8006 14.535L15.0817 12.2539C15.4775 11.858 16.0054 11.6506 16.5144 11.6506C17.0423 11.6506 17.5513 11.858 17.9472 12.2539L32.2182 26.525C33.01 27.3167 33.01 28.5987 32.2182 29.3905L29.9371 31.6716C29.1453 32.4634 27.8634 32.4634 27.0716 31.6716Z" fill="#A86700"/>
<path d="M12.7068 25.8831L26.9778 11.612C27.7696 10.8202 29.0516 10.8202 29.8434 11.612L32.1245 13.8931C32.5204 14.289 32.7277 14.8169 32.7277 15.3259C32.7277 15.8538 32.5204 16.3628 32.1245 16.7587L17.8534 31.0297C17.0616 31.8215 15.7797 31.8215 14.9879 31.0297L12.7068 28.7486C11.915 27.9568 11.915 26.6749 12.7068 25.8831Z" fill="#D58900"/>
<path d="M26.9776 31.0493L12.7065 16.7782C11.9147 15.9864 11.9147 14.7045 12.7065 13.9127L14.9876 11.6316C15.3835 11.2357 15.9114 11.0283 16.4204 11.0283C16.9482 11.0283 17.4572 11.2357 17.8531 11.6316L32.1242 25.9026C32.916 26.6944 32.916 27.9764 32.1242 28.7682L29.8431 31.0493C29.0702 31.8411 27.7693 31.8411 26.9776 31.0493Z" fill="#D58900"/>
</svg>
