<svg width="245" height="56" viewBox="0 0 245 56" fill="none" xmlns="http://www.w3.org/2000/svg">
<rect width="245" height="56" rx="28" fill="url(#paint0_linear_619_13036)"/>
<path d="M11.375 17.7108C12.37 11.7895 15.8812 9.5609 18.8004 9" stroke="white" stroke-width="3" stroke-linecap="round"/>
<path d="M97.195 23.012C97.507 23.168 97.687 23.414 97.735 23.75C97.795 24.086 97.711 24.392 97.483 24.668C97.327 24.884 97.123 25.004 96.871 25.028C96.631 25.052 96.385 25.004 96.133 24.884C95.845 24.752 95.539 24.65 95.215 24.578C94.903 24.506 94.573 24.47 94.225 24.47C93.577 24.47 92.995 24.572 92.479 24.776C91.975 24.98 91.543 25.274 91.183 25.658C90.823 26.03 90.547 26.474 90.355 26.99C90.175 27.506 90.085 28.076 90.085 28.7C90.085 29.432 90.187 30.068 90.391 30.608C90.607 31.148 90.901 31.598 91.273 31.958C91.645 32.318 92.083 32.588 92.587 32.768C93.091 32.936 93.637 33.02 94.225 33.02C94.549 33.02 94.873 32.99 95.197 32.93C95.521 32.87 95.833 32.762 96.133 32.606C96.385 32.486 96.631 32.444 96.871 32.48C97.123 32.516 97.333 32.642 97.501 32.858C97.741 33.158 97.825 33.47 97.753 33.794C97.693 34.106 97.513 34.334 97.213 34.478C96.901 34.634 96.577 34.766 96.241 34.874C95.917 34.97 95.587 35.042 95.251 35.09C94.915 35.15 94.573 35.18 94.225 35.18C93.361 35.18 92.539 35.042 91.759 34.766C90.991 34.49 90.301 34.082 89.689 33.542C89.089 33.002 88.615 32.33 88.267 31.526C87.919 30.71 87.745 29.768 87.745 28.7C87.745 27.776 87.901 26.924 88.213 26.144C88.537 25.364 88.987 24.692 89.563 24.128C90.151 23.552 90.841 23.108 91.633 22.796C92.425 22.472 93.289 22.31 94.225 22.31C94.753 22.31 95.269 22.37 95.773 22.49C96.277 22.61 96.751 22.784 97.195 23.012ZM108.462 30.194C108.462 31.178 108.24 32.048 107.796 32.804C107.364 33.548 106.776 34.13 106.032 34.55C105.3 34.97 104.478 35.18 103.566 35.18C102.654 35.18 101.826 34.97 101.082 34.55C100.35 34.13 99.7622 33.548 99.3182 32.804C98.8862 32.048 98.6702 31.178 98.6702 30.194C98.6702 29.21 98.8862 28.346 99.3182 27.602C99.7622 26.846 100.35 26.258 101.082 25.838C101.826 25.406 102.654 25.19 103.566 25.19C104.478 25.19 105.3 25.406 106.032 25.838C106.776 26.258 107.364 26.846 107.796 27.602C108.24 28.346 108.462 29.21 108.462 30.194ZM106.302 30.194C106.302 29.582 106.176 29.054 105.924 28.61C105.684 28.154 105.354 27.8 104.934 27.548C104.526 27.296 104.07 27.17 103.566 27.17C103.062 27.17 102.6 27.296 102.18 27.548C101.772 27.8 101.442 28.154 101.19 28.61C100.95 29.054 100.83 29.582 100.83 30.194C100.83 30.794 100.95 31.322 101.19 31.778C101.442 32.222 101.772 32.57 102.18 32.822C102.6 33.074 103.062 33.2 103.566 33.2C104.07 33.2 104.526 33.074 104.934 32.822C105.354 32.57 105.684 32.222 105.924 31.778C106.176 31.322 106.302 30.794 106.302 30.194ZM115.141 25.19C116.029 25.19 116.701 25.376 117.157 25.748C117.625 26.12 117.943 26.618 118.111 27.242C118.291 27.854 118.381 28.538 118.381 29.294L118.381 33.902C118.381 34.214 118.279 34.478 118.075 34.694C117.871 34.898 117.613 35 117.301 35C116.989 35 116.731 34.898 116.527 34.694C116.323 34.478 116.221 34.214 116.221 33.902L116.221 29.294C116.221 28.898 116.167 28.544 116.059 28.232C115.963 27.908 115.783 27.65 115.519 27.458C115.255 27.266 114.877 27.17 114.385 27.17C113.905 27.17 113.497 27.266 113.161 27.458C112.837 27.65 112.585 27.908 112.405 28.232C112.237 28.544 112.153 28.898 112.153 29.294L112.153 33.902C112.153 34.214 112.051 34.478 111.847 34.694C111.643 34.898 111.385 35 111.073 35C110.761 35 110.503 34.898 110.299 34.694C110.095 34.478 109.993 34.214 109.993 33.902L109.993 26.468C109.993 26.156 110.095 25.898 110.299 25.694C110.503 25.478 110.761 25.37 111.073 25.37C111.385 25.37 111.643 25.478 111.847 25.694C112.051 25.898 112.153 26.156 112.153 26.468L112.153 27.242L111.883 27.188C111.991 26.984 112.147 26.768 112.351 26.54C112.555 26.3 112.795 26.078 113.071 25.874C113.347 25.67 113.659 25.508 114.007 25.388C114.355 25.256 114.733 25.19 115.141 25.19ZM125.305 21.68C125.569 21.68 125.827 21.716 126.079 21.788C126.331 21.86 126.541 21.98 126.709 22.148C126.877 22.304 126.961 22.514 126.961 22.778C126.961 23.078 126.871 23.318 126.691 23.498C126.523 23.666 126.325 23.75 126.097 23.75C125.989 23.75 125.827 23.726 125.611 23.678C125.395 23.618 125.185 23.588 124.981 23.588C124.681 23.588 124.447 23.654 124.279 23.786C124.123 23.918 124.015 24.074 123.955 24.254C123.895 24.422 123.865 24.572 123.865 24.704L123.865 33.902C123.865 34.214 123.763 34.478 123.559 34.694C123.355 34.898 123.097 35 122.785 35C122.473 35 122.215 34.898 122.011 34.694C121.807 34.478 121.705 34.214 121.705 33.902L121.705 24.722C121.705 23.87 122.005 23.15 122.605 22.562C123.205 21.974 124.105 21.68 125.305 21.68ZM125.503 25.55C125.791 25.55 126.031 25.646 126.223 25.838C126.415 26.018 126.511 26.252 126.511 26.54C126.511 26.828 126.415 27.068 126.223 27.26C126.031 27.44 125.791 27.53 125.503 27.53L120.733 27.53C120.445 27.53 120.205 27.44 120.013 27.26C119.821 27.068 119.725 26.828 119.725 26.54C119.725 26.252 119.821 26.018 120.013 25.838C120.205 25.646 120.445 25.55 120.733 25.55L125.503 25.55ZM130.255 33.902C130.255 34.214 130.153 34.478 129.949 34.694C129.745 34.898 129.487 35 129.175 35C128.863 35 128.605 34.898 128.401 34.694C128.197 34.478 128.095 34.214 128.095 33.902L128.095 26.468C128.095 26.156 128.197 25.898 128.401 25.694C128.605 25.478 128.863 25.37 129.175 25.37C129.487 25.37 129.745 25.478 129.949 25.694C130.153 25.898 130.255 26.156 130.255 26.468L130.255 33.902ZM129.157 24.2C128.749 24.2 128.461 24.134 128.293 24.002C128.125 23.87 128.041 23.636 128.041 23.3L128.041 22.958C128.041 22.61 128.131 22.376 128.311 22.256C128.503 22.124 128.791 22.058 129.175 22.058C129.595 22.058 129.889 22.124 130.057 22.256C130.225 22.388 130.309 22.622 130.309 22.958L130.309 23.3C130.309 23.648 130.219 23.888 130.039 24.02C129.859 24.14 129.565 24.2 129.157 24.2ZM133.187 35C132.875 35 132.617 34.898 132.413 34.694C132.209 34.478 132.107 34.214 132.107 33.902L132.107 26.468C132.107 26.156 132.209 25.898 132.413 25.694C132.617 25.478 132.875 25.37 133.187 25.37C133.499 25.37 133.757 25.478 133.961 25.694C134.165 25.898 134.267 26.156 134.267 26.468L134.267 28.16L134.141 26.954C134.273 26.666 134.441 26.414 134.645 26.198C134.861 25.97 135.101 25.784 135.365 25.64C135.629 25.484 135.911 25.37 136.211 25.298C136.511 25.226 136.811 25.19 137.111 25.19C137.471 25.19 137.771 25.292 138.011 25.496C138.263 25.7 138.389 25.94 138.389 26.216C138.389 26.612 138.287 26.9 138.083 27.08C137.879 27.248 137.657 27.332 137.417 27.332C137.189 27.332 136.979 27.29 136.787 27.206C136.607 27.122 136.397 27.08 136.157 27.08C135.941 27.08 135.719 27.134 135.491 27.242C135.275 27.338 135.071 27.494 134.879 27.71C134.699 27.926 134.549 28.196 134.429 28.52C134.321 28.832 134.267 29.204 134.267 29.636L134.267 33.902C134.267 34.214 134.165 34.478 133.961 34.694C133.757 34.898 133.499 35 133.187 35ZM144.609 25.19C145.569 25.19 146.277 25.424 146.733 25.892C147.189 26.348 147.489 26.942 147.633 27.674L147.327 27.512L147.471 27.224C147.615 26.948 147.837 26.654 148.137 26.342C148.437 26.018 148.797 25.748 149.217 25.532C149.649 25.304 150.129 25.19 150.657 25.19C151.521 25.19 152.175 25.376 152.619 25.748C153.075 26.12 153.387 26.618 153.555 27.242C153.723 27.854 153.807 28.538 153.807 29.294L153.807 33.902C153.807 34.214 153.705 34.478 153.501 34.694C153.297 34.898 153.039 35 152.727 35C152.415 35 152.157 34.898 151.953 34.694C151.749 34.478 151.647 34.214 151.647 33.902L151.647 29.294C151.647 28.898 151.599 28.544 151.503 28.232C151.407 27.908 151.233 27.65 150.981 27.458C150.729 27.266 150.369 27.17 149.901 27.17C149.445 27.17 149.055 27.266 148.731 27.458C148.407 27.65 148.161 27.908 147.993 28.232C147.837 28.544 147.759 28.898 147.759 29.294L147.759 33.902C147.759 34.214 147.657 34.478 147.453 34.694C147.249 34.898 146.991 35 146.679 35C146.367 35 146.109 34.898 145.905 34.694C145.701 34.478 145.599 34.214 145.599 33.902L145.599 29.294C145.599 28.898 145.551 28.544 145.455 28.232C145.359 27.908 145.185 27.65 144.933 27.458C144.681 27.266 144.321 27.17 143.853 27.17C143.397 27.17 143.007 27.266 142.683 27.458C142.359 27.65 142.113 27.908 141.945 28.232C141.789 28.544 141.711 28.898 141.711 29.294L141.711 33.902C141.711 34.214 141.609 34.478 141.405 34.694C141.201 34.898 140.943 35 140.631 35C140.319 35 140.061 34.898 139.857 34.694C139.653 34.478 139.551 34.214 139.551 33.902L139.551 26.468C139.551 26.156 139.653 25.898 139.857 25.694C140.061 25.478 140.319 25.37 140.631 25.37C140.943 25.37 141.201 25.478 141.405 25.694C141.609 25.898 141.711 26.156 141.711 26.468L141.711 27.242L141.441 27.188C141.549 26.984 141.699 26.768 141.891 26.54C142.083 26.3 142.317 26.078 142.593 25.874C142.869 25.67 143.175 25.508 143.511 25.388C143.847 25.256 144.213 25.19 144.609 25.19Z" fill="#23003D"/>
<defs>
<linearGradient id="paint0_linear_619_13036" x1="122.5" y1="0" x2="122.5" y2="56" gradientUnits="userSpaceOnUse">
<stop stop-color="#FFE486"/>
<stop offset="0.515625" stop-color="#FFCC4E"/>
<stop offset="1" stop-color="#FFD02B"/>
<stop offset="1" stop-color="#D2A61B"/>
</linearGradient>
</defs>
</svg>
