<svg width="297" height="44" viewBox="0 0 297 44" fill="none" xmlns="http://www.w3.org/2000/svg">
<rect width="297" height="44" rx="22" fill="url(#paint0_linear_619_9674)"/>
<path d="M18.4576 15.9067C18.325 16.1179 18.4115 16.3882 18.6236 16.5195L27.4735 21.998C27.796 22.1977 28.2037 22.1977 28.5262 21.998L37.3764 16.5194C37.5884 16.3881 37.675 16.1178 37.5423 15.9066C37.0117 15.0617 36.0714 14.5 35 14.5H21C19.9285 14.5 18.9883 15.0617 18.4576 15.9067Z" fill="#D58900"/>
<path d="M38 19.3831C38 18.9914 37.5699 18.7518 37.2368 18.958L29.579 23.6986C28.6114 24.2975 27.3883 24.2975 26.4208 23.6986L18.7632 18.9581C18.4301 18.7519 18 18.9915 18 19.3833V27.5C18 29.1569 19.3431 30.5 21 30.5H35C36.6569 30.5 38 29.1569 38 27.5V19.3831Z" fill="#D58900"/>
<path d="M61.04 18.344C61.3173 18.4827 61.4773 18.7013 61.52 19C61.5733 19.2987 61.4987 19.5707 61.296 19.816C61.1573 20.008 60.976 20.1147 60.752 20.136C60.5387 20.1573 60.32 20.1147 60.096 20.008C59.84 19.8907 59.568 19.8 59.28 19.736C59.0027 19.672 58.7093 19.64 58.4 19.64C57.824 19.64 57.3067 19.7307 56.848 19.912C56.4 20.0933 56.016 20.3547 55.696 20.696C55.376 21.0267 55.1307 21.4213 54.96 21.88C54.8 22.3387 54.72 22.8453 54.72 23.4C54.72 24.0507 54.8107 24.616 54.992 25.096C55.184 25.576 55.4453 25.976 55.776 26.296C56.1067 26.616 56.496 26.856 56.944 27.016C57.392 27.1653 57.8773 27.24 58.4 27.24C58.688 27.24 58.976 27.2133 59.264 27.16C59.552 27.1067 59.8293 27.0107 60.096 26.872C60.32 26.7653 60.5387 26.728 60.752 26.76C60.976 26.792 61.1627 26.904 61.312 27.096C61.5253 27.3627 61.6 27.64 61.536 27.928C61.4827 28.2053 61.3227 28.408 61.056 28.536C60.7787 28.6747 60.4907 28.792 60.192 28.888C59.904 28.9733 59.6107 29.0373 59.312 29.08C59.0133 29.1333 58.7093 29.16 58.4 29.16C57.632 29.16 56.9013 29.0373 56.208 28.792C55.5253 28.5467 54.912 28.184 54.368 27.704C53.8347 27.224 53.4133 26.6267 53.104 25.912C52.7947 25.1867 52.64 24.3493 52.64 23.4C52.64 22.5787 52.7787 21.8213 53.056 21.128C53.344 20.4347 53.744 19.8373 54.256 19.336C54.7787 18.824 55.392 18.4293 56.096 18.152C56.8 17.864 57.568 17.72 58.4 17.72C58.8693 17.72 59.328 17.7733 59.776 17.88C60.224 17.9867 60.6453 18.1413 61.04 18.344ZM71.0553 24.728C71.0553 25.6027 70.8579 26.376 70.4633 27.048C70.0793 27.7093 69.5566 28.2267 68.8953 28.6C68.2446 28.9733 67.5139 29.16 66.7033 29.16C65.8926 29.16 65.1566 28.9733 64.4953 28.6C63.8446 28.2267 63.3219 27.7093 62.9273 27.048C62.5433 26.376 62.3513 25.6027 62.3513 24.728C62.3513 23.8533 62.5433 23.0853 62.9273 22.424C63.3219 21.752 63.8446 21.2293 64.4953 20.856C65.1566 20.472 65.8926 20.28 66.7033 20.28C67.5139 20.28 68.2446 20.472 68.8953 20.856C69.5566 21.2293 70.0793 21.752 70.4633 22.424C70.8579 23.0853 71.0553 23.8533 71.0553 24.728ZM69.1353 24.728C69.1353 24.184 69.0233 23.7147 68.7993 23.32C68.5859 22.9147 68.2926 22.6 67.9193 22.376C67.5566 22.152 67.1513 22.04 66.7033 22.04C66.2553 22.04 65.8446 22.152 65.4713 22.376C65.1086 22.6 64.8153 22.9147 64.5913 23.32C64.3779 23.7147 64.2713 24.184 64.2713 24.728C64.2713 25.2613 64.3779 25.7307 64.5913 26.136C64.8153 26.5307 65.1086 26.84 65.4713 27.064C65.8446 27.288 66.2553 27.4 66.7033 27.4C67.1513 27.4 67.5566 27.288 67.9193 27.064C68.2926 26.84 68.5859 26.5307 68.7993 26.136C69.0233 25.7307 69.1353 25.2613 69.1353 24.728ZM76.9916 20.28C77.781 20.28 78.3783 20.4453 78.7836 20.776C79.1996 21.1067 79.4823 21.5493 79.6316 22.104C79.7916 22.648 79.8716 23.256 79.8716 23.928V28.024C79.8716 28.3013 79.781 28.536 79.5996 28.728C79.4183 28.9093 79.189 29 78.9116 29C78.6343 29 78.405 28.9093 78.2236 28.728C78.0423 28.536 77.9516 28.3013 77.9516 28.024V23.928C77.9516 23.576 77.9036 23.2613 77.8076 22.984C77.7223 22.696 77.5623 22.4667 77.3276 22.296C77.093 22.1253 76.757 22.04 76.3196 22.04C75.893 22.04 75.5303 22.1253 75.2316 22.296C74.9436 22.4667 74.7196 22.696 74.5596 22.984C74.4103 23.2613 74.3356 23.576 74.3356 23.928V28.024C74.3356 28.3013 74.245 28.536 74.0636 28.728C73.8823 28.9093 73.653 29 73.3756 29C73.0983 29 72.869 28.9093 72.6876 28.728C72.5063 28.536 72.4156 28.3013 72.4156 28.024V21.416C72.4156 21.1387 72.5063 20.9093 72.6876 20.728C72.869 20.536 73.0983 20.44 73.3756 20.44C73.653 20.44 73.8823 20.536 74.0636 20.728C74.245 20.9093 74.3356 21.1387 74.3356 21.416V22.104L74.0956 22.056C74.1916 21.8747 74.3303 21.6827 74.5116 21.48C74.693 21.2667 74.9063 21.0693 75.1516 20.888C75.397 20.7067 75.6743 20.5627 75.9836 20.456C76.293 20.3387 76.629 20.28 76.9916 20.28ZM81.7229 20.6H85.5149C85.7709 20.6 85.9842 20.6853 86.1549 20.856C86.3255 21.0267 86.4109 21.24 86.4109 21.496C86.4109 21.7413 86.3255 21.9493 86.1549 22.12C85.9842 22.28 85.7709 22.36 85.5149 22.36H81.7229C81.4669 22.36 81.2535 22.2747 81.0829 22.104C80.9122 21.9333 80.8269 21.72 80.8269 21.464C80.8269 21.2187 80.9122 21.016 81.0829 20.856C81.2535 20.6853 81.4669 20.6 81.7229 20.6ZM83.4349 18.6C83.7122 18.6 83.9362 18.696 84.1069 18.888C84.2882 19.0693 84.3789 19.2987 84.3789 19.576V26.696C84.3789 26.8453 84.4055 26.968 84.4589 27.064C84.5229 27.16 84.6029 27.2293 84.6989 27.272C84.8055 27.3147 84.9175 27.336 85.0349 27.336C85.1629 27.336 85.2802 27.3147 85.3869 27.272C85.4935 27.2187 85.6162 27.192 85.7549 27.192C85.9042 27.192 86.0375 27.2613 86.1549 27.4C86.2829 27.5387 86.3469 27.7307 86.3469 27.976C86.3469 28.2747 86.1815 28.52 85.8509 28.712C85.5309 28.904 85.1842 29 84.8109 29C84.5869 29 84.3362 28.984 84.0589 28.952C83.7922 28.9093 83.5362 28.8187 83.2909 28.68C83.0562 28.5307 82.8589 28.3067 82.6989 28.008C82.5389 27.7093 82.4589 27.2987 82.4589 26.776V19.576C82.4589 19.2987 82.5495 19.0693 82.7309 18.888C82.9229 18.696 83.1575 18.6 83.4349 18.6ZM94.8618 20.28C95.1391 20.28 95.3684 20.3707 95.5498 20.552C95.7311 20.7333 95.8218 20.968 95.8218 21.256V28.024C95.8218 28.3013 95.7311 28.536 95.5498 28.728C95.3684 28.9093 95.1391 29 94.8618 29C94.5844 29 94.3551 28.9093 94.1738 28.728C93.9924 28.536 93.9018 28.3013 93.9018 28.024V27.24L94.2538 27.384C94.2538 27.5227 94.1791 27.6933 94.0298 27.896C93.8804 28.088 93.6778 28.28 93.4218 28.472C93.1658 28.664 92.8618 28.8293 92.5098 28.968C92.1684 29.096 91.7951 29.16 91.3898 29.16C90.6538 29.16 89.9871 28.9733 89.3898 28.6C88.7924 28.216 88.3178 27.6933 87.9658 27.032C87.6244 26.36 87.4538 25.592 87.4538 24.728C87.4538 23.8533 87.6244 23.0853 87.9658 22.424C88.3178 21.752 88.7871 21.2293 89.3738 20.856C89.9604 20.472 90.6111 20.28 91.3258 20.28C91.7844 20.28 92.2058 20.3493 92.5898 20.488C92.9738 20.6267 93.3044 20.8027 93.5818 21.016C93.8698 21.2293 94.0884 21.448 94.2378 21.672C94.3978 21.8853 94.4778 22.0667 94.4778 22.216L93.9018 22.424V21.256C93.9018 20.9787 93.9924 20.7493 94.1738 20.568C94.3551 20.376 94.5844 20.28 94.8618 20.28ZM91.6298 27.4C92.0991 27.4 92.5098 27.2827 92.8618 27.048C93.2138 26.8133 93.4858 26.4933 93.6778 26.088C93.8804 25.6827 93.9818 25.2293 93.9818 24.728C93.9818 24.216 93.8804 23.7573 93.6778 23.352C93.4858 22.9467 93.2138 22.6267 92.8618 22.392C92.5098 22.1573 92.0991 22.04 91.6298 22.04C91.1711 22.04 90.7658 22.1573 90.4138 22.392C90.0618 22.6267 89.7844 22.9467 89.5818 23.352C89.3898 23.7573 89.2938 24.216 89.2938 24.728C89.2938 25.2293 89.3898 25.6827 89.5818 26.088C89.7844 26.4933 90.0618 26.8133 90.4138 27.048C90.7658 27.2827 91.1711 27.4 91.6298 27.4ZM101.389 20.28C101.997 20.28 102.525 20.344 102.973 20.472C103.431 20.6 103.783 20.7813 104.029 21.016C104.285 21.24 104.413 21.512 104.413 21.832C104.413 22.0453 104.349 22.248 104.221 22.44C104.093 22.6213 103.906 22.712 103.661 22.712C103.49 22.712 103.346 22.6907 103.229 22.648C103.122 22.5947 103.026 22.5307 102.941 22.456C102.855 22.3813 102.754 22.312 102.637 22.248C102.53 22.184 102.365 22.136 102.141 22.104C101.927 22.0613 101.767 22.04 101.661 22.04C101.117 22.04 100.653 22.1573 100.269 22.392C99.8953 22.6267 99.6073 22.9467 99.4046 23.352C99.202 23.7467 99.1006 24.2053 99.1006 24.728C99.1006 25.24 99.202 25.6987 99.4046 26.104C99.618 26.4987 99.906 26.8133 100.269 27.048C100.642 27.2827 101.069 27.4 101.549 27.4C101.815 27.4 102.045 27.384 102.237 27.352C102.429 27.32 102.589 27.272 102.717 27.208C102.866 27.1227 102.999 27.032 103.117 26.936C103.234 26.84 103.41 26.792 103.645 26.792C103.922 26.792 104.135 26.8827 104.285 27.064C104.434 27.2347 104.509 27.448 104.509 27.704C104.509 27.9707 104.359 28.216 104.061 28.44C103.762 28.6533 103.367 28.8293 102.877 28.968C102.397 29.096 101.874 29.16 101.309 29.16C100.466 29.16 99.7353 28.968 99.1166 28.584C98.498 28.1893 98.018 27.656 97.6766 26.984C97.346 26.312 97.1806 25.56 97.1806 24.728C97.1806 23.8533 97.3566 23.0853 97.7086 22.424C98.0713 21.752 98.5673 21.2293 99.1966 20.856C99.8366 20.472 100.567 20.28 101.389 20.28ZM105.669 20.6H109.461C109.717 20.6 109.93 20.6853 110.101 20.856C110.272 21.0267 110.357 21.24 110.357 21.496C110.357 21.7413 110.272 21.9493 110.101 22.12C109.93 22.28 109.717 22.36 109.461 22.36H105.669C105.413 22.36 105.2 22.2747 105.029 22.104C104.858 21.9333 104.773 21.72 104.773 21.464C104.773 21.2187 104.858 21.016 105.029 20.856C105.2 20.6853 105.413 20.6 105.669 20.6ZM107.381 18.6C107.658 18.6 107.882 18.696 108.053 18.888C108.234 19.0693 108.325 19.2987 108.325 19.576V26.696C108.325 26.8453 108.352 26.968 108.405 27.064C108.469 27.16 108.549 27.2293 108.645 27.272C108.752 27.3147 108.864 27.336 108.981 27.336C109.109 27.336 109.226 27.3147 109.333 27.272C109.44 27.2187 109.562 27.192 109.701 27.192C109.85 27.192 109.984 27.2613 110.101 27.4C110.229 27.5387 110.293 27.7307 110.293 27.976C110.293 28.2747 110.128 28.52 109.797 28.712C109.477 28.904 109.13 29 108.757 29C108.533 29 108.282 28.984 108.005 28.952C107.738 28.9093 107.482 28.8187 107.237 28.68C107.002 28.5307 106.805 28.3067 106.645 28.008C106.485 27.7093 106.405 27.2987 106.405 26.776V19.576C106.405 19.2987 106.496 19.0693 106.677 18.888C106.869 18.696 107.104 18.6 107.381 18.6ZM124.076 17.784C124.354 17.784 124.578 17.88 124.748 18.072C124.919 18.2533 125.004 18.4827 125.004 18.76V24.552C125.004 25.4373 124.812 26.2213 124.428 26.904C124.055 27.5867 123.538 28.12 122.876 28.504C122.215 28.888 121.447 29.08 120.572 29.08C119.698 29.08 118.924 28.888 118.252 28.504C117.591 28.12 117.068 27.5867 116.684 26.904C116.311 26.2213 116.124 25.4373 116.124 24.552V18.76C116.124 18.4827 116.22 18.2533 116.412 18.072C116.604 17.88 116.85 17.784 117.148 17.784C117.394 17.784 117.612 17.88 117.804 18.072C118.007 18.2533 118.108 18.4827 118.108 18.76V24.552C118.108 25.0853 118.22 25.5493 118.444 25.944C118.679 26.328 118.983 26.6267 119.356 26.84C119.74 27.0533 120.146 27.16 120.572 27.16C121.031 27.16 121.458 27.0533 121.852 26.84C122.247 26.6267 122.567 26.328 122.812 25.944C123.058 25.5493 123.18 25.0853 123.18 24.552V18.76C123.18 18.4827 123.26 18.2533 123.42 18.072C123.58 17.88 123.799 17.784 124.076 17.784ZM126.43 27.672C126.323 27.5227 126.275 27.3307 126.286 27.096C126.296 26.8613 126.435 26.6587 126.702 26.488C126.872 26.3813 127.054 26.3387 127.246 26.36C127.438 26.3707 127.624 26.4667 127.806 26.648C128.115 26.9573 128.44 27.1973 128.782 27.368C129.123 27.5387 129.55 27.624 130.062 27.624C130.222 27.6133 130.398 27.592 130.59 27.56C130.782 27.5173 130.947 27.432 131.086 27.304C131.235 27.1653 131.31 26.9573 131.31 26.68C131.31 26.4453 131.23 26.2587 131.07 26.12C130.91 25.9813 130.696 25.864 130.43 25.768C130.174 25.672 129.886 25.5813 129.566 25.496C129.235 25.4 128.894 25.2933 128.542 25.176C128.2 25.0587 127.886 24.9093 127.598 24.728C127.31 24.536 127.075 24.2853 126.894 23.976C126.712 23.6667 126.622 23.2773 126.622 22.808C126.622 22.2747 126.771 21.8213 127.07 21.448C127.368 21.0747 127.752 20.7867 128.222 20.584C128.702 20.3813 129.203 20.28 129.726 20.28C130.056 20.28 130.403 20.3227 130.766 20.408C131.128 20.4827 131.475 20.6107 131.806 20.792C132.136 20.9627 132.414 21.192 132.638 21.48C132.755 21.64 132.824 21.832 132.846 22.056C132.867 22.28 132.766 22.4827 132.542 22.664C132.382 22.792 132.195 22.8507 131.982 22.84C131.768 22.8187 131.592 22.744 131.454 22.616C131.272 22.3813 131.027 22.1947 130.718 22.056C130.419 21.9173 130.072 21.848 129.678 21.848C129.518 21.848 129.342 21.8693 129.15 21.912C128.968 21.944 128.808 22.024 128.67 22.152C128.531 22.2693 128.462 22.4613 128.462 22.728C128.462 22.9733 128.542 23.1707 128.702 23.32C128.862 23.4587 129.075 23.576 129.342 23.672C129.619 23.7573 129.912 23.8427 130.222 23.928C130.542 24.0133 130.867 24.1147 131.198 24.232C131.528 24.3493 131.832 24.504 132.11 24.696C132.387 24.888 132.611 25.1387 132.782 25.448C132.952 25.7467 133.038 26.1307 133.038 26.6C133.038 27.144 132.878 27.608 132.558 27.992C132.238 28.376 131.838 28.6693 131.358 28.872C130.878 29.064 130.387 29.16 129.886 29.16C129.256 29.16 128.627 29.0533 127.998 28.84C127.368 28.616 126.846 28.2267 126.43 27.672Z" fill="#23003D"/>
<path d="M275.91 30.42L282.43 23.9C283.2 23.13 283.2 21.87 282.43 21.1L275.91 14.58" stroke="#D58900" stroke-width="2" stroke-miterlimit="10" stroke-linecap="round" stroke-linejoin="round"/>
<defs>
<linearGradient id="paint0_linear_619_9674" x1="148.5" y1="0" x2="148.5" y2="44" gradientUnits="userSpaceOnUse">
<stop stop-color="#FFE384"/>
<stop offset="1" stop-color="#FFCF35"/>
</linearGradient>
</defs>
</svg>
