<svg width="297" height="86" viewBox="0 0 297 86" fill="none" xmlns="http://www.w3.org/2000/svg">
<rect width="297" height="86" rx="20" fill="url(#paint0_linear_619_12844)"/>
<path d="M77.04 27.344C77.3173 27.4827 77.4773 27.7013 77.52 28C77.5733 28.2987 77.4987 28.5707 77.296 28.816C77.1573 29.008 76.976 29.1147 76.752 29.136C76.5387 29.1573 76.32 29.1147 76.096 29.008C75.84 28.8907 75.568 28.8 75.28 28.736C75.0027 28.672 74.7093 28.64 74.4 28.64C73.824 28.64 73.3067 28.7307 72.848 28.912C72.4 29.0933 72.016 29.3547 71.696 29.696C71.376 30.0267 71.1307 30.4213 70.96 30.88C70.8 31.3387 70.72 31.8453 70.72 32.4C70.72 33.0507 70.8107 33.616 70.992 34.096C71.184 34.576 71.4453 34.976 71.776 35.296C72.1067 35.616 72.496 35.856 72.944 36.016C73.392 36.1653 73.8773 36.24 74.4 36.24C74.688 36.24 74.976 36.2133 75.264 36.16C75.552 36.1067 75.8293 36.0107 76.096 35.872C76.32 35.7653 76.5387 35.728 76.752 35.76C76.976 35.792 77.1627 35.904 77.312 36.096C77.5253 36.3627 77.6 36.64 77.536 36.928C77.4827 37.2053 77.3227 37.408 77.056 37.536C76.7787 37.6747 76.4907 37.792 76.192 37.888C75.904 37.9733 75.6107 38.0373 75.312 38.08C75.0133 38.1333 74.7093 38.16 74.4 38.16C73.632 38.16 72.9013 38.0373 72.208 37.792C71.5253 37.5467 70.912 37.184 70.368 36.704C69.8347 36.224 69.4133 35.6267 69.104 34.912C68.7947 34.1867 68.64 33.3493 68.64 32.4C68.64 31.5787 68.7787 30.8213 69.056 30.128C69.344 29.4347 69.744 28.8373 70.256 28.336C70.7787 27.824 71.392 27.4293 72.096 27.152C72.8 26.864 73.568 26.72 74.4 26.72C74.8693 26.72 75.328 26.7733 75.776 26.88C76.224 26.9867 76.6453 27.1413 77.04 27.344ZM79.7113 38C79.4339 38 79.2046 37.9093 79.0233 37.728C78.8419 37.536 78.7513 37.3013 78.7513 37.024V30.416C78.7513 30.1387 78.8419 29.9093 79.0233 29.728C79.2046 29.536 79.4339 29.44 79.7113 29.44C79.9886 29.44 80.2179 29.536 80.3993 29.728C80.5806 29.9093 80.6713 30.1387 80.6713 30.416V31.92L80.5593 30.848C80.6766 30.592 80.8259 30.368 81.0073 30.176C81.1993 29.9733 81.4126 29.808 81.6473 29.68C81.8819 29.5413 82.1326 29.44 82.3993 29.376C82.6659 29.312 82.9326 29.28 83.1993 29.28C83.5193 29.28 83.7859 29.3707 83.9993 29.552C84.2233 29.7333 84.3353 29.9467 84.3353 30.192C84.3353 30.544 84.2446 30.8 84.0633 30.96C83.8819 31.1093 83.6846 31.184 83.4713 31.184C83.2686 31.184 83.0819 31.1467 82.9113 31.072C82.7513 30.9973 82.5646 30.96 82.3513 30.96C82.1593 30.96 81.9619 31.008 81.7593 31.104C81.5673 31.1893 81.3859 31.328 81.2153 31.52C81.0553 31.712 80.9219 31.952 80.8153 32.24C80.7193 32.5173 80.6713 32.848 80.6713 33.232V37.024C80.6713 37.3013 80.5806 37.536 80.3993 37.728C80.2179 37.9093 79.9886 38 79.7113 38ZM89.0414 38.16C88.1347 38.16 87.3454 37.9733 86.6734 37.6C86.012 37.216 85.5 36.6987 85.1374 36.048C84.7854 35.3973 84.6094 34.6613 84.6094 33.84C84.6094 32.88 84.8014 32.064 85.1854 31.392C85.58 30.7093 86.092 30.1867 86.7214 29.824C87.3507 29.4613 88.0174 29.28 88.7214 29.28C89.2654 29.28 89.7774 29.392 90.2574 29.616C90.748 29.84 91.18 30.1493 91.5534 30.544C91.9267 30.928 92.22 31.376 92.4334 31.888C92.6574 32.4 92.7694 32.944 92.7694 33.52C92.7587 33.776 92.6574 33.984 92.4654 34.144C92.2734 34.304 92.0494 34.384 91.7934 34.384H85.6814L85.2014 32.784H91.0734L90.7214 33.104V32.672C90.7 32.3627 90.588 32.0853 90.3854 31.84C90.1934 31.5947 89.948 31.4027 89.6494 31.264C89.3614 31.1147 89.052 31.04 88.7214 31.04C88.4014 31.04 88.1027 31.0827 87.8254 31.168C87.548 31.2533 87.308 31.3973 87.1054 31.6C86.9027 31.8027 86.7427 32.0747 86.6254 32.416C86.508 32.7573 86.4494 33.1893 86.4494 33.712C86.4494 34.288 86.5667 34.7787 86.8014 35.184C87.0467 35.5787 87.356 35.8827 87.7294 36.096C88.1134 36.2987 88.5187 36.4 88.9454 36.4C89.34 36.4 89.6547 36.368 89.8894 36.304C90.124 36.24 90.3107 36.1653 90.4494 36.08C90.5987 35.984 90.732 35.904 90.8494 35.84C91.0414 35.744 91.2227 35.696 91.3934 35.696C91.628 35.696 91.82 35.776 91.9694 35.936C92.1294 36.096 92.2094 36.2827 92.2094 36.496C92.2094 36.784 92.06 37.0453 91.7614 37.28C91.484 37.5147 91.0947 37.7227 90.5934 37.904C90.092 38.0747 89.5747 38.16 89.0414 38.16ZM101.135 26.16C101.412 26.16 101.642 26.2507 101.823 26.432C102.004 26.6133 102.095 26.848 102.095 27.136V37.024C102.095 37.3013 102.004 37.536 101.823 37.728C101.642 37.9093 101.412 38 101.135 38C100.858 38 100.628 37.9093 100.447 37.728C100.266 37.536 100.175 37.3013 100.175 37.024V36.24L100.527 36.384C100.527 36.5227 100.452 36.6933 100.303 36.896C100.154 37.088 99.9509 37.28 99.6949 37.472C99.4389 37.664 99.1349 37.8293 98.7829 37.968C98.4415 38.096 98.0682 38.16 97.6629 38.16C96.9269 38.16 96.2602 37.9733 95.6629 37.6C95.0655 37.216 94.5909 36.6933 94.2389 36.032C93.8975 35.36 93.7269 34.592 93.7269 33.728C93.7269 32.8533 93.8975 32.0853 94.2389 31.424C94.5909 30.752 95.0602 30.2293 95.6469 29.856C96.2335 29.472 96.8842 29.28 97.5989 29.28C98.0575 29.28 98.4789 29.3493 98.8629 29.488C99.2469 29.6267 99.5775 29.8027 99.8549 30.016C100.143 30.2293 100.362 30.448 100.511 30.672C100.671 30.8853 100.751 31.0667 100.751 31.216L100.175 31.424V27.136C100.175 26.8587 100.266 26.6293 100.447 26.448C100.628 26.256 100.858 26.16 101.135 26.16ZM97.9029 36.4C98.3722 36.4 98.7829 36.2827 99.1349 36.048C99.4869 35.8133 99.7589 35.4933 99.9509 35.088C100.154 34.6827 100.255 34.2293 100.255 33.728C100.255 33.216 100.154 32.7573 99.9509 32.352C99.7589 31.9467 99.4869 31.6267 99.1349 31.392C98.7829 31.1573 98.3722 31.04 97.9029 31.04C97.4442 31.04 97.0389 31.1573 96.6869 31.392C96.3349 31.6267 96.0575 31.9467 95.8549 32.352C95.6629 32.7573 95.5669 33.216 95.5669 33.728C95.5669 34.2293 95.6629 34.6827 95.8549 35.088C96.0575 35.4933 96.3349 35.8133 96.6869 36.048C97.0389 36.2827 97.4442 36.4 97.9029 36.4ZM105.662 37.024C105.662 37.3013 105.571 37.536 105.39 37.728C105.208 37.9093 104.979 38 104.702 38C104.424 38 104.195 37.9093 104.014 37.728C103.832 37.536 103.742 37.3013 103.742 37.024V30.416C103.742 30.1387 103.832 29.9093 104.014 29.728C104.195 29.536 104.424 29.44 104.702 29.44C104.979 29.44 105.208 29.536 105.39 29.728C105.571 29.9093 105.662 30.1387 105.662 30.416V37.024ZM104.686 28.4C104.323 28.4 104.067 28.3413 103.918 28.224C103.768 28.1067 103.694 27.8987 103.694 27.6V27.296C103.694 26.9867 103.774 26.7787 103.934 26.672C104.104 26.5547 104.36 26.496 104.702 26.496C105.075 26.496 105.336 26.5547 105.486 26.672C105.635 26.7893 105.71 26.9973 105.71 27.296V27.6C105.71 27.9093 105.63 28.1227 105.47 28.24C105.31 28.3467 105.048 28.4 104.686 28.4ZM107.411 29.6H111.203C111.459 29.6 111.672 29.6853 111.843 29.856C112.014 30.0267 112.099 30.24 112.099 30.496C112.099 30.7413 112.014 30.9493 111.843 31.12C111.672 31.28 111.459 31.36 111.203 31.36H107.411C107.155 31.36 106.942 31.2747 106.771 31.104C106.6 30.9333 106.515 30.72 106.515 30.464C106.515 30.2187 106.6 30.016 106.771 29.856C106.942 29.6853 107.155 29.6 107.411 29.6ZM109.123 27.6C109.4 27.6 109.624 27.696 109.795 27.888C109.976 28.0693 110.067 28.2987 110.067 28.576V35.696C110.067 35.8453 110.094 35.968 110.147 36.064C110.211 36.16 110.291 36.2293 110.387 36.272C110.494 36.3147 110.606 36.336 110.723 36.336C110.851 36.336 110.968 36.3147 111.075 36.272C111.182 36.2187 111.304 36.192 111.443 36.192C111.592 36.192 111.726 36.2613 111.843 36.4C111.971 36.5387 112.035 36.7307 112.035 36.976C112.035 37.2747 111.87 37.52 111.539 37.712C111.219 37.904 110.872 38 110.499 38C110.275 38 110.024 37.984 109.747 37.952C109.48 37.9093 109.224 37.8187 108.979 37.68C108.744 37.5307 108.547 37.3067 108.387 37.008C108.227 36.7093 108.147 36.2987 108.147 35.776V28.576C108.147 28.2987 108.238 28.0693 108.419 27.888C108.611 27.696 108.846 27.6 109.123 27.6ZM118.01 40.144C117.829 40.144 117.642 40.0693 117.45 39.92C117.258 39.7707 117.162 39.5787 117.162 39.344C117.162 39.216 117.194 39.088 117.258 38.96L123.754 25.664C123.829 25.5147 123.93 25.3973 124.058 25.312C124.186 25.2267 124.32 25.184 124.458 25.184C124.64 25.184 124.821 25.2587 125.002 25.408C125.194 25.5467 125.29 25.7387 125.29 25.984C125.29 26.112 125.258 26.24 125.194 26.368L118.714 39.664C118.64 39.8133 118.538 39.9307 118.41 40.016C118.293 40.1013 118.16 40.144 118.01 40.144ZM135.604 26.8C136.372 26.8 137.055 26.944 137.652 27.232C138.25 27.52 138.751 27.9253 139.156 28.448C139.572 28.96 139.882 29.5573 140.084 30.24C140.298 30.912 140.404 31.632 140.404 32.4C140.404 33.4347 140.218 34.3787 139.844 35.232C139.471 36.0747 138.927 36.7467 138.212 37.248C137.508 37.7493 136.639 38 135.604 38H131.78C131.503 38 131.268 37.9093 131.076 37.728C130.895 37.536 130.804 37.3013 130.804 37.024V27.776C130.804 27.4987 130.895 27.2693 131.076 27.088C131.268 26.896 131.503 26.8 131.78 26.8H135.604ZM135.444 36.16C136.116 36.16 136.666 35.9893 137.092 35.648C137.519 35.296 137.828 34.8373 138.02 34.272C138.223 33.696 138.324 33.072 138.324 32.4C138.324 31.8987 138.266 31.424 138.148 30.976C138.042 30.5173 137.871 30.1173 137.636 29.776C137.402 29.424 137.103 29.1467 136.74 28.944C136.378 28.7413 135.946 28.64 135.444 28.64H132.644L132.804 28.496V36.336L132.708 36.16H135.444ZM145.919 38.16C145.012 38.16 144.223 37.9733 143.551 37.6C142.89 37.216 142.378 36.6987 142.015 36.048C141.663 35.3973 141.487 34.6613 141.487 33.84C141.487 32.88 141.679 32.064 142.063 31.392C142.458 30.7093 142.97 30.1867 143.599 29.824C144.228 29.4613 144.895 29.28 145.599 29.28C146.143 29.28 146.655 29.392 147.135 29.616C147.626 29.84 148.058 30.1493 148.431 30.544C148.804 30.928 149.098 31.376 149.311 31.888C149.535 32.4 149.647 32.944 149.647 33.52C149.636 33.776 149.535 33.984 149.343 34.144C149.151 34.304 148.927 34.384 148.671 34.384H142.559L142.079 32.784H147.951L147.599 33.104V32.672C147.578 32.3627 147.466 32.0853 147.263 31.84C147.071 31.5947 146.826 31.4027 146.527 31.264C146.239 31.1147 145.93 31.04 145.599 31.04C145.279 31.04 144.98 31.0827 144.703 31.168C144.426 31.2533 144.186 31.3973 143.983 31.6C143.78 31.8027 143.62 32.0747 143.503 32.416C143.386 32.7573 143.327 33.1893 143.327 33.712C143.327 34.288 143.444 34.7787 143.679 35.184C143.924 35.5787 144.234 35.8827 144.607 36.096C144.991 36.2987 145.396 36.4 145.823 36.4C146.218 36.4 146.532 36.368 146.767 36.304C147.002 36.24 147.188 36.1653 147.327 36.08C147.476 35.984 147.61 35.904 147.727 35.84C147.919 35.744 148.1 35.696 148.271 35.696C148.506 35.696 148.698 35.776 148.847 35.936C149.007 36.096 149.087 36.2827 149.087 36.496C149.087 36.784 148.938 37.0453 148.639 37.28C148.362 37.5147 147.972 37.7227 147.471 37.904C146.97 38.0747 146.452 38.16 145.919 38.16ZM155.436 29.28C156.183 29.28 156.85 29.472 157.436 29.856C158.034 30.2293 158.503 30.7467 158.844 31.408C159.196 32.0693 159.372 32.8373 159.372 33.712C159.372 34.5867 159.196 35.36 158.844 36.032C158.503 36.6933 158.039 37.216 157.452 37.6C156.876 37.9733 156.226 38.16 155.5 38.16C155.074 38.16 154.674 38.0907 154.3 37.952C153.927 37.8133 153.596 37.6373 153.308 37.424C153.031 37.2107 152.812 36.9973 152.652 36.784C152.503 36.56 152.428 36.3733 152.428 36.224L152.924 36.016V37.184C152.924 37.4613 152.834 37.696 152.652 37.888C152.471 38.0693 152.242 38.16 151.964 38.16C151.687 38.16 151.458 38.0693 151.276 37.888C151.095 37.7067 151.004 37.472 151.004 37.184V27.136C151.004 26.8587 151.095 26.6293 151.276 26.448C151.458 26.256 151.687 26.16 151.964 26.16C152.242 26.16 152.471 26.256 152.652 26.448C152.834 26.6293 152.924 26.8587 152.924 27.136V31.2L152.652 31.056C152.652 30.9173 152.727 30.752 152.876 30.56C153.026 30.3573 153.228 30.16 153.484 29.968C153.74 29.7653 154.034 29.6 154.364 29.472C154.706 29.344 155.063 29.28 155.436 29.28ZM155.196 31.04C154.727 31.04 154.316 31.1573 153.964 31.392C153.612 31.6267 153.335 31.9467 153.132 32.352C152.94 32.7467 152.844 33.2 152.844 33.712C152.844 34.2133 152.94 34.672 153.132 35.088C153.335 35.4933 153.612 35.8133 153.964 36.048C154.316 36.2827 154.727 36.4 155.196 36.4C155.666 36.4 156.071 36.2827 156.412 36.048C156.764 35.8133 157.036 35.4933 157.228 35.088C157.431 34.672 157.532 34.2133 157.532 33.712C157.532 33.2 157.431 32.7467 157.228 32.352C157.036 31.9467 156.764 31.6267 156.412 31.392C156.071 31.1573 155.666 31.04 155.196 31.04ZM162.539 37.024C162.539 37.3013 162.449 37.536 162.267 37.728C162.086 37.9093 161.857 38 161.579 38C161.302 38 161.073 37.9093 160.891 37.728C160.71 37.536 160.619 37.3013 160.619 37.024V30.416C160.619 30.1387 160.71 29.9093 160.891 29.728C161.073 29.536 161.302 29.44 161.579 29.44C161.857 29.44 162.086 29.536 162.267 29.728C162.449 29.9093 162.539 30.1387 162.539 30.416V37.024ZM161.563 28.4C161.201 28.4 160.945 28.3413 160.795 28.224C160.646 28.1067 160.571 27.8987 160.571 27.6V27.296C160.571 26.9867 160.651 26.7787 160.811 26.672C160.982 26.5547 161.238 26.496 161.579 26.496C161.953 26.496 162.214 26.5547 162.363 26.672C162.513 26.7893 162.587 26.9973 162.587 27.296V27.6C162.587 27.9093 162.507 28.1227 162.347 28.24C162.187 28.3467 161.926 28.4 161.563 28.4ZM164.288 29.6H168.08C168.336 29.6 168.55 29.6853 168.72 29.856C168.891 30.0267 168.976 30.24 168.976 30.496C168.976 30.7413 168.891 30.9493 168.72 31.12C168.55 31.28 168.336 31.36 168.08 31.36H164.288C164.032 31.36 163.819 31.2747 163.648 31.104C163.478 30.9333 163.392 30.72 163.392 30.464C163.392 30.2187 163.478 30.016 163.648 29.856C163.819 29.6853 164.032 29.6 164.288 29.6ZM166 27.6C166.278 27.6 166.502 27.696 166.672 27.888C166.854 28.0693 166.944 28.2987 166.944 28.576V35.696C166.944 35.8453 166.971 35.968 167.024 36.064C167.088 36.16 167.168 36.2293 167.264 36.272C167.371 36.3147 167.483 36.336 167.6 36.336C167.728 36.336 167.846 36.3147 167.952 36.272C168.059 36.2187 168.182 36.192 168.32 36.192C168.47 36.192 168.603 36.2613 168.72 36.4C168.848 36.5387 168.912 36.7307 168.912 36.976C168.912 37.2747 168.747 37.52 168.416 37.712C168.096 37.904 167.75 38 167.376 38C167.152 38 166.902 37.984 166.624 37.952C166.358 37.9093 166.102 37.8187 165.856 37.68C165.622 37.5307 165.424 37.3067 165.264 37.008C165.104 36.7093 165.024 36.2987 165.024 35.776V28.576C165.024 28.2987 165.115 28.0693 165.296 27.888C165.488 27.696 165.723 27.6 166 27.6ZM182.584 27.344C182.861 27.4827 183.021 27.7013 183.064 28C183.117 28.2987 183.042 28.5707 182.84 28.816C182.701 29.008 182.52 29.1147 182.296 29.136C182.082 29.1573 181.864 29.1147 181.64 29.008C181.384 28.8907 181.112 28.8 180.824 28.736C180.546 28.672 180.253 28.64 179.944 28.64C179.368 28.64 178.85 28.7307 178.392 28.912C177.944 29.0933 177.56 29.3547 177.24 29.696C176.92 30.0267 176.674 30.4213 176.504 30.88C176.344 31.3387 176.264 31.8453 176.264 32.4C176.264 33.0507 176.354 33.616 176.536 34.096C176.728 34.576 176.989 34.976 177.32 35.296C177.65 35.616 178.04 35.856 178.488 36.016C178.936 36.1653 179.421 36.24 179.944 36.24C180.232 36.24 180.52 36.2133 180.808 36.16C181.096 36.1067 181.373 36.0107 181.64 35.872C181.864 35.7653 182.082 35.728 182.296 35.76C182.52 35.792 182.706 35.904 182.856 36.096C183.069 36.3627 183.144 36.64 183.08 36.928C183.026 37.2053 182.866 37.408 182.6 37.536C182.322 37.6747 182.034 37.792 181.736 37.888C181.448 37.9733 181.154 38.0373 180.856 38.08C180.557 38.1333 180.253 38.16 179.944 38.16C179.176 38.16 178.445 38.0373 177.752 37.792C177.069 37.5467 176.456 37.184 175.912 36.704C175.378 36.224 174.957 35.6267 174.648 34.912C174.338 34.1867 174.184 33.3493 174.184 32.4C174.184 31.5787 174.322 30.8213 174.6 30.128C174.888 29.4347 175.288 28.8373 175.8 28.336C176.322 27.824 176.936 27.4293 177.64 27.152C178.344 26.864 179.112 26.72 179.944 26.72C180.413 26.72 180.872 26.7733 181.32 26.88C181.768 26.9867 182.189 27.1413 182.584 27.344ZM191.303 29.28C191.58 29.28 191.81 29.3707 191.991 29.552C192.172 29.7333 192.263 29.968 192.263 30.256V37.024C192.263 37.3013 192.172 37.536 191.991 37.728C191.81 37.9093 191.58 38 191.303 38C191.026 38 190.796 37.9093 190.615 37.728C190.434 37.536 190.343 37.3013 190.343 37.024V36.24L190.695 36.384C190.695 36.5227 190.62 36.6933 190.471 36.896C190.322 37.088 190.119 37.28 189.863 37.472C189.607 37.664 189.303 37.8293 188.951 37.968C188.61 38.096 188.236 38.16 187.831 38.16C187.095 38.16 186.428 37.9733 185.831 37.6C185.234 37.216 184.759 36.6933 184.407 36.032C184.066 35.36 183.895 34.592 183.895 33.728C183.895 32.8533 184.066 32.0853 184.407 31.424C184.759 30.752 185.228 30.2293 185.815 29.856C186.402 29.472 187.052 29.28 187.767 29.28C188.226 29.28 188.647 29.3493 189.031 29.488C189.415 29.6267 189.746 29.8027 190.023 30.016C190.311 30.2293 190.53 30.448 190.679 30.672C190.839 30.8853 190.919 31.0667 190.919 31.216L190.343 31.424V30.256C190.343 29.9787 190.434 29.7493 190.615 29.568C190.796 29.376 191.026 29.28 191.303 29.28ZM188.071 36.4C188.54 36.4 188.951 36.2827 189.303 36.048C189.655 35.8133 189.927 35.4933 190.119 35.088C190.322 34.6827 190.423 34.2293 190.423 33.728C190.423 33.216 190.322 32.7573 190.119 32.352C189.927 31.9467 189.655 31.6267 189.303 31.392C188.951 31.1573 188.54 31.04 188.071 31.04C187.612 31.04 187.207 31.1573 186.855 31.392C186.503 31.6267 186.226 31.9467 186.023 32.352C185.831 32.7573 185.735 33.216 185.735 33.728C185.735 34.2293 185.831 34.6827 186.023 35.088C186.226 35.4933 186.503 35.8133 186.855 36.048C187.207 36.2827 187.612 36.4 188.071 36.4ZM194.982 38C194.705 38 194.475 37.9093 194.294 37.728C194.113 37.536 194.022 37.3013 194.022 37.024V30.416C194.022 30.1387 194.113 29.9093 194.294 29.728C194.475 29.536 194.705 29.44 194.982 29.44C195.259 29.44 195.489 29.536 195.67 29.728C195.851 29.9093 195.942 30.1387 195.942 30.416V31.92L195.83 30.848C195.947 30.592 196.097 30.368 196.278 30.176C196.47 29.9733 196.683 29.808 196.918 29.68C197.153 29.5413 197.403 29.44 197.67 29.376C197.937 29.312 198.203 29.28 198.47 29.28C198.79 29.28 199.057 29.3707 199.27 29.552C199.494 29.7333 199.606 29.9467 199.606 30.192C199.606 30.544 199.515 30.8 199.334 30.96C199.153 31.1093 198.955 31.184 198.742 31.184C198.539 31.184 198.353 31.1467 198.182 31.072C198.022 30.9973 197.835 30.96 197.622 30.96C197.43 30.96 197.233 31.008 197.03 31.104C196.838 31.1893 196.657 31.328 196.486 31.52C196.326 31.712 196.193 31.952 196.086 32.24C195.99 32.5173 195.942 32.848 195.942 33.232V37.024C195.942 37.3013 195.851 37.536 195.67 37.728C195.489 37.9093 195.259 38 194.982 38ZM207.288 26.16C207.565 26.16 207.795 26.2507 207.976 26.432C208.157 26.6133 208.248 26.848 208.248 27.136V37.024C208.248 37.3013 208.157 37.536 207.976 37.728C207.795 37.9093 207.565 38 207.288 38C207.011 38 206.781 37.9093 206.6 37.728C206.419 37.536 206.328 37.3013 206.328 37.024V36.24L206.68 36.384C206.68 36.5227 206.605 36.6933 206.456 36.896C206.307 37.088 206.104 37.28 205.848 37.472C205.592 37.664 205.288 37.8293 204.936 37.968C204.595 38.096 204.221 38.16 203.816 38.16C203.08 38.16 202.413 37.9733 201.816 37.6C201.219 37.216 200.744 36.6933 200.392 36.032C200.051 35.36 199.88 34.592 199.88 33.728C199.88 32.8533 200.051 32.0853 200.392 31.424C200.744 30.752 201.213 30.2293 201.8 29.856C202.387 29.472 203.037 29.28 203.752 29.28C204.211 29.28 204.632 29.3493 205.016 29.488C205.4 29.6267 205.731 29.8027 206.008 30.016C206.296 30.2293 206.515 30.448 206.664 30.672C206.824 30.8853 206.904 31.0667 206.904 31.216L206.328 31.424V27.136C206.328 26.8587 206.419 26.6293 206.6 26.448C206.781 26.256 207.011 26.16 207.288 26.16ZM204.056 36.4C204.525 36.4 204.936 36.2827 205.288 36.048C205.64 35.8133 205.912 35.4933 206.104 35.088C206.307 34.6827 206.408 34.2293 206.408 33.728C206.408 33.216 206.307 32.7573 206.104 32.352C205.912 31.9467 205.64 31.6267 205.288 31.392C204.936 31.1573 204.525 31.04 204.056 31.04C203.597 31.04 203.192 31.1573 202.84 31.392C202.488 31.6267 202.211 31.9467 202.008 32.352C201.816 32.7573 201.72 33.216 201.72 33.728C201.72 34.2293 201.816 34.6827 202.008 35.088C202.211 35.4933 202.488 35.8133 202.84 36.048C203.192 36.2827 203.597 36.4 204.056 36.4Z" fill="#23003D"/>
<path d="M267.91 49.92L274.43 43.4C275.2 42.63 275.2 41.37 274.43 40.6L267.91 34.08" stroke="#D58900" stroke-width="2" stroke-miterlimit="10" stroke-linecap="round" stroke-linejoin="round"/>
<path opacity="0.5" d="M69.358 58.376C69.414 58.376 69.4747 58.39 69.54 58.418C69.6147 58.4367 69.694 58.4833 69.778 58.558C69.9647 58.726 70.184 58.8613 70.436 58.964C70.688 59.0667 70.9773 59.118 71.304 59.118C71.7053 59.118 72.074 59.0293 72.41 58.852C72.746 58.6653 73.0167 58.404 73.222 58.068C73.4367 57.732 73.544 57.3447 73.544 56.906C73.544 56.43 73.4367 56.0427 73.222 55.744C73.0167 55.436 72.7507 55.212 72.424 55.072C72.1067 54.9227 71.7707 54.848 71.416 54.848C71.2853 54.848 71.164 54.8573 71.052 54.876C70.94 54.8947 70.8327 54.918 70.73 54.946C70.6367 54.974 70.548 54.988 70.464 54.988C70.3147 54.988 70.198 54.9367 70.114 54.834C70.03 54.7313 69.988 54.6053 69.988 54.456C69.988 54.372 70.002 54.2973 70.03 54.232C70.0673 54.1573 70.1233 54.078 70.198 53.994L72.914 51.054L73.138 51.32H69.162C69.0127 51.32 68.8867 51.2687 68.784 51.166C68.6813 51.0633 68.63 50.9373 68.63 50.788C68.63 50.6387 68.6813 50.5173 68.784 50.424C68.8867 50.3213 69.0127 50.27 69.162 50.27H73.726C73.9313 50.27 74.0807 50.3307 74.174 50.452C74.2673 50.564 74.314 50.69 74.314 50.83C74.314 50.914 74.2907 50.9933 74.244 51.068C74.2067 51.1427 74.1553 51.2127 74.09 51.278L71.374 54.232L71.052 53.952C71.0987 53.9147 71.206 53.882 71.374 53.854C71.542 53.8167 71.682 53.798 71.794 53.798C72.3167 53.798 72.7973 53.924 73.236 54.176C73.6747 54.428 74.0247 54.7827 74.286 55.24C74.5473 55.6973 74.678 56.2293 74.678 56.836C74.678 57.508 74.524 58.0913 74.216 58.586C73.908 59.0807 73.4833 59.4633 72.942 59.734C72.41 60.0047 71.808 60.14 71.136 60.14C70.7627 60.14 70.394 60.084 70.03 59.972C69.6753 59.8507 69.3673 59.678 69.106 59.454C68.9847 59.3887 68.9007 59.314 68.854 59.23C68.8167 59.146 68.798 59.062 68.798 58.978C68.798 58.838 68.8493 58.7027 68.952 58.572C69.064 58.4413 69.1993 58.376 69.358 58.376ZM77.9865 60.042C77.8372 60.042 77.7018 59.9953 77.5805 59.902C77.4685 59.7993 77.4125 59.6687 77.4125 59.51C77.4125 59.426 77.4312 59.342 77.4685 59.258L81.0805 51.068L81.2485 51.32H76.7405C76.5912 51.32 76.4652 51.2733 76.3625 51.18C76.2598 51.0773 76.2085 50.9467 76.2085 50.788C76.2085 50.6387 76.2598 50.5173 76.3625 50.424C76.4652 50.3213 76.5912 50.27 76.7405 50.27H81.7945C81.9625 50.27 82.0978 50.3213 82.2005 50.424C82.3125 50.5267 82.3685 50.6573 82.3685 50.816C82.3685 50.9 82.3498 50.984 82.3125 51.068L78.5185 59.692C78.4718 59.804 78.3972 59.8927 78.2945 59.958C78.2012 60.014 78.0985 60.042 77.9865 60.042ZM86.07 60.056C85.6966 60.056 85.314 60 84.922 59.888C84.5393 59.7667 84.2033 59.5893 83.914 59.356C83.8393 59.2907 83.7786 59.2067 83.732 59.104C83.6853 59.0013 83.662 58.9033 83.662 58.81C83.662 58.698 83.7086 58.5907 83.802 58.488C83.9046 58.376 84.0353 58.32 84.194 58.32C84.3153 58.32 84.4553 58.3807 84.614 58.502C84.8193 58.6607 85.048 58.7867 85.3 58.88C85.552 58.9733 85.804 59.02 86.056 59.02C86.5786 59.02 87.0313 58.922 87.414 58.726C87.7966 58.53 88.0906 58.2547 88.296 57.9C88.5013 57.5453 88.604 57.13 88.604 56.654C88.604 56.2247 88.506 55.8513 88.31 55.534C88.1233 55.2073 87.8573 54.9553 87.512 54.778C87.176 54.6007 86.7886 54.512 86.35 54.512C86.0233 54.512 85.7293 54.5633 85.468 54.666C85.216 54.7593 84.992 54.8573 84.796 54.96C84.6093 55.0627 84.446 55.114 84.306 55.114C84.1286 55.114 83.9933 55.0767 83.9 55.002C83.8066 54.918 83.746 54.8153 83.718 54.694C83.69 54.5727 83.6806 54.4607 83.69 54.358L84.236 50.732C84.264 50.6107 84.3293 50.5033 84.432 50.41C84.5346 50.3167 84.6606 50.27 84.81 50.27H88.968C89.1173 50.27 89.2433 50.3213 89.346 50.424C89.4486 50.5267 89.5 50.6573 89.5 50.816C89.5 50.9653 89.4486 51.0913 89.346 51.194C89.2433 51.2873 89.1173 51.334 88.968 51.334H85.09L85.23 51.208L84.712 54.372L84.488 54.078C84.5906 53.9847 84.7446 53.8913 84.95 53.798C85.1646 53.7047 85.4073 53.6253 85.678 53.56C85.958 53.4947 86.2426 53.462 86.532 53.462C87.1386 53.462 87.68 53.602 88.156 53.882C88.6413 54.1527 89.024 54.526 89.304 55.002C89.584 55.478 89.724 56.024 89.724 56.64C89.724 57.3213 89.5746 57.9187 89.276 58.432C88.9773 58.9453 88.5526 59.3467 88.002 59.636C87.4606 59.916 86.8166 60.056 86.07 60.056ZM94.7453 60.14C93.9706 60.14 93.3219 59.9207 92.7993 59.482C92.2859 59.0433 91.8939 58.4413 91.6233 57.676C91.3619 56.9107 91.2313 56.052 91.2313 55.1C91.2313 54.1293 91.3619 53.266 91.6233 52.51C91.8939 51.754 92.2859 51.1567 92.7993 50.718C93.3219 50.2793 93.9706 50.06 94.7453 50.06C95.5199 50.06 96.1639 50.2793 96.6773 50.718C97.1999 51.1567 97.5919 51.754 97.8533 52.51C98.1146 53.266 98.2452 54.1293 98.2452 55.1C98.2452 56.052 98.1146 56.9107 97.8533 57.676C97.5919 58.4413 97.1999 59.0433 96.6773 59.482C96.1639 59.9207 95.5199 60.14 94.7453 60.14ZM94.7453 59.006C95.2399 59.006 95.6553 58.8473 95.9913 58.53C96.3366 58.2127 96.5979 57.7647 96.7753 57.186C96.9526 56.598 97.0413 55.9027 97.0413 55.1C97.0413 54.288 96.9526 53.5927 96.7753 53.014C96.5979 52.426 96.3366 51.978 95.9913 51.67C95.6553 51.3527 95.2399 51.194 94.7453 51.194C94.2506 51.194 93.8306 51.3527 93.4853 51.67C93.1493 51.978 92.8879 52.426 92.7013 53.014C92.5239 53.5927 92.4353 54.288 92.4353 55.1C92.4353 55.9027 92.5239 56.598 92.7013 57.186C92.8879 57.7647 93.1493 58.2127 93.4853 58.53C93.8306 58.8473 94.2506 59.006 94.7453 59.006ZM101.221 54.484C101.119 54.484 101.035 54.4467 100.969 54.372C100.904 54.288 100.876 54.19 100.885 54.078L100.997 52.846C101.007 52.818 101.002 52.7993 100.983 52.79C100.965 52.7807 100.941 52.7853 100.913 52.804L99.8915 53.518C99.7981 53.5833 99.7001 53.6067 99.5975 53.588C99.5041 53.5693 99.4248 53.5087 99.3595 53.406C99.3035 53.294 99.2941 53.1913 99.3315 53.098C99.3688 53.0047 99.4388 52.9393 99.5415 52.902L100.675 52.37C100.703 52.3607 100.717 52.3467 100.717 52.328C100.717 52.3093 100.703 52.2953 100.675 52.286L99.5415 51.754C99.4295 51.698 99.3595 51.6233 99.3315 51.53C99.3035 51.4273 99.3175 51.3247 99.3735 51.222C99.4295 51.1287 99.5041 51.0727 99.5975 51.054C99.7001 51.0353 99.7981 51.0587 99.8915 51.124L100.913 51.852C100.941 51.8613 100.965 51.8613 100.983 51.852C101.002 51.8427 101.007 51.824 100.997 51.796L100.885 50.564C100.876 50.452 100.904 50.3587 100.969 50.284C101.044 50.2093 101.137 50.172 101.249 50.172C101.352 50.172 101.436 50.2093 101.501 50.284C101.576 50.3587 101.604 50.452 101.585 50.564L101.487 51.796C101.478 51.824 101.483 51.8427 101.501 51.852C101.52 51.8613 101.539 51.8613 101.557 51.852L102.593 51.124C102.687 51.0587 102.785 51.04 102.887 51.068C102.99 51.0867 103.065 51.1427 103.111 51.236C103.177 51.348 103.191 51.4507 103.153 51.544C103.116 51.6373 103.046 51.7073 102.943 51.754L101.795 52.286C101.767 52.2953 101.753 52.3093 101.753 52.328C101.753 52.3467 101.767 52.3607 101.795 52.37L102.943 52.902C103.046 52.9487 103.116 53.0233 103.153 53.126C103.191 53.2193 103.177 53.3127 103.111 53.406C103.065 53.5087 102.99 53.5693 102.887 53.588C102.785 53.6067 102.687 53.588 102.593 53.532L101.557 52.804C101.539 52.7853 101.52 52.7807 101.501 52.79C101.483 52.7993 101.478 52.818 101.487 52.846L101.585 54.078C101.604 54.19 101.576 54.288 101.501 54.372C101.427 54.4467 101.333 54.484 101.221 54.484ZM105.802 54.484C105.699 54.484 105.615 54.4467 105.55 54.372C105.484 54.288 105.456 54.19 105.466 54.078L105.578 52.846C105.587 52.818 105.582 52.7993 105.564 52.79C105.545 52.7807 105.522 52.7853 105.494 52.804L104.472 53.518C104.378 53.5833 104.28 53.6067 104.178 53.588C104.084 53.5693 104.005 53.5087 103.94 53.406C103.884 53.294 103.874 53.1913 103.912 53.098C103.949 53.0047 104.019 52.9393 104.122 52.902L105.256 52.37C105.284 52.3607 105.298 52.3467 105.298 52.328C105.298 52.3093 105.284 52.2953 105.256 52.286L104.122 51.754C104.01 51.698 103.94 51.6233 103.912 51.53C103.884 51.4273 103.898 51.3247 103.954 51.222C104.01 51.1287 104.084 51.0727 104.178 51.054C104.28 51.0353 104.378 51.0587 104.472 51.124L105.494 51.852C105.522 51.8613 105.545 51.8613 105.564 51.852C105.582 51.8427 105.587 51.824 105.578 51.796L105.466 50.564C105.456 50.452 105.484 50.3587 105.55 50.284C105.624 50.2093 105.718 50.172 105.83 50.172C105.932 50.172 106.016 50.2093 106.082 50.284C106.156 50.3587 106.184 50.452 106.166 50.564L106.068 51.796C106.058 51.824 106.063 51.8427 106.082 51.852C106.1 51.8613 106.119 51.8613 106.138 51.852L107.174 51.124C107.267 51.0587 107.365 51.04 107.468 51.068C107.57 51.0867 107.645 51.1427 107.692 51.236C107.757 51.348 107.771 51.4507 107.734 51.544C107.696 51.6373 107.626 51.7073 107.524 51.754L106.376 52.286C106.348 52.2953 106.334 52.3093 106.334 52.328C106.334 52.3467 106.348 52.3607 106.376 52.37L107.524 52.902C107.626 52.9487 107.696 53.0233 107.734 53.126C107.771 53.2193 107.757 53.3127 107.692 53.406C107.645 53.5087 107.57 53.5693 107.468 53.588C107.365 53.6067 107.267 53.588 107.174 53.532L106.138 52.804C106.119 52.7853 106.1 52.7807 106.082 52.79C106.063 52.7993 106.058 52.818 106.068 52.846L106.166 54.078C106.184 54.19 106.156 54.288 106.082 54.372C106.007 54.4467 105.914 54.484 105.802 54.484ZM110.382 54.484C110.279 54.484 110.195 54.4467 110.13 54.372C110.064 54.288 110.036 54.19 110.046 54.078L110.158 52.846C110.167 52.818 110.162 52.7993 110.144 52.79C110.125 52.7807 110.102 52.7853 110.074 52.804L109.052 53.518C108.958 53.5833 108.86 53.6067 108.758 53.588C108.664 53.5693 108.585 53.5087 108.52 53.406C108.464 53.294 108.454 53.1913 108.492 53.098C108.529 53.0047 108.599 52.9393 108.702 52.902L109.836 52.37C109.864 52.3607 109.878 52.3467 109.878 52.328C109.878 52.3093 109.864 52.2953 109.836 52.286L108.702 51.754C108.59 51.698 108.52 51.6233 108.492 51.53C108.464 51.4273 108.478 51.3247 108.534 51.222C108.59 51.1287 108.664 51.0727 108.758 51.054C108.86 51.0353 108.958 51.0587 109.052 51.124L110.074 51.852C110.102 51.8613 110.125 51.8613 110.144 51.852C110.162 51.8427 110.167 51.824 110.158 51.796L110.046 50.564C110.036 50.452 110.064 50.3587 110.13 50.284C110.204 50.2093 110.298 50.172 110.41 50.172C110.512 50.172 110.596 50.2093 110.662 50.284C110.736 50.3587 110.764 50.452 110.746 50.564L110.648 51.796C110.638 51.824 110.643 51.8427 110.662 51.852C110.68 51.8613 110.699 51.8613 110.718 51.852L111.754 51.124C111.847 51.0587 111.945 51.04 112.048 51.068C112.15 51.0867 112.225 51.1427 112.272 51.236C112.337 51.348 112.351 51.4507 112.314 51.544C112.276 51.6373 112.206 51.7073 112.104 51.754L110.956 52.286C110.928 52.2953 110.914 52.3093 110.914 52.328C110.914 52.3467 110.928 52.3607 110.956 52.37L112.104 52.902C112.206 52.9487 112.276 53.0233 112.314 53.126C112.351 53.2193 112.337 53.3127 112.272 53.406C112.225 53.5087 112.15 53.5693 112.048 53.588C111.945 53.6067 111.847 53.588 111.754 53.532L110.718 52.804C110.699 52.7853 110.68 52.7807 110.662 52.79C110.643 52.7993 110.638 52.818 110.648 52.846L110.746 54.078C110.764 54.19 110.736 54.288 110.662 54.372C110.587 54.4467 110.494 54.484 110.382 54.484ZM114.962 54.484C114.859 54.484 114.775 54.4467 114.71 54.372C114.644 54.288 114.616 54.19 114.626 54.078L114.738 52.846C114.747 52.818 114.742 52.7993 114.724 52.79C114.705 52.7807 114.682 52.7853 114.654 52.804L113.632 53.518C113.538 53.5833 113.44 53.6067 113.338 53.588C113.244 53.5693 113.165 53.5087 113.1 53.406C113.044 53.294 113.034 53.1913 113.072 53.098C113.109 53.0047 113.179 52.9393 113.282 52.902L114.416 52.37C114.444 52.3607 114.458 52.3467 114.458 52.328C114.458 52.3093 114.444 52.2953 114.416 52.286L113.282 51.754C113.17 51.698 113.1 51.6233 113.072 51.53C113.044 51.4273 113.058 51.3247 113.114 51.222C113.17 51.1287 113.244 51.0727 113.338 51.054C113.44 51.0353 113.538 51.0587 113.632 51.124L114.654 51.852C114.682 51.8613 114.705 51.8613 114.724 51.852C114.742 51.8427 114.747 51.824 114.738 51.796L114.626 50.564C114.616 50.452 114.644 50.3587 114.71 50.284C114.784 50.2093 114.878 50.172 114.99 50.172C115.092 50.172 115.176 50.2093 115.242 50.284C115.316 50.3587 115.344 50.452 115.326 50.564L115.228 51.796C115.218 51.824 115.223 51.8427 115.242 51.852C115.26 51.8613 115.279 51.8613 115.298 51.852L116.334 51.124C116.427 51.0587 116.525 51.04 116.628 51.068C116.73 51.0867 116.805 51.1427 116.852 51.236C116.917 51.348 116.931 51.4507 116.894 51.544C116.856 51.6373 116.786 51.7073 116.684 51.754L115.536 52.286C115.508 52.2953 115.494 52.3093 115.494 52.328C115.494 52.3467 115.508 52.3607 115.536 52.37L116.684 52.902C116.786 52.9487 116.856 53.0233 116.894 53.126C116.931 53.2193 116.917 53.3127 116.852 53.406C116.805 53.5087 116.73 53.5693 116.628 53.588C116.525 53.6067 116.427 53.588 116.334 53.532L115.298 52.804C115.279 52.7853 115.26 52.7807 115.242 52.79C115.223 52.7993 115.218 52.818 115.228 52.846L115.326 54.078C115.344 54.19 115.316 54.288 115.242 54.372C115.167 54.4467 115.074 54.484 114.962 54.484ZM120.48 60C120.312 60 120.172 59.944 120.06 59.832C119.948 59.72 119.892 59.5847 119.892 59.426V51.46L120.06 51.656L118.478 52.748C118.384 52.8133 118.277 52.846 118.156 52.846C117.997 52.846 117.862 52.79 117.75 52.678C117.638 52.5567 117.582 52.4213 117.582 52.272C117.582 52.0667 117.68 51.9033 117.876 51.782L120.102 50.312C120.176 50.2653 120.251 50.2327 120.326 50.214C120.4 50.1953 120.475 50.1907 120.55 50.2C120.718 50.2 120.848 50.256 120.942 50.368C121.044 50.4707 121.096 50.6013 121.096 50.76V59.426C121.096 59.5847 121.035 59.72 120.914 59.832C120.802 59.944 120.657 60 120.48 60ZM123.881 58.376C123.937 58.376 123.998 58.39 124.063 58.418C124.138 58.4367 124.217 58.4833 124.301 58.558C124.488 58.726 124.707 58.8613 124.959 58.964C125.211 59.0667 125.501 59.118 125.827 59.118C126.229 59.118 126.597 59.0293 126.933 58.852C127.269 58.6653 127.54 58.404 127.745 58.068C127.96 57.732 128.067 57.3447 128.067 56.906C128.067 56.43 127.96 56.0427 127.745 55.744C127.54 55.436 127.274 55.212 126.947 55.072C126.63 54.9227 126.294 54.848 125.939 54.848C125.809 54.848 125.687 54.8573 125.575 54.876C125.463 54.8947 125.356 54.918 125.253 54.946C125.16 54.974 125.071 54.988 124.987 54.988C124.838 54.988 124.721 54.9367 124.637 54.834C124.553 54.7313 124.511 54.6053 124.511 54.456C124.511 54.372 124.525 54.2973 124.553 54.232C124.591 54.1573 124.647 54.078 124.721 53.994L127.437 51.054L127.661 51.32H123.685C123.536 51.32 123.41 51.2687 123.307 51.166C123.205 51.0633 123.153 50.9373 123.153 50.788C123.153 50.6387 123.205 50.5173 123.307 50.424C123.41 50.3213 123.536 50.27 123.685 50.27H128.249C128.455 50.27 128.604 50.3307 128.697 50.452C128.791 50.564 128.837 50.69 128.837 50.83C128.837 50.914 128.814 50.9933 128.767 51.068C128.73 51.1427 128.679 51.2127 128.613 51.278L125.897 54.232L125.575 53.952C125.622 53.9147 125.729 53.882 125.897 53.854C126.065 53.8167 126.205 53.798 126.317 53.798C126.84 53.798 127.321 53.924 127.759 54.176C128.198 54.428 128.548 54.7827 128.809 55.24C129.071 55.6973 129.201 56.2293 129.201 56.836C129.201 57.508 129.047 58.0913 128.739 58.586C128.431 59.0807 128.007 59.4633 127.465 59.734C126.933 60.0047 126.331 60.14 125.659 60.14C125.286 60.14 124.917 60.084 124.553 59.972C124.199 59.8507 123.891 59.678 123.629 59.454C123.508 59.3887 123.424 59.314 123.377 59.23C123.34 59.146 123.321 59.062 123.321 58.978C123.321 58.838 123.373 58.7027 123.475 58.572C123.587 58.4413 123.723 58.376 123.881 58.376ZM134.134 60.14C133.359 60.14 132.711 59.9207 132.188 59.482C131.675 59.0433 131.283 58.4413 131.012 57.676C130.751 56.9107 130.62 56.052 130.62 55.1C130.62 54.1293 130.751 53.266 131.012 52.51C131.283 51.754 131.675 51.1567 132.188 50.718C132.711 50.2793 133.359 50.06 134.134 50.06C134.909 50.06 135.553 50.2793 136.066 50.718C136.589 51.1567 136.981 51.754 137.242 52.51C137.503 53.266 137.634 54.1293 137.634 55.1C137.634 56.052 137.503 56.9107 137.242 57.676C136.981 58.4413 136.589 59.0433 136.066 59.482C135.553 59.9207 134.909 60.14 134.134 60.14ZM134.134 59.006C134.629 59.006 135.044 58.8473 135.38 58.53C135.725 58.2127 135.987 57.7647 136.164 57.186C136.341 56.598 136.43 55.9027 136.43 55.1C136.43 54.288 136.341 53.5927 136.164 53.014C135.987 52.426 135.725 51.978 135.38 51.67C135.044 51.3527 134.629 51.194 134.134 51.194C133.639 51.194 133.219 51.3527 132.874 51.67C132.538 51.978 132.277 52.426 132.09 53.014C131.913 53.5927 131.824 54.288 131.824 55.1C131.824 55.9027 131.913 56.598 132.09 57.186C132.277 57.7647 132.538 58.2127 132.874 58.53C133.219 58.8473 133.639 59.006 134.134 59.006ZM142.346 60.14C141.814 60.14 141.343 60.042 140.932 59.846C140.531 59.6407 140.195 59.3653 139.924 59.02C139.653 58.6747 139.448 58.2873 139.308 57.858C139.168 57.4287 139.098 56.9853 139.098 56.528C139.098 56.1267 139.149 55.6787 139.252 55.184C139.355 54.6893 139.509 54.1853 139.714 53.672C139.929 53.1493 140.204 52.65 140.54 52.174C140.876 51.698 141.277 51.2733 141.744 50.9C142.211 50.5173 142.747 50.2233 143.354 50.018C143.438 49.9993 143.513 49.99 143.578 49.99C143.727 49.99 143.858 50.032 143.97 50.116C144.091 50.1907 144.152 50.3307 144.152 50.536C144.152 50.6667 144.11 50.7833 144.026 50.886C143.942 50.9793 143.83 51.0493 143.69 51.096C143.317 51.236 142.948 51.4413 142.584 51.712C142.229 51.9733 141.898 52.286 141.59 52.65C141.291 53.0047 141.03 53.392 140.806 53.812C140.591 54.2227 140.442 54.652 140.358 55.1L140.022 55.212C140.181 54.96 140.381 54.722 140.624 54.498C140.867 54.274 141.147 54.092 141.464 53.952C141.791 53.812 142.145 53.742 142.528 53.742C142.939 53.742 143.321 53.8307 143.676 54.008C144.031 54.1853 144.343 54.4233 144.614 54.722C144.885 55.0207 145.095 55.366 145.244 55.758C145.403 56.1407 145.482 56.542 145.482 56.962C145.482 57.5313 145.342 58.0587 145.062 58.544C144.791 59.02 144.418 59.4073 143.942 59.706C143.475 59.9953 142.943 60.14 142.346 60.14ZM142.332 59.09C142.715 59.09 143.055 59.0013 143.354 58.824C143.662 58.6373 143.905 58.3853 144.082 58.068C144.259 57.7413 144.348 57.3727 144.348 56.962C144.348 56.5793 144.269 56.2247 144.11 55.898C143.951 55.5713 143.723 55.31 143.424 55.114C143.135 54.9087 142.785 54.806 142.374 54.806C141.935 54.806 141.557 54.904 141.24 55.1C140.923 55.296 140.675 55.562 140.498 55.898C140.33 56.2247 140.246 56.5887 140.246 56.99C140.246 57.3633 140.33 57.7087 140.498 58.026C140.666 58.3433 140.904 58.6 141.212 58.796C141.529 58.992 141.903 59.09 142.332 59.09Z" fill="#2A2F33"/>
<path d="M48.8986 31.9882H20.0671C18.872 31.9882 17.9032 32.9519 17.9032 34.1407V51.2393C17.9032 52.4281 18.872 53.3918 20.0671 53.3918H48.8986C50.0938 53.3918 51.0626 52.4281 51.0626 51.2393V34.1407C51.0626 32.9519 50.0938 31.9882 48.8986 31.9882Z" fill="#D58900"/>
<path d="M17.9032 35.4904H51.0626V40.1298H17.9032V35.4904Z" fill="#FFDD6A"/>
<path d="M46.8353 49.0338H42.9462C42.4341 49.0338 42.0189 49.4468 42.0189 49.9562V50.3983C42.0189 50.9077 42.4341 51.3207 42.9462 51.3207H46.8353C47.3474 51.3207 47.7626 50.9077 47.7626 50.3983V49.9562C47.7626 49.4468 47.3474 49.0338 46.8353 49.0338Z" fill="#FFD752"/>
<path d="M34.0286 41.995H21.2351C20.9842 41.995 20.7809 42.1973 20.7809 42.4468V44.2687C20.7809 44.5182 20.9842 44.7205 21.2351 44.7205H34.0286C34.2795 44.7205 34.4828 44.5182 34.4828 44.2687V42.4468C34.4828 42.1973 34.2795 41.995 34.0286 41.995Z" fill="#FFD752"/>
<defs>
<linearGradient id="paint0_linear_619_12844" x1="148.5" y1="0" x2="148.5" y2="86" gradientUnits="userSpaceOnUse">
<stop stop-color="#FFE384"/>
<stop offset="1" stop-color="#FFCF35"/>
</linearGradient>
</defs>
</svg>
