<svg width="91" height="87" viewBox="0 0 91 87" fill="none" xmlns="http://www.w3.org/2000/svg">
<path d="M3.3721 24.703L3.37209 24.703C3.21799 23.7458 3.70214 22.9346 4.46159 22.4994C5.2228 22.0631 6.22334 22.0295 7.05688 22.6272L7.0569 22.6272L23.225 34.2202C25.2202 35.6508 28.0656 35.1927 29.4593 33.1937C29.4593 33.1937 29.4593 33.1937 29.4593 33.1937L42.9196 13.8906C44.1431 12.1361 46.8557 12.1361 48.0792 13.8906L61.5395 33.1937C61.5395 33.1937 61.5395 33.1937 61.5395 33.1937C62.9333 35.1928 65.7787 35.6505 67.7738 34.2203L67.4825 33.8139L67.7738 34.2202L83.942 22.6272L83.6506 22.2209L83.942 22.6272C85.6459 21.4053 87.9306 22.8163 87.627 24.7031L82.5052 56.532H8.49398L3.3721 24.703Z" fill="url(#paint0_linear_658_315)" stroke="#D58900"/>
<path d="M79.0279 74.4249H11.9712C10.0703 74.4249 8.56812 72.9571 8.56812 71.1934V63.4963H82.4313V71.1934C82.431 72.9571 80.9287 74.4249 79.0279 74.4249Z" fill="url(#paint1_linear_658_315)" stroke="#D58900"/>
<defs>
<linearGradient id="paint0_linear_658_315" x1="45.4995" y1="12.0747" x2="45.4995" y2="57.032" gradientUnits="userSpaceOnUse">
<stop stop-color="#FEEEAB"/>
<stop offset="1" stop-color="#E4B31A"/>
</linearGradient>
<linearGradient id="paint1_linear_658_315" x1="45.4997" y1="62.9963" x2="45.4997" y2="74.9249" gradientUnits="userSpaceOnUse">
<stop stop-color="#FEEEAB"/>
<stop offset="1" stop-color="#E4B31A"/>
</linearGradient>
</defs>
</svg>
