<svg width="297" height="123" viewBox="0 0 297 123" fill="none" xmlns="http://www.w3.org/2000/svg">
<rect width="297" height="123" rx="20" fill="url(#paint0_linear_619_12923)"/>
<path d="M73.312 27.312L69.856 35.44C69.7813 35.6427 69.664 35.8027 69.504 35.92C69.3547 36.0267 69.1893 36.08 69.008 36.08C68.72 36.08 68.5067 36 68.368 35.84C68.2293 35.68 68.16 35.4827 68.16 35.248C68.16 35.152 68.176 35.0507 68.208 34.944L72.192 25.376C72.2773 25.1627 72.4053 24.9973 72.576 24.88C72.7573 24.7627 72.9493 24.7147 73.152 24.736C73.344 24.736 73.52 24.7947 73.68 24.912C73.8507 25.0187 73.9733 25.1733 74.048 25.376L77.984 34.752C78.0373 34.8907 78.064 35.0187 78.064 35.136C78.064 35.424 77.968 35.6533 77.776 35.824C77.5947 35.9947 77.392 36.08 77.168 36.08C76.976 36.08 76.8 36.0213 76.64 35.904C76.4907 35.7867 76.3733 35.6267 76.288 35.424L72.848 27.408L73.312 27.312ZM70.352 33.488L71.232 31.648H75.552L75.856 33.488H70.352ZM78.8696 27.44C79.0723 27.44 79.259 27.4933 79.4296 27.6C79.6003 27.696 79.7283 27.8453 79.8136 28.048L82.1656 33.424L81.8136 33.584L84.2136 28.064C84.395 27.6373 84.6776 27.4347 85.0616 27.456C85.3283 27.456 85.5416 27.5413 85.7016 27.712C85.8723 27.872 85.9576 28.0747 85.9576 28.32C85.9576 28.3947 85.9416 28.4747 85.9096 28.56C85.8883 28.6453 85.8616 28.7253 85.8296 28.8L82.8376 35.392C82.667 35.776 82.395 35.9787 82.0216 36C81.819 36.032 81.6216 35.9947 81.4296 35.888C81.2483 35.7813 81.1096 35.616 81.0136 35.392L78.0376 28.8C78.0163 28.7467 77.9896 28.6773 77.9576 28.592C77.9363 28.5067 77.9256 28.4053 77.9256 28.288C77.9256 28.096 78.011 27.9093 78.1816 27.728C78.3523 27.536 78.5816 27.44 78.8696 27.44ZM94.1268 27.28C94.4041 27.28 94.6334 27.3707 94.8148 27.552C94.9961 27.7333 95.0868 27.968 95.0868 28.256V35.024C95.0868 35.3013 94.9961 35.536 94.8148 35.728C94.6334 35.9093 94.4041 36 94.1268 36C93.8494 36 93.6201 35.9093 93.4388 35.728C93.2574 35.536 93.1668 35.3013 93.1668 35.024V34.24L93.5188 34.384C93.5188 34.5227 93.4441 34.6933 93.2948 34.896C93.1454 35.088 92.9428 35.28 92.6868 35.472C92.4308 35.664 92.1268 35.8293 91.7748 35.968C91.4334 36.096 91.0601 36.16 90.6548 36.16C89.9188 36.16 89.2521 35.9733 88.6548 35.6C88.0574 35.216 87.5828 34.6933 87.2308 34.032C86.8894 33.36 86.7188 32.592 86.7188 31.728C86.7188 30.8533 86.8894 30.0853 87.2308 29.424C87.5828 28.752 88.0521 28.2293 88.6388 27.856C89.2254 27.472 89.8761 27.28 90.5908 27.28C91.0494 27.28 91.4708 27.3493 91.8548 27.488C92.2388 27.6267 92.5694 27.8027 92.8468 28.016C93.1348 28.2293 93.3534 28.448 93.5028 28.672C93.6628 28.8853 93.7428 29.0667 93.7428 29.216L93.1668 29.424V28.256C93.1668 27.9787 93.2574 27.7493 93.4388 27.568C93.6201 27.376 93.8494 27.28 94.1268 27.28ZM90.8948 34.4C91.3641 34.4 91.7748 34.2827 92.1268 34.048C92.4788 33.8133 92.7508 33.4933 92.9428 33.088C93.1454 32.6827 93.2468 32.2293 93.2468 31.728C93.2468 31.216 93.1454 30.7573 92.9428 30.352C92.7508 29.9467 92.4788 29.6267 92.1268 29.392C91.7748 29.1573 91.3641 29.04 90.8948 29.04C90.4361 29.04 90.0308 29.1573 89.6788 29.392C89.3268 29.6267 89.0494 29.9467 88.8468 30.352C88.6548 30.7573 88.5588 31.216 88.5588 31.728C88.5588 32.2293 88.6548 32.6827 88.8468 33.088C89.0494 33.4933 89.3268 33.8133 89.6788 34.048C90.0308 34.2827 90.4361 34.4 90.8948 34.4ZM103.778 36.16C103.17 36.16 102.605 36.0373 102.082 35.792C101.559 35.5467 101.133 35.1947 100.802 34.736C100.674 34.544 100.61 34.3573 100.61 34.176C100.61 33.9093 100.711 33.6853 100.914 33.504C101.127 33.3227 101.335 33.232 101.538 33.232C101.698 33.232 101.853 33.28 102.002 33.376C102.162 33.472 102.306 33.584 102.434 33.712C102.647 33.904 102.855 34.0427 103.058 34.128C103.271 34.2027 103.511 34.24 103.778 34.24C104.098 34.24 104.397 34.16 104.674 34C104.951 33.84 105.175 33.6267 105.346 33.36C105.517 33.0933 105.602 32.8053 105.602 32.496V25.776C105.602 25.4987 105.703 25.2693 105.906 25.088C106.109 24.896 106.343 24.8 106.61 24.8C106.909 24.8 107.149 24.896 107.33 25.088C107.511 25.2693 107.602 25.4987 107.602 25.776V32.496C107.602 33.1467 107.431 33.7493 107.09 34.304C106.749 34.8587 106.29 35.3067 105.714 35.648C105.138 35.9893 104.493 36.16 103.778 36.16ZM117.822 31.728C117.822 32.6027 117.625 33.376 117.23 34.048C116.846 34.7093 116.323 35.2267 115.662 35.6C115.011 35.9733 114.281 36.16 113.47 36.16C112.659 36.16 111.923 35.9733 111.262 35.6C110.611 35.2267 110.089 34.7093 109.694 34.048C109.31 33.376 109.118 32.6027 109.118 31.728C109.118 30.8533 109.31 30.0853 109.694 29.424C110.089 28.752 110.611 28.2293 111.262 27.856C111.923 27.472 112.659 27.28 113.47 27.28C114.281 27.28 115.011 27.472 115.662 27.856C116.323 28.2293 116.846 28.752 117.23 29.424C117.625 30.0853 117.822 30.8533 117.822 31.728ZM115.902 31.728C115.902 31.184 115.79 30.7147 115.566 30.32C115.353 29.9147 115.059 29.6 114.686 29.376C114.323 29.152 113.918 29.04 113.47 29.04C113.022 29.04 112.611 29.152 112.238 29.376C111.875 29.6 111.582 29.9147 111.358 30.32C111.145 30.7147 111.038 31.184 111.038 31.728C111.038 32.2613 111.145 32.7307 111.358 33.136C111.582 33.5307 111.875 33.84 112.238 34.064C112.611 34.288 113.022 34.4 113.47 34.4C113.918 34.4 114.323 34.288 114.686 34.064C115.059 33.84 115.353 33.5307 115.566 33.136C115.79 32.7307 115.902 32.2613 115.902 31.728ZM123.679 27.28C124.447 27.28 125.028 27.4453 125.423 27.776C125.828 28.1067 126.105 28.5493 126.255 29.104C126.404 29.648 126.479 30.256 126.479 30.928V35.024C126.479 35.3013 126.388 35.536 126.207 35.728C126.025 35.9093 125.796 36 125.519 36C125.241 36 125.012 35.9093 124.831 35.728C124.649 35.536 124.559 35.3013 124.559 35.024V30.928C124.559 30.576 124.516 30.2613 124.431 29.984C124.345 29.696 124.191 29.4667 123.967 29.296C123.743 29.1253 123.423 29.04 123.007 29.04C122.601 29.04 122.255 29.1253 121.967 29.296C121.679 29.4667 121.46 29.696 121.311 29.984C121.172 30.2613 121.103 30.576 121.103 30.928V35.024C121.103 35.3013 121.012 35.536 120.831 35.728C120.649 35.9093 120.42 36 120.143 36C119.865 36 119.636 35.9093 119.455 35.728C119.273 35.536 119.183 35.3013 119.183 35.024V25.136C119.183 24.8587 119.273 24.6293 119.455 24.448C119.636 24.256 119.865 24.16 120.143 24.16C120.42 24.16 120.649 24.256 120.831 24.448C121.012 24.6293 121.103 24.8587 121.103 25.136V29.104L120.863 29.056C120.959 28.8747 121.092 28.6827 121.263 28.48C121.433 28.2667 121.641 28.0693 121.887 27.888C122.132 27.7067 122.404 27.5627 122.703 27.456C123.001 27.3387 123.327 27.28 123.679 27.28ZM132.813 27.28C133.603 27.28 134.2 27.4453 134.605 27.776C135.021 28.1067 135.304 28.5493 135.453 29.104C135.613 29.648 135.693 30.256 135.693 30.928V35.024C135.693 35.3013 135.603 35.536 135.421 35.728C135.24 35.9093 135.011 36 134.733 36C134.456 36 134.227 35.9093 134.045 35.728C133.864 35.536 133.773 35.3013 133.773 35.024V30.928C133.773 30.576 133.725 30.2613 133.629 29.984C133.544 29.696 133.384 29.4667 133.149 29.296C132.915 29.1253 132.579 29.04 132.141 29.04C131.715 29.04 131.352 29.1253 131.053 29.296C130.765 29.4667 130.541 29.696 130.381 29.984C130.232 30.2613 130.157 30.576 130.157 30.928V35.024C130.157 35.3013 130.067 35.536 129.885 35.728C129.704 35.9093 129.475 36 129.197 36C128.92 36 128.691 35.9093 128.509 35.728C128.328 35.536 128.237 35.3013 128.237 35.024V28.416C128.237 28.1387 128.328 27.9093 128.509 27.728C128.691 27.536 128.92 27.44 129.197 27.44C129.475 27.44 129.704 27.536 129.885 27.728C130.067 27.9093 130.157 28.1387 130.157 28.416V29.104L129.917 29.056C130.013 28.8747 130.152 28.6827 130.333 28.48C130.515 28.2667 130.728 28.0693 130.973 27.888C131.219 27.7067 131.496 27.5627 131.805 27.456C132.115 27.3387 132.451 27.28 132.813 27.28ZM136.953 34.672C136.846 34.5227 136.798 34.3307 136.809 34.096C136.819 33.8613 136.958 33.6587 137.225 33.488C137.395 33.3813 137.577 33.3387 137.769 33.36C137.961 33.3707 138.147 33.4667 138.329 33.648C138.638 33.9573 138.963 34.1973 139.305 34.368C139.646 34.5387 140.073 34.624 140.585 34.624C140.745 34.6133 140.921 34.592 141.113 34.56C141.305 34.5173 141.47 34.432 141.609 34.304C141.758 34.1653 141.833 33.9573 141.833 33.68C141.833 33.4453 141.753 33.2587 141.593 33.12C141.433 32.9813 141.219 32.864 140.953 32.768C140.697 32.672 140.409 32.5813 140.089 32.496C139.758 32.4 139.417 32.2933 139.065 32.176C138.723 32.0587 138.409 31.9093 138.121 31.728C137.833 31.536 137.598 31.2853 137.417 30.976C137.235 30.6667 137.145 30.2773 137.145 29.808C137.145 29.2747 137.294 28.8213 137.593 28.448C137.891 28.0747 138.275 27.7867 138.745 27.584C139.225 27.3813 139.726 27.28 140.249 27.28C140.579 27.28 140.926 27.3227 141.289 27.408C141.651 27.4827 141.998 27.6107 142.329 27.792C142.659 27.9627 142.937 28.192 143.161 28.48C143.278 28.64 143.347 28.832 143.369 29.056C143.39 29.28 143.289 29.4827 143.065 29.664C142.905 29.792 142.718 29.8507 142.505 29.84C142.291 29.8187 142.115 29.744 141.977 29.616C141.795 29.3813 141.55 29.1947 141.241 29.056C140.942 28.9173 140.595 28.848 140.201 28.848C140.041 28.848 139.865 28.8693 139.673 28.912C139.491 28.944 139.331 29.024 139.193 29.152C139.054 29.2693 138.985 29.4613 138.985 29.728C138.985 29.9733 139.065 30.1707 139.225 30.32C139.385 30.4587 139.598 30.576 139.865 30.672C140.142 30.7573 140.435 30.8427 140.745 30.928C141.065 31.0133 141.39 31.1147 141.721 31.232C142.051 31.3493 142.355 31.504 142.633 31.696C142.91 31.888 143.134 32.1387 143.305 32.448C143.475 32.7467 143.561 33.1307 143.561 33.6C143.561 34.144 143.401 34.608 143.081 34.992C142.761 35.376 142.361 35.6693 141.881 35.872C141.401 36.064 140.91 36.16 140.409 36.16C139.779 36.16 139.15 36.0533 138.521 35.84C137.891 35.616 137.369 35.2267 136.953 34.672Z" fill="#23003D"/>
<path opacity="0.5" d="M69.358 56.376C69.414 56.376 69.4747 56.39 69.54 56.418C69.6147 56.4367 69.694 56.4833 69.778 56.558C69.9647 56.726 70.184 56.8613 70.436 56.964C70.688 57.0667 70.9773 57.118 71.304 57.118C71.7053 57.118 72.074 57.0293 72.41 56.852C72.746 56.6653 73.0167 56.404 73.222 56.068C73.4367 55.732 73.544 55.3447 73.544 54.906C73.544 54.43 73.4367 54.0427 73.222 53.744C73.0167 53.436 72.7507 53.212 72.424 53.072C72.1067 52.9227 71.7707 52.848 71.416 52.848C71.2853 52.848 71.164 52.8573 71.052 52.876C70.94 52.8947 70.8327 52.918 70.73 52.946C70.6367 52.974 70.548 52.988 70.464 52.988C70.3147 52.988 70.198 52.9367 70.114 52.834C70.03 52.7313 69.988 52.6053 69.988 52.456C69.988 52.372 70.002 52.2973 70.03 52.232C70.0673 52.1573 70.1233 52.078 70.198 51.994L72.914 49.054L73.138 49.32H69.162C69.0127 49.32 68.8867 49.2687 68.784 49.166C68.6813 49.0633 68.63 48.9373 68.63 48.788C68.63 48.6387 68.6813 48.5173 68.784 48.424C68.8867 48.3213 69.0127 48.27 69.162 48.27H73.726C73.9313 48.27 74.0807 48.3307 74.174 48.452C74.2673 48.564 74.314 48.69 74.314 48.83C74.314 48.914 74.2907 48.9933 74.244 49.068C74.2067 49.1427 74.1553 49.2127 74.09 49.278L71.374 52.232L71.052 51.952C71.0987 51.9147 71.206 51.882 71.374 51.854C71.542 51.8167 71.682 51.798 71.794 51.798C72.3167 51.798 72.7973 51.924 73.236 52.176C73.6747 52.428 74.0247 52.7827 74.286 53.24C74.5473 53.6973 74.678 54.2293 74.678 54.836C74.678 55.508 74.524 56.0913 74.216 56.586C73.908 57.0807 73.4833 57.4633 72.942 57.734C72.41 58.0047 71.808 58.14 71.136 58.14C70.7627 58.14 70.394 58.084 70.03 57.972C69.6753 57.8507 69.3673 57.678 69.106 57.454C68.9847 57.3887 68.9007 57.314 68.854 57.23C68.8167 57.146 68.798 57.062 68.798 56.978C68.798 56.838 68.8493 56.7027 68.952 56.572C69.064 56.4413 69.1993 56.376 69.358 56.376ZM77.9865 58.042C77.8372 58.042 77.7018 57.9953 77.5805 57.902C77.4685 57.7993 77.4125 57.6687 77.4125 57.51C77.4125 57.426 77.4312 57.342 77.4685 57.258L81.0805 49.068L81.2485 49.32H76.7405C76.5912 49.32 76.4652 49.2733 76.3625 49.18C76.2598 49.0773 76.2085 48.9467 76.2085 48.788C76.2085 48.6387 76.2598 48.5173 76.3625 48.424C76.4652 48.3213 76.5912 48.27 76.7405 48.27H81.7945C81.9625 48.27 82.0978 48.3213 82.2005 48.424C82.3125 48.5267 82.3685 48.6573 82.3685 48.816C82.3685 48.9 82.3498 48.984 82.3125 49.068L78.5185 57.692C78.4718 57.804 78.3972 57.8927 78.2945 57.958C78.2012 58.014 78.0985 58.042 77.9865 58.042ZM86.07 58.056C85.6966 58.056 85.314 58 84.922 57.888C84.5393 57.7667 84.2033 57.5893 83.914 57.356C83.8393 57.2907 83.7786 57.2067 83.732 57.104C83.6853 57.0013 83.662 56.9033 83.662 56.81C83.662 56.698 83.7086 56.5907 83.802 56.488C83.9046 56.376 84.0353 56.32 84.194 56.32C84.3153 56.32 84.4553 56.3807 84.614 56.502C84.8193 56.6607 85.048 56.7867 85.3 56.88C85.552 56.9733 85.804 57.02 86.056 57.02C86.5786 57.02 87.0313 56.922 87.414 56.726C87.7966 56.53 88.0906 56.2547 88.296 55.9C88.5013 55.5453 88.604 55.13 88.604 54.654C88.604 54.2247 88.506 53.8513 88.31 53.534C88.1233 53.2073 87.8573 52.9553 87.512 52.778C87.176 52.6007 86.7886 52.512 86.35 52.512C86.0233 52.512 85.7293 52.5633 85.468 52.666C85.216 52.7593 84.992 52.8573 84.796 52.96C84.6093 53.0627 84.446 53.114 84.306 53.114C84.1286 53.114 83.9933 53.0767 83.9 53.002C83.8066 52.918 83.746 52.8153 83.718 52.694C83.69 52.5727 83.6806 52.4607 83.69 52.358L84.236 48.732C84.264 48.6107 84.3293 48.5033 84.432 48.41C84.5346 48.3167 84.6606 48.27 84.81 48.27H88.968C89.1173 48.27 89.2433 48.3213 89.346 48.424C89.4486 48.5267 89.5 48.6573 89.5 48.816C89.5 48.9653 89.4486 49.0913 89.346 49.194C89.2433 49.2873 89.1173 49.334 88.968 49.334H85.09L85.23 49.208L84.712 52.372L84.488 52.078C84.5906 51.9847 84.7446 51.8913 84.95 51.798C85.1646 51.7047 85.4073 51.6253 85.678 51.56C85.958 51.4947 86.2426 51.462 86.532 51.462C87.1386 51.462 87.68 51.602 88.156 51.882C88.6413 52.1527 89.024 52.526 89.304 53.002C89.584 53.478 89.724 54.024 89.724 54.64C89.724 55.3213 89.5746 55.9187 89.276 56.432C88.9773 56.9453 88.5526 57.3467 88.002 57.636C87.4606 57.916 86.8166 58.056 86.07 58.056ZM94.7453 58.14C93.9706 58.14 93.3219 57.9207 92.7993 57.482C92.2859 57.0433 91.8939 56.4413 91.6233 55.676C91.3619 54.9107 91.2313 54.052 91.2313 53.1C91.2313 52.1293 91.3619 51.266 91.6233 50.51C91.8939 49.754 92.2859 49.1567 92.7993 48.718C93.3219 48.2793 93.9706 48.06 94.7453 48.06C95.5199 48.06 96.1639 48.2793 96.6773 48.718C97.1999 49.1567 97.5919 49.754 97.8533 50.51C98.1146 51.266 98.2452 52.1293 98.2452 53.1C98.2452 54.052 98.1146 54.9107 97.8533 55.676C97.5919 56.4413 97.1999 57.0433 96.6773 57.482C96.1639 57.9207 95.5199 58.14 94.7453 58.14ZM94.7453 57.006C95.2399 57.006 95.6553 56.8473 95.9913 56.53C96.3366 56.2127 96.5979 55.7647 96.7753 55.186C96.9526 54.598 97.0413 53.9027 97.0413 53.1C97.0413 52.288 96.9526 51.5927 96.7753 51.014C96.5979 50.426 96.3366 49.978 95.9913 49.67C95.6553 49.3527 95.2399 49.194 94.7453 49.194C94.2506 49.194 93.8306 49.3527 93.4853 49.67C93.1493 49.978 92.8879 50.426 92.7013 51.014C92.5239 51.5927 92.4353 52.288 92.4353 53.1C92.4353 53.9027 92.5239 54.598 92.7013 55.186C92.8879 55.7647 93.1493 56.2127 93.4853 56.53C93.8306 56.8473 94.2506 57.006 94.7453 57.006ZM101.221 52.484C101.119 52.484 101.035 52.4467 100.969 52.372C100.904 52.288 100.876 52.19 100.885 52.078L100.997 50.846C101.007 50.818 101.002 50.7993 100.983 50.79C100.965 50.7807 100.941 50.7853 100.913 50.804L99.8915 51.518C99.7981 51.5833 99.7001 51.6067 99.5975 51.588C99.5041 51.5693 99.4248 51.5087 99.3595 51.406C99.3035 51.294 99.2941 51.1913 99.3315 51.098C99.3688 51.0047 99.4388 50.9393 99.5415 50.902L100.675 50.37C100.703 50.3607 100.717 50.3467 100.717 50.328C100.717 50.3093 100.703 50.2953 100.675 50.286L99.5415 49.754C99.4295 49.698 99.3595 49.6233 99.3315 49.53C99.3035 49.4273 99.3175 49.3247 99.3735 49.222C99.4295 49.1287 99.5041 49.0727 99.5975 49.054C99.7001 49.0353 99.7981 49.0587 99.8915 49.124L100.913 49.852C100.941 49.8613 100.965 49.8613 100.983 49.852C101.002 49.8427 101.007 49.824 100.997 49.796L100.885 48.564C100.876 48.452 100.904 48.3587 100.969 48.284C101.044 48.2093 101.137 48.172 101.249 48.172C101.352 48.172 101.436 48.2093 101.501 48.284C101.576 48.3587 101.604 48.452 101.585 48.564L101.487 49.796C101.478 49.824 101.483 49.8427 101.501 49.852C101.52 49.8613 101.539 49.8613 101.557 49.852L102.593 49.124C102.687 49.0587 102.785 49.04 102.887 49.068C102.99 49.0867 103.065 49.1427 103.111 49.236C103.177 49.348 103.191 49.4507 103.153 49.544C103.116 49.6373 103.046 49.7073 102.943 49.754L101.795 50.286C101.767 50.2953 101.753 50.3093 101.753 50.328C101.753 50.3467 101.767 50.3607 101.795 50.37L102.943 50.902C103.046 50.9487 103.116 51.0233 103.153 51.126C103.191 51.2193 103.177 51.3127 103.111 51.406C103.065 51.5087 102.99 51.5693 102.887 51.588C102.785 51.6067 102.687 51.588 102.593 51.532L101.557 50.804C101.539 50.7853 101.52 50.7807 101.501 50.79C101.483 50.7993 101.478 50.818 101.487 50.846L101.585 52.078C101.604 52.19 101.576 52.288 101.501 52.372C101.427 52.4467 101.333 52.484 101.221 52.484ZM105.802 52.484C105.699 52.484 105.615 52.4467 105.55 52.372C105.484 52.288 105.456 52.19 105.466 52.078L105.578 50.846C105.587 50.818 105.582 50.7993 105.564 50.79C105.545 50.7807 105.522 50.7853 105.494 50.804L104.472 51.518C104.378 51.5833 104.28 51.6067 104.178 51.588C104.084 51.5693 104.005 51.5087 103.94 51.406C103.884 51.294 103.874 51.1913 103.912 51.098C103.949 51.0047 104.019 50.9393 104.122 50.902L105.256 50.37C105.284 50.3607 105.298 50.3467 105.298 50.328C105.298 50.3093 105.284 50.2953 105.256 50.286L104.122 49.754C104.01 49.698 103.94 49.6233 103.912 49.53C103.884 49.4273 103.898 49.3247 103.954 49.222C104.01 49.1287 104.084 49.0727 104.178 49.054C104.28 49.0353 104.378 49.0587 104.472 49.124L105.494 49.852C105.522 49.8613 105.545 49.8613 105.564 49.852C105.582 49.8427 105.587 49.824 105.578 49.796L105.466 48.564C105.456 48.452 105.484 48.3587 105.55 48.284C105.624 48.2093 105.718 48.172 105.83 48.172C105.932 48.172 106.016 48.2093 106.082 48.284C106.156 48.3587 106.184 48.452 106.166 48.564L106.068 49.796C106.058 49.824 106.063 49.8427 106.082 49.852C106.1 49.8613 106.119 49.8613 106.138 49.852L107.174 49.124C107.267 49.0587 107.365 49.04 107.468 49.068C107.57 49.0867 107.645 49.1427 107.692 49.236C107.757 49.348 107.771 49.4507 107.734 49.544C107.696 49.6373 107.626 49.7073 107.524 49.754L106.376 50.286C106.348 50.2953 106.334 50.3093 106.334 50.328C106.334 50.3467 106.348 50.3607 106.376 50.37L107.524 50.902C107.626 50.9487 107.696 51.0233 107.734 51.126C107.771 51.2193 107.757 51.3127 107.692 51.406C107.645 51.5087 107.57 51.5693 107.468 51.588C107.365 51.6067 107.267 51.588 107.174 51.532L106.138 50.804C106.119 50.7853 106.1 50.7807 106.082 50.79C106.063 50.7993 106.058 50.818 106.068 50.846L106.166 52.078C106.184 52.19 106.156 52.288 106.082 52.372C106.007 52.4467 105.914 52.484 105.802 52.484ZM110.382 52.484C110.279 52.484 110.195 52.4467 110.13 52.372C110.064 52.288 110.036 52.19 110.046 52.078L110.158 50.846C110.167 50.818 110.162 50.7993 110.144 50.79C110.125 50.7807 110.102 50.7853 110.074 50.804L109.052 51.518C108.958 51.5833 108.86 51.6067 108.758 51.588C108.664 51.5693 108.585 51.5087 108.52 51.406C108.464 51.294 108.454 51.1913 108.492 51.098C108.529 51.0047 108.599 50.9393 108.702 50.902L109.836 50.37C109.864 50.3607 109.878 50.3467 109.878 50.328C109.878 50.3093 109.864 50.2953 109.836 50.286L108.702 49.754C108.59 49.698 108.52 49.6233 108.492 49.53C108.464 49.4273 108.478 49.3247 108.534 49.222C108.59 49.1287 108.664 49.0727 108.758 49.054C108.86 49.0353 108.958 49.0587 109.052 49.124L110.074 49.852C110.102 49.8613 110.125 49.8613 110.144 49.852C110.162 49.8427 110.167 49.824 110.158 49.796L110.046 48.564C110.036 48.452 110.064 48.3587 110.13 48.284C110.204 48.2093 110.298 48.172 110.41 48.172C110.512 48.172 110.596 48.2093 110.662 48.284C110.736 48.3587 110.764 48.452 110.746 48.564L110.648 49.796C110.638 49.824 110.643 49.8427 110.662 49.852C110.68 49.8613 110.699 49.8613 110.718 49.852L111.754 49.124C111.847 49.0587 111.945 49.04 112.048 49.068C112.15 49.0867 112.225 49.1427 112.272 49.236C112.337 49.348 112.351 49.4507 112.314 49.544C112.276 49.6373 112.206 49.7073 112.104 49.754L110.956 50.286C110.928 50.2953 110.914 50.3093 110.914 50.328C110.914 50.3467 110.928 50.3607 110.956 50.37L112.104 50.902C112.206 50.9487 112.276 51.0233 112.314 51.126C112.351 51.2193 112.337 51.3127 112.272 51.406C112.225 51.5087 112.15 51.5693 112.048 51.588C111.945 51.6067 111.847 51.588 111.754 51.532L110.718 50.804C110.699 50.7853 110.68 50.7807 110.662 50.79C110.643 50.7993 110.638 50.818 110.648 50.846L110.746 52.078C110.764 52.19 110.736 52.288 110.662 52.372C110.587 52.4467 110.494 52.484 110.382 52.484ZM114.962 52.484C114.859 52.484 114.775 52.4467 114.71 52.372C114.644 52.288 114.616 52.19 114.626 52.078L114.738 50.846C114.747 50.818 114.742 50.7993 114.724 50.79C114.705 50.7807 114.682 50.7853 114.654 50.804L113.632 51.518C113.538 51.5833 113.44 51.6067 113.338 51.588C113.244 51.5693 113.165 51.5087 113.1 51.406C113.044 51.294 113.034 51.1913 113.072 51.098C113.109 51.0047 113.179 50.9393 113.282 50.902L114.416 50.37C114.444 50.3607 114.458 50.3467 114.458 50.328C114.458 50.3093 114.444 50.2953 114.416 50.286L113.282 49.754C113.17 49.698 113.1 49.6233 113.072 49.53C113.044 49.4273 113.058 49.3247 113.114 49.222C113.17 49.1287 113.244 49.0727 113.338 49.054C113.44 49.0353 113.538 49.0587 113.632 49.124L114.654 49.852C114.682 49.8613 114.705 49.8613 114.724 49.852C114.742 49.8427 114.747 49.824 114.738 49.796L114.626 48.564C114.616 48.452 114.644 48.3587 114.71 48.284C114.784 48.2093 114.878 48.172 114.99 48.172C115.092 48.172 115.176 48.2093 115.242 48.284C115.316 48.3587 115.344 48.452 115.326 48.564L115.228 49.796C115.218 49.824 115.223 49.8427 115.242 49.852C115.26 49.8613 115.279 49.8613 115.298 49.852L116.334 49.124C116.427 49.0587 116.525 49.04 116.628 49.068C116.73 49.0867 116.805 49.1427 116.852 49.236C116.917 49.348 116.931 49.4507 116.894 49.544C116.856 49.6373 116.786 49.7073 116.684 49.754L115.536 50.286C115.508 50.2953 115.494 50.3093 115.494 50.328C115.494 50.3467 115.508 50.3607 115.536 50.37L116.684 50.902C116.786 50.9487 116.856 51.0233 116.894 51.126C116.931 51.2193 116.917 51.3127 116.852 51.406C116.805 51.5087 116.73 51.5693 116.628 51.588C116.525 51.6067 116.427 51.588 116.334 51.532L115.298 50.804C115.279 50.7853 115.26 50.7807 115.242 50.79C115.223 50.7993 115.218 50.818 115.228 50.846L115.326 52.078C115.344 52.19 115.316 52.288 115.242 52.372C115.167 52.4467 115.074 52.484 114.962 52.484ZM120.48 58C120.312 58 120.172 57.944 120.06 57.832C119.948 57.72 119.892 57.5847 119.892 57.426V49.46L120.06 49.656L118.478 50.748C118.384 50.8133 118.277 50.846 118.156 50.846C117.997 50.846 117.862 50.79 117.75 50.678C117.638 50.5567 117.582 50.4213 117.582 50.272C117.582 50.0667 117.68 49.9033 117.876 49.782L120.102 48.312C120.176 48.2653 120.251 48.2327 120.326 48.214C120.4 48.1953 120.475 48.1907 120.55 48.2C120.718 48.2 120.848 48.256 120.942 48.368C121.044 48.4707 121.096 48.6013 121.096 48.76V57.426C121.096 57.5847 121.035 57.72 120.914 57.832C120.802 57.944 120.657 58 120.48 58ZM123.881 56.376C123.937 56.376 123.998 56.39 124.063 56.418C124.138 56.4367 124.217 56.4833 124.301 56.558C124.488 56.726 124.707 56.8613 124.959 56.964C125.211 57.0667 125.501 57.118 125.827 57.118C126.229 57.118 126.597 57.0293 126.933 56.852C127.269 56.6653 127.54 56.404 127.745 56.068C127.96 55.732 128.067 55.3447 128.067 54.906C128.067 54.43 127.96 54.0427 127.745 53.744C127.54 53.436 127.274 53.212 126.947 53.072C126.63 52.9227 126.294 52.848 125.939 52.848C125.809 52.848 125.687 52.8573 125.575 52.876C125.463 52.8947 125.356 52.918 125.253 52.946C125.16 52.974 125.071 52.988 124.987 52.988C124.838 52.988 124.721 52.9367 124.637 52.834C124.553 52.7313 124.511 52.6053 124.511 52.456C124.511 52.372 124.525 52.2973 124.553 52.232C124.591 52.1573 124.647 52.078 124.721 51.994L127.437 49.054L127.661 49.32H123.685C123.536 49.32 123.41 49.2687 123.307 49.166C123.205 49.0633 123.153 48.9373 123.153 48.788C123.153 48.6387 123.205 48.5173 123.307 48.424C123.41 48.3213 123.536 48.27 123.685 48.27H128.249C128.455 48.27 128.604 48.3307 128.697 48.452C128.791 48.564 128.837 48.69 128.837 48.83C128.837 48.914 128.814 48.9933 128.767 49.068C128.73 49.1427 128.679 49.2127 128.613 49.278L125.897 52.232L125.575 51.952C125.622 51.9147 125.729 51.882 125.897 51.854C126.065 51.8167 126.205 51.798 126.317 51.798C126.84 51.798 127.321 51.924 127.759 52.176C128.198 52.428 128.548 52.7827 128.809 53.24C129.071 53.6973 129.201 54.2293 129.201 54.836C129.201 55.508 129.047 56.0913 128.739 56.586C128.431 57.0807 128.007 57.4633 127.465 57.734C126.933 58.0047 126.331 58.14 125.659 58.14C125.286 58.14 124.917 58.084 124.553 57.972C124.199 57.8507 123.891 57.678 123.629 57.454C123.508 57.3887 123.424 57.314 123.377 57.23C123.34 57.146 123.321 57.062 123.321 56.978C123.321 56.838 123.373 56.7027 123.475 56.572C123.587 56.4413 123.723 56.376 123.881 56.376ZM134.134 58.14C133.359 58.14 132.711 57.9207 132.188 57.482C131.675 57.0433 131.283 56.4413 131.012 55.676C130.751 54.9107 130.62 54.052 130.62 53.1C130.62 52.1293 130.751 51.266 131.012 50.51C131.283 49.754 131.675 49.1567 132.188 48.718C132.711 48.2793 133.359 48.06 134.134 48.06C134.909 48.06 135.553 48.2793 136.066 48.718C136.589 49.1567 136.981 49.754 137.242 50.51C137.503 51.266 137.634 52.1293 137.634 53.1C137.634 54.052 137.503 54.9107 137.242 55.676C136.981 56.4413 136.589 57.0433 136.066 57.482C135.553 57.9207 134.909 58.14 134.134 58.14ZM134.134 57.006C134.629 57.006 135.044 56.8473 135.38 56.53C135.725 56.2127 135.987 55.7647 136.164 55.186C136.341 54.598 136.43 53.9027 136.43 53.1C136.43 52.288 136.341 51.5927 136.164 51.014C135.987 50.426 135.725 49.978 135.38 49.67C135.044 49.3527 134.629 49.194 134.134 49.194C133.639 49.194 133.219 49.3527 132.874 49.67C132.538 49.978 132.277 50.426 132.09 51.014C131.913 51.5927 131.824 52.288 131.824 53.1C131.824 53.9027 131.913 54.598 132.09 55.186C132.277 55.7647 132.538 56.2127 132.874 56.53C133.219 56.8473 133.639 57.006 134.134 57.006ZM142.346 58.14C141.814 58.14 141.343 58.042 140.932 57.846C140.531 57.6407 140.195 57.3653 139.924 57.02C139.653 56.6747 139.448 56.2873 139.308 55.858C139.168 55.4287 139.098 54.9853 139.098 54.528C139.098 54.1267 139.149 53.6787 139.252 53.184C139.355 52.6893 139.509 52.1853 139.714 51.672C139.929 51.1493 140.204 50.65 140.54 50.174C140.876 49.698 141.277 49.2733 141.744 48.9C142.211 48.5173 142.747 48.2233 143.354 48.018C143.438 47.9993 143.513 47.99 143.578 47.99C143.727 47.99 143.858 48.032 143.97 48.116C144.091 48.1907 144.152 48.3307 144.152 48.536C144.152 48.6667 144.11 48.7833 144.026 48.886C143.942 48.9793 143.83 49.0493 143.69 49.096C143.317 49.236 142.948 49.4413 142.584 49.712C142.229 49.9733 141.898 50.286 141.59 50.65C141.291 51.0047 141.03 51.392 140.806 51.812C140.591 52.2227 140.442 52.652 140.358 53.1L140.022 53.212C140.181 52.96 140.381 52.722 140.624 52.498C140.867 52.274 141.147 52.092 141.464 51.952C141.791 51.812 142.145 51.742 142.528 51.742C142.939 51.742 143.321 51.8307 143.676 52.008C144.031 52.1853 144.343 52.4233 144.614 52.722C144.885 53.0207 145.095 53.366 145.244 53.758C145.403 54.1407 145.482 54.542 145.482 54.962C145.482 55.5313 145.342 56.0587 145.062 56.544C144.791 57.02 144.418 57.4073 143.942 57.706C143.475 57.9953 142.943 58.14 142.346 58.14ZM142.332 57.09C142.715 57.09 143.055 57.0013 143.354 56.824C143.662 56.6373 143.905 56.3853 144.082 56.068C144.259 55.7413 144.348 55.3727 144.348 54.962C144.348 54.5793 144.269 54.2247 144.11 53.898C143.951 53.5713 143.723 53.31 143.424 53.114C143.135 52.9087 142.785 52.806 142.374 52.806C141.935 52.806 141.557 52.904 141.24 53.1C140.923 53.296 140.675 53.562 140.498 53.898C140.33 54.2247 140.246 54.5887 140.246 54.99C140.246 55.3633 140.33 55.7087 140.498 56.026C140.666 56.3433 140.904 56.6 141.212 56.796C141.529 56.992 141.903 57.09 142.332 57.09Z" fill="#2A2F33"/>
<path d="M48.8985 24.9882H20.067C18.8719 24.9882 17.9031 25.9519 17.9031 27.1407V44.2393C17.9031 45.4281 18.8719 46.3918 20.067 46.3918H48.8985C50.0936 46.3918 51.0625 45.4281 51.0625 44.2393V27.1407C51.0625 25.9519 50.0936 24.9882 48.8985 24.9882Z" fill="#D58900"/>
<path d="M17.9031 28.4904H51.0625V33.1298H17.9031V28.4904Z" fill="#FFDD6A"/>
<path d="M46.8353 42.0338H42.9461C42.434 42.0338 42.0189 42.4468 42.0189 42.9562V43.3983C42.0189 43.9077 42.434 44.3207 42.9461 44.3207H46.8353C47.3474 44.3207 47.7625 43.9077 47.7625 43.3983V42.9562C47.7625 42.4468 47.3474 42.0338 46.8353 42.0338Z" fill="#FFD752"/>
<path d="M34.0285 34.995H21.235C20.9842 34.995 20.7808 35.1973 20.7808 35.4468V37.2687C20.7808 37.5182 20.9842 37.7205 21.235 37.7205H34.0285C34.2794 37.7205 34.4828 37.5182 34.4828 37.2687V35.4468C34.4828 35.1973 34.2794 34.995 34.0285 34.995Z" fill="#FFD752"/>
<path d="M228 34.6377L226.409 27.0386C226.137 25.9907 225.346 25.6789 224.358 25.6377H217.065L217 25.9849C222.68 27.3562 226.438 30.6643 228 34.6377Z" fill="#F79F1A"/>
<path d="M244.142 25.2791H239.69L236.909 41.5989H241.354L244.142 25.2791Z" fill="#059BBF"/>
<path d="M230.888 41.5821L237.891 25.2898H233.178L228.822 36.421L228.357 34.7404C227.503 32.7185 225.062 29.8084 222.197 27.9765L226.179 41.5877L230.888 41.5821Z" fill="#059BBF"/>
<path d="M256.843 36.2641C256.859 34.4113 255.669 32.9981 253.106 31.8308C251.548 31.0769 250.598 30.5741 250.61 29.809C250.61 29.1331 251.414 28.4071 253.156 28.4071C254.614 28.3847 255.664 28.703 256.485 29.0326L256.887 29.217L257.491 25.6815C256.608 25.3518 255.228 25 253.503 25C249.107 25 246.013 27.2119 245.985 30.3843C245.957 32.7303 248.197 34.0372 249.884 34.819C251.615 35.616 252.196 36.126 252.185 36.8409C252.174 37.934 250.805 38.4325 249.526 38.4325C247.744 38.4325 246.8 38.1868 245.336 37.5769L244.767 37.3156L244.143 40.9726C245.181 41.4264 247.102 41.823 249.096 41.8395C253.771 41.8395 256.809 39.6557 256.843 36.2641Z" fill="#059BBF"/>
<path d="M262.132 39.153C262.64 39.153 267.181 39.1587 267.829 39.1587C267.963 39.7269 268.37 41.6049 268.37 41.6049H272.498L268.895 25.2961H265.461C264.394 25.2961 263.601 25.5866 263.131 26.6476L256.524 41.6049H261.199C261.199 41.6049 261.958 39.5945 262.132 39.153ZM265.181 31.2499C265.159 31.2945 265.55 30.306 265.773 29.6916L266.075 31.0989C266.075 31.0989 266.924 34.9976 267.102 35.8131H263.411C263.779 34.8749 265.181 31.2499 265.181 31.2499Z" fill="#059BBF"/>
<rect x="245" y="74" width="32" height="32" rx="16" fill="#D58900"/>
<path d="M266.523 86.3706C266.51 86.3706 266.491 86.3706 266.472 86.3706C263.08 86.0307 259.694 85.9024 256.34 86.2423L255.032 86.3706C254.762 86.3962 254.525 86.2038 254.499 85.9345C254.474 85.6652 254.666 85.4343 254.929 85.4087L256.237 85.2804C259.649 84.9341 263.105 85.0688 266.568 85.4087C266.831 85.4343 267.023 85.6716 266.998 85.9345C266.978 86.1846 266.767 86.3706 266.523 86.3706Z" fill="#FFD13E"/>
<path d="M258.508 85.7229C258.482 85.7229 258.457 85.7229 258.425 85.7165C258.168 85.6716 257.989 85.4215 258.033 85.165L258.175 84.3249C258.277 83.7093 258.418 82.8564 259.912 82.8564H261.593C263.093 82.8564 263.234 83.7414 263.33 84.3314L263.471 85.165C263.516 85.4279 263.337 85.678 263.08 85.7165C262.817 85.7614 262.567 85.5818 262.529 85.3253L262.388 84.4917C262.298 83.9338 262.279 83.8248 261.599 83.8248H259.919C259.239 83.8248 259.226 83.9145 259.13 84.4853L258.983 85.3189C258.944 85.5562 258.739 85.7229 258.508 85.7229Z" fill="#FFD13E"/>
<path d="M262.811 96.6437H258.694C256.456 96.6437 256.366 95.4061 256.295 94.4057L255.879 87.9482C255.859 87.6853 256.065 87.4544 256.328 87.4352C256.597 87.4223 256.821 87.6211 256.841 87.884L257.257 94.3416C257.328 95.3163 257.354 95.6818 258.694 95.6818H262.811C264.157 95.6818 264.183 95.3163 264.247 94.3416L264.664 87.884C264.683 87.6211 264.914 87.4223 265.177 87.4352C265.44 87.4544 265.645 87.6788 265.626 87.9482L265.209 94.4057C265.139 95.4061 265.049 96.6437 262.811 96.6437Z" fill="#FFD13E"/>
<path d="M261.816 93.1167H259.681C259.418 93.1167 259.2 92.8987 259.2 92.6357C259.2 92.3728 259.418 92.1548 259.681 92.1548H261.816C262.079 92.1548 262.297 92.3728 262.297 92.6357C262.297 92.8987 262.079 93.1167 261.816 93.1167Z" fill="#FFD13E"/>
<path d="M262.355 90.5516H259.149C258.886 90.5516 258.668 90.3336 258.668 90.0707C258.668 89.8078 258.886 89.5897 259.149 89.5897H262.355C262.618 89.5897 262.836 89.8078 262.836 90.0707C262.836 90.3336 262.618 90.5516 262.355 90.5516Z" fill="#FFD13E"/>
<rect x="207" y="74" width="32" height="32" rx="16" fill="#D58900"/>
<path fill-rule="evenodd" clip-rule="evenodd" d="M223.883 96.184H229.625H223.883Z" fill="#FFD13E"/>
<path d="M223.883 96.184H229.625" stroke="#FFD13E" stroke-linecap="round" stroke-linejoin="round"/>
<path fill-rule="evenodd" clip-rule="evenodd" d="M223.118 83.0042C223.732 82.2703 224.835 82.1627 225.585 82.7643C225.626 82.7969 226.957 83.8307 226.957 83.8307C227.78 84.3282 228.035 85.3858 227.527 86.1929C227.5 86.2361 219.976 95.6469 219.976 95.6469C219.726 95.9591 219.346 96.1435 218.94 96.1479L216.059 96.1841L215.409 93.4364C215.319 93.0501 215.409 92.6443 215.66 92.3321L223.118 83.0042Z" fill="#FFD13E" stroke="#D58900" stroke-linecap="round" stroke-linejoin="round"/>
<path fill-rule="evenodd" clip-rule="evenodd" d="M221.725 84.7507L226.041 88.0655L221.725 84.7507Z" fill="#FFD13E"/>
<path d="M221.725 84.7507L226.041 88.0655" stroke="#D58900" stroke-linecap="round" stroke-linejoin="round"/>
<rect x="16.5" y="75.5" width="92" height="32" rx="16" fill="#CE0000" stroke="white"/>
<path d="M46.9407 87.6C47.5167 87.6 48.0287 87.708 48.4767 87.924C48.9247 88.14 49.3007 88.444 49.6047 88.836C49.9167 89.22 50.1487 89.668 50.3007 90.18C50.4607 90.684 50.5407 91.224 50.5407 91.8C50.5407 92.576 50.4007 93.284 50.1207 93.924C49.8407 94.556 49.4327 95.06 48.8967 95.436C48.3687 95.812 47.7167 96 46.9407 96L44.0727 96C43.8647 96 43.6887 95.932 43.5447 95.796C43.4087 95.652 43.3407 95.476 43.3407 95.268L43.3407 88.332C43.3407 88.124 43.4087 87.952 43.5447 87.816C43.6887 87.672 43.8647 87.6 44.0727 87.6L46.9407 87.6ZM46.8207 94.62C47.3247 94.62 47.7367 94.492 48.0567 94.236C48.3767 93.972 48.6087 93.628 48.7527 93.204C48.9047 92.772 48.9807 92.304 48.9807 91.8C48.9807 91.424 48.9367 91.068 48.8487 90.732C48.7687 90.388 48.6407 90.088 48.4647 89.832C48.2887 89.568 48.0647 89.36 47.7927 89.208C47.5207 89.056 47.1967 88.98 46.8207 88.98L44.7207 88.98L44.8407 88.872L44.8407 94.752L44.7687 94.62L46.8207 94.62ZM54.6766 96.12C53.9966 96.12 53.4046 95.98 52.9006 95.7C52.4046 95.412 52.0206 95.024 51.7486 94.536C51.4846 94.048 51.3526 93.496 51.3526 92.88C51.3526 92.16 51.4966 91.548 51.7846 91.044C52.0806 90.532 52.4646 90.14 52.9366 89.868C53.4086 89.596 53.9086 89.46 54.4366 89.46C54.8446 89.46 55.2286 89.544 55.5886 89.712C55.9566 89.88 56.2806 90.112 56.5606 90.408C56.8406 90.696 57.0606 91.032 57.2206 91.416C57.3886 91.8 57.4726 92.208 57.4726 92.64C57.4646 92.832 57.3886 92.988 57.2446 93.108C57.1006 93.228 56.9326 93.288 56.7406 93.288L52.1566 93.288L51.7966 92.088L56.2006 92.088L55.9366 92.328L55.9366 92.004C55.9206 91.772 55.8366 91.564 55.6846 91.38C55.5406 91.196 55.3566 91.052 55.1326 90.948C54.9166 90.836 54.6846 90.78 54.4366 90.78C54.1966 90.78 53.9726 90.812 53.7646 90.876C53.5566 90.94 53.3766 91.048 53.2246 91.2C53.0726 91.352 52.9526 91.556 52.8646 91.812C52.7766 92.068 52.7326 92.392 52.7326 92.784C52.7326 93.216 52.8206 93.584 52.9966 93.888C53.1806 94.184 53.4126 94.412 53.6926 94.572C53.9806 94.724 54.2846 94.8 54.6046 94.8C54.9006 94.8 55.1366 94.776 55.3126 94.728C55.4886 94.68 55.6286 94.624 55.7326 94.56C55.8446 94.488 55.9446 94.428 56.0326 94.38C56.1766 94.308 56.3126 94.272 56.4406 94.272C56.6166 94.272 56.7606 94.332 56.8726 94.452C56.9926 94.572 57.0526 94.712 57.0526 94.872C57.0526 95.088 56.9406 95.284 56.7166 95.46C56.5086 95.636 56.2166 95.792 55.8406 95.928C55.4646 96.056 55.0766 96.12 54.6766 96.12ZM61.7907 87.12C61.9667 87.12 62.1387 87.144 62.3067 87.192C62.4747 87.24 62.6147 87.32 62.7267 87.432C62.8387 87.536 62.8947 87.676 62.8947 87.852C62.8947 88.052 62.8347 88.212 62.7147 88.332C62.6027 88.444 62.4707 88.5 62.3187 88.5C62.2467 88.5 62.1387 88.484 61.9947 88.452C61.8507 88.412 61.7107 88.392 61.5747 88.392C61.3747 88.392 61.2187 88.436 61.1067 88.524C61.0027 88.612 60.9307 88.716 60.8907 88.836C60.8507 88.948 60.8307 89.048 60.8307 89.136L60.8307 95.268C60.8307 95.476 60.7627 95.652 60.6267 95.796C60.4907 95.932 60.3187 96 60.1107 96C59.9027 96 59.7307 95.932 59.5947 95.796C59.4587 95.652 59.3907 95.476 59.3907 95.268L59.3907 89.148C59.3907 88.58 59.5907 88.1 59.9907 87.708C60.3907 87.316 60.9907 87.12 61.7907 87.12ZM61.9227 89.7C62.1147 89.7 62.2747 89.764 62.4027 89.892C62.5307 90.012 62.5947 90.168 62.5947 90.36C62.5947 90.552 62.5307 90.712 62.4027 90.84C62.2747 90.96 62.1147 91.02 61.9227 91.02L58.7427 91.02C58.5507 91.02 58.3907 90.96 58.2627 90.84C58.1347 90.712 58.0707 90.552 58.0707 90.36C58.0707 90.168 58.1347 90.012 58.2627 89.892C58.3907 89.764 58.5507 89.7 58.7427 89.7L61.9227 89.7ZM68.745 89.46C68.953 89.46 69.125 89.528 69.261 89.664C69.397 89.8 69.465 89.976 69.465 90.192L69.465 95.268C69.465 95.476 69.397 95.652 69.261 95.796C69.125 95.932 68.953 96 68.745 96C68.537 96 68.365 95.932 68.229 95.796C68.093 95.652 68.025 95.476 68.025 95.268L68.025 94.68L68.289 94.788C68.289 94.892 68.233 95.02 68.121 95.172C68.009 95.316 67.857 95.46 67.665 95.604C67.473 95.748 67.245 95.872 66.981 95.976C66.725 96.072 66.445 96.12 66.141 96.12C65.589 96.12 65.089 95.98 64.641 95.7C64.193 95.412 63.837 95.02 63.573 94.524C63.317 94.02 63.189 93.444 63.189 92.796C63.189 92.14 63.317 91.564 63.573 91.068C63.837 90.564 64.189 90.172 64.629 89.892C65.069 89.604 65.557 89.46 66.093 89.46C66.437 89.46 66.753 89.512 67.041 89.616C67.329 89.72 67.577 89.852 67.785 90.012C68.001 90.172 68.165 90.336 68.277 90.504C68.397 90.664 68.457 90.8 68.457 90.912L68.025 91.068L68.025 90.192C68.025 89.984 68.093 89.812 68.229 89.676C68.365 89.532 68.537 89.46 68.745 89.46ZM66.321 94.8C66.673 94.8 66.981 94.712 67.245 94.536C67.509 94.36 67.713 94.12 67.857 93.816C68.009 93.512 68.085 93.172 68.085 92.796C68.085 92.412 68.009 92.068 67.857 91.764C67.713 91.46 67.509 91.22 67.245 91.044C66.981 90.868 66.673 90.78 66.321 90.78C65.977 90.78 65.673 90.868 65.409 91.044C65.145 91.22 64.937 91.46 64.785 91.764C64.641 92.068 64.569 92.412 64.569 92.796C64.569 93.172 64.641 93.512 64.785 93.816C64.937 94.12 65.145 94.36 65.409 94.536C65.673 94.712 65.977 94.8 66.321 94.8ZM75.431 89.58C75.639 89.58 75.811 89.652 75.947 89.796C76.083 89.932 76.151 90.104 76.151 90.312L76.151 93.36C76.151 94.208 75.915 94.88 75.443 95.376C74.971 95.872 74.291 96.12 73.403 96.12C72.515 96.12 71.835 95.872 71.363 95.376C70.899 94.88 70.667 94.208 70.667 93.36L70.667 90.312C70.667 90.104 70.735 89.932 70.871 89.796C71.007 89.652 71.179 89.58 71.387 89.58C71.595 89.58 71.767 89.652 71.903 89.796C72.039 89.932 72.107 90.104 72.107 90.312L72.107 93.36C72.107 93.848 72.215 94.212 72.431 94.452C72.647 94.684 72.971 94.8 73.403 94.8C73.843 94.8 74.171 94.684 74.387 94.452C74.603 94.212 74.711 93.848 74.711 93.36L74.711 90.312C74.711 90.104 74.779 89.932 74.915 89.796C75.051 89.652 75.223 89.58 75.431 89.58ZM79.0299 95.268C79.0299 95.476 78.9579 95.652 78.8139 95.796C78.6779 95.932 78.5059 96 78.2979 96C78.0979 96 77.9299 95.932 77.7939 95.796C77.6579 95.652 77.5899 95.476 77.5899 95.268L77.5899 87.852C77.5899 87.644 77.6579 87.472 77.7939 87.336C77.9379 87.192 78.1139 87.12 78.3219 87.12C78.5299 87.12 78.6979 87.192 78.8259 87.336C78.9619 87.472 79.0299 87.644 79.0299 87.852L79.0299 95.268ZM80.5011 89.7L83.3451 89.7C83.5371 89.7 83.6971 89.764 83.8251 89.892C83.9531 90.02 84.0171 90.18 84.0171 90.372C84.0171 90.556 83.9531 90.712 83.8251 90.84C83.6971 90.96 83.5371 91.02 83.3451 91.02L80.5011 91.02C80.3091 91.02 80.1491 90.956 80.0211 90.828C79.8931 90.7 79.8291 90.54 79.8291 90.348C79.8291 90.164 79.8931 90.012 80.0211 89.892C80.1491 89.764 80.3091 89.7 80.5011 89.7ZM81.7851 88.2C81.9931 88.2 82.1611 88.272 82.2891 88.416C82.4251 88.552 82.4931 88.724 82.4931 88.932L82.4931 94.272C82.4931 94.384 82.5131 94.476 82.5531 94.548C82.6011 94.62 82.6611 94.672 82.7331 94.704C82.8131 94.736 82.8971 94.752 82.9851 94.752C83.0811 94.752 83.1691 94.736 83.2491 94.704C83.3291 94.664 83.4211 94.644 83.5251 94.644C83.6371 94.644 83.7371 94.696 83.8251 94.8C83.9211 94.904 83.9691 95.048 83.9691 95.232C83.9691 95.456 83.8451 95.64 83.5971 95.784C83.3571 95.928 83.0971 96 82.8171 96C82.6491 96 82.4611 95.988 82.2531 95.964C82.0531 95.932 81.8611 95.864 81.6771 95.76C81.5011 95.648 81.3531 95.48 81.2331 95.256C81.1131 95.032 81.0531 94.724 81.0531 94.332L81.0531 88.932C81.0531 88.724 81.1211 88.552 81.2571 88.416C81.4011 88.272 81.5771 88.2 81.7851 88.2Z" fill="white"/>
<defs>
<linearGradient id="paint0_linear_619_12923" x1="148.5" y1="0" x2="148.5" y2="123" gradientUnits="userSpaceOnUse">
<stop stop-color="#FFE384"/>
<stop offset="1" stop-color="#FFCF35"/>
</linearGradient>
</defs>
</svg>
