<svg width="245" height="56" viewBox="0 0 245 56" fill="none" xmlns="http://www.w3.org/2000/svg">
<rect width="245" height="56" rx="28" fill="url(#paint0_linear_619_13219)"/>
<path d="M11.375 17.7108C12.37 11.7895 15.8812 9.5609 18.8004 9" stroke="white" stroke-width="3" stroke-linecap="round"/>
<path d="M105.5 22.4C106.364 22.4 107.132 22.562 107.804 22.886C108.476 23.21 109.04 23.666 109.496 24.254C109.964 24.83 110.312 25.502 110.54 26.27C110.78 27.026 110.9 27.836 110.9 28.7C110.9 29.864 110.69 30.926 110.27 31.886C109.85 32.834 109.238 33.59 108.434 34.154C107.642 34.718 106.664 35 105.5 35L101.198 35C100.886 35 100.622 34.898 100.406 34.694C100.202 34.478 100.1 34.214 100.1 33.902L100.1 23.498C100.1 23.186 100.202 22.928 100.406 22.724C100.622 22.508 100.886 22.4 101.198 22.4L105.5 22.4ZM105.32 32.93C106.076 32.93 106.694 32.738 107.174 32.354C107.654 31.958 108.002 31.442 108.218 30.806C108.446 30.158 108.56 29.456 108.56 28.7C108.56 28.136 108.494 27.602 108.362 27.098C108.242 26.582 108.05 26.132 107.786 25.748C107.522 25.352 107.186 25.04 106.778 24.812C106.37 24.584 105.884 24.47 105.32 24.47L102.17 24.47L102.35 24.308L102.35 33.128L102.242 32.93L105.32 32.93ZM121.91 30.194C121.91 31.178 121.688 32.048 121.244 32.804C120.812 33.548 120.224 34.13 119.48 34.55C118.748 34.97 117.926 35.18 117.014 35.18C116.102 35.18 115.274 34.97 114.53 34.55C113.798 34.13 113.21 33.548 112.766 32.804C112.334 32.048 112.118 31.178 112.118 30.194C112.118 29.21 112.334 28.346 112.766 27.602C113.21 26.846 113.798 26.258 114.53 25.838C115.274 25.406 116.102 25.19 117.014 25.19C117.926 25.19 118.748 25.406 119.48 25.838C120.224 26.258 120.812 26.846 121.244 27.602C121.688 28.346 121.91 29.21 121.91 30.194ZM119.75 30.194C119.75 29.582 119.624 29.054 119.372 28.61C119.132 28.154 118.802 27.8 118.382 27.548C117.974 27.296 117.518 27.17 117.014 27.17C116.51 27.17 116.048 27.296 115.628 27.548C115.22 27.8 114.89 28.154 114.638 28.61C114.398 29.054 114.278 29.582 114.278 30.194C114.278 30.794 114.398 31.322 114.638 31.778C114.89 32.222 115.22 32.57 115.628 32.822C116.048 33.074 116.51 33.2 117.014 33.2C117.518 33.2 117.974 33.074 118.382 32.822C118.802 32.57 119.132 32.222 119.372 31.778C119.624 31.322 119.75 30.794 119.75 30.194ZM128.588 25.19C129.476 25.19 130.148 25.376 130.604 25.748C131.072 26.12 131.39 26.618 131.558 27.242C131.738 27.854 131.828 28.538 131.828 29.294L131.828 33.902C131.828 34.214 131.726 34.478 131.522 34.694C131.318 34.898 131.06 35 130.748 35C130.436 35 130.178 34.898 129.974 34.694C129.77 34.478 129.668 34.214 129.668 33.902L129.668 29.294C129.668 28.898 129.614 28.544 129.506 28.232C129.41 27.908 129.23 27.65 128.966 27.458C128.702 27.266 128.324 27.17 127.832 27.17C127.352 27.17 126.944 27.266 126.608 27.458C126.284 27.65 126.032 27.908 125.852 28.232C125.684 28.544 125.6 28.898 125.6 29.294L125.6 33.902C125.6 34.214 125.498 34.478 125.294 34.694C125.09 34.898 124.832 35 124.52 35C124.208 35 123.95 34.898 123.746 34.694C123.542 34.478 123.44 34.214 123.44 33.902L123.44 26.468C123.44 26.156 123.542 25.898 123.746 25.694C123.95 25.478 124.208 25.37 124.52 25.37C124.832 25.37 125.09 25.478 125.294 25.694C125.498 25.898 125.6 26.156 125.6 26.468L125.6 27.242L125.33 27.188C125.438 26.984 125.594 26.768 125.798 26.54C126.002 26.3 126.242 26.078 126.518 25.874C126.794 25.67 127.106 25.508 127.454 25.388C127.802 25.256 128.18 25.19 128.588 25.19ZM138.339 35.18C137.319 35.18 136.431 34.97 135.675 34.55C134.931 34.118 134.355 33.536 133.947 32.804C133.551 32.072 133.353 31.244 133.353 30.32C133.353 29.24 133.569 28.322 134.001 27.566C134.445 26.798 135.021 26.21 135.729 25.802C136.437 25.394 137.187 25.19 137.979 25.19C138.591 25.19 139.167 25.316 139.707 25.568C140.259 25.82 140.745 26.168 141.165 26.612C141.585 27.044 141.915 27.548 142.155 28.124C142.407 28.7 142.533 29.312 142.533 29.96C142.521 30.248 142.407 30.482 142.191 30.662C141.975 30.842 141.723 30.932 141.435 30.932L134.559 30.932L134.019 29.132L140.625 29.132L140.229 29.492L140.229 29.006C140.205 28.658 140.079 28.346 139.851 28.07C139.635 27.794 139.359 27.578 139.023 27.422C138.699 27.254 138.351 27.17 137.979 27.17C137.619 27.17 137.283 27.218 136.971 27.314C136.659 27.41 136.389 27.572 136.161 27.8C135.933 28.028 135.753 28.334 135.621 28.718C135.489 29.102 135.423 29.588 135.423 30.176C135.423 30.824 135.555 31.376 135.819 31.832C136.095 32.276 136.443 32.618 136.863 32.858C137.295 33.086 137.751 33.2 138.231 33.2C138.675 33.2 139.029 33.164 139.293 33.092C139.557 33.02 139.767 32.936 139.923 32.84C140.091 32.732 140.241 32.642 140.373 32.57C140.589 32.462 140.793 32.408 140.985 32.408C141.249 32.408 141.465 32.498 141.633 32.678C141.813 32.858 141.903 33.068 141.903 33.308C141.903 33.632 141.735 33.926 141.399 34.19C141.087 34.454 140.649 34.688 140.085 34.892C139.521 35.084 138.939 35.18 138.339 35.18Z" fill="#23003D"/>
<defs>
<linearGradient id="paint0_linear_619_13219" x1="122.5" y1="0" x2="122.5" y2="56" gradientUnits="userSpaceOnUse">
<stop stop-color="#FFE486"/>
<stop offset="0.515625" stop-color="#FFCC4E"/>
<stop offset="1" stop-color="#FFD02B"/>
<stop offset="1" stop-color="#D2A61B"/>
</linearGradient>
</defs>
</svg>
