<svg width="297" height="44" viewBox="0 0 297 44" fill="none" xmlns="http://www.w3.org/2000/svg">
<rect width="297" height="44" rx="22" fill="url(#paint0_linear_630_2559)"/>
<path fill-rule="evenodd" clip-rule="evenodd" d="M28.1139 32.5H23.0746C20.555 32.5 18.5 30.5 18.5 28.06L18.5 16.94C18.5 14.49 20.555 12.5 23.0953 12.5H28.1242C30.6439 12.5 32.7092 14.49 32.7092 16.93V21.73H26.3068L27.959 20.13C28.2688 19.83 28.2688 19.34 27.959 19.04C27.8041 18.89 27.5976 18.82 27.3911 18.82C27.1949 18.82 26.9883 18.89 26.8334 19.04L23.8181 21.95C23.6632 22.09 23.5806 22.29 23.5806 22.5C23.5806 22.7 23.6632 22.9 23.8181 23.04L26.8334 25.95C27.1432 26.25 27.6492 26.25 27.959 25.95C28.2688 25.65 28.2688 25.16 27.959 24.86L26.3068 23.27H32.7092V28.05C32.7092 30.5 30.6439 32.5 28.1139 32.5ZM37.5 22.5001C37.5 22.9201 37.1448 23.2701 36.7185 23.2701H32.7095V21.7301H36.7185C37.1448 21.7301 37.5 22.0701 37.5 22.5001Z" fill="#D58900"/>
<path d="M54.448 16.4H60.478C60.79 16.4 61.048 16.502 61.252 16.706C61.468 16.898 61.576 17.15 61.576 17.462C61.576 17.762 61.468 18.008 61.252 18.2C61.048 18.38 60.79 18.47 60.478 18.47H55.438L55.6 18.164V21.674L55.456 21.53H59.668C59.98 21.53 60.238 21.632 60.442 21.836C60.658 22.028 60.766 22.28 60.766 22.592C60.766 22.892 60.658 23.138 60.442 23.33C60.238 23.51 59.98 23.6 59.668 23.6H55.51L55.6 23.456V27.092L55.456 26.93H60.478C60.79 26.93 61.048 27.038 61.252 27.254C61.468 27.458 61.576 27.698 61.576 27.974C61.576 28.274 61.468 28.52 61.252 28.712C61.048 28.904 60.79 29 60.478 29H54.448C54.136 29 53.872 28.898 53.656 28.694C53.452 28.478 53.35 28.214 53.35 27.902V17.498C53.35 17.186 53.452 16.928 53.656 16.724C53.872 16.508 54.136 16.4 54.448 16.4ZM63.4888 19.37C63.8368 19.37 64.1308 19.52 64.3708 19.82L70.3828 27.29C70.5388 27.482 70.6168 27.698 70.6168 27.938C70.6168 28.238 70.5028 28.496 70.2748 28.712C70.0468 28.928 69.7948 29.036 69.5188 29.036C69.1708 29.036 68.8768 28.88 68.6368 28.568L62.6248 21.098C62.4688 20.906 62.3908 20.69 62.3908 20.45C62.3908 20.138 62.4988 19.88 62.7148 19.676C62.9428 19.472 63.2008 19.37 63.4888 19.37ZM63.5068 29.018C63.2668 29.018 63.0268 28.928 62.7868 28.748C62.5588 28.556 62.4448 28.328 62.4448 28.064C62.4448 27.824 62.5348 27.596 62.7148 27.38L65.4688 24.014L66.5488 25.814L64.3708 28.568C64.1428 28.868 63.8548 29.018 63.5068 29.018ZM69.5008 19.37C69.7888 19.37 70.0288 19.472 70.2208 19.676C70.4248 19.868 70.5268 20.09 70.5268 20.342C70.5268 20.462 70.5088 20.582 70.4728 20.702C70.4368 20.822 70.3708 20.936 70.2748 21.044L67.5568 24.356L66.4228 22.79L68.6368 19.856C68.8768 19.532 69.1648 19.37 69.5008 19.37ZM73.9163 27.902C73.9163 28.214 73.8143 28.478 73.6103 28.694C73.4063 28.898 73.1483 29 72.8363 29C72.5243 29 72.2663 28.898 72.0623 28.694C71.8583 28.478 71.7563 28.214 71.7563 27.902V20.468C71.7563 20.156 71.8583 19.898 72.0623 19.694C72.2663 19.478 72.5243 19.37 72.8363 19.37C73.1483 19.37 73.4063 19.478 73.6103 19.694C73.8143 19.898 73.9163 20.156 73.9163 20.468V27.902ZM72.8183 18.2C72.4103 18.2 72.1223 18.134 71.9543 18.002C71.7863 17.87 71.7023 17.636 71.7023 17.3V16.958C71.7023 16.61 71.7923 16.376 71.9723 16.256C72.1643 16.124 72.4523 16.058 72.8363 16.058C73.2563 16.058 73.5503 16.124 73.7183 16.256C73.8863 16.388 73.9703 16.622 73.9703 16.958V17.3C73.9703 17.648 73.8803 17.888 73.7003 18.02C73.5203 18.14 73.2263 18.2 72.8183 18.2ZM76.0642 19.55H80.3302C80.6182 19.55 80.8582 19.646 81.0502 19.838C81.2422 20.03 81.3382 20.27 81.3382 20.558C81.3382 20.834 81.2422 21.068 81.0502 21.26C80.8582 21.44 80.6182 21.53 80.3302 21.53H76.0642C75.7762 21.53 75.5362 21.434 75.3442 21.242C75.1522 21.05 75.0562 20.81 75.0562 20.522C75.0562 20.246 75.1522 20.018 75.3442 19.838C75.5362 19.646 75.7762 19.55 76.0642 19.55ZM77.9902 17.3C78.3022 17.3 78.5542 17.408 78.7462 17.624C78.9502 17.828 79.0522 18.086 79.0522 18.398V26.408C79.0522 26.576 79.0822 26.714 79.1422 26.822C79.2142 26.93 79.3042 27.008 79.4122 27.056C79.5322 27.104 79.6582 27.128 79.7902 27.128C79.9342 27.128 80.0662 27.104 80.1862 27.056C80.3062 26.996 80.4442 26.966 80.6002 26.966C80.7682 26.966 80.9182 27.044 81.0502 27.2C81.1942 27.356 81.2662 27.572 81.2662 27.848C81.2662 28.184 81.0802 28.46 80.7082 28.676C80.3482 28.892 79.9582 29 79.5382 29C79.2862 29 79.0042 28.982 78.6922 28.946C78.3922 28.898 78.1042 28.796 77.8282 28.64C77.5642 28.472 77.3422 28.22 77.1622 27.884C76.9822 27.548 76.8922 27.086 76.8922 26.498V18.398C76.8922 18.086 76.9942 17.828 77.1982 17.624C77.4142 17.408 77.6782 17.3 77.9902 17.3ZM94.1263 29.18C93.2143 29.18 92.3623 29.012 91.5703 28.676C90.7783 28.34 90.0823 27.878 89.4823 27.29C88.8823 26.69 88.4083 26 88.0603 25.22C87.7243 24.44 87.5563 23.6 87.5563 22.7C87.5563 21.8 87.7243 20.96 88.0603 20.18C88.4083 19.4 88.8823 18.716 89.4823 18.128C90.0823 17.528 90.7783 17.06 91.5703 16.724C92.3623 16.388 93.2143 16.22 94.1263 16.22C94.6903 16.22 95.2363 16.28 95.7643 16.4C96.2923 16.52 96.7783 16.7 97.2223 16.94C97.4023 17.036 97.5343 17.168 97.6183 17.336C97.7143 17.492 97.7623 17.654 97.7623 17.822C97.7623 18.11 97.6663 18.368 97.4743 18.596C97.2823 18.824 97.0363 18.938 96.7363 18.938C96.6403 18.938 96.5383 18.926 96.4303 18.902C96.3343 18.878 96.2383 18.842 96.1423 18.794C95.8423 18.662 95.5243 18.56 95.1883 18.488C94.8523 18.416 94.4983 18.38 94.1263 18.38C93.3463 18.38 92.6323 18.578 91.9843 18.974C91.3483 19.358 90.8383 19.88 90.4543 20.54C90.0823 21.188 89.8963 21.908 89.8963 22.7C89.8963 23.48 90.0823 24.2 90.4543 24.86C90.8383 25.52 91.3483 26.048 91.9843 26.444C92.6323 26.828 93.3463 27.02 94.1263 27.02C94.4863 27.02 94.8823 26.984 95.3143 26.912C95.7463 26.84 96.1003 26.744 96.3763 26.624L96.2143 27.164V24.086L96.5203 24.356H94.5223C94.2103 24.356 93.9463 24.254 93.7303 24.05C93.5263 23.846 93.4243 23.588 93.4243 23.276C93.4243 22.964 93.5263 22.706 93.7303 22.502C93.9463 22.298 94.2103 22.196 94.5223 22.196H97.4743C97.7863 22.196 98.0443 22.304 98.2483 22.52C98.4523 22.724 98.5543 22.982 98.5543 23.294V27.11C98.5543 27.35 98.4943 27.548 98.3743 27.704C98.2663 27.86 98.1403 27.986 97.9963 28.082C97.4443 28.418 96.8383 28.688 96.1783 28.892C95.5303 29.084 94.8463 29.18 94.1263 29.18ZM108.49 19.19C108.802 19.19 109.06 19.292 109.264 19.496C109.468 19.7 109.57 19.964 109.57 20.288V27.902C109.57 28.214 109.468 28.478 109.264 28.694C109.06 28.898 108.802 29 108.49 29C108.178 29 107.92 28.898 107.716 28.694C107.512 28.478 107.41 28.214 107.41 27.902V27.02L107.806 27.182C107.806 27.338 107.722 27.53 107.554 27.758C107.386 27.974 107.158 28.19 106.87 28.406C106.582 28.622 106.24 28.808 105.844 28.964C105.46 29.108 105.04 29.18 104.584 29.18C103.756 29.18 103.006 28.97 102.334 28.55C101.662 28.118 101.128 27.53 100.732 26.786C100.348 26.03 100.156 25.166 100.156 24.194C100.156 23.21 100.348 22.346 100.732 21.602C101.128 20.846 101.656 20.258 102.316 19.838C102.976 19.406 103.708 19.19 104.512 19.19C105.028 19.19 105.502 19.268 105.934 19.424C106.366 19.58 106.738 19.778 107.05 20.018C107.374 20.258 107.62 20.504 107.788 20.756C107.968 20.996 108.058 21.2 108.058 21.368L107.41 21.602V20.288C107.41 19.976 107.512 19.718 107.716 19.514C107.92 19.298 108.178 19.19 108.49 19.19ZM104.854 27.2C105.382 27.2 105.844 27.068 106.24 26.804C106.636 26.54 106.942 26.18 107.158 25.724C107.386 25.268 107.5 24.758 107.5 24.194C107.5 23.618 107.386 23.102 107.158 22.646C106.942 22.19 106.636 21.83 106.24 21.566C105.844 21.302 105.382 21.17 104.854 21.17C104.338 21.17 103.882 21.302 103.486 21.566C103.09 21.83 102.778 22.19 102.55 22.646C102.334 23.102 102.226 23.618 102.226 24.194C102.226 24.758 102.334 25.268 102.55 25.724C102.778 26.18 103.09 26.54 103.486 26.804C103.882 27.068 104.338 27.2 104.854 27.2ZM116.786 19.19C117.746 19.19 118.454 19.424 118.91 19.892C119.366 20.348 119.666 20.942 119.81 21.674L119.504 21.512L119.648 21.224C119.792 20.948 120.014 20.654 120.314 20.342C120.614 20.018 120.974 19.748 121.394 19.532C121.826 19.304 122.306 19.19 122.834 19.19C123.698 19.19 124.352 19.376 124.796 19.748C125.252 20.12 125.564 20.618 125.732 21.242C125.9 21.854 125.984 22.538 125.984 23.294V27.902C125.984 28.214 125.882 28.478 125.678 28.694C125.474 28.898 125.216 29 124.904 29C124.592 29 124.334 28.898 124.13 28.694C123.926 28.478 123.824 28.214 123.824 27.902V23.294C123.824 22.898 123.776 22.544 123.68 22.232C123.584 21.908 123.41 21.65 123.158 21.458C122.906 21.266 122.546 21.17 122.078 21.17C121.622 21.17 121.232 21.266 120.908 21.458C120.584 21.65 120.338 21.908 120.17 22.232C120.014 22.544 119.936 22.898 119.936 23.294V27.902C119.936 28.214 119.834 28.478 119.63 28.694C119.426 28.898 119.168 29 118.856 29C118.544 29 118.286 28.898 118.082 28.694C117.878 28.478 117.776 28.214 117.776 27.902V23.294C117.776 22.898 117.728 22.544 117.632 22.232C117.536 21.908 117.362 21.65 117.11 21.458C116.858 21.266 116.498 21.17 116.03 21.17C115.574 21.17 115.184 21.266 114.86 21.458C114.536 21.65 114.29 21.908 114.122 22.232C113.966 22.544 113.888 22.898 113.888 23.294V27.902C113.888 28.214 113.786 28.478 113.582 28.694C113.378 28.898 113.12 29 112.808 29C112.496 29 112.238 28.898 112.034 28.694C111.83 28.478 111.728 28.214 111.728 27.902V20.468C111.728 20.156 111.83 19.898 112.034 19.694C112.238 19.478 112.496 19.37 112.808 19.37C113.12 19.37 113.378 19.478 113.582 19.694C113.786 19.898 113.888 20.156 113.888 20.468V21.242L113.618 21.188C113.726 20.984 113.876 20.768 114.068 20.54C114.26 20.3 114.494 20.078 114.77 19.874C115.046 19.67 115.352 19.508 115.688 19.388C116.024 19.256 116.39 19.19 116.786 19.19ZM132.678 29.18C131.658 29.18 130.77 28.97 130.014 28.55C129.27 28.118 128.694 27.536 128.286 26.804C127.89 26.072 127.692 25.244 127.692 24.32C127.692 23.24 127.908 22.322 128.34 21.566C128.784 20.798 129.36 20.21 130.068 19.802C130.776 19.394 131.526 19.19 132.318 19.19C132.93 19.19 133.506 19.316 134.046 19.568C134.598 19.82 135.084 20.168 135.504 20.612C135.924 21.044 136.254 21.548 136.494 22.124C136.746 22.7 136.872 23.312 136.872 23.96C136.86 24.248 136.746 24.482 136.53 24.662C136.314 24.842 136.062 24.932 135.774 24.932H128.898L128.358 23.132H134.964L134.568 23.492V23.006C134.544 22.658 134.418 22.346 134.19 22.07C133.974 21.794 133.698 21.578 133.362 21.422C133.038 21.254 132.69 21.17 132.318 21.17C131.958 21.17 131.622 21.218 131.31 21.314C130.998 21.41 130.728 21.572 130.5 21.8C130.272 22.028 130.092 22.334 129.96 22.718C129.828 23.102 129.762 23.588 129.762 24.176C129.762 24.824 129.894 25.376 130.158 25.832C130.434 26.276 130.782 26.618 131.202 26.858C131.634 27.086 132.09 27.2 132.57 27.2C133.014 27.2 133.368 27.164 133.632 27.092C133.896 27.02 134.106 26.936 134.262 26.84C134.43 26.732 134.58 26.642 134.712 26.57C134.928 26.462 135.132 26.408 135.324 26.408C135.588 26.408 135.804 26.498 135.972 26.678C136.152 26.858 136.242 27.068 136.242 27.308C136.242 27.632 136.074 27.926 135.738 28.19C135.426 28.454 134.988 28.688 134.424 28.892C133.86 29.084 133.278 29.18 132.678 29.18Z" fill="#23003D"/>
<path d="M275.91 30.42L282.43 23.9C283.2 23.13 283.2 21.87 282.43 21.1L275.91 14.58" stroke="#D58900" stroke-width="2" stroke-miterlimit="10" stroke-linecap="round" stroke-linejoin="round"/>
<defs>
<linearGradient id="paint0_linear_630_2559" x1="148.5" y1="0" x2="148.5" y2="44" gradientUnits="userSpaceOnUse">
<stop stop-color="#FFE384"/>
<stop offset="1" stop-color="#FFCF35"/>
</linearGradient>
</defs>
</svg>
