<svg width="264" height="56" viewBox="0 0 264 56" fill="none" xmlns="http://www.w3.org/2000/svg">
<rect width="264" height="56" rx="28" fill="#2240D2"/>
<path d="M17 17.7108C18.1371 11.7895 22.15 9.5609 25.4862 9" stroke="white" stroke-width="3" stroke-linecap="round"/>
<path d="M75.7068 36C75.2588 36 74.8908 35.864 74.6028 35.592C74.3308 35.304 74.1948 34.952 74.1948 34.536L74.1948 20.664C74.1948 20.248 74.3308 19.904 74.6028 19.632C74.8908 19.344 75.2428 19.2 75.6588 19.2L83.4588 19.2C83.8748 19.2 84.2188 19.336 84.4908 19.608C84.7788 19.864 84.9228 20.2 84.9228 20.616C84.9228 20.968 84.7788 21.28 84.4908 21.552C84.2188 21.824 83.8748 21.96 83.4588 21.96L76.9788 21.96L77.1948 21.672L77.1948 26.496L77.0268 26.184L82.3788 26.184C82.7948 26.184 83.1388 26.32 83.4108 26.592C83.6988 26.848 83.8428 27.184 83.8428 27.6C83.8428 27.952 83.6988 28.264 83.4108 28.536C83.1388 28.808 82.7948 28.944 82.3788 28.944L76.9788 28.944L77.1948 28.728L77.1948 34.536C77.1948 34.952 77.0428 35.304 76.7388 35.592C76.4508 35.864 76.1068 36 75.7068 36ZM92.586 22.968L87.402 35.16C87.29 35.464 87.114 35.704 86.874 35.88C86.65 36.04 86.402 36.12 86.13 36.12C85.698 36.12 85.378 36 85.17 35.76C84.962 35.52 84.858 35.224 84.858 34.872C84.858 34.728 84.882 34.576 84.93 34.416L90.906 20.064C91.034 19.744 91.226 19.496 91.482 19.32C91.754 19.144 92.042 19.072 92.346 19.104C92.634 19.104 92.898 19.192 93.138 19.368C93.394 19.528 93.578 19.76 93.69 20.064L99.594 34.128C99.674 34.336 99.714 34.528 99.714 34.704C99.714 35.136 99.57 35.48 99.282 35.736C99.01 35.992 98.706 36.12 98.37 36.12C98.082 36.12 97.818 36.032 97.578 35.856C97.354 35.68 97.178 35.44 97.05 35.136L91.89 23.112L92.586 22.968ZM88.146 32.232L89.466 29.472L95.946 29.472L96.402 32.232L88.146 32.232ZM112.909 20.016C113.325 20.224 113.565 20.552 113.629 21C113.709 21.448 113.597 21.856 113.293 22.224C113.085 22.512 112.813 22.672 112.477 22.704C112.157 22.736 111.829 22.672 111.493 22.512C111.109 22.336 110.701 22.2 110.269 22.104C109.853 22.008 109.413 21.96 108.949 21.96C108.085 21.96 107.309 22.096 106.621 22.368C105.949 22.64 105.373 23.032 104.893 23.544C104.413 24.04 104.045 24.632 103.789 25.32C103.549 26.008 103.429 26.768 103.429 27.6C103.429 28.576 103.565 29.424 103.837 30.144C104.125 30.864 104.517 31.464 105.013 31.944C105.509 32.424 106.093 32.784 106.765 33.024C107.437 33.248 108.165 33.36 108.949 33.36C109.381 33.36 109.813 33.32 110.245 33.24C110.677 33.16 111.093 33.016 111.493 32.808C111.829 32.648 112.157 32.592 112.477 32.64C112.813 32.688 113.093 32.856 113.317 33.144C113.637 33.544 113.749 33.96 113.653 34.392C113.573 34.808 113.333 35.112 112.933 35.304C112.517 35.512 112.085 35.688 111.637 35.832C111.205 35.96 110.765 36.056 110.317 36.12C109.869 36.2 109.413 36.24 108.949 36.24C107.797 36.24 106.701 36.056 105.661 35.688C104.637 35.32 103.717 34.776 102.901 34.056C102.101 33.336 101.469 32.44 101.005 31.368C100.541 30.28 100.309 29.024 100.309 27.6C100.309 26.368 100.517 25.232 100.933 24.192C101.365 23.152 101.965 22.256 102.733 21.504C103.517 20.736 104.437 20.144 105.493 19.728C106.549 19.296 107.701 19.08 108.949 19.08C109.653 19.08 110.341 19.16 111.013 19.32C111.685 19.48 112.317 19.712 112.909 20.016ZM117.18 19.2L125.22 19.2C125.636 19.2 125.98 19.336 126.252 19.608C126.54 19.864 126.684 20.2 126.684 20.616C126.684 21.016 126.54 21.344 126.252 21.6C125.98 21.84 125.636 21.96 125.22 21.96L118.5 21.96L118.716 21.552L118.716 26.232L118.524 26.04L124.14 26.04C124.556 26.04 124.9 26.176 125.172 26.448C125.46 26.704 125.604 27.04 125.604 27.456C125.604 27.856 125.46 28.184 125.172 28.44C124.9 28.68 124.556 28.8 124.14 28.8L118.596 28.8L118.716 28.608L118.716 33.456L118.524 33.24L125.22 33.24C125.636 33.24 125.98 33.384 126.252 33.672C126.54 33.944 126.684 34.264 126.684 34.632C126.684 35.032 126.54 35.36 126.252 35.616C125.98 35.872 125.636 36 125.22 36L117.18 36C116.764 36 116.412 35.864 116.124 35.592C115.852 35.304 115.716 34.952 115.716 34.536L115.716 20.664C115.716 20.248 115.852 19.904 116.124 19.632C116.412 19.344 116.764 19.2 117.18 19.2ZM136.482 19.2C138.018 19.2 139.162 19.56 139.914 20.28C140.666 21 141.042 22.064 141.042 23.472C141.042 24.224 140.858 24.888 140.49 25.464C140.122 26.024 139.578 26.464 138.858 26.784C138.138 27.088 137.25 27.24 136.194 27.24L136.29 26.16C136.786 26.16 137.354 26.232 137.994 26.376C138.634 26.504 139.25 26.744 139.842 27.096C140.45 27.432 140.946 27.912 141.33 28.536C141.73 29.144 141.93 29.928 141.93 30.888C141.93 31.944 141.754 32.808 141.402 33.48C141.066 34.152 140.618 34.672 140.058 35.04C139.498 35.408 138.898 35.664 138.258 35.808C137.618 35.936 137.002 36 136.41 36L130.434 36C130.018 36 129.666 35.864 129.378 35.592C129.106 35.304 128.97 34.952 128.97 34.536L128.97 20.664C128.97 20.248 129.106 19.904 129.378 19.632C129.666 19.344 130.018 19.2 130.434 19.2L136.482 19.2ZM136.05 22.032L131.778 22.032L132.09 21.648L132.09 25.992L131.802 25.776L136.122 25.776C136.586 25.776 137.002 25.624 137.37 25.32C137.738 25.016 137.922 24.576 137.922 24C137.922 23.312 137.746 22.816 137.394 22.512C137.058 22.192 136.61 22.032 136.05 22.032ZM136.242 28.608L131.874 28.608L132.09 28.416L132.09 33.48L131.85 33.24L136.41 33.24C137.146 33.24 137.73 33.048 138.162 32.664C138.594 32.264 138.81 31.672 138.81 30.888C138.81 30.168 138.666 29.648 138.378 29.328C138.09 29.008 137.746 28.808 137.346 28.728C136.946 28.648 136.578 28.608 136.242 28.608ZM159.673 27.6C159.673 28.8 159.473 29.92 159.073 30.96C158.673 32 158.105 32.92 157.369 33.72C156.649 34.504 155.785 35.12 154.777 35.568C153.785 36.016 152.697 36.24 151.513 36.24C150.329 36.24 149.241 36.016 148.249 35.568C147.257 35.12 146.393 34.504 145.657 33.72C144.937 32.92 144.377 32 143.977 30.96C143.577 29.92 143.377 28.8 143.377 27.6C143.377 26.4 143.577 25.28 143.977 24.24C144.377 23.2 144.937 22.288 145.657 21.504C146.393 20.704 147.257 20.08 148.249 19.632C149.241 19.184 150.329 18.96 151.513 18.96C152.697 18.96 153.785 19.184 154.777 19.632C155.785 20.08 156.649 20.704 157.369 21.504C158.105 22.288 158.673 23.2 159.073 24.24C159.473 25.28 159.673 26.4 159.673 27.6ZM156.553 27.6C156.553 26.528 156.337 25.56 155.905 24.696C155.473 23.816 154.881 23.12 154.129 22.608C153.377 22.096 152.505 21.84 151.513 21.84C150.521 21.84 149.649 22.096 148.897 22.608C148.145 23.12 147.553 23.808 147.121 24.672C146.705 25.536 146.497 26.512 146.497 27.6C146.497 28.672 146.705 29.648 147.121 30.528C147.553 31.392 148.145 32.08 148.897 32.592C149.649 33.104 150.521 33.36 151.513 33.36C152.505 33.36 153.377 33.104 154.129 32.592C154.881 32.08 155.473 31.392 155.905 30.528C156.337 29.648 156.553 28.672 156.553 27.6ZM177.404 27.6C177.404 28.8 177.204 29.92 176.804 30.96C176.404 32 175.836 32.92 175.1 33.72C174.38 34.504 173.516 35.12 172.508 35.568C171.516 36.016 170.428 36.24 169.244 36.24C168.06 36.24 166.972 36.016 165.98 35.568C164.988 35.12 164.124 34.504 163.388 33.72C162.668 32.92 162.108 32 161.708 30.96C161.308 29.92 161.108 28.8 161.108 27.6C161.108 26.4 161.308 25.28 161.708 24.24C162.108 23.2 162.668 22.288 163.388 21.504C164.124 20.704 164.988 20.08 165.98 19.632C166.972 19.184 168.06 18.96 169.244 18.96C170.428 18.96 171.516 19.184 172.508 19.632C173.516 20.08 174.38 20.704 175.1 21.504C175.836 22.288 176.404 23.2 176.804 24.24C177.204 25.28 177.404 26.4 177.404 27.6ZM174.284 27.6C174.284 26.528 174.068 25.56 173.636 24.696C173.204 23.816 172.612 23.12 171.86 22.608C171.108 22.096 170.236 21.84 169.244 21.84C168.252 21.84 167.38 22.096 166.628 22.608C165.876 23.12 165.284 23.808 164.852 24.672C164.436 25.536 164.228 26.512 164.228 27.6C164.228 28.672 164.436 29.648 164.852 30.528C165.284 31.392 165.876 32.08 166.628 32.592C167.38 33.104 168.252 33.36 169.244 33.36C170.236 33.36 171.108 33.104 171.86 32.592C172.612 32.08 173.204 31.392 173.636 30.528C174.068 29.648 174.284 28.672 174.284 27.6ZM191.247 36C190.799 36 190.439 35.816 190.167 35.448L184.623 28.152L186.807 25.92L192.543 33.504C192.767 33.808 192.879 34.136 192.879 34.488C192.879 34.936 192.711 35.304 192.375 35.592C192.039 35.864 191.663 36 191.247 36ZM191.535 19.08C191.919 19.08 192.231 19.24 192.471 19.56C192.727 19.864 192.855 20.176 192.855 20.496C192.855 20.832 192.711 21.144 192.423 21.432L182.367 31.056L182.247 27.624L190.359 19.632C190.727 19.264 191.119 19.08 191.535 19.08ZM181.167 36C180.719 36 180.359 35.864 180.087 35.592C179.815 35.304 179.679 34.952 179.679 34.536L179.679 20.664C179.679 20.248 179.823 19.904 180.111 19.632C180.399 19.344 180.767 19.2 181.215 19.2C181.663 19.2 182.015 19.344 182.271 19.632C182.543 19.904 182.679 20.248 182.679 20.664L182.679 34.536C182.679 34.952 182.543 35.304 182.271 35.592C181.999 35.864 181.631 36 181.167 36Z" fill="white"/>
</svg>
