<svg width="297" height="44" viewBox="0 0 297 44" fill="none" xmlns="http://www.w3.org/2000/svg">
<rect width="297" height="44" rx="22" fill="url(#paint0_linear_619_9666)"/>
<path fill-rule="evenodd" clip-rule="evenodd" d="M38 22.5C38 28.0228 33.5228 32.5 28 32.5C22.4772 32.5 18 28.0228 18 22.5C18 16.9772 22.4772 12.5 28 12.5C33.5228 12.5 38 16.9772 38 22.5ZM29 28.5C29 29.0523 28.5523 29.5 28 29.5C27.4477 29.5 27 29.0523 27 28.5C27 27.9477 27.4477 27.5 28 27.5C28.5523 27.5 29 27.9477 29 28.5ZM26.1135 19.8332C26.3886 19.0551 27.1307 18.5 28 18.5C29.1045 18.5 30 19.3954 30 20.5C30 21.6046 29.1045 22.5 28 22.5C27.4477 22.5 27 22.9477 27 23.5V25C27 25.5523 27.4477 26 28 26C28.5523 26 29 25.5523 29 25V24.374C30.7252 23.9299 32 22.3638 32 20.5C32 18.2909 30.2091 16.5 28 16.5C26.2568 16.5 24.7765 17.6145 24.2278 19.1668C24.0438 19.6875 24.3167 20.2588 24.8374 20.4428C25.3582 20.6269 25.9295 20.354 26.1135 19.8332Z" fill="#D58900"/>
<path d="M54.208 29C53.9093 29 53.664 28.9093 53.472 28.728C53.2907 28.536 53.2 28.3013 53.2 28.024V18.776C53.2 18.4987 53.2907 18.2693 53.472 18.088C53.664 17.896 53.8987 17.8 54.176 17.8H59.376C59.6533 17.8 59.8827 17.8907 60.064 18.072C60.256 18.2427 60.352 18.4667 60.352 18.744C60.352 18.9787 60.256 19.1867 60.064 19.368C59.8827 19.5493 59.6533 19.64 59.376 19.64H55.056L55.2 19.448V22.664L55.088 22.456H58.656C58.9333 22.456 59.1627 22.5467 59.344 22.728C59.536 22.8987 59.632 23.1227 59.632 23.4C59.632 23.6347 59.536 23.8427 59.344 24.024C59.1627 24.2053 58.9333 24.296 58.656 24.296H55.056L55.2 24.152V28.024C55.2 28.3013 55.0987 28.536 54.896 28.728C54.704 28.9093 54.4747 29 54.208 29ZM65.4608 20.312L62.0048 28.44C61.9301 28.6427 61.8128 28.8027 61.6528 28.92C61.5034 29.0267 61.3381 29.08 61.1568 29.08C60.8688 29.08 60.6554 29 60.5168 28.84C60.3781 28.68 60.3088 28.4827 60.3088 28.248C60.3088 28.152 60.3248 28.0507 60.3568 27.944L64.3408 18.376C64.4261 18.1627 64.5541 17.9973 64.7248 17.88C64.9061 17.7627 65.0981 17.7147 65.3008 17.736C65.4928 17.736 65.6688 17.7947 65.8288 17.912C65.9994 18.0187 66.1221 18.1733 66.1968 18.376L70.1328 27.752C70.1861 27.8907 70.2128 28.0187 70.2128 28.136C70.2128 28.424 70.1168 28.6533 69.9248 28.824C69.7434 28.9947 69.5408 29.08 69.3168 29.08C69.1248 29.08 68.9488 29.0213 68.7888 28.904C68.6394 28.7867 68.5221 28.6267 68.4368 28.424L64.9968 20.408L65.4608 20.312ZM62.5008 26.488L63.3808 24.648H67.7008L68.0048 26.488H62.5008ZM81.5374 29.448C81.7614 29.448 81.9694 29.5387 82.1614 29.72C82.3534 29.912 82.4494 30.1307 82.4494 30.376C82.4494 30.6213 82.3374 30.8507 82.1134 31.064C81.9 31.288 81.6227 31.4853 81.2814 31.656C80.94 31.8267 80.5827 31.96 80.2094 32.056C79.8467 32.152 79.516 32.2 79.2174 32.2C78.556 32.2 78.028 32.136 77.6334 32.008C77.2387 31.8907 76.9134 31.752 76.6574 31.592C76.4014 31.4427 76.1614 31.304 75.9374 31.176C75.7134 31.0587 75.4414 31 75.1214 31C74.9187 31 74.7534 31.032 74.6254 31.096C74.508 31.1707 74.3747 31.24 74.2254 31.304C74.0867 31.3787 73.8894 31.416 73.6334 31.416C73.3667 31.416 73.1427 31.3147 72.9614 31.112C72.78 30.9093 72.6894 30.6907 72.6894 30.456C72.6894 30.04 72.876 29.7627 73.2494 29.624L76.5614 28.392L78.0014 28.744L74.8974 29.896L75.8094 29.368C76.1827 29.368 76.508 29.4213 76.7854 29.528C77.0734 29.6453 77.3454 29.7733 77.6014 29.912C77.8574 30.0507 78.1187 30.1733 78.3854 30.28C78.6627 30.3973 78.9774 30.456 79.3294 30.456C79.6174 30.456 79.8574 30.408 80.0494 30.312C80.252 30.216 80.428 30.1093 80.5774 29.992C80.7587 29.8533 80.9187 29.7253 81.0574 29.608C81.2067 29.5013 81.3667 29.448 81.5374 29.448ZM81.4734 23.4C81.4734 24.2 81.34 24.9467 81.0734 25.64C80.8067 26.3333 80.428 26.9467 79.9374 27.48C79.4574 28.0027 78.8814 28.4133 78.2094 28.712C77.548 29.0107 76.8227 29.16 76.0334 29.16C75.244 29.16 74.5187 29.0107 73.8574 28.712C73.196 28.4133 72.62 28.0027 72.1294 27.48C71.6494 26.9467 71.276 26.3333 71.0094 25.64C70.7427 24.9467 70.6094 24.2 70.6094 23.4C70.6094 22.6 70.7427 21.8533 71.0094 21.16C71.276 20.4667 71.6494 19.8587 72.1294 19.336C72.62 18.8027 73.196 18.3867 73.8574 18.088C74.5187 17.7893 75.244 17.64 76.0334 17.64C76.8227 17.64 77.548 17.7893 78.2094 18.088C78.8814 18.3867 79.4574 18.8027 79.9374 19.336C80.428 19.8587 80.8067 20.4667 81.0734 21.16C81.34 21.8533 81.4734 22.6 81.4734 23.4ZM79.3934 23.4C79.3934 22.6853 79.2494 22.04 78.9614 21.464C78.6734 20.8773 78.2787 20.4133 77.7774 20.072C77.276 19.7307 76.6947 19.56 76.0334 19.56C75.372 19.56 74.7907 19.7307 74.2894 20.072C73.788 20.4133 73.3934 20.872 73.1054 21.448C72.828 22.024 72.6894 22.6747 72.6894 23.4C72.6894 24.1147 72.828 24.7653 73.1054 25.352C73.3934 25.928 73.788 26.3867 74.2894 26.728C74.7907 27.0693 75.372 27.24 76.0334 27.24C76.6947 27.24 77.276 27.0693 77.7774 26.728C78.2787 26.3867 78.6734 25.928 78.9614 25.352C79.2494 24.7653 79.3934 24.1147 79.3934 23.4ZM82.2715 27.672C82.1648 27.5227 82.1168 27.3307 82.1275 27.096C82.1382 26.8613 82.2768 26.6587 82.5435 26.488C82.7142 26.3813 82.8955 26.3387 83.0875 26.36C83.2795 26.3707 83.4662 26.4667 83.6475 26.648C83.9568 26.9573 84.2822 27.1973 84.6235 27.368C84.9648 27.5387 85.3915 27.624 85.9035 27.624C86.0635 27.6133 86.2395 27.592 86.4315 27.56C86.6235 27.5173 86.7888 27.432 86.9275 27.304C87.0768 27.1653 87.1515 26.9573 87.1515 26.68C87.1515 26.4453 87.0715 26.2587 86.9115 26.12C86.7515 25.9813 86.5382 25.864 86.2715 25.768C86.0155 25.672 85.7275 25.5813 85.4075 25.496C85.0768 25.4 84.7355 25.2933 84.3835 25.176C84.0422 25.0587 83.7275 24.9093 83.4395 24.728C83.1515 24.536 82.9168 24.2853 82.7355 23.976C82.5542 23.6667 82.4635 23.2773 82.4635 22.808C82.4635 22.2747 82.6128 21.8213 82.9115 21.448C83.2102 21.0747 83.5942 20.7867 84.0635 20.584C84.5435 20.3813 85.0448 20.28 85.5675 20.28C85.8982 20.28 86.2448 20.3227 86.6075 20.408C86.9702 20.4827 87.3168 20.6107 87.6475 20.792C87.9782 20.9627 88.2555 21.192 88.4795 21.48C88.5968 21.64 88.6662 21.832 88.6875 22.056C88.7088 22.28 88.6075 22.4827 88.3835 22.664C88.2235 22.792 88.0368 22.8507 87.8235 22.84C87.6102 22.8187 87.4342 22.744 87.2955 22.616C87.1142 22.3813 86.8688 22.1947 86.5595 22.056C86.2608 21.9173 85.9142 21.848 85.5195 21.848C85.3595 21.848 85.1835 21.8693 84.9915 21.912C84.8102 21.944 84.6502 22.024 84.5115 22.152C84.3728 22.2693 84.3035 22.4613 84.3035 22.728C84.3035 22.9733 84.3835 23.1707 84.5435 23.32C84.7035 23.4587 84.9168 23.576 85.1835 23.672C85.4608 23.7573 85.7542 23.8427 86.0635 23.928C86.3835 24.0133 86.7088 24.1147 87.0395 24.232C87.3702 24.3493 87.6742 24.504 87.9515 24.696C88.2288 24.888 88.4528 25.1387 88.6235 25.448C88.7942 25.7467 88.8795 26.1307 88.8795 26.6C88.8795 27.144 88.7195 27.608 88.3995 27.992C88.0795 28.376 87.6795 28.6693 87.1995 28.872C86.7195 29.064 86.2288 29.16 85.7275 29.16C85.0982 29.16 84.4688 29.0533 83.8395 28.84C83.2102 28.616 82.6875 28.2267 82.2715 27.672Z" fill="#23003D"/>
<path d="M275.91 30.42L282.43 23.9C283.2 23.13 283.2 21.87 282.43 21.1L275.91 14.58" stroke="#D58900" stroke-width="2" stroke-miterlimit="10" stroke-linecap="round" stroke-linejoin="round"/>
<defs>
<linearGradient id="paint0_linear_619_9666" x1="148.5" y1="0" x2="148.5" y2="44" gradientUnits="userSpaceOnUse">
<stop stop-color="#FFE384"/>
<stop offset="1" stop-color="#FFCF35"/>
</linearGradient>
</defs>
</svg>
