<svg width="264" height="56" viewBox="0 0 264 56" fill="none" xmlns="http://www.w3.org/2000/svg">
<rect width="264" height="56" rx="28" fill="url(#paint0_linear_619_9353)"/>
<path d="M17 17.7108C18.1371 11.7895 22.15 9.5609 25.4862 9" stroke="white" stroke-width="3" stroke-linecap="round"/>
<path d="M81.5154 36C81.0674 36 80.6994 35.864 80.4114 35.592C80.1394 35.304 80.0034 34.952 80.0034 34.536L80.0034 20.664C80.0034 20.248 80.1394 19.904 80.4114 19.632C80.6994 19.344 81.0514 19.2 81.4674 19.2L89.2674 19.2C89.6834 19.2 90.0274 19.336 90.2994 19.608C90.5874 19.864 90.7314 20.2 90.7314 20.616C90.7314 20.968 90.5874 21.28 90.2994 21.552C90.0274 21.824 89.6834 21.96 89.2674 21.96L82.7874 21.96L83.0034 21.672L83.0034 26.496L82.8354 26.184L88.1874 26.184C88.6034 26.184 88.9474 26.32 89.2194 26.592C89.5074 26.848 89.6514 27.184 89.6514 27.6C89.6514 27.952 89.5074 28.264 89.2194 28.536C88.9474 28.808 88.6034 28.944 88.1874 28.944L82.7874 28.944L83.0034 28.728L83.0034 34.536C83.0034 34.952 82.8514 35.304 82.5474 35.592C82.2594 35.864 81.9154 36 81.5154 36ZM94.728 36C94.28 36 93.88 35.864 93.528 35.592C93.176 35.304 93 34.952 93 34.536L93 20.664C93 20.248 93.136 19.904 93.408 19.632C93.696 19.344 94.048 19.2 94.464 19.2L101.376 19.2C102.208 19.2 102.984 19.424 103.704 19.872C104.44 20.304 105.032 20.912 105.48 21.696C105.928 22.464 106.152 23.352 106.152 24.36C106.152 24.968 106.024 25.56 105.768 26.136C105.528 26.712 105.192 27.232 104.76 27.696C104.344 28.16 103.872 28.52 103.344 28.776L103.368 28.224C103.816 28.464 104.184 28.752 104.472 29.088C104.776 29.408 105.008 29.76 105.168 30.144C105.344 30.512 105.448 30.912 105.48 31.344C105.544 31.744 105.584 32.096 105.6 32.4C105.632 32.704 105.68 32.96 105.744 33.168C105.824 33.376 105.968 33.536 106.176 33.648C106.528 33.856 106.744 34.16 106.824 34.56C106.92 34.944 106.832 35.288 106.56 35.592C106.384 35.8 106.16 35.936 105.888 36C105.616 36.048 105.344 36.048 105.072 36C104.8 35.936 104.576 35.856 104.4 35.76C104.128 35.6 103.856 35.368 103.584 35.064C103.312 34.744 103.088 34.32 102.912 33.792C102.752 33.264 102.672 32.584 102.672 31.752C102.672 31.48 102.624 31.232 102.528 31.008C102.432 30.768 102.296 30.568 102.12 30.408C101.944 30.232 101.72 30.104 101.448 30.024C101.176 29.928 100.856 29.88 100.488 29.88L95.64 29.88L96 29.328L96 34.536C96 34.952 95.888 35.304 95.664 35.592C95.44 35.864 95.128 36 94.728 36ZM95.664 27.408L101.256 27.408C101.544 27.408 101.824 27.28 102.096 27.024C102.368 26.752 102.592 26.392 102.768 25.944C102.944 25.48 103.032 24.976 103.032 24.432C103.032 23.728 102.84 23.144 102.456 22.68C102.088 22.2 101.688 21.96 101.256 21.96L95.712 21.96L96 21.192L96 27.984L95.664 27.408ZM110.461 19.2L118.501 19.2C118.917 19.2 119.261 19.336 119.533 19.608C119.821 19.864 119.965 20.2 119.965 20.616C119.965 21.016 119.821 21.344 119.533 21.6C119.261 21.84 118.917 21.96 118.501 21.96L111.781 21.96L111.997 21.552L111.997 26.232L111.805 26.04L117.421 26.04C117.837 26.04 118.181 26.176 118.453 26.448C118.741 26.704 118.885 27.04 118.885 27.456C118.885 27.856 118.741 28.184 118.453 28.44C118.181 28.68 117.837 28.8 117.421 28.8L111.877 28.8L111.997 28.608L111.997 33.456L111.805 33.24L118.501 33.24C118.917 33.24 119.261 33.384 119.533 33.672C119.821 33.944 119.965 34.264 119.965 34.632C119.965 35.032 119.821 35.36 119.533 35.616C119.261 35.872 118.917 36 118.501 36L110.461 36C110.045 36 109.693 35.864 109.405 35.592C109.133 35.304 108.997 34.952 108.997 34.536L108.997 20.664C108.997 20.248 109.133 19.904 109.405 19.632C109.693 19.344 110.045 19.2 110.461 19.2ZM123.715 19.2L131.755 19.2C132.171 19.2 132.515 19.336 132.787 19.608C133.075 19.864 133.219 20.2 133.219 20.616C133.219 21.016 133.075 21.344 132.787 21.6C132.515 21.84 132.171 21.96 131.755 21.96L125.035 21.96L125.251 21.552L125.251 26.232L125.059 26.04L130.675 26.04C131.091 26.04 131.435 26.176 131.707 26.448C131.995 26.704 132.139 27.04 132.139 27.456C132.139 27.856 131.995 28.184 131.707 28.44C131.435 28.68 131.091 28.8 130.675 28.8L125.131 28.8L125.251 28.608L125.251 33.456L125.059 33.24L131.755 33.24C132.171 33.24 132.515 33.384 132.787 33.672C133.075 33.944 133.219 34.264 133.219 34.632C133.219 35.032 133.075 35.36 132.787 35.616C132.515 35.872 132.171 36 131.755 36L123.715 36C123.299 36 122.947 35.864 122.659 35.592C122.387 35.304 122.251 34.952 122.251 34.536L122.251 20.664C122.251 20.248 122.387 19.904 122.659 19.632C122.947 19.344 123.299 19.2 123.715 19.2ZM142.441 19.2C143.273 19.2 144.049 19.44 144.769 19.92C145.505 20.4 146.097 21.048 146.545 21.864C146.993 22.68 147.217 23.592 147.217 24.6C147.217 25.592 146.993 26.496 146.545 27.312C146.097 28.128 145.505 28.784 144.769 29.28C144.049 29.76 143.273 30 142.441 30L138.025 30L138.265 29.568L138.265 34.536C138.265 34.952 138.137 35.304 137.881 35.592C137.625 35.864 137.289 36 136.873 36C136.473 36 136.145 35.864 135.889 35.592C135.633 35.304 135.505 34.952 135.505 34.536L135.505 20.664C135.505 20.248 135.641 19.904 135.913 19.632C136.201 19.344 136.553 19.2 136.969 19.2L142.441 19.2ZM142.441 27.264C142.745 27.264 143.041 27.136 143.329 26.88C143.617 26.624 143.857 26.296 144.049 25.896C144.241 25.48 144.337 25.048 144.337 24.6C144.337 24.136 144.241 23.704 144.049 23.304C143.857 22.904 143.617 22.584 143.329 22.344C143.041 22.088 142.745 21.96 142.441 21.96L137.977 21.96L138.265 21.528L138.265 27.648L138.001 27.264L142.441 27.264ZM158.75 33.192C159.166 33.192 159.51 33.328 159.782 33.6C160.07 33.856 160.214 34.192 160.214 34.608C160.214 35.008 160.07 35.344 159.782 35.616C159.51 35.872 159.166 36 158.75 36L150.95 36C150.534 36 150.182 35.864 149.894 35.592C149.622 35.304 149.486 34.952 149.486 34.536L149.486 20.664C149.486 20.248 149.63 19.904 149.918 19.632C150.206 19.344 150.574 19.2 151.022 19.2C151.406 19.2 151.742 19.344 152.03 19.632C152.334 19.904 152.486 20.248 152.486 20.664L152.486 33.6L151.958 33.192L158.75 33.192ZM168.651 22.968L163.467 35.16C163.355 35.464 163.179 35.704 162.939 35.88C162.715 36.04 162.467 36.12 162.195 36.12C161.763 36.12 161.443 36 161.235 35.76C161.027 35.52 160.923 35.224 160.923 34.872C160.923 34.728 160.947 34.576 160.995 34.416L166.971 20.064C167.099 19.744 167.291 19.496 167.547 19.32C167.819 19.144 168.107 19.072 168.411 19.104C168.699 19.104 168.963 19.192 169.203 19.368C169.459 19.528 169.643 19.76 169.755 20.064L175.659 34.128C175.739 34.336 175.779 34.528 175.779 34.704C175.779 35.136 175.635 35.48 175.347 35.736C175.075 35.992 174.771 36.12 174.435 36.12C174.147 36.12 173.883 36.032 173.643 35.856C173.419 35.68 173.243 35.44 173.115 35.136L167.955 23.112L168.651 22.968ZM164.211 32.232L165.531 29.472L172.011 29.472L172.467 32.232L164.211 32.232ZM187.004 19.128C187.372 19.128 187.7 19.272 187.988 19.56C188.292 19.832 188.444 20.184 188.444 20.616C188.444 20.76 188.42 20.912 188.372 21.072C188.34 21.216 188.276 21.36 188.18 21.504L182.732 29.304L183.164 27.648L183.164 34.536C183.164 34.952 183.02 35.304 182.732 35.592C182.46 35.864 182.14 36 181.772 36C181.372 36 181.028 35.864 180.74 35.592C180.468 35.304 180.332 34.952 180.332 34.536L180.332 27.84L180.524 28.608L175.34 21.72C175.18 21.512 175.068 21.312 175.004 21.12C174.94 20.928 174.908 20.752 174.908 20.592C174.908 20.16 175.076 19.808 175.412 19.536C175.748 19.264 176.092 19.128 176.444 19.128C176.892 19.128 177.284 19.352 177.62 19.8L182.228 26.16L181.556 26.064L185.804 19.848C186.14 19.368 186.54 19.128 187.004 19.128Z" fill="#23003D"/>
<defs>
<linearGradient id="paint0_linear_619_9353" x1="132" y1="0" x2="132" y2="56" gradientUnits="userSpaceOnUse">
<stop stop-color="#FFE486"/>
<stop offset="0.515625" stop-color="#FFCC4E"/>
<stop offset="1" stop-color="#FFD02B"/>
<stop offset="1" stop-color="#D2A61B"/>
</linearGradient>
</defs>
</svg>
