<svg width="175" height="44" viewBox="0 0 175 44" fill="none" xmlns="http://www.w3.org/2000/svg">
<rect width="175" height="44" rx="22" fill="url(#paint0_linear_630_2731)"/>
<path d="M56.708 29C56.4093 29 56.164 28.9093 55.972 28.728C55.7907 28.536 55.7 28.3013 55.7 28.024V18.776C55.7 18.4987 55.7907 18.2693 55.972 18.088C56.164 17.896 56.3987 17.8 56.676 17.8H61.876C62.1533 17.8 62.3827 17.8907 62.564 18.072C62.756 18.2427 62.852 18.4667 62.852 18.744C62.852 18.9787 62.756 19.1867 62.564 19.368C62.3827 19.5493 62.1533 19.64 61.876 19.64H57.556L57.7 19.448V22.664L57.588 22.456H61.156C61.4333 22.456 61.6627 22.5467 61.844 22.728C62.036 22.8987 62.132 23.1227 62.132 23.4C62.132 23.6347 62.036 23.8427 61.844 24.024C61.6627 24.2053 61.4333 24.296 61.156 24.296H57.556L57.7 24.152V28.024C57.7 28.3013 57.5987 28.536 57.396 28.728C57.204 28.9093 56.9747 29 56.708 29ZM65.0238 29C64.7464 29 64.5171 28.9093 64.3358 28.728C64.1544 28.536 64.0638 28.3013 64.0638 28.024V21.416C64.0638 21.1387 64.1544 20.9093 64.3358 20.728C64.5171 20.536 64.7464 20.44 65.0238 20.44C65.3011 20.44 65.5304 20.536 65.7118 20.728C65.8931 20.9093 65.9838 21.1387 65.9838 21.416V22.92L65.8718 21.848C65.9891 21.592 66.1384 21.368 66.3198 21.176C66.5118 20.9733 66.7251 20.808 66.9598 20.68C67.1944 20.5413 67.4451 20.44 67.7118 20.376C67.9784 20.312 68.2451 20.28 68.5118 20.28C68.8318 20.28 69.0984 20.3707 69.3118 20.552C69.5358 20.7333 69.6478 20.9467 69.6478 21.192C69.6478 21.544 69.5571 21.8 69.3758 21.96C69.1944 22.1093 68.9971 22.184 68.7838 22.184C68.5811 22.184 68.3944 22.1467 68.2238 22.072C68.0638 21.9973 67.8771 21.96 67.6638 21.96C67.4718 21.96 67.2744 22.008 67.0718 22.104C66.8798 22.1893 66.6984 22.328 66.5278 22.52C66.3678 22.712 66.2344 22.952 66.1278 23.24C66.0318 23.5173 65.9838 23.848 65.9838 24.232V28.024C65.9838 28.3013 65.8931 28.536 65.7118 28.728C65.5304 28.9093 65.3011 29 65.0238 29ZM74.3539 29.16C73.4472 29.16 72.6579 28.9733 71.9859 28.6C71.3245 28.216 70.8125 27.6987 70.4499 27.048C70.0979 26.3973 69.9219 25.6613 69.9219 24.84C69.9219 23.88 70.1139 23.064 70.4979 22.392C70.8925 21.7093 71.4045 21.1867 72.0339 20.824C72.6632 20.4613 73.3299 20.28 74.0339 20.28C74.5779 20.28 75.0899 20.392 75.5699 20.616C76.0605 20.84 76.4925 21.1493 76.8659 21.544C77.2392 21.928 77.5325 22.376 77.7459 22.888C77.9699 23.4 78.0819 23.944 78.0819 24.52C78.0712 24.776 77.9699 24.984 77.7779 25.144C77.5859 25.304 77.3619 25.384 77.1059 25.384H70.9939L70.5139 23.784H76.3859L76.0339 24.104V23.672C76.0125 23.3627 75.9005 23.0853 75.6979 22.84C75.5059 22.5947 75.2605 22.4027 74.9619 22.264C74.6739 22.1147 74.3645 22.04 74.0339 22.04C73.7139 22.04 73.4152 22.0827 73.1379 22.168C72.8605 22.2533 72.6205 22.3973 72.4179 22.6C72.2152 22.8027 72.0552 23.0747 71.9379 23.416C71.8205 23.7573 71.7619 24.1893 71.7619 24.712C71.7619 25.288 71.8792 25.7787 72.1139 26.184C72.3592 26.5787 72.6685 26.8827 73.0419 27.096C73.4259 27.2987 73.8312 27.4 74.2579 27.4C74.6525 27.4 74.9672 27.368 75.2019 27.304C75.4365 27.24 75.6232 27.1653 75.7619 27.08C75.9112 26.984 76.0445 26.904 76.1619 26.84C76.3539 26.744 76.5352 26.696 76.7059 26.696C76.9405 26.696 77.1325 26.776 77.2819 26.936C77.4419 27.096 77.5219 27.2827 77.5219 27.496C77.5219 27.784 77.3725 28.0453 77.0739 28.28C76.7965 28.5147 76.4072 28.7227 75.9059 28.904C75.4045 29.0747 74.8872 29.16 74.3539 29.16ZM83.4714 29.16C82.5647 29.16 81.7754 28.9733 81.1034 28.6C80.442 28.216 79.93 27.6987 79.5674 27.048C79.2154 26.3973 79.0394 25.6613 79.0394 24.84C79.0394 23.88 79.2314 23.064 79.6154 22.392C80.01 21.7093 80.522 21.1867 81.1514 20.824C81.7807 20.4613 82.4474 20.28 83.1514 20.28C83.6954 20.28 84.2074 20.392 84.6874 20.616C85.178 20.84 85.61 21.1493 85.9834 21.544C86.3567 21.928 86.65 22.376 86.8634 22.888C87.0874 23.4 87.1994 23.944 87.1994 24.52C87.1887 24.776 87.0874 24.984 86.8954 25.144C86.7034 25.304 86.4794 25.384 86.2234 25.384H80.1114L79.6314 23.784H85.5034L85.1514 24.104V23.672C85.13 23.3627 85.018 23.0853 84.8154 22.84C84.6234 22.5947 84.378 22.4027 84.0794 22.264C83.7914 22.1147 83.482 22.04 83.1514 22.04C82.8314 22.04 82.5327 22.0827 82.2554 22.168C81.978 22.2533 81.738 22.3973 81.5354 22.6C81.3327 22.8027 81.1727 23.0747 81.0554 23.416C80.938 23.7573 80.8794 24.1893 80.8794 24.712C80.8794 25.288 80.9967 25.7787 81.2314 26.184C81.4767 26.5787 81.786 26.8827 82.1594 27.096C82.5434 27.2987 82.9487 27.4 83.3754 27.4C83.77 27.4 84.0847 27.368 84.3194 27.304C84.554 27.24 84.7407 27.1653 84.8794 27.08C85.0287 26.984 85.162 26.904 85.2794 26.84C85.4714 26.744 85.6527 26.696 85.8234 26.696C86.058 26.696 86.25 26.776 86.3994 26.936C86.5594 27.096 86.6394 27.2827 86.6394 27.496C86.6394 27.784 86.49 28.0453 86.1914 28.28C85.914 28.5147 85.5247 28.7227 85.0234 28.904C84.522 29.0747 84.0047 29.16 83.4714 29.16ZM97.5053 17.8C98.0599 17.8 98.5773 17.96 99.0573 18.28C99.5479 18.6 99.9426 19.032 100.241 19.576C100.54 20.12 100.689 20.728 100.689 21.4C100.689 22.0613 100.54 22.664 100.241 23.208C99.9426 23.752 99.5479 24.1893 99.0573 24.52C98.5773 24.84 98.0599 25 97.5053 25H94.5613L94.7213 24.712V28.024C94.7213 28.3013 94.6359 28.536 94.4653 28.728C94.2946 28.9093 94.0706 29 93.7933 29C93.5266 29 93.3079 28.9093 93.1373 28.728C92.9666 28.536 92.8813 28.3013 92.8813 28.024V18.776C92.8813 18.4987 92.9719 18.2693 93.1533 18.088C93.3453 17.896 93.5799 17.8 93.8573 17.8H97.5053ZM97.5053 23.176C97.7079 23.176 97.9053 23.0907 98.0973 22.92C98.2893 22.7493 98.4493 22.5307 98.5773 22.264C98.7053 21.9867 98.7693 21.6987 98.7693 21.4C98.7693 21.0907 98.7053 20.8027 98.5773 20.536C98.4493 20.2693 98.2893 20.056 98.0973 19.896C97.9053 19.7253 97.7079 19.64 97.5053 19.64H94.5293L94.7213 19.352V23.432L94.5453 23.176H97.5053ZM104.122 28.024C104.122 28.3013 104.026 28.536 103.834 28.728C103.653 28.9093 103.423 29 103.146 29C102.879 29 102.655 28.9093 102.474 28.728C102.293 28.536 102.202 28.3013 102.202 28.024V18.136C102.202 17.8587 102.293 17.6293 102.474 17.448C102.666 17.256 102.901 17.16 103.178 17.16C103.455 17.16 103.679 17.256 103.85 17.448C104.031 17.6293 104.122 17.8587 104.122 18.136V28.024ZM113.042 20.28C113.32 20.28 113.549 20.3707 113.73 20.552C113.912 20.7333 114.002 20.968 114.002 21.256V28.024C114.002 28.3013 113.912 28.536 113.73 28.728C113.549 28.9093 113.32 29 113.042 29C112.765 29 112.536 28.9093 112.354 28.728C112.173 28.536 112.082 28.3013 112.082 28.024V27.24L112.434 27.384C112.434 27.5227 112.36 27.6933 112.21 27.896C112.061 28.088 111.858 28.28 111.602 28.472C111.346 28.664 111.042 28.8293 110.69 28.968C110.349 29.096 109.976 29.16 109.57 29.16C108.834 29.16 108.168 28.9733 107.57 28.6C106.973 28.216 106.498 27.6933 106.146 27.032C105.805 26.36 105.634 25.592 105.634 24.728C105.634 23.8533 105.805 23.0853 106.146 22.424C106.498 21.752 106.968 21.2293 107.554 20.856C108.141 20.472 108.792 20.28 109.506 20.28C109.965 20.28 110.386 20.3493 110.77 20.488C111.154 20.6267 111.485 20.8027 111.762 21.016C112.05 21.2293 112.269 21.448 112.418 21.672C112.578 21.8853 112.658 22.0667 112.658 22.216L112.082 22.424V21.256C112.082 20.9787 112.173 20.7493 112.354 20.568C112.536 20.376 112.765 20.28 113.042 20.28ZM109.81 27.4C110.28 27.4 110.69 27.2827 111.042 27.048C111.394 26.8133 111.666 26.4933 111.858 26.088C112.061 25.6827 112.162 25.2293 112.162 24.728C112.162 24.216 112.061 23.7573 111.858 23.352C111.666 22.9467 111.394 22.6267 111.042 22.392C110.69 22.1573 110.28 22.04 109.81 22.04C109.352 22.04 108.946 22.1573 108.594 22.392C108.242 22.6267 107.965 22.9467 107.762 23.352C107.57 23.7573 107.474 24.216 107.474 24.728C107.474 25.2293 107.57 25.6827 107.762 26.088C107.965 26.4933 108.242 26.8133 108.594 27.048C108.946 27.2827 109.352 27.4 109.81 27.4ZM122.113 20.44C122.391 20.44 122.62 20.536 122.801 20.728C122.983 20.9093 123.073 21.1387 123.073 21.416V28.216C123.073 29.1973 122.887 29.976 122.513 30.552C122.151 31.1387 121.66 31.56 121.041 31.816C120.423 32.072 119.729 32.2 118.961 32.2C118.62 32.2 118.257 32.1733 117.873 32.12C117.489 32.0667 117.175 31.9867 116.929 31.88C116.609 31.7413 116.385 31.5653 116.257 31.352C116.14 31.1493 116.119 30.9307 116.193 30.696C116.289 30.3867 116.444 30.1733 116.657 30.056C116.871 29.9493 117.095 29.9387 117.329 30.024C117.5 30.0773 117.724 30.1573 118.001 30.264C118.279 30.3813 118.599 30.44 118.961 30.44C119.452 30.44 119.857 30.3707 120.177 30.232C120.508 30.104 120.753 29.88 120.913 29.56C121.084 29.2507 121.169 28.824 121.169 28.28V27.208L121.505 27.592C121.324 27.944 121.095 28.2373 120.817 28.472C120.551 28.696 120.231 28.8667 119.857 28.984C119.484 29.1013 119.057 29.16 118.577 29.16C118.012 29.16 117.516 29.032 117.089 28.776C116.673 28.5093 116.348 28.1467 116.113 27.688C115.879 27.2187 115.761 26.6853 115.761 26.088V21.416C115.761 21.1387 115.852 20.9093 116.033 20.728C116.215 20.536 116.444 20.44 116.721 20.44C116.999 20.44 117.228 20.536 117.409 20.728C117.591 20.9093 117.681 21.1387 117.681 21.416V25.512C117.681 26.2053 117.831 26.696 118.129 26.984C118.439 27.2613 118.865 27.4 119.409 27.4C119.783 27.4 120.097 27.3307 120.353 27.192C120.609 27.0427 120.807 26.8293 120.945 26.552C121.084 26.264 121.153 25.9173 121.153 25.512V21.416C121.153 21.1387 121.244 20.9093 121.425 20.728C121.607 20.536 121.836 20.44 122.113 20.44Z" fill="#23003D"/>
<defs>
<linearGradient id="paint0_linear_630_2731" x1="87.5" y1="0" x2="87.5" y2="44" gradientUnits="userSpaceOnUse">
<stop stop-color="#FFE384"/>
<stop offset="1" stop-color="#FFCF35"/>
</linearGradient>
</defs>
</svg>
