<svg width="264" height="56" viewBox="0 0 264 56" fill="none" xmlns="http://www.w3.org/2000/svg">
<rect width="264" height="56" rx="28" fill="#E6002E"/>
<path d="M17 17.7108C18.1371 11.7895 22.15 9.5609 25.4862 9" stroke="white" stroke-width="3" stroke-linecap="round"/>
<path d="M63.0638 35.24C61.8478 35.24 60.7118 35.016 59.6558 34.568C58.5998 34.12 57.6718 33.504 56.8718 32.72C56.0718 31.92 55.4398 31 54.9758 29.96C54.5278 28.92 54.3038 27.8 54.3038 26.6C54.3038 25.4 54.5278 24.28 54.9758 23.24C55.4398 22.2 56.0718 21.288 56.8718 20.504C57.6718 19.704 58.5998 19.08 59.6558 18.632C60.7118 18.184 61.8478 17.96 63.0638 17.96C63.8158 17.96 64.5438 18.04 65.2478 18.2C65.9518 18.36 66.5998 18.6 67.1918 18.92C67.4318 19.048 67.6078 19.224 67.7198 19.448C67.8478 19.656 67.9118 19.872 67.9118 20.096C67.9118 20.48 67.7838 20.824 67.5278 21.128C67.2718 21.432 66.9438 21.584 66.5438 21.584C66.4158 21.584 66.2798 21.568 66.1358 21.536C66.0078 21.504 65.8798 21.456 65.7518 21.392C65.3518 21.216 64.9278 21.08 64.4798 20.984C64.0318 20.888 63.5598 20.84 63.0638 20.84C62.0238 20.84 61.0718 21.104 60.2078 21.632C59.3598 22.144 58.6798 22.84 58.1678 23.72C57.6718 24.584 57.4238 25.544 57.4238 26.6C57.4238 27.64 57.6718 28.6 58.1678 29.48C58.6798 30.36 59.3598 31.064 60.2078 31.592C61.0718 32.104 62.0238 32.36 63.0638 32.36C63.5438 32.36 64.0718 32.312 64.6478 32.216C65.2238 32.12 65.6958 31.992 66.0638 31.832L65.8478 32.552L65.8478 28.448L66.2558 28.808L63.5918 28.808C63.1758 28.808 62.8238 28.672 62.5358 28.4C62.2638 28.128 62.1278 27.784 62.1278 27.368C62.1278 26.952 62.2638 26.608 62.5358 26.336C62.8238 26.064 63.1758 25.928 63.5918 25.928L67.5278 25.928C67.9438 25.928 68.2878 26.072 68.5598 26.36C68.8318 26.632 68.9678 26.976 68.9678 27.392L68.9678 32.48C68.9678 32.8 68.8878 33.064 68.7278 33.272C68.5838 33.48 68.4158 33.648 68.2238 33.776C67.4878 34.224 66.6798 34.584 65.7998 34.856C64.9358 35.112 64.0238 35.24 63.0638 35.24ZM87.3107 26.6C87.3107 27.8 87.1107 28.92 86.7107 29.96C86.3107 31 85.7427 31.92 85.0067 32.72C84.2867 33.504 83.4227 34.12 82.4147 34.568C81.4227 35.016 80.3347 35.24 79.1507 35.24C77.9667 35.24 76.8787 35.016 75.8867 34.568C74.8947 34.12 74.0307 33.504 73.2947 32.72C72.5747 31.92 72.0147 31 71.6147 29.96C71.2147 28.92 71.0147 27.8 71.0147 26.6C71.0147 25.4 71.2147 24.28 71.6147 23.24C72.0147 22.2 72.5747 21.288 73.2947 20.504C74.0307 19.704 74.8947 19.08 75.8867 18.632C76.8787 18.184 77.9667 17.96 79.1507 17.96C80.3347 17.96 81.4227 18.184 82.4147 18.632C83.4227 19.08 84.2867 19.704 85.0067 20.504C85.7427 21.288 86.3107 22.2 86.7107 23.24C87.1107 24.28 87.3107 25.4 87.3107 26.6ZM84.1907 26.6C84.1907 25.528 83.9747 24.56 83.5427 23.696C83.1107 22.816 82.5187 22.12 81.7667 21.608C81.0147 21.096 80.1427 20.84 79.1507 20.84C78.1587 20.84 77.2867 21.096 76.5347 21.608C75.7827 22.12 75.1907 22.808 74.7587 23.672C74.3427 24.536 74.1347 25.512 74.1347 26.6C74.1347 27.672 74.3427 28.648 74.7587 29.528C75.1907 30.392 75.7827 31.08 76.5347 31.592C77.2867 32.104 78.1587 32.36 79.1507 32.36C80.1427 32.36 81.0147 32.104 81.7667 31.592C82.5187 31.08 83.1107 30.392 83.5427 29.528C83.9747 28.648 84.1907 27.672 84.1907 26.6ZM105.522 26.6C105.522 27.8 105.322 28.92 104.922 29.96C104.522 31 103.954 31.92 103.218 32.72C102.498 33.504 101.634 34.12 100.626 34.568C99.6336 35.016 98.5456 35.24 97.3616 35.24C96.1776 35.24 95.0896 35.016 94.0976 34.568C93.1056 34.12 92.2416 33.504 91.5056 32.72C90.7856 31.92 90.2256 31 89.8256 29.96C89.4256 28.92 89.2256 27.8 89.2256 26.6C89.2256 25.4 89.4256 24.28 89.8256 23.24C90.2256 22.2 90.7856 21.288 91.5056 20.504C92.2416 19.704 93.1056 19.08 94.0976 18.632C95.0896 18.184 96.1776 17.96 97.3616 17.96C98.5456 17.96 99.6336 18.184 100.626 18.632C101.634 19.08 102.498 19.704 103.218 20.504C103.954 21.288 104.522 22.2 104.922 23.24C105.322 24.28 105.522 25.4 105.522 26.6ZM102.402 26.6C102.402 25.528 102.186 24.56 101.754 23.696C101.322 22.816 100.73 22.12 99.9776 21.608C99.2256 21.096 98.3536 20.84 97.3616 20.84C96.3696 20.84 95.4976 21.096 94.7456 21.608C93.9936 22.12 93.4016 22.808 92.9696 23.672C92.5536 24.536 92.3456 25.512 92.3456 26.6C92.3456 27.672 92.5536 28.648 92.9696 29.528C93.4016 30.392 93.9936 31.08 94.7456 31.592C95.4976 32.104 96.3696 32.36 97.3616 32.36C98.3536 32.36 99.2256 32.104 99.9776 31.592C100.73 31.08 101.322 30.392 101.754 29.528C102.186 28.648 102.402 27.672 102.402 26.6ZM116.197 35.24C114.981 35.24 113.845 35.016 112.789 34.568C111.733 34.12 110.805 33.504 110.005 32.72C109.205 31.92 108.573 31 108.109 29.96C107.661 28.92 107.437 27.8 107.437 26.6C107.437 25.4 107.661 24.28 108.109 23.24C108.573 22.2 109.205 21.288 110.005 20.504C110.805 19.704 111.733 19.08 112.789 18.632C113.845 18.184 114.981 17.96 116.197 17.96C116.949 17.96 117.677 18.04 118.381 18.2C119.085 18.36 119.733 18.6 120.325 18.92C120.565 19.048 120.741 19.224 120.853 19.448C120.981 19.656 121.045 19.872 121.045 20.096C121.045 20.48 120.917 20.824 120.661 21.128C120.405 21.432 120.077 21.584 119.677 21.584C119.549 21.584 119.413 21.568 119.269 21.536C119.141 21.504 119.013 21.456 118.885 21.392C118.485 21.216 118.061 21.08 117.613 20.984C117.165 20.888 116.693 20.84 116.197 20.84C115.157 20.84 114.205 21.104 113.341 21.632C112.493 22.144 111.813 22.84 111.301 23.72C110.805 24.584 110.557 25.544 110.557 26.6C110.557 27.64 110.805 28.6 111.301 29.48C111.813 30.36 112.493 31.064 113.341 31.592C114.205 32.104 115.157 32.36 116.197 32.36C116.677 32.36 117.205 32.312 117.781 32.216C118.357 32.12 118.829 31.992 119.197 31.832L118.981 32.552L118.981 28.448L119.389 28.808L116.725 28.808C116.309 28.808 115.957 28.672 115.669 28.4C115.397 28.128 115.261 27.784 115.261 27.368C115.261 26.952 115.397 26.608 115.669 26.336C115.957 26.064 116.309 25.928 116.725 25.928L120.661 25.928C121.077 25.928 121.421 26.072 121.693 26.36C121.965 26.632 122.101 26.976 122.101 27.392L122.101 32.48C122.101 32.8 122.021 33.064 121.861 33.272C121.717 33.48 121.549 33.648 121.357 33.776C120.621 34.224 119.813 34.584 118.933 34.856C118.069 35.112 117.157 35.24 116.197 35.24ZM134.252 32.192C134.668 32.192 135.012 32.328 135.284 32.6C135.572 32.856 135.716 33.192 135.716 33.608C135.716 34.008 135.572 34.344 135.284 34.616C135.012 34.872 134.668 35 134.252 35L126.452 35C126.036 35 125.684 34.864 125.396 34.592C125.124 34.304 124.988 33.952 124.988 33.536L124.988 19.664C124.988 19.248 125.132 18.904 125.42 18.632C125.708 18.344 126.076 18.2 126.524 18.2C126.908 18.2 127.244 18.344 127.532 18.632C127.836 18.904 127.988 19.248 127.988 19.664L127.988 32.6L127.46 32.192L134.252 32.192ZM139.928 18.2L147.968 18.2C148.384 18.2 148.728 18.336 149 18.608C149.288 18.864 149.432 19.2 149.432 19.616C149.432 20.016 149.288 20.344 149 20.6C148.728 20.84 148.384 20.96 147.968 20.96L141.248 20.96L141.464 20.552L141.464 25.232L141.272 25.04L146.888 25.04C147.304 25.04 147.648 25.176 147.92 25.448C148.208 25.704 148.352 26.04 148.352 26.456C148.352 26.856 148.208 27.184 147.92 27.44C147.648 27.68 147.304 27.8 146.888 27.8L141.344 27.8L141.464 27.608L141.464 32.456L141.272 32.24L147.968 32.24C148.384 32.24 148.728 32.384 149 32.672C149.288 32.944 149.432 33.264 149.432 33.632C149.432 34.032 149.288 34.36 149 34.616C148.728 34.872 148.384 35 147.968 35L139.928 35C139.512 35 139.16 34.864 138.872 34.592C138.6 34.304 138.464 33.952 138.464 33.536L138.464 19.664C138.464 19.248 138.6 18.904 138.872 18.632C139.16 18.344 139.512 18.2 139.928 18.2ZM165.861 18.2C166.693 18.2 167.469 18.44 168.189 18.92C168.925 19.4 169.517 20.048 169.965 20.864C170.413 21.68 170.637 22.592 170.637 23.6C170.637 24.592 170.413 25.496 169.965 26.312C169.517 27.128 168.925 27.784 168.189 28.28C167.469 28.76 166.693 29 165.861 29L161.445 29L161.685 28.568L161.685 33.536C161.685 33.952 161.557 34.304 161.301 34.592C161.045 34.864 160.709 35 160.293 35C159.893 35 159.565 34.864 159.309 34.592C159.053 34.304 158.925 33.952 158.925 33.536L158.925 19.664C158.925 19.248 159.061 18.904 159.333 18.632C159.621 18.344 159.973 18.2 160.389 18.2L165.861 18.2ZM165.861 26.264C166.165 26.264 166.461 26.136 166.749 25.88C167.037 25.624 167.277 25.296 167.469 24.896C167.661 24.48 167.757 24.048 167.757 23.6C167.757 23.136 167.661 22.704 167.469 22.304C167.277 21.904 167.037 21.584 166.749 21.344C166.461 21.088 166.165 20.96 165.861 20.96L161.397 20.96L161.685 20.528L161.685 26.648L161.421 26.264L165.861 26.264ZM182.65 32.192C183.066 32.192 183.41 32.328 183.682 32.6C183.97 32.856 184.114 33.192 184.114 33.608C184.114 34.008 183.97 34.344 183.682 34.616C183.41 34.872 183.066 35 182.65 35L174.85 35C174.434 35 174.082 34.864 173.794 34.592C173.522 34.304 173.386 33.952 173.386 33.536L173.386 19.664C173.386 19.248 173.53 18.904 173.818 18.632C174.106 18.344 174.474 18.2 174.922 18.2C175.306 18.2 175.642 18.344 175.93 18.632C176.234 18.904 176.386 19.248 176.386 19.664L176.386 32.6L175.858 32.192L182.65 32.192ZM193.031 21.968L187.847 34.16C187.735 34.464 187.559 34.704 187.319 34.88C187.095 35.04 186.847 35.12 186.575 35.12C186.143 35.12 185.823 35 185.615 34.76C185.407 34.52 185.303 34.224 185.303 33.872C185.303 33.728 185.327 33.576 185.375 33.416L191.351 19.064C191.479 18.744 191.671 18.496 191.927 18.32C192.199 18.144 192.487 18.072 192.791 18.104C193.079 18.104 193.343 18.192 193.583 18.368C193.839 18.528 194.023 18.76 194.135 19.064L200.039 33.128C200.119 33.336 200.159 33.528 200.159 33.704C200.159 34.136 200.015 34.48 199.727 34.736C199.455 34.992 199.151 35.12 198.815 35.12C198.527 35.12 198.263 35.032 198.023 34.856C197.799 34.68 197.623 34.44 197.495 34.136L192.335 22.112L193.031 21.968ZM188.591 31.232L189.911 28.472L196.391 28.472L196.847 31.232L188.591 31.232ZM211.863 18.128C212.231 18.128 212.559 18.272 212.847 18.56C213.151 18.832 213.303 19.184 213.303 19.616C213.303 19.76 213.279 19.912 213.231 20.072C213.199 20.216 213.135 20.36 213.039 20.504L207.591 28.304L208.023 26.648L208.023 33.536C208.023 33.952 207.879 34.304 207.591 34.592C207.319 34.864 206.999 35 206.631 35C206.231 35 205.887 34.864 205.599 34.592C205.327 34.304 205.191 33.952 205.191 33.536L205.191 26.84L205.383 27.608L200.199 20.72C200.039 20.512 199.927 20.312 199.863 20.12C199.799 19.928 199.767 19.752 199.767 19.592C199.767 19.16 199.935 18.808 200.271 18.536C200.607 18.264 200.951 18.128 201.303 18.128C201.751 18.128 202.143 18.352 202.479 18.8L207.087 25.16L206.415 25.064L210.663 18.848C210.999 18.368 211.399 18.128 211.863 18.128Z" fill="white"/>
</svg>
