<svg width="297" height="86" viewBox="0 0 297 86" fill="none" xmlns="http://www.w3.org/2000/svg">
<rect width="297" height="86" rx="20" fill="url(#paint0_linear_619_12869)"/>
<path d="M74.48 38.16C73.6693 38.16 72.912 38.0107 72.208 37.712C71.504 37.4133 70.8853 37.0027 70.352 36.48C69.8187 35.9467 69.3973 35.3333 69.088 34.64C68.7893 33.9467 68.64 33.2 68.64 32.4C68.64 31.6 68.7893 30.8533 69.088 30.16C69.3973 29.4667 69.8187 28.8587 70.352 28.336C70.8853 27.8027 71.504 27.3867 72.208 27.088C72.912 26.7893 73.6693 26.64 74.48 26.64C74.9813 26.64 75.4667 26.6933 75.936 26.8C76.4053 26.9067 76.8373 27.0667 77.232 27.28C77.392 27.3653 77.5093 27.4827 77.584 27.632C77.6693 27.7707 77.712 27.9147 77.712 28.064C77.712 28.32 77.6267 28.5493 77.456 28.752C77.2853 28.9547 77.0667 29.056 76.8 29.056C76.7147 29.056 76.624 29.0453 76.528 29.024C76.4427 29.0027 76.3573 28.9707 76.272 28.928C76.0053 28.8107 75.7227 28.72 75.424 28.656C75.1253 28.592 74.8107 28.56 74.48 28.56C73.7867 28.56 73.152 28.736 72.576 29.088C72.0107 29.4293 71.5573 29.8933 71.216 30.48C70.8853 31.056 70.72 31.696 70.72 32.4C70.72 33.0933 70.8853 33.7333 71.216 34.32C71.5573 34.9067 72.0107 35.376 72.576 35.728C73.152 36.0693 73.7867 36.24 74.48 36.24C74.8 36.24 75.152 36.208 75.536 36.144C75.92 36.08 76.2347 35.9947 76.48 35.888L76.336 36.368V33.632L76.608 33.872H74.832C74.5547 33.872 74.32 33.7813 74.128 33.6C73.9467 33.4187 73.856 33.1893 73.856 32.912C73.856 32.6347 73.9467 32.4053 74.128 32.224C74.32 32.0427 74.5547 31.952 74.832 31.952H77.456C77.7333 31.952 77.9627 32.048 78.144 32.24C78.3253 32.4213 78.416 32.6507 78.416 32.928V36.32C78.416 36.5333 78.3627 36.7093 78.256 36.848C78.16 36.9867 78.048 37.0987 77.92 37.184C77.4293 37.4827 76.8907 37.7227 76.304 37.904C75.728 38.0747 75.12 38.16 74.48 38.16ZM88.1646 33.728C88.1646 34.6027 87.9673 35.376 87.5726 36.048C87.1886 36.7093 86.666 37.2267 86.0046 37.6C85.354 37.9733 84.6233 38.16 83.8126 38.16C83.002 38.16 82.266 37.9733 81.6046 37.6C80.954 37.2267 80.4313 36.7093 80.0366 36.048C79.6526 35.376 79.4606 34.6027 79.4606 33.728C79.4606 32.8533 79.6526 32.0853 80.0366 31.424C80.4313 30.752 80.954 30.2293 81.6046 29.856C82.266 29.472 83.002 29.28 83.8126 29.28C84.6233 29.28 85.354 29.472 86.0046 29.856C86.666 30.2293 87.1886 30.752 87.5726 31.424C87.9673 32.0853 88.1646 32.8533 88.1646 33.728ZM86.2446 33.728C86.2446 33.184 86.1326 32.7147 85.9086 32.32C85.6953 31.9147 85.402 31.6 85.0286 31.376C84.666 31.152 84.2606 31.04 83.8126 31.04C83.3646 31.04 82.954 31.152 82.5806 31.376C82.218 31.6 81.9246 31.9147 81.7006 32.32C81.4873 32.7147 81.3806 33.184 81.3806 33.728C81.3806 34.2613 81.4873 34.7307 81.7006 35.136C81.9246 35.5307 82.218 35.84 82.5806 36.064C82.954 36.288 83.3646 36.4 83.8126 36.4C84.2606 36.4 84.666 36.288 85.0286 36.064C85.402 35.84 85.6953 35.5307 85.9086 35.136C86.1326 34.7307 86.2446 34.2613 86.2446 33.728ZM97.829 33.728C97.829 34.6027 97.6317 35.376 97.237 36.048C96.853 36.7093 96.3303 37.2267 95.669 37.6C95.0183 37.9733 94.2877 38.16 93.477 38.16C92.6663 38.16 91.9303 37.9733 91.269 37.6C90.6183 37.2267 90.0957 36.7093 89.701 36.048C89.317 35.376 89.125 34.6027 89.125 33.728C89.125 32.8533 89.317 32.0853 89.701 31.424C90.0957 30.752 90.6183 30.2293 91.269 29.856C91.9303 29.472 92.6663 29.28 93.477 29.28C94.2877 29.28 95.0183 29.472 95.669 29.856C96.3303 30.2293 96.853 30.752 97.237 31.424C97.6317 32.0853 97.829 32.8533 97.829 33.728ZM95.909 33.728C95.909 33.184 95.797 32.7147 95.573 32.32C95.3597 31.9147 95.0663 31.6 94.693 31.376C94.3303 31.152 93.925 31.04 93.477 31.04C93.029 31.04 92.6183 31.152 92.245 31.376C91.8823 31.6 91.589 31.9147 91.365 32.32C91.1517 32.7147 91.045 33.184 91.045 33.728C91.045 34.2613 91.1517 34.7307 91.365 35.136C91.589 35.5307 91.8823 35.84 92.245 36.064C92.6183 36.288 93.029 36.4 93.477 36.4C93.925 36.4 94.3303 36.288 94.693 36.064C95.0663 35.84 95.3597 35.5307 95.573 35.136C95.797 34.7307 95.909 34.2613 95.909 33.728ZM102.741 29.28C103.189 29.28 103.6 29.3493 103.973 29.488C104.347 29.6267 104.667 29.8027 104.933 30.016C105.211 30.2293 105.424 30.448 105.573 30.672C105.733 30.8853 105.813 31.0667 105.813 31.216L105.397 31.424V30.256C105.397 29.9787 105.488 29.7493 105.669 29.568C105.851 29.376 106.08 29.28 106.357 29.28C106.635 29.28 106.864 29.3707 107.045 29.552C107.227 29.7333 107.317 29.968 107.317 30.256V37.376C107.317 38.304 107.115 39.0453 106.709 39.6C106.315 40.1653 105.792 40.5707 105.141 40.816C104.491 41.072 103.792 41.2 103.045 41.2C102.832 41.2 102.555 41.1733 102.213 41.12C101.872 41.0667 101.547 41.0027 101.237 40.928C100.928 40.8533 100.693 40.784 100.533 40.72C100.213 40.5813 99.9894 40.4053 99.8614 40.192C99.744 39.9893 99.7227 39.7707 99.7974 39.536C99.8934 39.2267 100.048 39.0133 100.261 38.896C100.475 38.7893 100.699 38.7787 100.933 38.864C101.04 38.896 101.216 38.96 101.461 39.056C101.707 39.152 101.973 39.2373 102.261 39.312C102.56 39.3973 102.821 39.44 103.045 39.44C103.845 39.44 104.437 39.28 104.821 38.96C105.205 38.64 105.397 38.1973 105.397 37.632V36.24L105.589 36.384C105.589 36.5227 105.515 36.6933 105.365 36.896C105.227 37.088 105.029 37.28 104.773 37.472C104.528 37.664 104.235 37.8293 103.893 37.968C103.552 38.096 103.189 38.16 102.805 38.16C102.048 38.16 101.365 37.9733 100.757 37.6C100.149 37.216 99.6694 36.6933 99.3174 36.032C98.9654 35.36 98.7894 34.592 98.7894 33.728C98.7894 32.8533 98.9654 32.0853 99.3174 31.424C99.6694 30.752 100.144 30.2293 100.741 29.856C101.339 29.472 102.005 29.28 102.741 29.28ZM103.045 31.04C102.565 31.04 102.144 31.1573 101.781 31.392C101.419 31.6267 101.136 31.9467 100.933 32.352C100.731 32.7573 100.629 33.216 100.629 33.728C100.629 34.2293 100.731 34.6827 100.933 35.088C101.136 35.4933 101.419 35.8133 101.781 36.048C102.144 36.2827 102.565 36.4 103.045 36.4C103.536 36.4 103.963 36.2827 104.325 36.048C104.688 35.8133 104.971 35.4933 105.173 35.088C105.376 34.6827 105.477 34.2293 105.477 33.728C105.477 33.216 105.376 32.7573 105.173 32.352C104.971 31.9467 104.688 31.6267 104.325 31.392C103.963 31.1573 103.536 31.04 103.045 31.04ZM111.153 37.024C111.153 37.3013 111.057 37.536 110.865 37.728C110.683 37.9093 110.454 38 110.177 38C109.91 38 109.686 37.9093 109.505 37.728C109.323 37.536 109.233 37.3013 109.233 37.024V27.136C109.233 26.8587 109.323 26.6293 109.505 26.448C109.697 26.256 109.931 26.16 110.209 26.16C110.486 26.16 110.71 26.256 110.881 26.448C111.062 26.6293 111.153 26.8587 111.153 27.136V37.024ZM116.941 38.16C116.034 38.16 115.245 37.9733 114.573 37.6C113.911 37.216 113.399 36.6987 113.037 36.048C112.685 35.3973 112.509 34.6613 112.509 33.84C112.509 32.88 112.701 32.064 113.085 31.392C113.479 30.7093 113.991 30.1867 114.621 29.824C115.25 29.4613 115.917 29.28 116.621 29.28C117.165 29.28 117.677 29.392 118.157 29.616C118.647 29.84 119.079 30.1493 119.453 30.544C119.826 30.928 120.119 31.376 120.333 31.888C120.557 32.4 120.669 32.944 120.669 33.52C120.658 33.776 120.557 33.984 120.365 34.144C120.173 34.304 119.949 34.384 119.693 34.384H113.581L113.101 32.784H118.973L118.621 33.104V32.672C118.599 32.3627 118.487 32.0853 118.285 31.84C118.093 31.5947 117.847 31.4027 117.549 31.264C117.261 31.1147 116.951 31.04 116.621 31.04C116.301 31.04 116.002 31.0827 115.725 31.168C115.447 31.2533 115.207 31.3973 115.005 31.6C114.802 31.8027 114.642 32.0747 114.525 32.416C114.407 32.7573 114.349 33.1893 114.349 33.712C114.349 34.288 114.466 34.7787 114.701 35.184C114.946 35.5787 115.255 35.8827 115.629 36.096C116.013 36.2987 116.418 36.4 116.845 36.4C117.239 36.4 117.554 36.368 117.789 36.304C118.023 36.24 118.21 36.1653 118.349 36.08C118.498 35.984 118.631 35.904 118.749 35.84C118.941 35.744 119.122 35.696 119.293 35.696C119.527 35.696 119.719 35.776 119.869 35.936C120.029 36.096 120.109 36.2827 120.109 36.496C120.109 36.784 119.959 37.0453 119.661 37.28C119.383 37.5147 118.994 37.7227 118.493 37.904C117.991 38.0747 117.474 38.16 116.941 38.16ZM130.975 26.8C131.529 26.8 132.047 26.96 132.527 27.28C133.017 27.6 133.412 28.032 133.711 28.576C134.009 29.12 134.159 29.728 134.159 30.4C134.159 31.0613 134.009 31.664 133.711 32.208C133.412 32.752 133.017 33.1893 132.527 33.52C132.047 33.84 131.529 34 130.975 34H128.031L128.191 33.712V37.024C128.191 37.3013 128.105 37.536 127.935 37.728C127.764 37.9093 127.54 38 127.263 38C126.996 38 126.777 37.9093 126.607 37.728C126.436 37.536 126.351 37.3013 126.351 37.024V27.776C126.351 27.4987 126.441 27.2693 126.623 27.088C126.815 26.896 127.049 26.8 127.327 26.8H130.975ZM130.975 32.176C131.177 32.176 131.375 32.0907 131.567 31.92C131.759 31.7493 131.919 31.5307 132.047 31.264C132.175 30.9867 132.239 30.6987 132.239 30.4C132.239 30.0907 132.175 29.8027 132.047 29.536C131.919 29.2693 131.759 29.056 131.567 28.896C131.375 28.7253 131.177 28.64 130.975 28.64H127.999L128.191 28.352V32.432L128.015 32.176H130.975ZM142.441 29.28C142.718 29.28 142.948 29.3707 143.129 29.552C143.31 29.7333 143.401 29.968 143.401 30.256V37.024C143.401 37.3013 143.31 37.536 143.129 37.728C142.948 37.9093 142.718 38 142.441 38C142.164 38 141.934 37.9093 141.753 37.728C141.572 37.536 141.481 37.3013 141.481 37.024V36.24L141.833 36.384C141.833 36.5227 141.758 36.6933 141.609 36.896C141.46 37.088 141.257 37.28 141.001 37.472C140.745 37.664 140.441 37.8293 140.089 37.968C139.748 38.096 139.374 38.16 138.969 38.16C138.233 38.16 137.566 37.9733 136.969 37.6C136.372 37.216 135.897 36.6933 135.545 36.032C135.204 35.36 135.033 34.592 135.033 33.728C135.033 32.8533 135.204 32.0853 135.545 31.424C135.897 30.752 136.366 30.2293 136.953 29.856C137.54 29.472 138.19 29.28 138.905 29.28C139.364 29.28 139.785 29.3493 140.169 29.488C140.553 29.6267 140.884 29.8027 141.161 30.016C141.449 30.2293 141.668 30.448 141.817 30.672C141.977 30.8853 142.057 31.0667 142.057 31.216L141.481 31.424V30.256C141.481 29.9787 141.572 29.7493 141.753 29.568C141.934 29.376 142.164 29.28 142.441 29.28ZM139.209 36.4C139.678 36.4 140.089 36.2827 140.441 36.048C140.793 35.8133 141.065 35.4933 141.257 35.088C141.46 34.6827 141.561 34.2293 141.561 33.728C141.561 33.216 141.46 32.7573 141.257 32.352C141.065 31.9467 140.793 31.6267 140.441 31.392C140.089 31.1573 139.678 31.04 139.209 31.04C138.75 31.04 138.345 31.1573 137.993 31.392C137.641 31.6267 137.364 31.9467 137.161 32.352C136.969 32.7573 136.873 33.216 136.873 33.728C136.873 34.2293 136.969 34.6827 137.161 35.088C137.364 35.4933 137.641 35.8133 137.993 36.048C138.345 36.2827 138.75 36.4 139.209 36.4ZM151.512 29.44C151.789 29.44 152.019 29.536 152.2 29.728C152.381 29.9093 152.472 30.1387 152.472 30.416V37.216C152.472 38.1973 152.285 38.976 151.912 39.552C151.549 40.1387 151.059 40.56 150.44 40.816C149.821 41.072 149.128 41.2 148.36 41.2C148.019 41.2 147.656 41.1733 147.272 41.12C146.888 41.0667 146.573 40.9867 146.328 40.88C146.008 40.7413 145.784 40.5653 145.656 40.352C145.539 40.1493 145.517 39.9307 145.592 39.696C145.688 39.3867 145.843 39.1733 146.056 39.056C146.269 38.9493 146.493 38.9387 146.728 39.024C146.899 39.0773 147.123 39.1573 147.4 39.264C147.677 39.3813 147.997 39.44 148.36 39.44C148.851 39.44 149.256 39.3707 149.576 39.232C149.907 39.104 150.152 38.88 150.312 38.56C150.483 38.2507 150.568 37.824 150.568 37.28V36.208L150.904 36.592C150.723 36.944 150.493 37.2373 150.216 37.472C149.949 37.696 149.629 37.8667 149.256 37.984C148.883 38.1013 148.456 38.16 147.976 38.16C147.411 38.16 146.915 38.032 146.488 37.776C146.072 37.5093 145.747 37.1467 145.512 36.688C145.277 36.2187 145.16 35.6853 145.16 35.088V30.416C145.16 30.1387 145.251 29.9093 145.432 29.728C145.613 29.536 145.843 29.44 146.12 29.44C146.397 29.44 146.627 29.536 146.808 29.728C146.989 29.9093 147.08 30.1387 147.08 30.416V34.512C147.08 35.2053 147.229 35.696 147.528 35.984C147.837 36.2613 148.264 36.4 148.808 36.4C149.181 36.4 149.496 36.3307 149.752 36.192C150.008 36.0427 150.205 35.8293 150.344 35.552C150.483 35.264 150.552 34.9173 150.552 34.512V30.416C150.552 30.1387 150.643 29.9093 150.824 29.728C151.005 29.536 151.235 29.44 151.512 29.44Z" fill="#23003D"/>
<path d="M267.91 49.92L274.43 43.4C275.2 42.63 275.2 41.37 274.43 40.6L267.91 34.08" stroke="#D58900" stroke-width="2" stroke-miterlimit="10" stroke-linecap="round" stroke-linejoin="round"/>
<path opacity="0.5" d="M75 52.692C75.1587 52.692 75.2893 52.748 75.392 52.86C75.504 52.9627 75.56 53.0933 75.56 53.252V59.426C75.56 59.5847 75.504 59.72 75.392 59.832C75.2893 59.944 75.1587 60 75 60C74.832 60 74.6967 59.944 74.594 59.832C74.4913 59.72 74.44 59.5847 74.44 59.426V58.096L74.706 58.068C74.706 58.2733 74.636 58.4973 74.496 58.74C74.356 58.9827 74.1647 59.2113 73.922 59.426C73.6793 59.6313 73.39 59.804 73.054 59.944C72.7273 60.0747 72.3727 60.14 71.99 60.14C71.3553 60.14 70.786 59.9767 70.282 59.65C69.778 59.314 69.3767 58.8613 69.078 58.292C68.7887 57.7227 68.644 57.074 68.644 56.346C68.644 55.6087 68.7887 54.96 69.078 54.4C69.3767 53.8307 69.778 53.3873 70.282 53.07C70.786 52.7433 71.346 52.58 71.962 52.58C72.3633 52.58 72.7367 52.6453 73.082 52.776C73.4273 52.9067 73.726 53.084 73.978 53.308C74.2393 53.532 74.44 53.7793 74.58 54.05C74.7293 54.3207 74.804 54.5913 74.804 54.862L74.44 54.778V53.252C74.44 53.0933 74.4913 52.9627 74.594 52.86C74.6967 52.748 74.832 52.692 75 52.692ZM72.116 59.104C72.5827 59.104 72.9933 58.9827 73.348 58.74C73.712 58.4973 73.992 58.1707 74.188 57.76C74.3933 57.34 74.496 56.8687 74.496 56.346C74.496 55.8327 74.3933 55.3707 74.188 54.96C73.992 54.54 73.712 54.2133 73.348 53.98C72.9933 53.7373 72.5827 53.616 72.116 53.616C71.6587 53.616 71.248 53.7327 70.884 53.966C70.5293 54.1993 70.2493 54.5213 70.044 54.932C69.8387 55.3427 69.736 55.814 69.736 56.346C69.736 56.8687 69.834 57.34 70.03 57.76C70.2353 58.1707 70.5153 58.4973 70.87 58.74C71.234 58.9827 71.6493 59.104 72.116 59.104ZM77.4715 52.636C77.5835 52.636 77.6909 52.6687 77.7935 52.734C77.8962 52.79 77.9709 52.874 78.0175 52.986L80.3415 58.446L80.1175 58.558L82.4835 53C82.5862 52.748 82.7589 52.6267 83.0015 52.636C83.1415 52.636 83.2629 52.6827 83.3655 52.776C83.4682 52.8693 83.5195 52.986 83.5195 53.126C83.5195 53.182 83.5102 53.238 83.4915 53.294C83.4822 53.3407 83.4682 53.3827 83.4495 53.42L80.7475 59.636C80.6449 59.8693 80.4815 59.9907 80.2575 60C80.1362 60.0093 80.0195 59.986 79.9075 59.93C79.8049 59.8647 79.7302 59.7667 79.6835 59.636L76.9815 53.434C76.9629 53.3967 76.9442 53.3547 76.9255 53.308C76.9162 53.2613 76.9115 53.2053 76.9115 53.14C76.9115 53.0187 76.9582 52.9067 77.0515 52.804C77.1542 52.692 77.2942 52.636 77.4715 52.636ZM90.9688 52.692C91.1274 52.692 91.2581 52.748 91.3607 52.86C91.4728 52.9627 91.5288 53.0933 91.5288 53.252V59.426C91.5288 59.5847 91.4728 59.72 91.3607 59.832C91.2581 59.944 91.1274 60 90.9688 60C90.8008 60 90.6654 59.944 90.5628 59.832C90.4601 59.72 90.4088 59.5847 90.4088 59.426V58.096L90.6748 58.068C90.6748 58.2733 90.6048 58.4973 90.4648 58.74C90.3248 58.9827 90.1334 59.2113 89.8908 59.426C89.6481 59.6313 89.3588 59.804 89.0228 59.944C88.6961 60.0747 88.3414 60.14 87.9588 60.14C87.3241 60.14 86.7548 59.9767 86.2508 59.65C85.7468 59.314 85.3454 58.8613 85.0468 58.292C84.7574 57.7227 84.6128 57.074 84.6128 56.346C84.6128 55.6087 84.7574 54.96 85.0468 54.4C85.3454 53.8307 85.7468 53.3873 86.2508 53.07C86.7548 52.7433 87.3148 52.58 87.9308 52.58C88.3321 52.58 88.7054 52.6453 89.0508 52.776C89.3961 52.9067 89.6948 53.084 89.9468 53.308C90.2081 53.532 90.4088 53.7793 90.5488 54.05C90.6981 54.3207 90.7728 54.5913 90.7728 54.862L90.4088 54.778V53.252C90.4088 53.0933 90.4601 52.9627 90.5628 52.86C90.6654 52.748 90.8008 52.692 90.9688 52.692ZM88.0847 59.104C88.5514 59.104 88.9621 58.9827 89.3168 58.74C89.6808 58.4973 89.9608 58.1707 90.1568 57.76C90.3621 57.34 90.4648 56.8687 90.4648 56.346C90.4648 55.8327 90.3621 55.3707 90.1568 54.96C89.9608 54.54 89.6808 54.2133 89.3168 53.98C88.9621 53.7373 88.5514 53.616 88.0847 53.616C87.6274 53.616 87.2168 53.7327 86.8528 53.966C86.4981 54.1993 86.2181 54.5213 86.0128 54.932C85.8074 55.3427 85.7048 55.814 85.7048 56.346C85.7048 56.8687 85.8028 57.34 85.9988 57.76C86.2041 58.1707 86.4841 58.4973 86.8388 58.74C87.2028 58.9827 87.6181 59.104 88.0847 59.104ZM94.9204 60.476C94.9204 60.952 94.813 61.358 94.5984 61.694C94.393 62.03 94.1317 62.2913 93.8144 62.478C93.497 62.6647 93.1657 62.758 92.8204 62.758C92.6617 62.758 92.5357 62.7067 92.4424 62.604C92.3397 62.5013 92.2884 62.38 92.2884 62.24V62.142C92.2884 62.002 92.335 61.89 92.4284 61.806C92.5217 61.722 92.6384 61.6613 92.7784 61.624C92.993 61.568 93.175 61.4793 93.3244 61.358C93.4737 61.246 93.5904 61.092 93.6744 60.896C93.7584 60.7093 93.8004 60.4853 93.8004 60.224V53.322C93.8004 53.1633 93.8517 53.028 93.9544 52.916C94.0664 52.804 94.2017 52.748 94.3604 52.748C94.5284 52.748 94.6637 52.804 94.7664 52.916C94.869 53.028 94.9204 53.1633 94.9204 53.322V60.476ZM94.3604 51.712C94.127 51.712 93.9544 51.6653 93.8424 51.572C93.7304 51.4787 93.6744 51.334 93.6744 51.138V50.942C93.6744 50.746 93.735 50.6013 93.8564 50.508C93.9777 50.4147 94.1504 50.368 94.3744 50.368C94.5984 50.368 94.7664 50.4147 94.8784 50.508C94.9904 50.6013 95.0464 50.746 95.0464 50.942V51.138C95.0464 51.334 94.9857 51.4787 94.8644 51.572C94.7524 51.6653 94.5844 51.712 94.3604 51.712ZM104.293 56.36C104.293 57.088 104.129 57.7367 103.803 58.306C103.485 58.8753 103.051 59.3233 102.501 59.65C101.959 59.9767 101.348 60.14 100.667 60.14C99.9855 60.14 99.3695 59.9767 98.8188 59.65C98.2681 59.3233 97.8295 58.8753 97.5028 58.306C97.1855 57.7367 97.0268 57.088 97.0268 56.36C97.0268 55.632 97.1855 54.9833 97.5028 54.414C97.8295 53.8447 98.2681 53.3967 98.8188 53.07C99.3695 52.7433 99.9855 52.58 100.667 52.58C101.348 52.58 101.959 52.7433 102.501 53.07C103.051 53.3967 103.485 53.8447 103.803 54.414C104.129 54.9833 104.293 55.632 104.293 56.36ZM103.173 56.36C103.173 55.8187 103.061 55.3427 102.837 54.932C102.622 54.5213 102.323 54.1993 101.941 53.966C101.567 53.7327 101.143 53.616 100.667 53.616C100.191 53.616 99.7615 53.7327 99.3788 53.966C99.0055 54.1993 98.7068 54.5213 98.4828 54.932C98.2588 55.3427 98.1468 55.8187 98.1468 56.36C98.1468 56.892 98.2588 57.3633 98.4828 57.774C98.7068 58.1847 99.0055 58.5113 99.3788 58.754C99.7615 58.9873 100.191 59.104 100.667 59.104C101.143 59.104 101.567 58.9873 101.941 58.754C102.323 58.5113 102.622 58.1847 102.837 57.774C103.061 57.3633 103.173 56.892 103.173 56.36ZM109.477 52.65C110.093 52.65 110.579 52.7853 110.933 53.056C111.297 53.3173 111.554 53.672 111.703 54.12C111.862 54.5587 111.941 55.0487 111.941 55.59V59.426C111.941 59.5847 111.885 59.72 111.773 59.832C111.671 59.944 111.54 60 111.381 60C111.223 60 111.087 59.944 110.975 59.832C110.873 59.72 110.821 59.5847 110.821 59.426V55.59C110.821 55.2353 110.77 54.918 110.667 54.638C110.565 54.3487 110.392 54.12 110.149 53.952C109.916 53.7747 109.594 53.686 109.183 53.686C108.801 53.686 108.451 53.7747 108.133 53.952C107.816 54.12 107.564 54.3487 107.377 54.638C107.191 54.918 107.097 55.2353 107.097 55.59V59.426C107.097 59.5847 107.041 59.72 106.929 59.832C106.827 59.944 106.696 60 106.537 60C106.379 60 106.243 59.944 106.131 59.832C106.029 59.72 105.977 59.5847 105.977 59.426V50.2C105.977 50.0413 106.029 49.9107 106.131 49.808C106.243 49.696 106.379 49.64 106.537 49.64C106.705 49.64 106.841 49.696 106.943 49.808C107.046 49.9107 107.097 50.0413 107.097 50.2V54.386L106.817 54.694C106.864 54.4513 106.967 54.2087 107.125 53.966C107.284 53.714 107.485 53.49 107.727 53.294C107.97 53.098 108.241 52.944 108.539 52.832C108.838 52.7107 109.151 52.65 109.477 52.65ZM117.614 52.58C118.249 52.58 118.748 52.7107 119.112 52.972C119.476 53.2333 119.733 53.5833 119.882 54.022C120.041 54.4607 120.12 54.9507 120.12 55.492V59.426C120.12 59.5847 120.064 59.72 119.952 59.832C119.85 59.944 119.719 60 119.56 60C119.402 60 119.266 59.944 119.154 59.832C119.052 59.72 119 59.5847 119 59.426V55.52C119 55.1653 118.944 54.848 118.832 54.568C118.73 54.2787 118.552 54.05 118.3 53.882C118.058 53.7047 117.722 53.616 117.292 53.616C116.9 53.616 116.541 53.7047 116.214 53.882C115.888 54.05 115.626 54.2787 115.43 54.568C115.234 54.848 115.136 55.1653 115.136 55.52V59.426C115.136 59.5847 115.08 59.72 114.968 59.832C114.866 59.944 114.735 60 114.576 60C114.418 60 114.282 59.944 114.17 59.832C114.068 59.72 114.016 59.5847 114.016 59.426V53.322C114.016 53.1633 114.068 53.0327 114.17 52.93C114.282 52.818 114.418 52.762 114.576 52.762C114.744 52.762 114.88 52.818 114.982 52.93C115.085 53.0327 115.136 53.1633 115.136 53.322V54.316L114.856 54.624C114.903 54.3813 115.01 54.1387 115.178 53.896C115.346 53.644 115.556 53.42 115.808 53.224C116.06 53.028 116.34 52.874 116.648 52.762C116.956 52.6407 117.278 52.58 117.614 52.58ZM121.786 58.852C121.702 58.7307 121.665 58.6047 121.674 58.474C121.684 58.334 121.763 58.2127 121.912 58.11C122.006 58.0447 122.113 58.0167 122.234 58.026C122.365 58.0353 122.482 58.096 122.584 58.208C122.846 58.516 123.144 58.7633 123.48 58.95C123.816 59.1273 124.227 59.216 124.712 59.216C124.936 59.2067 125.16 59.1693 125.384 59.104C125.608 59.0387 125.795 58.9267 125.944 58.768C126.103 58.6 126.182 58.3807 126.182 58.11C126.182 57.8487 126.103 57.6433 125.944 57.494C125.786 57.3353 125.58 57.2093 125.328 57.116C125.076 57.0133 124.801 56.9247 124.502 56.85C124.194 56.766 123.891 56.6727 123.592 56.57C123.294 56.458 123.023 56.3227 122.78 56.164C122.547 55.996 122.356 55.7907 122.206 55.548C122.066 55.296 121.996 54.9927 121.996 54.638C121.996 54.218 122.108 53.854 122.332 53.546C122.566 53.238 122.874 53 123.256 52.832C123.648 52.664 124.073 52.58 124.53 52.58C124.792 52.58 125.062 52.6127 125.342 52.678C125.632 52.734 125.912 52.8367 126.182 52.986C126.453 53.126 126.691 53.322 126.896 53.574C126.98 53.6673 127.027 53.784 127.036 53.924C127.046 54.064 126.985 54.19 126.854 54.302C126.752 54.3767 126.635 54.4093 126.504 54.4C126.383 54.3907 126.28 54.344 126.196 54.26C126 54.0267 125.753 53.8493 125.454 53.728C125.165 53.5973 124.843 53.532 124.488 53.532C124.264 53.532 124.045 53.5647 123.83 53.63C123.616 53.6953 123.434 53.8073 123.284 53.966C123.144 54.1153 123.074 54.3253 123.074 54.596C123.084 54.848 123.168 55.0533 123.326 55.212C123.485 55.3707 123.7 55.5013 123.97 55.604C124.241 55.6973 124.54 55.7907 124.866 55.884C125.165 55.9587 125.45 56.0473 125.72 56.15C126 56.2433 126.252 56.3693 126.476 56.528C126.7 56.6867 126.878 56.892 127.008 57.144C127.139 57.3867 127.204 57.6947 127.204 58.068C127.204 58.4973 127.083 58.8707 126.84 59.188C126.598 59.496 126.276 59.734 125.874 59.902C125.482 60.0607 125.058 60.14 124.6 60.14C124.087 60.14 123.578 60.042 123.074 59.846C122.58 59.65 122.15 59.3187 121.786 58.852ZM131.007 60C130.839 60 130.699 59.944 130.587 59.832C130.475 59.72 130.419 59.5847 130.419 59.426V51.46L130.587 51.656L129.005 52.748C128.912 52.8133 128.804 52.846 128.683 52.846C128.524 52.846 128.389 52.79 128.277 52.678C128.165 52.5567 128.109 52.4213 128.109 52.272C128.109 52.0667 128.207 51.9033 128.403 51.782L130.629 50.312C130.704 50.2653 130.778 50.2327 130.853 50.214C130.928 50.1953 131.002 50.1907 131.077 50.2C131.245 50.2 131.376 50.256 131.469 50.368C131.572 50.4707 131.623 50.6013 131.623 50.76V59.426C131.623 59.5847 131.562 59.72 131.441 59.832C131.329 59.944 131.184 60 131.007 60ZM139.617 58.95C139.766 58.95 139.892 59.0013 139.995 59.104C140.097 59.2067 140.149 59.3327 140.149 59.482C140.149 59.6313 140.097 59.7573 139.995 59.86C139.892 59.9533 139.766 60 139.617 60H134.535C134.367 60 134.227 59.9533 134.115 59.86C134.012 59.7573 133.961 59.622 133.961 59.454C133.961 59.3047 134.017 59.1693 134.129 59.048L137.293 55.59C137.759 55.086 138.109 54.6147 138.343 54.176C138.585 53.728 138.707 53.3313 138.707 52.986C138.707 52.4167 138.534 51.964 138.189 51.628C137.853 51.2827 137.4 51.11 136.831 51.11C136.579 51.11 136.327 51.166 136.075 51.278C135.823 51.3807 135.594 51.5253 135.389 51.712C135.183 51.8893 135.015 52.09 134.885 52.314C134.81 52.4353 134.731 52.5147 134.647 52.552C134.572 52.58 134.493 52.594 134.409 52.594C134.269 52.594 134.143 52.5473 134.031 52.454C133.919 52.3513 133.863 52.2347 133.863 52.104C133.863 52.0013 133.891 51.908 133.947 51.824C134.003 51.7307 134.077 51.628 134.171 51.516C134.367 51.2453 134.609 51.0027 134.899 50.788C135.197 50.564 135.519 50.3867 135.865 50.256C136.219 50.1253 136.565 50.06 136.901 50.06C137.498 50.06 138.016 50.1767 138.455 50.41C138.903 50.6433 139.248 50.9747 139.491 51.404C139.733 51.8333 139.855 52.3373 139.855 52.916C139.855 53.4107 139.705 53.9567 139.407 54.554C139.108 55.1513 138.669 55.758 138.091 56.374L135.641 59.09L135.501 58.95H139.617ZM142.229 58.376C142.285 58.376 142.346 58.39 142.411 58.418C142.486 58.4367 142.565 58.4833 142.649 58.558C142.836 58.726 143.055 58.8613 143.307 58.964C143.559 59.0667 143.848 59.118 144.175 59.118C144.576 59.118 144.945 59.0293 145.281 58.852C145.617 58.6653 145.888 58.404 146.093 58.068C146.308 57.732 146.415 57.3447 146.415 56.906C146.415 56.43 146.308 56.0427 146.093 55.744C145.888 55.436 145.622 55.212 145.295 55.072C144.978 54.9227 144.642 54.848 144.287 54.848C144.156 54.848 144.035 54.8573 143.923 54.876C143.811 54.8947 143.704 54.918 143.601 54.946C143.508 54.974 143.419 54.988 143.335 54.988C143.186 54.988 143.069 54.9367 142.985 54.834C142.901 54.7313 142.859 54.6053 142.859 54.456C142.859 54.372 142.873 54.2973 142.901 54.232C142.938 54.1573 142.994 54.078 143.069 53.994L145.785 51.054L146.009 51.32H142.033C141.884 51.32 141.758 51.2687 141.655 51.166C141.552 51.0633 141.501 50.9373 141.501 50.788C141.501 50.6387 141.552 50.5173 141.655 50.424C141.758 50.3213 141.884 50.27 142.033 50.27H146.597C146.802 50.27 146.952 50.3307 147.045 50.452C147.138 50.564 147.185 50.69 147.185 50.83C147.185 50.914 147.162 50.9933 147.115 51.068C147.078 51.1427 147.026 51.2127 146.961 51.278L144.245 54.232L143.923 53.952C143.97 53.9147 144.077 53.882 144.245 53.854C144.413 53.8167 144.553 53.798 144.665 53.798C145.188 53.798 145.668 53.924 146.107 54.176C146.546 54.428 146.896 54.7827 147.157 55.24C147.418 55.6973 147.549 56.2293 147.549 56.836C147.549 57.508 147.395 58.0913 147.087 58.586C146.779 59.0807 146.354 59.4633 145.813 59.734C145.281 60.0047 144.679 60.14 144.007 60.14C143.634 60.14 143.265 60.084 142.901 59.972C142.546 59.8507 142.238 59.678 141.977 59.454C141.856 59.3887 141.772 59.314 141.725 59.23C141.688 59.146 141.669 59.062 141.669 58.978C141.669 58.838 141.72 58.7027 141.823 58.572C141.935 58.4413 142.07 58.376 142.229 58.376ZM157.774 59.23C157.475 59.23 157.209 59.1693 156.976 59.048C156.742 58.9173 156.565 58.74 156.444 58.516C156.332 58.292 156.299 58.0353 156.346 57.746L156.458 56.892L156.654 57.06C156.486 57.564 156.252 57.9793 155.954 58.306C155.655 58.6233 155.328 58.8567 154.974 59.006C154.628 59.1553 154.278 59.23 153.924 59.23C153.541 59.23 153.191 59.132 152.874 58.936C152.566 58.7307 152.318 58.4553 152.132 58.11C151.945 57.7553 151.852 57.3587 151.852 56.92C151.852 56.4813 151.936 56.0287 152.104 55.562C152.281 55.086 152.519 54.6427 152.818 54.232C153.126 53.8213 153.48 53.49 153.882 53.238C154.292 52.986 154.736 52.86 155.212 52.86C155.725 52.86 156.145 53.0233 156.472 53.35C156.808 53.6767 157.004 54.092 157.06 54.596L156.752 55.366L157.06 53.392C157.078 53.2707 157.13 53.168 157.214 53.084C157.298 52.9907 157.428 52.944 157.606 52.944C157.82 52.944 157.965 52.9953 158.04 53.098C158.114 53.2007 158.133 53.3547 158.096 53.56L157.466 57.536C157.419 57.8533 157.461 58.082 157.592 58.222C157.732 58.362 157.89 58.432 158.068 58.432C158.385 58.432 158.684 58.3153 158.964 58.082C159.244 57.8487 159.486 57.5453 159.692 57.172C159.906 56.7893 160.074 56.36 160.196 55.884C160.317 55.408 160.378 54.932 160.378 54.456C160.378 53.7467 160.21 53.126 159.874 52.594C159.547 52.0527 159.08 51.6327 158.474 51.334C157.867 51.026 157.153 50.872 156.332 50.872C155.398 50.872 154.526 51.012 153.714 51.292C152.911 51.572 152.206 51.9827 151.6 52.524C150.993 53.056 150.517 53.7093 150.172 54.484C149.836 55.2493 149.668 56.1267 149.668 57.116C149.668 57.648 149.752 58.1753 149.92 58.698C150.088 59.2113 150.344 59.6733 150.69 60.084C151.044 60.504 151.497 60.8353 152.048 61.078C152.608 61.33 153.28 61.456 154.064 61.456C154.577 61.456 155.016 61.4187 155.38 61.344C155.744 61.2693 156.066 61.1667 156.346 61.036C156.635 60.9053 156.924 60.77 157.214 60.63C157.316 60.574 157.414 60.56 157.508 60.588C157.601 60.616 157.671 60.6907 157.718 60.812C157.811 61.036 157.708 61.2227 157.41 61.372C157.008 61.568 156.546 61.764 156.024 61.96C155.501 62.1653 154.848 62.268 154.064 62.268C153.121 62.268 152.318 62.1187 151.656 61.82C150.993 61.5307 150.452 61.1387 150.032 60.644C149.621 60.1493 149.318 59.5987 149.122 58.992C148.926 58.376 148.828 57.7507 148.828 57.116C148.828 56.024 149.019 55.044 149.402 54.176C149.794 53.308 150.33 52.566 151.012 51.95C151.702 51.334 152.5 50.8673 153.406 50.55C154.311 50.2233 155.286 50.06 156.332 50.06C157.396 50.06 158.292 50.2607 159.02 50.662C159.748 51.054 160.294 51.586 160.658 52.258C161.031 52.9207 161.218 53.6533 161.218 54.456C161.218 55.0253 161.134 55.5947 160.966 56.164C160.807 56.724 160.574 57.2373 160.266 57.704C159.958 58.1613 159.594 58.53 159.174 58.81C158.754 59.09 158.287 59.23 157.774 59.23ZM154.148 58.334C154.446 58.334 154.736 58.2593 155.016 58.11C155.305 57.9513 155.566 57.746 155.8 57.494C156.033 57.242 156.22 56.9667 156.36 56.668C156.509 56.36 156.593 56.0567 156.612 55.758C156.714 55.31 156.714 54.9367 156.612 54.638C156.518 54.3393 156.35 54.12 156.108 53.98C155.865 53.8307 155.58 53.756 155.254 53.756C154.899 53.756 154.577 53.8587 154.288 54.064C153.998 54.26 153.751 54.5167 153.546 54.834C153.35 55.1513 153.196 55.492 153.084 55.856C152.981 56.22 152.93 56.5653 152.93 56.892C152.93 57.3493 153.046 57.704 153.28 57.956C153.522 58.208 153.812 58.334 154.148 58.334ZM165.918 52.58C166.319 52.58 166.692 52.65 167.038 52.79C167.383 52.9207 167.682 53.0933 167.934 53.308C168.195 53.5227 168.396 53.7467 168.536 53.98C168.685 54.2133 168.76 54.4327 168.76 54.638L168.494 54.47V53.252C168.494 53.0933 168.545 52.9627 168.648 52.86C168.75 52.748 168.886 52.692 169.054 52.692C169.212 52.692 169.343 52.748 169.446 52.86C169.558 52.9627 169.614 53.0933 169.614 53.252V59.384C169.614 60.1493 169.45 60.784 169.124 61.288C168.806 61.792 168.377 62.17 167.836 62.422C167.294 62.674 166.688 62.8 166.016 62.8C165.736 62.8 165.428 62.7627 165.092 62.688C164.756 62.6133 164.457 62.52 164.196 62.408C163.934 62.3053 163.766 62.198 163.692 62.086C163.552 61.9927 163.463 61.8853 163.426 61.764C163.398 61.652 163.421 61.5447 163.496 61.442C163.58 61.3113 163.687 61.246 163.818 61.246C163.958 61.246 164.13 61.288 164.336 61.372C164.42 61.4 164.55 61.4467 164.728 61.512C164.914 61.5773 165.12 61.6333 165.344 61.68C165.577 61.736 165.806 61.764 166.03 61.764C166.823 61.764 167.43 61.554 167.85 61.134C168.279 60.7233 168.494 60.1773 168.494 59.496V58.194L168.648 58.264C168.592 58.5253 168.475 58.768 168.298 58.992C168.13 59.216 167.92 59.4167 167.668 59.594C167.425 59.762 167.154 59.8973 166.856 60C166.557 60.0933 166.254 60.14 165.946 60.14C165.292 60.14 164.704 59.9767 164.182 59.65C163.659 59.3233 163.244 58.8753 162.936 58.306C162.637 57.7367 162.488 57.088 162.488 56.36C162.488 55.6227 162.637 54.9693 162.936 54.4C163.244 53.8307 163.654 53.3873 164.168 53.07C164.69 52.7433 165.274 52.58 165.918 52.58ZM166.058 53.616C165.582 53.616 165.152 53.7373 164.77 53.98C164.396 54.2133 164.102 54.5353 163.888 54.946C163.682 55.3567 163.58 55.828 163.58 56.36C163.58 56.8733 163.682 57.34 163.888 57.76C164.102 58.1707 164.396 58.4973 164.77 58.74C165.152 58.9827 165.582 59.104 166.058 59.104C166.543 59.104 166.972 58.9873 167.346 58.754C167.719 58.5113 168.013 58.1847 168.228 57.774C168.442 57.3633 168.55 56.892 168.55 56.36C168.55 55.8187 168.442 55.3427 168.228 54.932C168.013 54.5213 167.719 54.1993 167.346 53.966C166.972 53.7327 166.543 53.616 166.058 53.616ZM175.142 52.65C175.777 52.65 176.29 52.8133 176.682 53.14C177.084 53.4573 177.35 53.91 177.48 54.498H177.27L177.368 54.246C177.48 53.9847 177.672 53.7327 177.942 53.49C178.213 53.2473 178.526 53.0467 178.88 52.888C179.235 52.7293 179.604 52.65 179.986 52.65C180.602 52.65 181.088 52.7853 181.442 53.056C181.797 53.3173 182.049 53.672 182.198 54.12C182.357 54.5587 182.436 55.0533 182.436 55.604V59.426C182.436 59.5847 182.38 59.72 182.268 59.832C182.166 59.944 182.035 60 181.876 60C181.708 60 181.573 59.944 181.47 59.832C181.368 59.72 181.316 59.5847 181.316 59.426V55.632C181.316 55.268 181.26 54.9413 181.148 54.652C181.046 54.3533 180.873 54.12 180.63 53.952C180.397 53.7747 180.075 53.686 179.664 53.686C179.282 53.686 178.932 53.7747 178.614 53.952C178.297 54.12 178.045 54.3533 177.858 54.652C177.672 54.9413 177.578 55.268 177.578 55.632V59.426C177.578 59.5847 177.527 59.72 177.424 59.832C177.322 59.944 177.186 60 177.018 60C176.86 60 176.724 59.944 176.612 59.832C176.51 59.72 176.458 59.5847 176.458 59.426V55.59C176.458 55.2353 176.407 54.918 176.304 54.638C176.211 54.3487 176.048 54.12 175.814 53.952C175.581 53.7747 175.259 53.686 174.848 53.686C174.475 53.686 174.134 53.7747 173.826 53.952C173.518 54.12 173.271 54.3487 173.084 54.638C172.898 54.918 172.804 55.2353 172.804 55.59V59.426C172.804 59.5847 172.748 59.72 172.636 59.832C172.534 59.944 172.403 60 172.244 60C172.086 60 171.95 59.944 171.838 59.832C171.736 59.72 171.684 59.5847 171.684 59.426V53.322C171.684 53.1633 171.736 53.0327 171.838 52.93C171.95 52.818 172.086 52.762 172.244 52.762C172.412 52.762 172.548 52.818 172.65 52.93C172.753 53.0327 172.804 53.1633 172.804 53.322V54.386L172.496 54.722C172.534 54.4793 172.627 54.2367 172.776 53.994C172.935 53.7513 173.136 53.5273 173.378 53.322C173.621 53.1167 173.892 52.9533 174.19 52.832C174.489 52.7107 174.806 52.65 175.142 52.65ZM190.473 52.692C190.631 52.692 190.762 52.748 190.865 52.86C190.977 52.9627 191.033 53.0933 191.033 53.252V59.426C191.033 59.5847 190.977 59.72 190.865 59.832C190.762 59.944 190.631 60 190.473 60C190.305 60 190.169 59.944 190.067 59.832C189.964 59.72 189.913 59.5847 189.913 59.426V58.096L190.179 58.068C190.179 58.2733 190.109 58.4973 189.969 58.74C189.829 58.9827 189.637 59.2113 189.395 59.426C189.152 59.6313 188.863 59.804 188.527 59.944C188.2 60.0747 187.845 60.14 187.463 60.14C186.828 60.14 186.259 59.9767 185.755 59.65C185.251 59.314 184.849 58.8613 184.551 58.292C184.261 57.7227 184.117 57.074 184.117 56.346C184.117 55.6087 184.261 54.96 184.551 54.4C184.849 53.8307 185.251 53.3873 185.755 53.07C186.259 52.7433 186.819 52.58 187.435 52.58C187.836 52.58 188.209 52.6453 188.555 52.776C188.9 52.9067 189.199 53.084 189.451 53.308C189.712 53.532 189.913 53.7793 190.053 54.05C190.202 54.3207 190.277 54.5913 190.277 54.862L189.913 54.778V53.252C189.913 53.0933 189.964 52.9627 190.067 52.86C190.169 52.748 190.305 52.692 190.473 52.692ZM187.589 59.104C188.055 59.104 188.466 58.9827 188.821 58.74C189.185 58.4973 189.465 58.1707 189.661 57.76C189.866 57.34 189.969 56.8687 189.969 56.346C189.969 55.8327 189.866 55.3707 189.661 54.96C189.465 54.54 189.185 54.2133 188.821 53.98C188.466 53.7373 188.055 53.616 187.589 53.616C187.131 53.616 186.721 53.7327 186.357 53.966C186.002 54.1993 185.722 54.5213 185.517 54.932C185.311 55.3427 185.209 55.814 185.209 56.346C185.209 56.8687 185.307 57.34 185.503 57.76C185.708 58.1707 185.988 58.4973 186.343 58.74C186.707 58.9827 187.122 59.104 187.589 59.104ZM194.186 59.426C194.186 59.5847 194.13 59.72 194.018 59.832C193.916 59.944 193.785 60 193.626 60C193.458 60 193.323 59.944 193.22 59.832C193.118 59.72 193.066 59.5847 193.066 59.426V53.21C193.066 53.0513 193.118 52.9207 193.22 52.818C193.332 52.706 193.468 52.65 193.626 52.65C193.785 52.65 193.916 52.706 194.018 52.818C194.13 52.9207 194.186 53.0513 194.186 53.21V59.426ZM193.626 51.712C193.393 51.712 193.22 51.6653 193.108 51.572C192.996 51.4787 192.94 51.334 192.94 51.138V50.942C192.94 50.746 193.001 50.6013 193.122 50.508C193.244 50.4147 193.416 50.368 193.64 50.368C193.864 50.368 194.032 50.4147 194.144 50.508C194.256 50.6013 194.312 50.746 194.312 50.942V51.138C194.312 51.334 194.252 51.4787 194.13 51.572C194.018 51.6653 193.85 51.712 193.626 51.712ZM197.43 59.426C197.43 59.5847 197.374 59.72 197.262 59.832C197.15 59.944 197.015 60 196.856 60C196.697 60 196.567 59.944 196.464 59.832C196.361 59.72 196.31 59.5847 196.31 59.426V50.2C196.31 50.0413 196.361 49.9107 196.464 49.808C196.576 49.696 196.711 49.64 196.87 49.64C197.038 49.64 197.173 49.696 197.276 49.808C197.379 49.9107 197.43 50.0413 197.43 50.2V59.426ZM199.938 59.986C199.742 59.986 199.588 59.93 199.476 59.818C199.374 59.706 199.322 59.552 199.322 59.356V59.076C199.322 58.8707 199.374 58.712 199.476 58.6C199.588 58.488 199.742 58.432 199.938 58.432H200.05C200.256 58.432 200.41 58.488 200.512 58.6C200.615 58.712 200.666 58.8707 200.666 59.076V59.356C200.666 59.552 200.615 59.706 200.512 59.818C200.41 59.93 200.256 59.986 200.05 59.986H199.938ZM205.68 52.58C206.156 52.58 206.585 52.6313 206.968 52.734C207.35 52.8367 207.654 52.9767 207.878 53.154C208.102 53.3313 208.214 53.532 208.214 53.756C208.214 53.8773 208.172 53.994 208.088 54.106C208.004 54.218 207.892 54.274 207.752 54.274C207.621 54.274 207.514 54.2507 207.43 54.204C207.355 54.1573 207.28 54.0967 207.206 54.022C207.14 53.9473 207.047 53.882 206.926 53.826C206.814 53.7607 206.65 53.7093 206.436 53.672C206.221 53.6347 206.006 53.616 205.792 53.616C205.278 53.616 204.826 53.7373 204.434 53.98C204.051 54.2227 203.748 54.5493 203.524 54.96C203.3 55.3707 203.188 55.8373 203.188 56.36C203.188 56.8827 203.295 57.3493 203.51 57.76C203.724 58.1707 204.023 58.4973 204.406 58.74C204.788 58.9827 205.232 59.104 205.736 59.104C206.062 59.104 206.324 59.076 206.52 59.02C206.716 58.964 206.879 58.8987 207.01 58.824C207.178 58.7307 207.304 58.6373 207.388 58.544C207.481 58.4507 207.602 58.404 207.752 58.404C207.91 58.404 208.032 58.4553 208.116 58.558C208.209 58.6607 208.256 58.7867 208.256 58.936C208.256 59.104 208.139 59.2813 207.906 59.468C207.672 59.6547 207.355 59.8133 206.954 59.944C206.562 60.0747 206.114 60.14 205.61 60.14C204.9 60.14 204.28 59.9767 203.748 59.65C203.216 59.314 202.8 58.8613 202.502 58.292C202.212 57.7133 202.068 57.0693 202.068 56.36C202.068 55.6507 202.217 55.0113 202.516 54.442C202.824 53.8727 203.248 53.42 203.79 53.084C204.331 52.748 204.961 52.58 205.68 52.58ZM216.594 56.36C216.594 57.088 216.43 57.7367 216.104 58.306C215.786 58.8753 215.352 59.3233 214.802 59.65C214.26 59.9767 213.649 60.14 212.968 60.14C212.286 60.14 211.67 59.9767 211.12 59.65C210.569 59.3233 210.13 58.8753 209.804 58.306C209.486 57.7367 209.328 57.088 209.328 56.36C209.328 55.632 209.486 54.9833 209.804 54.414C210.13 53.8447 210.569 53.3967 211.12 53.07C211.67 52.7433 212.286 52.58 212.968 52.58C213.649 52.58 214.26 52.7433 214.802 53.07C215.352 53.3967 215.786 53.8447 216.104 54.414C216.43 54.9833 216.594 55.632 216.594 56.36ZM215.474 56.36C215.474 55.8187 215.362 55.3427 215.138 54.932C214.923 54.5213 214.624 54.1993 214.242 53.966C213.868 53.7327 213.444 53.616 212.968 53.616C212.492 53.616 212.062 53.7327 211.68 53.966C211.306 54.1993 211.008 54.5213 210.784 54.932C210.56 55.3427 210.448 55.8187 210.448 56.36C210.448 56.892 210.56 57.3633 210.784 57.774C211.008 58.1847 211.306 58.5113 211.68 58.754C212.062 58.9873 212.492 59.104 212.968 59.104C213.444 59.104 213.868 58.9873 214.242 58.754C214.624 58.5113 214.923 58.1847 215.138 57.774C215.362 57.3633 215.474 56.892 215.474 56.36ZM221.736 52.65C222.371 52.65 222.884 52.8133 223.276 53.14C223.678 53.4573 223.944 53.91 224.074 54.498H223.864L223.962 54.246C224.074 53.9847 224.266 53.7327 224.536 53.49C224.807 53.2473 225.12 53.0467 225.474 52.888C225.829 52.7293 226.198 52.65 226.58 52.65C227.196 52.65 227.682 52.7853 228.036 53.056C228.391 53.3173 228.643 53.672 228.792 54.12C228.951 54.5587 229.03 55.0533 229.03 55.604V59.426C229.03 59.5847 228.974 59.72 228.862 59.832C228.76 59.944 228.629 60 228.47 60C228.302 60 228.167 59.944 228.064 59.832C227.962 59.72 227.91 59.5847 227.91 59.426V55.632C227.91 55.268 227.854 54.9413 227.742 54.652C227.64 54.3533 227.467 54.12 227.224 53.952C226.991 53.7747 226.669 53.686 226.258 53.686C225.876 53.686 225.526 53.7747 225.208 53.952C224.891 54.12 224.639 54.3533 224.452 54.652C224.266 54.9413 224.172 55.268 224.172 55.632V59.426C224.172 59.5847 224.121 59.72 224.018 59.832C223.916 59.944 223.78 60 223.612 60C223.454 60 223.318 59.944 223.206 59.832C223.104 59.72 223.052 59.5847 223.052 59.426V55.59C223.052 55.2353 223.001 54.918 222.898 54.638C222.805 54.3487 222.642 54.12 222.408 53.952C222.175 53.7747 221.853 53.686 221.442 53.686C221.069 53.686 220.728 53.7747 220.42 53.952C220.112 54.12 219.865 54.3487 219.678 54.638C219.492 54.918 219.398 55.2353 219.398 55.59V59.426C219.398 59.5847 219.342 59.72 219.23 59.832C219.128 59.944 218.997 60 218.838 60C218.68 60 218.544 59.944 218.432 59.832C218.33 59.72 218.278 59.5847 218.278 59.426V53.322C218.278 53.1633 218.33 53.0327 218.432 52.93C218.544 52.818 218.68 52.762 218.838 52.762C219.006 52.762 219.142 52.818 219.244 52.93C219.347 53.0327 219.398 53.1633 219.398 53.322V54.386L219.09 54.722C219.128 54.4793 219.221 54.2367 219.37 53.994C219.529 53.7513 219.73 53.5273 219.972 53.322C220.215 53.1167 220.486 52.9533 220.784 52.832C221.083 52.7107 221.4 52.65 221.736 52.65Z" fill="#2A2F33"/>
<path d="M52.6784 39.4572L38.4023 39.4565C37.7718 39.4565 37.2609 39.9675 37.2609 40.5979V45.1585C37.2609 45.7887 37.7718 46.2998 38.4022 46.2998H46.4417C45.5613 48.5844 43.9182 50.4977 41.8219 51.7134L45.25 57.6477C50.7489 54.4674 54 48.8873 54 42.6407C54 41.7513 53.9344 41.1155 53.8033 40.3996C53.7036 39.8556 53.2314 39.4572 52.6784 39.4572Z" fill="#D58900"/>
<path d="M36.5 53.1521C32.5656 53.1521 29.131 51.0025 27.2863 47.8215L21.3523 51.2418C24.3721 56.4756 30.0291 60 36.5 60C39.6744 60 42.6697 59.1453 45.25 57.6558V57.6476L41.822 51.7134C40.2539 52.6228 38.4394 53.1521 36.5 53.1521Z" fill="#D58900"/>
<path d="M45.25 57.6558V57.6477L41.822 51.7134C40.254 52.6228 38.4396 53.1521 36.5 53.1521V60C39.6744 60 42.6698 59.1453 45.25 57.6558Z" fill="#D58900"/>
<path d="M25.8478 42.5C25.8478 40.5608 26.3771 38.7464 27.2863 37.1785L21.3523 33.7582C19.8546 36.3303 19 39.3175 19 42.5C19 45.6826 19.8546 48.6698 21.3523 51.2419L27.2863 47.8216C26.3771 46.2537 25.8478 44.4393 25.8478 42.5Z" fill="#D58900"/>
<path d="M36.5 31.8478C39.0656 31.8478 41.4222 32.7595 43.2629 34.2759C43.717 34.65 44.377 34.6229 44.793 34.207L48.0243 30.9756C48.4963 30.5037 48.4627 29.7312 47.9585 29.2938C44.8745 26.6183 40.8618 25 36.5 25C30.0291 25 24.3721 28.5244 21.3523 33.7581L27.2863 37.1784C29.131 33.9975 32.5656 31.8478 36.5 31.8478Z" fill="#D58900"/>
<path d="M43.2629 34.2759C43.717 34.65 44.3771 34.6229 44.793 34.207L48.0244 30.9756C48.4963 30.5037 48.4626 29.7312 47.9585 29.2938C44.8745 26.6182 40.8618 25 36.5 25V31.8478C39.0655 31.8478 41.4222 32.7595 43.2629 34.2759Z" fill="#D58900"/>
<defs>
<linearGradient id="paint0_linear_619_12869" x1="148.5" y1="0" x2="148.5" y2="86" gradientUnits="userSpaceOnUse">
<stop stop-color="#FFE384"/>
<stop offset="1" stop-color="#FFCF35"/>
</linearGradient>
</defs>
</svg>
