<svg width="103" height="112" viewBox="0 0 103 112" fill="none" xmlns="http://www.w3.org/2000/svg">
<g filter="url(#filter0_d_619_18749)">
<g clip-path="url(#clip0_619_18749)">
<path d="M45.7889 56.3853C45.5907 56.1426 45.3475 55.8643 45.061 55.5705C44.2297 54.7183 43.0167 53.7197 41.4614 53.0998C41.3197 52.3644 40.7383 51.7566 39.9573 51.6023C38.9366 51.4006 37.9307 52.0459 37.7283 53.07C37.5258 54.0945 38.2105 55.0739 39.2312 55.2757C39.671 55.3626 40.1053 55.292 40.474 55.1035C41.7218 56.4252 42.9234 58.5843 42.2866 61.8063L42.0728 62.8883L43.0266 62.3366L43.0268 62.3365L43.0269 62.3364L43.0272 62.3363L43.0275 62.3361L43.0303 62.3345L43.05 62.3236C43.0687 62.3135 43.0984 62.2977 43.1388 62.2773C43.2195 62.2365 43.3426 62.1773 43.5049 62.1079C43.8297 61.969 44.3104 61.7898 44.9217 61.6354C46.1441 61.3267 47.885 61.1179 49.9483 61.5257L49.9483 61.5257L49.9483 61.5257L49.9483 61.5257L49.9484 61.5257L49.9484 61.5257L49.9484 61.5257L49.9484 61.5257L49.9485 61.5257L49.9485 61.5257L49.9485 61.5257L49.9485 61.5258L49.9486 61.5258L49.9486 61.5258L49.9486 61.5258L49.9486 61.5258L49.9487 61.5258L49.9487 61.5258L49.9487 61.5258L49.9487 61.5258L49.9488 61.5258L49.9488 61.5258L49.9488 61.5258L49.9488 61.5258L49.9489 61.5258L49.9489 61.5258L49.9489 61.5258L49.9489 61.5258L49.949 61.5258L49.949 61.5258L49.949 61.5258L49.949 61.5259L49.9491 61.5259L49.9491 61.5259L49.9491 61.5259L49.9491 61.5259L49.9492 61.5259L49.9492 61.5259L49.9492 61.5259L49.9493 61.5259L49.9493 61.5259L49.9493 61.5259L49.9493 61.5259L49.9494 61.5259L49.9494 61.5259L49.9494 61.5259L49.9494 61.5259L49.9495 61.5259L49.9495 61.5259L49.9495 61.5259L49.9495 61.5259L49.9496 61.526L49.9496 61.526L49.9496 61.526L49.9496 61.526L49.9497 61.526L49.9497 61.526L49.9497 61.526L49.9497 61.526L49.9498 61.526L49.9498 61.526L49.9498 61.526L49.9498 61.526L49.9499 61.526L49.9499 61.526L49.9499 61.526L49.9499 61.526L49.95 61.526L49.95 61.526L49.95 61.526L49.95 61.526L49.9501 61.5261L49.9501 61.5261L49.9501 61.5261L49.9501 61.5261L49.9502 61.5261L49.9502 61.5261L49.9502 61.5261L49.9502 61.5261L49.9503 61.5261L49.9503 61.5261L49.9503 61.5261L49.9503 61.5261L49.9504 61.5261L49.9504 61.5261L49.9504 61.5261L49.9504 61.5261L49.9505 61.5261L49.9505 61.5261L49.9505 61.5261L49.9505 61.5261L49.9506 61.5262L49.9506 61.5262L49.9506 61.5262L49.9506 61.5262L49.9507 61.5262L49.9507 61.5262L49.9507 61.5262L49.9507 61.5262L49.9508 61.5262L49.9508 61.5262L49.9508 61.5262L49.9508 61.5262L49.9509 61.5262L49.9509 61.5262L49.9509 61.5262L49.9509 61.5262L49.951 61.5262L49.951 61.5262L49.951 61.5262L49.951 61.5262L49.9511 61.5263L49.9511 61.5263L49.9511 61.5263L49.9511 61.5263L49.9512 61.5263L49.9512 61.5263L49.9512 61.5263L49.9512 61.5263L49.9513 61.5263L49.9513 61.5263L49.9513 61.5263L49.9513 61.5263L49.9514 61.5263L49.9514 61.5263L49.9514 61.5263L49.9514 61.5263L49.9515 61.5263L49.9515 61.5263L49.9515 61.5263L49.9515 61.5263L49.9516 61.5263L49.9516 61.5264L49.9516 61.5264L49.9516 61.5264L49.9517 61.5264L49.9517 61.5264L49.9517 61.5264L49.9517 61.5264L49.9518 61.5264L49.9518 61.5264L49.9518 61.5264L49.9518 61.5264L49.9519 61.5264L49.9519 61.5264L49.9519 61.5264L49.9519 61.5264L49.952 61.5264L49.952 61.5264L49.952 61.5264L49.952 61.5264L49.9521 61.5264L49.9521 61.5265L49.9521 61.5265L49.9521 61.5265L49.9522 61.5265L49.9522 61.5265L49.9522 61.5265L49.9522 61.5265L49.9523 61.5265L49.9523 61.5265L49.9523 61.5265L49.9523 61.5265L49.9524 61.5265L49.9524 61.5265L49.9524 61.5265L49.9524 61.5265L49.9525 61.5265L49.9525 61.5265L49.9525 61.5265L49.9525 61.5265L49.9526 61.5265L49.9526 61.5266L49.9526 61.5266L49.9526 61.5266L49.9527 61.5266L49.9527 61.5266L49.9527 61.5266L49.9527 61.5266L49.9528 61.5266L49.9528 61.5266L49.9528 61.5266L49.9528 61.5266L49.9529 61.5266L49.9529 61.5266L49.9529 61.5266L49.9529 61.5266L49.953 61.5266L49.953 61.5266L49.953 61.5266L49.953 61.5266L49.9531 61.5266L49.9531 61.5267L49.9531 61.5267L49.9531 61.5267L49.9532 61.5267L49.9532 61.5267L49.9532 61.5267L49.9532 61.5267L49.9533 61.5267L49.9533 61.5267L49.9533 61.5267L49.9533 61.5267L49.9534 61.5267L49.9534 61.5267L49.9534 61.5267L49.9534 61.5267L49.9535 61.5267L49.9535 61.5267L49.9535 61.5267L49.9535 61.5267L49.9536 61.5267L49.9536 61.5268L49.9536 61.5268L49.9536 61.5268L49.9537 61.5268L49.9537 61.5268L49.9537 61.5268L49.9537 61.5268L49.9538 61.5268L49.9538 61.5268L49.9538 61.5268L49.9538 61.5268L49.9539 61.5268L49.9539 61.5268L49.9539 61.5268L49.9539 61.5268L49.954 61.5268L49.954 61.5268L49.954 61.5268L49.954 61.5268L49.9541 61.5268L49.9541 61.5268L49.9541 61.5269L49.9541 61.5269L49.9542 61.5269L49.9542 61.5269L49.9542 61.5269L49.9542 61.5269L49.9543 61.5269L49.9543 61.5269L49.9543 61.5269L49.9543 61.5269L49.9544 61.5269L49.9544 61.5269L49.9544 61.5269L49.9544 61.5269L49.9545 61.5269L49.9545 61.5269L49.9545 61.5269L49.9545 61.5269L49.9546 61.5269L49.9546 61.5269L49.9546 61.527L49.9546 61.527L49.9547 61.527L49.9547 61.527L49.9547 61.527L49.9547 61.527L49.9548 61.527L49.9548 61.527L49.9548 61.527L49.9548 61.527L49.9549 61.527L49.9549 61.527L49.9549 61.527L49.9549 61.527L49.955 61.527L49.955 61.527L49.955 61.527L49.955 61.527L49.9551 61.527L49.9551 61.527L49.9551 61.5271L49.9551 61.5271L49.9552 61.5271L49.9552 61.5271L49.9552 61.5271L49.9552 61.5271L49.9553 61.5271L49.9553 61.5271L49.9553 61.5271L49.9553 61.5271L49.9554 61.5271L49.9554 61.5271L49.9554 61.5271L49.9554 61.5271L49.9555 61.5271L49.9555 61.5271L49.9555 61.5271L49.9555 61.5271L49.9556 61.5271L49.9556 61.5271L49.9556 61.5272L49.9556 61.5272L49.9557 61.5272L49.9557 61.5272L49.9557 61.5272L49.9557 61.5272L49.9558 61.5272L49.9558 61.5272L49.9558 61.5272L49.9558 61.5272L49.9559 61.5272L49.9559 61.5272L49.9559 61.5272L49.9559 61.5272L49.956 61.5272L49.956 61.5272L49.956 61.5272L49.956 61.5272L49.9561 61.5272L49.9561 61.5272L49.9561 61.5272L49.9561 61.5273L49.9562 61.5273L49.9562 61.5273L49.9562 61.5273L49.9562 61.5273L49.9563 61.5273L49.9563 61.5273L49.9563 61.5273L49.9563 61.5273L49.9564 61.5273L49.9564 61.5273L49.9564 61.5273L49.9564 61.5273L49.9565 61.5273L49.9565 61.5273L49.9565 61.5273L49.9565 61.5273L49.9566 61.5273L49.9566 61.5273L49.9566 61.5273L49.9566 61.5274L49.9567 61.5274L49.9567 61.5274L49.9567 61.5274L49.9567 61.5274L49.9568 61.5274L49.9568 61.5274L49.9568 61.5274L49.9568 61.5274L49.9569 61.5274L49.9569 61.5274L49.9569 61.5274L49.9569 61.5274L49.957 61.5274L49.957 61.5274L49.957 61.5274L49.957 61.5274L49.9571 61.5274L49.9571 61.5274L49.9571 61.5274L49.9571 61.5275L49.9572 61.5275L49.9572 61.5275L49.9572 61.5275L49.9572 61.5275L49.9573 61.5275L49.9573 61.5275L49.9573 61.5275L49.9573 61.5275L49.9574 61.5275L49.9574 61.5275L49.9574 61.5275L49.9574 61.5275L49.9575 61.5275L49.9575 61.5275L49.9575 61.5275L49.9575 61.5275L49.9576 61.5275L49.9576 61.5275L49.9576 61.5275L49.9576 61.5276L49.9577 61.5276L49.9577 61.5276L49.9577 61.5276L49.9577 61.5276L49.9578 61.5276L49.9578 61.5276L49.9578 61.5276L49.9578 61.5276L49.9579 61.5276L49.9579 61.5276L49.9579 61.5276L49.9579 61.5276L49.958 61.5276L49.958 61.5276L49.958 61.5276L49.958 61.5276L49.9581 61.5276L49.9581 61.5276L49.9581 61.5276L49.9581 61.5276L49.9582 61.5277L49.9582 61.5277L49.9582 61.5277L49.9582 61.5277L49.9583 61.5277L49.9583 61.5277L49.9583 61.5277L49.9583 61.5277L49.9584 61.5277L49.9584 61.5277L49.9584 61.5277L49.9584 61.5277L49.9585 61.5277L49.9585 61.5277L49.9585 61.5277L49.9585 61.5277L49.9586 61.5277L49.9586 61.5277L49.9586 61.5277L49.9586 61.5277L49.9587 61.5278L49.9587 61.5278L49.9587 61.5278L49.9587 61.5278L49.9588 61.5278L49.9588 61.5278L49.9588 61.5278L49.9588 61.5278L49.9589 61.5278L49.9589 61.5278L49.9589 61.5278L49.9589 61.5278L49.959 61.5278L49.959 61.5278L49.959 61.5278L49.9591 61.5278L49.9591 61.5278L49.9591 61.5278L49.9591 61.5278L49.9592 61.5278L49.9592 61.5279L49.9592 61.5279L49.9592 61.5279L49.9593 61.5279L49.9593 61.5279L49.9593 61.5279L49.9593 61.5279L49.9594 61.5279L49.9594 61.5279L49.9594 61.5279L49.9594 61.5279L49.9595 61.5279L49.9595 61.5279L49.9595 61.5279L49.9595 61.5279L49.9596 61.5279L49.9596 61.5279L49.9596 61.5279L49.9596 61.5279L49.9597 61.5279L49.9597 61.528L49.9597 61.528L49.9597 61.528L49.9598 61.528L49.9598 61.528L49.9598 61.528L49.9598 61.528L49.9599 61.528L49.9599 61.528L49.9599 61.528L49.9599 61.528L49.96 61.528L49.96 61.528L49.96 61.528L49.96 61.528L49.9601 61.528L49.9601 61.528L49.9601 61.528L49.9601 61.528L49.9602 61.528L49.9602 61.5281L49.9602 61.5281L49.9602 61.5281L49.9603 61.5281L49.9603 61.5281L49.9603 61.5281L49.9603 61.5281L49.9604 61.5281L49.9604 61.5281L49.9604 61.5281L49.9604 61.5281L49.9605 61.5281L49.9605 61.5281L49.9605 61.5281L49.9605 61.5281L49.9606 61.5281L49.9606 61.5281L49.9606 61.5281L49.9606 61.5281L49.9607 61.5281L49.9607 61.5282L49.9607 61.5282L49.9607 61.5282L49.9608 61.5282L49.9608 61.5282L49.9608 61.5282L49.9608 61.5282L49.9609 61.5282L49.9609 61.5282L49.9609 61.5282L49.9609 61.5282L49.961 61.5282L49.961 61.5282L49.961 61.5282L49.961 61.5282L49.9611 61.5282L49.9611 61.5282L49.9611 61.5282L49.9611 61.5282L49.9612 61.5282L49.9612 61.5283L49.9612 61.5283L49.9613 61.5283L49.9613 61.5283L49.9613 61.5283L49.9613 61.5283L49.9614 61.5283L49.9614 61.5283L49.9614 61.5283L49.9614 61.5283L49.9615 61.5283L49.9615 61.5283L49.9615 61.5283L49.9615 61.5283L49.9616 61.5283L49.9616 61.5283L49.9616 61.5283L49.9616 61.5283L49.9617 61.5283L49.9617 61.5283L49.9617 61.5284L49.9617 61.5284L49.9618 61.5284L49.9618 61.5284L49.9618 61.5284L49.9618 61.5284L49.9619 61.5284L49.9619 61.5284L49.9619 61.5284L49.9619 61.5284L49.962 61.5284L49.962 61.5284L49.962 61.5284L49.962 61.5284L49.9621 61.5284L49.9621 61.5284L49.9621 61.5284L49.9621 61.5284L49.9622 61.5284L49.9622 61.5284L49.9622 61.5285L49.9622 61.5285L49.9623 61.5285L49.9623 61.5285L49.9623 61.5285L49.9623 61.5285L49.9624 61.5285L49.9624 61.5285L49.9624 61.5285L49.9624 61.5285L49.9625 61.5285L49.9625 61.5285L49.9625 61.5285L49.9625 61.5285L49.9626 61.5285L49.9626 61.5285L49.9626 61.5285L49.9626 61.5285L49.9627 61.5285L49.9627 61.5285L49.9627 61.5286L49.9627 61.5286L49.9628 61.5286L49.9628 61.5286L49.9628 61.5286L49.9628 61.5286L49.9629 61.5286L49.9629 61.5286L49.9629 61.5286L49.9629 61.5286L49.963 61.5286L49.963 61.5286L49.963 61.5286L49.963 61.5286L49.9631 61.5286L49.9631 61.5286L49.9631 61.5286L49.9631 61.5286L49.9632 61.5286L49.9632 61.5286L49.9632 61.5287L49.9632 61.5287L49.9633 61.5287L49.9633 61.5287L49.9633 61.5287L49.9633 61.5287L49.9634 61.5287L49.9634 61.5287L49.9634 61.5287L49.9634 61.5287L49.9635 61.5287L49.9635 61.5287L49.9635 61.5287L49.9636 61.5287L49.9636 61.5287L49.9636 61.5287L49.9636 61.5287L49.9636 61.5287L49.9637 61.5287L49.9637 61.5287L49.9637 61.5288L49.9638 61.5288L49.9638 61.5288L49.9638 61.5288L49.9638 61.5288L49.9639 61.5288L49.9639 61.5288L49.9639 61.5288L49.9639 61.5288L49.964 61.5288L49.964 61.5288L49.964 61.5288L49.964 61.5288L49.9641 61.5288L49.9641 61.5288L49.9641 61.5288L49.9641 61.5288L49.9642 61.5288L49.9642 61.5288L49.9642 61.5288L49.9642 61.5289L49.9643 61.5289L49.9643 61.5289L49.9643 61.5289L49.9643 61.5289L49.9644 61.5289L49.9644 61.5289L49.9644 61.5289L49.9644 61.5289L49.9645 61.5289L49.9645 61.5289L49.9645 61.5289L49.9645 61.5289L49.9646 61.5289L49.9646 61.5289L49.9646 61.5289L49.9646 61.5289L49.9647 61.5289L49.9647 61.5289L49.9647 61.5289L49.9647 61.529L49.9648 61.529L49.9648 61.529L49.9648 61.529L49.9648 61.529L49.9649 61.529L49.9649 61.529L49.9649 61.529L49.9649 61.529L49.965 61.529L49.965 61.529L49.965 61.529L49.965 61.529L49.9651 61.529L49.9651 61.529L49.9651 61.529L49.9651 61.529L49.9652 61.529L49.9652 61.529L49.9652 61.529L49.9652 61.5291L49.9653 61.5291L49.9653 61.5291L49.9653 61.5291L49.9653 61.5291L49.9654 61.5291L49.9654 61.5291L49.9654 61.5291L49.9654 61.5291L49.9655 61.5291L49.9655 61.5291L49.9655 61.5291L49.9655 61.5291L49.9656 61.5291L49.9656 61.5291L49.9656 61.5291L49.9656 61.5291L49.9657 61.5291L49.9657 61.5291L49.9657 61.5291L49.9657 61.5291L49.9658 61.5292L49.9658 61.5292L49.9658 61.5292L49.9658 61.5292L49.9659 61.5292L49.9659 61.5292L49.9659 61.5292L49.9659 61.5292L49.966 61.5292L49.966 61.5292L49.966 61.5292L49.966 61.5292L49.9661 61.5292L49.9661 61.5292L49.9661 61.5292L49.9661 61.5292L49.9662 61.5292L49.9662 61.5292L49.9662 61.5292L49.9662 61.5292L49.9663 61.5293L49.9663 61.5293L49.9663 61.5293L49.9663 61.5293L49.9664 61.5293L49.9664 61.5293L49.9664 61.5293L49.9664 61.5293L49.9665 61.5293L49.9665 61.5293L49.9665 61.5293L49.9665 61.5293L49.9666 61.5293L49.9666 61.5293L49.9666 61.5293L49.9666 61.5293L49.9667 61.5293L49.9667 61.5293L49.9667 61.5293L49.9667 61.5293L49.9668 61.5294L49.9668 61.5294L49.9668 61.5294L49.9668 61.5294L49.9669 61.5294L49.9669 61.5294L49.9669 61.5294L49.9669 61.5294L49.967 61.5294L49.967 61.5294L49.967 61.5294L49.967 61.5294L49.9671 61.5294L49.9671 61.5294L49.9671 61.5294L49.9671 61.5294L49.9672 61.5294L49.9672 61.5294L49.9672 61.5294L49.9672 61.5294L49.9673 61.5295L49.9673 61.5295L49.9673 61.5295L49.9673 61.5295L49.9674 61.5295L49.9674 61.5295L49.9674 61.5295L49.9674 61.5295L49.9675 61.5295L49.9675 61.5295L49.9675 61.5295L49.9675 61.5295L49.9676 61.5295L49.9676 61.5295L49.9676 61.5295L49.9676 61.5295L49.9677 61.5295L49.9677 61.5295L49.9677 61.5295L49.9677 61.5295L49.9678 61.5295L49.9678 61.5296L49.9678 61.5296L49.9678 61.5296L49.9679 61.5296L49.9679 61.5296L49.9679 61.5296L49.9679 61.5296L49.968 61.5296L49.968 61.5296L49.968 61.5296L49.968 61.5296L49.9681 61.5296L49.9681 61.5296L49.9681 61.5296L49.9681 61.5296L49.9682 61.5296L49.9682 61.5296L49.9682 61.5296L49.9682 61.5296L49.9683 61.5296L49.9683 61.5297L49.9683 61.5297L49.9683 61.5297L49.9684 61.5297L49.9684 61.5297L49.9684 61.5297L49.9684 61.5297L49.9685 61.5297L49.9685 61.5297L49.9685 61.5297L49.9685 61.5297L49.9686 61.5297L49.9686 61.5297L49.9686 61.5297L49.9686 61.5297L49.9687 61.5297L49.9687 61.5297L49.9687 61.5297L49.9687 61.5297L49.9688 61.5297L49.9688 61.5298L49.9688 61.5298L49.9688 61.5298L49.9689 61.5298L49.9689 61.5298L49.9689 61.5298L49.9689 61.5298L49.969 61.5298L49.969 61.5298L49.969 61.5298L49.969 61.5298L49.9691 61.5298L49.9691 61.5298L49.9691 61.5298L49.9691 61.5298L49.9692 61.5298L49.9692 61.5298L49.9692 61.5298L49.9692 61.5298L49.9693 61.5298L49.9693 61.5298L49.9693 61.5299L49.9693 61.5299L49.9694 61.5299L49.9694 61.5299L49.9694 61.5299L49.9694 61.5299L49.9695 61.5299L49.9695 61.5299L49.9695 61.5299L49.9695 61.5299L49.9696 61.5299L49.9696 61.5299L49.9696 61.5299L49.9696 61.5299L49.9697 61.5299L49.9697 61.5299L49.9697 61.5299L49.9697 61.5299L49.9698 61.5299L49.9698 61.5299L49.9698 61.53L49.9698 61.53L49.9699 61.53L49.9699 61.53L49.9699 61.53L49.9699 61.53L49.97 61.53L49.97 61.53L49.97 61.53L49.97 61.53L49.9701 61.53L49.9701 61.53L49.9701 61.53L49.9701 61.53L49.9702 61.53L49.9702 61.53L49.9702 61.53L49.9702 61.53L49.9703 61.53L49.9703 61.53L49.9703 61.5301L49.9703 61.5301L49.9704 61.5301L49.9704 61.5301L49.9704 61.5301L49.9704 61.5301L49.9705 61.5301L49.9705 61.5301L49.9705 61.5301L49.9705 61.5301L49.9706 61.5301L49.9706 61.5301L49.9706 61.5301L49.9706 61.5301L49.9707 61.5301L49.9707 61.5301L49.9707 61.5301L49.9707 61.5301L49.9708 61.5301L49.9708 61.5301L49.9708 61.5302L49.9708 61.5302L49.9709 61.5302L49.9709 61.5302L49.9709 61.5302L49.9709 61.5302L49.971 61.5302L49.971 61.5302L49.971 61.5302L49.971 61.5302L49.9711 61.5302L49.9711 61.5302L49.9711 61.5302L49.9711 61.5302L49.9712 61.5302L49.9712 61.5302L49.9712 61.5302L49.9712 61.5302L49.9713 61.5302L49.9713 61.5302L49.9713 61.5303L49.9713 61.5303L49.9714 61.5303L49.9714 61.5303L49.9714 61.5303L49.9714 61.5303L49.9715 61.5303L49.9715 61.5303L49.9715 61.5303L49.9715 61.5303L49.9716 61.5303L49.9716 61.5303L49.9716 61.5303L49.9716 61.5303L49.9717 61.5303L49.9717 61.5303L49.9717 61.5303L49.9717 61.5303L49.9718 61.5303L49.9718 61.5303L49.9718 61.5304L49.9718 61.5304L49.9719 61.5304L49.9719 61.5304L49.9719 61.5304L49.9719 61.5304L49.972 61.5304L49.972 61.5304L49.972 61.5304L49.972 61.5304L49.9721 61.5304L49.9721 61.5304L49.9721 61.5304L49.9721 61.5304L49.9722 61.5304L49.9722 61.5304L49.9722 61.5304L49.9722 61.5304L49.9723 61.5304L49.9723 61.5304L49.9723 61.5304L49.9723 61.5305L49.9724 61.5305L49.9724 61.5305L49.9724 61.5305L49.9724 61.5305L49.9725 61.5305L49.9725 61.5305L49.9725 61.5305L49.9725 61.5305L49.9726 61.5305L49.9726 61.5305L49.9726 61.5305L49.9726 61.5305L49.9727 61.5305L49.9727 61.5305L49.9727 61.5305L49.9727 61.5305L49.9728 61.5305L49.9728 61.5305L49.9728 61.5305L49.9728 61.5306L49.9729 61.5306L49.9729 61.5306L49.9729 61.5306L49.9729 61.5306L49.973 61.5306L49.973 61.5306L49.973 61.5306L49.973 61.5306L49.9731 61.5306L49.9731 61.5306L49.9731 61.5306L49.9731 61.5306L49.9732 61.5306L49.9732 61.5306L49.9732 61.5306L49.9732 61.5306L49.9733 61.5306L49.9733 61.5306L49.9733 61.5306L49.9733 61.5307L49.9734 61.5307L49.9734 61.5307L49.9734 61.5307L49.9734 61.5307L49.9735 61.5307L49.9735 61.5307L49.9735 61.5307L49.9735 61.5307L49.9736 61.5307L49.9736 61.5307L49.9736 61.5307L49.9737 61.5307L49.9737 61.5307L49.9737 61.5307L49.9737 61.5307L49.9738 61.5307L49.9738 61.5307L49.9738 61.5307L49.9738 61.5307L49.9739 61.5308L49.9739 61.5308L49.9739 61.5308L49.9739 61.5308L49.974 61.5308L49.974 61.5308C52.0372 61.9386 53.5678 62.7939 54.5809 63.5445C55.0875 63.9198 55.4639 64.2684 55.7114 64.5204C55.8351 64.6464 55.9264 64.7479 55.9855 64.8164C56.0151 64.8506 56.0366 64.8765 56.05 64.893L56.0641 64.9105L56.0661 64.9131L56.0663 64.9134L56.0665 64.9136L56.0666 64.9137L56.0667 64.9139L56.7389 65.7869L56.9528 64.705C57.5878 61.4918 59.5115 59.9528 61.1647 59.2038C61.4332 59.5116 61.8036 59.7369 62.2373 59.8227C63.258 60.0244 64.2638 59.3793 64.4662 58.3544L45.7889 56.3853ZM45.7889 56.3853C46.314 54.7606 47.2752 53.1573 48.2832 51.7717C49.3486 50.3069 50.4917 49.0514 51.2966 48.2251C51.0012 47.8208 50.8658 47.3012 50.9709 46.7696C51.1733 45.7457 52.1787 45.0997 53.1999 45.3015C54.2206 45.5032 54.9052 46.4832 54.7028 47.5071C54.5941 48.0573 54.2523 48.4978 53.8028 48.7565C54.233 49.8312 54.807 51.4193 55.2305 53.1674C55.6324 54.8261 55.9083 56.6653 55.7762 58.3599C56.0496 58.2123 56.3771 58.0491 56.75 57.888C57.8372 57.4182 59.3309 56.9571 60.9974 56.9701C61.4068 56.3387 62.1788 55.994 62.9632 56.1491C63.9838 56.3508 64.6686 57.3302 64.4662 58.3543L45.7889 56.3853ZM68.8727 36.4335C70.3232 36.7202 71.2539 38.097 70.9783 39.4911L63.2763 78.4606C63.0008 79.8547 61.6163 80.7739 60.1659 80.4872L33.2083 75.1593C31.7579 74.8726 30.8272 73.4958 31.1027 72.1017L38.8047 33.1323C39.0802 31.7381 40.4648 30.8189 41.9152 31.1056L68.8727 36.4335Z" fill="url(#paint0_linear_619_18749)" stroke="white"/>
</g>
</g>
<defs>
<filter id="filter0_d_619_18749" x="0" y="0" width="102.058" height="111.588" filterUnits="userSpaceOnUse" color-interpolation-filters="sRGB">
<feFlood flood-opacity="0" result="BackgroundImageFix"/>
<feColorMatrix in="SourceAlpha" type="matrix" values="0 0 0 0 0 0 0 0 0 0 0 0 0 0 0 0 0 0 127 0" result="hardAlpha"/>
<feOffset/>
<feGaussianBlur stdDeviation="15"/>
<feComposite in2="hardAlpha" operator="out"/>
<feColorMatrix type="matrix" values="0 0 0 0 1 0 0 0 0 0.780392 0 0 0 0 0.0509804 0 0 0 1 0"/>
<feBlend mode="normal" in2="BackgroundImageFix" result="effect1_dropShadow_619_18749"/>
<feBlend mode="normal" in="SourceGraphic" in2="effect1_dropShadow_619_18749" result="shape"/>
</filter>
<linearGradient id="paint0_linear_619_18749" x1="55.4909" y1="33.2791" x2="46.5902" y2="78.3138" gradientUnits="userSpaceOnUse">
<stop stop-color="#892C73"/>
<stop offset="0.409375" stop-color="#B949A4"/>
<stop offset="0.529167" stop-color="#D767C2"/>
<stop offset="1" stop-color="#7A216C"/>
</linearGradient>
<clipPath id="clip0_619_18749">
<rect x="38.9008" y="30" width="33.7985" height="45.9059" rx="3" transform="rotate(11.18 38.9008 30)" fill="white"/>
</clipPath>
</defs>
</svg>
