<svg width="43" height="52" viewBox="0 0 43 52" fill="none" xmlns="http://www.w3.org/2000/svg">
<g clip-path="url(#clip0_619_17216)">
<path d="M15.7889 26.3853C15.5907 26.1426 15.3475 25.8643 15.061 25.5705C14.2297 24.7183 13.0167 23.7197 11.4614 23.0998C11.3197 22.3644 10.7383 21.7566 9.95725 21.6023C8.93658 21.4006 7.93071 22.0459 7.72831 23.07C7.52582 24.0945 8.21053 25.0739 9.23123 25.2757C9.67101 25.3626 10.1053 25.292 10.474 25.1035C11.7218 26.4252 12.9234 28.5843 12.2866 31.8063L12.0728 32.8883L13.0266 32.3366L13.0268 32.3365L13.0269 32.3364L13.0272 32.3363L13.0275 32.3361L13.0303 32.3345L13.05 32.3236C13.0687 32.3135 13.0984 32.2977 13.1388 32.2773C13.2195 32.2365 13.3426 32.1773 13.5049 32.1079C13.8297 31.969 14.3104 31.7898 14.9217 31.6354C16.1441 31.3267 17.885 31.1179 19.9483 31.5257L19.9483 31.5257L19.9483 31.5257L19.9483 31.5257L19.9484 31.5257L19.9484 31.5257L19.9484 31.5257L19.9484 31.5257L19.9485 31.5257L19.9485 31.5257L19.9485 31.5257L19.9485 31.5258L19.9486 31.5258L19.9486 31.5258L19.9486 31.5258L19.9486 31.5258L19.9487 31.5258L19.9487 31.5258L19.9487 31.5258L19.9487 31.5258L19.9488 31.5258L19.9488 31.5258L19.9488 31.5258L19.9488 31.5258L19.9489 31.5258L19.9489 31.5258L19.9489 31.5258L19.9489 31.5258L19.949 31.5258L19.949 31.5258L19.949 31.5258L19.949 31.5259L19.9491 31.5259L19.9491 31.5259L19.9491 31.5259L19.9491 31.5259L19.9492 31.5259L19.9492 31.5259L19.9492 31.5259L19.9493 31.5259L19.9493 31.5259L19.9493 31.5259L19.9493 31.5259L19.9494 31.5259L19.9494 31.5259L19.9494 31.5259L19.9494 31.5259L19.9495 31.5259L19.9495 31.5259L19.9495 31.5259L19.9495 31.5259L19.9496 31.526L19.9496 31.526L19.9496 31.526L19.9496 31.526L19.9497 31.526L19.9497 31.526L19.9497 31.526L19.9497 31.526L19.9498 31.526L19.9498 31.526L19.9498 31.526L19.9498 31.526L19.9499 31.526L19.9499 31.526L19.9499 31.526L19.9499 31.526L19.95 31.526L19.95 31.526L19.95 31.526L19.95 31.526L19.9501 31.5261L19.9501 31.5261L19.9501 31.5261L19.9501 31.5261L19.9502 31.5261L19.9502 31.5261L19.9502 31.5261L19.9502 31.5261L19.9503 31.5261L19.9503 31.5261L19.9503 31.5261L19.9503 31.5261L19.9504 31.5261L19.9504 31.5261L19.9504 31.5261L19.9504 31.5261L19.9505 31.5261L19.9505 31.5261L19.9505 31.5261L19.9505 31.5261L19.9506 31.5262L19.9506 31.5262L19.9506 31.5262L19.9506 31.5262L19.9507 31.5262L19.9507 31.5262L19.9507 31.5262L19.9507 31.5262L19.9508 31.5262L19.9508 31.5262L19.9508 31.5262L19.9508 31.5262L19.9509 31.5262L19.9509 31.5262L19.9509 31.5262L19.9509 31.5262L19.951 31.5262L19.951 31.5262L19.951 31.5262L19.951 31.5262L19.9511 31.5263L19.9511 31.5263L19.9511 31.5263L19.9511 31.5263L19.9512 31.5263L19.9512 31.5263L19.9512 31.5263L19.9512 31.5263L19.9513 31.5263L19.9513 31.5263L19.9513 31.5263L19.9513 31.5263L19.9514 31.5263L19.9514 31.5263L19.9514 31.5263L19.9514 31.5263L19.9515 31.5263L19.9515 31.5263L19.9515 31.5263L19.9515 31.5263L19.9516 31.5263L19.9516 31.5264L19.9516 31.5264L19.9516 31.5264L19.9517 31.5264L19.9517 31.5264L19.9517 31.5264L19.9517 31.5264L19.9518 31.5264L19.9518 31.5264L19.9518 31.5264L19.9518 31.5264L19.9519 31.5264L19.9519 31.5264L19.9519 31.5264L19.9519 31.5264L19.952 31.5264L19.952 31.5264L19.952 31.5264L19.952 31.5264L19.9521 31.5264L19.9521 31.5265L19.9521 31.5265L19.9521 31.5265L19.9522 31.5265L19.9522 31.5265L19.9522 31.5265L19.9522 31.5265L19.9523 31.5265L19.9523 31.5265L19.9523 31.5265L19.9523 31.5265L19.9524 31.5265L19.9524 31.5265L19.9524 31.5265L19.9524 31.5265L19.9525 31.5265L19.9525 31.5265L19.9525 31.5265L19.9525 31.5265L19.9526 31.5265L19.9526 31.5266L19.9526 31.5266L19.9526 31.5266L19.9527 31.5266L19.9527 31.5266L19.9527 31.5266L19.9527 31.5266L19.9528 31.5266L19.9528 31.5266L19.9528 31.5266L19.9528 31.5266L19.9529 31.5266L19.9529 31.5266L19.9529 31.5266L19.9529 31.5266L19.953 31.5266L19.953 31.5266L19.953 31.5266L19.953 31.5266L19.9531 31.5266L19.9531 31.5267L19.9531 31.5267L19.9531 31.5267L19.9532 31.5267L19.9532 31.5267L19.9532 31.5267L19.9532 31.5267L19.9533 31.5267L19.9533 31.5267L19.9533 31.5267L19.9533 31.5267L19.9534 31.5267L19.9534 31.5267L19.9534 31.5267L19.9534 31.5267L19.9535 31.5267L19.9535 31.5267L19.9535 31.5267L19.9535 31.5267L19.9536 31.5267L19.9536 31.5268L19.9536 31.5268L19.9536 31.5268L19.9537 31.5268L19.9537 31.5268L19.9537 31.5268L19.9537 31.5268L19.9538 31.5268L19.9538 31.5268L19.9538 31.5268L19.9538 31.5268L19.9539 31.5268L19.9539 31.5268L19.9539 31.5268L19.9539 31.5268L19.954 31.5268L19.954 31.5268L19.954 31.5268L19.954 31.5268L19.9541 31.5268L19.9541 31.5268L19.9541 31.5269L19.9541 31.5269L19.9542 31.5269L19.9542 31.5269L19.9542 31.5269L19.9542 31.5269L19.9543 31.5269L19.9543 31.5269L19.9543 31.5269L19.9543 31.5269L19.9544 31.5269L19.9544 31.5269L19.9544 31.5269L19.9544 31.5269L19.9545 31.5269L19.9545 31.5269L19.9545 31.5269L19.9545 31.5269L19.9546 31.5269L19.9546 31.5269L19.9546 31.527L19.9546 31.527L19.9547 31.527L19.9547 31.527L19.9547 31.527L19.9547 31.527L19.9548 31.527L19.9548 31.527L19.9548 31.527L19.9548 31.527L19.9549 31.527L19.9549 31.527L19.9549 31.527L19.9549 31.527L19.955 31.527L19.955 31.527L19.955 31.527L19.955 31.527L19.9551 31.527L19.9551 31.527L19.9551 31.5271L19.9551 31.5271L19.9552 31.5271L19.9552 31.5271L19.9552 31.5271L19.9552 31.5271L19.9553 31.5271L19.9553 31.5271L19.9553 31.5271L19.9553 31.5271L19.9554 31.5271L19.9554 31.5271L19.9554 31.5271L19.9554 31.5271L19.9555 31.5271L19.9555 31.5271L19.9555 31.5271L19.9555 31.5271L19.9556 31.5271L19.9556 31.5271L19.9556 31.5272L19.9556 31.5272L19.9557 31.5272L19.9557 31.5272L19.9557 31.5272L19.9557 31.5272L19.9558 31.5272L19.9558 31.5272L19.9558 31.5272L19.9558 31.5272L19.9559 31.5272L19.9559 31.5272L19.9559 31.5272L19.9559 31.5272L19.956 31.5272L19.956 31.5272L19.956 31.5272L19.956 31.5272L19.9561 31.5272L19.9561 31.5272L19.9561 31.5272L19.9561 31.5273L19.9562 31.5273L19.9562 31.5273L19.9562 31.5273L19.9562 31.5273L19.9563 31.5273L19.9563 31.5273L19.9563 31.5273L19.9563 31.5273L19.9564 31.5273L19.9564 31.5273L19.9564 31.5273L19.9564 31.5273L19.9565 31.5273L19.9565 31.5273L19.9565 31.5273L19.9565 31.5273L19.9566 31.5273L19.9566 31.5273L19.9566 31.5273L19.9566 31.5274L19.9567 31.5274L19.9567 31.5274L19.9567 31.5274L19.9567 31.5274L19.9568 31.5274L19.9568 31.5274L19.9568 31.5274L19.9568 31.5274L19.9569 31.5274L19.9569 31.5274L19.9569 31.5274L19.9569 31.5274L19.957 31.5274L19.957 31.5274L19.957 31.5274L19.957 31.5274L19.9571 31.5274L19.9571 31.5274L19.9571 31.5274L19.9571 31.5275L19.9572 31.5275L19.9572 31.5275L19.9572 31.5275L19.9572 31.5275L19.9573 31.5275L19.9573 31.5275L19.9573 31.5275L19.9573 31.5275L19.9574 31.5275L19.9574 31.5275L19.9574 31.5275L19.9574 31.5275L19.9575 31.5275L19.9575 31.5275L19.9575 31.5275L19.9575 31.5275L19.9576 31.5275L19.9576 31.5275L19.9576 31.5275L19.9576 31.5276L19.9577 31.5276L19.9577 31.5276L19.9577 31.5276L19.9577 31.5276L19.9578 31.5276L19.9578 31.5276L19.9578 31.5276L19.9578 31.5276L19.9579 31.5276L19.9579 31.5276L19.9579 31.5276L19.9579 31.5276L19.958 31.5276L19.958 31.5276L19.958 31.5276L19.958 31.5276L19.9581 31.5276L19.9581 31.5276L19.9581 31.5276L19.9581 31.5276L19.9582 31.5277L19.9582 31.5277L19.9582 31.5277L19.9582 31.5277L19.9583 31.5277L19.9583 31.5277L19.9583 31.5277L19.9583 31.5277L19.9584 31.5277L19.9584 31.5277L19.9584 31.5277L19.9584 31.5277L19.9585 31.5277L19.9585 31.5277L19.9585 31.5277L19.9585 31.5277L19.9586 31.5277L19.9586 31.5277L19.9586 31.5277L19.9586 31.5277L19.9587 31.5278L19.9587 31.5278L19.9587 31.5278L19.9587 31.5278L19.9588 31.5278L19.9588 31.5278L19.9588 31.5278L19.9588 31.5278L19.9589 31.5278L19.9589 31.5278L19.9589 31.5278L19.9589 31.5278L19.959 31.5278L19.959 31.5278L19.959 31.5278L19.9591 31.5278L19.9591 31.5278L19.9591 31.5278L19.9591 31.5278L19.9592 31.5278L19.9592 31.5279L19.9592 31.5279L19.9592 31.5279L19.9593 31.5279L19.9593 31.5279L19.9593 31.5279L19.9593 31.5279L19.9594 31.5279L19.9594 31.5279L19.9594 31.5279L19.9594 31.5279L19.9595 31.5279L19.9595 31.5279L19.9595 31.5279L19.9595 31.5279L19.9596 31.5279L19.9596 31.5279L19.9596 31.5279L19.9596 31.5279L19.9597 31.5279L19.9597 31.528L19.9597 31.528L19.9597 31.528L19.9598 31.528L19.9598 31.528L19.9598 31.528L19.9598 31.528L19.9599 31.528L19.9599 31.528L19.9599 31.528L19.9599 31.528L19.96 31.528L19.96 31.528L19.96 31.528L19.96 31.528L19.9601 31.528L19.9601 31.528L19.9601 31.528L19.9601 31.528L19.9602 31.528L19.9602 31.5281L19.9602 31.5281L19.9602 31.5281L19.9603 31.5281L19.9603 31.5281L19.9603 31.5281L19.9603 31.5281L19.9604 31.5281L19.9604 31.5281L19.9604 31.5281L19.9604 31.5281L19.9605 31.5281L19.9605 31.5281L19.9605 31.5281L19.9605 31.5281L19.9606 31.5281L19.9606 31.5281L19.9606 31.5281L19.9606 31.5281L19.9607 31.5281L19.9607 31.5282L19.9607 31.5282L19.9607 31.5282L19.9608 31.5282L19.9608 31.5282L19.9608 31.5282L19.9608 31.5282L19.9609 31.5282L19.9609 31.5282L19.9609 31.5282L19.9609 31.5282L19.961 31.5282L19.961 31.5282L19.961 31.5282L19.961 31.5282L19.9611 31.5282L19.9611 31.5282L19.9611 31.5282L19.9611 31.5282L19.9612 31.5282L19.9612 31.5283L19.9612 31.5283L19.9613 31.5283L19.9613 31.5283L19.9613 31.5283L19.9613 31.5283L19.9614 31.5283L19.9614 31.5283L19.9614 31.5283L19.9614 31.5283L19.9615 31.5283L19.9615 31.5283L19.9615 31.5283L19.9615 31.5283L19.9616 31.5283L19.9616 31.5283L19.9616 31.5283L19.9616 31.5283L19.9617 31.5283L19.9617 31.5283L19.9617 31.5284L19.9617 31.5284L19.9618 31.5284L19.9618 31.5284L19.9618 31.5284L19.9618 31.5284L19.9619 31.5284L19.9619 31.5284L19.9619 31.5284L19.9619 31.5284L19.962 31.5284L19.962 31.5284L19.962 31.5284L19.962 31.5284L19.9621 31.5284L19.9621 31.5284L19.9621 31.5284L19.9621 31.5284L19.9622 31.5284L19.9622 31.5284L19.9622 31.5285L19.9622 31.5285L19.9623 31.5285L19.9623 31.5285L19.9623 31.5285L19.9623 31.5285L19.9624 31.5285L19.9624 31.5285L19.9624 31.5285L19.9624 31.5285L19.9625 31.5285L19.9625 31.5285L19.9625 31.5285L19.9625 31.5285L19.9626 31.5285L19.9626 31.5285L19.9626 31.5285L19.9626 31.5285L19.9627 31.5285L19.9627 31.5285L19.9627 31.5286L19.9627 31.5286L19.9628 31.5286L19.9628 31.5286L19.9628 31.5286L19.9628 31.5286L19.9629 31.5286L19.9629 31.5286L19.9629 31.5286L19.9629 31.5286L19.963 31.5286L19.963 31.5286L19.963 31.5286L19.963 31.5286L19.9631 31.5286L19.9631 31.5286L19.9631 31.5286L19.9631 31.5286L19.9632 31.5286L19.9632 31.5286L19.9632 31.5287L19.9632 31.5287L19.9633 31.5287L19.9633 31.5287L19.9633 31.5287L19.9633 31.5287L19.9634 31.5287L19.9634 31.5287L19.9634 31.5287L19.9634 31.5287L19.9635 31.5287L19.9635 31.5287L19.9635 31.5287L19.9636 31.5287L19.9636 31.5287L19.9636 31.5287L19.9636 31.5287L19.9636 31.5287L19.9637 31.5287L19.9637 31.5287L19.9637 31.5288L19.9638 31.5288L19.9638 31.5288L19.9638 31.5288L19.9638 31.5288L19.9639 31.5288L19.9639 31.5288L19.9639 31.5288L19.9639 31.5288L19.964 31.5288L19.964 31.5288L19.964 31.5288L19.964 31.5288L19.9641 31.5288L19.9641 31.5288L19.9641 31.5288L19.9641 31.5288L19.9642 31.5288L19.9642 31.5288L19.9642 31.5288L19.9642 31.5289L19.9643 31.5289L19.9643 31.5289L19.9643 31.5289L19.9643 31.5289L19.9644 31.5289L19.9644 31.5289L19.9644 31.5289L19.9644 31.5289L19.9645 31.5289L19.9645 31.5289L19.9645 31.5289L19.9645 31.5289L19.9646 31.5289L19.9646 31.5289L19.9646 31.5289L19.9646 31.5289L19.9647 31.5289L19.9647 31.5289L19.9647 31.5289L19.9647 31.529L19.9648 31.529L19.9648 31.529L19.9648 31.529L19.9648 31.529L19.9649 31.529L19.9649 31.529L19.9649 31.529L19.9649 31.529L19.965 31.529L19.965 31.529L19.965 31.529L19.965 31.529L19.9651 31.529L19.9651 31.529L19.9651 31.529L19.9651 31.529L19.9652 31.529L19.9652 31.529L19.9652 31.529L19.9652 31.5291L19.9653 31.5291L19.9653 31.5291L19.9653 31.5291L19.9653 31.5291L19.9654 31.5291L19.9654 31.5291L19.9654 31.5291L19.9654 31.5291L19.9655 31.5291L19.9655 31.5291L19.9655 31.5291L19.9655 31.5291L19.9656 31.5291L19.9656 31.5291L19.9656 31.5291L19.9656 31.5291L19.9657 31.5291L19.9657 31.5291L19.9657 31.5291L19.9657 31.5291L19.9658 31.5292L19.9658 31.5292L19.9658 31.5292L19.9658 31.5292L19.9659 31.5292L19.9659 31.5292L19.9659 31.5292L19.9659 31.5292L19.966 31.5292L19.966 31.5292L19.966 31.5292L19.966 31.5292L19.9661 31.5292L19.9661 31.5292L19.9661 31.5292L19.9661 31.5292L19.9662 31.5292L19.9662 31.5292L19.9662 31.5292L19.9662 31.5292L19.9663 31.5293L19.9663 31.5293L19.9663 31.5293L19.9663 31.5293L19.9664 31.5293L19.9664 31.5293L19.9664 31.5293L19.9664 31.5293L19.9665 31.5293L19.9665 31.5293L19.9665 31.5293L19.9665 31.5293L19.9666 31.5293L19.9666 31.5293L19.9666 31.5293L19.9666 31.5293L19.9667 31.5293L19.9667 31.5293L19.9667 31.5293L19.9667 31.5293L19.9668 31.5294L19.9668 31.5294L19.9668 31.5294L19.9668 31.5294L19.9669 31.5294L19.9669 31.5294L19.9669 31.5294L19.9669 31.5294L19.967 31.5294L19.967 31.5294L19.967 31.5294L19.967 31.5294L19.9671 31.5294L19.9671 31.5294L19.9671 31.5294L19.9671 31.5294L19.9672 31.5294L19.9672 31.5294L19.9672 31.5294L19.9672 31.5294L19.9673 31.5295L19.9673 31.5295L19.9673 31.5295L19.9673 31.5295L19.9674 31.5295L19.9674 31.5295L19.9674 31.5295L19.9674 31.5295L19.9675 31.5295L19.9675 31.5295L19.9675 31.5295L19.9675 31.5295L19.9676 31.5295L19.9676 31.5295L19.9676 31.5295L19.9676 31.5295L19.9677 31.5295L19.9677 31.5295L19.9677 31.5295L19.9677 31.5295L19.9678 31.5295L19.9678 31.5296L19.9678 31.5296L19.9678 31.5296L19.9679 31.5296L19.9679 31.5296L19.9679 31.5296L19.9679 31.5296L19.968 31.5296L19.968 31.5296L19.968 31.5296L19.968 31.5296L19.9681 31.5296L19.9681 31.5296L19.9681 31.5296L19.9681 31.5296L19.9682 31.5296L19.9682 31.5296L19.9682 31.5296L19.9682 31.5296L19.9683 31.5296L19.9683 31.5297L19.9683 31.5297L19.9683 31.5297L19.9684 31.5297L19.9684 31.5297L19.9684 31.5297L19.9684 31.5297L19.9685 31.5297L19.9685 31.5297L19.9685 31.5297L19.9685 31.5297L19.9686 31.5297L19.9686 31.5297L19.9686 31.5297L19.9686 31.5297L19.9687 31.5297L19.9687 31.5297L19.9687 31.5297L19.9687 31.5297L19.9688 31.5297L19.9688 31.5298L19.9688 31.5298L19.9688 31.5298L19.9689 31.5298L19.9689 31.5298L19.9689 31.5298L19.9689 31.5298L19.969 31.5298L19.969 31.5298L19.969 31.5298L19.969 31.5298L19.9691 31.5298L19.9691 31.5298L19.9691 31.5298L19.9691 31.5298L19.9692 31.5298L19.9692 31.5298L19.9692 31.5298L19.9692 31.5298L19.9693 31.5298L19.9693 31.5298L19.9693 31.5299L19.9693 31.5299L19.9694 31.5299L19.9694 31.5299L19.9694 31.5299L19.9694 31.5299L19.9695 31.5299L19.9695 31.5299L19.9695 31.5299L19.9695 31.5299L19.9696 31.5299L19.9696 31.5299L19.9696 31.5299L19.9696 31.5299L19.9697 31.5299L19.9697 31.5299L19.9697 31.5299L19.9697 31.5299L19.9698 31.5299L19.9698 31.5299L19.9698 31.53L19.9698 31.53L19.9699 31.53L19.9699 31.53L19.9699 31.53L19.9699 31.53L19.97 31.53L19.97 31.53L19.97 31.53L19.97 31.53L19.9701 31.53L19.9701 31.53L19.9701 31.53L19.9701 31.53L19.9702 31.53L19.9702 31.53L19.9702 31.53L19.9702 31.53L19.9703 31.53L19.9703 31.53L19.9703 31.5301L19.9703 31.5301L19.9704 31.5301L19.9704 31.5301L19.9704 31.5301L19.9704 31.5301L19.9705 31.5301L19.9705 31.5301L19.9705 31.5301L19.9705 31.5301L19.9706 31.5301L19.9706 31.5301L19.9706 31.5301L19.9706 31.5301L19.9707 31.5301L19.9707 31.5301L19.9707 31.5301L19.9707 31.5301L19.9708 31.5301L19.9708 31.5301L19.9708 31.5302L19.9708 31.5302L19.9709 31.5302L19.9709 31.5302L19.9709 31.5302L19.9709 31.5302L19.971 31.5302L19.971 31.5302L19.971 31.5302L19.971 31.5302L19.9711 31.5302L19.9711 31.5302L19.9711 31.5302L19.9711 31.5302L19.9712 31.5302L19.9712 31.5302L19.9712 31.5302L19.9712 31.5302L19.9713 31.5302L19.9713 31.5302L19.9713 31.5303L19.9713 31.5303L19.9714 31.5303L19.9714 31.5303L19.9714 31.5303L19.9714 31.5303L19.9715 31.5303L19.9715 31.5303L19.9715 31.5303L19.9715 31.5303L19.9716 31.5303L19.9716 31.5303L19.9716 31.5303L19.9716 31.5303L19.9717 31.5303L19.9717 31.5303L19.9717 31.5303L19.9717 31.5303L19.9718 31.5303L19.9718 31.5303L19.9718 31.5304L19.9718 31.5304L19.9719 31.5304L19.9719 31.5304L19.9719 31.5304L19.9719 31.5304L19.972 31.5304L19.972 31.5304L19.972 31.5304L19.972 31.5304L19.9721 31.5304L19.9721 31.5304L19.9721 31.5304L19.9721 31.5304L19.9722 31.5304L19.9722 31.5304L19.9722 31.5304L19.9722 31.5304L19.9723 31.5304L19.9723 31.5304L19.9723 31.5304L19.9723 31.5305L19.9724 31.5305L19.9724 31.5305L19.9724 31.5305L19.9724 31.5305L19.9725 31.5305L19.9725 31.5305L19.9725 31.5305L19.9725 31.5305L19.9726 31.5305L19.9726 31.5305L19.9726 31.5305L19.9726 31.5305L19.9727 31.5305L19.9727 31.5305L19.9727 31.5305L19.9727 31.5305L19.9728 31.5305L19.9728 31.5305L19.9728 31.5305L19.9728 31.5306L19.9729 31.5306L19.9729 31.5306L19.9729 31.5306L19.9729 31.5306L19.973 31.5306L19.973 31.5306L19.973 31.5306L19.973 31.5306L19.9731 31.5306L19.9731 31.5306L19.9731 31.5306L19.9731 31.5306L19.9732 31.5306L19.9732 31.5306L19.9732 31.5306L19.9732 31.5306L19.9733 31.5306L19.9733 31.5306L19.9733 31.5306L19.9733 31.5307L19.9734 31.5307L19.9734 31.5307L19.9734 31.5307L19.9734 31.5307L19.9735 31.5307L19.9735 31.5307L19.9735 31.5307L19.9735 31.5307L19.9736 31.5307L19.9736 31.5307L19.9736 31.5307L19.9737 31.5307L19.9737 31.5307L19.9737 31.5307L19.9737 31.5307L19.9738 31.5307L19.9738 31.5307L19.9738 31.5307L19.9738 31.5307L19.9739 31.5308L19.9739 31.5308L19.9739 31.5308L19.9739 31.5308L19.974 31.5308L19.974 31.5308C22.0372 31.9386 23.5678 32.7939 24.5809 33.5445C25.0875 33.9198 25.4639 34.2684 25.7114 34.5204C25.8351 34.6464 25.9264 34.7479 25.9855 34.8164C26.0151 34.8506 26.0366 34.8765 26.05 34.893L26.0641 34.9105L26.0661 34.9131L26.0663 34.9134L26.0665 34.9136L26.0666 34.9137L26.0667 34.9139L26.7389 35.7869L26.9528 34.705C27.5878 31.4918 29.5115 29.9528 31.1647 29.2038C31.4332 29.5116 31.8036 29.7369 32.2373 29.8227C33.258 30.0244 34.2638 29.3793 34.4662 28.3544L15.7889 26.3853ZM15.7889 26.3853C16.314 24.7606 17.2752 23.1573 18.2832 21.7717C19.3486 20.3069 20.4917 19.0514 21.2966 18.2251C21.0012 17.8208 20.8658 17.3012 20.9709 16.7696C21.1733 15.7457 22.1787 15.0997 23.1999 15.3015C24.2206 15.5032 24.9052 16.4832 24.7028 17.5071C24.5941 18.0573 24.2523 18.4978 23.8028 18.7565C24.233 19.8312 24.807 21.4193 25.2305 23.1674C25.6324 24.8261 25.9083 26.6653 25.7762 28.3599C26.0496 28.2123 26.3771 28.0491 26.75 27.888C27.8372 27.4182 29.3309 26.9571 30.9974 26.9701C31.4068 26.3387 32.1788 25.994 32.9632 26.1491C33.9838 26.3508 34.6686 27.3302 34.4662 28.3543L15.7889 26.3853ZM38.8727 6.43355C40.3232 6.72021 41.2539 8.097 40.9783 9.49113L33.2763 48.4606C33.0008 49.8547 31.6163 50.7739 30.1659 50.4872L3.20834 45.1593C1.7579 44.8726 0.827173 43.4958 1.10271 42.1017L8.80471 3.13227C9.08025 1.73814 10.4648 0.818937 11.9152 1.1056L38.8727 6.43355Z" fill="url(#paint0_linear_619_17216)" stroke="white"/>
</g>
<defs>
<linearGradient id="paint0_linear_619_17216" x1="25.4909" y1="3.27906" x2="16.5902" y2="48.3138" gradientUnits="userSpaceOnUse">
<stop stop-color="#892C73"/>
<stop offset="0.409375" stop-color="#B949A4"/>
<stop offset="0.529167" stop-color="#D767C2"/>
<stop offset="1" stop-color="#7A216C"/>
</linearGradient>
<clipPath id="clip0_619_17216">
<rect x="8.90088" width="33.7985" height="45.9059" rx="3" transform="rotate(11.18 8.90088 0)" fill="white"/>
</clipPath>
</defs>
</svg>
