<svg width="42" height="41" viewBox="0 0 42 41" fill="none" xmlns="http://www.w3.org/2000/svg">
<path d="M2.63916 14.5214V25.6614C2.63916 27.395 2.98246 29.0772 3.66905 30.6563C4.33848 32.184 5.28254 33.5572 6.50124 34.7416C7.70278 35.9259 9.12746 36.8528 10.6895 37.4879C12.3201 38.1574 14.0366 38.5007 15.8217 38.5007H26.996C28.7812 38.5007 30.4977 38.1574 32.1283 37.4879C33.6903 36.8357 35.115 35.9088 36.3165 34.7416C37.5181 33.5572 38.4793 32.184 39.1487 30.6563C39.492 29.8839 39.7495 29.0772 39.9211 28.2533C40.0928 27.4122 40.1958 26.5368 40.1958 25.6614V14.5214C40.1958 12.7878 39.8525 11.1056 39.1659 9.52645C38.4965 7.99878 37.5524 6.6256 36.3337 5.44122C35.1322 4.25685 33.7075 3.32995 32.1455 2.69485C30.5148 2.02543 28.7983 1.68213 27.0132 1.68213H15.8389C14.0538 1.68213 12.3373 2.02543 10.7066 2.69485C10.0372 2.96949 9.4021 3.29562 8.80133 3.67325C7.97742 4.17103 7.22217 4.7718 6.51841 5.45839C5.38554 6.55694 4.49296 7.82713 3.8407 9.21748C3.7892 9.32047 3.73771 9.42346 3.70338 9.52645C2.98246 11.1056 2.63916 12.7878 2.63916 14.5214Z" fill="#D58900"/>
<path d="M40.7281 8.85705C39.9728 7.1234 38.9086 5.57857 37.5354 4.23971C36.1622 2.90085 34.5831 1.8538 32.7979 1.13288C30.9441 0.377626 29.0045 0 26.9962 0H15.8219C13.8136 0 11.8568 0.377626 10.0202 1.15004C9.90005 1.20154 9.76274 1.25303 9.64259 1.30453C8.01193 2.02545 6.55292 3.02101 5.28272 4.25687C4.20134 5.32109 3.2916 6.52263 2.58784 7.82716C2.39903 8.17045 2.24455 8.51375 2.09007 8.87421V8.89137C2.03857 8.99436 2.00424 9.09735 1.96991 9.20034C1.81543 9.57797 1.67811 9.97276 1.55795 10.3504C1.23182 11.3803 1.04301 12.4445 0.957183 13.543C0.940018 13.8692 0.922852 14.1953 0.922852 14.5386V25.6786C0.922852 27.6354 1.31765 29.5406 2.09007 31.3258C2.84532 33.0594 3.90953 34.6043 5.28272 35.9431C6.6559 37.282 8.23506 38.329 10.0202 39.05C11.8568 39.8052 13.8136 40.2 15.8219 40.2H26.9962C27.8716 40.2 28.747 40.1313 29.6053 39.9769C30.0859 39.891 30.5493 39.788 31.0299 39.6679C31.6307 39.4962 32.2143 39.3074 32.7979 39.0671C32.8666 39.0328 32.9524 38.9985 33.0211 38.9641C34.7032 38.2432 36.2137 37.2305 37.5354 35.9431C38.7198 34.7931 39.6982 33.4542 40.4191 31.9952C40.5221 31.7721 40.6251 31.5489 40.7281 31.3258C41.5005 29.5406 41.8953 27.6354 41.8953 25.6786V14.5214C41.8953 12.5646 41.5005 10.6594 40.7281 8.85705ZM37.5526 30.0041C36.969 31.3258 36.1451 32.5273 35.098 33.5572C34.051 34.5871 32.8151 35.3938 31.4591 35.9431C31.2703 36.0118 31.0814 36.0976 30.8926 36.1491C30.4292 36.3036 29.9657 36.4409 29.4851 36.5439C29.1075 36.6297 28.7127 36.6984 28.3351 36.7327C27.8888 36.7842 27.4425 36.8014 26.9962 36.8014H15.8219C14.2771 36.8014 12.7666 36.5096 11.3591 35.926C9.98588 35.3595 8.76718 34.5528 7.72013 33.5401C6.67307 32.5102 5.84916 31.3258 5.26556 29.9869C4.66479 28.6137 4.37299 27.1547 4.37299 25.6442V14.5214C4.37299 13.8177 4.44164 13.1311 4.56179 12.4617C4.63045 12.1184 4.71628 11.7579 4.81927 11.4146C4.87076 11.243 4.92226 11.0885 4.97375 10.934C5.05958 10.6765 5.16257 10.4362 5.26556 10.1787C5.31705 10.0586 5.36854 9.95559 5.42004 9.8526C5.98647 8.65107 6.7589 7.56968 7.72013 6.64278C8.76718 5.6129 10.003 4.80615 11.3591 4.25687C11.6165 4.15389 11.874 4.0509 12.1315 3.96507C13.3159 3.57028 14.5517 3.38147 15.8219 3.38147H26.9962C28.541 3.38147 30.0516 3.67327 31.4591 4.25687C32.8323 4.82331 34.051 5.63006 35.098 6.64278C36.1451 7.67267 36.969 8.85705 37.5526 10.1959C38.1533 11.5691 38.4451 13.0281 38.4451 14.5386V25.6786C38.4451 27.1547 38.1533 28.6137 37.5526 30.0041C37.5526 29.9869 37.5526 29.9869 37.5526 30.0041Z" fill="#D58900"/>
<path d="M12.1315 3.94782C11.874 4.03365 11.6165 4.13664 11.359 4.23963C9.98585 4.80607 8.76715 5.61281 7.72009 6.62554C6.75886 7.5696 5.98644 8.65098 5.42 9.83536C4.21847 9.30325 3.24008 8.47934 2.60498 7.82707C3.30874 6.50538 4.2013 5.32101 5.29985 4.25679C6.57004 3.02092 8.02906 2.02537 9.65972 1.30444C11.0844 2.16268 11.8225 3.32989 12.1315 3.94782Z" fill="#D58900"/>
<path opacity="0.33" d="M5.0083 9.16613C5.52325 9.14896 6.03819 9.14896 6.55313 9.14896C28.3696 9.16613 35.699 22.3315 37.6729 27.2235C38.1192 28.3392 38.2909 29.0258 38.2909 29.0258C38.2909 29.0258 38.4282 28.9572 38.6857 28.837C38.9775 27.8071 39.132 26.7257 39.132 25.6443V14.5216C39.132 12.9252 38.8058 11.3804 38.1707 9.92138C37.5528 8.51387 36.6774 7.24367 35.5788 6.16229C34.4631 5.0809 33.1758 4.22266 31.7167 3.63906C30.2234 3.02112 28.6271 2.71216 26.9964 2.71216H15.8221C14.1915 2.71216 12.5951 3.02112 11.1018 3.63906C9.65997 4.23983 8.35544 5.0809 7.23973 6.16229C6.32999 7.05486 5.57474 8.06758 5.0083 9.16613Z" fill="#D58900"/>
<path d="M25.4517 5.21812C25.4517 5.21812 29.7085 4.97781 32.7982 7.10625C35.8879 9.23468 34.1371 9.83545 30.1205 8.47943C26.1039 7.12341 21.6754 5.49275 25.4517 5.21812Z" fill="#D58900"/>
<path d="M21.967 5.13218C20.6282 5.04635 19.0662 5.06352 18.8774 5.73295C18.6886 6.40237 21.1774 6.31655 22.1044 6.11057C23.0484 5.88743 22.7395 5.16651 21.967 5.13218Z" fill="#D58900"/>
<path d="M4.81949 11.4145C4.7165 11.7578 4.63068 12.101 4.56202 12.4615C3.63512 11.8607 2.46792 11.0883 1.54102 10.3502C1.66117 9.95545 1.79848 9.57782 1.95296 9.2002C2.72538 9.81813 3.85826 10.7279 4.81949 11.4145Z" fill="#D58900"/>
<path d="M3.68652 14.5216V25.6615C3.68652 27.2578 4.01265 28.8027 4.64775 30.2617C5.26568 31.6692 6.14109 32.9394 7.23964 34.0208C8.35536 35.1022 9.64272 35.9604 11.1017 36.544C12.5951 37.1619 14.1914 37.4709 15.8221 37.4709H26.9963C28.627 37.4709 30.2233 37.1619 31.7167 36.544C33.1585 35.9432 34.463 35.1022 35.5787 34.0208C36.6945 32.9394 37.5699 31.6692 38.1706 30.2617C38.3766 29.7982 38.5311 29.3348 38.6684 28.8542C38.9602 27.8243 39.1147 26.7429 39.1147 25.6615V14.5216C39.1147 12.9252 38.7886 11.3804 38.1535 9.92138C37.5355 8.51387 36.6601 7.24367 35.5616 6.16229C34.4459 5.0809 33.1585 4.22266 31.6995 3.63906C30.2062 3.02113 28.6098 2.71216 26.9792 2.71216H15.8049C14.1742 2.71216 12.5779 3.02113 11.0846 3.63906C9.64271 4.23983 8.33818 5.0809 7.22247 6.16229C6.31274 7.05486 5.55749 8.06758 4.97388 9.16613C4.85373 9.40644 4.73357 9.66391 4.61342 9.92138C4.01265 11.3804 3.68652 12.9252 3.68652 14.5216ZM5.02538 14.5216C5.02538 12.5648 5.57465 10.7281 6.53588 9.14896C8.42401 6.07646 11.8741 3.99952 15.8221 3.99952H26.9963C32.9525 3.99952 37.793 8.70268 37.793 14.5044V25.6444C37.793 26.1765 37.7587 26.7086 37.6729 27.2235C36.9004 32.2871 32.4204 36.1664 26.9963 36.1664H15.8221C9.86586 36.1664 5.02538 31.4632 5.02538 25.6615V14.5216Z" fill="#D58900"/>
<path d="M3.89258 13.9035V24.5629C3.89258 26.2279 4.21871 27.8242 4.8538 29.3519C5.47174 30.8109 6.36431 32.1326 7.48002 33.2654C8.6129 34.3983 9.91742 35.2737 11.3936 35.8917C12.9041 36.5268 14.5176 36.8529 16.1826 36.8529H26.6016C28.2666 36.8529 29.8629 36.5268 31.3906 35.8917C32.8496 35.2737 34.1713 34.3812 35.3042 33.2654C36.4371 32.1326 37.3125 30.828 37.9304 29.3519C38.2394 28.5966 38.4797 27.8414 38.6513 27.0518C38.823 26.245 38.9088 25.404 38.9088 24.5629V13.9035C38.9088 12.2385 38.5827 10.6422 37.9476 9.11455C37.3296 7.65554 36.4371 6.33385 35.3214 5.20097C34.1885 4.06809 32.884 3.19269 31.4078 2.57476C29.8973 1.93966 28.2838 1.61353 26.6188 1.61353H16.1997C14.5348 1.61353 12.9213 1.93966 11.4108 2.57476C10.7928 2.83223 10.1921 3.14119 9.62562 3.50166C8.8532 3.98227 8.14945 4.54871 7.49719 5.20097C6.45014 6.24803 5.60905 7.46673 4.99112 8.80558C4.93963 8.90857 4.9053 9.01156 4.8538 9.11455C4.21871 10.6422 3.89258 12.2385 3.89258 13.9035Z" fill="url(#paint0_linear_619_16448)"/>
<path d="M39.4237 8.49658C38.72 6.84876 37.7244 5.35542 36.4371 4.08523C35.1669 2.81503 33.6735 1.80231 32.0257 1.09855C30.3092 0.377626 28.4897 0 26.6188 0H16.1997C14.3288 0 12.5093 0.360461 10.7928 1.09855C10.6727 1.15004 10.5525 1.20154 10.4495 1.25303C8.93902 1.93962 7.56584 2.90085 6.38147 4.08523C5.36874 5.09795 4.52766 6.24799 3.8754 7.50102C3.70375 7.82716 3.54927 8.15329 3.41195 8.49658V8.51375C3.37762 8.61674 3.32613 8.70256 3.2918 8.80555C3.15448 9.16601 3.01716 9.54364 2.91417 9.9041C2.62237 10.8997 2.43356 11.9124 2.3649 12.9594C2.34773 13.2684 2.33057 13.5945 2.33057 13.9035V24.5629C2.33057 26.4338 2.69103 28.2533 3.42912 29.9698C4.13288 31.6176 5.12843 33.1109 6.41579 34.3811C7.68599 35.6513 9.17933 36.664 10.8271 37.3678C12.5436 38.0887 14.3631 38.4664 16.2341 38.4664H26.6531C27.477 38.4664 28.2838 38.3977 29.0905 38.2604C29.5368 38.1745 29.9831 38.0887 30.4122 37.9514C30.9786 37.7969 31.5279 37.6081 32.06 37.3678C32.1287 37.3335 32.1973 37.2991 32.266 37.282C33.828 36.5954 35.2527 35.617 36.4714 34.3983C37.5871 33.2826 38.4797 32.0295 39.1663 30.622C39.2693 30.416 39.3722 30.1929 39.4581 29.9869C40.179 28.2704 40.5566 26.451 40.5566 24.58V13.9035C40.5223 12.0325 40.1447 10.2131 39.4237 8.49658ZM36.4714 28.7339C35.9393 30.0041 35.1669 31.1541 34.1885 32.1325C33.2101 33.1109 32.06 33.8833 30.7898 34.4155C30.6182 34.4841 30.4465 34.5528 30.2749 34.6214C29.8458 34.7759 29.4166 34.8961 28.9704 34.9991C28.6099 35.0849 28.2494 35.1364 27.889 35.1879C27.477 35.2394 27.0651 35.2565 26.636 35.2565H16.2169C14.7751 35.2565 13.3675 34.9819 12.063 34.4155C10.7928 33.8833 9.64278 33.1109 8.66439 32.1325C7.68599 31.1541 6.91358 30.0041 6.38147 28.7339C5.83219 27.4122 5.54039 26.0219 5.54039 24.58V13.9035C5.54039 13.2341 5.60904 12.5646 5.7292 11.9295C5.79786 11.5862 5.86652 11.2601 5.96951 10.934C6.021 10.7795 6.05534 10.625 6.124 10.4705C6.20982 10.2302 6.29564 9.98992 6.39863 9.74961C6.45012 9.64663 6.48445 9.54364 6.53595 9.42348C7.06806 8.27344 7.78898 7.24355 8.68155 6.35098C9.65994 5.37259 10.81 4.60017 12.0802 4.06806C12.3205 3.96507 12.5608 3.87925 12.8011 3.79342C13.8997 3.4158 15.0497 3.22698 16.2341 3.22698H26.6531C28.095 3.22698 29.5025 3.50162 30.807 4.06806C32.0772 4.60017 33.2272 5.37259 34.2056 6.35098C35.184 7.32938 35.9564 8.47942 36.4885 9.74961C37.0378 11.0713 37.3296 12.4617 37.3296 13.9035V24.5629C37.3125 26.0047 37.0207 27.4122 36.4714 28.7339Z" fill="#F2D847"/>
<path d="M12.7498 3.77623C12.5095 3.86206 12.2692 3.94788 12.0288 4.05087C10.7587 4.58298 9.60861 5.3554 8.63022 6.33379C7.73764 7.22636 7.01672 8.27341 6.48461 9.40629C5.35174 8.89135 4.442 8.10177 3.8584 7.48383C4.51066 6.2308 5.35173 5.08076 6.36446 4.06803C7.54883 2.88366 8.92202 1.9396 10.4325 1.23584C11.7714 2.07692 12.458 3.17546 12.7498 3.77623Z" fill="#FFEFA1"/>
<path opacity="0.33" d="M6.10693 8.78837C6.58755 8.77121 7.06817 8.77121 7.54878 8.77121C27.8891 8.78837 34.7378 21.3873 36.5745 26.0733C37.0036 27.1376 37.1581 27.807 37.1581 27.807C37.1581 27.807 37.2954 27.7383 37.5185 27.6353C37.7932 26.6398 37.9305 25.6099 37.9305 24.5628V13.9035C37.9305 12.3758 37.6387 10.8996 37.0379 9.49213C36.4715 8.13611 35.6476 6.93457 34.6177 5.88752C33.5706 4.84046 32.3691 4.03372 31.0131 3.46728C29.6227 2.88367 28.1294 2.57471 26.6017 2.57471H16.1827C14.655 2.57471 13.1788 2.86651 11.7713 3.46728C10.4153 4.03372 9.21377 4.85763 8.16671 5.88752C7.3428 6.76292 6.63904 7.72415 6.10693 8.78837Z" fill="white"/>
<path d="M25.1941 4.99507C25.1941 4.99507 29.1591 4.77192 32.0428 6.79737C34.9265 8.82282 33.2959 9.40642 29.5368 8.11906C25.7948 6.8317 21.6581 5.2697 25.1941 4.99507Z" fill="white"/>
<path d="M21.9326 4.90906C20.6796 4.82324 19.2377 4.8404 19.0489 5.49267C18.8601 6.14493 21.1945 6.0591 22.0699 5.85313C22.9281 5.64715 22.6363 4.96056 21.9326 4.90906Z" fill="white"/>
<path d="M5.91813 10.9341C5.81514 11.2602 5.74648 11.6035 5.67782 11.9297C4.80241 11.3632 3.72103 10.608 2.86279 9.90421C2.98295 9.52659 3.10309 9.16613 3.24041 8.80566C3.9785 9.40643 5.04272 10.2818 5.91813 10.9341Z" fill="#FFEFA1"/>
<path d="M4.88818 13.9035V24.5628C4.88818 26.0905 5.17999 27.5667 5.78076 28.9742C6.34719 30.3302 7.1711 31.5317 8.20099 32.5788C9.24804 33.6259 10.4496 34.4326 11.8056 34.999C13.196 35.5826 14.6893 35.8916 16.217 35.8916H26.636C28.1637 35.8916 29.6398 35.5998 31.0474 34.999C32.4034 34.4326 33.6049 33.6087 34.652 32.5788C35.699 31.5317 36.5058 30.3302 37.0722 28.9742C37.261 28.5279 37.4155 28.0816 37.5357 27.6353C37.8103 26.6398 37.9476 25.6099 37.9476 24.5628V13.9035C37.9476 12.3758 37.6558 10.8996 37.055 9.49213C36.4886 8.13611 35.6647 6.93457 34.6348 5.88752C33.5878 4.84046 32.3862 4.03372 31.0302 3.46728C29.6398 2.88367 28.1465 2.57471 26.6188 2.57471H16.1998C14.6721 2.57471 13.196 2.86651 11.7884 3.46728C10.4324 4.03372 9.23088 4.85763 8.18383 5.88752C7.32559 6.74576 6.63899 7.70699 6.08972 8.7712C5.96957 9.01151 5.86657 9.25182 5.76358 9.49213C5.17998 10.8996 4.88818 12.3758 4.88818 13.9035ZM6.12405 13.9035C6.12405 12.0325 6.63899 10.2645 7.53156 8.7712C9.28237 5.81886 12.5094 3.8449 16.1826 3.8449H26.6017C32.1631 3.8449 36.6603 8.35925 36.6603 13.9035V24.5628C36.6603 25.0778 36.6259 25.5756 36.5401 26.0733C35.8192 30.9138 31.631 34.6386 26.5845 34.6386H16.1655C10.6041 34.6386 6.10688 30.1242 6.10688 24.58V13.9035H6.12405Z" fill="#D58900"/>
<path d="M31.2704 17.5425C31.9398 17.5425 32.4719 18.0746 32.4719 18.744V20.4948C32.4719 21.1642 31.9398 21.6963 31.2704 21.6963H29.1591C28.8673 21.6963 28.5927 21.5934 28.3867 21.4045C28.1292 21.1814 27.9576 20.8553 27.9576 20.4948V20.0314C27.9404 19.9627 27.9404 19.894 27.9404 19.8254V18.8127C27.9404 18.7097 27.9576 18.6067 27.9747 18.5037C28.0777 17.9544 28.5755 17.5253 29.1591 17.5253H31.2704V17.5425ZM31.2704 15.5342H29.1591C27.6314 15.5342 26.3269 16.5984 26.018 18.0746C25.9665 18.3149 25.9321 18.5724 25.9321 18.8298V19.8425C25.9321 19.9627 25.9321 20.0657 25.9493 20.1858V20.512C25.9493 21.456 26.3613 22.3486 27.0822 22.9665C27.6658 23.4643 28.4039 23.739 29.1591 23.739H31.2704C33.0384 23.739 34.4802 22.2971 34.4802 20.5291V18.7783C34.4802 16.976 33.0384 15.5342 31.2704 15.5342Z" fill="white"/>
<path d="M25.0396 17.4739C25.7091 17.4739 26.2412 18.006 26.2412 18.6754C26.2412 18.7097 26.2412 18.7441 26.2412 18.7784V19.7911C26.2412 19.8254 26.2412 19.8598 26.2412 19.8941V20.4605C26.2412 21.13 25.7091 21.6621 25.0396 21.6621H12.3548C12.0459 21.6621 11.7541 21.5419 11.5309 21.3359C11.2906 21.1128 11.1361 20.8038 11.1361 20.4434V18.6926C11.1361 18.0231 11.6682 17.491 12.3377 17.491H25.0396V17.4739ZM25.0396 15.4656H12.3548C10.5869 15.4656 9.14502 16.9074 9.14502 18.6754V20.4262C9.14502 21.3188 9.52265 22.177 10.1749 22.795C10.7757 23.3442 11.5481 23.6532 12.3548 23.6532H25.0396C26.8076 23.6532 28.2495 22.2113 28.2495 20.4434V19.9456C28.2495 19.8941 28.2495 19.8426 28.2495 19.7911V18.7784C28.2495 18.7269 28.2495 18.6582 28.2495 18.5896C28.198 16.8731 26.7733 15.4656 25.0396 15.4656Z" fill="white"/>
<path d="M31.3392 22.6748C32.0087 22.6748 32.5408 23.2069 32.5408 23.8763V25.6271C32.5408 26.2966 32.0087 26.8287 31.3392 26.8287H29.228C28.9018 26.8287 28.5929 26.6914 28.3697 26.4682C28.1466 26.2451 28.0093 25.9533 28.0093 25.61V25.1465C27.9921 25.0779 27.9921 25.0092 27.9921 24.9405V23.9278C27.9921 23.8248 28.0093 23.7218 28.0264 23.6189C28.1294 23.0696 28.6272 22.6405 29.2108 22.6405H31.3392V22.6748ZM31.3392 20.6665H29.228C27.7003 20.6665 26.3958 21.7307 26.0868 23.2069C26.0353 23.4472 26.001 23.7047 26.001 23.9621V24.9749C26.001 25.095 26.001 25.198 26.0181 25.3182V25.6443C26.0181 26.5025 26.3443 27.3093 26.9622 27.9101C27.563 28.5108 28.3697 28.8541 29.228 28.8541H31.3392C33.1072 28.8541 34.5491 27.4123 34.5491 25.6443V23.8935C34.5662 22.1083 33.1244 20.6665 31.3392 20.6665Z" fill="white"/>
<path d="M25.1085 22.6059C25.7779 22.6059 26.31 23.138 26.31 23.8075C26.31 23.8418 26.31 23.8761 26.31 23.9105V24.9232C26.31 24.9575 26.31 24.9918 26.31 25.0262V25.5926C26.31 26.262 25.7779 26.7942 25.1085 26.7942H12.4237C12.0975 26.7942 11.8058 26.674 11.5826 26.4509C11.3595 26.2277 11.2221 25.9187 11.2221 25.5755V23.8246C11.2221 23.1552 11.7543 22.6231 12.4237 22.6231H25.1085V22.6059ZM25.1085 20.5977H12.4237C10.6557 20.5977 9.21387 22.0395 9.21387 23.8075V25.5755C9.21387 26.4509 9.57432 27.2919 10.1923 27.8927C10.793 28.4763 11.5826 28.7853 12.4237 28.7853H25.1085C26.8765 28.7853 28.3183 27.3434 28.3183 25.5755V25.0777C28.3183 25.0262 28.3183 24.9747 28.3183 24.9232V23.9105C28.3183 23.859 28.3183 23.7903 28.3183 23.7217C28.284 21.988 26.8593 20.5977 25.1085 20.5977Z" fill="white"/>
<path d="M31.2533 12.2042C31.9227 12.2042 32.4548 12.7363 32.4548 13.4057V15.1565C32.4548 15.8259 31.9227 16.358 31.2533 16.358H29.142C28.8159 16.358 28.5069 16.2207 28.2838 15.9976C28.0606 15.7744 27.9233 15.4826 27.9233 15.1393V14.6759C27.9062 14.6072 27.9062 14.5386 27.9062 14.4699V13.4572C27.9062 13.3542 27.9233 13.2512 27.9405 13.1482C28.0435 12.5989 28.5413 12.1698 29.1249 12.1698H31.2533V12.2042ZM31.2533 10.1787H29.142C27.6144 10.1787 26.3098 11.2429 26.0009 12.7191C25.9494 12.9594 25.915 13.2169 25.915 13.4744V14.4871C25.915 14.6072 25.915 14.7102 25.9322 14.8304V15.1565C25.9322 16.0147 26.2583 16.8215 26.8763 17.4223C27.477 18.023 28.2838 18.3663 29.142 18.3663H31.2533C33.0213 18.3663 34.4631 16.9245 34.4631 15.1565V13.4057C34.4631 11.6206 33.0213 10.1787 31.2533 10.1787Z" fill="white"/>
<path d="M25.0225 12.1355C25.692 12.1355 26.2241 12.6676 26.2241 13.337C26.2241 13.3713 26.2241 13.4057 26.2241 13.44V14.4527C26.2241 14.4871 26.2241 14.5214 26.2241 14.5557V15.1222C26.2241 15.7916 25.692 16.3237 25.0225 16.3237H12.3377C12.0974 16.3237 11.8743 16.255 11.6855 16.1349C11.3593 15.9117 11.1362 15.5513 11.1362 15.1222V13.337C11.1362 12.6676 11.6683 12.1355 12.3377 12.1355H25.0225ZM25.0225 10.1272H12.3377C10.5698 10.1272 9.12793 11.569 9.12793 13.337V15.0878C9.12793 16.1692 9.6772 17.1819 10.5869 17.7827C11.119 18.126 11.7198 18.3148 12.3377 18.3148H25.0225C26.7905 18.3148 28.2324 16.873 28.2324 15.105V14.59C28.2324 14.5386 28.2324 14.4871 28.2324 14.4356V13.4228C28.2324 13.3713 28.2324 13.3027 28.2324 13.234C28.1809 11.5175 26.7562 10.1272 25.0225 10.1272Z" fill="white"/>
<path d="M31.2708 21.7135H29.1595C28.8677 21.7135 28.5931 21.6105 28.3871 21.4217C28.1297 21.1985 27.958 20.8724 27.958 20.5119V18.7611C27.958 18.0917 28.4901 17.5596 29.1595 17.5596H31.2708C31.9403 17.5596 32.4724 18.0917 32.4724 18.7611V20.5119C32.4724 21.1642 31.9403 21.7135 31.2708 21.7135Z" fill="#A86700"/>
<path d="M25.0397 21.6449H12.3549C12.046 21.6449 11.7542 21.5248 11.531 21.3188C11.2907 21.0957 11.1362 20.7867 11.1362 20.4262V18.6754C11.1362 18.006 11.6683 17.4739 12.3378 17.4739H25.0226C25.692 17.4739 26.2241 18.006 26.2241 18.6754V20.4262C26.2413 21.1128 25.692 21.6449 25.0397 21.6449Z" fill="#A86700"/>
<path d="M31.1847 21.044H29.1249C28.9017 21.044 28.7129 20.9925 28.5241 20.8895C28.1636 20.6835 27.9233 20.2887 27.9233 19.8424V18.8297C27.9233 18.1603 28.4554 17.6282 29.1249 17.6282H31.1847C31.8541 17.6282 32.3862 18.1603 32.3862 18.8297V19.8424C32.3862 20.4947 31.8541 21.044 31.1847 21.044Z" fill="#D58900"/>
<path d="M25.0398 20.9925H12.5438C12.252 20.9925 11.9774 20.8895 11.7714 20.7007C11.5139 20.4775 11.3423 20.1514 11.3423 19.7909V18.7782C11.3423 18.1088 11.8744 17.5767 12.5438 17.5767H25.0398C25.7092 17.5767 26.2413 18.1088 26.2413 18.7782V19.7909C26.2413 20.4432 25.7092 20.9925 25.0398 20.9925Z" fill="#D58900"/>
<path d="M31.3392 26.8459H29.228C28.9018 26.8459 28.5929 26.7085 28.3697 26.4854C28.1466 26.2623 28.0093 25.9704 28.0093 25.6272V23.8763C28.0093 23.2069 28.5414 22.6748 29.2108 22.6748H31.3221C31.9915 22.6748 32.5236 23.2069 32.5236 23.8763V25.6272C32.558 26.2966 32.0087 26.8459 31.3392 26.8459Z" fill="#A86700"/>
<path d="M25.1085 26.777H12.4237C12.0976 26.777 11.8058 26.6569 11.5826 26.4337C11.3595 26.2106 11.2222 25.9016 11.2222 25.5583V23.8075C11.2222 23.1381 11.7543 22.606 12.4237 22.606H25.1085C25.7779 22.606 26.31 23.1381 26.31 23.8075V25.5755C26.31 26.2449 25.7779 26.777 25.1085 26.777Z" fill="#A86700"/>
<path d="M31.2706 26.1592H29.2108C28.9018 26.1592 28.6272 26.0562 28.4212 25.8674C28.1638 25.6443 28.0093 25.3181 28.0093 24.9577V23.9449C28.0093 23.2755 28.5414 22.7434 29.2108 22.7434H31.2706C31.94 22.7434 32.4721 23.2755 32.4721 23.9449V24.9577C32.4721 25.6271 31.94 26.1592 31.2706 26.1592Z" fill="#D58900"/>
<path d="M25.1087 26.1077H12.6128C12.3038 26.1077 12.012 25.9875 11.7888 25.7816C11.5485 25.5584 11.394 25.2495 11.394 24.9062V23.8934C11.394 23.224 11.9262 22.6919 12.5956 22.6919H25.1087C25.7782 22.6919 26.3103 23.224 26.3103 23.8934V24.9062C26.3103 25.5756 25.7782 26.1077 25.1087 26.1077Z" fill="#D58900"/>
<path d="M31.2533 16.358H29.142C28.8159 16.358 28.5069 16.2207 28.2838 15.9975C28.0607 15.7744 27.9233 15.4826 27.9233 15.1393V13.4056C27.9233 12.7362 28.4554 12.2041 29.1249 12.2041H31.2361C31.9056 12.2041 32.4377 12.7362 32.4377 13.4056V15.1565C32.4548 15.8259 31.9227 16.358 31.2533 16.358Z" fill="#A86700"/>
<path d="M25.0226 16.2894H12.3378C12.0975 16.2894 11.8743 16.2207 11.6855 16.1006C11.3594 15.8774 11.1362 15.517 11.1362 15.0878V13.337C11.1362 12.6676 11.6683 12.1355 12.3378 12.1355H25.0226C25.692 12.1355 26.2241 12.6676 26.2241 13.337V15.0878C26.2241 15.7573 25.6748 16.2894 25.0226 16.2894Z" fill="#A86700"/>
<path d="M31.1676 15.6885H29.1078C28.816 15.6885 28.5413 15.5855 28.3354 15.4139C28.0779 15.1907 27.9062 14.8646 27.9062 14.487V13.4742C27.9062 12.8048 28.4384 12.2727 29.1078 12.2727H31.1676C31.837 12.2727 32.3691 12.8048 32.3691 13.4742V14.487C32.3863 15.1564 31.837 15.6885 31.1676 15.6885Z" fill="#D58900"/>
<path d="M25.0227 15.637H12.5267C11.8573 15.637 11.3252 15.1049 11.3252 14.4355V13.4227C11.3252 13.0451 11.4968 12.719 11.7715 12.4958C11.9775 12.3242 12.2349 12.2212 12.5267 12.2212H25.0227C25.6921 12.2212 26.2243 12.7533 26.2243 13.4227V14.4355C26.2243 15.1049 25.6921 15.637 25.0227 15.637Z" fill="#D58900"/>
<defs>
<linearGradient id="paint0_linear_619_16448" x1="21.7353" y1="1.02151" x2="21.1026" y2="35.9601" gradientUnits="userSpaceOnUse">
<stop offset="0.6958" stop-color="#FEE581"/>
<stop offset="0.7454" stop-color="#FDE37C"/>
<stop offset="0.8026" stop-color="#FADC6E"/>
<stop offset="0.8635" stop-color="#F5D157"/>
<stop offset="0.9268" stop-color="#EFC237"/>
<stop offset="0.932" stop-color="#EEC134"/>
</linearGradient>
</defs>
</svg>
