<svg width="297" height="50" viewBox="0 0 297 50" fill="none" xmlns="http://www.w3.org/2000/svg">
<rect width="297" height="50" rx="25" fill="url(#paint0_linear_658_327)"/>
<path d="M16.5052 19.3108L16.5051 19.3108C16.4575 19.0095 16.8343 18.7251 17.1518 18.9566L17.1518 18.9566L22.3427 22.7416C23.1363 23.3203 24.269 23.1368 24.826 22.3245L29.1475 16.0223C29.4055 15.6459 29.9845 15.6459 30.2426 16.0223L34.5641 22.3245C34.5641 22.3245 34.5641 22.3245 34.5641 22.3245C35.1211 23.1369 36.2538 23.3202 37.0474 22.7416L37.0474 22.7416L42.2383 18.9566L42.2383 18.9566C42.5557 18.7251 42.9327 19.0095 42.885 19.3108C42.885 19.3108 42.885 19.3108 42.885 19.3108L42.0519 24.5754L41.2856 29.4181H18.1045L16.5052 19.3108Z" fill="#D58900" stroke="#D58900"/>
<path d="M40.4593 35.2599H18.9303C18.5011 35.2599 18.1772 34.9251 18.1772 34.5416V32.3654H41.2125V34.5415C41.2125 34.5416 41.2125 34.5416 41.2125 34.5416C41.2124 34.9251 40.8886 35.2599 40.4593 35.2599Z" fill="#D58900" stroke="#D58900"/>
<path d="M57.5981 20.784C57.7475 20.784 57.9021 20.8267 58.0621 20.912C58.2328 20.9867 58.3608 21.088 58.4461 21.216L62.3341 27.2L61.5341 27.168L65.5181 21.216C65.7208 20.928 65.9821 20.784 66.3021 20.784C66.5581 20.784 66.7875 20.8747 66.9901 21.056C67.1928 21.2373 67.2941 21.472 67.2941 21.76V31.024C67.2941 31.3013 67.2035 31.536 67.0221 31.728C66.8408 31.9093 66.6008 32 66.3021 32C66.0035 32 65.7581 31.9093 65.5661 31.728C65.3848 31.536 65.2941 31.3013 65.2941 31.024V23.488L65.9181 23.632L62.6541 28.608C62.5581 28.7253 62.4355 28.8267 62.2861 28.912C62.1475 28.9973 62.0035 29.0347 61.8541 29.024C61.7155 29.0347 61.5715 28.9973 61.4221 28.912C61.2835 28.8267 61.1661 28.7253 61.0701 28.608L58.0141 23.776L58.4301 22.928V31.024C58.4301 31.3013 58.3448 31.536 58.1741 31.728C58.0035 31.9093 57.7795 32 57.5021 32C57.2355 32 57.0168 31.9093 56.8461 31.728C56.6755 31.536 56.5901 31.3013 56.5901 31.024V21.76C56.5901 21.4933 56.6861 21.264 56.8781 21.072C57.0808 20.88 57.3208 20.784 57.5981 20.784ZM75.5715 23.44C75.8488 23.44 76.0782 23.536 76.2595 23.728C76.4408 23.9093 76.5315 24.1387 76.5315 24.416V31.216C76.5315 32.1973 76.3448 32.976 75.9715 33.552C75.6088 34.1387 75.1182 34.56 74.4995 34.816C73.8808 35.072 73.1875 35.2 72.4195 35.2C72.0782 35.2 71.7155 35.1733 71.3315 35.12C70.9475 35.0667 70.6328 34.9867 70.3875 34.88C70.0675 34.7413 69.8435 34.5653 69.7155 34.352C69.5982 34.1493 69.5768 33.9307 69.6515 33.696C69.7475 33.3867 69.9022 33.1733 70.1155 33.056C70.3288 32.9493 70.5528 32.9387 70.7875 33.024C70.9582 33.0773 71.1822 33.1573 71.4595 33.264C71.7368 33.3813 72.0568 33.44 72.4195 33.44C72.9102 33.44 73.3155 33.3707 73.6355 33.232C73.9662 33.104 74.2115 32.88 74.3715 32.56C74.5422 32.2507 74.6275 31.824 74.6275 31.28V30.208L74.9635 30.592C74.7822 30.944 74.5528 31.2373 74.2755 31.472C74.0088 31.696 73.6888 31.8667 73.3155 31.984C72.9422 32.1013 72.5155 32.16 72.0355 32.16C71.4702 32.16 70.9742 32.032 70.5475 31.776C70.1315 31.5093 69.8062 31.1467 69.5715 30.688C69.3368 30.2187 69.2195 29.6853 69.2195 29.088V24.416C69.2195 24.1387 69.3102 23.9093 69.4915 23.728C69.6728 23.536 69.9022 23.44 70.1795 23.44C70.4568 23.44 70.6862 23.536 70.8675 23.728C71.0488 23.9093 71.1395 24.1387 71.1395 24.416V28.512C71.1395 29.2053 71.2888 29.696 71.5875 29.984C71.8968 30.2613 72.3235 30.4 72.8675 30.4C73.2408 30.4 73.5555 30.3307 73.8115 30.192C74.0675 30.0427 74.2648 29.8293 74.4035 29.552C74.5422 29.264 74.6115 28.9173 74.6115 28.512V24.416C74.6115 24.1387 74.7022 23.9093 74.8835 23.728C75.0648 23.536 75.2942 23.44 75.5715 23.44ZM86.7265 23.312L83.2705 31.44C83.1958 31.6427 83.0785 31.8027 82.9185 31.92C82.7692 32.0267 82.6038 32.08 82.4225 32.08C82.1345 32.08 81.9212 32 81.7825 31.84C81.6438 31.68 81.5745 31.4827 81.5745 31.248C81.5745 31.152 81.5905 31.0507 81.6225 30.944L85.6065 21.376C85.6918 21.1627 85.8198 20.9973 85.9905 20.88C86.1718 20.7627 86.3638 20.7147 86.5665 20.736C86.7585 20.736 86.9345 20.7947 87.0945 20.912C87.2652 21.0187 87.3878 21.1733 87.4625 21.376L91.3985 30.752C91.4518 30.8907 91.4785 31.0187 91.4785 31.136C91.4785 31.424 91.3825 31.6533 91.1905 31.824C91.0092 31.9947 90.8065 32.08 90.5825 32.08C90.3905 32.08 90.2145 32.0213 90.0545 31.904C89.9052 31.7867 89.7878 31.6267 89.7025 31.424L86.2625 23.408L86.7265 23.312ZM83.7665 29.488L84.6465 27.648H88.9665L89.2705 29.488H83.7665ZM96.1613 23.28C96.7693 23.28 97.2973 23.344 97.7453 23.472C98.2039 23.6 98.5559 23.7813 98.8013 24.016C99.0573 24.24 99.1853 24.512 99.1853 24.832C99.1853 25.0453 99.1213 25.248 98.9933 25.44C98.8653 25.6213 98.6786 25.712 98.4333 25.712C98.2626 25.712 98.1186 25.6907 98.0013 25.648C97.8946 25.5947 97.7986 25.5307 97.7133 25.456C97.6279 25.3813 97.5266 25.312 97.4093 25.248C97.3026 25.184 97.1373 25.136 96.9133 25.104C96.6999 25.0613 96.5399 25.04 96.4333 25.04C95.8893 25.04 95.4253 25.1573 95.0413 25.392C94.6679 25.6267 94.3799 25.9467 94.1773 26.352C93.9746 26.7467 93.8733 27.2053 93.8733 27.728C93.8733 28.24 93.9746 28.6987 94.1773 29.104C94.3906 29.4987 94.6786 29.8133 95.0413 30.048C95.4146 30.2827 95.8413 30.4 96.3213 30.4C96.5879 30.4 96.8173 30.384 97.0093 30.352C97.2013 30.32 97.3613 30.272 97.4893 30.208C97.6386 30.1227 97.7719 30.032 97.8893 29.936C98.0066 29.84 98.1826 29.792 98.4173 29.792C98.6946 29.792 98.9079 29.8827 99.0573 30.064C99.2066 30.2347 99.2813 30.448 99.2813 30.704C99.2813 30.9707 99.1319 31.216 98.8333 31.44C98.5346 31.6533 98.1399 31.8293 97.6493 31.968C97.1693 32.096 96.6466 32.16 96.0813 32.16C95.2386 32.16 94.5079 31.968 93.8893 31.584C93.2706 31.1893 92.7906 30.656 92.4493 29.984C92.1186 29.312 91.9533 28.56 91.9533 27.728C91.9533 26.8533 92.1293 26.0853 92.4813 25.424C92.8439 24.752 93.3399 24.2293 93.9693 23.856C94.6093 23.472 95.3399 23.28 96.1613 23.28ZM104.842 23.28C105.61 23.28 106.191 23.4453 106.586 23.776C106.991 24.1067 107.268 24.5493 107.418 25.104C107.567 25.648 107.642 26.256 107.642 26.928V31.024C107.642 31.3013 107.551 31.536 107.37 31.728C107.188 31.9093 106.959 32 106.682 32C106.404 32 106.175 31.9093 105.994 31.728C105.812 31.536 105.722 31.3013 105.722 31.024V26.928C105.722 26.576 105.679 26.2613 105.594 25.984C105.508 25.696 105.354 25.4667 105.13 25.296C104.906 25.1253 104.586 25.04 104.17 25.04C103.764 25.04 103.418 25.1253 103.13 25.296C102.842 25.4667 102.623 25.696 102.474 25.984C102.335 26.2613 102.266 26.576 102.266 26.928V31.024C102.266 31.3013 102.175 31.536 101.994 31.728C101.812 31.9093 101.583 32 101.306 32C101.028 32 100.799 31.9093 100.618 31.728C100.436 31.536 100.346 31.3013 100.346 31.024V21.136C100.346 20.8587 100.436 20.6293 100.618 20.448C100.799 20.256 101.028 20.16 101.306 20.16C101.583 20.16 101.812 20.256 101.994 20.448C102.175 20.6293 102.266 20.8587 102.266 21.136V25.104L102.026 25.056C102.122 24.8747 102.255 24.6827 102.426 24.48C102.596 24.2667 102.804 24.0693 103.05 23.888C103.295 23.7067 103.567 23.5627 103.866 23.456C104.164 23.3387 104.49 23.28 104.842 23.28ZM111.209 31.024C111.209 31.3013 111.118 31.536 110.937 31.728C110.755 31.9093 110.526 32 110.249 32C109.971 32 109.742 31.9093 109.561 31.728C109.379 31.536 109.289 31.3013 109.289 31.024V24.416C109.289 24.1387 109.379 23.9093 109.561 23.728C109.742 23.536 109.971 23.44 110.249 23.44C110.526 23.44 110.755 23.536 110.937 23.728C111.118 23.9093 111.209 24.1387 111.209 24.416V31.024ZM110.233 22.4C109.87 22.4 109.614 22.3413 109.465 22.224C109.315 22.1067 109.241 21.8987 109.241 21.6V21.296C109.241 20.9867 109.321 20.7787 109.481 20.672C109.651 20.5547 109.907 20.496 110.249 20.496C110.622 20.496 110.883 20.5547 111.033 20.672C111.182 20.7893 111.257 20.9973 111.257 21.296V21.6C111.257 21.9093 111.177 22.1227 111.017 22.24C110.857 22.3467 110.595 22.4 110.233 22.4ZM116.894 32.16C115.987 32.16 115.198 31.9733 114.526 31.6C113.865 31.216 113.353 30.6987 112.99 30.048C112.638 29.3973 112.462 28.6613 112.462 27.84C112.462 26.88 112.654 26.064 113.038 25.392C113.433 24.7093 113.945 24.1867 114.574 23.824C115.203 23.4613 115.87 23.28 116.574 23.28C117.118 23.28 117.63 23.392 118.11 23.616C118.601 23.84 119.033 24.1493 119.406 24.544C119.779 24.928 120.073 25.376 120.286 25.888C120.51 26.4 120.622 26.944 120.622 27.52C120.611 27.776 120.51 27.984 120.318 28.144C120.126 28.304 119.902 28.384 119.646 28.384H113.534L113.054 26.784H118.926L118.574 27.104V26.672C118.553 26.3627 118.441 26.0853 118.238 25.84C118.046 25.5947 117.801 25.4027 117.502 25.264C117.214 25.1147 116.905 25.04 116.574 25.04C116.254 25.04 115.955 25.0827 115.678 25.168C115.401 25.2533 115.161 25.3973 114.958 25.6C114.755 25.8027 114.595 26.0747 114.478 26.416C114.361 26.7573 114.302 27.1893 114.302 27.712C114.302 28.288 114.419 28.7787 114.654 29.184C114.899 29.5787 115.209 29.8827 115.582 30.096C115.966 30.2987 116.371 30.4 116.798 30.4C117.193 30.4 117.507 30.368 117.742 30.304C117.977 30.24 118.163 30.1653 118.302 30.08C118.451 29.984 118.585 29.904 118.702 29.84C118.894 29.744 119.075 29.696 119.246 29.696C119.481 29.696 119.673 29.776 119.822 29.936C119.982 30.096 120.062 30.2827 120.062 30.496C120.062 30.784 119.913 31.0453 119.614 31.28C119.337 31.5147 118.947 31.7227 118.446 31.904C117.945 32.0747 117.427 32.16 116.894 32.16ZM122.285 23.44C122.488 23.44 122.675 23.4933 122.845 23.6C123.016 23.696 123.144 23.8453 123.229 24.048L125.581 29.424L125.229 29.584L127.629 24.064C127.811 23.6373 128.093 23.4347 128.477 23.456C128.744 23.456 128.957 23.5413 129.117 23.712C129.288 23.872 129.373 24.0747 129.373 24.32C129.373 24.3947 129.357 24.4747 129.325 24.56C129.304 24.6453 129.277 24.7253 129.245 24.8L126.253 31.392C126.083 31.776 125.811 31.9787 125.437 32C125.235 32.032 125.037 31.9947 124.845 31.888C124.664 31.7813 124.525 31.616 124.429 31.392L121.453 24.8C121.432 24.7467 121.405 24.6773 121.373 24.592C121.352 24.5067 121.341 24.4053 121.341 24.288C121.341 24.096 121.427 23.9093 121.597 23.728C121.768 23.536 121.997 23.44 122.285 23.44ZM134.52 32.16C133.613 32.16 132.824 31.9733 132.152 31.6C131.49 31.216 130.978 30.6987 130.616 30.048C130.264 29.3973 130.088 28.6613 130.088 27.84C130.088 26.88 130.28 26.064 130.664 25.392C131.058 24.7093 131.57 24.1867 132.2 23.824C132.829 23.4613 133.496 23.28 134.2 23.28C134.744 23.28 135.256 23.392 135.736 23.616C136.226 23.84 136.658 24.1493 137.032 24.544C137.405 24.928 137.698 25.376 137.912 25.888C138.136 26.4 138.248 26.944 138.248 27.52C138.237 27.776 138.136 27.984 137.944 28.144C137.752 28.304 137.528 28.384 137.272 28.384H131.16L130.68 26.784H136.552L136.2 27.104V26.672C136.178 26.3627 136.066 26.0853 135.864 25.84C135.672 25.5947 135.426 25.4027 135.128 25.264C134.84 25.1147 134.53 25.04 134.2 25.04C133.88 25.04 133.581 25.0827 133.304 25.168C133.026 25.2533 132.786 25.3973 132.584 25.6C132.381 25.8027 132.221 26.0747 132.104 26.416C131.986 26.7573 131.928 27.1893 131.928 27.712C131.928 28.288 132.045 28.7787 132.28 29.184C132.525 29.5787 132.834 29.8827 133.208 30.096C133.592 30.2987 133.997 30.4 134.424 30.4C134.818 30.4 135.133 30.368 135.368 30.304C135.602 30.24 135.789 30.1653 135.928 30.08C136.077 29.984 136.21 29.904 136.328 29.84C136.52 29.744 136.701 29.696 136.872 29.696C137.106 29.696 137.298 29.776 137.448 29.936C137.608 30.096 137.688 30.2827 137.688 30.496C137.688 30.784 137.538 31.0453 137.24 31.28C136.962 31.5147 136.573 31.7227 136.072 31.904C135.57 32.0747 135.053 32.16 134.52 32.16ZM144.101 23.28C144.954 23.28 145.584 23.488 145.989 23.904C146.394 24.3093 146.661 24.8373 146.789 25.488L146.517 25.344L146.645 25.088C146.773 24.8427 146.97 24.5813 147.237 24.304C147.504 24.016 147.824 23.776 148.197 23.584C148.581 23.3813 149.008 23.28 149.477 23.28C150.245 23.28 150.826 23.4453 151.221 23.776C151.626 24.1067 151.904 24.5493 152.053 25.104C152.202 25.648 152.277 26.256 152.277 26.928V31.024C152.277 31.3013 152.186 31.536 152.005 31.728C151.824 31.9093 151.594 32 151.317 32C151.04 32 150.81 31.9093 150.629 31.728C150.448 31.536 150.357 31.3013 150.357 31.024V26.928C150.357 26.576 150.314 26.2613 150.229 25.984C150.144 25.696 149.989 25.4667 149.765 25.296C149.541 25.1253 149.221 25.04 148.805 25.04C148.4 25.04 148.053 25.1253 147.765 25.296C147.477 25.4667 147.258 25.696 147.109 25.984C146.97 26.2613 146.901 26.576 146.901 26.928V31.024C146.901 31.3013 146.81 31.536 146.629 31.728C146.448 31.9093 146.218 32 145.941 32C145.664 32 145.434 31.9093 145.253 31.728C145.072 31.536 144.981 31.3013 144.981 31.024V26.928C144.981 26.576 144.938 26.2613 144.853 25.984C144.768 25.696 144.613 25.4667 144.389 25.296C144.165 25.1253 143.845 25.04 143.429 25.04C143.024 25.04 142.677 25.1253 142.389 25.296C142.101 25.4667 141.882 25.696 141.733 25.984C141.594 26.2613 141.525 26.576 141.525 26.928V31.024C141.525 31.3013 141.434 31.536 141.253 31.728C141.072 31.9093 140.842 32 140.565 32C140.288 32 140.058 31.9093 139.877 31.728C139.696 31.536 139.605 31.3013 139.605 31.024V24.416C139.605 24.1387 139.696 23.9093 139.877 23.728C140.058 23.536 140.288 23.44 140.565 23.44C140.842 23.44 141.072 23.536 141.253 23.728C141.434 23.9093 141.525 24.1387 141.525 24.416V25.104L141.285 25.056C141.381 24.8747 141.514 24.6827 141.685 24.48C141.856 24.2667 142.064 24.0693 142.309 23.888C142.554 23.7067 142.826 23.5627 143.125 23.456C143.424 23.3387 143.749 23.28 144.101 23.28ZM158.067 32.16C157.16 32.16 156.371 31.9733 155.699 31.6C155.038 31.216 154.526 30.6987 154.163 30.048C153.811 29.3973 153.635 28.6613 153.635 27.84C153.635 26.88 153.827 26.064 154.211 25.392C154.606 24.7093 155.118 24.1867 155.747 23.824C156.376 23.4613 157.043 23.28 157.747 23.28C158.291 23.28 158.803 23.392 159.283 23.616C159.774 23.84 160.206 24.1493 160.579 24.544C160.952 24.928 161.246 25.376 161.459 25.888C161.683 26.4 161.795 26.944 161.795 27.52C161.784 27.776 161.683 27.984 161.491 28.144C161.299 28.304 161.075 28.384 160.819 28.384H154.707L154.227 26.784H160.099L159.747 27.104V26.672C159.726 26.3627 159.614 26.0853 159.411 25.84C159.219 25.5947 158.974 25.4027 158.675 25.264C158.387 25.1147 158.078 25.04 157.747 25.04C157.427 25.04 157.128 25.0827 156.851 25.168C156.574 25.2533 156.334 25.3973 156.131 25.6C155.928 25.8027 155.768 26.0747 155.651 26.416C155.534 26.7573 155.475 27.1893 155.475 27.712C155.475 28.288 155.592 28.7787 155.827 29.184C156.072 29.5787 156.382 29.8827 156.755 30.096C157.139 30.2987 157.544 30.4 157.971 30.4C158.366 30.4 158.68 30.368 158.915 30.304C159.15 30.24 159.336 30.1653 159.475 30.08C159.624 29.984 159.758 29.904 159.875 29.84C160.067 29.744 160.248 29.696 160.419 29.696C160.654 29.696 160.846 29.776 160.995 29.936C161.155 30.096 161.235 30.2827 161.235 30.496C161.235 30.784 161.086 31.0453 160.787 31.28C160.51 31.5147 160.12 31.7227 159.619 31.904C159.118 32.0747 158.6 32.16 158.067 32.16ZM167.729 23.28C168.518 23.28 169.115 23.4453 169.521 23.776C169.937 24.1067 170.219 24.5493 170.369 25.104C170.529 25.648 170.609 26.256 170.609 26.928V31.024C170.609 31.3013 170.518 31.536 170.337 31.728C170.155 31.9093 169.926 32 169.649 32C169.371 32 169.142 31.9093 168.961 31.728C168.779 31.536 168.689 31.3013 168.689 31.024V26.928C168.689 26.576 168.641 26.2613 168.545 25.984C168.459 25.696 168.299 25.4667 168.065 25.296C167.83 25.1253 167.494 25.04 167.057 25.04C166.63 25.04 166.267 25.1253 165.969 25.296C165.681 25.4667 165.457 25.696 165.297 25.984C165.147 26.2613 165.073 26.576 165.073 26.928V31.024C165.073 31.3013 164.982 31.536 164.801 31.728C164.619 31.9093 164.39 32 164.113 32C163.835 32 163.606 31.9093 163.425 31.728C163.243 31.536 163.153 31.3013 163.153 31.024V24.416C163.153 24.1387 163.243 23.9093 163.425 23.728C163.606 23.536 163.835 23.44 164.113 23.44C164.39 23.44 164.619 23.536 164.801 23.728C164.982 23.9093 165.073 24.1387 165.073 24.416V25.104L164.833 25.056C164.929 24.8747 165.067 24.6827 165.249 24.48C165.43 24.2667 165.643 24.0693 165.889 23.888C166.134 23.7067 166.411 23.5627 166.721 23.456C167.03 23.3387 167.366 23.28 167.729 23.28ZM172.46 23.6H176.252C176.508 23.6 176.721 23.6853 176.892 23.856C177.063 24.0267 177.148 24.24 177.148 24.496C177.148 24.7413 177.063 24.9493 176.892 25.12C176.721 25.28 176.508 25.36 176.252 25.36H172.46C172.204 25.36 171.991 25.2747 171.82 25.104C171.649 24.9333 171.564 24.72 171.564 24.464C171.564 24.2187 171.649 24.016 171.82 23.856C171.991 23.6853 172.204 23.6 172.46 23.6ZM174.172 21.6C174.449 21.6 174.673 21.696 174.844 21.888C175.025 22.0693 175.116 22.2987 175.116 22.576V29.696C175.116 29.8453 175.143 29.968 175.196 30.064C175.26 30.16 175.34 30.2293 175.436 30.272C175.543 30.3147 175.655 30.336 175.772 30.336C175.9 30.336 176.017 30.3147 176.124 30.272C176.231 30.2187 176.353 30.192 176.492 30.192C176.641 30.192 176.775 30.2613 176.892 30.4C177.02 30.5387 177.084 30.7307 177.084 30.976C177.084 31.2747 176.919 31.52 176.588 31.712C176.268 31.904 175.921 32 175.548 32C175.324 32 175.073 31.984 174.796 31.952C174.529 31.9093 174.273 31.8187 174.028 31.68C173.793 31.5307 173.596 31.3067 173.436 31.008C173.276 30.7093 173.196 30.2987 173.196 29.776V22.576C173.196 22.2987 173.287 22.0693 173.468 21.888C173.66 21.696 173.895 21.6 174.172 21.6ZM178.407 30.672C178.301 30.5227 178.253 30.3307 178.263 30.096C178.274 29.8613 178.413 29.6587 178.679 29.488C178.85 29.3813 179.031 29.3387 179.223 29.36C179.415 29.3707 179.602 29.4667 179.783 29.648C180.093 29.9573 180.418 30.1973 180.759 30.368C181.101 30.5387 181.527 30.624 182.039 30.624C182.199 30.6133 182.375 30.592 182.567 30.56C182.759 30.5173 182.925 30.432 183.063 30.304C183.213 30.1653 183.287 29.9573 183.287 29.68C183.287 29.4453 183.207 29.2587 183.047 29.12C182.887 28.9813 182.674 28.864 182.407 28.768C182.151 28.672 181.863 28.5813 181.543 28.496C181.213 28.4 180.871 28.2933 180.519 28.176C180.178 28.0587 179.863 27.9093 179.575 27.728C179.287 27.536 179.053 27.2853 178.871 26.976C178.69 26.6667 178.599 26.2773 178.599 25.808C178.599 25.2747 178.749 24.8213 179.047 24.448C179.346 24.0747 179.73 23.7867 180.199 23.584C180.679 23.3813 181.181 23.28 181.703 23.28C182.034 23.28 182.381 23.3227 182.743 23.408C183.106 23.4827 183.453 23.6107 183.783 23.792C184.114 23.9627 184.391 24.192 184.615 24.48C184.733 24.64 184.802 24.832 184.823 25.056C184.845 25.28 184.743 25.4827 184.519 25.664C184.359 25.792 184.173 25.8507 183.959 25.84C183.746 25.8187 183.57 25.744 183.431 25.616C183.25 25.3813 183.005 25.1947 182.695 25.056C182.397 24.9173 182.05 24.848 181.655 24.848C181.495 24.848 181.319 24.8693 181.127 24.912C180.946 24.944 180.786 25.024 180.647 25.152C180.509 25.2693 180.439 25.4613 180.439 25.728C180.439 25.9733 180.519 26.1707 180.679 26.32C180.839 26.4587 181.053 26.576 181.319 26.672C181.597 26.7573 181.89 26.8427 182.199 26.928C182.519 27.0133 182.845 27.1147 183.175 27.232C183.506 27.3493 183.81 27.504 184.087 27.696C184.365 27.888 184.589 28.1387 184.759 28.448C184.93 28.7467 185.015 29.1307 185.015 29.6C185.015 30.144 184.855 30.608 184.535 30.992C184.215 31.376 183.815 31.6693 183.335 31.872C182.855 32.064 182.365 32.16 181.863 32.16C181.234 32.16 180.605 32.0533 179.975 31.84C179.346 31.616 178.823 31.2267 178.407 30.672Z" fill="#23003D"/>
<path d="M275.91 33.42L282.43 26.9C283.2 26.13 283.2 24.87 282.43 24.1L275.91 17.58" stroke="#D58900" stroke-width="2" stroke-miterlimit="10" stroke-linecap="round" stroke-linejoin="round"/>
<defs>
<linearGradient id="paint0_linear_658_327" x1="148.5" y1="0" x2="148.5" y2="50" gradientUnits="userSpaceOnUse">
<stop stop-color="#FFE384"/>
<stop offset="1" stop-color="#FFCF35"/>
</linearGradient>
</defs>
</svg>
