<svg width="297" height="44" viewBox="0 0 297 44" fill="none" xmlns="http://www.w3.org/2000/svg">
<rect width="297" height="44" rx="22" fill="url(#paint0_linear_619_9623)"/>
<g clip-path="url(#clip0_619_9623)">
<path d="M16 34.4037H21.981V25.9707C21.981 24.8365 21.0615 23.9163 19.9266 23.9163H18.0537C16.9195 23.917 16 24.8373 16 25.9707V34.4037Z" fill="#D58900"/>
<path d="M33.9925 34.4035H39.9735V19.6009C39.9735 18.4668 39.054 17.5465 37.9198 17.5465H36.0446C34.9097 17.5465 33.9902 18.466 33.9902 19.6009L33.9925 34.4035Z" fill="#D58900"/>
<path d="M27.0644 10.5956C25.9303 10.5956 25.0093 11.5151 25.0093 12.65V34.4043H30.9903V12.6493C30.9903 11.5151 30.0692 10.5948 28.9351 10.5948L27.0644 10.5956Z" fill="#D58900"/>
</g>
<path d="M54.208 17.784C54.3573 17.784 54.512 17.8267 54.672 17.912C54.8427 17.9867 54.9707 18.088 55.056 18.216L58.944 24.2L58.144 24.168L62.128 18.216C62.3307 17.928 62.592 17.784 62.912 17.784C63.168 17.784 63.3973 17.8747 63.6 18.056C63.8027 18.2373 63.904 18.472 63.904 18.76V28.024C63.904 28.3013 63.8133 28.536 63.632 28.728C63.4507 28.9093 63.2107 29 62.912 29C62.6133 29 62.368 28.9093 62.176 28.728C61.9947 28.536 61.904 28.3013 61.904 28.024V20.488L62.528 20.632L59.264 25.608C59.168 25.7253 59.0453 25.8267 58.896 25.912C58.7573 25.9973 58.6133 26.0347 58.464 26.024C58.3253 26.0347 58.1813 25.9973 58.032 25.912C57.8933 25.8267 57.776 25.7253 57.68 25.608L54.624 20.776L55.04 19.928V28.024C55.04 28.3013 54.9547 28.536 54.784 28.728C54.6133 28.9093 54.3893 29 54.112 29C53.8453 29 53.6267 28.9093 53.456 28.728C53.2853 28.536 53.2 28.3013 53.2 28.024V18.76C53.2 18.4933 53.296 18.264 53.488 18.072C53.6907 17.88 53.9307 17.784 54.208 17.784ZM72.1814 20.44C72.4587 20.44 72.688 20.536 72.8694 20.728C73.0507 20.9093 73.1414 21.1387 73.1414 21.416V28.216C73.1414 29.1973 72.9547 29.976 72.5814 30.552C72.2187 31.1387 71.728 31.56 71.1094 31.816C70.4907 32.072 69.7974 32.2 69.0294 32.2C68.688 32.2 68.3254 32.1733 67.9414 32.12C67.5574 32.0667 67.2427 31.9867 66.9974 31.88C66.6774 31.7413 66.4534 31.5653 66.3254 31.352C66.208 31.1493 66.1867 30.9307 66.2614 30.696C66.3574 30.3867 66.512 30.1733 66.7254 30.056C66.9387 29.9493 67.1627 29.9387 67.3974 30.024C67.568 30.0773 67.792 30.1573 68.0694 30.264C68.3467 30.3813 68.6667 30.44 69.0294 30.44C69.52 30.44 69.9254 30.3707 70.2454 30.232C70.576 30.104 70.8214 29.88 70.9814 29.56C71.152 29.2507 71.2374 28.824 71.2374 28.28V27.208L71.5734 27.592C71.392 27.944 71.1627 28.2373 70.8854 28.472C70.6187 28.696 70.2987 28.8667 69.9254 28.984C69.552 29.1013 69.1254 29.16 68.6454 29.16C68.08 29.16 67.584 29.032 67.1574 28.776C66.7414 28.5093 66.416 28.1467 66.1814 27.688C65.9467 27.2187 65.8294 26.6853 65.8294 26.088V21.416C65.8294 21.1387 65.92 20.9093 66.1014 20.728C66.2827 20.536 66.512 20.44 66.7894 20.44C67.0667 20.44 67.296 20.536 67.4774 20.728C67.6587 20.9093 67.7494 21.1387 67.7494 21.416V25.512C67.7494 26.2053 67.8987 26.696 68.1974 26.984C68.5067 27.2613 68.9334 27.4 69.4774 27.4C69.8507 27.4 70.1654 27.3307 70.4214 27.192C70.6774 27.0427 70.8747 26.8293 71.0134 26.552C71.152 26.264 71.2214 25.9173 71.2214 25.512V21.416C71.2214 21.1387 71.312 20.9093 71.4934 20.728C71.6747 20.536 71.904 20.44 72.1814 20.44ZM82.8244 29.16C82.0777 29.16 81.4057 29.0693 80.8084 28.888C80.211 28.696 79.6404 28.3653 79.0964 27.896C78.9577 27.7787 78.851 27.6453 78.7764 27.496C78.7017 27.3467 78.6644 27.1973 78.6644 27.048C78.6644 26.8027 78.7497 26.5893 78.9204 26.408C79.1017 26.216 79.3257 26.12 79.5924 26.12C79.795 26.12 79.9764 26.184 80.1364 26.312C80.5417 26.6427 80.9417 26.8933 81.3364 27.064C81.7417 27.2347 82.2377 27.32 82.8244 27.32C83.219 27.32 83.5817 27.2613 83.9124 27.144C84.243 27.016 84.5097 26.8507 84.7124 26.648C84.915 26.4347 85.0164 26.1947 85.0164 25.928C85.0164 25.608 84.9204 25.336 84.7284 25.112C84.5364 24.888 84.243 24.7013 83.8484 24.552C83.4537 24.392 82.9524 24.2693 82.3444 24.184C81.7684 24.0987 81.2617 23.9707 80.8244 23.8C80.387 23.6187 80.019 23.3947 79.7204 23.128C79.4324 22.8507 79.2137 22.5307 79.0644 22.168C78.915 21.7947 78.8404 21.3787 78.8404 20.92C78.8404 20.2267 79.0164 19.6347 79.3684 19.144C79.731 18.6533 80.2164 18.28 80.8244 18.024C81.4324 17.768 82.1044 17.64 82.8404 17.64C83.5337 17.64 84.1737 17.7467 84.7604 17.96C85.3577 18.1627 85.843 18.424 86.2164 18.744C86.5257 18.9893 86.6804 19.272 86.6804 19.592C86.6804 19.8267 86.5897 20.04 86.4084 20.232C86.227 20.424 86.0137 20.52 85.7684 20.52C85.6084 20.52 85.4644 20.472 85.3364 20.376C85.1657 20.2267 84.9364 20.088 84.6484 19.96C84.3604 19.8213 84.0564 19.7093 83.7364 19.624C83.4164 19.528 83.1177 19.48 82.8404 19.48C82.3817 19.48 81.9924 19.5387 81.6724 19.656C81.363 19.7733 81.1284 19.9333 80.9684 20.136C80.8084 20.3387 80.7284 20.5733 80.7284 20.84C80.7284 21.16 80.819 21.4267 81.0004 21.64C81.1924 21.8427 81.4644 22.008 81.8164 22.136C82.1684 22.2533 82.5897 22.36 83.0804 22.456C83.7204 22.5733 84.2804 22.712 84.7604 22.872C85.251 23.032 85.6564 23.24 85.9764 23.496C86.2964 23.7413 86.5364 24.056 86.6964 24.44C86.8564 24.8133 86.9364 25.272 86.9364 25.816C86.9364 26.5093 86.7444 27.1067 86.3604 27.608C85.9764 28.1093 85.4697 28.4933 84.8404 28.76C84.2217 29.0267 83.5497 29.16 82.8244 29.16ZM88.3873 20.6H92.1793C92.4353 20.6 92.6486 20.6853 92.8193 20.856C92.9899 21.0267 93.0753 21.24 93.0753 21.496C93.0753 21.7413 92.9899 21.9493 92.8193 22.12C92.6486 22.28 92.4353 22.36 92.1793 22.36H88.3873C88.1313 22.36 87.9179 22.2747 87.7473 22.104C87.5766 21.9333 87.4913 21.72 87.4913 21.464C87.4913 21.2187 87.5766 21.016 87.7473 20.856C87.9179 20.6853 88.1313 20.6 88.3873 20.6ZM90.0993 18.6C90.3766 18.6 90.6006 18.696 90.7713 18.888C90.9526 19.0693 91.0433 19.2987 91.0433 19.576V26.696C91.0433 26.8453 91.0699 26.968 91.1233 27.064C91.1873 27.16 91.2673 27.2293 91.3633 27.272C91.4699 27.3147 91.5819 27.336 91.6993 27.336C91.8273 27.336 91.9446 27.3147 92.0513 27.272C92.1579 27.2187 92.2806 27.192 92.4193 27.192C92.5686 27.192 92.7019 27.2613 92.8193 27.4C92.9473 27.5387 93.0113 27.7307 93.0113 27.976C93.0113 28.2747 92.8459 28.52 92.5153 28.712C92.1953 28.904 91.8486 29 91.4753 29C91.2513 29 91.0006 28.984 90.7233 28.952C90.4566 28.9093 90.2006 28.8187 89.9553 28.68C89.7206 28.5307 89.5233 28.3067 89.3633 28.008C89.2033 27.7093 89.1233 27.2987 89.1233 26.776V19.576C89.1233 19.2987 89.2139 19.0693 89.3953 18.888C89.5873 18.696 89.8219 18.6 90.0993 18.6ZM101.526 20.28C101.803 20.28 102.033 20.3707 102.214 20.552C102.395 20.7333 102.486 20.968 102.486 21.256V28.024C102.486 28.3013 102.395 28.536 102.214 28.728C102.033 28.9093 101.803 29 101.526 29C101.249 29 101.019 28.9093 100.838 28.728C100.657 28.536 100.566 28.3013 100.566 28.024V27.24L100.918 27.384C100.918 27.5227 100.843 27.6933 100.694 27.896C100.545 28.088 100.342 28.28 100.086 28.472C99.8301 28.664 99.5261 28.8293 99.1741 28.968C98.8328 29.096 98.4595 29.16 98.0541 29.16C97.3181 29.16 96.6515 28.9733 96.0541 28.6C95.4568 28.216 94.9821 27.6933 94.6301 27.032C94.2888 26.36 94.1181 25.592 94.1181 24.728C94.1181 23.8533 94.2888 23.0853 94.6301 22.424C94.9821 21.752 95.4515 21.2293 96.0381 20.856C96.6248 20.472 97.2755 20.28 97.9901 20.28C98.4488 20.28 98.8701 20.3493 99.2541 20.488C99.6381 20.6267 99.9688 20.8027 100.246 21.016C100.534 21.2293 100.753 21.448 100.902 21.672C101.062 21.8853 101.142 22.0667 101.142 22.216L100.566 22.424V21.256C100.566 20.9787 100.657 20.7493 100.838 20.568C101.019 20.376 101.249 20.28 101.526 20.28ZM98.2941 27.4C98.7635 27.4 99.1741 27.2827 99.5261 27.048C99.8781 26.8133 100.15 26.4933 100.342 26.088C100.545 25.6827 100.646 25.2293 100.646 24.728C100.646 24.216 100.545 23.7573 100.342 23.352C100.15 22.9467 99.8781 22.6267 99.5261 22.392C99.1741 22.1573 98.7635 22.04 98.2941 22.04C97.8355 22.04 97.4301 22.1573 97.0781 22.392C96.7261 22.6267 96.4488 22.9467 96.2461 23.352C96.0541 23.7573 95.9581 24.216 95.9581 24.728C95.9581 25.2293 96.0541 25.6827 96.2461 26.088C96.4488 26.4933 96.7261 26.8133 97.0781 27.048C97.4301 27.2827 97.8355 27.4 98.2941 27.4ZM104.341 20.6H108.133C108.389 20.6 108.602 20.6853 108.773 20.856C108.944 21.0267 109.029 21.24 109.029 21.496C109.029 21.7413 108.944 21.9493 108.773 22.12C108.602 22.28 108.389 22.36 108.133 22.36H104.341C104.085 22.36 103.872 22.2747 103.701 22.104C103.53 21.9333 103.445 21.72 103.445 21.464C103.445 21.2187 103.53 21.016 103.701 20.856C103.872 20.6853 104.085 20.6 104.341 20.6ZM106.053 18.6C106.33 18.6 106.554 18.696 106.725 18.888C106.906 19.0693 106.997 19.2987 106.997 19.576V26.696C106.997 26.8453 107.024 26.968 107.077 27.064C107.141 27.16 107.221 27.2293 107.317 27.272C107.424 27.3147 107.536 27.336 107.653 27.336C107.781 27.336 107.898 27.3147 108.005 27.272C108.112 27.2187 108.234 27.192 108.373 27.192C108.522 27.192 108.656 27.2613 108.773 27.4C108.901 27.5387 108.965 27.7307 108.965 27.976C108.965 28.2747 108.8 28.52 108.469 28.712C108.149 28.904 107.802 29 107.429 29C107.205 29 106.954 28.984 106.677 28.952C106.41 28.9093 106.154 28.8187 105.909 28.68C105.674 28.5307 105.477 28.3067 105.317 28.008C105.157 27.7093 105.077 27.2987 105.077 26.776V19.576C105.077 19.2987 105.168 19.0693 105.349 18.888C105.541 18.696 105.776 18.6 106.053 18.6ZM110.288 27.672C110.182 27.5227 110.134 27.3307 110.144 27.096C110.155 26.8613 110.294 26.6587 110.56 26.488C110.731 26.3813 110.912 26.3387 111.104 26.36C111.296 26.3707 111.483 26.4667 111.664 26.648C111.974 26.9573 112.299 27.1973 112.64 27.368C112.982 27.5387 113.408 27.624 113.92 27.624C114.08 27.6133 114.256 27.592 114.448 27.56C114.64 27.5173 114.806 27.432 114.944 27.304C115.094 27.1653 115.168 26.9573 115.168 26.68C115.168 26.4453 115.088 26.2587 114.928 26.12C114.768 25.9813 114.555 25.864 114.288 25.768C114.032 25.672 113.744 25.5813 113.424 25.496C113.094 25.4 112.752 25.2933 112.4 25.176C112.059 25.0587 111.744 24.9093 111.456 24.728C111.168 24.536 110.934 24.2853 110.752 23.976C110.571 23.6667 110.48 23.2773 110.48 22.808C110.48 22.2747 110.63 21.8213 110.928 21.448C111.227 21.0747 111.611 20.7867 112.08 20.584C112.56 20.3813 113.062 20.28 113.584 20.28C113.915 20.28 114.262 20.3227 114.624 20.408C114.987 20.4827 115.334 20.6107 115.664 20.792C115.995 20.9627 116.272 21.192 116.496 21.48C116.614 21.64 116.683 21.832 116.704 22.056C116.726 22.28 116.624 22.4827 116.4 22.664C116.24 22.792 116.054 22.8507 115.84 22.84C115.627 22.8187 115.451 22.744 115.312 22.616C115.131 22.3813 114.886 22.1947 114.576 22.056C114.278 21.9173 113.931 21.848 113.536 21.848C113.376 21.848 113.2 21.8693 113.008 21.912C112.827 21.944 112.667 22.024 112.528 22.152C112.39 22.2693 112.32 22.4613 112.32 22.728C112.32 22.9733 112.4 23.1707 112.56 23.32C112.72 23.4587 112.934 23.576 113.2 23.672C113.478 23.7573 113.771 23.8427 114.08 23.928C114.4 24.0133 114.726 24.1147 115.056 24.232C115.387 24.3493 115.691 24.504 115.968 24.696C116.246 24.888 116.47 25.1387 116.64 25.448C116.811 25.7467 116.896 26.1307 116.896 26.6C116.896 27.144 116.736 27.608 116.416 27.992C116.096 28.376 115.696 28.6693 115.216 28.872C114.736 29.064 114.246 29.16 113.744 29.16C113.115 29.16 112.486 29.0533 111.856 28.84C111.227 28.616 110.704 28.2267 110.288 27.672Z" fill="#23003D"/>
<path d="M275.91 30.42L282.43 23.9C283.2 23.13 283.2 21.87 282.43 21.1L275.91 14.58" stroke="#D58900" stroke-width="2" stroke-miterlimit="10" stroke-linecap="round" stroke-linejoin="round"/>
<defs>
<linearGradient id="paint0_linear_619_9623" x1="148.5" y1="0" x2="148.5" y2="44" gradientUnits="userSpaceOnUse">
<stop stop-color="#FFE384"/>
<stop offset="1" stop-color="#FFCF35"/>
</linearGradient>
<clipPath id="clip0_619_9623">
<rect width="24" height="24" fill="white" transform="translate(16 10.5)"/>
</clipPath>
</defs>
</svg>
