<svg width="24" height="25" viewBox="0 0 24 25" fill="none" xmlns="http://www.w3.org/2000/svg">
<g clip-path="url(#clip0_630_7010)">
<path d="M0 24.4036H5.98098V15.9705C5.98098 14.8364 5.06147 13.9161 3.92657 13.9161H2.05366C0.919514 13.9169 0 14.8372 0 15.9705V24.4036Z" fill="white"/>
<path d="M9.01141 24.4035H14.9924V9.60092C14.9924 8.46678 14.0729 7.54651 12.9387 7.54651H11.0636C9.92867 7.54651 9.00916 8.46602 9.00916 9.60092L9.01141 24.4035Z" fill="white"/>
<path d="M20.0742 0.595602C18.9401 0.595602 18.019 1.51512 18.019 2.65001V24.4043H24V2.64926C24 1.51512 23.079 0.594849 21.9449 0.594849L20.0742 0.595602Z" fill="white"/>
</g>
<defs>
<clipPath id="clip0_630_7010">
<rect width="24" height="24" fill="white" transform="translate(0 0.5)"/>
</clipPath>
</defs>
</svg>
