<svg width="297" height="44" viewBox="0 0 297 44" fill="none" xmlns="http://www.w3.org/2000/svg">
<rect width="297" height="44" rx="22" fill="url(#paint0_linear_619_9650)"/>
<path fill-rule="evenodd" clip-rule="evenodd" d="M21 12.5C19.3431 12.5 18 13.8431 18 15.5V29.5C18 31.1569 19.3431 32.5 21 32.5H35C36.6569 32.5 38 31.1569 38 29.5V19.5C38 18.1938 37.1652 17.0825 36 16.6707V15.5C36 13.8431 34.6569 12.5 33 12.5H21ZM21 14.5C20.4477 14.5 20 14.9477 20 15.5C20 16.0523 20.4477 16.5 21 16.5H34V15.5C34 14.9477 33.5523 14.5 33 14.5H21ZM33 22.5C31.8954 22.5 31 23.3954 31 24.5C31 25.6046 31.8954 26.5 33 26.5H35C35.5523 26.5 36 26.0523 36 25.5V23.5C36 22.9477 35.5523 22.5 35 22.5H33Z" fill="#D58900"/>
<path d="M57.824 17.8C58.3787 17.8 58.896 17.96 59.376 18.28C59.8667 18.6 60.2613 19.032 60.56 19.576C60.8587 20.12 61.008 20.728 61.008 21.4C61.008 22.0613 60.8587 22.664 60.56 23.208C60.2613 23.752 59.8667 24.1893 59.376 24.52C58.896 24.84 58.3787 25 57.824 25H54.88L55.04 24.712V28.024C55.04 28.3013 54.9547 28.536 54.784 28.728C54.6133 28.9093 54.3893 29 54.112 29C53.8453 29 53.6267 28.9093 53.456 28.728C53.2853 28.536 53.2 28.3013 53.2 28.024V18.776C53.2 18.4987 53.2907 18.2693 53.472 18.088C53.664 17.896 53.8987 17.8 54.176 17.8H57.824ZM57.824 23.176C58.0267 23.176 58.224 23.0907 58.416 22.92C58.608 22.7493 58.768 22.5307 58.896 22.264C59.024 21.9867 59.088 21.6987 59.088 21.4C59.088 21.0907 59.024 20.8027 58.896 20.536C58.768 20.2693 58.608 20.056 58.416 19.896C58.224 19.7253 58.0267 19.64 57.824 19.64H54.848L55.04 19.352V23.432L54.864 23.176H57.824ZM69.2905 20.28C69.5678 20.28 69.7972 20.3707 69.9785 20.552C70.1598 20.7333 70.2505 20.968 70.2505 21.256V28.024C70.2505 28.3013 70.1598 28.536 69.9785 28.728C69.7972 28.9093 69.5678 29 69.2905 29C69.0132 29 68.7838 28.9093 68.6025 28.728C68.4212 28.536 68.3305 28.3013 68.3305 28.024V27.24L68.6825 27.384C68.6825 27.5227 68.6078 27.6933 68.4585 27.896C68.3092 28.088 68.1065 28.28 67.8505 28.472C67.5945 28.664 67.2905 28.8293 66.9385 28.968C66.5972 29.096 66.2238 29.16 65.8185 29.16C65.0825 29.16 64.4158 28.9733 63.8185 28.6C63.2212 28.216 62.7465 27.6933 62.3945 27.032C62.0532 26.36 61.8825 25.592 61.8825 24.728C61.8825 23.8533 62.0532 23.0853 62.3945 22.424C62.7465 21.752 63.2158 21.2293 63.8025 20.856C64.3892 20.472 65.0398 20.28 65.7545 20.28C66.2132 20.28 66.6345 20.3493 67.0185 20.488C67.4025 20.6267 67.7332 20.8027 68.0105 21.016C68.2985 21.2293 68.5172 21.448 68.6665 21.672C68.8265 21.8853 68.9065 22.0667 68.9065 22.216L68.3305 22.424V21.256C68.3305 20.9787 68.4212 20.7493 68.6025 20.568C68.7838 20.376 69.0132 20.28 69.2905 20.28ZM66.0585 27.4C66.5278 27.4 66.9385 27.2827 67.2905 27.048C67.6425 26.8133 67.9145 26.4933 68.1065 26.088C68.3092 25.6827 68.4105 25.2293 68.4105 24.728C68.4105 24.216 68.3092 23.7573 68.1065 23.352C67.9145 22.9467 67.6425 22.6267 67.2905 22.392C66.9385 22.1573 66.5278 22.04 66.0585 22.04C65.5998 22.04 65.1945 22.1573 64.8425 22.392C64.4905 22.6267 64.2132 22.9467 64.0105 23.352C63.8185 23.7573 63.7225 24.216 63.7225 24.728C63.7225 25.2293 63.8185 25.6827 64.0105 26.088C64.2132 26.4933 64.4905 26.8133 64.8425 27.048C65.1945 27.2827 65.5998 27.4 66.0585 27.4ZM78.3614 20.44C78.6387 20.44 78.868 20.536 79.0494 20.728C79.2307 20.9093 79.3214 21.1387 79.3214 21.416V28.216C79.3214 29.1973 79.1347 29.976 78.7614 30.552C78.3987 31.1387 77.908 31.56 77.2894 31.816C76.6707 32.072 75.9774 32.2 75.2094 32.2C74.868 32.2 74.5054 32.1733 74.1214 32.12C73.7374 32.0667 73.4227 31.9867 73.1774 31.88C72.8574 31.7413 72.6334 31.5653 72.5054 31.352C72.388 31.1493 72.3667 30.9307 72.4414 30.696C72.5374 30.3867 72.692 30.1733 72.9054 30.056C73.1187 29.9493 73.3427 29.9387 73.5774 30.024C73.748 30.0773 73.972 30.1573 74.2494 30.264C74.5267 30.3813 74.8467 30.44 75.2094 30.44C75.7 30.44 76.1054 30.3707 76.4254 30.232C76.756 30.104 77.0014 29.88 77.1614 29.56C77.332 29.2507 77.4174 28.824 77.4174 28.28V27.208L77.7534 27.592C77.572 27.944 77.3427 28.2373 77.0654 28.472C76.7987 28.696 76.4787 28.8667 76.1054 28.984C75.732 29.1013 75.3054 29.16 74.8254 29.16C74.26 29.16 73.764 29.032 73.3374 28.776C72.9214 28.5093 72.596 28.1467 72.3614 27.688C72.1267 27.2187 72.0094 26.6853 72.0094 26.088V21.416C72.0094 21.1387 72.1 20.9093 72.2814 20.728C72.4627 20.536 72.692 20.44 72.9694 20.44C73.2467 20.44 73.476 20.536 73.6574 20.728C73.8387 20.9093 73.9294 21.1387 73.9294 21.416V25.512C73.9294 26.2053 74.0787 26.696 74.3774 26.984C74.6867 27.2613 75.1134 27.4 75.6574 27.4C76.0307 27.4 76.3454 27.3307 76.6014 27.192C76.8574 27.0427 77.0547 26.8293 77.1934 26.552C77.332 26.264 77.4014 25.9173 77.4014 25.512V21.416C77.4014 21.1387 77.492 20.9093 77.6734 20.728C77.8547 20.536 78.084 20.44 78.3614 20.44ZM85.576 20.28C86.4293 20.28 87.0587 20.488 87.464 20.904C87.8693 21.3093 88.136 21.8373 88.264 22.488L87.992 22.344L88.12 22.088C88.248 21.8427 88.4453 21.5813 88.712 21.304C88.9787 21.016 89.2987 20.776 89.672 20.584C90.056 20.3813 90.4827 20.28 90.952 20.28C91.72 20.28 92.3013 20.4453 92.696 20.776C93.1013 21.1067 93.3787 21.5493 93.528 22.104C93.6773 22.648 93.752 23.256 93.752 23.928V28.024C93.752 28.3013 93.6613 28.536 93.48 28.728C93.2987 28.9093 93.0693 29 92.792 29C92.5147 29 92.2853 28.9093 92.104 28.728C91.9227 28.536 91.832 28.3013 91.832 28.024V23.928C91.832 23.576 91.7893 23.2613 91.704 22.984C91.6187 22.696 91.464 22.4667 91.24 22.296C91.016 22.1253 90.696 22.04 90.28 22.04C89.8747 22.04 89.528 22.1253 89.24 22.296C88.952 22.4667 88.7333 22.696 88.584 22.984C88.4453 23.2613 88.376 23.576 88.376 23.928V28.024C88.376 28.3013 88.2853 28.536 88.104 28.728C87.9227 28.9093 87.6933 29 87.416 29C87.1387 29 86.9093 28.9093 86.728 28.728C86.5467 28.536 86.456 28.3013 86.456 28.024V23.928C86.456 23.576 86.4133 23.2613 86.328 22.984C86.2427 22.696 86.088 22.4667 85.864 22.296C85.64 22.1253 85.32 22.04 84.904 22.04C84.4987 22.04 84.152 22.1253 83.864 22.296C83.576 22.4667 83.3573 22.696 83.208 22.984C83.0693 23.2613 83 23.576 83 23.928V28.024C83 28.3013 82.9093 28.536 82.728 28.728C82.5467 28.9093 82.3173 29 82.04 29C81.7627 29 81.5333 28.9093 81.352 28.728C81.1707 28.536 81.08 28.3013 81.08 28.024V21.416C81.08 21.1387 81.1707 20.9093 81.352 20.728C81.5333 20.536 81.7627 20.44 82.04 20.44C82.3173 20.44 82.5467 20.536 82.728 20.728C82.9093 20.9093 83 21.1387 83 21.416V22.104L82.76 22.056C82.856 21.8747 82.9893 21.6827 83.16 21.48C83.3307 21.2667 83.5387 21.0693 83.784 20.888C84.0293 20.7067 84.3013 20.5627 84.6 20.456C84.8987 20.3387 85.224 20.28 85.576 20.28ZM99.542 29.16C98.6353 29.16 97.846 28.9733 97.174 28.6C96.5127 28.216 96.0007 27.6987 95.638 27.048C95.286 26.3973 95.11 25.6613 95.11 24.84C95.11 23.88 95.302 23.064 95.686 22.392C96.0807 21.7093 96.5927 21.1867 97.222 20.824C97.8513 20.4613 98.518 20.28 99.222 20.28C99.766 20.28 100.278 20.392 100.758 20.616C101.249 20.84 101.681 21.1493 102.054 21.544C102.427 21.928 102.721 22.376 102.934 22.888C103.158 23.4 103.27 23.944 103.27 24.52C103.259 24.776 103.158 24.984 102.966 25.144C102.774 25.304 102.55 25.384 102.294 25.384H96.182L95.702 23.784H101.574L101.222 24.104V23.672C101.201 23.3627 101.089 23.0853 100.886 22.84C100.694 22.5947 100.449 22.4027 100.15 22.264C99.862 22.1147 99.5527 22.04 99.222 22.04C98.902 22.04 98.6033 22.0827 98.326 22.168C98.0487 22.2533 97.8087 22.3973 97.606 22.6C97.4033 22.8027 97.2433 23.0747 97.126 23.416C97.0087 23.7573 96.95 24.1893 96.95 24.712C96.95 25.288 97.0673 25.7787 97.302 26.184C97.5473 26.5787 97.8567 26.8827 98.23 27.096C98.614 27.2987 99.0193 27.4 99.446 27.4C99.8407 27.4 100.155 27.368 100.39 27.304C100.625 27.24 100.811 27.1653 100.95 27.08C101.099 26.984 101.233 26.904 101.35 26.84C101.542 26.744 101.723 26.696 101.894 26.696C102.129 26.696 102.321 26.776 102.47 26.936C102.63 27.096 102.71 27.2827 102.71 27.496C102.71 27.784 102.561 28.0453 102.262 28.28C101.985 28.5147 101.595 28.7227 101.094 28.904C100.593 29.0747 100.075 29.16 99.542 29.16ZM109.204 20.28C109.993 20.28 110.59 20.4453 110.996 20.776C111.412 21.1067 111.694 21.5493 111.844 22.104C112.004 22.648 112.084 23.256 112.084 23.928V28.024C112.084 28.3013 111.993 28.536 111.812 28.728C111.63 28.9093 111.401 29 111.124 29C110.846 29 110.617 28.9093 110.436 28.728C110.254 28.536 110.164 28.3013 110.164 28.024V23.928C110.164 23.576 110.116 23.2613 110.02 22.984C109.934 22.696 109.774 22.4667 109.54 22.296C109.305 22.1253 108.969 22.04 108.532 22.04C108.105 22.04 107.742 22.1253 107.444 22.296C107.156 22.4667 106.932 22.696 106.772 22.984C106.622 23.2613 106.548 23.576 106.548 23.928V28.024C106.548 28.3013 106.457 28.536 106.276 28.728C106.094 28.9093 105.865 29 105.588 29C105.31 29 105.081 28.9093 104.9 28.728C104.718 28.536 104.628 28.3013 104.628 28.024V21.416C104.628 21.1387 104.718 20.9093 104.9 20.728C105.081 20.536 105.31 20.44 105.588 20.44C105.865 20.44 106.094 20.536 106.276 20.728C106.457 20.9093 106.548 21.1387 106.548 21.416V22.104L106.308 22.056C106.404 21.8747 106.542 21.6827 106.724 21.48C106.905 21.2667 107.118 21.0693 107.364 20.888C107.609 20.7067 107.886 20.5627 108.196 20.456C108.505 20.3387 108.841 20.28 109.204 20.28ZM113.935 20.6H117.727C117.983 20.6 118.196 20.6853 118.367 20.856C118.537 21.0267 118.623 21.24 118.623 21.496C118.623 21.7413 118.537 21.9493 118.367 22.12C118.196 22.28 117.983 22.36 117.727 22.36H113.935C113.679 22.36 113.465 22.2747 113.295 22.104C113.124 21.9333 113.039 21.72 113.039 21.464C113.039 21.2187 113.124 21.016 113.295 20.856C113.465 20.6853 113.679 20.6 113.935 20.6ZM115.647 18.6C115.924 18.6 116.148 18.696 116.319 18.888C116.5 19.0693 116.591 19.2987 116.591 19.576V26.696C116.591 26.8453 116.617 26.968 116.671 27.064C116.735 27.16 116.815 27.2293 116.911 27.272C117.017 27.3147 117.129 27.336 117.247 27.336C117.375 27.336 117.492 27.3147 117.599 27.272C117.705 27.2187 117.828 27.192 117.967 27.192C118.116 27.192 118.249 27.2613 118.367 27.4C118.495 27.5387 118.559 27.7307 118.559 27.976C118.559 28.2747 118.393 28.52 118.063 28.712C117.743 28.904 117.396 29 117.023 29C116.799 29 116.548 28.984 116.271 28.952C116.004 28.9093 115.748 28.8187 115.503 28.68C115.268 28.5307 115.071 28.3067 114.911 28.008C114.751 27.7093 114.671 27.2987 114.671 26.776V19.576C114.671 19.2987 114.761 19.0693 114.943 18.888C115.135 18.696 115.369 18.6 115.647 18.6ZM125.398 17.784C125.547 17.784 125.702 17.8267 125.862 17.912C126.033 17.9867 126.161 18.088 126.246 18.216L130.134 24.2L129.334 24.168L133.318 18.216C133.521 17.928 133.782 17.784 134.102 17.784C134.358 17.784 134.587 17.8747 134.79 18.056C134.993 18.2373 135.094 18.472 135.094 18.76V28.024C135.094 28.3013 135.003 28.536 134.822 28.728C134.641 28.9093 134.401 29 134.102 29C133.803 29 133.558 28.9093 133.366 28.728C133.185 28.536 133.094 28.3013 133.094 28.024V20.488L133.718 20.632L130.454 25.608C130.358 25.7253 130.235 25.8267 130.086 25.912C129.947 25.9973 129.803 26.0347 129.654 26.024C129.515 26.0347 129.371 25.9973 129.222 25.912C129.083 25.8267 128.966 25.7253 128.87 25.608L125.814 20.776L126.23 19.928V28.024C126.23 28.3013 126.145 28.536 125.974 28.728C125.803 28.9093 125.579 29 125.302 29C125.035 29 124.817 28.9093 124.646 28.728C124.475 28.536 124.39 28.3013 124.39 28.024V18.76C124.39 18.4933 124.486 18.264 124.678 18.072C124.881 17.88 125.121 17.784 125.398 17.784ZM141.051 29.16C140.145 29.16 139.355 28.9733 138.683 28.6C138.022 28.216 137.51 27.6987 137.147 27.048C136.795 26.3973 136.619 25.6613 136.619 24.84C136.619 23.88 136.811 23.064 137.195 22.392C137.59 21.7093 138.102 21.1867 138.731 20.824C139.361 20.4613 140.027 20.28 140.731 20.28C141.275 20.28 141.787 20.392 142.267 20.616C142.758 20.84 143.19 21.1493 143.563 21.544C143.937 21.928 144.23 22.376 144.443 22.888C144.667 23.4 144.779 23.944 144.779 24.52C144.769 24.776 144.667 24.984 144.475 25.144C144.283 25.304 144.059 25.384 143.803 25.384H137.691L137.211 23.784H143.083L142.731 24.104V23.672C142.71 23.3627 142.598 23.0853 142.395 22.84C142.203 22.5947 141.958 22.4027 141.659 22.264C141.371 22.1147 141.062 22.04 140.731 22.04C140.411 22.04 140.113 22.0827 139.835 22.168C139.558 22.2533 139.318 22.3973 139.115 22.6C138.913 22.8027 138.753 23.0747 138.635 23.416C138.518 23.7573 138.459 24.1893 138.459 24.712C138.459 25.288 138.577 25.7787 138.811 26.184C139.057 26.5787 139.366 26.8827 139.739 27.096C140.123 27.2987 140.529 27.4 140.955 27.4C141.35 27.4 141.665 27.368 141.899 27.304C142.134 27.24 142.321 27.1653 142.459 27.08C142.609 26.984 142.742 26.904 142.859 26.84C143.051 26.744 143.233 26.696 143.403 26.696C143.638 26.696 143.83 26.776 143.979 26.936C144.139 27.096 144.219 27.2827 144.219 27.496C144.219 27.784 144.07 28.0453 143.771 28.28C143.494 28.5147 143.105 28.7227 142.603 28.904C142.102 29.0747 141.585 29.16 141.051 29.16ZM146.233 20.6H150.025C150.281 20.6 150.494 20.6853 150.665 20.856C150.836 21.0267 150.921 21.24 150.921 21.496C150.921 21.7413 150.836 21.9493 150.665 22.12C150.494 22.28 150.281 22.36 150.025 22.36H146.233C145.977 22.36 145.764 22.2747 145.593 22.104C145.422 21.9333 145.337 21.72 145.337 21.464C145.337 21.2187 145.422 21.016 145.593 20.856C145.764 20.6853 145.977 20.6 146.233 20.6ZM147.945 18.6C148.222 18.6 148.446 18.696 148.617 18.888C148.798 19.0693 148.889 19.2987 148.889 19.576V26.696C148.889 26.8453 148.916 26.968 148.969 27.064C149.033 27.16 149.113 27.2293 149.209 27.272C149.316 27.3147 149.428 27.336 149.545 27.336C149.673 27.336 149.79 27.3147 149.897 27.272C150.004 27.2187 150.126 27.192 150.265 27.192C150.414 27.192 150.548 27.2613 150.665 27.4C150.793 27.5387 150.857 27.7307 150.857 27.976C150.857 28.2747 150.692 28.52 150.361 28.712C150.041 28.904 149.694 29 149.321 29C149.097 29 148.846 28.984 148.569 28.952C148.302 28.9093 148.046 28.8187 147.801 28.68C147.566 28.5307 147.369 28.3067 147.209 28.008C147.049 27.7093 146.969 27.2987 146.969 26.776V19.576C146.969 19.2987 147.06 19.0693 147.241 18.888C147.433 18.696 147.668 18.6 147.945 18.6ZM156.86 20.28C157.628 20.28 158.209 20.4453 158.604 20.776C159.009 21.1067 159.286 21.5493 159.436 22.104C159.585 22.648 159.66 23.256 159.66 23.928V28.024C159.66 28.3013 159.569 28.536 159.388 28.728C159.206 28.9093 158.977 29 158.7 29C158.422 29 158.193 28.9093 158.012 28.728C157.83 28.536 157.74 28.3013 157.74 28.024V23.928C157.74 23.576 157.697 23.2613 157.612 22.984C157.526 22.696 157.372 22.4667 157.148 22.296C156.924 22.1253 156.604 22.04 156.188 22.04C155.782 22.04 155.436 22.1253 155.148 22.296C154.86 22.4667 154.641 22.696 154.492 22.984C154.353 23.2613 154.284 23.576 154.284 23.928V28.024C154.284 28.3013 154.193 28.536 154.012 28.728C153.83 28.9093 153.601 29 153.324 29C153.046 29 152.817 28.9093 152.636 28.728C152.454 28.536 152.364 28.3013 152.364 28.024V18.136C152.364 17.8587 152.454 17.6293 152.636 17.448C152.817 17.256 153.046 17.16 153.324 17.16C153.601 17.16 153.83 17.256 154.012 17.448C154.193 17.6293 154.284 17.8587 154.284 18.136V22.104L154.044 22.056C154.14 21.8747 154.273 21.6827 154.444 21.48C154.614 21.2667 154.822 21.0693 155.068 20.888C155.313 20.7067 155.585 20.5627 155.884 20.456C156.182 20.3387 156.508 20.28 156.86 20.28ZM169.723 24.728C169.723 25.6027 169.525 26.376 169.131 27.048C168.747 27.7093 168.224 28.2267 167.563 28.6C166.912 28.9733 166.181 29.16 165.371 29.16C164.56 29.16 163.824 28.9733 163.163 28.6C162.512 28.2267 161.989 27.7093 161.595 27.048C161.211 26.376 161.019 25.6027 161.019 24.728C161.019 23.8533 161.211 23.0853 161.595 22.424C161.989 21.752 162.512 21.2293 163.163 20.856C163.824 20.472 164.56 20.28 165.371 20.28C166.181 20.28 166.912 20.472 167.563 20.856C168.224 21.2293 168.747 21.752 169.131 22.424C169.525 23.0853 169.723 23.8533 169.723 24.728ZM167.803 24.728C167.803 24.184 167.691 23.7147 167.467 23.32C167.253 22.9147 166.96 22.6 166.587 22.376C166.224 22.152 165.819 22.04 165.371 22.04C164.923 22.04 164.512 22.152 164.139 22.376C163.776 22.6 163.483 22.9147 163.259 23.32C163.045 23.7147 162.939 24.184 162.939 24.728C162.939 25.2613 163.045 25.7307 163.259 26.136C163.483 26.5307 163.776 26.84 164.139 27.064C164.512 27.288 164.923 27.4 165.371 27.4C165.819 27.4 166.224 27.288 166.587 27.064C166.96 26.84 167.253 26.5307 167.467 26.136C167.691 25.7307 167.803 25.2613 167.803 24.728ZM178.091 17.16C178.368 17.16 178.598 17.2507 178.779 17.432C178.96 17.6133 179.051 17.848 179.051 18.136V28.024C179.051 28.3013 178.96 28.536 178.779 28.728C178.598 28.9093 178.368 29 178.091 29C177.814 29 177.584 28.9093 177.403 28.728C177.222 28.536 177.131 28.3013 177.131 28.024V27.24L177.483 27.384C177.483 27.5227 177.408 27.6933 177.259 27.896C177.11 28.088 176.907 28.28 176.651 28.472C176.395 28.664 176.091 28.8293 175.739 28.968C175.398 29.096 175.024 29.16 174.619 29.16C173.883 29.16 173.216 28.9733 172.619 28.6C172.022 28.216 171.547 27.6933 171.195 27.032C170.854 26.36 170.683 25.592 170.683 24.728C170.683 23.8533 170.854 23.0853 171.195 22.424C171.547 21.752 172.016 21.2293 172.603 20.856C173.19 20.472 173.84 20.28 174.555 20.28C175.014 20.28 175.435 20.3493 175.819 20.488C176.203 20.6267 176.534 20.8027 176.811 21.016C177.099 21.2293 177.318 21.448 177.467 21.672C177.627 21.8853 177.707 22.0667 177.707 22.216L177.131 22.424V18.136C177.131 17.8587 177.222 17.6293 177.403 17.448C177.584 17.256 177.814 17.16 178.091 17.16ZM174.859 27.4C175.328 27.4 175.739 27.2827 176.091 27.048C176.443 26.8133 176.715 26.4933 176.907 26.088C177.11 25.6827 177.211 25.2293 177.211 24.728C177.211 24.216 177.11 23.7573 176.907 23.352C176.715 22.9467 176.443 22.6267 176.091 22.392C175.739 22.1573 175.328 22.04 174.859 22.04C174.4 22.04 173.995 22.1573 173.643 22.392C173.291 22.6267 173.014 22.9467 172.811 23.352C172.619 23.7573 172.523 24.216 172.523 24.728C172.523 25.2293 172.619 25.6827 172.811 26.088C173.014 26.4933 173.291 26.8133 173.643 27.048C173.995 27.2827 174.4 27.4 174.859 27.4Z" fill="#23003D"/>
<path d="M275.91 30.42L282.43 23.9C283.2 23.13 283.2 21.87 282.43 21.1L275.91 14.58" stroke="#D58900" stroke-width="2" stroke-miterlimit="10" stroke-linecap="round" stroke-linejoin="round"/>
<defs>
<linearGradient id="paint0_linear_619_9650" x1="148.5" y1="0" x2="148.5" y2="44" gradientUnits="userSpaceOnUse">
<stop stop-color="#FFE384"/>
<stop offset="1" stop-color="#FFCF35"/>
</linearGradient>
</defs>
</svg>
