<svg width="297" height="86" viewBox="0 0 297 86" fill="none" xmlns="http://www.w3.org/2000/svg">
<rect width="297" height="86" rx="20" fill="url(#paint0_linear_619_12858)"/>
<path d="M73.824 26.8C74.3787 26.8 74.896 26.96 75.376 27.28C75.8667 27.6 76.2613 28.032 76.56 28.576C76.8587 29.12 77.008 29.728 77.008 30.4C77.008 31.0613 76.8587 31.664 76.56 32.208C76.2613 32.752 75.8667 33.1893 75.376 33.52C74.896 33.84 74.3787 34 73.824 34H70.88L71.04 33.712V37.024C71.04 37.3013 70.9547 37.536 70.784 37.728C70.6133 37.9093 70.3893 38 70.112 38C69.8453 38 69.6267 37.9093 69.456 37.728C69.2853 37.536 69.2 37.3013 69.2 37.024V27.776C69.2 27.4987 69.2907 27.2693 69.472 27.088C69.664 26.896 69.8987 26.8 70.176 26.8H73.824ZM73.824 32.176C74.0267 32.176 74.224 32.0907 74.416 31.92C74.608 31.7493 74.768 31.5307 74.896 31.264C75.024 30.9867 75.088 30.6987 75.088 30.4C75.088 30.0907 75.024 29.8027 74.896 29.536C74.768 29.2693 74.608 29.056 74.416 28.896C74.224 28.7253 74.0267 28.64 73.824 28.64H70.848L71.04 28.352V32.432L70.864 32.176H73.824ZM85.2905 29.28C85.5678 29.28 85.7972 29.3707 85.9785 29.552C86.1598 29.7333 86.2505 29.968 86.2505 30.256V37.024C86.2505 37.3013 86.1598 37.536 85.9785 37.728C85.7972 37.9093 85.5678 38 85.2905 38C85.0132 38 84.7838 37.9093 84.6025 37.728C84.4212 37.536 84.3305 37.3013 84.3305 37.024V36.24L84.6825 36.384C84.6825 36.5227 84.6078 36.6933 84.4585 36.896C84.3092 37.088 84.1065 37.28 83.8505 37.472C83.5945 37.664 83.2905 37.8293 82.9385 37.968C82.5972 38.096 82.2238 38.16 81.8185 38.16C81.0825 38.16 80.4158 37.9733 79.8185 37.6C79.2212 37.216 78.7465 36.6933 78.3945 36.032C78.0532 35.36 77.8825 34.592 77.8825 33.728C77.8825 32.8533 78.0532 32.0853 78.3945 31.424C78.7465 30.752 79.2158 30.2293 79.8025 29.856C80.3892 29.472 81.0398 29.28 81.7545 29.28C82.2132 29.28 82.6345 29.3493 83.0185 29.488C83.4025 29.6267 83.7332 29.8027 84.0105 30.016C84.2985 30.2293 84.5172 30.448 84.6665 30.672C84.8265 30.8853 84.9065 31.0667 84.9065 31.216L84.3305 31.424V30.256C84.3305 29.9787 84.4212 29.7493 84.6025 29.568C84.7838 29.376 85.0132 29.28 85.2905 29.28ZM82.0585 36.4C82.5278 36.4 82.9385 36.2827 83.2905 36.048C83.6425 35.8133 83.9145 35.4933 84.1065 35.088C84.3092 34.6827 84.4105 34.2293 84.4105 33.728C84.4105 33.216 84.3092 32.7573 84.1065 32.352C83.9145 31.9467 83.6425 31.6267 83.2905 31.392C82.9385 31.1573 82.5278 31.04 82.0585 31.04C81.5998 31.04 81.1945 31.1573 80.8425 31.392C80.4905 31.6267 80.2132 31.9467 80.0105 32.352C79.8185 32.7573 79.7225 33.216 79.7225 33.728C79.7225 34.2293 79.8185 34.6827 80.0105 35.088C80.2132 35.4933 80.4905 35.8133 80.8425 36.048C81.1945 36.2827 81.5998 36.4 82.0585 36.4ZM94.3614 29.44C94.6387 29.44 94.868 29.536 95.0494 29.728C95.2307 29.9093 95.3214 30.1387 95.3214 30.416V37.216C95.3214 38.1973 95.1347 38.976 94.7614 39.552C94.3987 40.1387 93.908 40.56 93.2894 40.816C92.6707 41.072 91.9774 41.2 91.2094 41.2C90.868 41.2 90.5054 41.1733 90.1214 41.12C89.7374 41.0667 89.4227 40.9867 89.1774 40.88C88.8574 40.7413 88.6334 40.5653 88.5054 40.352C88.388 40.1493 88.3667 39.9307 88.4414 39.696C88.5374 39.3867 88.692 39.1733 88.9054 39.056C89.1187 38.9493 89.3427 38.9387 89.5774 39.024C89.748 39.0773 89.972 39.1573 90.2494 39.264C90.5267 39.3813 90.8467 39.44 91.2094 39.44C91.7 39.44 92.1054 39.3707 92.4254 39.232C92.756 39.104 93.0014 38.88 93.1614 38.56C93.332 38.2507 93.4174 37.824 93.4174 37.28V36.208L93.7534 36.592C93.572 36.944 93.3427 37.2373 93.0654 37.472C92.7987 37.696 92.4787 37.8667 92.1054 37.984C91.732 38.1013 91.3054 38.16 90.8254 38.16C90.26 38.16 89.764 38.032 89.3374 37.776C88.9214 37.5093 88.596 37.1467 88.3614 36.688C88.1267 36.2187 88.0094 35.6853 88.0094 35.088V30.416C88.0094 30.1387 88.1 29.9093 88.2814 29.728C88.4627 29.536 88.692 29.44 88.9694 29.44C89.2467 29.44 89.476 29.536 89.6574 29.728C89.8387 29.9093 89.9294 30.1387 89.9294 30.416V34.512C89.9294 35.2053 90.0787 35.696 90.3774 35.984C90.6867 36.2613 91.1134 36.4 91.6574 36.4C92.0307 36.4 92.3454 36.3307 92.6014 36.192C92.8574 36.0427 93.0547 35.8293 93.1934 35.552C93.332 35.264 93.4014 34.9173 93.4014 34.512V30.416C93.4014 30.1387 93.492 29.9093 93.6734 29.728C93.8547 29.536 94.084 29.44 94.3614 29.44ZM101.512 29.28C102.259 29.28 102.925 29.472 103.512 29.856C104.109 30.2293 104.579 30.7467 104.92 31.408C105.272 32.0693 105.448 32.8373 105.448 33.712C105.448 34.5867 105.272 35.36 104.92 36.032C104.579 36.6933 104.115 37.216 103.528 37.6C102.952 37.9733 102.301 38.16 101.576 38.16C101.149 38.16 100.749 38.0907 100.376 37.952C100.003 37.8133 99.672 37.6373 99.384 37.424C99.1067 37.2107 98.888 36.9973 98.728 36.784C98.5787 36.56 98.504 36.3733 98.504 36.224L99 36.016V40.224C99 40.5013 98.9093 40.7307 98.728 40.912C98.5467 41.104 98.3173 41.2 98.04 41.2C97.7627 41.2 97.5333 41.1093 97.352 40.928C97.1707 40.7467 97.08 40.512 97.08 40.224V30.416C97.08 30.1387 97.1707 29.9093 97.352 29.728C97.5333 29.536 97.7627 29.44 98.04 29.44C98.3173 29.44 98.5467 29.536 98.728 29.728C98.9093 29.9093 99 30.1387 99 30.416V31.2L98.728 31.056C98.728 30.9173 98.8027 30.752 98.952 30.56C99.1013 30.3573 99.304 30.16 99.56 29.968C99.816 29.7653 100.109 29.6 100.44 29.472C100.781 29.344 101.139 29.28 101.512 29.28ZM101.272 31.04C100.803 31.04 100.392 31.1573 100.04 31.392C99.688 31.6267 99.4107 31.9467 99.208 32.352C99.016 32.7467 98.92 33.2 98.92 33.712C98.92 34.2133 99.016 34.672 99.208 35.088C99.4107 35.4933 99.688 35.8133 100.04 36.048C100.392 36.2827 100.803 36.4 101.272 36.4C101.741 36.4 102.147 36.2827 102.488 36.048C102.84 35.8133 103.112 35.4933 103.304 35.088C103.507 34.672 103.608 34.2133 103.608 33.712C103.608 33.2 103.507 32.7467 103.304 32.352C103.112 31.9467 102.84 31.6267 102.488 31.392C102.147 31.1573 101.741 31.04 101.272 31.04ZM113.815 29.28C114.092 29.28 114.322 29.3707 114.503 29.552C114.684 29.7333 114.775 29.968 114.775 30.256V37.024C114.775 37.3013 114.684 37.536 114.503 37.728C114.322 37.9093 114.092 38 113.815 38C113.538 38 113.308 37.9093 113.127 37.728C112.946 37.536 112.855 37.3013 112.855 37.024V36.24L113.207 36.384C113.207 36.5227 113.132 36.6933 112.983 36.896C112.834 37.088 112.631 37.28 112.375 37.472C112.119 37.664 111.815 37.8293 111.463 37.968C111.122 38.096 110.748 38.16 110.343 38.16C109.607 38.16 108.94 37.9733 108.343 37.6C107.746 37.216 107.271 36.6933 106.919 36.032C106.578 35.36 106.407 34.592 106.407 33.728C106.407 32.8533 106.578 32.0853 106.919 31.424C107.271 30.752 107.74 30.2293 108.327 29.856C108.914 29.472 109.564 29.28 110.279 29.28C110.738 29.28 111.159 29.3493 111.543 29.488C111.927 29.6267 112.258 29.8027 112.535 30.016C112.823 30.2293 113.042 30.448 113.191 30.672C113.351 30.8853 113.431 31.0667 113.431 31.216L112.855 31.424V30.256C112.855 29.9787 112.946 29.7493 113.127 29.568C113.308 29.376 113.538 29.28 113.815 29.28ZM110.583 36.4C111.052 36.4 111.463 36.2827 111.815 36.048C112.167 35.8133 112.439 35.4933 112.631 35.088C112.834 34.6827 112.935 34.2293 112.935 33.728C112.935 33.216 112.834 32.7573 112.631 32.352C112.439 31.9467 112.167 31.6267 111.815 31.392C111.463 31.1573 111.052 31.04 110.583 31.04C110.124 31.04 109.719 31.1573 109.367 31.392C109.015 31.6267 108.738 31.9467 108.535 32.352C108.343 32.7573 108.247 33.216 108.247 33.728C108.247 34.2293 108.343 34.6827 108.535 35.088C108.738 35.4933 109.015 35.8133 109.367 36.048C109.719 36.2827 110.124 36.4 110.583 36.4ZM118.614 37.024C118.614 37.3013 118.518 37.536 118.326 37.728C118.144 37.9093 117.915 38 117.638 38C117.371 38 117.147 37.9093 116.966 37.728C116.784 37.536 116.694 37.3013 116.694 37.024V27.136C116.694 26.8587 116.784 26.6293 116.966 26.448C117.158 26.256 117.392 26.16 117.67 26.16C117.947 26.16 118.171 26.256 118.342 26.448C118.523 26.6293 118.614 26.8587 118.614 27.136V37.024Z" fill="#23003D"/>
<path d="M267.91 49.92L274.43 43.4C275.2 42.63 275.2 41.37 274.43 40.6L267.91 34.08" stroke="#D58900" stroke-width="2" stroke-miterlimit="10" stroke-linecap="round" stroke-linejoin="round"/>
<path opacity="0.5" d="M75 52.692C75.1587 52.692 75.2893 52.748 75.392 52.86C75.504 52.9627 75.56 53.0933 75.56 53.252V59.426C75.56 59.5847 75.504 59.72 75.392 59.832C75.2893 59.944 75.1587 60 75 60C74.832 60 74.6967 59.944 74.594 59.832C74.4913 59.72 74.44 59.5847 74.44 59.426V58.096L74.706 58.068C74.706 58.2733 74.636 58.4973 74.496 58.74C74.356 58.9827 74.1647 59.2113 73.922 59.426C73.6793 59.6313 73.39 59.804 73.054 59.944C72.7273 60.0747 72.3727 60.14 71.99 60.14C71.3553 60.14 70.786 59.9767 70.282 59.65C69.778 59.314 69.3767 58.8613 69.078 58.292C68.7887 57.7227 68.644 57.074 68.644 56.346C68.644 55.6087 68.7887 54.96 69.078 54.4C69.3767 53.8307 69.778 53.3873 70.282 53.07C70.786 52.7433 71.346 52.58 71.962 52.58C72.3633 52.58 72.7367 52.6453 73.082 52.776C73.4273 52.9067 73.726 53.084 73.978 53.308C74.2393 53.532 74.44 53.7793 74.58 54.05C74.7293 54.3207 74.804 54.5913 74.804 54.862L74.44 54.778V53.252C74.44 53.0933 74.4913 52.9627 74.594 52.86C74.6967 52.748 74.832 52.692 75 52.692ZM72.116 59.104C72.5827 59.104 72.9933 58.9827 73.348 58.74C73.712 58.4973 73.992 58.1707 74.188 57.76C74.3933 57.34 74.496 56.8687 74.496 56.346C74.496 55.8327 74.3933 55.3707 74.188 54.96C73.992 54.54 73.712 54.2133 73.348 53.98C72.9933 53.7373 72.5827 53.616 72.116 53.616C71.6587 53.616 71.248 53.7327 70.884 53.966C70.5293 54.1993 70.2493 54.5213 70.044 54.932C69.8387 55.3427 69.736 55.814 69.736 56.346C69.736 56.8687 69.834 57.34 70.03 57.76C70.2353 58.1707 70.5153 58.4973 70.87 58.74C71.234 58.9827 71.6493 59.104 72.116 59.104ZM77.4715 52.636C77.5835 52.636 77.6909 52.6687 77.7935 52.734C77.8962 52.79 77.9709 52.874 78.0175 52.986L80.3415 58.446L80.1175 58.558L82.4835 53C82.5862 52.748 82.7589 52.6267 83.0015 52.636C83.1415 52.636 83.2629 52.6827 83.3655 52.776C83.4682 52.8693 83.5195 52.986 83.5195 53.126C83.5195 53.182 83.5102 53.238 83.4915 53.294C83.4822 53.3407 83.4682 53.3827 83.4495 53.42L80.7475 59.636C80.6449 59.8693 80.4815 59.9907 80.2575 60C80.1362 60.0093 80.0195 59.986 79.9075 59.93C79.8049 59.8647 79.7302 59.7667 79.6835 59.636L76.9815 53.434C76.9629 53.3967 76.9442 53.3547 76.9255 53.308C76.9162 53.2613 76.9115 53.2053 76.9115 53.14C76.9115 53.0187 76.9582 52.9067 77.0515 52.804C77.1542 52.692 77.2942 52.636 77.4715 52.636ZM90.9688 52.692C91.1274 52.692 91.2581 52.748 91.3607 52.86C91.4728 52.9627 91.5288 53.0933 91.5288 53.252V59.426C91.5288 59.5847 91.4728 59.72 91.3607 59.832C91.2581 59.944 91.1274 60 90.9688 60C90.8008 60 90.6654 59.944 90.5628 59.832C90.4601 59.72 90.4088 59.5847 90.4088 59.426V58.096L90.6748 58.068C90.6748 58.2733 90.6048 58.4973 90.4648 58.74C90.3248 58.9827 90.1334 59.2113 89.8908 59.426C89.6481 59.6313 89.3588 59.804 89.0228 59.944C88.6961 60.0747 88.3414 60.14 87.9588 60.14C87.3241 60.14 86.7548 59.9767 86.2508 59.65C85.7468 59.314 85.3454 58.8613 85.0468 58.292C84.7574 57.7227 84.6128 57.074 84.6128 56.346C84.6128 55.6087 84.7574 54.96 85.0468 54.4C85.3454 53.8307 85.7468 53.3873 86.2508 53.07C86.7548 52.7433 87.3148 52.58 87.9308 52.58C88.3321 52.58 88.7054 52.6453 89.0508 52.776C89.3961 52.9067 89.6948 53.084 89.9468 53.308C90.2081 53.532 90.4088 53.7793 90.5488 54.05C90.6981 54.3207 90.7728 54.5913 90.7728 54.862L90.4088 54.778V53.252C90.4088 53.0933 90.4601 52.9627 90.5628 52.86C90.6654 52.748 90.8008 52.692 90.9688 52.692ZM88.0847 59.104C88.5514 59.104 88.9621 58.9827 89.3168 58.74C89.6808 58.4973 89.9608 58.1707 90.1568 57.76C90.3621 57.34 90.4648 56.8687 90.4648 56.346C90.4648 55.8327 90.3621 55.3707 90.1568 54.96C89.9608 54.54 89.6808 54.2133 89.3168 53.98C88.9621 53.7373 88.5514 53.616 88.0847 53.616C87.6274 53.616 87.2168 53.7327 86.8528 53.966C86.4981 54.1993 86.2181 54.5213 86.0128 54.932C85.8074 55.3427 85.7048 55.814 85.7048 56.346C85.7048 56.8687 85.8028 57.34 85.9988 57.76C86.2041 58.1707 86.4841 58.4973 86.8388 58.74C87.2028 58.9827 87.6181 59.104 88.0847 59.104ZM94.9204 60.476C94.9204 60.952 94.813 61.358 94.5984 61.694C94.393 62.03 94.1317 62.2913 93.8144 62.478C93.497 62.6647 93.1657 62.758 92.8204 62.758C92.6617 62.758 92.5357 62.7067 92.4424 62.604C92.3397 62.5013 92.2884 62.38 92.2884 62.24V62.142C92.2884 62.002 92.335 61.89 92.4284 61.806C92.5217 61.722 92.6384 61.6613 92.7784 61.624C92.993 61.568 93.175 61.4793 93.3244 61.358C93.4737 61.246 93.5904 61.092 93.6744 60.896C93.7584 60.7093 93.8004 60.4853 93.8004 60.224V53.322C93.8004 53.1633 93.8517 53.028 93.9544 52.916C94.0664 52.804 94.2017 52.748 94.3604 52.748C94.5284 52.748 94.6637 52.804 94.7664 52.916C94.869 53.028 94.9204 53.1633 94.9204 53.322V60.476ZM94.3604 51.712C94.127 51.712 93.9544 51.6653 93.8424 51.572C93.7304 51.4787 93.6744 51.334 93.6744 51.138V50.942C93.6744 50.746 93.735 50.6013 93.8564 50.508C93.9777 50.4147 94.1504 50.368 94.3744 50.368C94.5984 50.368 94.7664 50.4147 94.8784 50.508C94.9904 50.6013 95.0464 50.746 95.0464 50.942V51.138C95.0464 51.334 94.9857 51.4787 94.8644 51.572C94.7524 51.6653 94.5844 51.712 94.3604 51.712ZM104.293 56.36C104.293 57.088 104.129 57.7367 103.803 58.306C103.485 58.8753 103.051 59.3233 102.501 59.65C101.959 59.9767 101.348 60.14 100.667 60.14C99.9855 60.14 99.3695 59.9767 98.8188 59.65C98.2681 59.3233 97.8295 58.8753 97.5028 58.306C97.1855 57.7367 97.0268 57.088 97.0268 56.36C97.0268 55.632 97.1855 54.9833 97.5028 54.414C97.8295 53.8447 98.2681 53.3967 98.8188 53.07C99.3695 52.7433 99.9855 52.58 100.667 52.58C101.348 52.58 101.959 52.7433 102.501 53.07C103.051 53.3967 103.485 53.8447 103.803 54.414C104.129 54.9833 104.293 55.632 104.293 56.36ZM103.173 56.36C103.173 55.8187 103.061 55.3427 102.837 54.932C102.622 54.5213 102.323 54.1993 101.941 53.966C101.567 53.7327 101.143 53.616 100.667 53.616C100.191 53.616 99.7615 53.7327 99.3788 53.966C99.0055 54.1993 98.7068 54.5213 98.4828 54.932C98.2588 55.3427 98.1468 55.8187 98.1468 56.36C98.1468 56.892 98.2588 57.3633 98.4828 57.774C98.7068 58.1847 99.0055 58.5113 99.3788 58.754C99.7615 58.9873 100.191 59.104 100.667 59.104C101.143 59.104 101.567 58.9873 101.941 58.754C102.323 58.5113 102.622 58.1847 102.837 57.774C103.061 57.3633 103.173 56.892 103.173 56.36ZM109.477 52.65C110.093 52.65 110.579 52.7853 110.933 53.056C111.297 53.3173 111.554 53.672 111.703 54.12C111.862 54.5587 111.941 55.0487 111.941 55.59V59.426C111.941 59.5847 111.885 59.72 111.773 59.832C111.671 59.944 111.54 60 111.381 60C111.223 60 111.087 59.944 110.975 59.832C110.873 59.72 110.821 59.5847 110.821 59.426V55.59C110.821 55.2353 110.77 54.918 110.667 54.638C110.565 54.3487 110.392 54.12 110.149 53.952C109.916 53.7747 109.594 53.686 109.183 53.686C108.801 53.686 108.451 53.7747 108.133 53.952C107.816 54.12 107.564 54.3487 107.377 54.638C107.191 54.918 107.097 55.2353 107.097 55.59V59.426C107.097 59.5847 107.041 59.72 106.929 59.832C106.827 59.944 106.696 60 106.537 60C106.379 60 106.243 59.944 106.131 59.832C106.029 59.72 105.977 59.5847 105.977 59.426V50.2C105.977 50.0413 106.029 49.9107 106.131 49.808C106.243 49.696 106.379 49.64 106.537 49.64C106.705 49.64 106.841 49.696 106.943 49.808C107.046 49.9107 107.097 50.0413 107.097 50.2V54.386L106.817 54.694C106.864 54.4513 106.967 54.2087 107.125 53.966C107.284 53.714 107.485 53.49 107.727 53.294C107.97 53.098 108.241 52.944 108.539 52.832C108.838 52.7107 109.151 52.65 109.477 52.65ZM117.614 52.58C118.249 52.58 118.748 52.7107 119.112 52.972C119.476 53.2333 119.733 53.5833 119.882 54.022C120.041 54.4607 120.12 54.9507 120.12 55.492V59.426C120.12 59.5847 120.064 59.72 119.952 59.832C119.85 59.944 119.719 60 119.56 60C119.402 60 119.266 59.944 119.154 59.832C119.052 59.72 119 59.5847 119 59.426V55.52C119 55.1653 118.944 54.848 118.832 54.568C118.73 54.2787 118.552 54.05 118.3 53.882C118.058 53.7047 117.722 53.616 117.292 53.616C116.9 53.616 116.541 53.7047 116.214 53.882C115.888 54.05 115.626 54.2787 115.43 54.568C115.234 54.848 115.136 55.1653 115.136 55.52V59.426C115.136 59.5847 115.08 59.72 114.968 59.832C114.866 59.944 114.735 60 114.576 60C114.418 60 114.282 59.944 114.17 59.832C114.068 59.72 114.016 59.5847 114.016 59.426V53.322C114.016 53.1633 114.068 53.0327 114.17 52.93C114.282 52.818 114.418 52.762 114.576 52.762C114.744 52.762 114.88 52.818 114.982 52.93C115.085 53.0327 115.136 53.1633 115.136 53.322V54.316L114.856 54.624C114.903 54.3813 115.01 54.1387 115.178 53.896C115.346 53.644 115.556 53.42 115.808 53.224C116.06 53.028 116.34 52.874 116.648 52.762C116.956 52.6407 117.278 52.58 117.614 52.58ZM121.786 58.852C121.702 58.7307 121.665 58.6047 121.674 58.474C121.684 58.334 121.763 58.2127 121.912 58.11C122.006 58.0447 122.113 58.0167 122.234 58.026C122.365 58.0353 122.482 58.096 122.584 58.208C122.846 58.516 123.144 58.7633 123.48 58.95C123.816 59.1273 124.227 59.216 124.712 59.216C124.936 59.2067 125.16 59.1693 125.384 59.104C125.608 59.0387 125.795 58.9267 125.944 58.768C126.103 58.6 126.182 58.3807 126.182 58.11C126.182 57.8487 126.103 57.6433 125.944 57.494C125.786 57.3353 125.58 57.2093 125.328 57.116C125.076 57.0133 124.801 56.9247 124.502 56.85C124.194 56.766 123.891 56.6727 123.592 56.57C123.294 56.458 123.023 56.3227 122.78 56.164C122.547 55.996 122.356 55.7907 122.206 55.548C122.066 55.296 121.996 54.9927 121.996 54.638C121.996 54.218 122.108 53.854 122.332 53.546C122.566 53.238 122.874 53 123.256 52.832C123.648 52.664 124.073 52.58 124.53 52.58C124.792 52.58 125.062 52.6127 125.342 52.678C125.632 52.734 125.912 52.8367 126.182 52.986C126.453 53.126 126.691 53.322 126.896 53.574C126.98 53.6673 127.027 53.784 127.036 53.924C127.046 54.064 126.985 54.19 126.854 54.302C126.752 54.3767 126.635 54.4093 126.504 54.4C126.383 54.3907 126.28 54.344 126.196 54.26C126 54.0267 125.753 53.8493 125.454 53.728C125.165 53.5973 124.843 53.532 124.488 53.532C124.264 53.532 124.045 53.5647 123.83 53.63C123.616 53.6953 123.434 53.8073 123.284 53.966C123.144 54.1153 123.074 54.3253 123.074 54.596C123.084 54.848 123.168 55.0533 123.326 55.212C123.485 55.3707 123.7 55.5013 123.97 55.604C124.241 55.6973 124.54 55.7907 124.866 55.884C125.165 55.9587 125.45 56.0473 125.72 56.15C126 56.2433 126.252 56.3693 126.476 56.528C126.7 56.6867 126.878 56.892 127.008 57.144C127.139 57.3867 127.204 57.6947 127.204 58.068C127.204 58.4973 127.083 58.8707 126.84 59.188C126.598 59.496 126.276 59.734 125.874 59.902C125.482 60.0607 125.058 60.14 124.6 60.14C124.087 60.14 123.578 60.042 123.074 59.846C122.58 59.65 122.15 59.3187 121.786 58.852ZM131.007 60C130.839 60 130.699 59.944 130.587 59.832C130.475 59.72 130.419 59.5847 130.419 59.426V51.46L130.587 51.656L129.005 52.748C128.912 52.8133 128.804 52.846 128.683 52.846C128.524 52.846 128.389 52.79 128.277 52.678C128.165 52.5567 128.109 52.4213 128.109 52.272C128.109 52.0667 128.207 51.9033 128.403 51.782L130.629 50.312C130.704 50.2653 130.778 50.2327 130.853 50.214C130.928 50.1953 131.002 50.1907 131.077 50.2C131.245 50.2 131.376 50.256 131.469 50.368C131.572 50.4707 131.623 50.6013 131.623 50.76V59.426C131.623 59.5847 131.562 59.72 131.441 59.832C131.329 59.944 131.184 60 131.007 60ZM139.617 58.95C139.766 58.95 139.892 59.0013 139.995 59.104C140.097 59.2067 140.149 59.3327 140.149 59.482C140.149 59.6313 140.097 59.7573 139.995 59.86C139.892 59.9533 139.766 60 139.617 60H134.535C134.367 60 134.227 59.9533 134.115 59.86C134.012 59.7573 133.961 59.622 133.961 59.454C133.961 59.3047 134.017 59.1693 134.129 59.048L137.293 55.59C137.759 55.086 138.109 54.6147 138.343 54.176C138.585 53.728 138.707 53.3313 138.707 52.986C138.707 52.4167 138.534 51.964 138.189 51.628C137.853 51.2827 137.4 51.11 136.831 51.11C136.579 51.11 136.327 51.166 136.075 51.278C135.823 51.3807 135.594 51.5253 135.389 51.712C135.183 51.8893 135.015 52.09 134.885 52.314C134.81 52.4353 134.731 52.5147 134.647 52.552C134.572 52.58 134.493 52.594 134.409 52.594C134.269 52.594 134.143 52.5473 134.031 52.454C133.919 52.3513 133.863 52.2347 133.863 52.104C133.863 52.0013 133.891 51.908 133.947 51.824C134.003 51.7307 134.077 51.628 134.171 51.516C134.367 51.2453 134.609 51.0027 134.899 50.788C135.197 50.564 135.519 50.3867 135.865 50.256C136.219 50.1253 136.565 50.06 136.901 50.06C137.498 50.06 138.016 50.1767 138.455 50.41C138.903 50.6433 139.248 50.9747 139.491 51.404C139.733 51.8333 139.855 52.3373 139.855 52.916C139.855 53.4107 139.705 53.9567 139.407 54.554C139.108 55.1513 138.669 55.758 138.091 56.374L135.641 59.09L135.501 58.95H139.617ZM142.229 58.376C142.285 58.376 142.346 58.39 142.411 58.418C142.486 58.4367 142.565 58.4833 142.649 58.558C142.836 58.726 143.055 58.8613 143.307 58.964C143.559 59.0667 143.848 59.118 144.175 59.118C144.576 59.118 144.945 59.0293 145.281 58.852C145.617 58.6653 145.888 58.404 146.093 58.068C146.308 57.732 146.415 57.3447 146.415 56.906C146.415 56.43 146.308 56.0427 146.093 55.744C145.888 55.436 145.622 55.212 145.295 55.072C144.978 54.9227 144.642 54.848 144.287 54.848C144.156 54.848 144.035 54.8573 143.923 54.876C143.811 54.8947 143.704 54.918 143.601 54.946C143.508 54.974 143.419 54.988 143.335 54.988C143.186 54.988 143.069 54.9367 142.985 54.834C142.901 54.7313 142.859 54.6053 142.859 54.456C142.859 54.372 142.873 54.2973 142.901 54.232C142.938 54.1573 142.994 54.078 143.069 53.994L145.785 51.054L146.009 51.32H142.033C141.884 51.32 141.758 51.2687 141.655 51.166C141.552 51.0633 141.501 50.9373 141.501 50.788C141.501 50.6387 141.552 50.5173 141.655 50.424C141.758 50.3213 141.884 50.27 142.033 50.27H146.597C146.802 50.27 146.952 50.3307 147.045 50.452C147.138 50.564 147.185 50.69 147.185 50.83C147.185 50.914 147.162 50.9933 147.115 51.068C147.078 51.1427 147.026 51.2127 146.961 51.278L144.245 54.232L143.923 53.952C143.97 53.9147 144.077 53.882 144.245 53.854C144.413 53.8167 144.553 53.798 144.665 53.798C145.188 53.798 145.668 53.924 146.107 54.176C146.546 54.428 146.896 54.7827 147.157 55.24C147.418 55.6973 147.549 56.2293 147.549 56.836C147.549 57.508 147.395 58.0913 147.087 58.586C146.779 59.0807 146.354 59.4633 145.813 59.734C145.281 60.0047 144.679 60.14 144.007 60.14C143.634 60.14 143.265 60.084 142.901 59.972C142.546 59.8507 142.238 59.678 141.977 59.454C141.856 59.3887 141.772 59.314 141.725 59.23C141.688 59.146 141.669 59.062 141.669 58.978C141.669 58.838 141.72 58.7027 141.823 58.572C141.935 58.4413 142.07 58.376 142.229 58.376ZM157.774 59.23C157.475 59.23 157.209 59.1693 156.976 59.048C156.742 58.9173 156.565 58.74 156.444 58.516C156.332 58.292 156.299 58.0353 156.346 57.746L156.458 56.892L156.654 57.06C156.486 57.564 156.252 57.9793 155.954 58.306C155.655 58.6233 155.328 58.8567 154.974 59.006C154.628 59.1553 154.278 59.23 153.924 59.23C153.541 59.23 153.191 59.132 152.874 58.936C152.566 58.7307 152.318 58.4553 152.132 58.11C151.945 57.7553 151.852 57.3587 151.852 56.92C151.852 56.4813 151.936 56.0287 152.104 55.562C152.281 55.086 152.519 54.6427 152.818 54.232C153.126 53.8213 153.48 53.49 153.882 53.238C154.292 52.986 154.736 52.86 155.212 52.86C155.725 52.86 156.145 53.0233 156.472 53.35C156.808 53.6767 157.004 54.092 157.06 54.596L156.752 55.366L157.06 53.392C157.078 53.2707 157.13 53.168 157.214 53.084C157.298 52.9907 157.428 52.944 157.606 52.944C157.82 52.944 157.965 52.9953 158.04 53.098C158.114 53.2007 158.133 53.3547 158.096 53.56L157.466 57.536C157.419 57.8533 157.461 58.082 157.592 58.222C157.732 58.362 157.89 58.432 158.068 58.432C158.385 58.432 158.684 58.3153 158.964 58.082C159.244 57.8487 159.486 57.5453 159.692 57.172C159.906 56.7893 160.074 56.36 160.196 55.884C160.317 55.408 160.378 54.932 160.378 54.456C160.378 53.7467 160.21 53.126 159.874 52.594C159.547 52.0527 159.08 51.6327 158.474 51.334C157.867 51.026 157.153 50.872 156.332 50.872C155.398 50.872 154.526 51.012 153.714 51.292C152.911 51.572 152.206 51.9827 151.6 52.524C150.993 53.056 150.517 53.7093 150.172 54.484C149.836 55.2493 149.668 56.1267 149.668 57.116C149.668 57.648 149.752 58.1753 149.92 58.698C150.088 59.2113 150.344 59.6733 150.69 60.084C151.044 60.504 151.497 60.8353 152.048 61.078C152.608 61.33 153.28 61.456 154.064 61.456C154.577 61.456 155.016 61.4187 155.38 61.344C155.744 61.2693 156.066 61.1667 156.346 61.036C156.635 60.9053 156.924 60.77 157.214 60.63C157.316 60.574 157.414 60.56 157.508 60.588C157.601 60.616 157.671 60.6907 157.718 60.812C157.811 61.036 157.708 61.2227 157.41 61.372C157.008 61.568 156.546 61.764 156.024 61.96C155.501 62.1653 154.848 62.268 154.064 62.268C153.121 62.268 152.318 62.1187 151.656 61.82C150.993 61.5307 150.452 61.1387 150.032 60.644C149.621 60.1493 149.318 59.5987 149.122 58.992C148.926 58.376 148.828 57.7507 148.828 57.116C148.828 56.024 149.019 55.044 149.402 54.176C149.794 53.308 150.33 52.566 151.012 51.95C151.702 51.334 152.5 50.8673 153.406 50.55C154.311 50.2233 155.286 50.06 156.332 50.06C157.396 50.06 158.292 50.2607 159.02 50.662C159.748 51.054 160.294 51.586 160.658 52.258C161.031 52.9207 161.218 53.6533 161.218 54.456C161.218 55.0253 161.134 55.5947 160.966 56.164C160.807 56.724 160.574 57.2373 160.266 57.704C159.958 58.1613 159.594 58.53 159.174 58.81C158.754 59.09 158.287 59.23 157.774 59.23ZM154.148 58.334C154.446 58.334 154.736 58.2593 155.016 58.11C155.305 57.9513 155.566 57.746 155.8 57.494C156.033 57.242 156.22 56.9667 156.36 56.668C156.509 56.36 156.593 56.0567 156.612 55.758C156.714 55.31 156.714 54.9367 156.612 54.638C156.518 54.3393 156.35 54.12 156.108 53.98C155.865 53.8307 155.58 53.756 155.254 53.756C154.899 53.756 154.577 53.8587 154.288 54.064C153.998 54.26 153.751 54.5167 153.546 54.834C153.35 55.1513 153.196 55.492 153.084 55.856C152.981 56.22 152.93 56.5653 152.93 56.892C152.93 57.3493 153.046 57.704 153.28 57.956C153.522 58.208 153.812 58.334 154.148 58.334ZM165.918 52.58C166.319 52.58 166.692 52.65 167.038 52.79C167.383 52.9207 167.682 53.0933 167.934 53.308C168.195 53.5227 168.396 53.7467 168.536 53.98C168.685 54.2133 168.76 54.4327 168.76 54.638L168.494 54.47V53.252C168.494 53.0933 168.545 52.9627 168.648 52.86C168.75 52.748 168.886 52.692 169.054 52.692C169.212 52.692 169.343 52.748 169.446 52.86C169.558 52.9627 169.614 53.0933 169.614 53.252V59.384C169.614 60.1493 169.45 60.784 169.124 61.288C168.806 61.792 168.377 62.17 167.836 62.422C167.294 62.674 166.688 62.8 166.016 62.8C165.736 62.8 165.428 62.7627 165.092 62.688C164.756 62.6133 164.457 62.52 164.196 62.408C163.934 62.3053 163.766 62.198 163.692 62.086C163.552 61.9927 163.463 61.8853 163.426 61.764C163.398 61.652 163.421 61.5447 163.496 61.442C163.58 61.3113 163.687 61.246 163.818 61.246C163.958 61.246 164.13 61.288 164.336 61.372C164.42 61.4 164.55 61.4467 164.728 61.512C164.914 61.5773 165.12 61.6333 165.344 61.68C165.577 61.736 165.806 61.764 166.03 61.764C166.823 61.764 167.43 61.554 167.85 61.134C168.279 60.7233 168.494 60.1773 168.494 59.496V58.194L168.648 58.264C168.592 58.5253 168.475 58.768 168.298 58.992C168.13 59.216 167.92 59.4167 167.668 59.594C167.425 59.762 167.154 59.8973 166.856 60C166.557 60.0933 166.254 60.14 165.946 60.14C165.292 60.14 164.704 59.9767 164.182 59.65C163.659 59.3233 163.244 58.8753 162.936 58.306C162.637 57.7367 162.488 57.088 162.488 56.36C162.488 55.6227 162.637 54.9693 162.936 54.4C163.244 53.8307 163.654 53.3873 164.168 53.07C164.69 52.7433 165.274 52.58 165.918 52.58ZM166.058 53.616C165.582 53.616 165.152 53.7373 164.77 53.98C164.396 54.2133 164.102 54.5353 163.888 54.946C163.682 55.3567 163.58 55.828 163.58 56.36C163.58 56.8733 163.682 57.34 163.888 57.76C164.102 58.1707 164.396 58.4973 164.77 58.74C165.152 58.9827 165.582 59.104 166.058 59.104C166.543 59.104 166.972 58.9873 167.346 58.754C167.719 58.5113 168.013 58.1847 168.228 57.774C168.442 57.3633 168.55 56.892 168.55 56.36C168.55 55.8187 168.442 55.3427 168.228 54.932C168.013 54.5213 167.719 54.1993 167.346 53.966C166.972 53.7327 166.543 53.616 166.058 53.616ZM175.142 52.65C175.777 52.65 176.29 52.8133 176.682 53.14C177.084 53.4573 177.35 53.91 177.48 54.498H177.27L177.368 54.246C177.48 53.9847 177.672 53.7327 177.942 53.49C178.213 53.2473 178.526 53.0467 178.88 52.888C179.235 52.7293 179.604 52.65 179.986 52.65C180.602 52.65 181.088 52.7853 181.442 53.056C181.797 53.3173 182.049 53.672 182.198 54.12C182.357 54.5587 182.436 55.0533 182.436 55.604V59.426C182.436 59.5847 182.38 59.72 182.268 59.832C182.166 59.944 182.035 60 181.876 60C181.708 60 181.573 59.944 181.47 59.832C181.368 59.72 181.316 59.5847 181.316 59.426V55.632C181.316 55.268 181.26 54.9413 181.148 54.652C181.046 54.3533 180.873 54.12 180.63 53.952C180.397 53.7747 180.075 53.686 179.664 53.686C179.282 53.686 178.932 53.7747 178.614 53.952C178.297 54.12 178.045 54.3533 177.858 54.652C177.672 54.9413 177.578 55.268 177.578 55.632V59.426C177.578 59.5847 177.527 59.72 177.424 59.832C177.322 59.944 177.186 60 177.018 60C176.86 60 176.724 59.944 176.612 59.832C176.51 59.72 176.458 59.5847 176.458 59.426V55.59C176.458 55.2353 176.407 54.918 176.304 54.638C176.211 54.3487 176.048 54.12 175.814 53.952C175.581 53.7747 175.259 53.686 174.848 53.686C174.475 53.686 174.134 53.7747 173.826 53.952C173.518 54.12 173.271 54.3487 173.084 54.638C172.898 54.918 172.804 55.2353 172.804 55.59V59.426C172.804 59.5847 172.748 59.72 172.636 59.832C172.534 59.944 172.403 60 172.244 60C172.086 60 171.95 59.944 171.838 59.832C171.736 59.72 171.684 59.5847 171.684 59.426V53.322C171.684 53.1633 171.736 53.0327 171.838 52.93C171.95 52.818 172.086 52.762 172.244 52.762C172.412 52.762 172.548 52.818 172.65 52.93C172.753 53.0327 172.804 53.1633 172.804 53.322V54.386L172.496 54.722C172.534 54.4793 172.627 54.2367 172.776 53.994C172.935 53.7513 173.136 53.5273 173.378 53.322C173.621 53.1167 173.892 52.9533 174.19 52.832C174.489 52.7107 174.806 52.65 175.142 52.65ZM190.473 52.692C190.631 52.692 190.762 52.748 190.865 52.86C190.977 52.9627 191.033 53.0933 191.033 53.252V59.426C191.033 59.5847 190.977 59.72 190.865 59.832C190.762 59.944 190.631 60 190.473 60C190.305 60 190.169 59.944 190.067 59.832C189.964 59.72 189.913 59.5847 189.913 59.426V58.096L190.179 58.068C190.179 58.2733 190.109 58.4973 189.969 58.74C189.829 58.9827 189.637 59.2113 189.395 59.426C189.152 59.6313 188.863 59.804 188.527 59.944C188.2 60.0747 187.845 60.14 187.463 60.14C186.828 60.14 186.259 59.9767 185.755 59.65C185.251 59.314 184.849 58.8613 184.551 58.292C184.261 57.7227 184.117 57.074 184.117 56.346C184.117 55.6087 184.261 54.96 184.551 54.4C184.849 53.8307 185.251 53.3873 185.755 53.07C186.259 52.7433 186.819 52.58 187.435 52.58C187.836 52.58 188.209 52.6453 188.555 52.776C188.9 52.9067 189.199 53.084 189.451 53.308C189.712 53.532 189.913 53.7793 190.053 54.05C190.202 54.3207 190.277 54.5913 190.277 54.862L189.913 54.778V53.252C189.913 53.0933 189.964 52.9627 190.067 52.86C190.169 52.748 190.305 52.692 190.473 52.692ZM187.589 59.104C188.055 59.104 188.466 58.9827 188.821 58.74C189.185 58.4973 189.465 58.1707 189.661 57.76C189.866 57.34 189.969 56.8687 189.969 56.346C189.969 55.8327 189.866 55.3707 189.661 54.96C189.465 54.54 189.185 54.2133 188.821 53.98C188.466 53.7373 188.055 53.616 187.589 53.616C187.131 53.616 186.721 53.7327 186.357 53.966C186.002 54.1993 185.722 54.5213 185.517 54.932C185.311 55.3427 185.209 55.814 185.209 56.346C185.209 56.8687 185.307 57.34 185.503 57.76C185.708 58.1707 185.988 58.4973 186.343 58.74C186.707 58.9827 187.122 59.104 187.589 59.104ZM194.186 59.426C194.186 59.5847 194.13 59.72 194.018 59.832C193.916 59.944 193.785 60 193.626 60C193.458 60 193.323 59.944 193.22 59.832C193.118 59.72 193.066 59.5847 193.066 59.426V53.21C193.066 53.0513 193.118 52.9207 193.22 52.818C193.332 52.706 193.468 52.65 193.626 52.65C193.785 52.65 193.916 52.706 194.018 52.818C194.13 52.9207 194.186 53.0513 194.186 53.21V59.426ZM193.626 51.712C193.393 51.712 193.22 51.6653 193.108 51.572C192.996 51.4787 192.94 51.334 192.94 51.138V50.942C192.94 50.746 193.001 50.6013 193.122 50.508C193.244 50.4147 193.416 50.368 193.64 50.368C193.864 50.368 194.032 50.4147 194.144 50.508C194.256 50.6013 194.312 50.746 194.312 50.942V51.138C194.312 51.334 194.252 51.4787 194.13 51.572C194.018 51.6653 193.85 51.712 193.626 51.712ZM197.43 59.426C197.43 59.5847 197.374 59.72 197.262 59.832C197.15 59.944 197.015 60 196.856 60C196.697 60 196.567 59.944 196.464 59.832C196.361 59.72 196.31 59.5847 196.31 59.426V50.2C196.31 50.0413 196.361 49.9107 196.464 49.808C196.576 49.696 196.711 49.64 196.87 49.64C197.038 49.64 197.173 49.696 197.276 49.808C197.379 49.9107 197.43 50.0413 197.43 50.2V59.426ZM199.938 59.986C199.742 59.986 199.588 59.93 199.476 59.818C199.374 59.706 199.322 59.552 199.322 59.356V59.076C199.322 58.8707 199.374 58.712 199.476 58.6C199.588 58.488 199.742 58.432 199.938 58.432H200.05C200.256 58.432 200.41 58.488 200.512 58.6C200.615 58.712 200.666 58.8707 200.666 59.076V59.356C200.666 59.552 200.615 59.706 200.512 59.818C200.41 59.93 200.256 59.986 200.05 59.986H199.938ZM205.68 52.58C206.156 52.58 206.585 52.6313 206.968 52.734C207.35 52.8367 207.654 52.9767 207.878 53.154C208.102 53.3313 208.214 53.532 208.214 53.756C208.214 53.8773 208.172 53.994 208.088 54.106C208.004 54.218 207.892 54.274 207.752 54.274C207.621 54.274 207.514 54.2507 207.43 54.204C207.355 54.1573 207.28 54.0967 207.206 54.022C207.14 53.9473 207.047 53.882 206.926 53.826C206.814 53.7607 206.65 53.7093 206.436 53.672C206.221 53.6347 206.006 53.616 205.792 53.616C205.278 53.616 204.826 53.7373 204.434 53.98C204.051 54.2227 203.748 54.5493 203.524 54.96C203.3 55.3707 203.188 55.8373 203.188 56.36C203.188 56.8827 203.295 57.3493 203.51 57.76C203.724 58.1707 204.023 58.4973 204.406 58.74C204.788 58.9827 205.232 59.104 205.736 59.104C206.062 59.104 206.324 59.076 206.52 59.02C206.716 58.964 206.879 58.8987 207.01 58.824C207.178 58.7307 207.304 58.6373 207.388 58.544C207.481 58.4507 207.602 58.404 207.752 58.404C207.91 58.404 208.032 58.4553 208.116 58.558C208.209 58.6607 208.256 58.7867 208.256 58.936C208.256 59.104 208.139 59.2813 207.906 59.468C207.672 59.6547 207.355 59.8133 206.954 59.944C206.562 60.0747 206.114 60.14 205.61 60.14C204.9 60.14 204.28 59.9767 203.748 59.65C203.216 59.314 202.8 58.8613 202.502 58.292C202.212 57.7133 202.068 57.0693 202.068 56.36C202.068 55.6507 202.217 55.0113 202.516 54.442C202.824 53.8727 203.248 53.42 203.79 53.084C204.331 52.748 204.961 52.58 205.68 52.58ZM216.594 56.36C216.594 57.088 216.43 57.7367 216.104 58.306C215.786 58.8753 215.352 59.3233 214.802 59.65C214.26 59.9767 213.649 60.14 212.968 60.14C212.286 60.14 211.67 59.9767 211.12 59.65C210.569 59.3233 210.13 58.8753 209.804 58.306C209.486 57.7367 209.328 57.088 209.328 56.36C209.328 55.632 209.486 54.9833 209.804 54.414C210.13 53.8447 210.569 53.3967 211.12 53.07C211.67 52.7433 212.286 52.58 212.968 52.58C213.649 52.58 214.26 52.7433 214.802 53.07C215.352 53.3967 215.786 53.8447 216.104 54.414C216.43 54.9833 216.594 55.632 216.594 56.36ZM215.474 56.36C215.474 55.8187 215.362 55.3427 215.138 54.932C214.923 54.5213 214.624 54.1993 214.242 53.966C213.868 53.7327 213.444 53.616 212.968 53.616C212.492 53.616 212.062 53.7327 211.68 53.966C211.306 54.1993 211.008 54.5213 210.784 54.932C210.56 55.3427 210.448 55.8187 210.448 56.36C210.448 56.892 210.56 57.3633 210.784 57.774C211.008 58.1847 211.306 58.5113 211.68 58.754C212.062 58.9873 212.492 59.104 212.968 59.104C213.444 59.104 213.868 58.9873 214.242 58.754C214.624 58.5113 214.923 58.1847 215.138 57.774C215.362 57.3633 215.474 56.892 215.474 56.36ZM221.736 52.65C222.371 52.65 222.884 52.8133 223.276 53.14C223.678 53.4573 223.944 53.91 224.074 54.498H223.864L223.962 54.246C224.074 53.9847 224.266 53.7327 224.536 53.49C224.807 53.2473 225.12 53.0467 225.474 52.888C225.829 52.7293 226.198 52.65 226.58 52.65C227.196 52.65 227.682 52.7853 228.036 53.056C228.391 53.3173 228.643 53.672 228.792 54.12C228.951 54.5587 229.03 55.0533 229.03 55.604V59.426C229.03 59.5847 228.974 59.72 228.862 59.832C228.76 59.944 228.629 60 228.47 60C228.302 60 228.167 59.944 228.064 59.832C227.962 59.72 227.91 59.5847 227.91 59.426V55.632C227.91 55.268 227.854 54.9413 227.742 54.652C227.64 54.3533 227.467 54.12 227.224 53.952C226.991 53.7747 226.669 53.686 226.258 53.686C225.876 53.686 225.526 53.7747 225.208 53.952C224.891 54.12 224.639 54.3533 224.452 54.652C224.266 54.9413 224.172 55.268 224.172 55.632V59.426C224.172 59.5847 224.121 59.72 224.018 59.832C223.916 59.944 223.78 60 223.612 60C223.454 60 223.318 59.944 223.206 59.832C223.104 59.72 223.052 59.5847 223.052 59.426V55.59C223.052 55.2353 223.001 54.918 222.898 54.638C222.805 54.3487 222.642 54.12 222.408 53.952C222.175 53.7747 221.853 53.686 221.442 53.686C221.069 53.686 220.728 53.7747 220.42 53.952C220.112 54.12 219.865 54.3487 219.678 54.638C219.492 54.918 219.398 55.2353 219.398 55.59V59.426C219.398 59.5847 219.342 59.72 219.23 59.832C219.128 59.944 218.997 60 218.838 60C218.68 60 218.544 59.944 218.432 59.832C218.33 59.72 218.278 59.5847 218.278 59.426V53.322C218.278 53.1633 218.33 53.0327 218.432 52.93C218.544 52.818 218.68 52.762 218.838 52.762C219.006 52.762 219.142 52.818 219.244 52.93C219.347 53.0327 219.398 53.1633 219.398 53.322V54.386L219.09 54.722C219.128 54.4793 219.221 54.2367 219.37 53.994C219.529 53.7513 219.73 53.5273 219.972 53.322C220.215 53.1167 220.486 52.9533 220.784 52.832C221.083 52.7107 221.4 52.65 221.736 52.65Z" fill="#2A2F33"/>
<g clip-path="url(#clip0_619_12858)">
<path d="M46.9671 36.0091C47.0196 35.5826 47.047 35.1483 47.047 34.7076C47.047 31.0031 44.044 28 40.3395 28H29.1297C28.4246 28 27.8226 28.5092 27.7056 29.2045L23.5751 53.7548C23.4268 54.6357 24.1059 55.4385 24.9992 55.4385H29.0989C29.804 55.4385 30.4173 54.9297 30.5343 54.2343C30.5343 54.2343 30.5411 54.1935 30.5535 54.1202H30.5535L29.9822 57.516C29.8517 58.2924 30.4502 59 31.2375 59H34.8241C35.4456 59 35.9762 58.5512 36.0793 57.9383L37.0982 51.8824C37.2739 50.8385 38.1776 50.0741 39.2362 50.0741H40.1784C45.2964 50.0741 49.4454 45.9251 49.4454 40.8071C49.4454 38.8267 48.4664 37.0761 46.9671 36.0091Z" fill="#D58900"/>
<path d="M46.9672 36.0092C46.3257 41.227 41.8786 45.2674 36.4873 45.2674H33.3592C32.6532 45.2674 32.0434 45.7376 31.8521 46.4026L29.9823 57.5159C29.8517 58.2923 30.4502 59 31.2375 59H34.8241C35.4456 59 35.9763 58.5512 36.0793 57.9383L37.0983 51.8824C37.2739 50.8385 38.1777 50.0741 39.2362 50.0741H40.1785C45.2965 50.0741 49.4454 45.9251 49.4454 40.8071C49.4454 38.8267 48.4665 37.0761 46.9672 36.0092Z" fill="#F3C52D"/>
<path d="M33.3592 45.2673H36.4873C41.8786 45.2673 46.3258 41.227 46.9672 36.0092C46.0052 35.3246 44.8296 34.9207 43.559 34.9207H35.3942C34.4646 34.9207 33.6709 35.5919 33.5167 36.5086L31.8521 46.4025C32.0433 45.7375 32.6531 45.2673 33.3592 45.2673Z" fill="#9F6702"/>
</g>
<defs>
<linearGradient id="paint0_linear_619_12858" x1="148.5" y1="0" x2="148.5" y2="86" gradientUnits="userSpaceOnUse">
<stop stop-color="#FFE384"/>
<stop offset="1" stop-color="#FFCF35"/>
</linearGradient>
<clipPath id="clip0_619_12858">
<rect width="31" height="31" fill="white" transform="translate(21 28)"/>
</clipPath>
</defs>
</svg>
