<svg width="264" height="56" viewBox="0 0 264 56" fill="none" xmlns="http://www.w3.org/2000/svg">
<rect width="264" height="56" rx="28" fill="url(#paint0_linear_630_2162)"/>
<path d="M17 17.7108C18.1371 11.7895 22.15 9.5609 25.4862 9" stroke="white" stroke-width="3" stroke-linecap="round"/>
<path d="M68.9532 18.2C69.7852 18.2 70.5612 18.44 71.2812 18.92C72.0172 19.4 72.6092 20.048 73.0572 20.864C73.5052 21.68 73.7292 22.592 73.7292 23.6C73.7292 24.592 73.5052 25.496 73.0572 26.312C72.6092 27.128 72.0172 27.784 71.2812 28.28C70.5612 28.76 69.7852 29 68.9532 29L64.5372 29L64.7772 28.568L64.7772 33.536C64.7772 33.952 64.6492 34.304 64.3932 34.592C64.1372 34.864 63.8012 35 63.3852 35C62.9852 35 62.6572 34.864 62.4012 34.592C62.1452 34.304 62.0172 33.952 62.0172 33.536L62.0172 19.664C62.0172 19.248 62.1532 18.904 62.4252 18.632C62.7132 18.344 63.0652 18.2 63.4812 18.2L68.9532 18.2ZM68.9532 26.264C69.2572 26.264 69.5532 26.136 69.8412 25.88C70.1292 25.624 70.3692 25.296 70.5612 24.896C70.7532 24.48 70.8492 24.048 70.8492 23.6C70.8492 23.136 70.7532 22.704 70.5612 22.304C70.3692 21.904 70.1292 21.584 69.8412 21.344C69.5532 21.088 69.2572 20.96 68.9532 20.96L64.4892 20.96L64.7772 20.528L64.7772 26.648L64.5132 26.264L68.9532 26.264ZM86.9421 32.192C87.3581 32.192 87.7021 32.328 87.9741 32.6C88.2621 32.856 88.4061 33.192 88.4061 33.608C88.4061 34.008 88.2621 34.344 87.9741 34.616C87.7021 34.872 87.3581 35 86.9421 35L79.1421 35C78.7261 35 78.3741 34.864 78.0861 34.592C77.8141 34.304 77.6781 33.952 77.6781 33.536L77.6781 19.664C77.6781 19.248 77.8221 18.904 78.1101 18.632C78.3981 18.344 78.7661 18.2 79.2141 18.2C79.5981 18.2 79.9341 18.344 80.2221 18.632C80.5261 18.904 80.6781 19.248 80.6781 19.664L80.6781 32.6L80.1501 32.192L86.9421 32.192ZM98.5227 21.968L93.3387 34.16C93.2267 34.464 93.0507 34.704 92.8107 34.88C92.5867 35.04 92.3387 35.12 92.0667 35.12C91.6347 35.12 91.3147 35 91.1067 34.76C90.8987 34.52 90.7947 34.224 90.7947 33.872C90.7947 33.728 90.8187 33.576 90.8667 33.416L96.8427 19.064C96.9707 18.744 97.1627 18.496 97.4187 18.32C97.6907 18.144 97.9787 18.072 98.2827 18.104C98.5707 18.104 98.8347 18.192 99.0747 18.368C99.3307 18.528 99.5147 18.76 99.6267 19.064L105.531 33.128C105.611 33.336 105.651 33.528 105.651 33.704C105.651 34.136 105.507 34.48 105.219 34.736C104.947 34.992 104.643 35.12 104.307 35.12C104.019 35.12 103.755 35.032 103.515 34.856C103.291 34.68 103.115 34.44 102.987 34.136L97.8267 22.112L98.5227 21.968ZM94.0827 31.232L95.4027 28.472L101.883 28.472L102.339 31.232L94.0827 31.232ZM118.556 18.128C118.924 18.128 119.252 18.272 119.54 18.56C119.844 18.832 119.996 19.184 119.996 19.616C119.996 19.76 119.972 19.912 119.924 20.072C119.892 20.216 119.828 20.36 119.732 20.504L114.284 28.304L114.716 26.648L114.716 33.536C114.716 33.952 114.572 34.304 114.284 34.592C114.012 34.864 113.692 35 113.324 35C112.924 35 112.58 34.864 112.292 34.592C112.02 34.304 111.884 33.952 111.884 33.536L111.884 26.84L112.076 27.608L106.892 20.72C106.732 20.512 106.62 20.312 106.556 20.12C106.492 19.928 106.46 19.752 106.46 19.592C106.46 19.16 106.628 18.808 106.964 18.536C107.3 18.264 107.644 18.128 107.996 18.128C108.444 18.128 108.836 18.352 109.172 18.8L113.78 25.16L113.108 25.064L117.356 18.848C117.692 18.368 118.092 18.128 118.556 18.128ZM137.443 21.968L132.259 34.16C132.147 34.464 131.971 34.704 131.731 34.88C131.507 35.04 131.259 35.12 130.987 35.12C130.555 35.12 130.235 35 130.027 34.76C129.819 34.52 129.715 34.224 129.715 33.872C129.715 33.728 129.739 33.576 129.787 33.416L135.763 19.064C135.891 18.744 136.083 18.496 136.339 18.32C136.611 18.144 136.899 18.072 137.203 18.104C137.491 18.104 137.755 18.192 137.995 18.368C138.251 18.528 138.435 18.76 138.547 19.064L144.451 33.128C144.531 33.336 144.571 33.528 144.571 33.704C144.571 34.136 144.427 34.48 144.139 34.736C143.867 34.992 143.563 35.12 143.227 35.12C142.939 35.12 142.675 35.032 142.435 34.856C142.211 34.68 142.035 34.44 141.907 34.136L136.747 22.112L137.443 21.968ZM133.003 31.232L134.323 28.472L140.803 28.472L141.259 31.232L133.003 31.232ZM155.606 35.24C154.39 35.24 153.254 35.016 152.198 34.568C151.142 34.12 150.214 33.504 149.414 32.72C148.614 31.92 147.982 31 147.518 29.96C147.07 28.92 146.846 27.8 146.846 26.6C146.846 25.4 147.07 24.28 147.518 23.24C147.982 22.2 148.614 21.288 149.414 20.504C150.214 19.704 151.142 19.08 152.198 18.632C153.254 18.184 154.39 17.96 155.606 17.96C156.358 17.96 157.086 18.04 157.79 18.2C158.494 18.36 159.142 18.6 159.734 18.92C159.974 19.048 160.15 19.224 160.262 19.448C160.39 19.656 160.454 19.872 160.454 20.096C160.454 20.48 160.326 20.824 160.07 21.128C159.814 21.432 159.486 21.584 159.086 21.584C158.958 21.584 158.822 21.568 158.678 21.536C158.55 21.504 158.422 21.456 158.294 21.392C157.894 21.216 157.47 21.08 157.022 20.984C156.574 20.888 156.102 20.84 155.606 20.84C154.566 20.84 153.614 21.104 152.75 21.632C151.902 22.144 151.222 22.84 150.71 23.72C150.214 24.584 149.966 25.544 149.966 26.6C149.966 27.64 150.214 28.6 150.71 29.48C151.222 30.36 151.902 31.064 152.75 31.592C153.614 32.104 154.566 32.36 155.606 32.36C156.086 32.36 156.614 32.312 157.19 32.216C157.766 32.12 158.238 31.992 158.606 31.832L158.39 32.552L158.39 28.448L158.798 28.808L156.134 28.808C155.718 28.808 155.366 28.672 155.078 28.4C154.806 28.128 154.67 27.784 154.67 27.368C154.67 26.952 154.806 26.608 155.078 26.336C155.366 26.064 155.718 25.928 156.134 25.928L160.07 25.928C160.486 25.928 160.83 26.072 161.102 26.36C161.374 26.632 161.51 26.976 161.51 27.392L161.51 32.48C161.51 32.8 161.43 33.064 161.27 33.272C161.126 33.48 160.958 33.648 160.766 33.776C160.03 34.224 159.222 34.584 158.342 34.856C157.478 35.112 156.566 35.24 155.606 35.24ZM171.765 21.968L166.581 34.16C166.469 34.464 166.293 34.704 166.053 34.88C165.829 35.04 165.581 35.12 165.309 35.12C164.877 35.12 164.557 35 164.349 34.76C164.141 34.52 164.037 34.224 164.037 33.872C164.037 33.728 164.061 33.576 164.109 33.416L170.085 19.064C170.213 18.744 170.405 18.496 170.661 18.32C170.933 18.144 171.221 18.072 171.525 18.104C171.813 18.104 172.077 18.192 172.317 18.368C172.573 18.528 172.757 18.76 172.869 19.064L178.773 33.128C178.853 33.336 178.893 33.528 178.893 33.704C178.893 34.136 178.749 34.48 178.461 34.736C178.189 34.992 177.885 35.12 177.549 35.12C177.261 35.12 176.997 35.032 176.757 34.856C176.533 34.68 176.357 34.44 176.229 34.136L171.069 22.112L171.765 21.968ZM167.325 31.232L168.645 28.472L175.125 28.472L175.581 31.232L167.325 31.232ZM185.125 33.536C185.125 33.952 184.973 34.304 184.669 34.592C184.365 34.864 184.013 35 183.613 35C183.165 35 182.805 34.864 182.533 34.592C182.261 34.304 182.125 33.952 182.125 33.536L182.125 19.664C182.125 19.248 182.269 18.904 182.557 18.632C182.845 18.344 183.213 18.2 183.661 18.2C184.045 18.2 184.381 18.344 184.669 18.632C184.973 18.904 185.125 19.248 185.125 19.664L185.125 33.536ZM202.678 18.2C203.062 18.2 203.374 18.328 203.614 18.584C203.854 18.84 203.974 19.16 203.974 19.544L203.974 33.536C203.974 33.952 203.83 34.304 203.542 34.592C203.27 34.864 202.926 35 202.51 35C202.302 35 202.086 34.968 201.862 34.904C201.654 34.824 201.494 34.72 201.382 34.592L191.95 22.616L192.574 22.232L192.574 33.656C192.574 34.04 192.446 34.36 192.19 34.616C191.95 34.872 191.63 35 191.23 35C190.846 35 190.534 34.872 190.294 34.616C190.054 34.36 189.934 34.04 189.934 33.656L189.934 19.664C189.934 19.248 190.07 18.904 190.342 18.632C190.63 18.344 190.982 18.2 191.398 18.2C191.622 18.2 191.854 18.248 192.094 18.344C192.334 18.424 192.51 18.552 192.622 18.728L201.766 30.392L201.358 30.68L201.358 19.544C201.358 19.16 201.478 18.84 201.718 18.584C201.958 18.328 202.278 18.2 202.678 18.2Z" fill="#23003D"/>
<defs>
<linearGradient id="paint0_linear_630_2162" x1="132" y1="0" x2="132" y2="56" gradientUnits="userSpaceOnUse">
<stop stop-color="#FFE486"/>
<stop offset="0.515625" stop-color="#FFCC4E"/>
<stop offset="1" stop-color="#FFD02B"/>
<stop offset="1" stop-color="#D2A61B"/>
</linearGradient>
</defs>
</svg>
