<svg width="308" height="44" viewBox="0 0 308 44" fill="none" xmlns="http://www.w3.org/2000/svg">
<rect width="308" height="44" rx="22" fill="#3C0B76"/>
<path d="M198.208 28C197.909 28 197.664 27.9093 197.472 27.728C197.291 27.536 197.2 27.3013 197.2 27.024V17.776C197.2 17.4987 197.291 17.2693 197.472 17.088C197.664 16.896 197.899 16.8 198.176 16.8H203.376C203.653 16.8 203.883 16.8907 204.064 17.072C204.256 17.2427 204.352 17.4667 204.352 17.744C204.352 17.9787 204.256 18.1867 204.064 18.368C203.883 18.5493 203.653 18.64 203.376 18.64H199.056L199.2 18.448V21.664L199.088 21.456H202.656C202.933 21.456 203.163 21.5467 203.344 21.728C203.536 21.8987 203.632 22.1227 203.632 22.4C203.632 22.6347 203.536 22.8427 203.344 23.024C203.163 23.2053 202.933 23.296 202.656 23.296H199.056L199.2 23.152V27.024C199.2 27.3013 199.099 27.536 198.896 27.728C198.704 27.9093 198.475 28 198.208 28ZM206.524 28C206.246 28 206.017 27.9093 205.836 27.728C205.654 27.536 205.564 27.3013 205.564 27.024V20.416C205.564 20.1387 205.654 19.9093 205.836 19.728C206.017 19.536 206.246 19.44 206.524 19.44C206.801 19.44 207.03 19.536 207.212 19.728C207.393 19.9093 207.484 20.1387 207.484 20.416V21.92L207.372 20.848C207.489 20.592 207.638 20.368 207.82 20.176C208.012 19.9733 208.225 19.808 208.46 19.68C208.694 19.5413 208.945 19.44 209.212 19.376C209.478 19.312 209.745 19.28 210.012 19.28C210.332 19.28 210.598 19.3707 210.812 19.552C211.036 19.7333 211.148 19.9467 211.148 20.192C211.148 20.544 211.057 20.8 210.876 20.96C210.694 21.1093 210.497 21.184 210.284 21.184C210.081 21.184 209.894 21.1467 209.724 21.072C209.564 20.9973 209.377 20.96 209.164 20.96C208.972 20.96 208.774 21.008 208.572 21.104C208.38 21.1893 208.198 21.328 208.028 21.52C207.868 21.712 207.734 21.952 207.628 22.24C207.532 22.5173 207.484 22.848 207.484 23.232V27.024C207.484 27.3013 207.393 27.536 207.212 27.728C207.03 27.9093 206.801 28 206.524 28ZM215.854 28.16C214.947 28.16 214.158 27.9733 213.486 27.6C212.825 27.216 212.313 26.6987 211.95 26.048C211.598 25.3973 211.422 24.6613 211.422 23.84C211.422 22.88 211.614 22.064 211.998 21.392C212.393 20.7093 212.905 20.1867 213.534 19.824C214.163 19.4613 214.83 19.28 215.534 19.28C216.078 19.28 216.59 19.392 217.07 19.616C217.561 19.84 217.993 20.1493 218.366 20.544C218.739 20.928 219.033 21.376 219.246 21.888C219.47 22.4 219.582 22.944 219.582 23.52C219.571 23.776 219.47 23.984 219.278 24.144C219.086 24.304 218.862 24.384 218.606 24.384H212.494L212.014 22.784H217.886L217.534 23.104V22.672C217.513 22.3627 217.401 22.0853 217.198 21.84C217.006 21.5947 216.761 21.4027 216.462 21.264C216.174 21.1147 215.865 21.04 215.534 21.04C215.214 21.04 214.915 21.0827 214.638 21.168C214.361 21.2533 214.121 21.3973 213.918 21.6C213.715 21.8027 213.555 22.0747 213.438 22.416C213.321 22.7573 213.262 23.1893 213.262 23.712C213.262 24.288 213.379 24.7787 213.614 25.184C213.859 25.5787 214.169 25.8827 214.542 26.096C214.926 26.2987 215.331 26.4 215.758 26.4C216.153 26.4 216.467 26.368 216.702 26.304C216.937 26.24 217.123 26.1653 217.262 26.08C217.411 25.984 217.545 25.904 217.662 25.84C217.854 25.744 218.035 25.696 218.206 25.696C218.441 25.696 218.633 25.776 218.782 25.936C218.942 26.096 219.022 26.2827 219.022 26.496C219.022 26.784 218.873 27.0453 218.574 27.28C218.297 27.5147 217.907 27.7227 217.406 27.904C216.905 28.0747 216.387 28.16 215.854 28.16ZM224.971 28.16C224.065 28.16 223.275 27.9733 222.603 27.6C221.942 27.216 221.43 26.6987 221.067 26.048C220.715 25.3973 220.539 24.6613 220.539 23.84C220.539 22.88 220.731 22.064 221.115 21.392C221.51 20.7093 222.022 20.1867 222.651 19.824C223.281 19.4613 223.947 19.28 224.651 19.28C225.195 19.28 225.707 19.392 226.187 19.616C226.678 19.84 227.11 20.1493 227.483 20.544C227.857 20.928 228.15 21.376 228.363 21.888C228.587 22.4 228.699 22.944 228.699 23.52C228.689 23.776 228.587 23.984 228.395 24.144C228.203 24.304 227.979 24.384 227.723 24.384H221.611L221.131 22.784H227.003L226.651 23.104V22.672C226.63 22.3627 226.518 22.0853 226.315 21.84C226.123 21.5947 225.878 21.4027 225.579 21.264C225.291 21.1147 224.982 21.04 224.651 21.04C224.331 21.04 224.033 21.0827 223.755 21.168C223.478 21.2533 223.238 21.3973 223.035 21.6C222.833 21.8027 222.673 22.0747 222.555 22.416C222.438 22.7573 222.379 23.1893 222.379 23.712C222.379 24.288 222.497 24.7787 222.731 25.184C222.977 25.5787 223.286 25.8827 223.659 26.096C224.043 26.2987 224.449 26.4 224.875 26.4C225.27 26.4 225.585 26.368 225.819 26.304C226.054 26.24 226.241 26.1653 226.379 26.08C226.529 25.984 226.662 25.904 226.779 25.84C226.971 25.744 227.153 25.696 227.323 25.696C227.558 25.696 227.75 25.776 227.899 25.936C228.059 26.096 228.139 26.2827 228.139 26.496C228.139 26.784 227.99 27.0453 227.691 27.28C227.414 27.5147 227.025 27.7227 226.523 27.904C226.022 28.0747 225.505 28.16 224.971 28.16ZM239.005 16.8C239.56 16.8 240.077 16.96 240.557 17.28C241.048 17.6 241.443 18.032 241.741 18.576C242.04 19.12 242.189 19.728 242.189 20.4C242.189 21.0613 242.04 21.664 241.741 22.208C241.443 22.752 241.048 23.1893 240.557 23.52C240.077 23.84 239.56 24 239.005 24H236.061L236.221 23.712V27.024C236.221 27.3013 236.136 27.536 235.965 27.728C235.795 27.9093 235.571 28 235.293 28C235.027 28 234.808 27.9093 234.637 27.728C234.467 27.536 234.381 27.3013 234.381 27.024V17.776C234.381 17.4987 234.472 17.2693 234.653 17.088C234.845 16.896 235.08 16.8 235.357 16.8H239.005ZM239.005 22.176C239.208 22.176 239.405 22.0907 239.597 21.92C239.789 21.7493 239.949 21.5307 240.077 21.264C240.205 20.9867 240.269 20.6987 240.269 20.4C240.269 20.0907 240.205 19.8027 240.077 19.536C239.949 19.2693 239.789 19.056 239.597 18.896C239.405 18.7253 239.208 18.64 239.005 18.64H236.029L236.221 18.352V22.432L236.045 22.176H239.005ZM245.622 27.024C245.622 27.3013 245.526 27.536 245.334 27.728C245.153 27.9093 244.923 28 244.646 28C244.379 28 244.155 27.9093 243.974 27.728C243.793 27.536 243.702 27.3013 243.702 27.024V17.136C243.702 16.8587 243.793 16.6293 243.974 16.448C244.166 16.256 244.401 16.16 244.678 16.16C244.955 16.16 245.179 16.256 245.35 16.448C245.531 16.6293 245.622 16.8587 245.622 17.136V27.024ZM254.542 19.28C254.82 19.28 255.049 19.3707 255.23 19.552C255.412 19.7333 255.502 19.968 255.502 20.256V27.024C255.502 27.3013 255.412 27.536 255.23 27.728C255.049 27.9093 254.82 28 254.542 28C254.265 28 254.036 27.9093 253.854 27.728C253.673 27.536 253.582 27.3013 253.582 27.024V26.24L253.934 26.384C253.934 26.5227 253.86 26.6933 253.71 26.896C253.561 27.088 253.358 27.28 253.102 27.472C252.846 27.664 252.542 27.8293 252.19 27.968C251.849 28.096 251.476 28.16 251.07 28.16C250.334 28.16 249.668 27.9733 249.07 27.6C248.473 27.216 247.998 26.6933 247.646 26.032C247.305 25.36 247.134 24.592 247.134 23.728C247.134 22.8533 247.305 22.0853 247.646 21.424C247.998 20.752 248.468 20.2293 249.054 19.856C249.641 19.472 250.292 19.28 251.006 19.28C251.465 19.28 251.886 19.3493 252.27 19.488C252.654 19.6267 252.985 19.8027 253.262 20.016C253.55 20.2293 253.769 20.448 253.918 20.672C254.078 20.8853 254.158 21.0667 254.158 21.216L253.582 21.424V20.256C253.582 19.9787 253.673 19.7493 253.854 19.568C254.036 19.376 254.265 19.28 254.542 19.28ZM251.31 26.4C251.78 26.4 252.19 26.2827 252.542 26.048C252.894 25.8133 253.166 25.4933 253.358 25.088C253.561 24.6827 253.662 24.2293 253.662 23.728C253.662 23.216 253.561 22.7573 253.358 22.352C253.166 21.9467 252.894 21.6267 252.542 21.392C252.19 21.1573 251.78 21.04 251.31 21.04C250.852 21.04 250.446 21.1573 250.094 21.392C249.742 21.6267 249.465 21.9467 249.262 22.352C249.07 22.7573 248.974 23.216 248.974 23.728C248.974 24.2293 249.07 24.6827 249.262 25.088C249.465 25.4933 249.742 25.8133 250.094 26.048C250.446 26.2827 250.852 26.4 251.31 26.4ZM263.613 19.44C263.891 19.44 264.12 19.536 264.301 19.728C264.483 19.9093 264.573 20.1387 264.573 20.416V27.216C264.573 28.1973 264.387 28.976 264.013 29.552C263.651 30.1387 263.16 30.56 262.541 30.816C261.923 31.072 261.229 31.2 260.461 31.2C260.12 31.2 259.757 31.1733 259.373 31.12C258.989 31.0667 258.675 30.9867 258.429 30.88C258.109 30.7413 257.885 30.5653 257.757 30.352C257.64 30.1493 257.619 29.9307 257.693 29.696C257.789 29.3867 257.944 29.1733 258.157 29.056C258.371 28.9493 258.595 28.9387 258.829 29.024C259 29.0773 259.224 29.1573 259.501 29.264C259.779 29.3813 260.099 29.44 260.461 29.44C260.952 29.44 261.357 29.3707 261.677 29.232C262.008 29.104 262.253 28.88 262.413 28.56C262.584 28.2507 262.669 27.824 262.669 27.28V26.208L263.005 26.592C262.824 26.944 262.595 27.2373 262.317 27.472C262.051 27.696 261.731 27.8667 261.357 27.984C260.984 28.1013 260.557 28.16 260.077 28.16C259.512 28.16 259.016 28.032 258.589 27.776C258.173 27.5093 257.848 27.1467 257.613 26.688C257.379 26.2187 257.261 25.6853 257.261 25.088V20.416C257.261 20.1387 257.352 19.9093 257.533 19.728C257.715 19.536 257.944 19.44 258.221 19.44C258.499 19.44 258.728 19.536 258.909 19.728C259.091 19.9093 259.181 20.1387 259.181 20.416V24.512C259.181 25.2053 259.331 25.696 259.629 25.984C259.939 26.2613 260.365 26.4 260.909 26.4C261.283 26.4 261.597 26.3307 261.853 26.192C262.109 26.0427 262.307 25.8293 262.445 25.552C262.584 25.264 262.653 24.9173 262.653 24.512V20.416C262.653 20.1387 262.744 19.9093 262.925 19.728C263.107 19.536 263.336 19.44 263.613 19.44Z" fill="#53179A"/>
</svg>
