<svg width="280" height="56" viewBox="0 0 280 56" fill="none" xmlns="http://www.w3.org/2000/svg">
<rect width="280" height="56" rx="28" fill="url(#paint0_linear_619_17080)"/>
<path d="M13 17.7108C14.1371 11.7895 18.15 9.5609 21.4862 9" stroke="white" stroke-width="3" stroke-linecap="round"/>
<path d="M121.19 20.2C122.022 20.2 122.798 20.44 123.518 20.92C124.254 21.4 124.846 22.048 125.294 22.864C125.742 23.68 125.966 24.592 125.966 25.6C125.966 26.592 125.742 27.496 125.294 28.312C124.846 29.128 124.254 29.784 123.518 30.28C122.798 30.76 122.022 31 121.19 31L116.774 31L117.014 30.568L117.014 35.536C117.014 35.952 116.886 36.304 116.63 36.592C116.374 36.864 116.038 37 115.622 37C115.222 37 114.894 36.864 114.638 36.592C114.382 36.304 114.254 35.952 114.254 35.536L114.254 21.664C114.254 21.248 114.39 20.904 114.662 20.632C114.95 20.344 115.302 20.2 115.718 20.2L121.19 20.2ZM121.19 28.264C121.494 28.264 121.79 28.136 122.078 27.88C122.366 27.624 122.606 27.296 122.798 26.896C122.99 26.48 123.086 26.048 123.086 25.6C123.086 25.136 122.99 24.704 122.798 24.304C122.606 23.904 122.366 23.584 122.078 23.344C121.79 23.088 121.494 22.96 121.19 22.96L116.726 22.96L117.014 22.528L117.014 28.648L116.75 28.264L121.19 28.264ZM137.499 34.192C137.915 34.192 138.259 34.328 138.531 34.6C138.819 34.856 138.963 35.192 138.963 35.608C138.963 36.008 138.819 36.344 138.531 36.616C138.259 36.872 137.915 37 137.499 37L129.699 37C129.283 37 128.931 36.864 128.643 36.592C128.371 36.304 128.235 35.952 128.235 35.536L128.235 21.664C128.235 21.248 128.379 20.904 128.667 20.632C128.955 20.344 129.323 20.2 129.771 20.2C130.155 20.2 130.491 20.344 130.779 20.632C131.083 20.904 131.235 21.248 131.235 21.664L131.235 34.6L130.707 34.192L137.499 34.192ZM147.4 23.968L142.216 36.16C142.104 36.464 141.928 36.704 141.688 36.88C141.464 37.04 141.216 37.12 140.944 37.12C140.512 37.12 140.192 37 139.984 36.76C139.776 36.52 139.672 36.224 139.672 35.872C139.672 35.728 139.696 35.576 139.744 35.416L145.72 21.064C145.848 20.744 146.04 20.496 146.296 20.32C146.568 20.144 146.856 20.072 147.16 20.104C147.448 20.104 147.712 20.192 147.952 20.368C148.208 20.528 148.392 20.76 148.504 21.064L154.408 35.128C154.488 35.336 154.528 35.528 154.528 35.704C154.528 36.136 154.384 36.48 154.096 36.736C153.824 36.992 153.52 37.12 153.184 37.12C152.896 37.12 152.632 37.032 152.392 36.856C152.168 36.68 151.992 36.44 151.864 36.136L146.704 24.112L147.4 23.968ZM142.96 33.232L144.28 30.472L150.76 30.472L151.216 33.232L142.96 33.232ZM165.753 20.128C166.121 20.128 166.449 20.272 166.737 20.56C167.041 20.832 167.193 21.184 167.193 21.616C167.193 21.76 167.169 21.912 167.121 22.072C167.089 22.216 167.025 22.36 166.929 22.504L161.481 30.304L161.913 28.648L161.913 35.536C161.913 35.952 161.769 36.304 161.481 36.592C161.209 36.864 160.889 37 160.521 37C160.121 37 159.777 36.864 159.489 36.592C159.217 36.304 159.081 35.952 159.081 35.536L159.081 28.84L159.273 29.608L154.089 22.72C153.929 22.512 153.817 22.312 153.753 22.12C153.689 21.928 153.657 21.752 153.657 21.592C153.657 21.16 153.825 20.808 154.161 20.536C154.497 20.264 154.841 20.128 155.193 20.128C155.641 20.128 156.033 20.352 156.369 20.8L160.977 27.16L160.305 27.064L164.553 20.848C164.889 20.368 165.289 20.128 165.753 20.128Z" fill="#23003D"/>
<defs>
<linearGradient id="paint0_linear_619_17080" x1="140" y1="0" x2="140" y2="56" gradientUnits="userSpaceOnUse">
<stop stop-color="#FFE486"/>
<stop offset="0.515625" stop-color="#FFCC4E"/>
<stop offset="1" stop-color="#FFD02B"/>
<stop offset="1" stop-color="#D2A61B"/>
</linearGradient>
</defs>
</svg>
