<svg width="245" height="56" viewBox="0 0 245 56" fill="none" xmlns="http://www.w3.org/2000/svg">
<rect width="245" height="56" rx="28" fill="url(#paint0_linear_630_5297)"/>
<path d="M11.375 17.7108C12.37 11.7895 15.8812 9.5609 18.8004 9" stroke="white" stroke-width="3" stroke-linecap="round"/>
<path d="M41.8942 22.4C42.5182 22.4 43.1002 22.58 43.6402 22.94C44.1922 23.3 44.6362 23.786 44.9722 24.398C45.3082 25.01 45.4762 25.694 45.4762 26.45C45.4762 27.194 45.3082 27.872 44.9722 28.484C44.6362 29.096 44.1922 29.588 43.6402 29.96C43.1002 30.32 42.5182 30.5 41.8942 30.5L38.5822 30.5L38.7622 30.176L38.7622 33.902C38.7622 34.214 38.6662 34.478 38.4742 34.694C38.2822 34.898 38.0302 35 37.7182 35C37.4182 35 37.1722 34.898 36.9802 34.694C36.7882 34.478 36.6922 34.214 36.6922 33.902L36.6922 23.498C36.6922 23.186 36.7942 22.928 36.9982 22.724C37.2142 22.508 37.4782 22.4 37.7902 22.4L41.8942 22.4ZM41.8942 28.448C42.1222 28.448 42.3442 28.352 42.5602 28.16C42.7762 27.968 42.9562 27.722 43.1002 27.422C43.2442 27.11 43.3162 26.786 43.3162 26.45C43.3162 26.102 43.2442 25.778 43.1002 25.478C42.9562 25.178 42.7762 24.938 42.5602 24.758C42.3442 24.566 42.1222 24.47 41.8942 24.47L38.5462 24.47L38.7622 24.146L38.7622 28.736L38.5642 28.448L41.8942 28.448ZM48.0779 35C47.7659 35 47.5079 34.898 47.3039 34.694C47.0999 34.478 46.9979 34.214 46.9979 33.902L46.9979 26.468C46.9979 26.156 47.0999 25.898 47.3039 25.694C47.5079 25.478 47.7659 25.37 48.0779 25.37C48.3899 25.37 48.6479 25.478 48.8519 25.694C49.0559 25.898 49.1579 26.156 49.1579 26.468L49.1579 28.16L49.0319 26.954C49.1639 26.666 49.3319 26.414 49.5359 26.198C49.7519 25.97 49.9919 25.784 50.2559 25.64C50.5199 25.484 50.8019 25.37 51.1019 25.298C51.4019 25.226 51.7019 25.19 52.0019 25.19C52.3619 25.19 52.6619 25.292 52.9019 25.496C53.1539 25.7 53.2799 25.94 53.2799 26.216C53.2799 26.612 53.1779 26.9 52.9739 27.08C52.7699 27.248 52.5479 27.332 52.3079 27.332C52.0799 27.332 51.8699 27.29 51.6779 27.206C51.4979 27.122 51.2879 27.08 51.0479 27.08C50.8319 27.08 50.6099 27.134 50.3819 27.242C50.1659 27.338 49.9619 27.494 49.7699 27.71C49.5899 27.926 49.4399 28.196 49.3199 28.52C49.2119 28.832 49.1579 29.204 49.1579 29.636L49.1579 33.902C49.1579 34.214 49.0559 34.478 48.8519 34.694C48.6479 34.898 48.3899 35 48.0779 35ZM63.3803 30.194C63.3803 31.178 63.1583 32.048 62.7143 32.804C62.2823 33.548 61.6943 34.13 60.9503 34.55C60.2183 34.97 59.3963 35.18 58.4843 35.18C57.5723 35.18 56.7443 34.97 56.0003 34.55C55.2683 34.13 54.6803 33.548 54.2363 32.804C53.8043 32.048 53.5883 31.178 53.5883 30.194C53.5883 29.21 53.8043 28.346 54.2363 27.602C54.6803 26.846 55.2683 26.258 56.0003 25.838C56.7443 25.406 57.5723 25.19 58.4843 25.19C59.3963 25.19 60.2183 25.406 60.9503 25.838C61.6943 26.258 62.2823 26.846 62.7143 27.602C63.1583 28.346 63.3803 29.21 63.3803 30.194ZM61.2203 30.194C61.2203 29.582 61.0943 29.054 60.8423 28.61C60.6023 28.154 60.2723 27.8 59.8523 27.548C59.4443 27.296 58.9883 27.17 58.4843 27.17C57.9803 27.17 57.5183 27.296 57.0983 27.548C56.6903 27.8 56.3603 28.154 56.1083 28.61C55.8683 29.054 55.7483 29.582 55.7483 30.194C55.7483 30.794 55.8683 31.322 56.1083 31.778C56.3603 32.222 56.6903 32.57 57.0983 32.822C57.5183 33.074 57.9803 33.2 58.4843 33.2C58.9883 33.2 59.4443 33.074 59.8523 32.822C60.2723 32.57 60.6023 32.222 60.8423 31.778C61.0943 31.322 61.2203 30.794 61.2203 30.194ZM69.1947 25.19C69.8787 25.19 70.4727 25.262 70.9767 25.406C71.4927 25.55 71.8887 25.754 72.1647 26.018C72.4527 26.27 72.5967 26.576 72.5967 26.936C72.5967 27.176 72.5247 27.404 72.3807 27.62C72.2367 27.824 72.0267 27.926 71.7507 27.926C71.5587 27.926 71.3967 27.902 71.2647 27.854C71.1447 27.794 71.0367 27.722 70.9407 27.638C70.8447 27.554 70.7307 27.476 70.5987 27.404C70.4787 27.332 70.2927 27.278 70.0407 27.242C69.8007 27.194 69.6207 27.17 69.5007 27.17C68.8887 27.17 68.3667 27.302 67.9347 27.566C67.5147 27.83 67.1907 28.19 66.9627 28.646C66.7347 29.09 66.6207 29.606 66.6207 30.194C66.6207 30.77 66.7347 31.286 66.9627 31.742C67.2027 32.186 67.5267 32.54 67.9347 32.804C68.3547 33.068 68.8347 33.2 69.3747 33.2C69.6747 33.2 69.9327 33.182 70.1487 33.146C70.3647 33.11 70.5447 33.056 70.6887 32.984C70.8567 32.888 71.0067 32.786 71.1387 32.678C71.2707 32.57 71.4687 32.516 71.7327 32.516C72.0447 32.516 72.2847 32.618 72.4527 32.822C72.6207 33.014 72.7047 33.254 72.7047 33.542C72.7047 33.842 72.5367 34.118 72.2007 34.37C71.8647 34.61 71.4207 34.808 70.8687 34.964C70.3287 35.108 69.7407 35.18 69.1047 35.18C68.1567 35.18 67.3347 34.964 66.6387 34.532C65.9427 34.088 65.4027 33.488 65.0187 32.732C64.6467 31.976 64.4607 31.13 64.4607 30.194C64.4607 29.21 64.6587 28.346 65.0547 27.602C65.4627 26.846 66.0207 26.258 66.7287 25.838C67.4487 25.406 68.2707 25.19 69.1947 25.19ZM78.4383 35.18C77.4183 35.18 76.5303 34.97 75.7743 34.55C75.0303 34.118 74.4543 33.536 74.0463 32.804C73.6503 32.072 73.4523 31.244 73.4523 30.32C73.4523 29.24 73.6683 28.322 74.1003 27.566C74.5443 26.798 75.1203 26.21 75.8283 25.802C76.5363 25.394 77.2863 25.19 78.0783 25.19C78.6903 25.19 79.2663 25.316 79.8063 25.568C80.3583 25.82 80.8443 26.168 81.2643 26.612C81.6843 27.044 82.0143 27.548 82.2543 28.124C82.5063 28.7 82.6323 29.312 82.6323 29.96C82.6203 30.248 82.5063 30.482 82.2903 30.662C82.0743 30.842 81.8223 30.932 81.5343 30.932L74.6583 30.932L74.1183 29.132L80.7243 29.132L80.3283 29.492L80.3283 29.006C80.3043 28.658 80.1783 28.346 79.9503 28.07C79.7343 27.794 79.4583 27.578 79.1223 27.422C78.7983 27.254 78.4503 27.17 78.0783 27.17C77.7183 27.17 77.3823 27.218 77.0703 27.314C76.7583 27.41 76.4883 27.572 76.2603 27.8C76.0323 28.028 75.8523 28.334 75.7203 28.718C75.5883 29.102 75.5223 29.588 75.5223 30.176C75.5223 30.824 75.6543 31.376 75.9183 31.832C76.1943 32.276 76.5423 32.618 76.9623 32.858C77.3943 33.086 77.8503 33.2 78.3303 33.2C78.7743 33.2 79.1283 33.164 79.3923 33.092C79.6563 33.02 79.8663 32.936 80.0223 32.84C80.1903 32.732 80.3403 32.642 80.4723 32.57C80.6883 32.462 80.8923 32.408 81.0843 32.408C81.3483 32.408 81.5643 32.498 81.7323 32.678C81.9123 32.858 82.0023 33.068 82.0023 33.308C82.0023 33.632 81.8343 33.926 81.4983 34.19C81.1863 34.454 80.7483 34.688 80.1843 34.892C79.6203 35.084 79.0383 35.18 78.4383 35.18ZM88.6955 35.18C87.6755 35.18 86.7875 34.97 86.0315 34.55C85.2875 34.118 84.7115 33.536 84.3035 32.804C83.9075 32.072 83.7095 31.244 83.7095 30.32C83.7095 29.24 83.9255 28.322 84.3575 27.566C84.8015 26.798 85.3775 26.21 86.0855 25.802C86.7935 25.394 87.5435 25.19 88.3355 25.19C88.9475 25.19 89.5235 25.316 90.0635 25.568C90.6155 25.82 91.1015 26.168 91.5215 26.612C91.9415 27.044 92.2715 27.548 92.5115 28.124C92.7635 28.7 92.8895 29.312 92.8895 29.96C92.8775 30.248 92.7635 30.482 92.5475 30.662C92.3315 30.842 92.0795 30.932 91.7915 30.932L84.9155 30.932L84.3755 29.132L90.9815 29.132L90.5855 29.492L90.5855 29.006C90.5615 28.658 90.4355 28.346 90.2075 28.07C89.9915 27.794 89.7155 27.578 89.3795 27.422C89.0555 27.254 88.7075 27.17 88.3355 27.17C87.9755 27.17 87.6395 27.218 87.3275 27.314C87.0155 27.41 86.7455 27.572 86.5175 27.8C86.2895 28.028 86.1095 28.334 85.9775 28.718C85.8455 29.102 85.7795 29.588 85.7795 30.176C85.7795 30.824 85.9115 31.376 86.1755 31.832C86.4515 32.276 86.7995 32.618 87.2195 32.858C87.6515 33.086 88.1075 33.2 88.5875 33.2C89.0315 33.2 89.3855 33.164 89.6495 33.092C89.9135 33.02 90.1235 32.936 90.2795 32.84C90.4475 32.732 90.5975 32.642 90.7295 32.57C90.9455 32.462 91.1495 32.408 91.3415 32.408C91.6055 32.408 91.8215 32.498 91.9895 32.678C92.1695 32.858 92.2595 33.068 92.2595 33.308C92.2595 33.632 92.0915 33.926 91.7555 34.19C91.4435 34.454 91.0055 34.688 90.4415 34.892C89.8775 35.084 89.2955 35.18 88.6955 35.18ZM102.301 21.68C102.613 21.68 102.871 21.782 103.075 21.986C103.279 22.19 103.381 22.454 103.381 22.778L103.381 33.902C103.381 34.214 103.279 34.478 103.075 34.694C102.871 34.898 102.613 35 102.301 35C101.989 35 101.731 34.898 101.527 34.694C101.323 34.478 101.221 34.214 101.221 33.902L101.221 33.02L101.617 33.182C101.617 33.338 101.533 33.53 101.365 33.758C101.197 33.974 100.969 34.19 100.681 34.406C100.393 34.622 100.051 34.808 99.6547 34.964C99.2707 35.108 98.8507 35.18 98.3947 35.18C97.5667 35.18 96.8167 34.97 96.1447 34.55C95.4727 34.118 94.9387 33.53 94.5427 32.786C94.1587 32.03 93.9667 31.166 93.9667 30.194C93.9667 29.21 94.1587 28.346 94.5427 27.602C94.9387 26.846 95.4667 26.258 96.1267 25.838C96.7867 25.406 97.5187 25.19 98.3227 25.19C98.8387 25.19 99.3127 25.268 99.7447 25.424C100.177 25.58 100.549 25.778 100.861 26.018C101.185 26.258 101.431 26.504 101.599 26.756C101.779 26.996 101.869 27.2 101.869 27.368L101.221 27.602L101.221 22.778C101.221 22.466 101.323 22.208 101.527 22.004C101.731 21.788 101.989 21.68 102.301 21.68ZM98.6647 33.2C99.1927 33.2 99.6547 33.068 100.051 32.804C100.447 32.54 100.753 32.18 100.969 31.724C101.197 31.268 101.311 30.758 101.311 30.194C101.311 29.618 101.197 29.102 100.969 28.646C100.753 28.19 100.447 27.83 100.051 27.566C99.6547 27.302 99.1927 27.17 98.6647 27.17C98.1487 27.17 97.6927 27.302 97.2967 27.566C96.9007 27.83 96.5887 28.19 96.3607 28.646C96.1447 29.102 96.0367 29.618 96.0367 30.194C96.0367 30.758 96.1447 31.268 96.3607 31.724C96.5887 32.18 96.9007 32.54 97.2967 32.804C97.6927 33.068 98.1487 33.2 98.6647 33.2ZM110.152 25.55L114.418 25.55C114.706 25.55 114.946 25.646 115.138 25.838C115.33 26.03 115.426 26.27 115.426 26.558C115.426 26.834 115.33 27.068 115.138 27.26C114.946 27.44 114.706 27.53 114.418 27.53L110.152 27.53C109.864 27.53 109.624 27.434 109.432 27.242C109.24 27.05 109.144 26.81 109.144 26.522C109.144 26.246 109.24 26.018 109.432 25.838C109.624 25.646 109.864 25.55 110.152 25.55ZM112.078 23.3C112.39 23.3 112.642 23.408 112.834 23.624C113.038 23.828 113.14 24.086 113.14 24.398L113.14 32.408C113.14 32.576 113.17 32.714 113.23 32.822C113.302 32.93 113.392 33.008 113.5 33.056C113.62 33.104 113.746 33.128 113.878 33.128C114.022 33.128 114.154 33.104 114.274 33.056C114.394 32.996 114.532 32.966 114.688 32.966C114.856 32.966 115.006 33.044 115.138 33.2C115.282 33.356 115.354 33.572 115.354 33.848C115.354 34.184 115.168 34.46 114.796 34.676C114.436 34.892 114.046 35 113.626 35C113.374 35 113.092 34.982 112.78 34.946C112.48 34.898 112.192 34.796 111.916 34.64C111.652 34.472 111.43 34.22 111.25 33.884C111.07 33.548 110.98 33.086 110.98 32.498L110.98 24.398C110.98 24.086 111.082 23.828 111.286 23.624C111.502 23.408 111.766 23.3 112.078 23.3ZM126.304 30.194C126.304 31.178 126.082 32.048 125.638 32.804C125.206 33.548 124.618 34.13 123.874 34.55C123.142 34.97 122.32 35.18 121.408 35.18C120.496 35.18 119.668 34.97 118.924 34.55C118.192 34.13 117.604 33.548 117.16 32.804C116.728 32.048 116.512 31.178 116.512 30.194C116.512 29.21 116.728 28.346 117.16 27.602C117.604 26.846 118.192 26.258 118.924 25.838C119.668 25.406 120.496 25.19 121.408 25.19C122.32 25.19 123.142 25.406 123.874 25.838C124.618 26.258 125.206 26.846 125.638 27.602C126.082 28.346 126.304 29.21 126.304 30.194ZM124.144 30.194C124.144 29.582 124.018 29.054 123.766 28.61C123.526 28.154 123.196 27.8 122.776 27.548C122.368 27.296 121.912 27.17 121.408 27.17C120.904 27.17 120.442 27.296 120.022 27.548C119.614 27.8 119.284 28.154 119.032 28.61C118.792 29.054 118.672 29.582 118.672 30.194C118.672 30.794 118.792 31.322 119.032 31.778C119.284 32.222 119.614 32.57 120.022 32.822C120.442 33.074 120.904 33.2 121.408 33.2C121.912 33.2 122.368 33.074 122.776 32.822C123.196 32.57 123.526 32.222 123.766 31.778C124.018 31.322 124.144 30.794 124.144 30.194ZM137.505 25.19C138.345 25.19 139.095 25.406 139.755 25.838C140.427 26.258 140.955 26.84 141.339 27.584C141.735 28.328 141.933 29.192 141.933 30.176C141.933 31.16 141.735 32.03 141.339 32.786C140.955 33.53 140.433 34.118 139.773 34.55C139.125 34.97 138.393 35.18 137.577 35.18C137.097 35.18 136.647 35.102 136.227 34.946C135.807 34.79 135.435 34.592 135.111 34.352C134.799 34.112 134.553 33.872 134.373 33.632C134.205 33.38 134.121 33.17 134.121 33.002L134.679 32.768L134.679 37.502C134.679 37.814 134.577 38.072 134.373 38.276C134.169 38.492 133.911 38.6 133.599 38.6C133.287 38.6 133.029 38.498 132.825 38.294C132.621 38.09 132.519 37.826 132.519 37.502L132.519 26.468C132.519 26.156 132.621 25.898 132.825 25.694C133.029 25.478 133.287 25.37 133.599 25.37C133.911 25.37 134.169 25.478 134.373 25.694C134.577 25.898 134.679 26.156 134.679 26.468L134.679 27.35L134.373 27.188C134.373 27.032 134.457 26.846 134.625 26.63C134.793 26.402 135.021 26.18 135.309 25.964C135.597 25.736 135.927 25.55 136.299 25.406C136.683 25.262 137.085 25.19 137.505 25.19ZM137.235 27.17C136.707 27.17 136.245 27.302 135.849 27.566C135.453 27.83 135.141 28.19 134.913 28.646C134.697 29.09 134.589 29.6 134.589 30.176C134.589 30.74 134.697 31.256 134.913 31.724C135.141 32.18 135.453 32.54 135.849 32.804C136.245 33.068 136.707 33.2 137.235 33.2C137.763 33.2 138.219 33.068 138.603 32.804C138.999 32.54 139.305 32.18 139.521 31.724C139.749 31.256 139.863 30.74 139.863 30.176C139.863 29.6 139.749 29.09 139.521 28.646C139.305 28.19 138.999 27.83 138.603 27.566C138.219 27.302 137.763 27.17 137.235 27.17ZM151.346 25.19C151.658 25.19 151.916 25.292 152.12 25.496C152.324 25.7 152.426 25.964 152.426 26.288L152.426 33.902C152.426 34.214 152.324 34.478 152.12 34.694C151.916 34.898 151.658 35 151.346 35C151.034 35 150.776 34.898 150.572 34.694C150.368 34.478 150.266 34.214 150.266 33.902L150.266 33.02L150.662 33.182C150.662 33.338 150.578 33.53 150.41 33.758C150.242 33.974 150.014 34.19 149.726 34.406C149.438 34.622 149.096 34.808 148.7 34.964C148.316 35.108 147.896 35.18 147.44 35.18C146.612 35.18 145.862 34.97 145.19 34.55C144.518 34.118 143.984 33.53 143.588 32.786C143.204 32.03 143.012 31.166 143.012 30.194C143.012 29.21 143.204 28.346 143.588 27.602C143.984 26.846 144.512 26.258 145.172 25.838C145.832 25.406 146.564 25.19 147.368 25.19C147.884 25.19 148.358 25.268 148.79 25.424C149.222 25.58 149.594 25.778 149.906 26.018C150.23 26.258 150.476 26.504 150.644 26.756C150.824 26.996 150.914 27.2 150.914 27.368L150.266 27.602L150.266 26.288C150.266 25.976 150.368 25.718 150.572 25.514C150.776 25.298 151.034 25.19 151.346 25.19ZM147.71 33.2C148.238 33.2 148.7 33.068 149.096 32.804C149.492 32.54 149.798 32.18 150.014 31.724C150.242 31.268 150.356 30.758 150.356 30.194C150.356 29.618 150.242 29.102 150.014 28.646C149.798 28.19 149.492 27.83 149.096 27.566C148.7 27.302 148.238 27.17 147.71 27.17C147.194 27.17 146.738 27.302 146.342 27.566C145.946 27.83 145.634 28.19 145.406 28.646C145.19 29.102 145.082 29.618 145.082 30.194C145.082 30.758 145.19 31.268 145.406 31.724C145.634 32.18 145.946 32.54 146.342 32.804C146.738 33.068 147.194 33.2 147.71 33.2ZM161.55 25.37C161.862 25.37 162.12 25.478 162.324 25.694C162.528 25.898 162.63 26.156 162.63 26.468L162.63 34.118C162.63 35.222 162.42 36.098 162 36.746C161.592 37.406 161.04 37.88 160.344 38.168C159.648 38.456 158.868 38.6 158.004 38.6C157.62 38.6 157.212 38.57 156.78 38.51C156.348 38.45 155.994 38.36 155.718 38.24C155.358 38.084 155.106 37.886 154.962 37.646C154.83 37.418 154.806 37.172 154.89 36.908C154.998 36.56 155.172 36.32 155.412 36.188C155.652 36.068 155.904 36.056 156.168 36.152C156.36 36.212 156.612 36.302 156.924 36.422C157.236 36.554 157.596 36.62 158.004 36.62C158.556 36.62 159.012 36.542 159.372 36.386C159.744 36.242 160.02 35.99 160.2 35.63C160.392 35.282 160.488 34.802 160.488 34.19L160.488 32.984L160.866 33.416C160.662 33.812 160.404 34.142 160.092 34.406C159.792 34.658 159.432 34.85 159.012 34.982C158.592 35.114 158.112 35.18 157.572 35.18C156.936 35.18 156.378 35.036 155.898 34.748C155.43 34.448 155.064 34.04 154.8 33.524C154.536 32.996 154.404 32.396 154.404 31.724L154.404 26.468C154.404 26.156 154.506 25.898 154.71 25.694C154.914 25.478 155.172 25.37 155.484 25.37C155.796 25.37 156.054 25.478 156.258 25.694C156.462 25.898 156.564 26.156 156.564 26.468L156.564 31.076C156.564 31.856 156.732 32.408 157.068 32.732C157.416 33.044 157.896 33.2 158.508 33.2C158.928 33.2 159.282 33.122 159.57 32.966C159.858 32.798 160.08 32.558 160.236 32.246C160.392 31.922 160.47 31.532 160.47 31.076L160.47 26.468C160.47 26.156 160.572 25.898 160.776 25.694C160.98 25.478 161.238 25.37 161.55 25.37ZM169.667 25.19C170.627 25.19 171.335 25.424 171.791 25.892C172.247 26.348 172.547 26.942 172.691 27.674L172.385 27.512L172.529 27.224C172.673 26.948 172.895 26.654 173.195 26.342C173.495 26.018 173.855 25.748 174.275 25.532C174.707 25.304 175.187 25.19 175.715 25.19C176.579 25.19 177.233 25.376 177.677 25.748C178.133 26.12 178.445 26.618 178.613 27.242C178.781 27.854 178.865 28.538 178.865 29.294L178.865 33.902C178.865 34.214 178.763 34.478 178.559 34.694C178.355 34.898 178.097 35 177.785 35C177.473 35 177.215 34.898 177.011 34.694C176.807 34.478 176.705 34.214 176.705 33.902L176.705 29.294C176.705 28.898 176.657 28.544 176.561 28.232C176.465 27.908 176.291 27.65 176.039 27.458C175.787 27.266 175.427 27.17 174.959 27.17C174.503 27.17 174.113 27.266 173.789 27.458C173.465 27.65 173.219 27.908 173.051 28.232C172.895 28.544 172.817 28.898 172.817 29.294L172.817 33.902C172.817 34.214 172.715 34.478 172.511 34.694C172.307 34.898 172.049 35 171.737 35C171.425 35 171.167 34.898 170.963 34.694C170.759 34.478 170.657 34.214 170.657 33.902L170.657 29.294C170.657 28.898 170.609 28.544 170.513 28.232C170.417 27.908 170.243 27.65 169.991 27.458C169.739 27.266 169.379 27.17 168.911 27.17C168.455 27.17 168.065 27.266 167.741 27.458C167.417 27.65 167.171 27.908 167.003 28.232C166.847 28.544 166.769 28.898 166.769 29.294L166.769 33.902C166.769 34.214 166.667 34.478 166.463 34.694C166.259 34.898 166.001 35 165.689 35C165.377 35 165.119 34.898 164.915 34.694C164.711 34.478 164.609 34.214 164.609 33.902L164.609 26.468C164.609 26.156 164.711 25.898 164.915 25.694C165.119 25.478 165.377 25.37 165.689 25.37C166.001 25.37 166.259 25.478 166.463 25.694C166.667 25.898 166.769 26.156 166.769 26.468L166.769 27.242L166.499 27.188C166.607 26.984 166.757 26.768 166.949 26.54C167.141 26.3 167.375 26.078 167.651 25.874C167.927 25.67 168.233 25.508 168.569 25.388C168.905 25.256 169.271 25.19 169.667 25.19ZM185.379 35.18C184.359 35.18 183.471 34.97 182.715 34.55C181.971 34.118 181.395 33.536 180.987 32.804C180.591 32.072 180.393 31.244 180.393 30.32C180.393 29.24 180.609 28.322 181.041 27.566C181.485 26.798 182.061 26.21 182.769 25.802C183.477 25.394 184.227 25.19 185.019 25.19C185.631 25.19 186.207 25.316 186.747 25.568C187.299 25.82 187.785 26.168 188.205 26.612C188.625 27.044 188.955 27.548 189.195 28.124C189.447 28.7 189.573 29.312 189.573 29.96C189.561 30.248 189.447 30.482 189.231 30.662C189.015 30.842 188.763 30.932 188.475 30.932L181.599 30.932L181.059 29.132L187.665 29.132L187.269 29.492L187.269 29.006C187.245 28.658 187.119 28.346 186.891 28.07C186.675 27.794 186.399 27.578 186.063 27.422C185.739 27.254 185.391 27.17 185.019 27.17C184.659 27.17 184.323 27.218 184.011 27.314C183.699 27.41 183.429 27.572 183.201 27.8C182.973 28.028 182.793 28.334 182.661 28.718C182.529 29.102 182.463 29.588 182.463 30.176C182.463 30.824 182.595 31.376 182.859 31.832C183.135 32.276 183.483 32.618 183.903 32.858C184.335 33.086 184.791 33.2 185.271 33.2C185.715 33.2 186.069 33.164 186.333 33.092C186.597 33.02 186.807 32.936 186.963 32.84C187.131 32.732 187.281 32.642 187.413 32.57C187.629 32.462 187.833 32.408 188.025 32.408C188.289 32.408 188.505 32.498 188.673 32.678C188.853 32.858 188.943 33.068 188.943 33.308C188.943 33.632 188.775 33.926 188.439 34.19C188.127 34.454 187.689 34.688 187.125 34.892C186.561 35.084 185.979 35.18 185.379 35.18ZM196.248 25.19C197.136 25.19 197.808 25.376 198.264 25.748C198.732 26.12 199.05 26.618 199.218 27.242C199.398 27.854 199.488 28.538 199.488 29.294L199.488 33.902C199.488 34.214 199.386 34.478 199.182 34.694C198.978 34.898 198.72 35 198.408 35C198.096 35 197.838 34.898 197.634 34.694C197.43 34.478 197.328 34.214 197.328 33.902L197.328 29.294C197.328 28.898 197.274 28.544 197.166 28.232C197.07 27.908 196.89 27.65 196.626 27.458C196.362 27.266 195.984 27.17 195.492 27.17C195.012 27.17 194.604 27.266 194.268 27.458C193.944 27.65 193.692 27.908 193.512 28.232C193.344 28.544 193.26 28.898 193.26 29.294L193.26 33.902C193.26 34.214 193.158 34.478 192.954 34.694C192.75 34.898 192.492 35 192.18 35C191.868 35 191.61 34.898 191.406 34.694C191.202 34.478 191.1 34.214 191.1 33.902L191.1 26.468C191.1 26.156 191.202 25.898 191.406 25.694C191.61 25.478 191.868 25.37 192.18 25.37C192.492 25.37 192.75 25.478 192.954 25.694C193.158 25.898 193.26 26.156 193.26 26.468L193.26 27.242L192.99 27.188C193.098 26.984 193.254 26.768 193.458 26.54C193.662 26.3 193.902 26.078 194.178 25.874C194.454 25.67 194.766 25.508 195.114 25.388C195.462 25.256 195.84 25.19 196.248 25.19ZM201.571 25.55L205.837 25.55C206.125 25.55 206.365 25.646 206.557 25.838C206.749 26.03 206.845 26.27 206.845 26.558C206.845 26.834 206.749 27.068 206.557 27.26C206.365 27.44 206.125 27.53 205.837 27.53L201.571 27.53C201.283 27.53 201.043 27.434 200.851 27.242C200.659 27.05 200.563 26.81 200.563 26.522C200.563 26.246 200.659 26.018 200.851 25.838C201.043 25.646 201.283 25.55 201.571 25.55ZM203.497 23.3C203.809 23.3 204.061 23.408 204.253 23.624C204.457 23.828 204.559 24.086 204.559 24.398L204.559 32.408C204.559 32.576 204.589 32.714 204.649 32.822C204.721 32.93 204.811 33.008 204.919 33.056C205.039 33.104 205.165 33.128 205.297 33.128C205.441 33.128 205.573 33.104 205.693 33.056C205.813 32.996 205.951 32.966 206.107 32.966C206.275 32.966 206.425 33.044 206.557 33.2C206.701 33.356 206.773 33.572 206.773 33.848C206.773 34.184 206.587 34.46 206.215 34.676C205.855 34.892 205.465 35 205.045 35C204.793 35 204.511 34.982 204.199 34.946C203.899 34.898 203.611 34.796 203.335 34.64C203.071 34.472 202.849 34.22 202.669 33.884C202.489 33.548 202.399 33.086 202.399 32.498L202.399 24.398C202.399 24.086 202.501 23.828 202.705 23.624C202.921 23.408 203.185 23.3 203.497 23.3Z" fill="#23003D"/>
<defs>
<linearGradient id="paint0_linear_630_5297" x1="122.5" y1="0" x2="122.5" y2="56" gradientUnits="userSpaceOnUse">
<stop stop-color="#FFE486"/>
<stop offset="0.515625" stop-color="#FFCC4E"/>
<stop offset="1" stop-color="#FFD02B"/>
<stop offset="1" stop-color="#D2A61B"/>
</linearGradient>
</defs>
</svg>
