<svg width="24" height="25" viewBox="0 0 24 25" fill="none" xmlns="http://www.w3.org/2000/svg">
<g clip-path="url(#clip0_630_6968)">
<path d="M17.5327 11.832C17.22 9.28062 15.2064 7.27202 12.6542 6.96579C12.4344 6.94071 12.2134 6.92815 11.9922 6.9281C9.73671 6.93157 7.70581 8.29469 6.84809 10.3808C5.99037 12.4669 6.4751 14.8643 8.07589 16.4533C8.92714 17.2685 9.41464 18.3919 9.42856 19.5705V20.2143H14.5714V19.5672C14.5753 18.4109 15.0457 17.3052 15.876 16.5004C17.1301 15.2905 17.7435 13.562 17.5327 11.8322V11.832H17.5327Z" fill="white"/>
<path d="M12 24.5C12.5447 24.4994 13.0301 24.1561 13.2123 23.6428H10.7878C10.9699 24.1561 11.4553 24.4994 12 24.5Z" fill="white"/>
<path d="M9.85718 22.3571C9.85751 22.5937 10.0492 22.7854 10.2858 22.7857H13.7143C13.9509 22.7854 14.1426 22.5937 14.1429 22.3571V21.0714H9.85718V22.3571Z" fill="white"/>
<path d="M12 4.35716C12.4734 4.35716 12.8571 3.97339 12.8571 3.5V1.35716C12.8571 0.883766 12.4734 0.5 12 0.5C11.5266 0.5 11.1428 0.883766 11.1428 1.35716V3.5C11.1428 3.97339 11.5266 4.35716 12 4.35716Z" fill="white"/>
<path d="M4.7662 6.47844C5.10539 6.80239 5.6393 6.80239 5.97848 6.47844C6.13927 6.3177 6.22959 6.09964 6.22959 5.8723C6.22959 5.64495 6.13927 5.42689 5.97848 5.26616L4.46316 3.75111C4.30247 3.59033 4.08445 3.5 3.85716 3.5C3.62986 3.5 3.41184 3.59033 3.25111 3.75111C3.09033 3.9118 3 4.12981 3 4.35716C3 4.5845 3.09033 4.80247 3.25111 4.9632L4.7662 6.47844Z" fill="white"/>
<path d="M3.85716 12.5C3.85716 12.0266 3.47339 11.6428 3 11.6428H0.857156C0.383953 11.6433 0.00046875 12.0268 0 12.5C0.00046875 12.9732 0.383953 13.3567 0.857156 13.3571H3C3.47339 13.3571 3.85716 12.9734 3.85716 12.5Z" fill="white"/>
<path d="M5.59483 18.2984C5.29858 18.2192 4.98264 18.3043 4.76622 18.5215L3.25117 20.0368C3.09039 20.1975 3.00006 20.4155 3.00006 20.6429C3.00006 20.8702 3.09039 21.0882 3.25117 21.2489C3.59026 21.5729 4.12412 21.5729 4.46322 21.2489L5.9785 19.7339C6.19572 19.5175 6.28084 19.2015 6.20167 18.9053C6.1225 18.609 5.89108 18.3775 5.59483 18.2984Z" fill="white"/>
<path d="M19.2338 18.5215C19.0174 18.3043 18.7014 18.2192 18.4052 18.2984C18.1089 18.3775 17.8775 18.6089 17.7984 18.9052C17.7192 19.2014 17.8043 19.5174 18.0215 19.7338L19.5368 21.2488C19.8759 21.5728 20.4098 21.5728 20.7489 21.2488C20.9097 21.0881 21 20.8701 21 20.6428C21 20.4154 20.9097 20.1975 20.7489 20.0367L19.2338 18.5215Z" fill="white"/>
<path d="M23.1428 11.6428H21C20.5266 11.6428 20.1428 12.0266 20.1428 12.5C20.1428 12.9734 20.5266 13.3571 21 13.3571H23.1428C23.6162 13.3571 24 12.9734 24 12.5C24 12.0266 23.6162 11.6428 23.1428 11.6428Z" fill="white"/>
<path d="M19.2338 6.47842L20.7489 4.96314C20.9654 4.74662 21.05 4.43106 20.9707 4.13528C20.8914 3.8395 20.6604 3.6085 20.3646 3.52923C20.0689 3.44997 19.7533 3.53453 19.5368 3.75104L18.0215 5.26609C17.8607 5.42683 17.7704 5.64489 17.7704 5.87223C17.7704 6.09958 17.8607 6.31764 18.0215 6.47837C18.3607 6.80237 18.8947 6.80237 19.2338 6.47842Z" fill="white"/>
</g>
<defs>
<clipPath id="clip0_630_6968">
<rect width="24" height="24" fill="white" transform="translate(0 0.5)"/>
</clipPath>
</defs>
</svg>
