<svg width="334" height="95" viewBox="0 0 334 95" fill="none" xmlns="http://www.w3.org/2000/svg">
<path opacity="0.3" d="M7.04464 28.1112C7.04464 28.1112 0.77491 28.1112 0 85.1768C0 85.1768 17.4003 95.0157 52.2712 85.8796L53.187 85.0363L62.345 26.3542L7.04464 28.1112Z" fill="black"/>
<path d="M7.04464 22.9809C7.04464 22.9809 0.634017 23.4026 0 80.2574C0 80.2574 18.457 90.0963 53.3279 81.0304L54.2437 80.1871L62.4155 21.4348L7.04464 22.9809Z" fill="#370563"/>
<path d="M7.39695 22.9106C7.39695 22.9106 1.76124 22.9106 0.986328 79.1329C0.986328 79.1329 19.4433 88.9718 54.3142 79.9059L63.4018 20.5914L7.39695 22.9106Z" fill="#702BA6"/>
<path style="mix-blend-mode:soft-light" opacity="0.5" d="M7.39695 22.9106C7.39695 22.9106 1.76124 22.9106 0.986328 79.1329C0.986328 79.1329 19.4433 88.9718 54.3142 79.9059L63.4018 20.5914L7.39695 22.9106Z" fill="url(#paint0_radial_1529_1030)"/>
<path d="M54.314 80.1871L32.4756 69.9968L56.2865 66.9749L54.314 80.1871Z" fill="#370563"/>
<path opacity="0.3" d="M327.294 33.1711C327.294 33.1711 333.704 33.8036 332.93 90.6583C332.93 90.6583 315.036 100.427 280.447 90.307L279.531 89.4636L272.487 30.0789L327.294 33.1711Z" fill="black"/>
<path d="M327.364 29.587C327.364 29.587 333.775 30.2195 332.93 87.0743C332.93 87.0743 314.191 96.3509 279.602 86.3012L278.686 85.3876L272.275 26.4948L327.364 29.587Z" fill="#370563"/>
<path d="M327.223 29.5167C327.223 29.5167 332.93 29.5167 332.084 86.1607C332.084 86.1607 313.345 95.5076 278.756 85.3876L271.712 25.5812L327.223 29.5167Z" fill="#702BA6"/>
<path style="mix-blend-mode:soft-light" opacity="0.5" d="M327.223 29.5167C327.223 29.5167 332.93 29.5167 332.084 86.1607C332.084 86.1607 313.345 95.5076 278.756 85.3876L271.712 25.5812L327.223 29.5167Z" fill="url(#paint1_radial_1529_1030)"/>
<path d="M278.686 85.3875L300.876 75.9L277.136 72.1753L278.686 85.3875Z" fill="#370563"/>
<path opacity="0.3" d="M234.727 9.41717C234.57 10.4302 234.03 11.3445 233.217 11.9721C232.405 12.5996 231.382 12.8925 230.36 12.7905C227.965 12.7905 227.894 11.5255 227.401 8.64412C209.437 7.37912 189.008 6.74661 171.044 6.4655C126.099 5.62217 38.1116 14.688 33.7439 17.9911C33.5934 18.9928 33.5934 20.0113 33.7439 21.013C33.7439 38.5122 32.8281 70.2075 32.8281 70.2075L39.2387 73.2294C52.4827 71.9644 64.3177 72.105 77.9842 71.1914L83.4791 66.3422C83.8231 66.0501 84.2601 65.8897 84.7119 65.8897C85.1636 65.8897 85.6007 66.0501 85.9447 66.3422L91.5804 70.2778C117.646 68.8722 141.95 67.8181 167.944 68.2397C210.185 68.863 252.336 72.3144 294.114 78.5706C295.382 78.0083 300.243 75.9703 301.158 75.4783C301.158 56.7142 301.933 37.2472 302.215 20.0291C280.056 14.6184 257.481 11.0687 234.727 9.41717V9.41717Z" fill="black"/>
<path d="M234.798 5.69258C234.641 6.70558 234.1 7.61995 233.288 8.24746C232.475 8.87498 231.453 9.16789 230.43 9.06592C227.964 9.06592 227.964 7.80092 227.471 4.91952C209.508 3.65452 189.078 3.02202 171.467 2.74091C126.169 1.89758 38.182 10.9634 33.8143 14.0556C33.6637 15.0574 33.6637 16.0759 33.8143 17.0776C33.2507 35.139 31.8418 69.5751 31.8418 69.5751L32.4758 69.9968C48.3967 67.9587 61.852 68.3101 77.6319 67.256L83.1972 62.4068C83.5229 62.1055 83.9506 61.9381 84.3948 61.9381C84.8389 61.9381 85.2667 62.1055 85.5924 62.4068L91.5803 66.764C117.645 65.3585 141.949 64.3043 167.944 64.726C212.252 65.4115 256.457 69.1687 300.242 75.9704C300.344 75.9801 300.447 75.9695 300.545 75.9394C300.643 75.9092 300.733 75.86 300.812 75.7947C300.89 75.7294 300.955 75.6492 301.003 75.5587C301.05 75.4682 301.079 75.3693 301.088 75.2676C301.088 55.5196 301.722 34.7876 302.004 16.5154C279.94 11.0605 257.461 7.44052 234.798 5.69258V5.69258Z" fill="#540C92"/>
<path d="M32.2645 69.5048C32.1636 69.5062 32.0655 69.4715 31.988 69.4071C31.9105 69.3427 31.8586 69.2527 31.8418 69.1534C31.8418 64.5853 32.828 22.9809 32.8985 15.1097C32.8985 13.0014 32.8985 13.5636 32.8985 13.0014C33.3916 12.5797 33.7438 10.7525 49.242 8.64417C59.2454 7.02778 72.9825 5.90334 86.6491 4.63834C119.125 1.68667 150.473 0 170.48 0H171.678C193.939 0 212.114 1.8975 227.119 2.95167H227.964V3.72473V4.63834C228.387 7.09806 229.021 6.95751 230.148 7.02778C230.911 7.08747 231.668 6.84995 232.259 6.36509C232.85 5.88024 233.23 5.18577 233.318 4.4275V3.58417C233.372 3.55333 233.433 3.53709 233.495 3.53709C233.556 3.53709 233.617 3.55333 233.671 3.58417H234.516C256.784 5.14443 278.832 8.98301 300.313 15.0395V15.0395V15.6017C276.291 12.2283 252.691 10.4714 229.867 8.5739C166.649 3.61181 103.061 6.34938 40.5067 16.7261L35.2232 65.6395C35.2232 66.0612 34.0961 68.8723 32.2645 69.5048Z" fill="#9447D0"/>
<path d="M234.798 4.77887C234.64 5.79187 234.1 6.70623 233.288 7.33375C232.475 7.96126 231.452 8.25418 230.43 8.1522C228.035 8.1522 227.964 6.8872 227.471 4.00581C209.507 2.74081 189.078 2.10831 171.466 1.8272C126.169 0.983864 38.1818 10.0497 33.8141 13.3528C33.6636 14.3545 33.6636 15.373 33.8141 16.3747C33.8141 34.155 32.3347 50.1783 32.1938 69.575C48.0443 67.537 61.4291 67.537 77.2795 66.5531L83.197 61.8445C83.6299 61.478 84.1791 61.2768 84.7468 61.2768C85.3145 61.2768 85.8638 61.478 86.2967 61.8445L92.0028 66.0611C118.068 64.6556 142.372 63.9528 168.367 64.3745C212.666 64.9412 256.872 68.581 300.665 75.2675C300.772 75.2876 300.882 75.2849 300.988 75.2596C301.094 75.2342 301.194 75.1868 301.28 75.1205C301.367 75.0542 301.438 74.9704 301.49 74.8746C301.542 74.7789 301.573 74.6733 301.581 74.5648C301.581 54.8167 302.144 34.0847 302.426 15.8125C280.233 10.2519 257.61 6.56105 234.798 4.77887V4.77887Z" fill="#9447D0"/>
<g style="mix-blend-mode:overlay" opacity="0.4">
<path d="M167.169 26.2136C212.241 26.6272 257.217 30.4093 301.722 37.5283L302.074 15.6017C279.99 10.1315 257.486 6.51131 234.798 4.77887C234.641 5.79187 234.1 6.70623 233.288 7.33375C232.475 7.96126 231.453 8.25418 230.43 8.1522C228.035 8.1522 227.965 6.8872 227.472 4.00581C209.508 2.74081 189.078 2.10831 171.467 1.8272C126.17 0.983864 38.1821 10.0497 33.8144 13.3528C33.6639 14.3545 33.6639 15.373 33.8144 16.3747C33.8144 22.278 33.8144 27.9706 33.3213 33.6631C77.69 27.8681 122.43 25.3781 167.169 26.2136V26.2136Z" fill="white"/>
</g>
<path style="mix-blend-mode:soft-light" opacity="0.6" d="M234.798 4.77887C234.64 5.79187 234.1 6.70623 233.288 7.33375C232.475 7.96126 231.452 8.25418 230.43 8.1522C228.035 8.1522 227.964 6.8872 227.471 4.00581C209.507 2.74081 189.078 2.10831 171.466 1.8272C126.169 0.983864 38.1818 10.0497 33.8141 13.3528C33.6636 14.3545 33.6636 15.373 33.8141 16.3747C33.8141 34.155 32.3347 50.1783 32.1938 69.575C48.0443 67.537 61.4291 67.537 77.2795 66.5531L83.197 61.8445C83.6299 61.478 84.1791 61.2768 84.7468 61.2768C85.3145 61.2768 85.8638 61.478 86.2967 61.8445L92.0028 66.0611C118.068 64.6556 142.372 63.9528 168.367 64.3745C212.666 64.9412 256.872 68.581 300.665 75.2675C300.772 75.2876 300.882 75.2849 300.988 75.2596C301.094 75.2342 301.194 75.1868 301.28 75.1205C301.367 75.0542 301.438 74.9704 301.49 74.8746C301.542 74.7789 301.573 74.6733 301.581 74.5648C301.581 54.8167 302.144 34.0847 302.426 15.8125C280.233 10.2519 257.61 6.56105 234.798 4.77887V4.77887Z" fill="url(#paint2_radial_1529_1030)"/>
<path d="M76.0117 66.6234H34.5892L33.2507 22.2781L31.8418 69.5751C42.2679 68.3803 57.5547 67.537 76.0117 66.6234Z" fill="#9447D0"/>
<path d="M265.653 70.2778L298.481 72.3158L301.933 24.1052L301.229 74.3539C301.231 74.4502 301.211 74.5458 301.171 74.6334C301.131 74.721 301.071 74.7982 300.996 74.8593C300.922 74.9203 300.834 74.9635 300.74 74.9855C300.646 75.0075 300.548 75.0078 300.454 74.9864C290.662 73.5808 279.672 72.3158 265.653 70.2778Z" fill="#9447D0"/>
<defs>
<radialGradient id="paint0_radial_1529_1030" cx="0" cy="0" r="1" gradientUnits="userSpaceOnUse" gradientTransform="translate(40.3356 36.5293) rotate(0.808062) scale(31.4191 79.927)">
<stop/>
<stop offset="1" stop-color="white"/>
</radialGradient>
<radialGradient id="paint1_radial_1529_1030" cx="0" cy="0" r="1" gradientUnits="userSpaceOnUse" gradientTransform="translate(-399476 -84095.1) rotate(-179.428) scale(269.656 733.794)">
<stop/>
<stop offset="1" stop-color="white"/>
</radialGradient>
<radialGradient id="paint2_radial_1529_1030" cx="0" cy="0" r="1" gradientUnits="userSpaceOnUse" gradientTransform="translate(162.012 24.054) rotate(0.571568) scale(152.313 124.6)">
<stop stop-color="white"/>
<stop offset="1"/>
</radialGradient>
</defs>
</svg>
