<svg width="269" height="83" viewBox="0 0 269 83" fill="none" xmlns="http://www.w3.org/2000/svg">
<path d="M0 21.4716C0 21.4716 1.87614 3.36565 27.1717 2.45711C52.4673 1.54857 189.49 -1.17706 235.812 0.57513C266.412 -0.00893186 269 20.0439 269 20.0439H250.691L249.85 73.1935C249.85 73.1935 122.467 95.2581 14.2975 73.1935V22.0556L0 21.4716Z" fill="#B40614"/>
<path style="mix-blend-mode:soft-light" opacity="0.47" d="M0 21.4716C0 21.4716 1.87614 3.36565 27.1717 2.45711C52.4673 1.54857 189.49 -1.17706 235.812 0.57513C266.412 -0.00893189 269 20.0439 269 20.0439H250.691L249.85 73.1935C249.85 73.1935 122.467 95.2581 14.2975 73.1935V22.0556L0 21.4716Z" fill="url(#paint0_linear_1529_1029)"/>
<path d="M114.256 72.9981C83.8309 73.0807 53.4616 70.4048 23.5209 65.0032V13.0037C23.5209 13.0037 22.0899 5.00881 7 8.77877C11.6831 5.9188 13.5043 2.27884 34.9033 2.27884C74.2542 0.523854 195.299 -0.711134 233.089 0.458855C241.659 -0.32959 250.281 1.26768 258 5.07381C247.203 1.75884 241.024 8.51878 241.089 10.7938L240.243 65.0032C198.431 70.0295 156.368 72.6987 114.256 72.9981V72.9981Z" fill="#DE0911"/>
<path style="mix-blend-mode:soft-light" d="M114.256 72.9981C83.8309 73.0807 53.4616 70.4048 23.5209 65.0032V13.0037C23.5209 13.0037 22.0899 5.00881 7 8.77877C11.6831 5.9188 13.5043 2.27884 34.9033 2.27884C74.2542 0.523854 195.299 -0.711134 233.089 0.458855C241.659 -0.32959 250.281 1.26768 258 5.07381C247.203 1.75884 241.024 8.51878 241.089 10.7938L240.243 65.0032C198.431 70.0295 156.368 72.6987 114.256 72.9981V72.9981Z" fill="url(#paint1_linear_1529_1029)"/>
<path style="mix-blend-mode:screen" opacity="0.44" d="M23.5209 13C23.5209 13 22.0899 5.00737 7 8.77625C11.6831 5.9171 13.5043 2.27818 34.9033 2.27818C74.2542 0.523703 195.299 -0.71093 233.089 0.458723C241.659 -0.329496 250.281 1.26731 258 5.07235C247.203 1.75834 241.024 8.51633 241.089 10.7907L23.5209 13Z" fill="url(#paint2_linear_1529_1029)"/>
<path d="M250.149 19H266C266 19 265.345 11.1986 258.074 11.0052C250.804 10.8117 249.494 16.0986 250.149 19Z" fill="#391059"/>
<path d="M14.8791 20H2C2 20 2.53221 12.1986 8.43956 12.0052C14.3469 11.8117 15.4113 17.0986 14.8791 20Z" fill="#391059"/>
<defs>
<linearGradient id="paint0_linear_1529_1029" x1="8473.5" y1="0" x2="8473.5" y2="1060.74" gradientUnits="userSpaceOnUse">
<stop stop-color="white"/>
<stop offset="1"/>
</linearGradient>
<linearGradient id="paint1_linear_1529_1029" x1="7845.73" y1="0" x2="7845.73" y2="819.79" gradientUnits="userSpaceOnUse">
<stop stop-color="white"/>
<stop offset="1"/>
</linearGradient>
<linearGradient id="paint2_linear_1529_1029" x1="132.533" y1="0.00385789" x2="132.533" y2="12.8051" gradientUnits="userSpaceOnUse">
<stop stop-color="white"/>
<stop offset="0.89"/>
</linearGradient>
</defs>
</svg>
