<svg width="280" height="56" viewBox="0 0 280 56" fill="none" xmlns="http://www.w3.org/2000/svg">
<rect width="280" height="56" rx="28" fill="url(#paint0_linear_619_13144)"/>
<path d="M13 17.7108C14.1371 11.7895 18.15 9.5609 21.4862 9" stroke="white" stroke-width="3" stroke-linecap="round"/>
<path d="M119.608 37.24C118.488 37.24 117.48 37.104 116.584 36.832C115.688 36.544 114.832 36.048 114.016 35.344C113.808 35.168 113.648 34.968 113.536 34.744C113.424 34.52 113.368 34.296 113.368 34.072C113.368 33.704 113.496 33.384 113.752 33.112C114.024 32.824 114.36 32.68 114.76 32.68C115.064 32.68 115.336 32.776 115.576 32.968C116.184 33.464 116.784 33.84 117.376 34.096C117.984 34.352 118.728 34.48 119.608 34.48C120.2 34.48 120.744 34.392 121.24 34.216C121.736 34.024 122.136 33.776 122.44 33.472C122.744 33.152 122.896 32.792 122.896 32.392C122.896 31.912 122.752 31.504 122.464 31.168C122.176 30.832 121.736 30.552 121.144 30.328C120.552 30.088 119.8 29.904 118.888 29.776C118.024 29.648 117.264 29.456 116.608 29.2C115.952 28.928 115.4 28.592 114.952 28.192C114.52 27.776 114.191 27.296 113.967 26.752C113.743 26.192 113.631 25.568 113.631 24.88C113.631 23.84 113.895 22.952 114.423 22.216C114.967 21.48 115.695 20.92 116.607 20.536C117.519 20.152 118.527 19.96 119.632 19.96C120.672 19.96 121.632 20.12 122.512 20.44C123.408 20.744 124.136 21.136 124.696 21.616C125.16 21.984 125.391 22.408 125.391 22.888C125.391 23.24 125.256 23.56 124.984 23.848C124.712 24.136 124.392 24.28 124.024 24.28C123.784 24.28 123.568 24.208 123.376 24.064C123.12 23.84 122.776 23.632 122.344 23.44C121.912 23.232 121.456 23.064 120.976 22.936C120.496 22.792 120.048 22.72 119.632 22.72C118.944 22.72 118.36 22.808 117.88 22.984C117.416 23.16 117.064 23.4 116.824 23.704C116.584 24.008 116.464 24.36 116.464 24.76C116.464 25.24 116.6 25.64 116.871 25.96C117.16 26.264 117.568 26.512 118.096 26.704C118.624 26.88 119.256 27.04 119.992 27.184C120.952 27.36 121.792 27.568 122.512 27.808C123.248 28.048 123.856 28.36 124.336 28.744C124.816 29.112 125.176 29.584 125.416 30.16C125.656 30.72 125.776 31.408 125.776 32.224C125.776 33.264 125.488 34.16 124.912 34.912C124.336 35.664 123.576 36.24 122.632 36.64C121.704 37.04 120.696 37.24 119.608 37.24ZM138.32 23.92C138.736 23.92 139.08 24.056 139.352 24.328C139.624 24.6 139.76 24.952 139.76 25.384L139.76 35.536C139.76 35.952 139.624 36.304 139.352 36.592C139.08 36.864 138.736 37 138.32 37C137.904 37 137.56 36.864 137.288 36.592C137.016 36.304 136.88 35.952 136.88 35.536L136.88 34.36L137.408 34.576C137.408 34.784 137.296 35.04 137.072 35.344C136.848 35.632 136.544 35.92 136.16 36.208C135.776 36.496 135.32 36.744 134.792 36.952C134.28 37.144 133.72 37.24 133.112 37.24C132.008 37.24 131.008 36.96 130.112 36.4C129.216 35.824 128.504 35.04 127.976 34.048C127.464 33.04 127.208 31.888 127.208 30.592C127.208 29.28 127.464 28.128 127.976 27.136C128.504 26.128 129.208 25.344 130.088 24.784C130.968 24.208 131.944 23.92 133.016 23.92C133.704 23.92 134.336 24.024 134.912 24.232C135.488 24.44 135.984 24.704 136.4 25.024C136.832 25.344 137.16 25.672 137.384 26.008C137.624 26.328 137.744 26.6 137.744 26.824L136.88 27.136L136.88 25.384C136.88 24.968 137.016 24.624 137.288 24.352C137.56 24.064 137.904 23.92 138.32 23.92ZM133.472 34.6C134.176 34.6 134.792 34.424 135.32 34.072C135.848 33.72 136.256 33.24 136.544 32.632C136.848 32.024 137 31.344 137 30.592C137 29.824 136.848 29.136 136.544 28.528C136.256 27.92 135.848 27.44 135.32 27.088C134.792 26.736 134.176 26.56 133.472 26.56C132.784 26.56 132.176 26.736 131.648 27.088C131.12 27.44 130.704 27.92 130.4 28.528C130.112 29.136 129.968 29.824 129.968 30.592C129.968 31.344 130.112 32.024 130.4 32.632C130.704 33.24 131.12 33.72 131.648 34.072C132.176 34.424 132.784 34.6 133.472 34.6ZM142.693 24.16C142.997 24.16 143.277 24.24 143.533 24.4C143.789 24.544 143.981 24.768 144.109 25.072L147.637 33.136L147.109 33.376L150.709 25.096C150.981 24.456 151.405 24.152 151.981 24.184C152.381 24.184 152.701 24.312 152.941 24.568C153.197 24.808 153.325 25.112 153.325 25.48C153.325 25.592 153.301 25.712 153.253 25.84C153.221 25.968 153.181 26.088 153.133 26.2L148.645 36.088C148.389 36.664 147.981 36.968 147.421 37C147.117 37.048 146.821 36.992 146.533 36.832C146.261 36.672 146.053 36.424 145.909 36.088L141.445 26.2C141.413 26.12 141.373 26.016 141.325 25.888C141.293 25.76 141.277 25.608 141.277 25.432C141.277 25.144 141.405 24.864 141.661 24.592C141.917 24.304 142.261 24.16 142.693 24.16ZM161.044 37.24C159.684 37.24 158.5 36.96 157.492 36.4C156.5 35.824 155.732 35.048 155.188 34.072C154.66 33.096 154.396 31.992 154.396 30.76C154.396 29.32 154.684 28.096 155.26 27.088C155.852 26.064 156.62 25.28 157.564 24.736C158.508 24.192 159.508 23.92 160.564 23.92C161.38 23.92 162.148 24.088 162.868 24.424C163.604 24.76 164.252 25.224 164.812 25.816C165.372 26.392 165.812 27.064 166.132 27.832C166.468 28.6 166.636 29.416 166.636 30.28C166.62 30.664 166.468 30.976 166.18 31.216C165.892 31.456 165.556 31.576 165.172 31.576L156.004 31.576L155.284 29.176L164.092 29.176L163.564 29.656L163.564 29.008C163.532 28.544 163.364 28.128 163.06 27.76C162.772 27.392 162.404 27.104 161.956 26.896C161.524 26.672 161.06 26.56 160.564 26.56C160.084 26.56 159.636 26.624 159.22 26.752C158.804 26.88 158.444 27.096 158.14 27.4C157.836 27.704 157.596 28.112 157.42 28.624C157.244 29.136 157.156 29.784 157.156 30.568C157.156 31.432 157.332 32.168 157.684 32.776C158.052 33.368 158.516 33.824 159.076 34.144C159.652 34.448 160.26 34.6 160.9 34.6C161.492 34.6 161.964 34.552 162.316 34.456C162.668 34.36 162.948 34.248 163.156 34.12C163.38 33.976 163.58 33.856 163.756 33.76C164.044 33.616 164.316 33.544 164.572 33.544C164.924 33.544 165.212 33.664 165.436 33.904C165.676 34.144 165.796 34.424 165.796 34.744C165.796 35.176 165.572 35.568 165.124 35.92C164.708 36.272 164.124 36.584 163.372 36.856C162.62 37.112 161.844 37.24 161.044 37.24Z" fill="#23003D"/>
<defs>
<linearGradient id="paint0_linear_619_13144" x1="140" y1="0" x2="140" y2="56" gradientUnits="userSpaceOnUse">
<stop stop-color="#FFE486"/>
<stop offset="0.515625" stop-color="#FFCC4E"/>
<stop offset="1" stop-color="#FFD02B"/>
<stop offset="1" stop-color="#D2A61B"/>
</linearGradient>
</defs>
</svg>
