<svg width="264" height="56" viewBox="0 0 264 56" fill="none" xmlns="http://www.w3.org/2000/svg">
<rect width="264" height="56" rx="28" fill="url(#paint0_linear_630_2251)"/>
<path d="M17 17.7108C18.1371 11.7895 22.15 9.5609 25.4862 9" stroke="white" stroke-width="3" stroke-linecap="round"/>
<path d="M109.478 35.24C108.358 35.24 107.35 35.104 106.454 34.832C105.558 34.544 104.702 34.048 103.886 33.344C103.678 33.168 103.518 32.968 103.406 32.744C103.294 32.52 103.238 32.296 103.238 32.072C103.238 31.704 103.366 31.384 103.622 31.112C103.894 30.824 104.23 30.68 104.63 30.68C104.934 30.68 105.206 30.776 105.446 30.968C106.054 31.464 106.654 31.84 107.246 32.096C107.854 32.352 108.598 32.48 109.478 32.48C110.07 32.48 110.614 32.392 111.11 32.216C111.606 32.024 112.006 31.776 112.31 31.472C112.614 31.152 112.766 30.792 112.766 30.392C112.766 29.912 112.622 29.504 112.334 29.168C112.046 28.832 111.606 28.552 111.014 28.328C110.422 28.088 109.67 27.904 108.758 27.776C107.894 27.648 107.134 27.456 106.478 27.2C105.822 26.928 105.27 26.592 104.822 26.192C104.39 25.776 104.062 25.296 103.838 24.752C103.614 24.192 103.502 23.568 103.502 22.88C103.502 21.84 103.766 20.952 104.294 20.216C104.838 19.48 105.566 18.92 106.478 18.536C107.39 18.152 108.398 17.96 109.502 17.96C110.542 17.96 111.502 18.12 112.382 18.44C113.278 18.744 114.006 19.136 114.566 19.616C115.03 19.984 115.262 20.408 115.262 20.888C115.262 21.24 115.126 21.56 114.854 21.848C114.582 22.136 114.262 22.28 113.894 22.28C113.654 22.28 113.438 22.208 113.246 22.064C112.99 21.84 112.646 21.632 112.214 21.44C111.782 21.232 111.326 21.064 110.846 20.936C110.366 20.792 109.918 20.72 109.502 20.72C108.814 20.72 108.23 20.808 107.75 20.984C107.286 21.16 106.934 21.4 106.694 21.704C106.454 22.008 106.334 22.36 106.334 22.76C106.334 23.24 106.47 23.64 106.742 23.96C107.03 24.264 107.438 24.512 107.966 24.704C108.494 24.88 109.126 25.04 109.862 25.184C110.822 25.36 111.662 25.568 112.382 25.808C113.118 26.048 113.726 26.36 114.206 26.744C114.686 27.112 115.046 27.584 115.286 28.16C115.526 28.72 115.646 29.408 115.646 30.224C115.646 31.264 115.358 32.16 114.782 32.912C114.206 33.664 113.446 34.24 112.502 34.64C111.574 35.04 110.566 35.24 109.478 35.24ZM125.406 35.24C124.046 35.24 122.862 34.96 121.854 34.4C120.862 33.824 120.094 33.048 119.55 32.072C119.022 31.096 118.758 29.992 118.758 28.76C118.758 27.32 119.046 26.096 119.622 25.088C120.214 24.064 120.982 23.28 121.926 22.736C122.87 22.192 123.87 21.92 124.926 21.92C125.742 21.92 126.51 22.088 127.23 22.424C127.966 22.76 128.614 23.224 129.174 23.816C129.734 24.392 130.174 25.064 130.494 25.832C130.83 26.6 130.998 27.416 130.998 28.28C130.982 28.664 130.83 28.976 130.542 29.216C130.254 29.456 129.918 29.576 129.534 29.576L120.366 29.576L119.646 27.176L128.454 27.176L127.926 27.656L127.926 27.008C127.894 26.544 127.726 26.128 127.422 25.76C127.134 25.392 126.766 25.104 126.318 24.896C125.886 24.672 125.422 24.56 124.926 24.56C124.446 24.56 123.998 24.624 123.582 24.752C123.166 24.88 122.806 25.096 122.502 25.4C122.198 25.704 121.958 26.112 121.782 26.624C121.606 27.136 121.518 27.784 121.518 28.568C121.518 29.432 121.694 30.168 122.046 30.776C122.414 31.368 122.878 31.824 123.438 32.144C124.014 32.448 124.622 32.6 125.262 32.6C125.854 32.6 126.326 32.552 126.678 32.456C127.03 32.36 127.31 32.248 127.518 32.12C127.742 31.976 127.942 31.856 128.118 31.76C128.406 31.616 128.678 31.544 128.934 31.544C129.286 31.544 129.574 31.664 129.798 31.904C130.038 32.144 130.158 32.424 130.158 32.744C130.158 33.176 129.934 33.568 129.486 33.92C129.07 34.272 128.486 34.584 127.734 34.856C126.982 35.112 126.206 35.24 125.406 35.24ZM141.579 21.92C142.763 21.92 143.659 22.168 144.267 22.664C144.891 23.16 145.315 23.824 145.539 24.656C145.779 25.472 145.899 26.384 145.899 27.392L145.899 33.536C145.899 33.952 145.763 34.304 145.491 34.592C145.219 34.864 144.875 35 144.459 35C144.043 35 143.699 34.864 143.427 34.592C143.155 34.304 143.019 33.952 143.019 33.536L143.019 27.392C143.019 26.864 142.947 26.392 142.803 25.976C142.675 25.544 142.435 25.2 142.083 24.944C141.731 24.688 141.227 24.56 140.571 24.56C139.931 24.56 139.387 24.688 138.939 24.944C138.507 25.2 138.171 25.544 137.931 25.976C137.707 26.392 137.595 26.864 137.595 27.392L137.595 33.536C137.595 33.952 137.459 34.304 137.187 34.592C136.915 34.864 136.571 35 136.155 35C135.739 35 135.395 34.864 135.123 34.592C134.851 34.304 134.715 33.952 134.715 33.536L134.715 23.624C134.715 23.208 134.851 22.864 135.123 22.592C135.395 22.304 135.739 22.16 136.155 22.16C136.571 22.16 136.915 22.304 137.187 22.592C137.459 22.864 137.595 23.208 137.595 23.624L137.595 24.656L137.235 24.584C137.379 24.312 137.587 24.024 137.859 23.72C138.131 23.4 138.451 23.104 138.819 22.832C139.187 22.56 139.603 22.344 140.067 22.184C140.531 22.008 141.035 21.92 141.579 21.92ZM160.724 17.24C161.14 17.24 161.484 17.376 161.756 17.648C162.028 17.92 162.164 18.272 162.164 18.704L162.164 33.536C162.164 33.952 162.028 34.304 161.756 34.592C161.484 34.864 161.14 35 160.724 35C160.308 35 159.964 34.864 159.692 34.592C159.42 34.304 159.284 33.952 159.284 33.536L159.284 32.36L159.812 32.576C159.812 32.784 159.7 33.04 159.476 33.344C159.252 33.632 158.948 33.92 158.564 34.208C158.18 34.496 157.724 34.744 157.196 34.952C156.684 35.144 156.124 35.24 155.516 35.24C154.412 35.24 153.412 34.96 152.516 34.4C151.62 33.824 150.908 33.04 150.38 32.048C149.868 31.04 149.612 29.888 149.612 28.592C149.612 27.28 149.868 26.128 150.38 25.136C150.908 24.128 151.612 23.344 152.492 22.784C153.372 22.208 154.348 21.92 155.42 21.92C156.108 21.92 156.74 22.024 157.316 22.232C157.892 22.44 158.388 22.704 158.804 23.024C159.236 23.344 159.564 23.672 159.788 24.008C160.028 24.328 160.148 24.6 160.148 24.824L159.284 25.136L159.284 18.704C159.284 18.288 159.42 17.944 159.692 17.672C159.964 17.384 160.308 17.24 160.724 17.24ZM155.876 32.6C156.58 32.6 157.196 32.424 157.724 32.072C158.252 31.72 158.66 31.24 158.948 30.632C159.252 30.024 159.404 29.344 159.404 28.592C159.404 27.824 159.252 27.136 158.948 26.528C158.66 25.92 158.252 25.44 157.724 25.088C157.196 24.736 156.58 24.56 155.876 24.56C155.188 24.56 154.58 24.736 154.052 25.088C153.524 25.44 153.108 25.92 152.804 26.528C152.516 27.136 152.372 27.824 152.372 28.592C152.372 29.344 152.516 30.024 152.804 30.632C153.108 31.24 153.524 31.72 154.052 32.072C154.58 32.424 155.188 32.6 155.876 32.6Z" fill="#23003D"/>
<defs>
<linearGradient id="paint0_linear_630_2251" x1="132" y1="0" x2="132" y2="56" gradientUnits="userSpaceOnUse">
<stop stop-color="#FFE486"/>
<stop offset="0.515625" stop-color="#FFCC4E"/>
<stop offset="1" stop-color="#FFD02B"/>
<stop offset="1" stop-color="#D2A61B"/>
</linearGradient>
</defs>
</svg>
