<svg width="297" height="44" viewBox="0 0 297 44" fill="none" xmlns="http://www.w3.org/2000/svg">
<rect width="297" height="44" rx="22" fill="url(#paint0_linear_814_319)"/>
<path d="M37.4354 13.082C36.9352 12.5686 36.1949 12.3773 35.5046 12.5787L19.408 17.2595C18.6797 17.4619 18.1635 18.0427 18.0244 18.7806C17.8824 19.5315 18.3786 20.4848 19.0268 20.8834L24.0599 23.9768C24.5761 24.2939 25.2424 24.2144 25.6696 23.7835L31.4329 17.9843C31.723 17.6823 32.2032 17.6823 32.4934 17.9843C32.7835 18.2762 32.7835 18.7493 32.4934 19.0513L26.72 24.8516C26.2918 25.2814 26.2118 25.9508 26.5269 26.4702L29.6022 31.5538C29.9623 32.1577 30.5826 32.5 31.2628 32.5C31.3429 32.5 31.4329 32.5 31.513 32.4899C32.2933 32.3893 32.9135 31.8558 33.1436 31.1008L37.9156 15.0248C38.1257 14.3403 37.9356 13.5954 37.4354 13.082Z" fill="#D58900"/>
<path d="M57.4 29.18C56.56 29.18 55.804 29.078 55.132 28.874C54.46 28.658 53.818 28.286 53.206 27.758C53.05 27.626 52.93 27.476 52.846 27.308C52.762 27.14 52.72 26.972 52.72 26.804C52.72 26.528 52.816 26.288 53.008 26.084C53.212 25.868 53.464 25.76 53.764 25.76C53.992 25.76 54.196 25.832 54.376 25.976C54.832 26.348 55.282 26.63 55.726 26.822C56.182 27.014 56.74 27.11 57.4 27.11C57.844 27.11 58.252 27.044 58.624 26.912C58.996 26.768 59.296 26.582 59.524 26.354C59.752 26.114 59.866 25.844 59.866 25.544C59.866 25.184 59.758 24.878 59.542 24.626C59.326 24.374 58.996 24.164 58.552 23.996C58.108 23.816 57.544 23.678 56.86 23.582C56.212 23.486 55.642 23.342 55.15 23.15C54.658 22.946 54.244 22.694 53.908 22.394C53.584 22.082 53.338 21.722 53.17 21.314C53.002 20.894 52.918 20.426 52.918 19.91C52.918 19.13 53.116 18.464 53.512 17.912C53.92 17.36 54.466 16.94 55.15 16.652C55.834 16.364 56.59 16.22 57.418 16.22C58.198 16.22 58.918 16.34 59.578 16.58C60.25 16.808 60.796 17.102 61.216 17.462C61.564 17.738 61.738 18.056 61.738 18.416C61.738 18.68 61.636 18.92 61.432 19.136C61.228 19.352 60.988 19.46 60.712 19.46C60.532 19.46 60.37 19.406 60.226 19.298C60.034 19.13 59.776 18.974 59.452 18.83C59.128 18.674 58.786 18.548 58.426 18.452C58.066 18.344 57.73 18.29 57.418 18.29C56.902 18.29 56.464 18.356 56.104 18.488C55.756 18.62 55.492 18.8 55.312 19.028C55.132 19.256 55.042 19.52 55.042 19.82C55.042 20.18 55.144 20.48 55.348 20.72C55.564 20.948 55.87 21.134 56.266 21.278C56.662 21.41 57.136 21.53 57.688 21.638C58.408 21.77 59.038 21.926 59.578 22.106C60.13 22.286 60.586 22.52 60.946 22.808C61.306 23.084 61.576 23.438 61.756 23.87C61.936 24.29 62.026 24.806 62.026 25.418C62.026 26.198 61.81 26.87 61.378 27.434C60.946 27.998 60.376 28.43 59.668 28.73C58.972 29.03 58.216 29.18 57.4 29.18ZM68.7882 19.19C69.6522 19.19 70.3062 19.376 70.7502 19.748C71.2062 20.12 71.5182 20.618 71.6862 21.242C71.8542 21.854 71.9382 22.538 71.9382 23.294V27.902C71.9382 28.214 71.8362 28.478 71.6322 28.694C71.4282 28.898 71.1702 29 70.8582 29C70.5462 29 70.2882 28.898 70.0842 28.694C69.8802 28.478 69.7782 28.214 69.7782 27.902V23.294C69.7782 22.898 69.7302 22.544 69.6342 22.232C69.5382 21.908 69.3642 21.65 69.1122 21.458C68.8602 21.266 68.5002 21.17 68.0322 21.17C67.5762 21.17 67.1862 21.266 66.8622 21.458C66.5382 21.65 66.2922 21.908 66.1242 22.232C65.9682 22.544 65.8902 22.898 65.8902 23.294V27.902C65.8902 28.214 65.7882 28.478 65.5842 28.694C65.3802 28.898 65.1222 29 64.8102 29C64.4982 29 64.2402 28.898 64.0362 28.694C63.8322 28.478 63.7302 28.214 63.7302 27.902V16.778C63.7302 16.466 63.8322 16.208 64.0362 16.004C64.2402 15.788 64.4982 15.68 64.8102 15.68C65.1222 15.68 65.3802 15.788 65.5842 16.004C65.7882 16.208 65.8902 16.466 65.8902 16.778V21.242L65.6202 21.188C65.7282 20.984 65.8782 20.768 66.0702 20.54C66.2622 20.3 66.4962 20.078 66.7722 19.874C67.0482 19.67 67.3542 19.508 67.6902 19.388C68.0262 19.256 68.3922 19.19 68.7882 19.19ZM81.9811 19.19C82.2931 19.19 82.5511 19.292 82.7551 19.496C82.9591 19.7 83.0611 19.964 83.0611 20.288V27.902C83.0611 28.214 82.9591 28.478 82.7551 28.694C82.5511 28.898 82.2931 29 81.9811 29C81.6691 29 81.4111 28.898 81.2071 28.694C81.0031 28.478 80.9011 28.214 80.9011 27.902V27.02L81.2971 27.182C81.2971 27.338 81.2131 27.53 81.0451 27.758C80.8771 27.974 80.6491 28.19 80.3611 28.406C80.0731 28.622 79.7311 28.808 79.3351 28.964C78.9511 29.108 78.5311 29.18 78.0751 29.18C77.2471 29.18 76.4971 28.97 75.8251 28.55C75.1531 28.118 74.6191 27.53 74.2231 26.786C73.8391 26.03 73.6471 25.166 73.6471 24.194C73.6471 23.21 73.8391 22.346 74.2231 21.602C74.6191 20.846 75.1471 20.258 75.8071 19.838C76.4671 19.406 77.1991 19.19 78.0031 19.19C78.5191 19.19 78.9931 19.268 79.4251 19.424C79.8571 19.58 80.2291 19.778 80.5411 20.018C80.8651 20.258 81.1111 20.504 81.2791 20.756C81.4591 20.996 81.5491 21.2 81.5491 21.368L80.9011 21.602V20.288C80.9011 19.976 81.0031 19.718 81.2071 19.514C81.4111 19.298 81.6691 19.19 81.9811 19.19ZM78.3451 27.2C78.8731 27.2 79.3351 27.068 79.7311 26.804C80.1271 26.54 80.4331 26.18 80.6491 25.724C80.8771 25.268 80.9911 24.758 80.9911 24.194C80.9911 23.618 80.8771 23.102 80.6491 22.646C80.4331 22.19 80.1271 21.83 79.7311 21.566C79.3351 21.302 78.8731 21.17 78.3451 21.17C77.8291 21.17 77.3731 21.302 76.9771 21.566C76.5811 21.83 76.2691 22.19 76.0411 22.646C75.8251 23.102 75.7171 23.618 75.7171 24.194C75.7171 24.758 75.8251 25.268 76.0411 25.724C76.2691 26.18 76.5811 26.54 76.9771 26.804C77.3731 27.068 77.8291 27.2 78.3451 27.2ZM86.2998 29C85.9878 29 85.7298 28.898 85.5258 28.694C85.3218 28.478 85.2198 28.214 85.2198 27.902V20.468C85.2198 20.156 85.3218 19.898 85.5258 19.694C85.7298 19.478 85.9878 19.37 86.2998 19.37C86.6118 19.37 86.8698 19.478 87.0738 19.694C87.2778 19.898 87.3798 20.156 87.3798 20.468V22.16L87.2538 20.954C87.3858 20.666 87.5538 20.414 87.7578 20.198C87.9738 19.97 88.2138 19.784 88.4778 19.64C88.7418 19.484 89.0238 19.37 89.3238 19.298C89.6238 19.226 89.9238 19.19 90.2238 19.19C90.5838 19.19 90.8838 19.292 91.1238 19.496C91.3758 19.7 91.5018 19.94 91.5018 20.216C91.5018 20.612 91.3998 20.9 91.1958 21.08C90.9918 21.248 90.7698 21.332 90.5298 21.332C90.3018 21.332 90.0918 21.29 89.8998 21.206C89.7198 21.122 89.5098 21.08 89.2698 21.08C89.0538 21.08 88.8318 21.134 88.6038 21.242C88.3878 21.338 88.1838 21.494 87.9918 21.71C87.8118 21.926 87.6618 22.196 87.5418 22.52C87.4338 22.832 87.3798 23.204 87.3798 23.636V27.902C87.3798 28.214 87.2778 28.478 87.0738 28.694C86.8698 28.898 86.6118 29 86.2998 29ZM96.9762 29.18C95.9562 29.18 95.0682 28.97 94.3122 28.55C93.5682 28.118 92.9922 27.536 92.5842 26.804C92.1882 26.072 91.9902 25.244 91.9902 24.32C91.9902 23.24 92.2062 22.322 92.6382 21.566C93.0822 20.798 93.6582 20.21 94.3662 19.802C95.0742 19.394 95.8242 19.19 96.6162 19.19C97.2282 19.19 97.8042 19.316 98.3442 19.568C98.8962 19.82 99.3822 20.168 99.8022 20.612C100.222 21.044 100.552 21.548 100.792 22.124C101.044 22.7 101.17 23.312 101.17 23.96C101.158 24.248 101.044 24.482 100.828 24.662C100.612 24.842 100.36 24.932 100.072 24.932H93.1962L92.6562 23.132H99.2622L98.8662 23.492V23.006C98.8422 22.658 98.7162 22.346 98.4882 22.07C98.2722 21.794 97.9962 21.578 97.6602 21.422C97.3362 21.254 96.9882 21.17 96.6162 21.17C96.2562 21.17 95.9202 21.218 95.6082 21.314C95.2962 21.41 95.0262 21.572 94.7982 21.8C94.5702 22.028 94.3902 22.334 94.2582 22.718C94.1262 23.102 94.0602 23.588 94.0602 24.176C94.0602 24.824 94.1922 25.376 94.4562 25.832C94.7322 26.276 95.0802 26.618 95.5002 26.858C95.9322 27.086 96.3882 27.2 96.8682 27.2C97.3122 27.2 97.6662 27.164 97.9302 27.092C98.1942 27.02 98.4042 26.936 98.5602 26.84C98.7282 26.732 98.8782 26.642 99.0102 26.57C99.2262 26.462 99.4302 26.408 99.6222 26.408C99.8862 26.408 100.102 26.498 100.27 26.678C100.45 26.858 100.54 27.068 100.54 27.308C100.54 27.632 100.372 27.926 100.036 28.19C99.7242 28.454 99.2862 28.688 98.7222 28.892C98.1582 29.084 97.5762 29.18 96.9762 29.18ZM113.862 29.18C112.95 29.18 112.098 29.012 111.306 28.676C110.514 28.34 109.818 27.878 109.218 27.29C108.618 26.69 108.144 26 107.796 25.22C107.46 24.44 107.292 23.6 107.292 22.7C107.292 21.8 107.46 20.96 107.796 20.18C108.144 19.4 108.618 18.716 109.218 18.128C109.818 17.528 110.514 17.06 111.306 16.724C112.098 16.388 112.95 16.22 113.862 16.22C114.426 16.22 114.972 16.28 115.5 16.4C116.028 16.52 116.514 16.7 116.958 16.94C117.138 17.036 117.27 17.168 117.354 17.336C117.45 17.492 117.498 17.654 117.498 17.822C117.498 18.11 117.402 18.368 117.21 18.596C117.018 18.824 116.772 18.938 116.472 18.938C116.376 18.938 116.274 18.926 116.166 18.902C116.07 18.878 115.974 18.842 115.878 18.794C115.578 18.662 115.26 18.56 114.924 18.488C114.588 18.416 114.234 18.38 113.862 18.38C113.082 18.38 112.368 18.578 111.72 18.974C111.084 19.358 110.574 19.88 110.19 20.54C109.818 21.188 109.632 21.908 109.632 22.7C109.632 23.48 109.818 24.2 110.19 24.86C110.574 25.52 111.084 26.048 111.72 26.444C112.368 26.828 113.082 27.02 113.862 27.02C114.222 27.02 114.618 26.984 115.05 26.912C115.482 26.84 115.836 26.744 116.112 26.624L115.95 27.164V24.086L116.256 24.356H114.258C113.946 24.356 113.682 24.254 113.466 24.05C113.262 23.846 113.16 23.588 113.16 23.276C113.16 22.964 113.262 22.706 113.466 22.502C113.682 22.298 113.946 22.196 114.258 22.196H117.21C117.522 22.196 117.78 22.304 117.984 22.52C118.188 22.724 118.29 22.982 118.29 23.294V27.11C118.29 27.35 118.23 27.548 118.11 27.704C118.002 27.86 117.876 27.986 117.732 28.082C117.18 28.418 116.574 28.688 115.914 28.892C115.266 29.084 114.582 29.18 113.862 29.18ZM128.226 19.19C128.538 19.19 128.796 19.292 129 19.496C129.204 19.7 129.306 19.964 129.306 20.288V27.902C129.306 28.214 129.204 28.478 129 28.694C128.796 28.898 128.538 29 128.226 29C127.914 29 127.656 28.898 127.452 28.694C127.248 28.478 127.146 28.214 127.146 27.902V27.02L127.542 27.182C127.542 27.338 127.458 27.53 127.29 27.758C127.122 27.974 126.894 28.19 126.606 28.406C126.318 28.622 125.976 28.808 125.58 28.964C125.196 29.108 124.776 29.18 124.32 29.18C123.492 29.18 122.742 28.97 122.07 28.55C121.398 28.118 120.864 27.53 120.468 26.786C120.084 26.03 119.892 25.166 119.892 24.194C119.892 23.21 120.084 22.346 120.468 21.602C120.864 20.846 121.392 20.258 122.052 19.838C122.712 19.406 123.444 19.19 124.248 19.19C124.764 19.19 125.238 19.268 125.67 19.424C126.102 19.58 126.474 19.778 126.786 20.018C127.11 20.258 127.356 20.504 127.524 20.756C127.704 20.996 127.794 21.2 127.794 21.368L127.146 21.602V20.288C127.146 19.976 127.248 19.718 127.452 19.514C127.656 19.298 127.914 19.19 128.226 19.19ZM124.59 27.2C125.118 27.2 125.58 27.068 125.976 26.804C126.372 26.54 126.678 26.18 126.894 25.724C127.122 25.268 127.236 24.758 127.236 24.194C127.236 23.618 127.122 23.102 126.894 22.646C126.678 22.19 126.372 21.83 125.976 21.566C125.58 21.302 125.118 21.17 124.59 21.17C124.074 21.17 123.618 21.302 123.222 21.566C122.826 21.83 122.514 22.19 122.286 22.646C122.07 23.102 121.962 23.618 121.962 24.194C121.962 24.758 122.07 25.268 122.286 25.724C122.514 26.18 122.826 26.54 123.222 26.804C123.618 27.068 124.074 27.2 124.59 27.2ZM136.522 19.19C137.482 19.19 138.19 19.424 138.646 19.892C139.102 20.348 139.402 20.942 139.546 21.674L139.24 21.512L139.384 21.224C139.528 20.948 139.75 20.654 140.05 20.342C140.35 20.018 140.71 19.748 141.13 19.532C141.562 19.304 142.042 19.19 142.57 19.19C143.434 19.19 144.088 19.376 144.532 19.748C144.988 20.12 145.3 20.618 145.468 21.242C145.636 21.854 145.72 22.538 145.72 23.294V27.902C145.72 28.214 145.618 28.478 145.414 28.694C145.21 28.898 144.952 29 144.64 29C144.328 29 144.07 28.898 143.866 28.694C143.662 28.478 143.56 28.214 143.56 27.902V23.294C143.56 22.898 143.512 22.544 143.416 22.232C143.32 21.908 143.146 21.65 142.894 21.458C142.642 21.266 142.282 21.17 141.814 21.17C141.358 21.17 140.968 21.266 140.644 21.458C140.32 21.65 140.074 21.908 139.906 22.232C139.75 22.544 139.672 22.898 139.672 23.294V27.902C139.672 28.214 139.57 28.478 139.366 28.694C139.162 28.898 138.904 29 138.592 29C138.28 29 138.022 28.898 137.818 28.694C137.614 28.478 137.512 28.214 137.512 27.902V23.294C137.512 22.898 137.464 22.544 137.368 22.232C137.272 21.908 137.098 21.65 136.846 21.458C136.594 21.266 136.234 21.17 135.766 21.17C135.31 21.17 134.92 21.266 134.596 21.458C134.272 21.65 134.026 21.908 133.858 22.232C133.702 22.544 133.624 22.898 133.624 23.294V27.902C133.624 28.214 133.522 28.478 133.318 28.694C133.114 28.898 132.856 29 132.544 29C132.232 29 131.974 28.898 131.77 28.694C131.566 28.478 131.464 28.214 131.464 27.902V20.468C131.464 20.156 131.566 19.898 131.77 19.694C131.974 19.478 132.232 19.37 132.544 19.37C132.856 19.37 133.114 19.478 133.318 19.694C133.522 19.898 133.624 20.156 133.624 20.468V21.242L133.354 21.188C133.462 20.984 133.612 20.768 133.804 20.54C133.996 20.3 134.23 20.078 134.506 19.874C134.782 19.67 135.088 19.508 135.424 19.388C135.76 19.256 136.126 19.19 136.522 19.19ZM152.414 29.18C151.394 29.18 150.506 28.97 149.75 28.55C149.006 28.118 148.43 27.536 148.022 26.804C147.626 26.072 147.428 25.244 147.428 24.32C147.428 23.24 147.644 22.322 148.076 21.566C148.52 20.798 149.096 20.21 149.804 19.802C150.512 19.394 151.262 19.19 152.054 19.19C152.666 19.19 153.242 19.316 153.782 19.568C154.334 19.82 154.82 20.168 155.24 20.612C155.66 21.044 155.99 21.548 156.23 22.124C156.482 22.7 156.608 23.312 156.608 23.96C156.596 24.248 156.482 24.482 156.266 24.662C156.05 24.842 155.798 24.932 155.51 24.932H148.634L148.094 23.132H154.7L154.304 23.492V23.006C154.28 22.658 154.154 22.346 153.926 22.07C153.71 21.794 153.434 21.578 153.098 21.422C152.774 21.254 152.426 21.17 152.054 21.17C151.694 21.17 151.358 21.218 151.046 21.314C150.734 21.41 150.464 21.572 150.236 21.8C150.008 22.028 149.828 22.334 149.696 22.718C149.564 23.102 149.498 23.588 149.498 24.176C149.498 24.824 149.63 25.376 149.894 25.832C150.17 26.276 150.518 26.618 150.938 26.858C151.37 27.086 151.826 27.2 152.306 27.2C152.75 27.2 153.104 27.164 153.368 27.092C153.632 27.02 153.842 26.936 153.998 26.84C154.166 26.732 154.316 26.642 154.448 26.57C154.664 26.462 154.868 26.408 155.06 26.408C155.324 26.408 155.54 26.498 155.708 26.678C155.888 26.858 155.978 27.068 155.978 27.308C155.978 27.632 155.81 27.926 155.474 28.19C155.162 28.454 154.724 28.688 154.16 28.892C153.596 29.084 153.014 29.18 152.414 29.18Z" fill="#23003D"/>
<path d="M275.91 30.42L282.43 23.9C283.2 23.13 283.2 21.87 282.43 21.1L275.91 14.58" stroke="#D58900" stroke-width="2" stroke-miterlimit="10" stroke-linecap="round" stroke-linejoin="round"/>
<defs>
<linearGradient id="paint0_linear_814_319" x1="148.5" y1="0" x2="148.5" y2="44" gradientUnits="userSpaceOnUse">
<stop stop-color="#FFE384"/>
<stop offset="1" stop-color="#FFCF35"/>
</linearGradient>
</defs>
</svg>
