<svg width="245" height="56" viewBox="0 0 245 56" fill="none" xmlns="http://www.w3.org/2000/svg">
<rect width="245" height="56" rx="28" fill="url(#paint0_linear_794_968)"/>
<path d="M11.375 17.7108C12.37 11.7895 15.8812 9.5609 18.8004 9" stroke="white" stroke-width="3" stroke-linecap="round"/>
<path d="M77.562 35.18C76.722 35.18 75.966 35.078 75.294 34.874C74.622 34.658 73.98 34.286 73.368 33.758C73.212 33.626 73.092 33.476 73.008 33.308C72.924 33.14 72.882 32.972 72.882 32.804C72.882 32.528 72.978 32.288 73.17 32.084C73.374 31.868 73.626 31.76 73.926 31.76C74.154 31.76 74.358 31.832 74.538 31.976C74.994 32.348 75.444 32.63 75.888 32.822C76.344 33.014 76.902 33.11 77.562 33.11C78.006 33.11 78.414 33.044 78.786 32.912C79.158 32.768 79.458 32.582 79.686 32.354C79.914 32.114 80.028 31.844 80.028 31.544C80.028 31.184 79.92 30.878 79.704 30.626C79.488 30.374 79.158 30.164 78.714 29.996C78.27 29.816 77.706 29.678 77.022 29.582C76.374 29.486 75.804 29.342 75.312 29.15C74.82 28.946 74.406 28.694 74.07 28.394C73.746 28.082 73.5 27.722 73.332 27.314C73.164 26.894 73.08 26.426 73.08 25.91C73.08 25.13 73.278 24.464 73.674 23.912C74.082 23.36 74.628 22.94 75.312 22.652C75.996 22.364 76.752 22.22 77.58 22.22C78.36 22.22 79.08 22.34 79.74 22.58C80.412 22.808 80.958 23.102 81.378 23.462C81.726 23.738 81.9 24.056 81.9 24.416C81.9 24.68 81.798 24.92 81.594 25.136C81.39 25.352 81.15 25.46 80.874 25.46C80.694 25.46 80.532 25.406 80.388 25.298C80.196 25.13 79.938 24.974 79.614 24.83C79.29 24.674 78.948 24.548 78.588 24.452C78.228 24.344 77.892 24.29 77.58 24.29C77.064 24.29 76.626 24.356 76.266 24.488C75.918 24.62 75.654 24.8 75.474 25.028C75.294 25.256 75.204 25.52 75.204 25.82C75.204 26.18 75.306 26.48 75.51 26.72C75.726 26.948 76.032 27.134 76.428 27.278C76.824 27.41 77.298 27.53 77.85 27.638C78.57 27.77 79.2 27.926 79.74 28.106C80.292 28.286 80.748 28.52 81.108 28.808C81.468 29.084 81.738 29.438 81.918 29.87C82.098 30.29 82.188 30.806 82.188 31.418C82.188 32.198 81.972 32.87 81.54 33.434C81.108 33.998 80.538 34.43 79.83 34.73C79.134 35.03 78.378 35.18 77.562 35.18ZM83.8202 25.55L88.0862 25.55C88.3742 25.55 88.6142 25.646 88.8062 25.838C88.9982 26.03 89.0942 26.27 89.0942 26.558C89.0942 26.834 88.9982 27.068 88.8062 27.26C88.6142 27.44 88.3742 27.53 88.0862 27.53L83.8202 27.53C83.5322 27.53 83.2922 27.434 83.1002 27.242C82.9082 27.05 82.8122 26.81 82.8122 26.522C82.8122 26.246 82.9082 26.018 83.1002 25.838C83.2922 25.646 83.5322 25.55 83.8202 25.55ZM85.7462 23.3C86.0582 23.3 86.3102 23.408 86.5022 23.624C86.7062 23.828 86.8082 24.086 86.8082 24.398L86.8082 32.408C86.8082 32.576 86.8382 32.714 86.8982 32.822C86.9702 32.93 87.0602 33.008 87.1682 33.056C87.2882 33.104 87.4142 33.128 87.5462 33.128C87.6902 33.128 87.8222 33.104 87.9422 33.056C88.0622 32.996 88.2002 32.966 88.3562 32.966C88.5242 32.966 88.6742 33.044 88.8062 33.2C88.9502 33.356 89.0222 33.572 89.0222 33.848C89.0222 34.184 88.8362 34.46 88.4642 34.676C88.1042 34.892 87.7142 35 87.2942 35C87.0422 35 86.7602 34.982 86.4482 34.946C86.1482 34.898 85.8602 34.796 85.5842 34.64C85.3202 34.472 85.0982 34.22 84.9182 33.884C84.7382 33.548 84.6482 33.086 84.6482 32.498L84.6482 24.398C84.6482 24.086 84.7502 23.828 84.9542 23.624C85.1702 23.408 85.4342 23.3 85.7462 23.3ZM98.6015 25.19C98.9135 25.19 99.1715 25.292 99.3755 25.496C99.5795 25.7 99.6815 25.964 99.6815 26.288L99.6815 33.902C99.6815 34.214 99.5795 34.478 99.3755 34.694C99.1715 34.898 98.9135 35 98.6015 35C98.2895 35 98.0315 34.898 97.8275 34.694C97.6235 34.478 97.5215 34.214 97.5215 33.902L97.5215 33.02L97.9175 33.182C97.9175 33.338 97.8335 33.53 97.6655 33.758C97.4975 33.974 97.2695 34.19 96.9815 34.406C96.6935 34.622 96.3515 34.808 95.9555 34.964C95.5715 35.108 95.1515 35.18 94.6955 35.18C93.8675 35.18 93.1175 34.97 92.4455 34.55C91.7735 34.118 91.2395 33.53 90.8435 32.786C90.4595 32.03 90.2675 31.166 90.2675 30.194C90.2675 29.21 90.4595 28.346 90.8435 27.602C91.2395 26.846 91.7675 26.258 92.4275 25.838C93.0875 25.406 93.8195 25.19 94.6235 25.19C95.1395 25.19 95.6135 25.268 96.0455 25.424C96.4775 25.58 96.8495 25.778 97.1615 26.018C97.4855 26.258 97.7315 26.504 97.8995 26.756C98.0795 26.996 98.1695 27.2 98.1695 27.368L97.5215 27.602L97.5215 26.288C97.5215 25.976 97.6235 25.718 97.8275 25.514C98.0315 25.298 98.2895 25.19 98.6015 25.19ZM94.9655 33.2C95.4935 33.2 95.9555 33.068 96.3515 32.804C96.7475 32.54 97.0535 32.18 97.2695 31.724C97.4975 31.268 97.6115 30.758 97.6115 30.194C97.6115 29.618 97.4975 29.102 97.2695 28.646C97.0535 28.19 96.7475 27.83 96.3515 27.566C95.9555 27.302 95.4935 27.17 94.9655 27.17C94.4495 27.17 93.9935 27.302 93.5975 27.566C93.2015 27.83 92.8895 28.19 92.6615 28.646C92.4455 29.102 92.3375 29.618 92.3375 30.194C92.3375 30.758 92.4455 31.268 92.6615 31.724C92.8895 32.18 93.2015 32.54 93.5975 32.804C93.9935 33.068 94.4495 33.2 94.9655 33.2ZM102.74 35C102.428 35 102.17 34.898 101.966 34.694C101.762 34.478 101.66 34.214 101.66 33.902L101.66 26.468C101.66 26.156 101.762 25.898 101.966 25.694C102.17 25.478 102.428 25.37 102.74 25.37C103.052 25.37 103.31 25.478 103.514 25.694C103.718 25.898 103.82 26.156 103.82 26.468L103.82 28.16L103.694 26.954C103.826 26.666 103.994 26.414 104.198 26.198C104.414 25.97 104.654 25.784 104.918 25.64C105.182 25.484 105.464 25.37 105.764 25.298C106.064 25.226 106.364 25.19 106.664 25.19C107.024 25.19 107.324 25.292 107.564 25.496C107.816 25.7 107.942 25.94 107.942 26.216C107.942 26.612 107.84 26.9 107.636 27.08C107.432 27.248 107.21 27.332 106.97 27.332C106.742 27.332 106.532 27.29 106.34 27.206C106.16 27.122 105.95 27.08 105.71 27.08C105.494 27.08 105.272 27.134 105.044 27.242C104.828 27.338 104.624 27.494 104.432 27.71C104.252 27.926 104.102 28.196 103.982 28.52C103.874 28.832 103.82 29.204 103.82 29.636L103.82 33.902C103.82 34.214 103.718 34.478 103.514 34.694C103.31 34.898 103.052 35 102.74 35ZM109.213 25.55L113.479 25.55C113.767 25.55 114.007 25.646 114.199 25.838C114.391 26.03 114.487 26.27 114.487 26.558C114.487 26.834 114.391 27.068 114.199 27.26C114.007 27.44 113.767 27.53 113.479 27.53L109.213 27.53C108.925 27.53 108.685 27.434 108.493 27.242C108.301 27.05 108.205 26.81 108.205 26.522C108.205 26.246 108.301 26.018 108.493 25.838C108.685 25.646 108.925 25.55 109.213 25.55ZM111.139 23.3C111.451 23.3 111.703 23.408 111.895 23.624C112.099 23.828 112.201 24.086 112.201 24.398L112.201 32.408C112.201 32.576 112.231 32.714 112.291 32.822C112.363 32.93 112.453 33.008 112.561 33.056C112.681 33.104 112.807 33.128 112.939 33.128C113.083 33.128 113.215 33.104 113.335 33.056C113.455 32.996 113.593 32.966 113.749 32.966C113.917 32.966 114.067 33.044 114.199 33.2C114.343 33.356 114.415 33.572 114.415 33.848C114.415 34.184 114.229 34.46 113.857 34.676C113.497 34.892 113.107 35 112.687 35C112.435 35 112.153 34.982 111.841 34.946C111.541 34.898 111.253 34.796 110.977 34.64C110.713 34.472 110.491 34.22 110.311 33.884C110.131 33.548 110.041 33.086 110.041 32.498L110.041 24.398C110.041 24.086 110.143 23.828 110.347 23.624C110.563 23.408 110.827 23.3 111.139 23.3ZM126.915 35.18C126.003 35.18 125.151 35.012 124.359 34.676C123.567 34.34 122.871 33.878 122.271 33.29C121.671 32.69 121.197 32 120.849 31.22C120.513 30.44 120.345 29.6 120.345 28.7C120.345 27.8 120.513 26.96 120.849 26.18C121.197 25.4 121.671 24.716 122.271 24.128C122.871 23.528 123.567 23.06 124.359 22.724C125.151 22.388 126.003 22.22 126.915 22.22C127.479 22.22 128.025 22.28 128.553 22.4C129.081 22.52 129.567 22.7 130.011 22.94C130.191 23.036 130.323 23.168 130.407 23.336C130.503 23.492 130.551 23.654 130.551 23.822C130.551 24.11 130.455 24.368 130.263 24.596C130.071 24.824 129.825 24.938 129.525 24.938C129.429 24.938 129.327 24.926 129.219 24.902C129.123 24.878 129.027 24.842 128.931 24.794C128.631 24.662 128.313 24.56 127.977 24.488C127.641 24.416 127.287 24.38 126.915 24.38C126.135 24.38 125.421 24.578 124.773 24.974C124.137 25.358 123.627 25.88 123.243 26.54C122.871 27.188 122.685 27.908 122.685 28.7C122.685 29.48 122.871 30.2 123.243 30.86C123.627 31.52 124.137 32.048 124.773 32.444C125.421 32.828 126.135 33.02 126.915 33.02C127.275 33.02 127.671 32.984 128.103 32.912C128.535 32.84 128.889 32.744 129.165 32.624L129.003 33.164L129.003 30.086L129.309 30.356L127.311 30.356C126.999 30.356 126.735 30.254 126.519 30.05C126.315 29.846 126.213 29.588 126.213 29.276C126.213 28.964 126.315 28.706 126.519 28.502C126.735 28.298 126.999 28.196 127.311 28.196L130.263 28.196C130.575 28.196 130.833 28.304 131.037 28.52C131.241 28.724 131.343 28.982 131.343 29.294L131.343 33.11C131.343 33.35 131.283 33.548 131.163 33.704C131.055 33.86 130.929 33.986 130.785 34.082C130.233 34.418 129.627 34.688 128.967 34.892C128.319 35.084 127.635 35.18 126.915 35.18ZM141.098 25.19C141.41 25.19 141.668 25.292 141.872 25.496C142.076 25.7 142.178 25.964 142.178 26.288L142.178 33.902C142.178 34.214 142.076 34.478 141.872 34.694C141.668 34.898 141.41 35 141.098 35C140.786 35 140.528 34.898 140.324 34.694C140.12 34.478 140.018 34.214 140.018 33.902L140.018 33.02L140.414 33.182C140.414 33.338 140.33 33.53 140.162 33.758C139.994 33.974 139.766 34.19 139.478 34.406C139.19 34.622 138.848 34.808 138.452 34.964C138.068 35.108 137.648 35.18 137.192 35.18C136.364 35.18 135.614 34.97 134.942 34.55C134.27 34.118 133.736 33.53 133.34 32.786C132.956 32.03 132.764 31.166 132.764 30.194C132.764 29.21 132.956 28.346 133.34 27.602C133.736 26.846 134.264 26.258 134.924 25.838C135.584 25.406 136.316 25.19 137.12 25.19C137.636 25.19 138.11 25.268 138.542 25.424C138.974 25.58 139.346 25.778 139.658 26.018C139.982 26.258 140.228 26.504 140.396 26.756C140.576 26.996 140.666 27.2 140.666 27.368L140.018 27.602L140.018 26.288C140.018 25.976 140.12 25.718 140.324 25.514C140.528 25.298 140.786 25.19 141.098 25.19ZM137.462 33.2C137.99 33.2 138.452 33.068 138.848 32.804C139.244 32.54 139.55 32.18 139.766 31.724C139.994 31.268 140.108 30.758 140.108 30.194C140.108 29.618 139.994 29.102 139.766 28.646C139.55 28.19 139.244 27.83 138.848 27.566C138.452 27.302 137.99 27.17 137.462 27.17C136.946 27.17 136.49 27.302 136.094 27.566C135.698 27.83 135.386 28.19 135.158 28.646C134.942 29.102 134.834 29.618 134.834 30.194C134.834 30.758 134.942 31.268 135.158 31.724C135.386 32.18 135.698 32.54 136.094 32.804C136.49 33.068 136.946 33.2 137.462 33.2ZM149.215 25.19C150.175 25.19 150.883 25.424 151.339 25.892C151.795 26.348 152.095 26.942 152.239 27.674L151.933 27.512L152.077 27.224C152.221 26.948 152.443 26.654 152.743 26.342C153.043 26.018 153.403 25.748 153.823 25.532C154.255 25.304 154.735 25.19 155.263 25.19C156.127 25.19 156.781 25.376 157.225 25.748C157.681 26.12 157.993 26.618 158.161 27.242C158.329 27.854 158.413 28.538 158.413 29.294L158.413 33.902C158.413 34.214 158.311 34.478 158.107 34.694C157.903 34.898 157.645 35 157.333 35C157.021 35 156.763 34.898 156.559 34.694C156.355 34.478 156.253 34.214 156.253 33.902L156.253 29.294C156.253 28.898 156.205 28.544 156.109 28.232C156.013 27.908 155.839 27.65 155.587 27.458C155.335 27.266 154.975 27.17 154.507 27.17C154.051 27.17 153.661 27.266 153.337 27.458C153.013 27.65 152.767 27.908 152.599 28.232C152.443 28.544 152.365 28.898 152.365 29.294L152.365 33.902C152.365 34.214 152.263 34.478 152.059 34.694C151.855 34.898 151.597 35 151.285 35C150.973 35 150.715 34.898 150.511 34.694C150.307 34.478 150.205 34.214 150.205 33.902L150.205 29.294C150.205 28.898 150.157 28.544 150.061 28.232C149.965 27.908 149.791 27.65 149.539 27.458C149.287 27.266 148.927 27.17 148.459 27.17C148.003 27.17 147.613 27.266 147.289 27.458C146.965 27.65 146.719 27.908 146.551 28.232C146.395 28.544 146.317 28.898 146.317 29.294L146.317 33.902C146.317 34.214 146.215 34.478 146.011 34.694C145.807 34.898 145.549 35 145.237 35C144.925 35 144.667 34.898 144.463 34.694C144.259 34.478 144.157 34.214 144.157 33.902L144.157 26.468C144.157 26.156 144.259 25.898 144.463 25.694C144.667 25.478 144.925 25.37 145.237 25.37C145.549 25.37 145.807 25.478 146.011 25.694C146.215 25.898 146.317 26.156 146.317 26.468L146.317 27.242L146.047 27.188C146.155 26.984 146.305 26.768 146.497 26.54C146.689 26.3 146.923 26.078 147.199 25.874C147.475 25.67 147.781 25.508 148.117 25.388C148.453 25.256 148.819 25.19 149.215 25.19ZM164.927 35.18C163.907 35.18 163.019 34.97 162.263 34.55C161.519 34.118 160.943 33.536 160.535 32.804C160.139 32.072 159.941 31.244 159.941 30.32C159.941 29.24 160.157 28.322 160.589 27.566C161.033 26.798 161.609 26.21 162.317 25.802C163.025 25.394 163.775 25.19 164.567 25.19C165.179 25.19 165.755 25.316 166.295 25.568C166.847 25.82 167.333 26.168 167.753 26.612C168.173 27.044 168.503 27.548 168.743 28.124C168.995 28.7 169.121 29.312 169.121 29.96C169.109 30.248 168.995 30.482 168.779 30.662C168.563 30.842 168.311 30.932 168.023 30.932L161.147 30.932L160.607 29.132L167.213 29.132L166.817 29.492L166.817 29.006C166.793 28.658 166.667 28.346 166.439 28.07C166.223 27.794 165.947 27.578 165.611 27.422C165.287 27.254 164.939 27.17 164.567 27.17C164.207 27.17 163.871 27.218 163.559 27.314C163.247 27.41 162.977 27.572 162.749 27.8C162.521 28.028 162.341 28.334 162.209 28.718C162.077 29.102 162.011 29.588 162.011 30.176C162.011 30.824 162.143 31.376 162.407 31.832C162.683 32.276 163.031 32.618 163.451 32.858C163.883 33.086 164.339 33.2 164.819 33.2C165.263 33.2 165.617 33.164 165.881 33.092C166.145 33.02 166.355 32.936 166.511 32.84C166.679 32.732 166.829 32.642 166.961 32.57C167.177 32.462 167.381 32.408 167.573 32.408C167.837 32.408 168.053 32.498 168.221 32.678C168.401 32.858 168.491 33.068 168.491 33.308C168.491 33.632 168.323 33.926 167.987 34.19C167.675 34.454 167.237 34.688 166.673 34.892C166.109 35.084 165.527 35.18 164.927 35.18Z" fill="#23003D"/>
<defs>
<linearGradient id="paint0_linear_794_968" x1="122.5" y1="0" x2="122.5" y2="56" gradientUnits="userSpaceOnUse">
<stop stop-color="#FFE486"/>
<stop offset="0.515625" stop-color="#FFCC4E"/>
<stop offset="1" stop-color="#FFD02B"/>
<stop offset="1" stop-color="#D2A61B"/>
</linearGradient>
</defs>
</svg>
