<svg width="22" height="23" viewBox="0 0 22 23" fill="none" xmlns="http://www.w3.org/2000/svg">
<path fill-rule="evenodd" clip-rule="evenodd" d="M7.24233 0.500201H14.7576C14.7713 0.499932 14.7851 0.499934 14.7988 0.500201H16.8792C18.2144 0.500201 19.4127 1.3357 19.8966 2.60411L21.8261 7.66139C22.2949 8.89008 21.7799 10.2376 20.7127 10.8535V19.2C20.7127 21.0226 19.2632 22.5 17.4751 22.5H4.52488C2.73683 22.5 1.28733 21.0226 1.28733 19.2V10.8535C0.220134 10.2376 -0.294906 8.89007 0.173879 7.66139L2.1034 2.60411C2.58734 1.33569 3.7856 0.500201 5.12082 0.500201H7.20115C7.21484 0.499934 7.22857 0.499932 7.24233 0.500201ZM17.312 8.40813C17.3285 8.41599 17.3449 8.42408 17.3612 8.43239L18.1183 8.81825C18.5617 9.04422 19.0698 9.10106 19.5507 8.97851C19.7742 8.92156 19.898 8.67764 19.8145 8.45876L17.885 3.40148C17.7237 2.97868 17.3243 2.70018 16.8792 2.70018H16.112L17.312 8.40813ZM13.9047 2.70018L15.1335 8.54536L14.9004 8.64042C14.1285 8.95512 13.2674 8.95512 12.4956 8.64042L12.0792 8.47065V2.70018H13.9047ZM8.09524 2.70018H9.92081V8.47066L9.50443 8.64042C8.73257 8.95512 7.87151 8.95512 7.09964 8.64042L6.8664 8.54532L8.09524 2.70018ZM5.88787 2.70018L4.68787 8.40818C4.67144 8.41603 4.65509 8.4241 4.63882 8.43239L3.8817 8.81825C3.43831 9.04422 2.93024 9.10106 2.44932 8.97851C2.22579 8.92156 2.10198 8.67764 2.18549 8.45876L4.11501 3.40148C4.27633 2.97868 4.67574 2.70018 5.12082 2.70018H5.88787ZM9.92081 13.7001C8.72877 13.7001 7.76244 14.685 7.76244 15.9001V19.75C7.76244 20.0538 8.00402 20.3 8.30203 20.3H13.698C13.996 20.3 14.2375 20.0538 14.2375 19.75V15.9001C14.2375 14.685 13.2712 13.7001 12.0792 13.7001H9.92081Z" fill="white"/>
</svg>
