<svg width="39" height="39" viewBox="0 0 39 39" fill="none" xmlns="http://www.w3.org/2000/svg">
<path d="M8.44434 13.9617L7.30128 14.5443C6.66347 14.8694 5.93355 14.9508 5.24277 14.7748C5.16486 14.755 5.10572 14.6605 5.14275 14.5634L8.38786 6.058C8.58689 5.53633 9.07574 5.2003 9.61228 5.2003H10.2863L8.44434 13.9617ZM25.8934 0.500339C25.8673 0.499888 25.8412 0.499886 25.815 0.500339H13.1849C13.1587 0.499886 13.1325 0.499888 13.1064 0.500339H9.61228C7.15471 0.500339 4.95655 2.03784 4.07038 4.36049L0.825279 12.8659C-0.0143236 15.0665 0.831419 17.4742 2.66505 18.6908V32.4501C2.66505 35.7823 5.31775 38.5 8.61003 38.5H30.3899C33.6822 38.5 36.3349 35.7823 36.3349 32.4501V18.6908C38.1686 17.4742 39.0143 15.0665 38.1747 12.8659L34.9296 4.36049C34.0434 2.03785 31.8453 0.500339 29.3877 0.500339H25.8934ZM30.5555 13.9617L28.7136 5.2003H29.3877C29.9243 5.2003 30.4131 5.53633 30.6121 6.058L33.8573 14.5634C33.8943 14.6605 33.8351 14.7549 33.7572 14.7748C33.0665 14.9508 32.3365 14.8694 31.6987 14.5443L30.5555 13.9617ZM21.815 5.2003H23.9793L25.8767 14.2254L25.8709 14.2277C24.6938 14.7076 23.3812 14.7076 22.204 14.2277L21.815 14.0691V5.2003ZM13.1232 14.2253L15.0205 5.2003H17.185V14.0691L16.796 14.2277C15.6188 14.7076 14.3062 14.7076 13.1291 14.2277L13.1232 14.2253ZM14.555 26.9001C14.555 25.1238 15.9653 23.7001 17.685 23.7001H21.315C23.0347 23.7001 24.445 25.1238 24.445 26.9001V33.375C24.445 33.6188 24.2536 33.8 24.0375 33.8H14.9625C14.7464 33.8 14.555 33.6188 14.555 33.375V26.9001Z" fill="url(#paint0_linear_630_1698)" stroke="white" stroke-linecap="round"/>
<defs>
<linearGradient id="paint0_linear_630_1698" x1="19.5" y1="1" x2="19.5" y2="38" gradientUnits="userSpaceOnUse">
<stop stop-color="#983582"/>
<stop offset="1" stop-color="#D264BE"/>
</linearGradient>
</defs>
</svg>
