<svg width="101" height="32" viewBox="0 0 101 32" fill="none" xmlns="http://www.w3.org/2000/svg">
<g style="mix-blend-mode:multiply" opacity="0.53">
<g style="mix-blend-mode:multiply" opacity="0.03">
<path d="M74.5169 31.0112H21.892C18.4425 31.0021 15.1369 29.6277 12.6977 27.1885C10.2586 24.7493 8.88419 21.4437 8.875 17.9942C8.8842 14.5463 10.2591 11.2426 12.6988 8.80616C15.1385 6.36975 18.4441 4.99922 21.892 4.99463H74.5169C77.9618 5.00382 81.263 6.37636 83.6989 8.81227C86.1348 11.2482 87.5074 14.5494 87.5165 17.9942C87.5074 21.4407 86.1354 24.7437 83.7 27.1824C81.2646 29.6211 77.9634 30.9975 74.5169 31.0112Z" fill="#010001"/>
</g>
<g style="mix-blend-mode:multiply" opacity="0.05">
<path d="M74.5169 30.907H21.892C18.4441 30.9024 15.1385 29.5319 12.6988 27.0955C10.2591 24.6591 8.8842 21.3553 8.875 17.9074C8.88419 14.4579 10.2586 11.1523 12.6977 8.71312C15.1369 6.27394 18.4425 4.89957 21.892 4.89038H74.5169C77.9634 4.90415 81.2646 6.28057 83.7 8.71925C86.1354 11.1579 87.5074 14.4609 87.5165 17.9074C87.5074 21.3523 86.1348 24.6534 83.6989 27.0894C81.263 29.5253 77.9618 30.8978 74.5169 30.907Z" fill="#010002"/>
</g>
<g style="mix-blend-mode:multiply" opacity="0.08">
<path d="M74.5169 30.8198H21.892C18.4425 30.8106 15.1369 29.4363 12.6977 26.9971C10.2586 24.5579 8.88419 21.2523 8.875 17.8028C8.8842 14.3549 10.2591 11.0512 12.6988 8.61476C15.1385 6.17835 18.4441 4.80781 21.892 4.80322H74.5169C77.9618 4.81241 81.263 6.18495 83.6989 8.62086C86.1348 11.0568 87.5074 14.3579 87.5165 17.8028C87.5074 21.2493 86.1354 24.5523 83.7 26.991C81.2646 29.4297 77.9634 30.8061 74.5169 30.8198Z" fill="#020003"/>
</g>
<g style="mix-blend-mode:multiply" opacity="0.1">
<path d="M74.5169 30.7153H21.892C18.4441 30.7108 15.1385 29.3402 12.6988 26.9038C10.2591 24.4674 8.8842 21.1636 8.875 17.7157C8.8796 14.2648 10.2525 10.9566 12.6927 8.51642C15.1328 6.07626 18.4411 4.70333 21.892 4.69873H74.5169C77.9648 4.70793 81.2686 6.08286 83.705 8.52253C86.1414 10.9622 87.5119 14.2678 87.5165 17.7157C87.5074 21.1606 86.1348 24.4618 83.6989 26.8977C81.263 29.3336 77.9618 30.7062 74.5169 30.7153Z" fill="#020004"/>
</g>
<g style="mix-blend-mode:multiply" opacity="0.13">
<path d="M74.5169 30.6285H21.892C18.4425 30.6193 15.1369 29.2449 12.6977 26.8057C10.2586 24.3666 8.88419 21.061 8.875 17.6115C8.88419 14.162 10.2586 10.8564 12.6977 8.41722C15.1369 5.97805 18.4425 4.60367 21.892 4.59448H74.5169C77.9634 4.60826 81.2646 5.98465 83.7 8.42333C86.1354 10.862 87.5074 14.165 87.5165 17.6115C87.5074 21.058 86.1354 24.361 83.7 26.7996C81.2646 29.2383 77.9634 30.6147 74.5169 30.6285Z" fill="#030005"/>
</g>
<g style="mix-blend-mode:multiply" opacity="0.15">
<path d="M74.5167 30.524H21.8918C20.1772 30.5309 18.478 30.1994 16.8917 29.5486C15.3054 28.8977 13.8631 27.9402 12.6475 26.731C11.4318 25.5218 10.4667 24.0847 9.80734 22.5018C9.14801 20.919 8.80745 19.2217 8.80518 17.507C8.80974 15.7939 9.15198 14.0984 9.81233 12.5176C10.4727 10.9368 11.4382 9.50167 12.6536 8.29432C13.8691 7.08697 15.3106 6.13106 16.8957 5.48127C18.4809 4.83148 20.1786 4.50056 21.8918 4.50743H74.5167C77.9616 4.51662 81.2628 5.88916 83.6987 8.32507C86.1346 10.761 87.5071 14.0622 87.5163 17.507C87.5117 20.9549 86.1412 24.2606 83.7048 26.7002C81.2684 29.1399 77.9646 30.5148 74.5167 30.524Z" fill="#030006"/>
</g>
<g style="mix-blend-mode:multiply" opacity="0.18">
<path d="M74.5168 30.4197H21.8919C18.4469 30.4337 15.1365 29.0833 12.6843 26.6636C10.2321 24.244 8.83745 20.952 8.80528 17.5071C8.79839 15.7858 9.13205 14.0802 9.78706 12.4883C10.4421 10.8965 11.4055 9.44996 12.6218 8.232C13.8382 7.01403 15.2834 6.04869 16.8744 5.39157C18.4654 4.73445 20.1706 4.39852 21.8919 4.40312H74.5168C77.9633 4.4169 81.2644 5.79329 83.6999 8.23197C86.1353 10.6706 87.5073 13.9736 87.5164 17.4201C87.5072 20.865 86.1347 24.1662 83.6988 26.6021C81.2629 29.038 77.9617 30.4105 74.5168 30.4197Z" fill="#040007"/>
</g>
<g style="mix-blend-mode:multiply" opacity="0.21">
<path d="M74.5169 30.3325H21.892C18.4411 30.3279 15.1328 28.955 12.6927 26.5149C10.2525 24.0747 8.8796 20.7664 8.875 17.3155C8.8842 13.8676 10.2591 10.5639 12.6988 8.12745C15.1385 5.69104 18.4441 4.32051 21.892 4.31592H74.5169C77.9618 4.3251 81.263 5.69765 83.6989 8.13356C86.1348 10.5695 87.5074 13.8706 87.5165 17.3155C87.5119 20.7634 86.1414 24.0691 83.705 26.5087C81.2686 28.9484 77.9648 30.3233 74.5169 30.3325Z" fill="#050008"/>
</g>
<g style="mix-blend-mode:multiply" opacity="0.23">
<path d="M74.5169 30.2283H21.892C18.4441 30.2237 15.1385 28.8532 12.6988 26.4168C10.2591 23.9804 8.8842 20.6766 8.875 17.2287C8.88419 13.7792 10.2586 10.4736 12.6977 8.03441C15.1369 5.59523 18.4425 4.22086 21.892 4.21167H74.5169C77.9634 4.22544 81.2646 5.60184 83.7 8.04052C86.1354 10.4792 87.5074 13.7822 87.5165 17.2287C87.5074 20.6736 86.1348 23.9747 83.6989 26.4106C81.263 28.8466 77.9618 30.2191 74.5169 30.2283Z" fill="#050009"/>
</g>
<g style="mix-blend-mode:multiply" opacity="0.26">
<path d="M74.5169 30.1411H21.892C18.4425 30.1319 15.1369 28.7576 12.6977 26.3184C10.2586 23.8792 8.88419 20.5736 8.875 17.1241C8.8842 13.6762 10.2591 10.3725 12.6988 7.93604C15.1385 5.49964 18.4441 4.1291 21.892 4.12451H74.5169C77.9618 4.1337 81.263 5.50624 83.6989 7.94215C86.1348 10.3781 87.5074 13.6792 87.5165 17.1241C87.5074 20.5706 86.1354 23.8736 83.7 26.3123C81.2646 28.751 77.9634 30.1273 74.5169 30.1411Z" fill="#06000A"/>
</g>
<g style="mix-blend-mode:multiply" opacity="0.28">
<path d="M74.5169 30.0369H21.892C18.4441 30.0323 15.1385 28.6618 12.6988 26.2254C10.2591 23.789 8.8842 20.4852 8.875 17.0373C8.88419 13.5878 10.2586 10.2822 12.6977 7.843C15.1369 5.40383 18.4425 4.02945 21.892 4.02026H74.5169C77.9634 4.03404 81.2646 5.41046 83.7 7.84914C86.1354 10.2878 87.5074 13.5908 87.5165 17.0373C87.5074 20.4822 86.1348 23.7833 83.6989 26.2192C81.263 28.6551 77.9618 30.0277 74.5169 30.0369Z" fill="#06000B"/>
</g>
<g style="mix-blend-mode:multiply" opacity="0.31">
<path d="M74.5169 29.9497H21.892C18.4425 29.9405 15.1369 28.5662 12.6977 26.127C10.2586 23.6878 8.88419 20.3822 8.875 16.9327C8.8842 13.4848 10.2591 10.181 12.6988 7.74464C15.1385 5.30823 18.4441 3.9377 21.892 3.93311H74.5169C77.9618 3.94229 81.263 5.31483 83.6989 7.75075C86.1348 10.1867 87.5074 13.4878 87.5165 16.9327C87.5074 20.3792 86.1354 23.6822 83.7 26.1209C81.2646 28.5596 77.9634 29.9359 74.5169 29.9497Z" fill="#07000C"/>
</g>
<g style="mix-blend-mode:multiply" opacity="0.33">
<path d="M74.5169 29.8452H21.892C18.4441 29.8406 15.1385 28.4701 12.6988 26.0337C10.2591 23.5973 8.8842 20.2935 8.875 16.8456C8.8796 13.3947 10.2525 10.0865 12.6927 7.64631C15.1328 5.20614 18.4411 3.83322 21.892 3.82861H74.5169C77.9648 3.83782 81.2686 5.21275 83.705 7.65241C86.1414 10.0921 87.5119 13.3977 87.5165 16.8456C87.5074 20.2905 86.1348 23.5917 83.6989 26.0276C81.263 28.4635 77.9618 29.836 74.5169 29.8452Z" fill="#07000D"/>
</g>
<g style="mix-blend-mode:multiply" opacity="0.36">
<path d="M74.5169 29.6888H21.892C18.4425 29.6796 15.1369 28.3052 12.6977 25.866C10.2586 23.4269 8.88419 20.1213 8.875 16.6718C8.90249 13.2344 10.2849 9.94658 12.7221 7.52241C15.1594 5.09824 18.4545 3.73342 21.892 3.72437H74.5169C77.9634 3.73814 81.2646 5.11453 83.7 7.55321C86.1354 9.99189 87.5074 13.2949 87.5165 16.7414C87.4891 20.1758 86.109 23.461 83.6756 25.8846C81.2421 28.3083 77.9514 29.6751 74.5169 29.6888Z" fill="#08000E"/>
</g>
<g style="mix-blend-mode:multiply" opacity="0.38">
<path d="M74.517 29.6888H21.8921C18.4412 29.6842 15.1329 28.3113 12.6928 25.8712C10.2526 23.431 8.87971 20.1227 8.8751 16.6718C8.86824 14.9572 9.19974 13.2581 9.85061 11.6718C10.5015 10.0855 11.4589 8.64315 12.6681 7.42749C13.8773 6.21182 15.3145 5.24668 16.8973 4.58735C18.4801 3.92803 20.1775 3.58748 21.8921 3.58521H74.517C77.9619 3.59439 81.2631 4.96693 83.699 7.40285C86.1349 9.83876 87.5074 13.1399 87.5166 16.5848C87.5258 18.2994 87.1966 19.999 86.5478 21.5862C85.8991 23.1734 84.9435 24.617 83.7359 25.8343C82.5283 27.0515 81.0925 28.0186 79.5105 28.68C77.9286 29.3415 76.2317 29.6843 74.517 29.6888Z" fill="#08000F"/>
</g>
<g style="mix-blend-mode:multiply" opacity="0.41">
<path d="M74.5169 29.5496H21.892C18.4441 29.545 15.1385 28.1745 12.6988 25.7381C10.2591 23.3017 8.8842 19.9979 8.875 16.55C8.89792 13.1096 10.2784 9.81733 12.7161 7.38941C15.1538 4.96149 18.4515 3.5943 21.892 3.58521H74.5169C77.9634 3.59898 81.2646 4.9754 83.7 7.41408C86.1354 9.85276 87.5074 13.1557 87.5165 16.6022C87.4936 20.038 86.115 23.3259 83.6806 25.7505C81.2461 28.1752 77.9528 29.5405 74.5169 29.5496Z" fill="#090010"/>
</g>
<g style="mix-blend-mode:multiply" opacity="0.44">
<path d="M74.5169 29.4624H21.892C18.4425 29.4532 15.1369 28.0788 12.6977 25.6397C10.2586 23.2005 8.88419 19.8949 8.875 16.4454C8.8842 12.9975 10.2591 9.69374 12.6988 7.25733C15.1385 4.82093 18.4441 3.45039 21.892 3.4458H74.5169C77.9618 3.45499 81.263 4.82753 83.6989 7.26344C86.1348 9.69935 87.5074 13.0005 87.5165 16.4454C87.5074 19.8919 86.1354 23.1949 83.7 25.6336C81.2646 28.0722 77.9634 29.4486 74.5169 29.4624Z" fill="#0A0011"/>
</g>
<g style="mix-blend-mode:multiply" opacity="0.46">
<path d="M74.5169 29.3582H21.892C18.4441 29.3536 15.1385 27.9831 12.6988 25.5467C10.2591 23.1103 8.8842 19.8064 8.875 16.3586C8.88419 12.9091 10.2586 9.60347 12.6977 7.16429C15.1369 4.72512 18.4425 3.35074 21.892 3.34155H74.5169C77.9634 3.35533 81.2646 4.73172 83.7 7.1704C86.1354 9.60908 87.5074 12.9121 87.5165 16.3586C87.5074 19.8034 86.1348 23.1046 83.6989 25.5405C81.263 27.9764 77.9618 29.349 74.5169 29.3582Z" fill="#0A0012"/>
</g>
<g style="mix-blend-mode:multiply" opacity="0.49">
<path d="M74.5169 29.271H21.892C18.4425 29.2618 15.1369 27.8874 12.6977 25.4483C10.2586 23.0091 8.88419 19.7035 8.875 16.254C8.8842 12.8061 10.2591 9.50233 12.6988 7.06593C15.1385 4.62952 18.4441 3.25899 21.892 3.25439H74.5169C77.9618 3.26358 81.263 4.63612 83.6989 7.07203C86.1348 9.50795 87.5074 12.8091 87.5165 16.254C87.5074 19.7005 86.1354 23.0035 83.7 25.4422C81.2646 27.8808 77.9634 29.2572 74.5169 29.271Z" fill="#0B0013"/>
</g>
<g style="mix-blend-mode:multiply" opacity="0.51">
<path d="M74.5169 29.1668H21.892C18.4441 29.1622 15.1385 27.7917 12.6988 25.3553C10.2591 22.9188 8.8842 19.615 8.875 16.1671C8.88419 12.7176 10.2586 9.41206 12.6977 6.97288C15.1369 4.53371 18.4425 3.15933 21.892 3.15015H74.5169C77.9634 3.16392 81.2646 4.54034 83.7 6.97902C86.1354 9.4177 87.5074 12.7207 87.5165 16.1671C87.5074 19.612 86.1348 22.9132 83.6989 25.3491C81.263 27.785 77.9618 29.1576 74.5169 29.1668Z" fill="#0B0013"/>
</g>
<g style="mix-blend-mode:multiply" opacity="0.54">
<path d="M74.5169 29.0796H21.892C18.4425 29.0704 15.1369 27.696 12.6977 25.2569C10.2586 22.8177 8.88419 19.5121 8.875 16.0626C8.8842 12.6147 10.2591 9.31093 12.6988 6.87452C15.1385 4.43811 18.4441 3.06758 21.892 3.06299H74.5169C77.9618 3.07217 81.263 4.44472 83.6989 6.88063C86.1348 9.31654 87.5074 12.6177 87.5165 16.0626C87.5074 19.5091 86.1354 22.8121 83.7 25.2508C81.2646 27.6894 77.9634 29.0658 74.5169 29.0796Z" fill="#0C0014"/>
</g>
<g style="mix-blend-mode:multiply" opacity="0.56">
<path d="M74.5169 28.9751H21.892C18.4441 28.9705 15.1385 27.6 12.6988 25.1636C10.2591 22.7272 8.8842 19.4234 8.875 15.9755C8.8796 12.5246 10.2525 9.21635 12.6927 6.77619C15.1328 4.33602 18.4411 2.9631 21.892 2.9585H74.5169C77.9648 2.9677 81.2686 4.34263 83.705 6.7823C86.1414 9.22196 87.5119 12.5276 87.5165 15.9755C87.5074 19.4204 86.1348 22.7216 83.6989 25.1575C81.263 27.5934 77.9618 28.9659 74.5169 28.9751Z" fill="#0C0015"/>
</g>
<g style="mix-blend-mode:multiply" opacity="0.59">
<path d="M74.5169 28.8883H21.892C18.4425 28.8791 15.1369 27.5047 12.6977 25.0655C10.2586 22.6263 8.88419 19.3208 8.875 15.8713C8.88419 12.4217 10.2586 9.11616 12.6977 6.67699C15.1369 4.23781 18.4425 2.86343 21.892 2.85425H74.5169C77.9634 2.86802 81.2646 4.24441 83.7 6.68309C86.1354 9.12177 87.5074 12.4248 87.5165 15.8713C87.5074 19.3177 86.1354 22.6207 83.7 25.0594C81.2646 27.4981 77.9634 28.8745 74.5169 28.8883Z" fill="#0D0016"/>
</g>
<g style="mix-blend-mode:multiply" opacity="0.62">
<path d="M74.5167 28.7838H21.8918C20.1772 28.7907 18.478 28.4592 16.8917 27.8083C15.3054 27.1574 13.8631 26.2 12.6475 24.9908C11.4318 23.7816 10.4667 22.3444 9.80734 20.7616C9.14801 19.1788 8.80745 17.4814 8.80518 15.7668C8.80974 14.0536 9.15198 12.3582 9.81233 10.7774C10.4727 9.19656 11.4382 7.76144 12.6536 6.55409C13.8691 5.34673 15.3106 4.39082 16.8957 3.74104C18.4809 3.09125 20.1786 2.76033 21.8918 2.76719H74.5167C77.9616 2.77638 81.2628 4.14892 83.6987 6.58483C86.1346 9.02075 87.5071 12.3219 87.5163 15.7668C87.5117 19.2147 86.1412 22.5203 83.7048 24.96C81.2684 27.3997 77.9646 28.7746 74.5167 28.7838Z" fill="#0E0017"/>
</g>
<g style="mix-blend-mode:multiply" opacity="0.64">
<path d="M74.5168 28.6795H21.8919C18.4469 28.6934 15.1365 27.343 12.6843 24.9234C10.2321 22.5038 8.83745 19.2118 8.80528 15.7669C8.79839 14.0456 9.13205 12.3399 9.78706 10.7481C10.4421 9.15627 11.4055 7.70973 12.6218 6.49176C13.8382 5.27379 15.2834 4.30846 16.8744 3.65133C18.4654 2.99421 20.1706 2.65828 21.8919 2.66289H74.5168C77.9633 2.67666 81.2644 4.05305 83.6999 6.49173C86.1353 8.93041 87.5073 12.2334 87.5164 15.6799C87.5072 19.1248 86.1347 22.426 83.6988 24.8619C81.2629 27.2978 77.9617 28.6703 74.5168 28.6795Z" fill="#0E0018"/>
</g>
<g style="mix-blend-mode:multiply" opacity="0.67">
<path d="M74.5169 28.5923H21.892C18.4425 28.5831 15.1369 27.2087 12.6977 24.7696C10.2586 22.3304 8.88419 19.0248 8.875 15.5753C8.8842 12.1274 10.2591 8.82362 12.6988 6.38722C15.1385 3.95081 18.4441 2.58027 21.892 2.57568H74.5169C77.9618 2.58487 81.263 3.95741 83.6989 6.39332C86.1348 8.82923 87.5074 12.1304 87.5165 15.5753C87.5074 19.0218 86.1354 22.3248 83.7 24.7635C81.2646 27.2021 77.9634 28.5785 74.5169 28.5923Z" fill="#0F0019"/>
</g>
<g style="mix-blend-mode:multiply" opacity="0.69">
<path d="M74.5169 28.488H21.892C18.4441 28.4835 15.1385 27.1129 12.6988 24.6765C10.2591 22.2401 8.8842 18.9363 8.875 15.4884C8.88419 12.0389 10.2586 8.73335 12.6977 6.29417C15.1369 3.855 18.4425 2.48062 21.892 2.47144H74.5169C77.9634 2.48521 81.2646 3.8616 83.7 6.30028C86.1354 8.73896 87.5074 12.0419 87.5165 15.4884C87.5074 18.9333 86.1348 22.2345 83.6989 24.6704C81.263 27.1063 77.9618 28.4789 74.5169 28.488Z" fill="#0F001A"/>
</g>
<g style="mix-blend-mode:multiply" opacity="0.72">
<path d="M74.5169 28.4009H21.892C18.4425 28.3917 15.1369 27.0173 12.6977 24.5782C10.2586 22.139 8.88419 18.8334 8.875 15.3839C8.8842 11.936 10.2591 8.63222 12.6988 6.19581C15.1385 3.7594 18.4441 2.38887 21.892 2.38428H74.5169C77.9618 2.39346 81.263 3.76601 83.6989 6.20192C86.1348 8.63783 87.5074 11.939 87.5165 15.3839C87.5074 18.8304 86.1354 22.1334 83.7 24.572C81.2646 27.0107 77.9634 28.3871 74.5169 28.4009Z" fill="#10001B"/>
</g>
<g style="mix-blend-mode:multiply" opacity="0.74">
<path d="M74.5169 28.2966H21.892C18.4441 28.2921 15.1385 26.9215 12.6988 24.4851C10.2591 22.0487 8.8842 18.7449 8.875 15.297C8.88419 11.8475 10.2586 8.54194 12.6977 6.10277C15.1369 3.66359 18.4425 2.28922 21.892 2.28003H74.5169C77.9634 2.2938 81.2646 3.67022 83.7 6.1089C86.1354 8.54758 87.5074 11.8505 87.5165 15.297C87.5074 18.7419 86.1348 22.0431 83.6989 24.479C81.263 26.9149 77.9618 28.2875 74.5169 28.2966Z" fill="#10001C"/>
</g>
<g style="mix-blend-mode:multiply" opacity="0.77">
<path d="M74.5169 28.2095H21.892C18.4425 28.2003 15.1369 26.8259 12.6977 24.3867C10.2586 21.9476 8.88419 18.642 8.875 15.1925C8.8842 11.7446 10.2591 8.44081 12.6988 6.0044C15.1385 3.568 18.4441 2.19746 21.892 2.19287H74.5169C77.9618 2.20206 81.263 3.5746 83.6989 6.01051C86.1348 8.44642 87.5074 11.7476 87.5165 15.1925C87.5074 18.639 86.1354 21.942 83.7 24.3806C81.2646 26.8193 77.9634 28.1957 74.5169 28.2095Z" fill="#11001D"/>
</g>
<g style="mix-blend-mode:multiply" opacity="0.79">
<path d="M74.5169 28.105H21.892C18.4441 28.1004 15.1385 26.7299 12.6988 24.2935C10.2591 21.8571 8.8842 18.5533 8.875 15.1054C8.8796 11.6545 10.2525 8.34624 12.6927 5.90607C15.1328 3.46591 18.4411 2.09298 21.892 2.08838H74.5169C77.9648 2.09758 81.2686 3.47251 83.705 5.91218C86.1414 8.35185 87.5119 11.6575 87.5165 15.1054C87.5074 18.5503 86.1348 21.8514 83.6989 24.2874C81.263 26.7233 77.9618 28.0958 74.5169 28.105Z" fill="#11001E"/>
</g>
<g style="mix-blend-mode:multiply" opacity="0.82">
<path d="M74.5169 27.9485H21.892C18.4425 27.9394 15.1369 26.565 12.6977 24.1258C10.2586 21.6866 8.88419 18.381 8.875 14.9315C8.90249 11.4941 10.2849 8.20634 12.7221 5.78217C15.1594 3.358 18.4545 1.99319 21.892 1.98413H74.5169C77.9634 1.9979 81.2646 3.3743 83.7 5.81298C86.1354 8.25166 87.5074 11.5546 87.5165 15.0011C87.4891 18.4355 86.109 21.7207 83.6756 24.1444C81.2421 26.5681 77.9514 27.9349 74.5169 27.9485Z" fill="#12001F"/>
</g>
<g style="mix-blend-mode:multiply" opacity="0.85">
<path d="M74.517 27.9486H21.8921C18.4412 27.944 15.1329 26.5711 12.6928 24.1309C10.2526 21.6908 8.87971 18.3825 8.8751 14.9316C8.86824 13.217 9.19974 11.5178 9.85061 9.93154C10.5015 8.34523 11.4589 6.90292 12.6681 5.68725C13.8773 4.47159 15.3145 3.50645 16.8973 2.84712C18.4801 2.18779 20.1775 1.84725 21.8921 1.84497H74.517C77.9619 1.85416 81.2631 3.2267 83.699 5.66261C86.1349 8.09852 87.5074 11.3997 87.5166 14.8446C87.5258 16.5592 87.1966 18.2588 86.5478 19.846C85.8991 21.4332 84.9435 22.8767 83.7359 24.094C82.5283 25.3113 81.0925 26.2784 79.5105 26.9398C77.9286 27.6012 76.2317 27.944 74.517 27.9486Z" fill="#130020"/>
</g>
<g style="mix-blend-mode:multiply" opacity="0.87">
<path d="M74.5169 27.8094H21.892C18.4441 27.8048 15.1385 26.4343 12.6988 23.9979C10.2591 21.5615 8.8842 18.2577 8.875 14.8098C8.89792 11.3693 10.2784 8.07709 12.7161 5.64917C15.1538 3.22126 18.4515 1.85407 21.892 1.84497H74.5169C77.9634 1.85874 81.2646 3.23516 83.7 5.67384C86.1354 8.11252 87.5074 11.4155 87.5165 14.862C87.4936 18.2978 86.115 21.5856 83.6806 24.0103C81.2461 26.4349 77.9528 27.8003 74.5169 27.8094Z" fill="#130021"/>
</g>
<g style="mix-blend-mode:multiply" opacity="0.9">
<path d="M74.5169 27.7222H21.892C18.4425 27.713 15.1369 26.3386 12.6977 23.8994C10.2586 21.4603 8.88419 18.1547 8.875 14.7052C8.8842 11.2573 10.2591 7.95351 12.6988 5.5171C15.1385 3.08069 18.4441 1.71016 21.892 1.70557H74.5169C77.9618 1.71475 81.263 3.0873 83.6989 5.52321C86.1348 7.95912 87.5074 11.2603 87.5165 14.7052C87.5074 18.1517 86.1354 21.4547 83.7 23.8933C81.2646 26.332 77.9634 27.7084 74.5169 27.7222Z" fill="#140022"/>
</g>
<g style="mix-blend-mode:multiply" opacity="0.92">
<path d="M74.5169 27.6179H21.892C18.4441 27.6133 15.1385 26.2428 12.6988 23.8064C10.2591 21.37 8.8842 18.0662 8.875 14.6183C8.88419 11.1688 10.2586 7.86323 12.6977 5.42406C15.1369 2.98488 18.4425 1.6105 21.892 1.60132H74.5169C77.9634 1.61509 81.2646 2.99148 83.7 5.43016C86.1354 7.86884 87.5074 11.1718 87.5165 14.6183C87.5074 18.0632 86.1348 21.3644 83.6989 23.8003C81.263 26.2362 77.9618 27.6087 74.5169 27.6179Z" fill="#140023"/>
</g>
<g style="mix-blend-mode:multiply" opacity="0.95">
<path d="M74.5169 27.5308H21.892C18.4425 27.5216 15.1369 26.1472 12.6977 23.708C10.2586 21.2689 8.88419 17.9633 8.875 14.5138C8.8842 11.0659 10.2591 7.7621 12.6988 5.32569C15.1385 2.88929 18.4441 1.51875 21.892 1.51416H74.5169C77.9618 1.52335 81.263 2.89589 83.6989 5.3318C86.1348 7.76771 87.5074 11.0689 87.5165 14.5138C87.5074 17.9603 86.1354 21.2632 83.7 23.7019C81.2646 26.1406 77.9634 27.517 74.5169 27.5308Z" fill="#150024"/>
</g>
<g style="mix-blend-mode:multiply" opacity="0.97">
<path d="M74.5169 27.4265H21.892C18.4441 27.4219 15.1385 26.0514 12.6988 23.615C10.2591 21.1786 8.8842 17.8748 8.875 14.4269C8.88419 10.9774 10.2586 7.67182 12.6977 5.23265C15.1369 2.79348 18.4425 1.4191 21.892 1.40991H74.5169C77.9634 1.42369 81.2646 2.8001 83.7 5.23878C86.1354 7.67746 87.5074 10.9804 87.5165 14.4269C87.5074 17.8718 86.1348 21.173 83.6989 23.6089C81.263 26.0448 77.9618 27.4173 74.5169 27.4265Z" fill="#150025"/>
</g>
<g style="mix-blend-mode:multiply" opacity="0.53">
<path d="M74.5169 27.3394H21.892C18.4425 27.3302 15.1369 25.9558 12.6977 23.5166C10.2586 21.0775 8.88419 17.7719 8.875 14.3224C8.8842 10.8745 10.2591 7.57069 12.6988 5.13429C15.1385 2.69788 18.4441 1.32734 21.892 1.32275H74.5169C77.9618 1.33194 81.263 2.70448 83.6989 5.14039C86.1348 7.5763 87.5074 10.8775 87.5165 14.3224C87.5074 17.7689 86.1354 21.0718 83.7 23.5105C81.2646 25.9492 77.9634 27.3256 74.5169 27.3394Z" fill="#160026"/>
</g>
</g>
<path d="M74.5174 27.3394H21.8925C18.443 27.3302 15.1374 25.9558 12.6982 23.5166C10.2591 21.0775 8.88467 17.7719 8.87549 14.3224C8.88469 10.8745 10.2596 7.57069 12.6993 5.13429C15.139 2.69788 18.4446 1.32734 21.8925 1.32275H74.5174C77.9623 1.33194 81.2635 2.70448 83.6994 5.14039C86.1353 7.5763 87.5078 10.8775 87.517 14.3224C87.5079 17.7689 86.1359 21.0718 83.7005 23.5105C81.265 25.9492 77.9639 27.3256 74.5174 27.3394Z" fill="#5E0499"/>
<path d="M21.8922 26.5735C18.3937 26.5735 15.0385 25.1837 12.5647 22.7099C10.0909 20.2361 8.70117 16.8809 8.70117 13.3824C8.70117 9.88396 10.0909 6.52876 12.5647 4.05496C15.0385 1.58116 18.3937 0.191406 21.8922 0.191406H74.5171C78.0156 0.191406 81.3708 1.58116 83.8446 4.05496C86.3184 6.52876 87.7082 9.88396 87.7082 13.3824C87.7082 16.8809 86.3184 20.2361 83.8446 22.7099C81.3708 25.1837 78.0156 26.5735 74.5171 26.5735H21.8922Z" fill="#8810E4"/>
<path d="M74.5171 0.365436C77.9636 0.37921 81.2648 1.75563 83.7002 4.19431C86.1356 6.63299 87.5076 9.93597 87.5167 13.3825C87.5076 16.8274 86.135 20.1285 83.6991 22.5644C81.2632 25.0003 77.962 26.3729 74.5171 26.3821H21.8922C18.4443 26.3775 15.1387 25.0069 12.699 22.5705C10.2594 20.1341 8.88442 16.8304 8.87521 13.3825C8.8844 9.93296 10.2588 6.62738 12.698 4.1882C15.1371 1.74903 18.4427 0.374622 21.8922 0.365436H74.5171ZM74.5171 0H21.8922C20.1348 -1.0475e-07 18.3946 0.346132 16.771 1.01866C15.1473 1.6912 13.6721 2.67696 12.4294 3.91963C11.1867 5.16231 10.201 6.63758 9.52844 8.26121C8.85591 9.88485 8.50977 11.6251 8.50977 13.3825C8.50977 15.1399 8.85591 16.8801 9.52844 18.5037C10.201 20.1273 11.1867 21.6026 12.4294 22.8453C13.6721 24.088 15.1473 25.0737 16.771 25.7462C18.3946 26.4188 20.1348 26.7649 21.8922 26.7649H74.5171C76.2746 26.7649 78.0148 26.4188 79.6384 25.7462C81.262 25.0737 82.7373 24.088 83.98 22.8453C85.2226 21.6026 86.2084 20.1273 86.8809 18.5037C87.5535 16.8801 87.8996 15.1399 87.8996 13.3825C87.8996 11.6251 87.5535 9.88485 86.8809 8.26121C86.2084 6.63758 85.2226 5.16231 83.98 3.91963C82.7373 2.67696 81.262 1.6912 79.6384 1.01866C78.0148 0.346132 76.2746 -1.0475e-07 74.5171 0Z" fill="#4B0395"/>
<g style="mix-blend-mode:soft-light" opacity="0.35">
<g style="mix-blend-mode:soft-light" opacity="0.35">
<path d="M7.72668 26.5735H0L26.3473 0.817871H34.0739L7.72668 26.5735Z" fill="white"/>
</g>
<g style="mix-blend-mode:soft-light" opacity="0.35">
<path d="M23.5631 26.5735H15.8364L42.1837 0.817871H49.9104L23.5631 26.5735Z" fill="white"/>
</g>
<g style="mix-blend-mode:soft-light" opacity="0.35">
<path d="M40.7218 26.5735H32.9951L59.3424 0.817871H67.0691L40.7218 26.5735Z" fill="white"/>
</g>
<g style="mix-blend-mode:soft-light" opacity="0.35">
<path d="M58.6285 26.5735H50.9019L77.2491 0.817871H84.9758L58.6285 26.5735Z" fill="white"/>
</g>
<g style="mix-blend-mode:soft-light" opacity="0.35">
<path d="M74.3779 26.5735H66.6338L92.9984 0.817871H100.725L74.3779 26.5735Z" fill="white"/>
</g>
</g>
<g style="mix-blend-mode:hard-light" opacity="0.42">
<path style="mix-blend-mode:hard-light" opacity="0.42" d="M74.4998 0.382812H21.8227C14.6336 0.382812 8.80566 6.20684 8.80566 13.3911C8.80566 20.5754 14.6336 26.3994 21.8227 26.3994H74.4998C81.6889 26.3994 87.5168 20.5754 87.5168 13.3911C87.5168 6.20684 81.6889 0.382812 74.4998 0.382812Z" fill="url(#paint0_radial_619_17093)"/>
</g>
<g opacity="0.38">
<path opacity="0.38" d="M74.0995 0.800537H21.8923C18.4613 0.82353 15.1789 2.20383 12.7625 4.63974C10.3462 7.07565 8.99241 10.3691 8.99708 13.8001C8.99708 13.9916 8.99708 14.183 8.99708 14.3744C9.13972 11.0451 10.5555 7.89769 12.9519 5.58217C15.3484 3.26665 18.5426 1.95988 21.8749 1.93171H74.0995C77.4331 1.95565 80.6297 3.26102 83.0271 5.57741C85.4244 7.89381 86.8389 11.0437 86.9773 14.3744C86.9773 14.183 86.9773 13.9916 86.9773 13.8001C86.982 10.3721 85.6306 7.08126 83.218 4.64585C80.8055 2.21043 77.5275 0.828106 74.0995 0.800537Z" fill="#F9A871"/>
</g>
<path d="M21.368 20C21.1067 20 20.892 19.9207 20.724 19.762C20.556 19.594 20.472 19.3887 20.472 19.146V11.026H22.292V19.146C22.292 19.3887 22.2033 19.594 22.026 19.762C21.858 19.9207 21.6387 20 21.368 20ZM18.274 11.81C18.0313 11.81 17.826 11.7353 17.658 11.586C17.4993 11.4367 17.42 11.2407 17.42 10.998C17.42 10.7553 17.4993 10.564 17.658 10.424C17.826 10.2747 18.0313 10.2 18.274 10.2H24.49C24.7327 10.2 24.9333 10.2747 25.092 10.424C25.26 10.5733 25.344 10.7693 25.344 11.012C25.344 11.2547 25.26 11.4507 25.092 11.6C24.9333 11.74 24.7327 11.81 24.49 11.81H18.274ZM27.3877 10.2H32.0777C32.3203 10.2 32.521 10.2793 32.6797 10.438C32.8477 10.5873 32.9317 10.7833 32.9317 11.026C32.9317 11.2593 32.8477 11.4507 32.6797 11.6C32.521 11.74 32.3203 11.81 32.0777 11.81H28.1577L28.2837 11.572V14.302L28.1717 14.19H31.4477C31.6903 14.19 31.891 14.2693 32.0497 14.428C32.2177 14.5773 32.3017 14.7733 32.3017 15.016C32.3017 15.2493 32.2177 15.4407 32.0497 15.59C31.891 15.73 31.6903 15.8 31.4477 15.8H28.2137L28.2837 15.688V18.516L28.1717 18.39H32.0777C32.3203 18.39 32.521 18.474 32.6797 18.642C32.8477 18.8007 32.9317 18.9873 32.9317 19.202C32.9317 19.4353 32.8477 19.6267 32.6797 19.776C32.521 19.9253 32.3203 20 32.0777 20H27.3877C27.145 20 26.9397 19.9207 26.7717 19.762C26.613 19.594 26.5337 19.3887 26.5337 19.146V11.054C26.5337 10.8113 26.613 10.6107 26.7717 10.452C26.9397 10.284 27.145 10.2 27.3877 10.2ZM41.6994 10.2C41.9234 10.2 42.1054 10.2747 42.2454 10.424C42.3854 10.5733 42.4554 10.76 42.4554 10.984V19.146C42.4554 19.3887 42.3714 19.594 42.2034 19.762C42.0447 19.9207 41.8441 20 41.6014 20C41.4801 20 41.3541 19.9813 41.2234 19.944C41.1021 19.8973 41.0087 19.8367 40.9434 19.762L35.4414 12.776L35.8054 12.552V19.216C35.8054 19.44 35.7307 19.6267 35.5814 19.776C35.4414 19.9253 35.2547 20 35.0214 20C34.7974 20 34.6154 19.9253 34.4754 19.776C34.3354 19.6267 34.2654 19.44 34.2654 19.216V11.054C34.2654 10.8113 34.3447 10.6107 34.5034 10.452C34.6714 10.284 34.8767 10.2 35.1194 10.2C35.2501 10.2 35.3854 10.228 35.5254 10.284C35.6654 10.3307 35.7681 10.4053 35.8334 10.508L41.1674 17.312L40.9294 17.48V10.984C40.9294 10.76 40.9994 10.5733 41.1394 10.424C41.2794 10.2747 41.4661 10.2 41.6994 10.2ZM47.4303 20.14C46.777 20.14 46.189 20.0607 45.6663 19.902C45.1436 19.734 44.6443 19.4447 44.1683 19.034C44.047 18.9313 43.9536 18.8147 43.8883 18.684C43.823 18.5533 43.7903 18.4227 43.7903 18.292C43.7903 18.0773 43.865 17.8907 44.0143 17.732C44.173 17.564 44.369 17.48 44.6023 17.48C44.7796 17.48 44.9383 17.536 45.0783 17.648C45.433 17.9373 45.783 18.1567 46.1283 18.306C46.483 18.4553 46.917 18.53 47.4303 18.53C47.7756 18.53 48.093 18.4787 48.3823 18.376C48.6716 18.264 48.905 18.1193 49.0823 17.942C49.2596 17.7553 49.3483 17.5453 49.3483 17.312C49.3483 17.032 49.2643 16.794 49.0963 16.598C48.9283 16.402 48.6716 16.2387 48.3263 16.108C47.981 15.968 47.5423 15.8607 47.0103 15.786C46.5063 15.7113 46.063 15.5993 45.6803 15.45C45.2976 15.2913 44.9756 15.0953 44.7143 14.862C44.4623 14.6193 44.271 14.3393 44.1403 14.022C44.0096 13.6953 43.9443 13.3313 43.9443 12.93C43.9443 12.3233 44.0983 11.8053 44.4063 11.376C44.7236 10.9467 45.1483 10.62 45.6803 10.396C46.2123 10.172 46.8003 10.06 47.4443 10.06C48.051 10.06 48.611 10.1533 49.1243 10.34C49.647 10.5173 50.0716 10.746 50.3983 11.026C50.669 11.2407 50.8043 11.488 50.8043 11.768C50.8043 11.9733 50.725 12.16 50.5663 12.328C50.4076 12.496 50.221 12.58 50.0063 12.58C49.8663 12.58 49.7403 12.538 49.6283 12.454C49.479 12.3233 49.2783 12.202 49.0263 12.09C48.7743 11.9687 48.5083 11.8707 48.2283 11.796C47.9483 11.712 47.687 11.67 47.4443 11.67C47.043 11.67 46.7023 11.7213 46.4223 11.824C46.1516 11.9267 45.9463 12.0667 45.8063 12.244C45.6663 12.4213 45.5963 12.6267 45.5963 12.86C45.5963 13.14 45.6756 13.3733 45.8343 13.56C46.0023 13.7373 46.2403 13.882 46.5483 13.994C46.8563 14.0967 47.225 14.19 47.6543 14.274C48.2143 14.3767 48.7043 14.498 49.1243 14.638C49.5536 14.778 49.9083 14.96 50.1883 15.184C50.4683 15.3987 50.6783 15.674 50.8183 16.01C50.9583 16.3367 51.0283 16.738 51.0283 17.214C51.0283 17.8207 50.8603 18.3433 50.5243 18.782C50.1883 19.2207 49.745 19.5567 49.1943 19.79C48.653 20.0233 48.065 20.14 47.4303 20.14ZM53.1238 14.526C52.8532 14.526 52.6432 14.456 52.4938 14.316C52.3538 14.1667 52.2838 13.9567 52.2838 13.686V13.448C52.2838 13.1773 52.3538 12.972 52.4938 12.832C52.6432 12.6827 52.8532 12.608 53.1238 12.608H53.3058C53.5765 12.608 53.7818 12.6827 53.9218 12.832C54.0712 12.972 54.1458 13.1773 54.1458 13.448V13.686C54.1458 13.9567 54.0712 14.1667 53.9218 14.316C53.7818 14.456 53.5765 14.526 53.3058 14.526H53.1238ZM53.1238 20C52.8532 20 52.6432 19.93 52.4938 19.79C52.3538 19.6407 52.2838 19.4307 52.2838 19.16V18.922C52.2838 18.6513 52.3538 18.446 52.4938 18.306C52.6432 18.1567 52.8532 18.082 53.1238 18.082H53.3058C53.5765 18.082 53.7818 18.1567 53.9218 18.306C54.0712 18.446 54.1458 18.6513 54.1458 18.922V19.16C54.1458 19.4307 54.0712 19.6407 53.9218 19.79C53.7818 19.93 53.5765 20 53.3058 20H53.1238ZM62.7938 20.14C61.9911 20.14 61.3098 19.93 60.7498 19.51C60.1991 19.0807 59.7791 18.488 59.4898 17.732C59.2004 16.9667 59.0558 16.0893 59.0558 15.1C59.0558 14.1013 59.2004 13.224 59.4898 12.468C59.7791 11.712 60.1991 11.124 60.7498 10.704C61.3098 10.2747 61.9911 10.06 62.7938 10.06C63.5964 10.06 64.2731 10.2747 64.8238 10.704C65.3838 11.124 65.8084 11.712 66.0978 12.468C66.3871 13.224 66.5318 14.1013 66.5318 15.1C66.5318 16.0893 66.3871 16.9667 66.0978 17.732C65.8084 18.488 65.3838 19.0807 64.8238 19.51C64.2731 19.93 63.5964 20.14 62.7938 20.14ZM62.7938 18.46C63.1858 18.46 63.5218 18.3387 63.8018 18.096C64.0911 17.844 64.3151 17.4707 64.4738 16.976C64.6324 16.472 64.7118 15.8467 64.7118 15.1C64.7118 14.344 64.6324 13.7187 64.4738 13.224C64.3151 12.7293 64.0911 12.3607 63.8018 12.118C63.5218 11.866 63.1858 11.74 62.7938 11.74C62.4111 11.74 62.0751 11.866 61.7858 12.118C61.4964 12.3607 61.2724 12.7293 61.1138 13.224C60.9551 13.7187 60.8758 14.344 60.8758 15.1C60.8758 15.8467 60.9551 16.472 61.1138 16.976C61.2724 17.4707 61.4964 17.844 61.7858 18.096C62.0751 18.3387 62.4111 18.46 62.7938 18.46ZM71.1134 20.14C70.3107 20.14 69.6294 19.93 69.0694 19.51C68.5187 19.0807 68.0987 18.488 67.8094 17.732C67.5201 16.9667 67.3754 16.0893 67.3754 15.1C67.3754 14.1013 67.5201 13.224 67.8094 12.468C68.0987 11.712 68.5187 11.124 69.0694 10.704C69.6294 10.2747 70.3107 10.06 71.1134 10.06C71.9161 10.06 72.5927 10.2747 73.1434 10.704C73.7034 11.124 74.1281 11.712 74.4174 12.468C74.7067 13.224 74.8514 14.1013 74.8514 15.1C74.8514 16.0893 74.7067 16.9667 74.4174 17.732C74.1281 18.488 73.7034 19.0807 73.1434 19.51C72.5927 19.93 71.9161 20.14 71.1134 20.14ZM71.1134 18.46C71.5054 18.46 71.8414 18.3387 72.1214 18.096C72.4107 17.844 72.6347 17.4707 72.7934 16.976C72.9521 16.472 73.0314 15.8467 73.0314 15.1C73.0314 14.344 72.9521 13.7187 72.7934 13.224C72.6347 12.7293 72.4107 12.3607 72.1214 12.118C71.8414 11.866 71.5054 11.74 71.1134 11.74C70.7307 11.74 70.3947 11.866 70.1054 12.118C69.8161 12.3607 69.5921 12.7293 69.4334 13.224C69.2747 13.7187 69.1954 14.344 69.1954 15.1C69.1954 15.8467 69.2747 16.472 69.4334 16.976C69.5921 17.4707 69.8161 17.844 70.1054 18.096C70.3947 18.3387 70.7307 18.46 71.1134 18.46Z" fill="#FFF04B"/>
<defs>
<radialGradient id="paint0_radial_619_17093" cx="0" cy="0" r="1" gradientUnits="userSpaceOnUse" gradientTransform="translate(6076.65 104389) scale(2595.11 857.768)">
<stop stop-color="#FFC65D"/>
<stop offset="1"/>
</radialGradient>
</defs>
</svg>
