<svg width="297" height="44" viewBox="0 0 297 44" fill="none" xmlns="http://www.w3.org/2000/svg">
<rect width="297" height="44" rx="22" fill="url(#paint0_linear_619_9658)"/>
<path fill-rule="evenodd" clip-rule="evenodd" d="M22 12.5C20.3431 12.5 19 13.8431 19 15.5V29.5C19 31.1569 20.3431 32.5 22 32.5H34C35.6569 32.5 37 31.1569 37 29.5V18.2426C37 17.447 36.6839 16.6839 36.1213 16.1213L33.3787 13.3787C32.8161 12.8161 32.053 12.5 31.2574 12.5H22ZM31 14.7071V16.5C31 17.6046 31.8954 18.5 33 18.5H34.7929C35.2383 18.5 35.4614 17.9614 35.1464 17.6464L31.8536 14.3535C31.5386 14.0386 31 14.2617 31 14.7071ZM23 21.5C23 20.9477 23.4477 20.5 24 20.5H32C32.5523 20.5 33 20.9477 33 21.5C33 22.0523 32.5523 22.5 32 22.5H24C23.4477 22.5 23 22.0523 23 21.5ZM24 24.5C23.4477 24.5 23 24.9477 23 25.5C23 26.0523 23.4477 26.5 24 26.5H28C28.5523 26.5 29 26.0523 29 25.5C29 24.9477 28.5523 24.5 28 24.5H24Z" fill="#D58900"/>
<path d="M56.992 29C56.6933 29 56.448 28.9093 56.256 28.728C56.064 28.536 55.968 28.3013 55.968 28.024V18.744H58.048V28.024C58.048 28.3013 57.9467 28.536 57.744 28.728C57.552 28.9093 57.3013 29 56.992 29ZM53.456 19.64C53.1787 19.64 52.944 19.5547 52.752 19.384C52.5707 19.2133 52.48 18.9893 52.48 18.712C52.48 18.4347 52.5707 18.216 52.752 18.056C52.944 17.8853 53.1787 17.8 53.456 17.8H60.56C60.8373 17.8 61.0667 17.8853 61.248 18.056C61.44 18.2267 61.536 18.4507 61.536 18.728C61.536 19.0053 61.44 19.2293 61.248 19.4C61.0667 19.56 60.8373 19.64 60.56 19.64H53.456ZM64.8457 29.16C63.9391 29.16 63.1497 28.9733 62.4778 28.6C61.8164 28.216 61.3044 27.6987 60.9417 27.048C60.5897 26.3973 60.4137 25.6613 60.4137 24.84C60.4137 23.88 60.6057 23.064 60.9897 22.392C61.3844 21.7093 61.8964 21.1867 62.5257 20.824C63.1551 20.4613 63.8218 20.28 64.5258 20.28C65.0698 20.28 65.5818 20.392 66.0617 20.616C66.5524 20.84 66.9844 21.1493 67.3578 21.544C67.7311 21.928 68.0244 22.376 68.2378 22.888C68.4618 23.4 68.5738 23.944 68.5738 24.52C68.5631 24.776 68.4618 24.984 68.2698 25.144C68.0778 25.304 67.8538 25.384 67.5978 25.384H61.4857L61.0057 23.784H66.8778L66.5258 24.104V23.672C66.5044 23.3627 66.3924 23.0853 66.1898 22.84C65.9978 22.5947 65.7524 22.4027 65.4538 22.264C65.1658 22.1147 64.8564 22.04 64.5258 22.04C64.2058 22.04 63.9071 22.0827 63.6298 22.168C63.3524 22.2533 63.1124 22.3973 62.9097 22.6C62.7071 22.8027 62.5471 23.0747 62.4297 23.416C62.3124 23.7573 62.2537 24.1893 62.2537 24.712C62.2537 25.288 62.3711 25.7787 62.6057 26.184C62.8511 26.5787 63.1604 26.8827 63.5338 27.096C63.9178 27.2987 64.3231 27.4 64.7498 27.4C65.1444 27.4 65.4591 27.368 65.6937 27.304C65.9284 27.24 66.1151 27.1653 66.2538 27.08C66.4031 26.984 66.5364 26.904 66.6537 26.84C66.8458 26.744 67.0271 26.696 67.1978 26.696C67.4324 26.696 67.6244 26.776 67.7737 26.936C67.9338 27.096 68.0138 27.2827 68.0138 27.496C68.0138 27.784 67.8644 28.0453 67.5658 28.28C67.2884 28.5147 66.8991 28.7227 66.3978 28.904C65.8964 29.0747 65.3791 29.16 64.8457 29.16ZM70.8913 29C70.6139 29 70.3846 28.9093 70.2033 28.728C70.0219 28.536 69.9313 28.3013 69.9313 28.024V21.416C69.9313 21.1387 70.0219 20.9093 70.2033 20.728C70.3846 20.536 70.6139 20.44 70.8913 20.44C71.1686 20.44 71.3979 20.536 71.5793 20.728C71.7606 20.9093 71.8513 21.1387 71.8513 21.416V22.92L71.7393 21.848C71.8566 21.592 72.0059 21.368 72.1873 21.176C72.3793 20.9733 72.5926 20.808 72.8273 20.68C73.0619 20.5413 73.3126 20.44 73.5793 20.376C73.8459 20.312 74.1126 20.28 74.3793 20.28C74.6993 20.28 74.9659 20.3707 75.1793 20.552C75.4033 20.7333 75.5153 20.9467 75.5153 21.192C75.5153 21.544 75.4246 21.8 75.2433 21.96C75.0619 22.1093 74.8646 22.184 74.6513 22.184C74.4486 22.184 74.2619 22.1467 74.0913 22.072C73.9313 21.9973 73.7446 21.96 73.5313 21.96C73.3393 21.96 73.1419 22.008 72.9393 22.104C72.7473 22.1893 72.5659 22.328 72.3953 22.52C72.2353 22.712 72.1019 22.952 71.9953 23.24C71.8993 23.5173 71.8513 23.848 71.8513 24.232V28.024C71.8513 28.3013 71.7606 28.536 71.5793 28.728C71.3979 28.9093 71.1686 29 70.8913 29ZM81.0448 20.28C81.8981 20.28 82.5274 20.488 82.9328 20.904C83.3381 21.3093 83.6048 21.8373 83.7328 22.488L83.4608 22.344L83.5888 22.088C83.7168 21.8427 83.9141 21.5813 84.1808 21.304C84.4474 21.016 84.7674 20.776 85.1408 20.584C85.5248 20.3813 85.9514 20.28 86.4208 20.28C87.1888 20.28 87.7701 20.4453 88.1648 20.776C88.5701 21.1067 88.8474 21.5493 88.9968 22.104C89.1461 22.648 89.2208 23.256 89.2208 23.928V28.024C89.2208 28.3013 89.1301 28.536 88.9488 28.728C88.7674 28.9093 88.5381 29 88.2608 29C87.9834 29 87.7541 28.9093 87.5728 28.728C87.3914 28.536 87.3008 28.3013 87.3008 28.024V23.928C87.3008 23.576 87.2581 23.2613 87.1728 22.984C87.0874 22.696 86.9328 22.4667 86.7088 22.296C86.4848 22.1253 86.1648 22.04 85.7488 22.04C85.3434 22.04 84.9968 22.1253 84.7088 22.296C84.4208 22.4667 84.2021 22.696 84.0528 22.984C83.9141 23.2613 83.8448 23.576 83.8448 23.928V28.024C83.8448 28.3013 83.7541 28.536 83.5728 28.728C83.3914 28.9093 83.1621 29 82.8848 29C82.6074 29 82.3781 28.9093 82.1968 28.728C82.0154 28.536 81.9248 28.3013 81.9248 28.024V23.928C81.9248 23.576 81.8821 23.2613 81.7968 22.984C81.7114 22.696 81.5568 22.4667 81.3328 22.296C81.1088 22.1253 80.7888 22.04 80.3728 22.04C79.9674 22.04 79.6208 22.1253 79.3328 22.296C79.0448 22.4667 78.8261 22.696 78.6768 22.984C78.5381 23.2613 78.4688 23.576 78.4688 23.928V28.024C78.4688 28.3013 78.3781 28.536 78.1968 28.728C78.0154 28.9093 77.7861 29 77.5088 29C77.2314 29 77.0021 28.9093 76.8208 28.728C76.6394 28.536 76.5488 28.3013 76.5488 28.024V21.416C76.5488 21.1387 76.6394 20.9093 76.8208 20.728C77.0021 20.536 77.2314 20.44 77.5088 20.44C77.7861 20.44 78.0154 20.536 78.1968 20.728C78.3781 20.9093 78.4688 21.1387 78.4688 21.416V22.104L78.2288 22.056C78.3248 21.8747 78.4581 21.6827 78.6288 21.48C78.7994 21.2667 79.0074 21.0693 79.2528 20.888C79.4981 20.7067 79.7701 20.5627 80.0688 20.456C80.3674 20.3387 80.6928 20.28 81.0448 20.28ZM90.4828 27.672C90.3761 27.5227 90.3281 27.3307 90.3388 27.096C90.3494 26.8613 90.4881 26.6587 90.7548 26.488C90.9254 26.3813 91.1068 26.3387 91.2988 26.36C91.4908 26.3707 91.6774 26.4667 91.8588 26.648C92.1681 26.9573 92.4934 27.1973 92.8348 27.368C93.1761 27.5387 93.6028 27.624 94.1148 27.624C94.2748 27.6133 94.4508 27.592 94.6428 27.56C94.8348 27.5173 95.0001 27.432 95.1388 27.304C95.2881 27.1653 95.3628 26.9573 95.3628 26.68C95.3628 26.4453 95.2828 26.2587 95.1228 26.12C94.9628 25.9813 94.7494 25.864 94.4828 25.768C94.2268 25.672 93.9388 25.5813 93.6188 25.496C93.2881 25.4 92.9468 25.2933 92.5948 25.176C92.2534 25.0587 91.9388 24.9093 91.6508 24.728C91.3628 24.536 91.1281 24.2853 90.9468 23.976C90.7654 23.6667 90.6748 23.2773 90.6748 22.808C90.6748 22.2747 90.8241 21.8213 91.1228 21.448C91.4214 21.0747 91.8054 20.7867 92.2748 20.584C92.7548 20.3813 93.2561 20.28 93.7788 20.28C94.1094 20.28 94.4561 20.3227 94.8188 20.408C95.1814 20.4827 95.5281 20.6107 95.8588 20.792C96.1894 20.9627 96.4668 21.192 96.6908 21.48C96.8081 21.64 96.8774 21.832 96.8988 22.056C96.9201 22.28 96.8188 22.4827 96.5948 22.664C96.4348 22.792 96.2481 22.8507 96.0348 22.84C95.8214 22.8187 95.6454 22.744 95.5068 22.616C95.3254 22.3813 95.0801 22.1947 94.7708 22.056C94.4721 21.9173 94.1254 21.848 93.7308 21.848C93.5708 21.848 93.3948 21.8693 93.2028 21.912C93.0214 21.944 92.8614 22.024 92.7228 22.152C92.5841 22.2693 92.5148 22.4613 92.5148 22.728C92.5148 22.9733 92.5948 23.1707 92.7548 23.32C92.9148 23.4587 93.1281 23.576 93.3948 23.672C93.6721 23.7573 93.9654 23.8427 94.2748 23.928C94.5948 24.0133 94.9201 24.1147 95.2508 24.232C95.5814 24.3493 95.8854 24.504 96.1628 24.696C96.4401 24.888 96.6641 25.1387 96.8348 25.448C97.0054 25.7467 97.0908 26.1307 97.0908 26.6C97.0908 27.144 96.9308 27.608 96.6108 27.992C96.2908 28.376 95.8908 28.6693 95.4108 28.872C94.9308 29.064 94.4401 29.16 93.9388 29.16C93.3094 29.16 92.6801 29.0533 92.0508 28.84C91.4214 28.616 90.8988 28.2267 90.4828 27.672ZM109.55 20.28C109.827 20.28 110.057 20.3707 110.238 20.552C110.419 20.7333 110.51 20.968 110.51 21.256V28.024C110.51 28.3013 110.419 28.536 110.238 28.728C110.057 28.9093 109.827 29 109.55 29C109.273 29 109.043 28.9093 108.862 28.728C108.681 28.536 108.59 28.3013 108.59 28.024V27.24L108.942 27.384C108.942 27.5227 108.867 27.6933 108.718 27.896C108.569 28.088 108.366 28.28 108.11 28.472C107.854 28.664 107.55 28.8293 107.198 28.968C106.857 29.096 106.483 29.16 106.078 29.16C105.342 29.16 104.675 28.9733 104.078 28.6C103.481 28.216 103.006 27.6933 102.654 27.032C102.313 26.36 102.142 25.592 102.142 24.728C102.142 23.8533 102.313 23.0853 102.654 22.424C103.006 21.752 103.475 21.2293 104.062 20.856C104.649 20.472 105.299 20.28 106.014 20.28C106.473 20.28 106.894 20.3493 107.278 20.488C107.662 20.6267 107.993 20.8027 108.27 21.016C108.558 21.2293 108.777 21.448 108.926 21.672C109.086 21.8853 109.166 22.0667 109.166 22.216L108.59 22.424V21.256C108.59 20.9787 108.681 20.7493 108.862 20.568C109.043 20.376 109.273 20.28 109.55 20.28ZM106.318 27.4C106.787 27.4 107.198 27.2827 107.55 27.048C107.902 26.8133 108.174 26.4933 108.366 26.088C108.569 25.6827 108.67 25.2293 108.67 24.728C108.67 24.216 108.569 23.7573 108.366 23.352C108.174 22.9467 107.902 22.6267 107.55 22.392C107.198 22.1573 106.787 22.04 106.318 22.04C105.859 22.04 105.454 22.1573 105.102 22.392C104.75 22.6267 104.473 22.9467 104.27 23.352C104.078 23.7573 103.982 24.216 103.982 24.728C103.982 25.2293 104.078 25.6827 104.27 26.088C104.473 26.4933 104.75 26.8133 105.102 27.048C105.454 27.2827 105.859 27.4 106.318 27.4ZM116.845 20.28C117.634 20.28 118.231 20.4453 118.637 20.776C119.053 21.1067 119.335 21.5493 119.485 22.104C119.645 22.648 119.725 23.256 119.725 23.928V28.024C119.725 28.3013 119.634 28.536 119.453 28.728C119.271 28.9093 119.042 29 118.765 29C118.487 29 118.258 28.9093 118.077 28.728C117.895 28.536 117.805 28.3013 117.805 28.024V23.928C117.805 23.576 117.757 23.2613 117.661 22.984C117.575 22.696 117.415 22.4667 117.181 22.296C116.946 22.1253 116.61 22.04 116.173 22.04C115.746 22.04 115.383 22.1253 115.085 22.296C114.797 22.4667 114.573 22.696 114.413 22.984C114.263 23.2613 114.189 23.576 114.189 23.928V28.024C114.189 28.3013 114.098 28.536 113.917 28.728C113.735 28.9093 113.506 29 113.229 29C112.951 29 112.722 28.9093 112.541 28.728C112.359 28.536 112.269 28.3013 112.269 28.024V21.416C112.269 21.1387 112.359 20.9093 112.541 20.728C112.722 20.536 112.951 20.44 113.229 20.44C113.506 20.44 113.735 20.536 113.917 20.728C114.098 20.9093 114.189 21.1387 114.189 21.416V22.104L113.949 22.056C114.045 21.8747 114.183 21.6827 114.365 21.48C114.546 21.2667 114.759 21.0693 115.005 20.888C115.25 20.7067 115.527 20.5627 115.837 20.456C116.146 20.3387 116.482 20.28 116.845 20.28ZM128.488 17.16C128.765 17.16 128.995 17.2507 129.176 17.432C129.357 17.6133 129.448 17.848 129.448 18.136V28.024C129.448 28.3013 129.357 28.536 129.176 28.728C128.995 28.9093 128.765 29 128.488 29C128.211 29 127.981 28.9093 127.8 28.728C127.619 28.536 127.528 28.3013 127.528 28.024V27.24L127.88 27.384C127.88 27.5227 127.805 27.6933 127.656 27.896C127.507 28.088 127.304 28.28 127.048 28.472C126.792 28.664 126.488 28.8293 126.136 28.968C125.795 29.096 125.421 29.16 125.016 29.16C124.28 29.16 123.613 28.9733 123.016 28.6C122.419 28.216 121.944 27.6933 121.592 27.032C121.251 26.36 121.08 25.592 121.08 24.728C121.08 23.8533 121.251 23.0853 121.592 22.424C121.944 21.752 122.413 21.2293 123 20.856C123.587 20.472 124.237 20.28 124.952 20.28C125.411 20.28 125.832 20.3493 126.216 20.488C126.6 20.6267 126.931 20.8027 127.208 21.016C127.496 21.2293 127.715 21.448 127.864 21.672C128.024 21.8853 128.104 22.0667 128.104 22.216L127.528 22.424V18.136C127.528 17.8587 127.619 17.6293 127.8 17.448C127.981 17.256 128.211 17.16 128.488 17.16ZM125.256 27.4C125.725 27.4 126.136 27.2827 126.488 27.048C126.84 26.8133 127.112 26.4933 127.304 26.088C127.507 25.6827 127.608 25.2293 127.608 24.728C127.608 24.216 127.507 23.7573 127.304 23.352C127.112 22.9467 126.84 22.6267 126.488 22.392C126.136 22.1573 125.725 22.04 125.256 22.04C124.797 22.04 124.392 22.1573 124.04 22.392C123.688 22.6267 123.411 22.9467 123.208 23.352C123.016 23.7573 122.92 24.216 122.92 24.728C122.92 25.2293 123.016 25.6827 123.208 26.088C123.411 26.4933 123.688 26.8133 124.04 27.048C124.392 27.2827 124.797 27.4 125.256 27.4ZM143.371 18.344C143.649 18.4827 143.809 18.7013 143.851 19C143.905 19.2987 143.83 19.5707 143.627 19.816C143.489 20.008 143.307 20.1147 143.083 20.136C142.87 20.1573 142.651 20.1147 142.427 20.008C142.171 19.8907 141.899 19.8 141.611 19.736C141.334 19.672 141.041 19.64 140.731 19.64C140.155 19.64 139.638 19.7307 139.179 19.912C138.731 20.0933 138.347 20.3547 138.027 20.696C137.707 21.0267 137.462 21.4213 137.291 21.88C137.131 22.3387 137.051 22.8453 137.051 23.4C137.051 24.0507 137.142 24.616 137.323 25.096C137.515 25.576 137.777 25.976 138.107 26.296C138.438 26.616 138.827 26.856 139.275 27.016C139.723 27.1653 140.209 27.24 140.731 27.24C141.019 27.24 141.307 27.2133 141.595 27.16C141.883 27.1067 142.161 27.0107 142.427 26.872C142.651 26.7653 142.87 26.728 143.083 26.76C143.307 26.792 143.494 26.904 143.643 27.096C143.857 27.3627 143.931 27.64 143.867 27.928C143.814 28.2053 143.654 28.408 143.387 28.536C143.11 28.6747 142.822 28.792 142.523 28.888C142.235 28.9733 141.942 29.0373 141.643 29.08C141.345 29.1333 141.041 29.16 140.731 29.16C139.963 29.16 139.233 29.0373 138.539 28.792C137.857 28.5467 137.243 28.184 136.699 27.704C136.166 27.224 135.745 26.6267 135.435 25.912C135.126 25.1867 134.971 24.3493 134.971 23.4C134.971 22.5787 135.11 21.8213 135.387 21.128C135.675 20.4347 136.075 19.8373 136.587 19.336C137.11 18.824 137.723 18.4293 138.427 18.152C139.131 17.864 139.899 17.72 140.731 17.72C141.201 17.72 141.659 17.7733 142.107 17.88C142.555 17.9867 142.977 18.1413 143.371 18.344ZM153.387 24.728C153.387 25.6027 153.189 26.376 152.795 27.048C152.411 27.7093 151.888 28.2267 151.227 28.6C150.576 28.9733 149.845 29.16 149.035 29.16C148.224 29.16 147.488 28.9733 146.827 28.6C146.176 28.2267 145.653 27.7093 145.259 27.048C144.875 26.376 144.683 25.6027 144.683 24.728C144.683 23.8533 144.875 23.0853 145.259 22.424C145.653 21.752 146.176 21.2293 146.827 20.856C147.488 20.472 148.224 20.28 149.035 20.28C149.845 20.28 150.576 20.472 151.227 20.856C151.888 21.2293 152.411 21.752 152.795 22.424C153.189 23.0853 153.387 23.8533 153.387 24.728ZM151.467 24.728C151.467 24.184 151.355 23.7147 151.131 23.32C150.917 22.9147 150.624 22.6 150.251 22.376C149.888 22.152 149.483 22.04 149.035 22.04C148.587 22.04 148.176 22.152 147.803 22.376C147.44 22.6 147.147 22.9147 146.923 23.32C146.709 23.7147 146.603 24.184 146.603 24.728C146.603 25.2613 146.709 25.7307 146.923 26.136C147.147 26.5307 147.44 26.84 147.803 27.064C148.176 27.288 148.587 27.4 149.035 27.4C149.483 27.4 149.888 27.288 150.251 27.064C150.624 26.84 150.917 26.5307 151.131 26.136C151.355 25.7307 151.467 25.2613 151.467 24.728ZM159.323 20.28C160.112 20.28 160.71 20.4453 161.115 20.776C161.531 21.1067 161.814 21.5493 161.963 22.104C162.123 22.648 162.203 23.256 162.203 23.928V28.024C162.203 28.3013 162.112 28.536 161.931 28.728C161.75 28.9093 161.52 29 161.243 29C160.966 29 160.736 28.9093 160.555 28.728C160.374 28.536 160.283 28.3013 160.283 28.024V23.928C160.283 23.576 160.235 23.2613 160.139 22.984C160.054 22.696 159.894 22.4667 159.659 22.296C159.424 22.1253 159.088 22.04 158.651 22.04C158.224 22.04 157.862 22.1253 157.563 22.296C157.275 22.4667 157.051 22.696 156.891 22.984C156.742 23.2613 156.667 23.576 156.667 23.928V28.024C156.667 28.3013 156.576 28.536 156.395 28.728C156.214 28.9093 155.984 29 155.707 29C155.43 29 155.2 28.9093 155.019 28.728C154.838 28.536 154.747 28.3013 154.747 28.024V21.416C154.747 21.1387 154.838 20.9093 155.019 20.728C155.2 20.536 155.43 20.44 155.707 20.44C155.984 20.44 156.214 20.536 156.395 20.728C156.576 20.9093 156.667 21.1387 156.667 21.416V22.104L156.427 22.056C156.523 21.8747 156.662 21.6827 156.843 21.48C157.024 21.2667 157.238 21.0693 157.483 20.888C157.728 20.7067 158.006 20.5627 158.315 20.456C158.624 20.3387 158.96 20.28 159.323 20.28ZM170.966 17.16C171.243 17.16 171.473 17.2507 171.654 17.432C171.835 17.6133 171.926 17.848 171.926 18.136V28.024C171.926 28.3013 171.835 28.536 171.654 28.728C171.473 28.9093 171.243 29 170.966 29C170.689 29 170.459 28.9093 170.278 28.728C170.097 28.536 170.006 28.3013 170.006 28.024V27.24L170.358 27.384C170.358 27.5227 170.283 27.6933 170.134 27.896C169.985 28.088 169.782 28.28 169.526 28.472C169.27 28.664 168.966 28.8293 168.614 28.968C168.273 29.096 167.899 29.16 167.494 29.16C166.758 29.16 166.091 28.9733 165.494 28.6C164.897 28.216 164.422 27.6933 164.07 27.032C163.729 26.36 163.558 25.592 163.558 24.728C163.558 23.8533 163.729 23.0853 164.07 22.424C164.422 21.752 164.891 21.2293 165.478 20.856C166.065 20.472 166.715 20.28 167.43 20.28C167.889 20.28 168.31 20.3493 168.694 20.488C169.078 20.6267 169.409 20.8027 169.686 21.016C169.974 21.2293 170.193 21.448 170.342 21.672C170.502 21.8853 170.582 22.0667 170.582 22.216L170.006 22.424V18.136C170.006 17.8587 170.097 17.6293 170.278 17.448C170.459 17.256 170.689 17.16 170.966 17.16ZM167.734 27.4C168.203 27.4 168.614 27.2827 168.966 27.048C169.318 26.8133 169.59 26.4933 169.782 26.088C169.985 25.6827 170.086 25.2293 170.086 24.728C170.086 24.216 169.985 23.7573 169.782 23.352C169.59 22.9467 169.318 22.6267 168.966 22.392C168.614 22.1573 168.203 22.04 167.734 22.04C167.275 22.04 166.87 22.1573 166.518 22.392C166.166 22.6267 165.889 22.9467 165.686 23.352C165.494 23.7573 165.398 24.216 165.398 24.728C165.398 25.2293 165.494 25.6827 165.686 26.088C165.889 26.4933 166.166 26.8133 166.518 27.048C166.87 27.2827 167.275 27.4 167.734 27.4ZM175.493 28.024C175.493 28.3013 175.402 28.536 175.221 28.728C175.04 28.9093 174.81 29 174.533 29C174.256 29 174.026 28.9093 173.845 28.728C173.664 28.536 173.573 28.3013 173.573 28.024V21.416C173.573 21.1387 173.664 20.9093 173.845 20.728C174.026 20.536 174.256 20.44 174.533 20.44C174.81 20.44 175.04 20.536 175.221 20.728C175.402 20.9093 175.493 21.1387 175.493 21.416V28.024ZM174.517 19.4C174.154 19.4 173.898 19.3413 173.749 19.224C173.6 19.1067 173.525 18.8987 173.525 18.6V18.296C173.525 17.9867 173.605 17.7787 173.765 17.672C173.936 17.5547 174.192 17.496 174.533 17.496C174.906 17.496 175.168 17.5547 175.317 17.672C175.466 17.7893 175.541 17.9973 175.541 18.296V18.6C175.541 18.9093 175.461 19.1227 175.301 19.24C175.141 19.3467 174.88 19.4 174.517 19.4ZM177.242 20.6H181.034C181.29 20.6 181.504 20.6853 181.674 20.856C181.845 21.0267 181.93 21.24 181.93 21.496C181.93 21.7413 181.845 21.9493 181.674 22.12C181.504 22.28 181.29 22.36 181.034 22.36H177.242C176.986 22.36 176.773 22.2747 176.602 22.104C176.432 21.9333 176.346 21.72 176.346 21.464C176.346 21.2187 176.432 21.016 176.602 20.856C176.773 20.6853 176.986 20.6 177.242 20.6ZM178.954 18.6C179.232 18.6 179.456 18.696 179.626 18.888C179.808 19.0693 179.898 19.2987 179.898 19.576V26.696C179.898 26.8453 179.925 26.968 179.978 27.064C180.042 27.16 180.122 27.2293 180.218 27.272C180.325 27.3147 180.437 27.336 180.554 27.336C180.682 27.336 180.8 27.3147 180.906 27.272C181.013 27.2187 181.136 27.192 181.274 27.192C181.424 27.192 181.557 27.2613 181.674 27.4C181.802 27.5387 181.866 27.7307 181.866 27.976C181.866 28.2747 181.701 28.52 181.37 28.712C181.05 28.904 180.704 29 180.33 29C180.106 29 179.856 28.984 179.578 28.952C179.312 28.9093 179.056 28.8187 178.81 28.68C178.576 28.5307 178.378 28.3067 178.218 28.008C178.058 27.7093 177.978 27.2987 177.978 26.776V19.576C177.978 19.2987 178.069 19.0693 178.25 18.888C178.442 18.696 178.677 18.6 178.954 18.6ZM185.181 28.024C185.181 28.3013 185.09 28.536 184.909 28.728C184.728 28.9093 184.498 29 184.221 29C183.944 29 183.714 28.9093 183.533 28.728C183.352 28.536 183.261 28.3013 183.261 28.024V21.416C183.261 21.1387 183.352 20.9093 183.533 20.728C183.714 20.536 183.944 20.44 184.221 20.44C184.498 20.44 184.728 20.536 184.909 20.728C185.09 20.9093 185.181 21.1387 185.181 21.416V28.024ZM184.205 19.4C183.842 19.4 183.586 19.3413 183.437 19.224C183.288 19.1067 183.213 18.8987 183.213 18.6V18.296C183.213 17.9867 183.293 17.7787 183.453 17.672C183.624 17.5547 183.88 17.496 184.221 17.496C184.594 17.496 184.856 17.5547 185.005 17.672C185.154 17.7893 185.229 17.9973 185.229 18.296V18.6C185.229 18.9093 185.149 19.1227 184.989 19.24C184.829 19.3467 184.568 19.4 184.205 19.4ZM195.138 24.728C195.138 25.6027 194.941 26.376 194.546 27.048C194.162 27.7093 193.64 28.2267 192.978 28.6C192.328 28.9733 191.597 29.16 190.786 29.16C189.976 29.16 189.24 28.9733 188.578 28.6C187.928 28.2267 187.405 27.7093 187.01 27.048C186.626 26.376 186.434 25.6027 186.434 24.728C186.434 23.8533 186.626 23.0853 187.01 22.424C187.405 21.752 187.928 21.2293 188.578 20.856C189.24 20.472 189.976 20.28 190.786 20.28C191.597 20.28 192.328 20.472 192.978 20.856C193.64 21.2293 194.162 21.752 194.546 22.424C194.941 23.0853 195.138 23.8533 195.138 24.728ZM193.218 24.728C193.218 24.184 193.106 23.7147 192.882 23.32C192.669 22.9147 192.376 22.6 192.002 22.376C191.64 22.152 191.234 22.04 190.786 22.04C190.338 22.04 189.928 22.152 189.554 22.376C189.192 22.6 188.898 22.9147 188.674 23.32C188.461 23.7147 188.354 24.184 188.354 24.728C188.354 25.2613 188.461 25.7307 188.674 26.136C188.898 26.5307 189.192 26.84 189.554 27.064C189.928 27.288 190.338 27.4 190.786 27.4C191.234 27.4 191.64 27.288 192.002 27.064C192.376 26.84 192.669 26.5307 192.882 26.136C193.106 25.7307 193.218 25.2613 193.218 24.728ZM201.075 20.28C201.864 20.28 202.461 20.4453 202.867 20.776C203.283 21.1067 203.565 21.5493 203.715 22.104C203.875 22.648 203.955 23.256 203.955 23.928V28.024C203.955 28.3013 203.864 28.536 203.683 28.728C203.501 28.9093 203.272 29 202.995 29C202.717 29 202.488 28.9093 202.307 28.728C202.125 28.536 202.035 28.3013 202.035 28.024V23.928C202.035 23.576 201.987 23.2613 201.891 22.984C201.805 22.696 201.645 22.4667 201.411 22.296C201.176 22.1253 200.84 22.04 200.403 22.04C199.976 22.04 199.613 22.1253 199.315 22.296C199.027 22.4667 198.803 22.696 198.643 22.984C198.493 23.2613 198.419 23.576 198.419 23.928V28.024C198.419 28.3013 198.328 28.536 198.147 28.728C197.965 28.9093 197.736 29 197.459 29C197.181 29 196.952 28.9093 196.771 28.728C196.589 28.536 196.499 28.3013 196.499 28.024V21.416C196.499 21.1387 196.589 20.9093 196.771 20.728C196.952 20.536 197.181 20.44 197.459 20.44C197.736 20.44 197.965 20.536 198.147 20.728C198.328 20.9093 198.419 21.1387 198.419 21.416V22.104L198.179 22.056C198.275 21.8747 198.413 21.6827 198.595 21.48C198.776 21.2667 198.989 21.0693 199.235 20.888C199.48 20.7067 199.757 20.5627 200.067 20.456C200.376 20.3387 200.712 20.28 201.075 20.28ZM205.214 27.672C205.107 27.5227 205.059 27.3307 205.07 27.096C205.081 26.8613 205.219 26.6587 205.486 26.488C205.657 26.3813 205.838 26.3387 206.03 26.36C206.222 26.3707 206.409 26.4667 206.59 26.648C206.899 26.9573 207.225 27.1973 207.566 27.368C207.907 27.5387 208.334 27.624 208.846 27.624C209.006 27.6133 209.182 27.592 209.374 27.56C209.566 27.5173 209.731 27.432 209.87 27.304C210.019 27.1653 210.094 26.9573 210.094 26.68C210.094 26.4453 210.014 26.2587 209.854 26.12C209.694 25.9813 209.481 25.864 209.214 25.768C208.958 25.672 208.67 25.5813 208.35 25.496C208.019 25.4 207.678 25.2933 207.326 25.176C206.985 25.0587 206.67 24.9093 206.382 24.728C206.094 24.536 205.859 24.2853 205.678 23.976C205.497 23.6667 205.406 23.2773 205.406 22.808C205.406 22.2747 205.555 21.8213 205.854 21.448C206.153 21.0747 206.537 20.7867 207.006 20.584C207.486 20.3813 207.987 20.28 208.51 20.28C208.841 20.28 209.187 20.3227 209.55 20.408C209.913 20.4827 210.259 20.6107 210.59 20.792C210.921 20.9627 211.198 21.192 211.422 21.48C211.539 21.64 211.609 21.832 211.63 22.056C211.651 22.28 211.55 22.4827 211.326 22.664C211.166 22.792 210.979 22.8507 210.766 22.84C210.553 22.8187 210.377 22.744 210.238 22.616C210.057 22.3813 209.811 22.1947 209.502 22.056C209.203 21.9173 208.857 21.848 208.462 21.848C208.302 21.848 208.126 21.8693 207.934 21.912C207.753 21.944 207.593 22.024 207.454 22.152C207.315 22.2693 207.246 22.4613 207.246 22.728C207.246 22.9733 207.326 23.1707 207.486 23.32C207.646 23.4587 207.859 23.576 208.126 23.672C208.403 23.7573 208.697 23.8427 209.006 23.928C209.326 24.0133 209.651 24.1147 209.982 24.232C210.313 24.3493 210.617 24.504 210.894 24.696C211.171 24.888 211.395 25.1387 211.566 25.448C211.737 25.7467 211.822 26.1307 211.822 26.6C211.822 27.144 211.662 27.608 211.342 27.992C211.022 28.376 210.622 28.6693 210.142 28.872C209.662 29.064 209.171 29.16 208.67 29.16C208.041 29.16 207.411 29.0533 206.782 28.84C206.153 28.616 205.63 28.2267 205.214 27.672Z" fill="#23003D"/>
<path d="M275.91 30.42L282.43 23.9C283.2 23.13 283.2 21.87 282.43 21.1L275.91 14.58" stroke="#D58900" stroke-width="2" stroke-miterlimit="10" stroke-linecap="round" stroke-linejoin="round"/>
<defs>
<linearGradient id="paint0_linear_619_9658" x1="148.5" y1="0" x2="148.5" y2="44" gradientUnits="userSpaceOnUse">
<stop stop-color="#FFE384"/>
<stop offset="1" stop-color="#FFCF35"/>
</linearGradient>
</defs>
</svg>
