<svg width="264" height="56" viewBox="0 0 264 56" fill="none" xmlns="http://www.w3.org/2000/svg">
<rect width="264" height="56" rx="28" fill="url(#paint0_linear_619_9357)"/>
<path d="M17 17.7108C18.1371 11.7895 22.15 9.5609 25.4862 9" stroke="white" stroke-width="3" stroke-linecap="round"/>
<path d="M102.494 35C102.046 35 101.678 34.864 101.39 34.592C101.102 34.304 100.958 33.952 100.958 33.536L100.958 19.616L104.078 19.616L104.078 33.536C104.078 33.952 103.926 34.304 103.622 34.592C103.334 34.864 102.958 35 102.494 35ZM97.1902 20.96C96.7742 20.96 96.4222 20.832 96.1342 20.576C95.8622 20.32 95.7262 19.984 95.7262 19.568C95.7262 19.152 95.8622 18.824 96.1342 18.584C96.4222 18.328 96.7742 18.2 97.1902 18.2L107.846 18.2C108.262 18.2 108.606 18.328 108.878 18.584C109.166 18.84 109.31 19.176 109.31 19.592C109.31 20.008 109.166 20.344 108.878 20.6C108.606 20.84 108.262 20.96 107.846 20.96L97.1902 20.96ZM116.03 33.536C116.03 33.952 115.878 34.304 115.574 34.592C115.27 34.864 114.918 35 114.518 35C114.07 35 113.71 34.864 113.438 34.592C113.166 34.304 113.03 33.952 113.03 33.536L113.03 19.664C113.03 19.248 113.174 18.904 113.462 18.632C113.75 18.344 114.118 18.2 114.566 18.2C114.95 18.2 115.286 18.344 115.574 18.632C115.878 18.904 116.03 19.248 116.03 19.664L116.03 33.536ZM122.351 18.176C122.575 18.176 122.807 18.24 123.047 18.368C123.303 18.48 123.495 18.632 123.623 18.824L129.455 27.8L128.255 27.752L134.231 18.824C134.535 18.392 134.927 18.176 135.407 18.176C135.791 18.176 136.135 18.312 136.439 18.584C136.743 18.856 136.895 19.208 136.895 19.64L136.895 33.536C136.895 33.952 136.759 34.304 136.487 34.592C136.215 34.864 135.855 35 135.407 35C134.959 35 134.591 34.864 134.303 34.592C134.031 34.304 133.895 33.952 133.895 33.536L133.895 22.232L134.831 22.448L129.935 29.912C129.791 30.088 129.607 30.24 129.383 30.368C129.175 30.496 128.959 30.552 128.735 30.536C128.527 30.552 128.311 30.496 128.087 30.368C127.879 30.24 127.703 30.088 127.559 29.912L122.975 22.664L123.599 21.392L123.599 33.536C123.599 33.952 123.471 34.304 123.215 34.592C122.959 34.864 122.623 35 122.207 35C121.807 35 121.479 34.864 121.223 34.592C120.967 34.304 120.839 33.952 120.839 33.536L120.839 19.64C120.839 19.24 120.983 18.896 121.271 18.608C121.575 18.32 121.935 18.176 122.351 18.176ZM143.167 18.2L151.207 18.2C151.623 18.2 151.967 18.336 152.239 18.608C152.527 18.864 152.671 19.2 152.671 19.616C152.671 20.016 152.527 20.344 152.239 20.6C151.967 20.84 151.623 20.96 151.207 20.96L144.487 20.96L144.703 20.552L144.703 25.232L144.511 25.04L150.127 25.04C150.543 25.04 150.887 25.176 151.159 25.448C151.447 25.704 151.591 26.04 151.591 26.456C151.591 26.856 151.447 27.184 151.159 27.44C150.887 27.68 150.543 27.8 150.127 27.8L144.583 27.8L144.703 27.608L144.703 32.456L144.511 32.24L151.207 32.24C151.623 32.24 151.967 32.384 152.239 32.672C152.527 32.944 152.671 33.264 152.671 33.632C152.671 34.032 152.527 34.36 152.239 34.616C151.967 34.872 151.623 35 151.207 35L143.167 35C142.751 35 142.399 34.864 142.111 34.592C141.839 34.304 141.703 33.952 141.703 33.536L141.703 19.664C141.703 19.248 141.839 18.904 142.111 18.632C142.399 18.344 142.751 18.2 143.167 18.2ZM163.837 18.2C164.989 18.2 166.013 18.416 166.909 18.848C167.805 19.28 168.557 19.888 169.165 20.672C169.789 21.44 170.253 22.336 170.557 23.36C170.877 24.368 171.037 25.448 171.037 26.6C171.037 28.152 170.757 29.568 170.197 30.848C169.637 32.112 168.821 33.12 167.749 33.872C166.693 34.624 165.389 35 163.837 35L158.101 35C157.685 35 157.333 34.864 157.045 34.592C156.773 34.304 156.637 33.952 156.637 33.536L156.637 19.664C156.637 19.248 156.773 18.904 157.045 18.632C157.333 18.344 157.685 18.2 158.101 18.2L163.837 18.2ZM163.597 32.24C164.605 32.24 165.429 31.984 166.069 31.472C166.709 30.944 167.173 30.256 167.461 29.408C167.765 28.544 167.917 27.608 167.917 26.6C167.917 25.848 167.829 25.136 167.653 24.464C167.493 23.776 167.237 23.176 166.885 22.664C166.533 22.136 166.085 21.72 165.541 21.416C164.997 21.112 164.349 20.96 163.597 20.96L159.397 20.96L159.637 20.744L159.637 32.504L159.493 32.24L163.597 32.24Z" fill="#23003D"/>
<defs>
<linearGradient id="paint0_linear_619_9357" x1="132" y1="0" x2="132" y2="56" gradientUnits="userSpaceOnUse">
<stop stop-color="#FFE486"/>
<stop offset="0.515625" stop-color="#FFCC4E"/>
<stop offset="1" stop-color="#FFD02B"/>
<stop offset="1" stop-color="#D2A61B"/>
</linearGradient>
</defs>
</svg>
