<svg width="308" height="44" viewBox="0 0 308 44" fill="none" xmlns="http://www.w3.org/2000/svg">
<rect width="308" height="44" rx="22" fill="#3C0B76"/>
<path d="M45.992 28C45.6933 28 45.448 27.9093 45.256 27.728C45.064 27.536 44.968 27.3013 44.968 27.024V17.744H47.048V27.024C47.048 27.3013 46.9467 27.536 46.744 27.728C46.552 27.9093 46.3013 28 45.992 28ZM42.456 18.64C42.1787 18.64 41.944 18.5547 41.752 18.384C41.5707 18.2133 41.48 17.9893 41.48 17.712C41.48 17.4347 41.5707 17.216 41.752 17.056C41.944 16.8853 42.1787 16.8 42.456 16.8H49.56C49.8373 16.8 50.0667 16.8853 50.248 17.056C50.44 17.2267 50.536 17.4507 50.536 17.728C50.536 18.0053 50.44 18.2293 50.248 18.4C50.0667 18.56 49.8373 18.64 49.56 18.64H42.456ZM53.5436 27.024C53.5436 27.3013 53.453 27.536 53.2716 27.728C53.0903 27.9093 52.861 28 52.5836 28C52.3063 28 52.077 27.9093 51.8956 27.728C51.7143 27.536 51.6236 27.3013 51.6236 27.024V20.416C51.6236 20.1387 51.7143 19.9093 51.8956 19.728C52.077 19.536 52.3063 19.44 52.5836 19.44C52.861 19.44 53.0903 19.536 53.2716 19.728C53.453 19.9093 53.5436 20.1387 53.5436 20.416V27.024ZM52.5676 18.4C52.205 18.4 51.949 18.3413 51.7996 18.224C51.6503 18.1067 51.5756 17.8987 51.5756 17.6V17.296C51.5756 16.9867 51.6556 16.7787 51.8156 16.672C51.9863 16.5547 52.2423 16.496 52.5836 16.496C52.957 16.496 53.2183 16.5547 53.3676 16.672C53.517 16.7893 53.5916 16.9973 53.5916 17.296V17.6C53.5916 17.9093 53.5116 18.1227 53.3516 18.24C53.1916 18.3467 52.9303 18.4 52.5676 18.4ZM59.6929 19.28C60.5462 19.28 61.1755 19.488 61.5809 19.904C61.9862 20.3093 62.2529 20.8373 62.3809 21.488L62.1089 21.344L62.2369 21.088C62.3649 20.8427 62.5622 20.5813 62.8289 20.304C63.0955 20.016 63.4155 19.776 63.7889 19.584C64.1729 19.3813 64.5995 19.28 65.0689 19.28C65.8369 19.28 66.4182 19.4453 66.8129 19.776C67.2182 20.1067 67.4955 20.5493 67.6449 21.104C67.7942 21.648 67.8689 22.256 67.8689 22.928V27.024C67.8689 27.3013 67.7782 27.536 67.5969 27.728C67.4155 27.9093 67.1862 28 66.9089 28C66.6315 28 66.4022 27.9093 66.2209 27.728C66.0395 27.536 65.9489 27.3013 65.9489 27.024V22.928C65.9489 22.576 65.9062 22.2613 65.8209 21.984C65.7355 21.696 65.5809 21.4667 65.3569 21.296C65.1329 21.1253 64.8129 21.04 64.3969 21.04C63.9915 21.04 63.6449 21.1253 63.3569 21.296C63.0689 21.4667 62.8502 21.696 62.7009 21.984C62.5622 22.2613 62.4929 22.576 62.4929 22.928V27.024C62.4929 27.3013 62.4022 27.536 62.2209 27.728C62.0395 27.9093 61.8102 28 61.5329 28C61.2555 28 61.0262 27.9093 60.8449 27.728C60.6635 27.536 60.5729 27.3013 60.5729 27.024V22.928C60.5729 22.576 60.5302 22.2613 60.4449 21.984C60.3595 21.696 60.2049 21.4667 59.9809 21.296C59.7569 21.1253 59.4369 21.04 59.0209 21.04C58.6155 21.04 58.2689 21.1253 57.9809 21.296C57.6929 21.4667 57.4742 21.696 57.3249 21.984C57.1862 22.2613 57.1169 22.576 57.1169 22.928V27.024C57.1169 27.3013 57.0262 27.536 56.8449 27.728C56.6635 27.9093 56.4342 28 56.1569 28C55.8795 28 55.6502 27.9093 55.4689 27.728C55.2875 27.536 55.1969 27.3013 55.1969 27.024V20.416C55.1969 20.1387 55.2875 19.9093 55.4689 19.728C55.6502 19.536 55.8795 19.44 56.1569 19.44C56.4342 19.44 56.6635 19.536 56.8449 19.728C57.0262 19.9093 57.1169 20.1387 57.1169 20.416V21.104L56.8769 21.056C56.9729 20.8747 57.1062 20.6827 57.2769 20.48C57.4475 20.2667 57.6555 20.0693 57.9009 19.888C58.1462 19.7067 58.4182 19.5627 58.7169 19.456C59.0155 19.3387 59.3409 19.28 59.6929 19.28ZM73.6589 28.16C72.7522 28.16 71.9629 27.9733 71.2909 27.6C70.6295 27.216 70.1175 26.6987 69.7549 26.048C69.4029 25.3973 69.2269 24.6613 69.2269 23.84C69.2269 22.88 69.4189 22.064 69.8029 21.392C70.1975 20.7093 70.7095 20.1867 71.3389 19.824C71.9682 19.4613 72.6349 19.28 73.3389 19.28C73.8829 19.28 74.3949 19.392 74.8749 19.616C75.3655 19.84 75.7975 20.1493 76.1709 20.544C76.5442 20.928 76.8375 21.376 77.0509 21.888C77.2749 22.4 77.3869 22.944 77.3869 23.52C77.3762 23.776 77.2749 23.984 77.0829 24.144C76.8909 24.304 76.6669 24.384 76.4109 24.384H70.2989L69.8189 22.784H75.6909L75.3389 23.104V22.672C75.3175 22.3627 75.2055 22.0853 75.0029 21.84C74.8109 21.5947 74.5655 21.4027 74.2669 21.264C73.9789 21.1147 73.6695 21.04 73.3389 21.04C73.0189 21.04 72.7202 21.0827 72.4429 21.168C72.1655 21.2533 71.9255 21.3973 71.7229 21.6C71.5202 21.8027 71.3602 22.0747 71.2429 22.416C71.1255 22.7573 71.0669 23.1893 71.0669 23.712C71.0669 24.288 71.1842 24.7787 71.4189 25.184C71.6642 25.5787 71.9735 25.8827 72.3469 26.096C72.7309 26.2987 73.1362 26.4 73.5629 26.4C73.9575 26.4 74.2722 26.368 74.5069 26.304C74.7415 26.24 74.9282 26.1653 75.0669 26.08C75.2162 25.984 75.3495 25.904 75.4669 25.84C75.6589 25.744 75.8402 25.696 76.0109 25.696C76.2455 25.696 76.4375 25.776 76.5869 25.936C76.7469 26.096 76.8269 26.2827 76.8269 26.496C76.8269 26.784 76.6775 27.0453 76.3789 27.28C76.1015 27.5147 75.7122 27.7227 75.2109 27.904C74.7095 28.0747 74.1922 28.16 73.6589 28.16ZM86.8608 28C86.5621 28 86.3168 27.9093 86.1248 27.728C85.9328 27.536 85.8368 27.3013 85.8368 27.024V17.744H87.9168V27.024C87.9168 27.3013 87.8154 27.536 87.6128 27.728C87.4208 27.9093 87.1701 28 86.8608 28ZM83.3248 18.64C83.0474 18.64 82.8128 18.5547 82.6208 18.384C82.4394 18.2133 82.3488 17.9893 82.3488 17.712C82.3488 17.4347 82.4394 17.216 82.6208 17.056C82.8128 16.8853 83.0474 16.8 83.3248 16.8H90.4288C90.7061 16.8 90.9354 16.8853 91.1168 17.056C91.3088 17.2267 91.4048 17.4507 91.4048 17.728C91.4048 18.0053 91.3088 18.2293 91.1168 18.4C90.9354 18.56 90.7061 18.64 90.4288 18.64H83.3248ZM92.6113 28C92.3339 28 92.1046 27.9093 91.9233 27.728C91.7419 27.536 91.6513 27.3013 91.6513 27.024V20.416C91.6513 20.1387 91.7419 19.9093 91.9233 19.728C92.1046 19.536 92.3339 19.44 92.6113 19.44C92.8886 19.44 93.1179 19.536 93.2993 19.728C93.4806 19.9093 93.5713 20.1387 93.5713 20.416V21.92L93.4593 20.848C93.5766 20.592 93.7259 20.368 93.9073 20.176C94.0993 19.9733 94.3126 19.808 94.5473 19.68C94.7819 19.5413 95.0326 19.44 95.2993 19.376C95.5659 19.312 95.8326 19.28 96.0993 19.28C96.4193 19.28 96.6859 19.3707 96.8993 19.552C97.1233 19.7333 97.2353 19.9467 97.2353 20.192C97.2353 20.544 97.1446 20.8 96.9633 20.96C96.7819 21.1093 96.5846 21.184 96.3713 21.184C96.1686 21.184 95.9819 21.1467 95.8113 21.072C95.6513 20.9973 95.4646 20.96 95.2513 20.96C95.0593 20.96 94.8619 21.008 94.6593 21.104C94.4673 21.1893 94.2859 21.328 94.1153 21.52C93.9553 21.712 93.8219 21.952 93.7153 22.24C93.6193 22.5173 93.5713 22.848 93.5713 23.232V27.024C93.5713 27.3013 93.4806 27.536 93.2993 27.728C93.1179 27.9093 92.8886 28 92.6113 28ZM100.077 27.024C100.077 27.3013 99.9861 27.536 99.8047 27.728C99.6234 27.9093 99.3941 28 99.1167 28C98.8394 28 98.6101 27.9093 98.4287 27.728C98.2474 27.536 98.1567 27.3013 98.1567 27.024V20.416C98.1567 20.1387 98.2474 19.9093 98.4287 19.728C98.6101 19.536 98.8394 19.44 99.1167 19.44C99.3941 19.44 99.6234 19.536 99.8047 19.728C99.9861 19.9093 100.077 20.1387 100.077 20.416V27.024ZM99.1007 18.4C98.7381 18.4 98.4821 18.3413 98.3327 18.224C98.1834 18.1067 98.1087 17.8987 98.1087 17.6V17.296C98.1087 16.9867 98.1887 16.7787 98.3487 16.672C98.5194 16.5547 98.7754 16.496 99.1167 16.496C99.4901 16.496 99.7514 16.5547 99.9007 16.672C100.05 16.7893 100.125 16.9973 100.125 17.296V17.6C100.125 17.9093 100.045 18.1227 99.8847 18.24C99.7247 18.3467 99.4634 18.4 99.1007 18.4ZM108.738 19.28C109.015 19.28 109.245 19.3707 109.426 19.552C109.607 19.7333 109.698 19.968 109.698 20.256V27.024C109.698 27.3013 109.607 27.536 109.426 27.728C109.245 27.9093 109.015 28 108.738 28C108.461 28 108.231 27.9093 108.05 27.728C107.869 27.536 107.778 27.3013 107.778 27.024V26.24L108.13 26.384C108.13 26.5227 108.055 26.6933 107.906 26.896C107.757 27.088 107.554 27.28 107.298 27.472C107.042 27.664 106.738 27.8293 106.386 27.968C106.045 28.096 105.671 28.16 105.266 28.16C104.53 28.16 103.863 27.9733 103.266 27.6C102.669 27.216 102.194 26.6933 101.842 26.032C101.501 25.36 101.33 24.592 101.33 23.728C101.33 22.8533 101.501 22.0853 101.842 21.424C102.194 20.752 102.663 20.2293 103.25 19.856C103.837 19.472 104.487 19.28 105.202 19.28C105.661 19.28 106.082 19.3493 106.466 19.488C106.85 19.6267 107.181 19.8027 107.458 20.016C107.746 20.2293 107.965 20.448 108.114 20.672C108.274 20.8853 108.354 21.0667 108.354 21.216L107.778 21.424V20.256C107.778 19.9787 107.869 19.7493 108.05 19.568C108.231 19.376 108.461 19.28 108.738 19.28ZM105.506 26.4C105.975 26.4 106.386 26.2827 106.738 26.048C107.09 25.8133 107.362 25.4933 107.554 25.088C107.757 24.6827 107.858 24.2293 107.858 23.728C107.858 23.216 107.757 22.7573 107.554 22.352C107.362 21.9467 107.09 21.6267 106.738 21.392C106.386 21.1573 105.975 21.04 105.506 21.04C105.047 21.04 104.642 21.1573 104.29 21.392C103.938 21.6267 103.661 21.9467 103.458 22.352C103.266 22.7573 103.17 23.216 103.17 23.728C103.17 24.2293 103.266 24.6827 103.458 25.088C103.661 25.4933 103.938 25.8133 104.29 26.048C104.642 26.2827 105.047 26.4 105.506 26.4ZM113.537 27.024C113.537 27.3013 113.441 27.536 113.249 27.728C113.068 27.9093 112.838 28 112.561 28C112.294 28 112.07 27.9093 111.889 27.728C111.708 27.536 111.617 27.3013 111.617 27.024V17.136C111.617 16.8587 111.708 16.6293 111.889 16.448C112.081 16.256 112.316 16.16 112.593 16.16C112.87 16.16 113.094 16.256 113.265 16.448C113.446 16.6293 113.537 16.8587 113.537 17.136V27.024Z" fill="#53179A"/>
</svg>
