<svg width="175" height="44" viewBox="0 0 175 44" fill="none" xmlns="http://www.w3.org/2000/svg">
<rect width="175" height="44" rx="22" fill="url(#paint0_linear_630_2580)"/>
<path d="M57.492 29C57.1933 29 56.948 28.9093 56.756 28.728C56.564 28.536 56.468 28.3013 56.468 28.024V18.744H58.548V28.024C58.548 28.3013 58.4467 28.536 58.244 28.728C58.052 28.9093 57.8013 29 57.492 29ZM53.956 19.64C53.6787 19.64 53.444 19.5547 53.252 19.384C53.0707 19.2133 52.98 18.9893 52.98 18.712C52.98 18.4347 53.0707 18.216 53.252 18.056C53.444 17.8853 53.6787 17.8 53.956 17.8H61.06C61.3373 17.8 61.5667 17.8853 61.748 18.056C61.94 18.2267 62.036 18.4507 62.036 18.728C62.036 19.0053 61.94 19.2293 61.748 19.4C61.5667 19.56 61.3373 19.64 61.06 19.64H53.956ZM65.0436 28.024C65.0436 28.3013 64.953 28.536 64.7716 28.728C64.5903 28.9093 64.361 29 64.0836 29C63.8063 29 63.577 28.9093 63.3956 28.728C63.2143 28.536 63.1236 28.3013 63.1236 28.024V21.416C63.1236 21.1387 63.2143 20.9093 63.3956 20.728C63.577 20.536 63.8063 20.44 64.0836 20.44C64.361 20.44 64.5903 20.536 64.7716 20.728C64.953 20.9093 65.0436 21.1387 65.0436 21.416V28.024ZM64.0676 19.4C63.705 19.4 63.449 19.3413 63.2996 19.224C63.1503 19.1067 63.0756 18.8987 63.0756 18.6V18.296C63.0756 17.9867 63.1556 17.7787 63.3156 17.672C63.4863 17.5547 63.7423 17.496 64.0836 17.496C64.457 17.496 64.7183 17.5547 64.8676 17.672C65.017 17.7893 65.0916 17.9973 65.0916 18.296V18.6C65.0916 18.9093 65.0116 19.1227 64.8516 19.24C64.6916 19.3467 64.4303 19.4 64.0676 19.4ZM71.1929 20.28C72.0462 20.28 72.6755 20.488 73.0809 20.904C73.4862 21.3093 73.7529 21.8373 73.8809 22.488L73.6089 22.344L73.7369 22.088C73.8649 21.8427 74.0622 21.5813 74.3289 21.304C74.5955 21.016 74.9155 20.776 75.2889 20.584C75.6729 20.3813 76.0995 20.28 76.5689 20.28C77.3369 20.28 77.9182 20.4453 78.3129 20.776C78.7182 21.1067 78.9955 21.5493 79.1449 22.104C79.2942 22.648 79.3689 23.256 79.3689 23.928V28.024C79.3689 28.3013 79.2782 28.536 79.0969 28.728C78.9155 28.9093 78.6862 29 78.4089 29C78.1315 29 77.9022 28.9093 77.7209 28.728C77.5395 28.536 77.4489 28.3013 77.4489 28.024V23.928C77.4489 23.576 77.4062 23.2613 77.3209 22.984C77.2355 22.696 77.0809 22.4667 76.8569 22.296C76.6329 22.1253 76.3129 22.04 75.8969 22.04C75.4915 22.04 75.1449 22.1253 74.8569 22.296C74.5689 22.4667 74.3502 22.696 74.2009 22.984C74.0622 23.2613 73.9929 23.576 73.9929 23.928V28.024C73.9929 28.3013 73.9022 28.536 73.7209 28.728C73.5395 28.9093 73.3102 29 73.0329 29C72.7555 29 72.5262 28.9093 72.3449 28.728C72.1635 28.536 72.0729 28.3013 72.0729 28.024V23.928C72.0729 23.576 72.0302 23.2613 71.9449 22.984C71.8595 22.696 71.7049 22.4667 71.4809 22.296C71.2569 22.1253 70.9369 22.04 70.5209 22.04C70.1155 22.04 69.7689 22.1253 69.4809 22.296C69.1929 22.4667 68.9742 22.696 68.8249 22.984C68.6862 23.2613 68.6169 23.576 68.6169 23.928V28.024C68.6169 28.3013 68.5262 28.536 68.3449 28.728C68.1635 28.9093 67.9342 29 67.6569 29C67.3795 29 67.1502 28.9093 66.9689 28.728C66.7875 28.536 66.6969 28.3013 66.6969 28.024V21.416C66.6969 21.1387 66.7875 20.9093 66.9689 20.728C67.1502 20.536 67.3795 20.44 67.6569 20.44C67.9342 20.44 68.1635 20.536 68.3449 20.728C68.5262 20.9093 68.6169 21.1387 68.6169 21.416V22.104L68.3769 22.056C68.4729 21.8747 68.6062 21.6827 68.7769 21.48C68.9475 21.2667 69.1555 21.0693 69.4009 20.888C69.6462 20.7067 69.9182 20.5627 70.2169 20.456C70.5155 20.3387 70.8409 20.28 71.1929 20.28ZM85.1589 29.16C84.2522 29.16 83.4629 28.9733 82.7909 28.6C82.1295 28.216 81.6175 27.6987 81.2549 27.048C80.9029 26.3973 80.7269 25.6613 80.7269 24.84C80.7269 23.88 80.9189 23.064 81.3029 22.392C81.6975 21.7093 82.2095 21.1867 82.8389 20.824C83.4682 20.4613 84.1349 20.28 84.8389 20.28C85.3829 20.28 85.8949 20.392 86.3749 20.616C86.8655 20.84 87.2975 21.1493 87.6709 21.544C88.0442 21.928 88.3375 22.376 88.5509 22.888C88.7749 23.4 88.8869 23.944 88.8869 24.52C88.8762 24.776 88.7749 24.984 88.5829 25.144C88.3909 25.304 88.1669 25.384 87.9109 25.384H81.7989L81.3189 23.784H87.1909L86.8389 24.104V23.672C86.8175 23.3627 86.7055 23.0853 86.5029 22.84C86.3109 22.5947 86.0655 22.4027 85.7669 22.264C85.4789 22.1147 85.1695 22.04 84.8389 22.04C84.5189 22.04 84.2202 22.0827 83.9429 22.168C83.6655 22.2533 83.4255 22.3973 83.2229 22.6C83.0202 22.8027 82.8602 23.0747 82.7429 23.416C82.6255 23.7573 82.5669 24.1893 82.5669 24.712C82.5669 25.288 82.6842 25.7787 82.9189 26.184C83.1642 26.5787 83.4735 26.8827 83.8469 27.096C84.2309 27.2987 84.6362 27.4 85.0629 27.4C85.4575 27.4 85.7722 27.368 86.0069 27.304C86.2415 27.24 86.4282 27.1653 86.5669 27.08C86.7162 26.984 86.8495 26.904 86.9669 26.84C87.1589 26.744 87.3402 26.696 87.5109 26.696C87.7455 26.696 87.9375 26.776 88.0869 26.936C88.2469 27.096 88.3269 27.2827 88.3269 27.496C88.3269 27.784 88.1775 28.0453 87.8789 28.28C87.6015 28.5147 87.2122 28.7227 86.7109 28.904C86.2095 29.0747 85.6922 29.16 85.1589 29.16ZM98.3608 29C98.0621 29 97.8168 28.9093 97.6248 28.728C97.4328 28.536 97.3368 28.3013 97.3368 28.024V18.744H99.4168V28.024C99.4168 28.3013 99.3154 28.536 99.1128 28.728C98.9208 28.9093 98.6701 29 98.3608 29ZM94.8248 19.64C94.5474 19.64 94.3128 19.5547 94.1208 19.384C93.9394 19.2133 93.8488 18.9893 93.8488 18.712C93.8488 18.4347 93.9394 18.216 94.1208 18.056C94.3128 17.8853 94.5474 17.8 94.8248 17.8H101.929C102.206 17.8 102.435 17.8853 102.617 18.056C102.809 18.2267 102.905 18.4507 102.905 18.728C102.905 19.0053 102.809 19.2293 102.617 19.4C102.435 19.56 102.206 19.64 101.929 19.64H94.8248ZM104.111 29C103.834 29 103.605 28.9093 103.423 28.728C103.242 28.536 103.151 28.3013 103.151 28.024V21.416C103.151 21.1387 103.242 20.9093 103.423 20.728C103.605 20.536 103.834 20.44 104.111 20.44C104.389 20.44 104.618 20.536 104.799 20.728C104.981 20.9093 105.071 21.1387 105.071 21.416V22.92L104.959 21.848C105.077 21.592 105.226 21.368 105.407 21.176C105.599 20.9733 105.813 20.808 106.047 20.68C106.282 20.5413 106.533 20.44 106.799 20.376C107.066 20.312 107.333 20.28 107.599 20.28C107.919 20.28 108.186 20.3707 108.399 20.552C108.623 20.7333 108.735 20.9467 108.735 21.192C108.735 21.544 108.645 21.8 108.463 21.96C108.282 22.1093 108.085 22.184 107.871 22.184C107.669 22.184 107.482 22.1467 107.311 22.072C107.151 21.9973 106.965 21.96 106.751 21.96C106.559 21.96 106.362 22.008 106.159 22.104C105.967 22.1893 105.786 22.328 105.615 22.52C105.455 22.712 105.322 22.952 105.215 23.24C105.119 23.5173 105.071 23.848 105.071 24.232V28.024C105.071 28.3013 104.981 28.536 104.799 28.728C104.618 28.9093 104.389 29 104.111 29ZM111.577 28.024C111.577 28.3013 111.486 28.536 111.305 28.728C111.123 28.9093 110.894 29 110.617 29C110.339 29 110.11 28.9093 109.929 28.728C109.747 28.536 109.657 28.3013 109.657 28.024V21.416C109.657 21.1387 109.747 20.9093 109.929 20.728C110.11 20.536 110.339 20.44 110.617 20.44C110.894 20.44 111.123 20.536 111.305 20.728C111.486 20.9093 111.577 21.1387 111.577 21.416V28.024ZM110.601 19.4C110.238 19.4 109.982 19.3413 109.833 19.224C109.683 19.1067 109.609 18.8987 109.609 18.6V18.296C109.609 17.9867 109.689 17.7787 109.849 17.672C110.019 17.5547 110.275 17.496 110.617 17.496C110.99 17.496 111.251 17.5547 111.401 17.672C111.55 17.7893 111.625 17.9973 111.625 18.296V18.6C111.625 18.9093 111.545 19.1227 111.385 19.24C111.225 19.3467 110.963 19.4 110.601 19.4ZM120.238 20.28C120.515 20.28 120.745 20.3707 120.926 20.552C121.107 20.7333 121.198 20.968 121.198 21.256V28.024C121.198 28.3013 121.107 28.536 120.926 28.728C120.745 28.9093 120.515 29 120.238 29C119.961 29 119.731 28.9093 119.55 28.728C119.369 28.536 119.278 28.3013 119.278 28.024V27.24L119.63 27.384C119.63 27.5227 119.555 27.6933 119.406 27.896C119.257 28.088 119.054 28.28 118.798 28.472C118.542 28.664 118.238 28.8293 117.886 28.968C117.545 29.096 117.171 29.16 116.766 29.16C116.03 29.16 115.363 28.9733 114.766 28.6C114.169 28.216 113.694 27.6933 113.342 27.032C113.001 26.36 112.83 25.592 112.83 24.728C112.83 23.8533 113.001 23.0853 113.342 22.424C113.694 21.752 114.163 21.2293 114.75 20.856C115.337 20.472 115.987 20.28 116.702 20.28C117.161 20.28 117.582 20.3493 117.966 20.488C118.35 20.6267 118.681 20.8027 118.958 21.016C119.246 21.2293 119.465 21.448 119.614 21.672C119.774 21.8853 119.854 22.0667 119.854 22.216L119.278 22.424V21.256C119.278 20.9787 119.369 20.7493 119.55 20.568C119.731 20.376 119.961 20.28 120.238 20.28ZM117.006 27.4C117.475 27.4 117.886 27.2827 118.238 27.048C118.59 26.8133 118.862 26.4933 119.054 26.088C119.257 25.6827 119.358 25.2293 119.358 24.728C119.358 24.216 119.257 23.7573 119.054 23.352C118.862 22.9467 118.59 22.6267 118.238 22.392C117.886 22.1573 117.475 22.04 117.006 22.04C116.547 22.04 116.142 22.1573 115.79 22.392C115.438 22.6267 115.161 22.9467 114.958 23.352C114.766 23.7573 114.67 24.216 114.67 24.728C114.67 25.2293 114.766 25.6827 114.958 26.088C115.161 26.4933 115.438 26.8133 115.79 27.048C116.142 27.2827 116.547 27.4 117.006 27.4ZM125.037 28.024C125.037 28.3013 124.941 28.536 124.749 28.728C124.568 28.9093 124.338 29 124.061 29C123.794 29 123.57 28.9093 123.389 28.728C123.208 28.536 123.117 28.3013 123.117 28.024V18.136C123.117 17.8587 123.208 17.6293 123.389 17.448C123.581 17.256 123.816 17.16 124.093 17.16C124.37 17.16 124.594 17.256 124.765 17.448C124.946 17.6293 125.037 17.8587 125.037 18.136V28.024Z" fill="#23003D"/>
<defs>
<linearGradient id="paint0_linear_630_2580" x1="87.5" y1="0" x2="87.5" y2="44" gradientUnits="userSpaceOnUse">
<stop stop-color="#FFE384"/>
<stop offset="1" stop-color="#FFCF35"/>
</linearGradient>
</defs>
</svg>
