<svg width="280" height="56" viewBox="0 0 280 56" fill="none" xmlns="http://www.w3.org/2000/svg">
<rect width="280" height="56" rx="28" fill="url(#paint0_linear_619_13202)"/>
<path d="M13 17.7108C14.1371 11.7895 18.15 9.5609 21.4862 9" stroke="white" stroke-width="3" stroke-linecap="round"/>
<path d="M111.932 20.176C112.348 20.176 112.684 20.32 112.94 20.608C113.196 20.88 113.324 21.224 113.324 21.64L113.324 30.328C113.324 31.656 113.036 32.832 112.46 33.856C111.9 34.88 111.124 35.68 110.132 36.256C109.14 36.832 107.988 37.12 106.676 37.12C105.364 37.12 104.204 36.832 103.196 36.256C102.204 35.68 101.42 34.88 100.844 33.856C100.284 32.832 100.004 31.656 100.004 30.328L100.004 21.64C100.004 21.224 100.148 20.88 100.436 20.608C100.724 20.32 101.092 20.176 101.54 20.176C101.908 20.176 102.236 20.32 102.524 20.608C102.828 20.88 102.98 21.224 102.98 21.64L102.98 30.328C102.98 31.128 103.148 31.824 103.484 32.416C103.836 32.992 104.292 33.44 104.852 33.76C105.428 34.08 106.036 34.24 106.676 34.24C107.364 34.24 108.004 34.08 108.596 33.76C109.188 33.44 109.668 32.992 110.036 32.416C110.404 31.824 110.588 31.128 110.588 30.328L110.588 21.64C110.588 21.224 110.708 20.88 110.948 20.608C111.188 20.32 111.516 20.176 111.932 20.176ZM122.854 23.92C123.974 23.92 124.974 24.208 125.854 24.784C126.75 25.344 127.454 26.12 127.966 27.112C128.494 28.104 128.758 29.256 128.758 30.568C128.758 31.88 128.494 33.04 127.966 34.048C127.454 35.04 126.758 35.824 125.878 36.4C125.014 36.96 124.038 37.24 122.95 37.24C122.31 37.24 121.71 37.136 121.15 36.928C120.59 36.72 120.094 36.456 119.662 36.136C119.246 35.816 118.918 35.496 118.678 35.176C118.454 34.84 118.342 34.56 118.342 34.336L119.086 34.024L119.086 40.336C119.086 40.752 118.95 41.096 118.678 41.368C118.406 41.656 118.062 41.8 117.646 41.8C117.23 41.8 116.886 41.664 116.614 41.392C116.342 41.12 116.206 40.768 116.206 40.336L116.206 25.624C116.206 25.208 116.342 24.864 116.614 24.592C116.886 24.304 117.23 24.16 117.646 24.16C118.062 24.16 118.406 24.304 118.678 24.592C118.95 24.864 119.086 25.208 119.086 25.624L119.086 26.8L118.678 26.584C118.678 26.376 118.79 26.128 119.014 25.84C119.238 25.536 119.542 25.24 119.926 24.952C120.31 24.648 120.75 24.4 121.246 24.208C121.758 24.016 122.294 23.92 122.854 23.92ZM122.494 26.56C121.79 26.56 121.174 26.736 120.646 27.088C120.118 27.44 119.702 27.92 119.398 28.528C119.11 29.12 118.966 29.8 118.966 30.568C118.966 31.32 119.11 32.008 119.398 32.632C119.702 33.24 120.118 33.72 120.646 34.072C121.174 34.424 121.79 34.6 122.494 34.6C123.198 34.6 123.806 34.424 124.318 34.072C124.846 33.72 125.254 33.24 125.542 32.632C125.846 32.008 125.998 31.32 125.998 30.568C125.998 29.8 125.846 29.12 125.542 28.528C125.254 27.92 124.846 27.44 124.318 27.088C123.806 26.736 123.198 26.56 122.494 26.56ZM141.308 19.24C141.724 19.24 142.068 19.376 142.34 19.648C142.612 19.92 142.748 20.272 142.748 20.704L142.748 35.536C142.748 35.952 142.612 36.304 142.34 36.592C142.068 36.864 141.724 37 141.308 37C140.892 37 140.548 36.864 140.276 36.592C140.004 36.304 139.868 35.952 139.868 35.536L139.868 34.36L140.396 34.576C140.396 34.784 140.284 35.04 140.06 35.344C139.836 35.632 139.532 35.92 139.148 36.208C138.764 36.496 138.308 36.744 137.78 36.952C137.268 37.144 136.708 37.24 136.1 37.24C134.996 37.24 133.996 36.96 133.1 36.4C132.204 35.824 131.492 35.04 130.964 34.048C130.452 33.04 130.196 31.888 130.196 30.592C130.196 29.28 130.452 28.128 130.964 27.136C131.492 26.128 132.196 25.344 133.076 24.784C133.956 24.208 134.932 23.92 136.004 23.92C136.692 23.92 137.324 24.024 137.9 24.232C138.476 24.44 138.972 24.704 139.388 25.024C139.82 25.344 140.148 25.672 140.372 26.008C140.612 26.328 140.732 26.6 140.732 26.824L139.868 27.136L139.868 20.704C139.868 20.288 140.004 19.944 140.276 19.672C140.548 19.384 140.892 19.24 141.308 19.24ZM136.46 34.6C137.164 34.6 137.78 34.424 138.308 34.072C138.836 33.72 139.244 33.24 139.532 32.632C139.836 32.024 139.988 31.344 139.988 30.592C139.988 29.824 139.836 29.136 139.532 28.528C139.244 27.92 138.836 27.44 138.308 27.088C137.78 26.736 137.164 26.56 136.46 26.56C135.772 26.56 135.164 26.736 134.636 27.088C134.108 27.44 133.692 27.92 133.388 28.528C133.1 29.136 132.956 29.824 132.956 30.592C132.956 31.344 133.1 32.024 133.388 32.632C133.692 33.24 134.108 33.72 134.636 34.072C135.164 34.424 135.772 34.6 136.46 34.6ZM155.898 23.92C156.314 23.92 156.658 24.056 156.93 24.328C157.202 24.6 157.338 24.952 157.338 25.384L157.338 35.536C157.338 35.952 157.202 36.304 156.93 36.592C156.658 36.864 156.314 37 155.898 37C155.482 37 155.138 36.864 154.866 36.592C154.594 36.304 154.458 35.952 154.458 35.536L154.458 34.36L154.986 34.576C154.986 34.784 154.874 35.04 154.65 35.344C154.426 35.632 154.122 35.92 153.738 36.208C153.354 36.496 152.898 36.744 152.37 36.952C151.858 37.144 151.298 37.24 150.69 37.24C149.586 37.24 148.586 36.96 147.69 36.4C146.794 35.824 146.082 35.04 145.554 34.048C145.042 33.04 144.786 31.888 144.786 30.592C144.786 29.28 145.042 28.128 145.554 27.136C146.082 26.128 146.786 25.344 147.666 24.784C148.546 24.208 149.522 23.92 150.594 23.92C151.282 23.92 151.914 24.024 152.49 24.232C153.066 24.44 153.562 24.704 153.978 25.024C154.41 25.344 154.738 25.672 154.962 26.008C155.202 26.328 155.322 26.6 155.322 26.824L154.458 27.136L154.458 25.384C154.458 24.968 154.594 24.624 154.866 24.352C155.138 24.064 155.482 23.92 155.898 23.92ZM151.05 34.6C151.754 34.6 152.37 34.424 152.898 34.072C153.426 33.72 153.834 33.24 154.122 32.632C154.426 32.024 154.578 31.344 154.578 30.592C154.578 29.824 154.426 29.136 154.122 28.528C153.834 27.92 153.426 27.44 152.898 27.088C152.37 26.736 151.754 26.56 151.05 26.56C150.362 26.56 149.754 26.736 149.226 27.088C148.698 27.44 148.282 27.92 147.978 28.528C147.69 29.136 147.546 29.824 147.546 30.592C147.546 31.344 147.69 32.024 147.978 32.632C148.282 33.24 148.698 33.72 149.226 34.072C149.754 34.424 150.362 34.6 151.05 34.6ZM160.121 24.4L165.809 24.4C166.193 24.4 166.513 24.528 166.769 24.784C167.025 25.04 167.153 25.36 167.153 25.744C167.153 26.112 167.025 26.424 166.769 26.68C166.513 26.92 166.193 27.04 165.809 27.04L160.121 27.04C159.737 27.04 159.417 26.912 159.161 26.656C158.905 26.4 158.777 26.08 158.777 25.696C158.777 25.328 158.905 25.024 159.161 24.784C159.417 24.528 159.737 24.4 160.121 24.4ZM162.689 21.4C163.105 21.4 163.441 21.544 163.697 21.832C163.969 22.104 164.105 22.448 164.105 22.864L164.105 33.544C164.105 33.768 164.145 33.952 164.225 34.096C164.321 34.24 164.441 34.344 164.585 34.408C164.745 34.472 164.913 34.504 165.089 34.504C165.281 34.504 165.457 34.472 165.617 34.408C165.777 34.328 165.961 34.288 166.169 34.288C166.393 34.288 166.593 34.392 166.769 34.6C166.961 34.808 167.057 35.096 167.057 35.464C167.057 35.912 166.809 36.28 166.313 36.568C165.833 36.856 165.313 37 164.753 37C164.417 37 164.041 36.976 163.625 36.928C163.225 36.864 162.841 36.728 162.473 36.52C162.121 36.296 161.825 35.96 161.585 35.512C161.345 35.064 161.225 34.448 161.225 33.664L161.225 22.864C161.225 22.448 161.361 22.104 161.633 21.832C161.921 21.544 162.273 21.4 162.689 21.4ZM175.248 37.24C173.888 37.24 172.704 36.96 171.696 36.4C170.704 35.824 169.936 35.048 169.392 34.072C168.864 33.096 168.6 31.992 168.6 30.76C168.6 29.32 168.888 28.096 169.464 27.088C170.056 26.064 170.824 25.28 171.768 24.736C172.712 24.192 173.712 23.92 174.768 23.92C175.584 23.92 176.352 24.088 177.072 24.424C177.808 24.76 178.456 25.224 179.016 25.816C179.576 26.392 180.016 27.064 180.336 27.832C180.672 28.6 180.84 29.416 180.84 30.28C180.824 30.664 180.672 30.976 180.384 31.216C180.096 31.456 179.76 31.576 179.376 31.576L170.208 31.576L169.488 29.176L178.296 29.176L177.768 29.656L177.768 29.008C177.736 28.544 177.568 28.128 177.264 27.76C176.976 27.392 176.608 27.104 176.16 26.896C175.728 26.672 175.264 26.56 174.768 26.56C174.288 26.56 173.84 26.624 173.424 26.752C173.008 26.88 172.648 27.096 172.344 27.4C172.04 27.704 171.8 28.112 171.624 28.624C171.448 29.136 171.36 29.784 171.36 30.568C171.36 31.432 171.536 32.168 171.888 32.776C172.256 33.368 172.72 33.824 173.28 34.144C173.856 34.448 174.464 34.6 175.104 34.6C175.696 34.6 176.168 34.552 176.52 34.456C176.872 34.36 177.152 34.248 177.36 34.12C177.584 33.976 177.784 33.856 177.96 33.76C178.248 33.616 178.52 33.544 178.776 33.544C179.128 33.544 179.416 33.664 179.64 33.904C179.88 34.144 180 34.424 180 34.744C180 35.176 179.776 35.568 179.328 35.92C178.912 36.272 178.328 36.584 177.576 36.856C176.824 37.112 176.048 37.24 175.248 37.24Z" fill="#23003D"/>
<defs>
<linearGradient id="paint0_linear_619_13202" x1="140" y1="0" x2="140" y2="56" gradientUnits="userSpaceOnUse">
<stop stop-color="#FFE486"/>
<stop offset="0.515625" stop-color="#FFCC4E"/>
<stop offset="1" stop-color="#FFD02B"/>
<stop offset="1" stop-color="#D2A61B"/>
</linearGradient>
</defs>
</svg>
