<svg width="140" height="43" viewBox="0 0 140 43" fill="none" xmlns="http://www.w3.org/2000/svg">
<g style="mix-blend-mode:multiply" opacity="0.53">
<g style="mix-blend-mode:multiply" opacity="0.03">
<path d="M103.036 42.8797H30.2704C25.5007 42.867 20.93 40.9666 17.5573 37.5939C14.1846 34.2212 12.2842 29.6505 12.2715 24.8808C12.2842 20.1134 14.1854 15.5452 17.5587 12.1763C20.9321 8.80742 25.5029 6.91235 30.2704 6.90601H103.036C107.799 6.91871 112.364 8.81655 115.732 12.1847C119.1 15.5529 120.998 20.1175 121.011 24.8808C120.998 29.6464 119.101 34.2135 115.733 37.5855C112.366 40.9575 107.801 42.8607 103.036 42.8797Z" fill="#010001"/>
</g>
<g style="mix-blend-mode:multiply" opacity="0.05">
<path d="M103.036 42.7355H30.2704C25.5029 42.7291 20.9321 40.8341 17.5587 37.4652C14.1854 34.0964 12.2842 29.5281 12.2715 24.7607C12.2842 19.991 14.1846 15.4203 17.5573 12.0476C20.93 8.67486 25.5007 6.77448 30.2704 6.76178H103.036C107.801 6.78083 112.366 8.68403 115.733 12.056C119.101 15.4281 120.998 19.9951 121.011 24.7607C120.998 29.524 119.1 34.0886 115.732 37.4568C112.364 40.8249 107.799 42.7228 103.036 42.7355Z" fill="#010002"/>
</g>
<g style="mix-blend-mode:multiply" opacity="0.08">
<path d="M103.036 42.615H30.2704C25.5007 42.6023 20.93 40.7019 17.5573 37.3292C14.1846 33.9565 12.2842 29.3858 12.2715 24.6161C12.2842 19.8486 14.1854 15.2804 17.5587 11.9116C20.9321 8.54271 25.5029 6.64764 30.2704 6.6413H103.036C107.799 6.654 112.364 8.55184 115.732 11.92C119.1 15.2882 120.998 19.8528 121.011 24.6161C120.998 29.3817 119.101 33.9488 115.733 37.3208C112.366 40.6928 107.801 42.596 103.036 42.615Z" fill="#020003"/>
</g>
<g style="mix-blend-mode:multiply" opacity="0.1">
<path d="M103.036 42.4705H30.2704C25.5029 42.4642 20.9321 40.5691 17.5587 37.2003C14.1854 33.8314 12.2842 29.2632 12.2715 24.4957C12.2779 19.7241 14.1762 15.1497 17.5503 11.7756C20.9243 8.40156 25.4987 6.50319 30.2704 6.49683H103.036C107.803 6.50955 112.372 8.41069 115.74 11.7841C119.109 15.1575 121.004 19.7282 121.011 24.4957C120.998 29.259 119.1 33.8236 115.732 37.1918C112.364 40.56 107.799 42.4578 103.036 42.4705Z" fill="#020004"/>
</g>
<g style="mix-blend-mode:multiply" opacity="0.13">
<path d="M103.036 42.3503H30.2704C25.5007 42.3376 20.93 40.4373 17.5573 37.0646C14.1846 33.6919 12.2842 29.1212 12.2715 24.3515C12.2842 19.5818 14.1846 15.0111 17.5573 11.6384C20.93 8.26568 25.5007 6.3653 30.2704 6.3526H103.036C107.801 6.37165 112.366 8.27481 115.733 11.6468C119.101 15.0188 120.998 19.5859 121.011 24.3515C120.998 29.117 119.101 33.6841 115.733 37.0561C112.366 40.4281 107.801 42.3313 103.036 42.3503Z" fill="#030005"/>
</g>
<g style="mix-blend-mode:multiply" opacity="0.15">
<path d="M103.036 42.206H30.2704C27.8996 42.2155 25.5501 41.7572 23.3567 40.8572C21.1633 39.9572 19.169 38.6333 17.4881 36.9613C15.8072 35.2893 14.4727 33.3021 13.561 31.1136C12.6493 28.925 12.1784 26.578 12.1753 24.2071C12.1816 21.8383 12.6548 19.4939 13.5679 17.3081C14.481 15.1223 15.816 13.138 17.4966 11.4685C19.1772 9.7991 21.1704 8.47735 23.3623 7.57887C25.5541 6.6804 27.9016 6.22283 30.2704 6.23232H103.036C107.799 6.24502 112.364 8.14287 115.732 11.5111C119.1 14.8792 120.998 19.4438 121.011 24.2071C121.004 28.9746 119.109 33.5454 115.741 36.9188C112.372 40.2922 107.803 42.1933 103.036 42.206Z" fill="#030006"/>
</g>
<g style="mix-blend-mode:multiply" opacity="0.18">
<path d="M103.036 42.0617H30.2706C25.5071 42.081 20.9298 40.2138 17.539 36.8681C14.1483 33.5224 12.2199 28.9705 12.1754 24.2072C12.1659 21.8271 12.6273 19.4687 13.533 17.2676C14.4387 15.0665 15.7708 13.0664 17.4527 11.3823C19.1345 9.69817 21.1329 8.36338 23.3328 7.45476C25.5326 6.54614 27.8905 6.08165 30.2706 6.08802H103.036C107.802 6.10706 112.366 8.01023 115.734 11.3822C119.101 14.7543 120.998 19.3213 121.011 24.0869C120.998 28.8502 119.1 33.4148 115.732 36.783C112.364 40.1512 107.799 42.049 103.036 42.0617Z" fill="#040007"/>
</g>
<g style="mix-blend-mode:multiply" opacity="0.21">
<path d="M103.036 41.9412H30.2704C25.4987 41.9348 20.9243 40.0365 17.5503 36.6624C14.1762 33.2883 12.2779 28.7139 12.2715 23.9423C12.2842 19.1748 14.1854 14.6066 17.5587 11.2378C20.9321 7.86888 25.5029 5.97382 30.2704 5.96747H103.036C107.799 5.98017 112.364 7.87801 115.732 11.2462C119.1 14.6144 120.998 19.179 121.011 23.9423C121.004 28.7098 119.109 33.2805 115.74 36.6539C112.372 40.0273 107.803 41.9284 103.036 41.9412Z" fill="#050008"/>
</g>
<g style="mix-blend-mode:multiply" opacity="0.23">
<path d="M103.036 41.797H30.2704C25.5029 41.7907 20.9321 39.8956 17.5587 36.5268C14.1854 33.1579 12.2842 28.5897 12.2715 23.8222C12.2842 19.0525 14.1846 14.4818 17.5573 11.1091C20.93 7.73639 25.5007 5.83601 30.2704 5.8233H103.036C107.801 5.84235 112.366 7.74551 115.733 11.1175C119.101 14.4895 120.998 19.0566 121.011 23.8222C120.998 28.5855 119.1 33.1501 115.732 36.5183C112.364 39.8865 107.799 41.7843 103.036 41.797Z" fill="#050009"/>
</g>
<g style="mix-blend-mode:multiply" opacity="0.26">
<path d="M103.036 41.6765H30.2704C25.5007 41.6638 20.93 39.7634 17.5573 36.3907C14.1846 33.018 12.2842 28.4473 12.2715 23.6776C12.2842 18.9102 14.1854 14.342 17.5587 10.9731C20.9321 7.60423 25.5029 5.70917 30.2704 5.70282H103.036C107.799 5.71552 112.364 7.61336 115.732 10.9815C119.1 14.3497 120.998 18.9143 121.011 23.6776C120.998 28.4432 119.101 33.0103 115.733 36.3823C112.366 39.7543 107.801 41.6575 103.036 41.6765Z" fill="#06000A"/>
</g>
<g style="mix-blend-mode:multiply" opacity="0.28">
<path d="M103.036 41.5323H30.2704C25.5029 41.5259 20.9321 39.6309 17.5587 36.262C14.1854 32.8932 12.2842 28.3249 12.2715 23.5575C12.2842 18.7878 14.1846 14.2171 17.5573 10.8444C20.93 7.47168 25.5007 5.5713 30.2704 5.55859H103.036C107.801 5.57764 112.366 7.48084 115.733 10.8529C119.101 14.2249 120.998 18.7919 121.011 23.5575C120.998 28.3208 119.1 32.8854 115.732 36.2536C112.364 39.6217 107.799 41.5196 103.036 41.5323Z" fill="#06000B"/>
</g>
<g style="mix-blend-mode:multiply" opacity="0.31">
<path d="M103.036 41.4119H30.2704C25.5007 41.3992 20.93 39.4988 17.5573 36.1261C14.1846 32.7534 12.2842 28.1827 12.2715 23.413C12.2842 18.6455 14.1854 14.0773 17.5587 10.7085C20.9321 7.33959 25.5029 5.44452 30.2704 5.43817H103.036C107.799 5.45087 112.364 7.34872 115.732 10.7169C119.1 14.0851 120.998 18.6497 121.011 23.413C120.998 28.1785 119.101 32.7456 115.733 36.1176C112.366 39.4897 107.801 41.3928 103.036 41.4119Z" fill="#07000C"/>
</g>
<g style="mix-blend-mode:multiply" opacity="0.33">
<path d="M103.036 41.2674H30.2704C25.5029 41.2611 20.9321 39.366 17.5587 35.9972C14.1854 32.6283 12.2842 28.0601 12.2715 23.2926C12.2779 18.5209 14.1762 13.9466 17.5503 10.5725C20.9243 7.19844 25.4987 5.30007 30.2704 5.2937H103.036C107.803 5.30643 112.372 7.20757 115.74 10.5809C119.109 13.9543 121.004 18.5251 121.011 23.2926C120.998 28.0559 119.1 32.6205 115.732 35.9887C112.364 39.3569 107.799 41.2547 103.036 41.2674Z" fill="#07000D"/>
</g>
<g style="mix-blend-mode:multiply" opacity="0.36">
<path d="M103.036 41.051H30.2704C25.5007 41.0383 20.93 39.1379 17.5573 35.7652C14.1846 32.3925 12.2842 27.8218 12.2715 23.0521C12.3095 18.2991 14.221 13.7531 17.591 10.4011C20.961 7.04916 25.5173 5.162 30.2704 5.14948H103.036C107.801 5.16852 112.366 7.07169 115.733 10.4437C119.101 13.8157 120.998 18.3828 121.011 23.1483C120.973 27.8972 119.065 32.4397 115.7 35.791C112.335 39.1422 107.785 41.0321 103.036 41.051Z" fill="#08000E"/>
</g>
<g style="mix-blend-mode:multiply" opacity="0.38">
<path d="M103.036 41.0511H30.2705C25.4989 41.0447 20.9245 39.1464 17.5504 35.7723C14.1763 32.3982 12.278 27.8238 12.2716 23.0522C12.2621 20.6813 12.7205 18.3319 13.6205 16.1385C14.5205 13.9451 15.8444 11.9508 17.5163 10.2698C19.1883 8.58891 21.1755 7.25439 23.3641 6.34272C25.5527 5.43106 27.8996 4.96018 30.2705 4.95703H103.036C107.799 4.96973 112.364 6.86758 115.732 10.2358C119.1 13.6039 120.998 18.1685 121.011 22.9319C121.024 25.3027 120.568 27.6528 119.671 29.8474C118.774 32.042 117.453 34.0381 115.783 35.7213C114.113 37.4044 112.128 38.7416 109.941 39.6561C107.753 40.5707 105.407 41.0448 103.036 41.0511Z" fill="#08000F"/>
</g>
<g style="mix-blend-mode:multiply" opacity="0.41">
<path d="M103.036 40.8585H30.2704C25.5029 40.8522 20.9321 38.9572 17.5587 35.5883C14.1854 32.2194 12.2842 27.6512 12.2715 22.8837C12.3032 18.1266 14.2119 13.5743 17.5826 10.2172C20.9532 6.86005 25.5131 4.96961 30.2704 4.95703H103.036C107.801 4.97608 112.366 6.87928 115.733 10.2513C119.101 13.6233 120.998 18.1904 121.011 22.9559C120.979 27.7067 119.073 32.2528 115.707 35.6054C112.341 38.9581 107.787 40.846 103.036 40.8585Z" fill="#090010"/>
</g>
<g style="mix-blend-mode:multiply" opacity="0.44">
<path d="M103.036 40.738H30.2704C25.5007 40.7253 20.93 38.825 17.5573 35.4523C14.1846 32.0796 12.2842 27.5089 12.2715 22.7392C12.2842 17.9717 14.1854 13.4035 17.5587 10.0346C20.9321 6.66576 25.5029 4.77069 30.2704 4.76434H103.036C107.799 4.77705 112.364 6.67489 115.732 10.0431C119.1 13.4113 120.998 17.9759 121.011 22.7392C120.998 27.5047 119.101 32.0718 115.733 35.4438C112.366 38.8158 107.801 40.719 103.036 40.738Z" fill="#0A0011"/>
</g>
<g style="mix-blend-mode:multiply" opacity="0.46">
<path d="M103.036 40.5938H30.2704C25.5029 40.5875 20.9321 38.6924 17.5587 35.3236C14.1854 31.9547 12.2842 27.3865 12.2715 22.619C12.2842 17.8493 14.1846 13.2786 17.5573 9.9059C20.93 6.5332 25.5007 4.63282 30.2704 4.62012H103.036C107.801 4.63916 112.366 6.54233 115.733 9.91434C119.101 13.2864 120.998 17.8535 121.011 22.619C120.998 27.3823 119.1 31.9469 115.732 35.3151C112.364 38.6833 107.799 40.5811 103.036 40.5938Z" fill="#0A0012"/>
</g>
<g style="mix-blend-mode:multiply" opacity="0.49">
<path d="M103.036 40.4734H30.2704C25.5007 40.4607 20.93 38.5603 17.5573 35.1876C14.1846 31.8149 12.2842 27.2442 12.2715 22.4745C12.2842 17.707 14.1854 13.1388 17.5587 9.76998C20.9321 6.40111 25.5029 4.50604 30.2704 4.49969H103.036C107.799 4.5124 112.364 6.41024 115.732 9.77842C119.1 13.1466 120.998 17.7112 121.011 22.4745C120.998 27.2401 119.101 31.8072 115.733 35.1792C112.366 38.5512 107.801 40.4543 103.036 40.4734Z" fill="#0B0013"/>
</g>
<g style="mix-blend-mode:multiply" opacity="0.51">
<path d="M103.036 40.3292H30.2704C25.5029 40.3228 20.9321 38.4278 17.5587 35.0589C14.1854 31.6901 12.2842 27.1218 12.2715 22.3543C12.2842 17.5846 14.1846 13.0139 17.5573 9.64125C20.93 6.26855 25.5007 4.36817 30.2704 4.35547H103.036C107.801 4.37451 112.366 6.27772 115.733 9.64973C119.101 13.0217 120.998 17.5888 121.011 22.3543C120.998 27.1177 119.1 31.6823 115.732 35.0504C112.364 38.4186 107.799 40.3165 103.036 40.3292Z" fill="#0B0013"/>
</g>
<g style="mix-blend-mode:multiply" opacity="0.54">
<path d="M103.036 40.2087H30.2704C25.5007 40.196 20.93 38.2957 17.5573 34.923C14.1846 31.5503 12.2842 26.9796 12.2715 22.2099C12.2842 17.4424 14.1854 12.8742 17.5587 9.50533C20.9321 6.13646 25.5029 4.24139 30.2704 4.23505H103.036C107.799 4.24775 112.364 6.14559 115.732 9.51377C119.1 12.882 120.998 17.4466 121.011 22.2099C120.998 26.9754 119.101 31.5425 115.733 34.9145C112.366 38.2865 107.801 40.1897 103.036 40.2087Z" fill="#0C0014"/>
</g>
<g style="mix-blend-mode:multiply" opacity="0.56">
<path d="M103.036 40.0642H30.2704C25.5029 40.0579 20.9321 38.1628 17.5587 34.794C14.1854 31.4251 12.2842 26.8569 12.2715 22.0894C12.2779 17.3177 14.1762 12.7434 17.5503 9.36932C20.9243 5.99525 25.4987 4.09688 30.2704 4.09052H103.036C107.803 4.10324 112.372 6.00438 115.74 9.37776C119.109 12.7511 121.004 17.3219 121.011 22.0894C120.998 26.8527 119.1 31.4173 115.732 34.7855C112.364 38.1537 107.799 40.0515 103.036 40.0642Z" fill="#0C0015"/>
</g>
<g style="mix-blend-mode:multiply" opacity="0.59">
<path d="M103.036 39.944H30.2704C25.5007 39.9313 20.93 38.031 17.5573 34.6583C14.1846 31.2856 12.2842 26.7149 12.2715 21.9452C12.2842 17.1755 14.1846 12.6048 17.5573 9.23207C20.93 5.85937 25.5007 3.95899 30.2704 3.94629H103.036C107.801 3.96533 112.366 5.8685 115.733 9.24051C119.101 12.6125 120.998 17.1796 121.011 21.9452C120.998 26.7107 119.101 31.2778 115.733 34.6498C112.366 38.0218 107.801 39.925 103.036 39.944Z" fill="#0D0016"/>
</g>
<g style="mix-blend-mode:multiply" opacity="0.62">
<path d="M103.036 39.7997H30.2704C27.8996 39.8092 25.5501 39.3509 23.3567 38.4509C21.1633 37.5509 19.169 36.227 17.4881 34.555C15.8072 32.883 14.4727 30.8958 13.561 28.7073C12.6493 26.5187 12.1784 24.1717 12.1753 21.8008C12.1816 19.432 12.6548 17.0876 13.5679 14.9018C14.481 12.716 15.816 10.7317 17.4966 9.06222C19.1772 7.39279 21.1704 6.07104 23.3623 5.17256C25.5541 4.27408 27.9016 3.81652 30.2704 3.82601H103.036C107.799 3.83871 112.364 5.73656 115.732 9.10474C119.1 12.4729 120.998 17.0375 121.011 21.8008C121.004 26.5683 119.109 31.1391 115.741 34.5125C112.372 37.8858 107.803 39.787 103.036 39.7997Z" fill="#0E0017"/>
</g>
<g style="mix-blend-mode:multiply" opacity="0.64">
<path d="M103.036 39.6554H30.2706C25.5071 39.6747 20.9298 37.8074 17.539 34.4618C14.1483 31.1161 12.2199 26.5642 12.1754 21.8009C12.1659 19.4208 12.6273 17.0623 13.533 14.8613C14.4387 12.6602 15.7708 10.6601 17.4527 8.97597C19.1345 7.29186 21.1329 5.95707 23.3328 5.04845C25.5326 4.13983 27.8905 3.67534 30.2706 3.68171H103.036C107.802 3.70075 112.366 5.60392 115.734 8.97593C119.101 12.3479 120.998 16.915 121.011 21.6806C120.998 26.4439 119.1 31.0085 115.732 34.3767C112.364 37.7449 107.799 39.6427 103.036 39.6554Z" fill="#0E0018"/>
</g>
<g style="mix-blend-mode:multiply" opacity="0.67">
<path d="M103.036 39.5349H30.2704C25.5007 39.5222 20.93 37.6218 17.5573 34.2491C14.1846 30.8764 12.2842 26.3057 12.2715 21.536C12.2842 16.7686 14.1854 12.2004 17.5587 8.8315C20.9321 5.46263 25.5029 3.56757 30.2704 3.56122H103.036C107.799 3.57392 112.364 5.47176 115.732 8.83995C119.1 12.2081 120.998 16.7727 121.011 21.536C120.998 26.3016 119.101 30.8687 115.733 34.2407C112.366 37.6127 107.801 39.5159 103.036 39.5349Z" fill="#0F0019"/>
</g>
<g style="mix-blend-mode:multiply" opacity="0.69">
<path d="M103.036 39.3907H30.2704C25.5029 39.3843 20.9321 37.4893 17.5587 34.1204C14.1854 30.7516 12.2842 26.1833 12.2715 21.4159C12.2842 16.6462 14.1846 12.0755 17.5573 8.70277C20.93 5.33007 25.5007 3.42969 30.2704 3.41699H103.036C107.801 3.43604 112.366 5.3392 115.733 8.71122C119.101 12.0832 120.998 16.6503 121.011 21.4159C120.998 26.1792 119.1 30.7438 115.732 34.112C112.364 37.4801 107.799 39.378 103.036 39.3907Z" fill="#0F001A"/>
</g>
<g style="mix-blend-mode:multiply" opacity="0.72">
<path d="M103.036 39.2703H30.2704C25.5007 39.2576 20.93 37.3572 17.5573 33.9845C14.1846 30.6118 12.2842 26.0411 12.2715 21.2714C12.2842 16.5039 14.1854 11.9357 17.5587 8.56685C20.9321 5.19798 25.5029 3.30292 30.2704 3.29657H103.036C107.799 3.30927 112.364 5.20711 115.732 8.5753C119.1 11.9435 120.998 16.5081 121.011 21.2714C120.998 26.0369 119.101 30.604 115.733 33.976C112.366 37.3481 107.801 39.2512 103.036 39.2703Z" fill="#10001B"/>
</g>
<g style="mix-blend-mode:multiply" opacity="0.74">
<path d="M103.036 39.126H30.2704C25.5029 39.1197 20.9321 37.2247 17.5587 33.8558C14.1854 30.4869 12.2842 25.9187 12.2715 21.1512C12.2842 16.3815 14.1846 11.8108 17.5573 8.43812C20.93 5.06543 25.5007 3.16505 30.2704 3.15234H103.036C107.801 3.17139 112.366 5.07459 115.733 8.4466C119.101 11.8186 120.998 16.3857 121.011 21.1512C120.998 25.9145 119.1 30.4791 115.732 33.8473C112.364 37.2155 107.799 39.1133 103.036 39.126Z" fill="#10001C"/>
</g>
<g style="mix-blend-mode:multiply" opacity="0.77">
<path d="M103.036 39.0056H30.2704C25.5007 38.9929 20.93 37.0925 17.5573 33.7198C14.1846 30.3471 12.2842 25.7764 12.2715 21.0067C12.2842 16.2393 14.1854 11.6711 17.5587 8.30221C20.9321 4.93334 25.5029 3.03827 30.2704 3.03192H103.036C107.799 3.04462 112.364 4.94247 115.732 8.31065C119.1 11.6788 120.998 16.2434 121.011 21.0067C120.998 25.7723 119.101 30.3394 115.733 33.7114C112.366 37.0834 107.801 38.9866 103.036 39.0056Z" fill="#11001D"/>
</g>
<g style="mix-blend-mode:multiply" opacity="0.79">
<path d="M103.036 38.8611H30.2704C25.5029 38.8547 20.9321 36.9597 17.5587 33.5908C14.1854 30.222 12.2842 25.6537 12.2715 20.8863C12.2779 16.1146 14.1762 11.5403 17.5503 8.16619C20.9243 4.79213 25.4987 2.89376 30.2704 2.88739H103.036C107.803 2.90012 112.372 4.80126 115.74 8.17464C119.109 11.548 121.004 16.1188 121.011 20.8863C120.998 25.6496 119.1 30.2142 115.732 33.5824C112.364 36.9505 107.799 38.8484 103.036 38.8611Z" fill="#11001E"/>
</g>
<g style="mix-blend-mode:multiply" opacity="0.82">
<path d="M103.036 38.6447H30.2704C25.5007 38.632 20.93 36.7316 17.5573 33.3589C14.1846 29.9862 12.2842 25.4155 12.2715 20.6458C12.3095 15.8928 14.221 11.3467 17.591 7.9948C20.961 4.64285 25.5173 2.75569 30.2704 2.74316H103.036C107.801 2.76221 112.366 4.66538 115.733 8.03739C119.101 11.4094 120.998 15.9765 121.011 20.742C120.973 25.4909 119.065 30.0334 115.7 33.3846C112.335 36.7359 107.785 38.6258 103.036 38.6447Z" fill="#12001F"/>
</g>
<g style="mix-blend-mode:multiply" opacity="0.85">
<path d="M103.036 38.6448H30.2705C25.4989 38.6384 20.9245 36.7401 17.5504 33.366C14.1763 29.992 12.278 25.4176 12.2716 20.6459C12.2621 18.2751 12.7205 15.9257 13.6205 13.7322C14.5205 11.5388 15.8444 9.54451 17.5163 7.86358C19.1883 6.18266 21.1755 4.84814 23.3641 3.93647C25.5527 3.02481 27.8996 2.55393 30.2705 2.55078H103.036C107.799 2.56348 112.364 4.46133 115.732 7.82951C119.1 11.1977 120.998 15.7623 121.011 20.5256C121.024 22.8965 120.568 25.2465 119.671 27.4411C118.774 29.6358 117.453 31.6318 115.783 33.315C114.113 34.9982 112.128 36.3353 109.941 37.2499C107.753 38.1645 105.407 38.6385 103.036 38.6448Z" fill="#130020"/>
</g>
<g style="mix-blend-mode:multiply" opacity="0.87">
<path d="M103.036 38.4523H30.2704C25.5029 38.4459 20.9321 36.5509 17.5587 33.1821C14.1854 29.8132 12.2842 25.2449 12.2715 20.4775C12.3032 15.7203 14.2119 11.1681 17.5826 7.81093C20.9532 4.4538 25.5131 2.56336 30.2704 2.55078H103.036C107.801 2.56983 112.366 4.47303 115.733 7.84504C119.101 11.2171 120.998 15.7841 121.011 20.5497C120.979 25.3004 119.073 29.8466 115.707 33.1992C112.341 36.5518 107.787 38.4397 103.036 38.4523Z" fill="#130021"/>
</g>
<g style="mix-blend-mode:multiply" opacity="0.9">
<path d="M103.036 38.3318H30.2704C25.5007 38.3191 20.93 36.4187 17.5573 33.046C14.1846 29.6733 12.2842 25.1026 12.2715 20.3329C12.2842 15.5654 14.1854 10.9972 17.5587 7.62838C20.9321 4.25951 25.5029 2.36444 30.2704 2.35809H103.036C107.799 2.3708 112.364 4.26864 115.732 7.63682C119.1 11.005 120.998 15.5696 121.011 20.3329C120.998 25.0985 119.101 29.6656 115.733 33.0376C112.366 36.4096 107.801 38.3127 103.036 38.3318Z" fill="#140022"/>
</g>
<g style="mix-blend-mode:multiply" opacity="0.92">
<path d="M103.036 38.1876H30.2704C25.5029 38.1812 20.9321 36.2862 17.5587 32.9173C14.1854 29.5485 12.2842 24.9802 12.2715 20.2127C12.2842 15.443 14.1846 10.8723 17.5573 7.49965C20.93 4.12695 25.5007 2.22657 30.2704 2.21387H103.036C107.801 2.23291 112.366 4.13608 115.733 7.50809C119.101 10.8801 120.998 15.4472 121.011 20.2127C120.998 24.9761 119.1 29.5407 115.732 32.9088C112.364 36.277 107.799 38.1749 103.036 38.1876Z" fill="#140023"/>
</g>
<g style="mix-blend-mode:multiply" opacity="0.95">
<path d="M103.036 38.0671H30.2704C25.5007 38.0544 20.93 36.1541 17.5573 32.7814C14.1846 29.4087 12.2842 24.838 12.2715 20.0683C12.2842 15.3008 14.1854 10.7326 17.5587 7.36373C20.9321 3.99486 25.5029 2.09979 30.2704 2.09344H103.036C107.799 2.10615 112.364 4.00399 115.732 7.37217C119.1 10.7404 120.998 15.305 121.011 20.0683C120.998 24.8338 119.101 29.4009 115.733 32.7729C112.366 36.1449 107.801 38.0481 103.036 38.0671Z" fill="#150024"/>
</g>
<g style="mix-blend-mode:multiply" opacity="0.97">
<path d="M103.036 37.9229H30.2704C25.5029 37.9166 20.9321 36.0215 17.5587 32.6527C14.1854 29.2838 12.2842 24.7156 12.2715 19.9481C12.2842 15.1784 14.1846 10.6077 17.5573 7.235C20.93 3.8623 25.5007 1.96192 30.2704 1.94922H103.036C107.801 1.96826 112.366 3.87147 115.733 7.24348C119.101 10.6155 120.998 15.1826 121.011 19.9481C120.998 24.7114 119.1 29.276 115.732 32.6442C112.364 36.0124 107.799 37.9102 103.036 37.9229Z" fill="#150025"/>
</g>
<g style="mix-blend-mode:multiply" opacity="0.53">
<path d="M103.036 37.8025H30.2704C25.5007 37.7898 20.93 35.8894 17.5573 32.5167C14.1846 29.144 12.2842 24.5733 12.2715 19.8036C12.2842 15.0361 14.1854 10.4679 17.5587 7.09908C20.9321 3.73021 25.5029 1.83514 30.2704 1.8288H103.036C107.799 1.8415 112.364 3.73934 115.732 7.10752C119.1 10.4757 120.998 15.0403 121.011 19.8036C120.998 24.5692 119.101 29.1363 115.733 32.5083C112.366 35.8803 107.801 37.7835 103.036 37.8025Z" fill="#160026"/>
</g>
</g>
<path d="M103.037 37.8026H30.2713C25.5016 37.7899 20.9309 35.8895 17.5582 32.5168C14.1855 29.1441 12.2852 24.5734 12.2725 19.8037C12.2852 15.0362 14.1863 10.468 17.5597 7.09914C20.9331 3.73027 25.5039 1.83521 30.2713 1.82886H103.037C107.8 1.84156 112.365 3.7394 115.733 7.10759C119.101 10.4758 120.999 15.0404 121.012 19.8037C120.999 24.5692 119.102 29.1363 115.734 32.5083C112.367 35.8803 107.802 37.7835 103.037 37.8026Z" fill="#5E0499"/>
<path d="M30.2708 36.7437C25.4333 36.7437 20.7941 34.822 17.3735 31.4014C13.9529 27.9809 12.0313 23.3416 12.0312 18.5042C12.0313 13.6667 13.9529 9.02743 17.3735 5.60686C20.7941 2.18629 25.4333 0.264648 30.2708 0.264648H103.036C107.874 0.264648 112.513 2.18629 115.934 5.60686C119.354 9.02743 121.276 13.6667 121.276 18.5042C121.276 23.3416 119.354 27.9809 115.934 31.4014C112.513 34.822 107.874 36.7437 103.036 36.7437H30.2708Z" fill="#8810E4"/>
<path d="M103.036 0.505296C107.801 0.524341 112.366 2.42754 115.733 5.79956C119.101 9.17157 120.998 13.7387 121.011 18.5042C120.998 23.2675 119.1 27.8321 115.732 31.2003C112.364 34.5685 107.799 36.4663 103.036 36.479H30.2703C25.5028 36.4727 20.9321 34.5776 17.5587 31.2087C14.1853 27.8399 12.2842 23.2717 12.2714 18.5042C12.2841 13.7345 14.1845 9.16381 17.5572 5.79111C20.9299 2.41841 25.5006 0.517998 30.2703 0.505296H103.036ZM103.036 0H30.2703C27.8403 -1.44839e-07 25.4341 0.478604 23.1891 1.40853C20.944 2.33845 18.9041 3.70148 17.1859 5.41976C15.4676 7.13803 14.1046 9.17791 13.1747 11.4229C12.2447 13.668 11.7661 16.0742 11.7661 18.5042C11.7661 20.9342 12.2447 23.3404 13.1747 25.5854C14.1046 27.8305 15.4676 29.8704 17.1859 31.5887C18.9041 33.3069 20.944 34.6699 23.1891 35.5998C25.4341 36.5298 27.8403 37.0084 30.2703 37.0084H103.036C105.466 37.0084 107.872 36.5298 110.117 35.5998C112.362 34.6699 114.402 33.3069 116.12 31.5887C117.839 29.8704 119.202 27.8305 120.132 25.5854C121.061 23.3404 121.54 20.9342 121.54 18.5042C121.54 16.0742 121.061 13.668 120.132 11.4229C119.202 9.17791 117.839 7.13803 116.12 5.41976C114.402 3.70148 112.362 2.33845 110.117 1.40853C107.872 0.478604 105.466 -1.4484e-07 103.036 0Z" fill="#4B0395"/>
<g style="mix-blend-mode:soft-light" opacity="0.35">
<g style="mix-blend-mode:soft-light" opacity="0.35">
<path d="M10.6838 36.7436H0L36.4309 1.13086H47.1147L10.6838 36.7436Z" fill="white"/>
</g>
<g style="mix-blend-mode:soft-light" opacity="0.35">
<path d="M32.5813 36.7436H21.8975L58.3284 1.13086H69.0122L32.5813 36.7436Z" fill="white"/>
</g>
<g style="mix-blend-mode:soft-light" opacity="0.35">
<path d="M56.3069 36.7436H45.623L82.0539 1.13086H92.7378L56.3069 36.7436Z" fill="white"/>
</g>
<g style="mix-blend-mode:soft-light" opacity="0.35">
<path d="M81.0671 36.7436H70.3833L106.814 1.13086H117.498L81.0671 36.7436Z" fill="white"/>
</g>
<g style="mix-blend-mode:soft-light" opacity="0.35">
<path d="M102.844 36.7436H92.1362L128.591 1.13086H139.275L102.844 36.7436Z" fill="white"/>
</g>
</g>
<g style="mix-blend-mode:hard-light" opacity="0.42">
<path style="mix-blend-mode:hard-light" opacity="0.42" d="M103.012 0.529297H30.1747C20.2342 0.529297 12.1758 8.5823 12.1758 18.5162C12.1758 28.45 20.2342 36.503 30.1747 36.503H103.012C112.953 36.503 121.011 28.45 121.011 18.5162C121.011 8.5823 112.953 0.529297 103.012 0.529297Z" fill="url(#paint0_radial_640_9714)"/>
</g>
<g opacity="0.38">
<path opacity="0.38" d="M102.459 1.10681H30.2709C25.5268 1.1386 20.9881 3.04717 17.647 6.41535C14.3059 9.78354 12.434 14.3374 12.4404 19.0816C12.4404 19.3463 12.4404 19.611 12.4404 19.8757C12.6377 15.2722 14.5952 10.9202 17.9089 7.71847C21.2226 4.51675 25.6393 2.70986 30.2468 2.67091H102.459C107.068 2.704 111.488 4.50897 114.803 7.7119C118.118 10.9148 120.074 15.2702 120.265 19.8757C120.265 19.611 120.265 19.3463 120.265 19.0816C120.272 14.3415 118.403 9.7913 115.067 6.4238C111.731 3.0563 107.199 1.14493 102.459 1.10681Z" fill="#F9A871"/>
</g>
<path d="M58.164 15.23C58.5453 15.23 58.8607 15.362 59.11 15.626C59.3593 15.8753 59.484 16.1907 59.484 16.572V22.16C59.484 23.7147 59.0513 24.9467 58.186 25.856C57.3207 26.7653 56.074 27.22 54.446 27.22C52.818 27.22 51.5713 26.7653 50.706 25.856C49.8553 24.9467 49.43 23.7147 49.43 22.16V16.572C49.43 16.1907 49.5547 15.8753 49.804 15.626C50.0533 15.362 50.3687 15.23 50.75 15.23C51.1313 15.23 51.4467 15.362 51.696 15.626C51.9453 15.8753 52.07 16.1907 52.07 16.572V22.16C52.07 23.0547 52.268 23.722 52.664 24.162C53.06 24.5873 53.654 24.8 54.446 24.8C55.2527 24.8 55.854 24.5873 56.25 24.162C56.646 23.722 56.844 23.0547 56.844 22.16V16.572C56.844 16.1907 56.9687 15.8753 57.218 15.626C57.4673 15.362 57.7827 15.23 58.164 15.23ZM61.2201 25.174C61.0734 24.9687 61.0074 24.7047 61.0221 24.382C61.0368 24.0593 61.2274 23.7807 61.5941 23.546C61.8288 23.3993 62.0781 23.3407 62.3421 23.37C62.6061 23.3847 62.8628 23.5167 63.1121 23.766C63.5374 24.1913 63.9848 24.5213 64.4541 24.756C64.9234 24.9907 65.5101 25.108 66.2141 25.108C66.4341 25.0933 66.6761 25.064 66.9401 25.02C67.2041 24.9613 67.4314 24.844 67.6221 24.668C67.8274 24.4773 67.9301 24.1913 67.9301 23.81C67.9301 23.4873 67.8201 23.2307 67.6001 23.04C67.3801 22.8493 67.0868 22.688 66.7201 22.556C66.3681 22.424 65.9721 22.2993 65.5321 22.182C65.0774 22.05 64.6081 21.9033 64.1241 21.742C63.6548 21.5807 63.2221 21.3753 62.8261 21.126C62.4301 20.862 62.1074 20.5173 61.8581 20.092C61.6088 19.6667 61.4841 19.1313 61.4841 18.486C61.4841 17.7527 61.6894 17.1293 62.1001 16.616C62.5108 16.1027 63.0388 15.7067 63.6841 15.428C64.3441 15.1493 65.0334 15.01 65.7521 15.01C66.2068 15.01 66.6834 15.0687 67.1821 15.186C67.6808 15.2887 68.1574 15.4647 68.6121 15.714C69.0668 15.9487 69.4481 16.264 69.7561 16.66C69.9174 16.88 70.0128 17.144 70.0421 17.452C70.0714 17.76 69.9321 18.0387 69.6241 18.288C69.4041 18.464 69.1474 18.5447 68.8541 18.53C68.5608 18.5007 68.3188 18.398 68.1281 18.222C67.8788 17.8993 67.5414 17.6427 67.1161 17.452C66.7054 17.2613 66.2288 17.166 65.6861 17.166C65.4661 17.166 65.2241 17.1953 64.9601 17.254C64.7108 17.298 64.4908 17.408 64.3001 17.584C64.1094 17.7453 64.0141 18.0093 64.0141 18.376C64.0141 18.7133 64.1241 18.9847 64.3441 19.19C64.5641 19.3807 64.8574 19.542 65.2241 19.674C65.6054 19.7913 66.0088 19.9087 66.4341 20.026C66.8741 20.1433 67.3214 20.2827 67.7761 20.444C68.2308 20.6053 68.6488 20.818 69.0301 21.082C69.4114 21.346 69.7194 21.6907 69.9541 22.116C70.1888 22.5267 70.3061 23.0547 70.3061 23.7C70.3061 24.448 70.0861 25.086 69.6461 25.614C69.2061 26.142 68.6561 26.5453 67.9961 26.824C67.3361 27.088 66.6614 27.22 65.9721 27.22C65.1068 27.22 64.2414 27.0733 63.3761 26.78C62.5108 26.472 61.7921 25.9367 61.2201 25.174ZM77.6194 27.22C76.3727 27.22 75.2874 26.9633 74.3634 26.45C73.4541 25.922 72.7501 25.2107 72.2514 24.316C71.7674 23.4213 71.5254 22.4093 71.5254 21.28C71.5254 19.96 71.7894 18.838 72.3174 17.914C72.8601 16.9753 73.5641 16.2567 74.4294 15.758C75.2947 15.2593 76.2114 15.01 77.1794 15.01C77.9274 15.01 78.6314 15.164 79.2914 15.472C79.9661 15.78 80.5601 16.2053 81.0734 16.748C81.5867 17.276 81.9901 17.892 82.2834 18.596C82.5914 19.3 82.7454 20.048 82.7454 20.84C82.7307 21.192 82.5914 21.478 82.3274 21.698C82.0634 21.918 81.7554 22.028 81.4034 22.028H72.9994L72.3394 19.828H80.4134L79.9294 20.268V19.674C79.9001 19.2487 79.7461 18.8673 79.4674 18.53C79.2034 18.1927 78.8661 17.9287 78.4554 17.738C78.0594 17.5327 77.6341 17.43 77.1794 17.43C76.7394 17.43 76.3287 17.4887 75.9474 17.606C75.5661 17.7233 75.2361 17.9213 74.9574 18.2C74.6787 18.4787 74.4587 18.8527 74.2974 19.322C74.1361 19.7913 74.0554 20.3853 74.0554 21.104C74.0554 21.896 74.2167 22.5707 74.5394 23.128C74.8767 23.6707 75.3021 24.0887 75.8154 24.382C76.3434 24.6607 76.9007 24.8 77.4874 24.8C78.0301 24.8 78.4627 24.756 78.7854 24.668C79.1081 24.58 79.3647 24.4773 79.5554 24.36C79.7607 24.228 79.9441 24.118 80.1054 24.03C80.3694 23.898 80.6187 23.832 80.8534 23.832C81.1761 23.832 81.4401 23.942 81.6454 24.162C81.8654 24.382 81.9754 24.6387 81.9754 24.932C81.9754 25.328 81.7701 25.6873 81.3594 26.01C80.9781 26.3327 80.4427 26.6187 79.7534 26.868C79.0641 27.1027 78.3527 27.22 77.6194 27.22Z" fill="#FFF04B"/>
<path d="M59.11 15.626L58.795 15.9235L58.8037 15.9323L59.11 15.626ZM58.186 25.856L58.4998 26.1546L58.186 25.856ZM50.706 25.856L50.3897 26.1519L50.3922 26.1546L50.706 25.856ZM49.804 15.626L50.1104 15.9324L50.1189 15.9234L49.804 15.626ZM51.696 15.626L51.381 15.9235L51.3897 15.9323L51.696 15.626ZM52.664 24.162L52.342 24.4518L52.347 24.4571L52.664 24.162ZM56.25 24.162L56.567 24.4572L56.5719 24.4517L56.25 24.162ZM57.218 15.626L57.5244 15.9324L57.5329 15.9234L57.218 15.626ZM58.164 15.6631C58.4329 15.6631 58.6321 15.7508 58.7951 15.9234L59.4249 15.3286C59.0892 14.9732 58.6578 14.7969 58.164 14.7969V15.6631ZM58.8037 15.9323C58.9648 16.0934 59.0509 16.2952 59.0509 16.572H59.9171C59.9171 16.0861 59.7539 15.6573 59.4163 15.3197L58.8037 15.9323ZM59.0509 16.572V22.16H59.9171V16.572H59.0509ZM59.0509 22.16C59.0509 23.6314 58.6437 24.7468 57.8722 25.5574L58.4998 26.1546C59.459 25.1466 59.9171 23.7979 59.9171 22.16H59.0509ZM57.8722 25.5574C57.1111 26.3573 55.9924 26.7869 54.446 26.7869V27.6531C56.1556 27.6531 57.5302 27.1734 58.4998 26.1546L57.8722 25.5574ZM54.446 26.7869C52.8996 26.7869 51.7809 26.3573 51.0198 25.5574L50.3922 26.1546C51.3618 27.1734 52.7364 27.6531 54.446 27.6531V26.7869ZM51.0223 25.5601C50.2642 24.7497 49.8631 23.6334 49.8631 22.16H48.9969C48.9969 23.796 49.4465 25.1436 50.3897 26.1519L51.0223 25.5601ZM49.8631 22.16V16.572H48.9969V22.16H49.8631ZM49.8631 16.572C49.8631 16.2952 49.9492 16.0934 50.1103 15.9323L49.4977 15.3197C49.1601 15.6573 48.9969 16.0861 48.9969 16.572H49.8631ZM50.1189 15.9234C50.2819 15.7508 50.4811 15.6631 50.75 15.6631V14.7969C50.2562 14.7969 49.8248 14.9732 49.4891 15.3286L50.1189 15.9234ZM50.75 15.6631C51.0189 15.6631 51.2181 15.7508 51.3811 15.9234L52.0109 15.3286C51.6752 14.9732 51.2438 14.7969 50.75 14.7969V15.6631ZM51.3897 15.9323C51.5508 16.0933 51.6369 16.2952 51.6369 16.572H52.5031C52.5031 16.0861 52.3399 15.6573 52.0023 15.3197L51.3897 15.9323ZM51.6369 16.572V22.16H52.5031V16.572H51.6369ZM51.6369 22.16C51.6369 23.1086 51.8455 23.9 52.3421 24.4517L52.9859 23.8723C52.6905 23.544 52.5031 23.0007 52.5031 22.16H51.6369ZM52.347 24.4571C52.8514 24.9989 53.579 25.2331 54.446 25.2331V24.3669C53.729 24.3669 53.2686 24.1758 52.981 23.8669L52.347 24.4571ZM54.446 25.2331C55.3249 25.2331 56.0612 25.0004 56.567 24.4571L55.933 23.8669C55.6468 24.1743 55.1805 24.3669 54.446 24.3669V25.2331ZM56.5719 24.4517C57.0685 23.9 57.2771 23.1086 57.2771 22.16H56.4109C56.4109 23.0007 56.2235 23.544 55.9281 23.8723L56.5719 24.4517ZM57.2771 22.16V16.572H56.4109V22.16H57.2771ZM57.2771 16.572C57.2771 16.2952 57.3632 16.0934 57.5243 15.9323L56.9117 15.3197C56.5741 15.6573 56.4109 16.0861 56.4109 16.572H57.2771ZM57.5329 15.9234C57.6959 15.7508 57.8951 15.6631 58.164 15.6631V14.7969C57.6702 14.7969 57.2388 14.9732 56.9031 15.3286L57.5329 15.9234ZM61.2201 25.174L60.8676 25.4258L60.8736 25.4339L61.2201 25.174ZM61.5941 23.546L61.3645 23.1787L61.3606 23.1812L61.5941 23.546ZM62.3421 23.37L62.2943 23.8005L62.3062 23.8018L62.3181 23.8025L62.3421 23.37ZM63.1121 23.766L62.8058 24.0723H62.8058L63.1121 23.766ZM66.2141 25.108V25.5411H66.2285L66.2429 25.5402L66.2141 25.108ZM66.9401 25.02L67.0113 25.4472L67.0228 25.4453L67.0341 25.4428L66.9401 25.02ZM67.6221 24.668L67.9159 24.9863L67.9168 24.9854L67.6221 24.668ZM67.6001 23.04L67.3164 23.3673L67.6001 23.04ZM66.7201 22.556L66.568 22.9616L66.5734 22.9635L66.7201 22.556ZM65.5321 22.182L65.4113 22.5981L65.4205 22.6005L65.5321 22.182ZM64.1241 21.742L63.9833 22.1516L63.9871 22.1529L64.1241 21.742ZM62.8261 21.126L62.5858 21.4865L62.5953 21.4925L62.8261 21.126ZM61.8581 20.092L61.4845 20.311L61.8581 20.092ZM62.1001 16.616L61.7619 16.3454L62.1001 16.616ZM63.6841 15.428L63.5156 15.029L63.5124 15.0304L63.6841 15.428ZM67.1821 15.186L67.0829 15.6078L67.0948 15.6102L67.1821 15.186ZM68.6121 15.714L68.4038 16.0939L68.4135 16.0989L68.6121 15.714ZM69.7561 16.66L70.1055 16.4038L70.098 16.3941L69.7561 16.66ZM70.0421 17.452L70.4733 17.4109L70.0421 17.452ZM69.6241 18.288L69.8947 18.6262L69.8966 18.6246L69.6241 18.288ZM68.8541 18.53L68.811 18.961L68.8217 18.962L68.8325 18.9626L68.8541 18.53ZM68.1281 18.222L67.7854 18.4868L67.8076 18.5156L67.8343 18.5403L68.1281 18.222ZM67.1161 17.452L66.9337 17.8449L66.9389 17.8472L67.1161 17.452ZM64.9601 17.254L65.0354 17.6805L65.0448 17.6789L65.0541 17.6768L64.9601 17.254ZM64.3001 17.584L64.5799 17.9146L64.587 17.9086L64.5939 17.9023L64.3001 17.584ZM64.3441 19.19L64.0486 19.5066L64.0544 19.5121L64.0604 19.5173L64.3441 19.19ZM65.2241 19.674L65.0774 20.0815L65.087 20.085L65.0967 20.088L65.2241 19.674ZM66.4341 20.026L66.3189 20.4435L66.3225 20.4445L66.4341 20.026ZM69.0301 21.082L69.2767 20.7259L69.0301 21.082ZM69.9541 22.116L69.5748 22.3253L69.578 22.3309L69.9541 22.116ZM69.6461 25.614L69.9788 25.8913L69.6461 25.614ZM67.9961 26.824L68.157 27.2262L68.1646 27.223L67.9961 26.824ZM63.3761 26.78L63.2309 27.1881L63.2371 27.1902L63.3761 26.78ZM61.5726 24.9222C61.4964 24.8156 61.4433 24.6549 61.4548 24.4017L60.5894 24.3623C60.5716 24.7544 60.6505 25.1217 60.8677 25.4258L61.5726 24.9222ZM61.4548 24.4017C61.461 24.2656 61.5344 24.0984 61.8276 23.9108L61.3606 23.1812C60.9205 23.4629 60.6126 23.853 60.5894 24.3623L61.4548 24.4017ZM61.8237 23.9133C61.9794 23.816 62.1315 23.7824 62.2943 23.8005L62.3899 22.9395C62.0247 22.8989 61.6782 22.9827 61.3646 23.1787L61.8237 23.9133ZM62.3181 23.8025C62.4444 23.8095 62.6063 23.8727 62.8058 24.0723L63.4184 23.4597C63.1192 23.1606 62.7678 22.9599 62.3661 22.9375L62.3181 23.8025ZM62.8058 24.0723C63.2594 24.5258 63.7438 24.8851 64.2604 25.1434L64.6478 24.3686C64.2257 24.1575 63.8155 23.8569 63.4184 23.4597L62.8058 24.0723ZM64.2604 25.1434C64.8068 25.4166 65.4648 25.5411 66.2141 25.5411V24.6749C65.5554 24.6749 65.0401 24.5647 64.6478 24.3686L64.2604 25.1434ZM66.2429 25.5402C66.4797 25.5244 66.7361 25.4931 67.0113 25.4472L66.8689 24.5928C66.6161 24.6349 66.3885 24.6623 66.1853 24.6758L66.2429 25.5402ZM67.0341 25.4428C67.3694 25.3683 67.6666 25.2164 67.9159 24.9863L67.3283 24.3497C67.1963 24.4716 67.0388 24.5544 66.8462 24.5972L67.0341 25.4428ZM67.9168 24.9854C68.2388 24.6864 68.3632 24.2667 68.3632 23.81H67.497C67.497 24.116 67.4161 24.2682 67.3274 24.3506L67.9168 24.9854ZM68.3632 23.81C68.3632 23.377 68.2097 22.9951 67.8838 22.7127L67.3164 23.3673C67.4305 23.4662 67.497 23.5977 67.497 23.81H68.3632ZM67.8838 22.7127C67.6123 22.4774 67.2677 22.2928 66.8668 22.1485L66.5734 22.9635C66.9059 23.0832 67.1479 23.2212 67.3164 23.3673L67.8838 22.7127ZM66.8722 22.1504C66.5045 22.0126 66.0947 21.8837 65.6437 21.7635L65.4205 22.6005C65.8496 22.7149 66.2317 22.8354 66.568 22.9615L66.8722 22.1504ZM65.6529 21.766C65.204 21.6357 64.7401 21.4908 64.2611 21.3311L63.9871 22.1529C64.4761 22.3159 64.9508 22.4643 65.4113 22.598L65.6529 21.766ZM64.2649 21.3324C63.8252 21.1813 63.423 20.99 63.0569 20.7595L62.5953 21.4925C63.0212 21.7607 63.4843 21.9801 63.9833 22.1516L64.2649 21.3324ZM63.0664 20.7656C62.727 20.5393 62.4491 20.2438 62.2318 19.873L61.4845 20.311C61.7657 20.7909 62.1333 21.1847 62.5859 21.4864L63.0664 20.7656ZM62.2318 19.873C62.0316 19.5315 61.9172 19.0775 61.9172 18.486H61.051C61.051 19.1852 61.1859 19.8018 61.4845 20.311L62.2318 19.873ZM61.9172 18.486C61.9172 17.839 62.0962 17.3142 62.4383 16.8866L61.7619 16.3454C61.2827 16.9445 61.051 17.6664 61.051 18.486H61.9172ZM62.4383 16.8866C62.8017 16.4324 63.2709 16.0782 63.8558 15.8256L63.5124 15.0304C62.8066 15.3351 62.2199 15.7729 61.7619 16.3454L62.4383 16.8866ZM63.8526 15.827C64.4591 15.5709 65.0911 15.4431 65.7521 15.4431V14.5769C64.9758 14.5769 64.2291 14.7277 63.5156 15.029L63.8526 15.827ZM65.7521 15.4431C66.1695 15.4431 66.6127 15.497 67.0829 15.6076L67.2813 14.7644C66.7542 14.6404 66.2441 14.5769 65.7521 14.5769V15.4431ZM67.0948 15.6102C67.5504 15.704 67.9863 15.8648 68.4038 16.0938L68.8204 15.3342C68.3286 15.0645 67.8112 14.8733 67.2695 14.7618L67.0948 15.6102ZM68.4135 16.0989C68.8135 16.3053 69.1456 16.5805 69.4142 16.9259L70.098 16.3941C69.7507 15.9475 69.3201 15.592 68.8108 15.3291L68.4135 16.0989ZM69.4068 16.9161C69.516 17.065 69.588 17.2522 69.6109 17.4931L70.4733 17.4109C70.4376 17.0358 70.3189 16.695 70.1054 16.4039L69.4068 16.9161ZM69.6109 17.4931C69.6227 17.6161 69.5824 17.7645 69.3516 17.9514L69.8966 18.6246C70.2818 18.3128 70.5202 17.9039 70.4733 17.4109L69.6109 17.4931ZM69.3535 17.9498C69.2199 18.0567 69.0683 18.107 68.8757 18.0974L68.8325 18.9626C69.2266 18.9823 69.5883 18.8713 69.8947 18.6262L69.3535 17.9498ZM68.8972 18.099C68.6841 18.0777 68.5342 18.0074 68.4219 17.9037L67.8343 18.5403C68.1033 18.7886 68.4374 18.9236 68.811 18.961L68.8972 18.099ZM68.4708 17.9572C68.172 17.5704 67.7743 17.2724 67.2933 17.0568L66.9389 17.8472C67.3086 18.0129 67.5855 18.2282 67.7854 18.4868L68.4708 17.9572ZM67.2985 17.0591C66.8205 16.8372 66.2795 16.7329 65.6861 16.7329V17.5991C66.1781 17.5991 66.5904 17.6855 66.9337 17.8449L67.2985 17.0591ZM65.6861 16.7329C65.4283 16.7329 65.1543 16.7672 64.8662 16.8312L65.0541 17.6768C65.294 17.6235 65.5039 17.5991 65.6861 17.5991V16.7329ZM64.8848 16.8275C64.5517 16.8863 64.2564 17.0349 64.0063 17.2657L64.5939 17.9023C64.7252 17.7811 64.8699 17.7097 65.0354 17.6805L64.8848 16.8275ZM64.0203 17.2534C63.6939 17.5296 63.581 17.943 63.581 18.376H64.4472C64.4472 18.0757 64.525 17.9611 64.5799 17.9146L64.0203 17.2534ZM63.581 18.376C63.581 18.8173 63.7297 19.2091 64.0486 19.5066L64.6396 18.8734C64.5185 18.7603 64.4472 18.6093 64.4472 18.376H63.581ZM64.0604 19.5173C64.3319 19.7526 64.6765 19.9372 65.0774 20.0815L65.3708 19.2665C65.0384 19.1468 64.7963 19.0088 64.6278 18.8627L64.0604 19.5173ZM65.0967 20.088C65.4825 20.2067 65.8899 20.3252 66.3189 20.4435L66.5493 19.6085C66.1276 19.4921 65.7284 19.376 65.3515 19.26L65.0967 20.088ZM66.3225 20.4445C66.7507 20.5587 67.1869 20.6945 67.6313 20.8522L67.921 20.0358C67.456 19.8708 66.9976 19.728 66.5457 19.6075L66.3225 20.4445ZM67.6313 20.8522C68.0513 21.0012 68.4349 21.1967 68.7836 21.4381L69.2767 20.7259C68.8626 20.4393 68.4102 20.2094 67.921 20.0358L67.6313 20.8522ZM68.7836 21.4381C69.1073 21.6622 69.3709 21.9556 69.5749 22.3252L70.3333 21.9068C70.068 21.4257 69.7156 21.0298 69.2767 20.7259L68.7836 21.4381ZM69.578 22.3309C69.7641 22.6565 69.873 23.1037 69.873 23.7H70.7392C70.7392 23.0056 70.6134 22.3968 70.3302 21.9011L69.578 22.3309ZM69.873 23.7C69.873 24.3563 69.6826 24.8936 69.3134 25.3367L69.9788 25.8913C70.4896 25.2784 70.7392 24.5397 70.7392 23.7H69.873ZM69.3134 25.3367C68.9195 25.8093 68.4267 26.172 67.8276 26.425L68.1646 27.223C68.8855 26.9186 69.4927 26.4747 69.9788 25.8913L69.3134 25.3367ZM67.8353 26.4219C67.2248 26.666 66.6046 26.7869 65.9721 26.7869V27.6531C66.7183 27.6531 67.4474 27.51 68.157 27.2261L67.8353 26.4219ZM65.9721 26.7869C65.1567 26.7869 64.3382 26.6488 63.5152 26.3698L63.2371 27.1902C64.1447 27.4979 65.0569 27.6531 65.9721 27.6531V26.7869ZM63.5213 26.3719C62.7394 26.0936 62.0896 25.6114 61.5666 24.9141L60.8736 25.4339C61.4946 26.2619 62.2822 26.8504 63.2309 27.1881L63.5213 26.3719ZM74.3634 26.45L74.1459 26.8246L74.153 26.8286L74.3634 26.45ZM72.2514 24.316L71.8704 24.5221L71.8731 24.5269L72.2514 24.316ZM72.3174 17.914L71.9424 17.6972L71.9413 17.6991L72.3174 17.914ZM74.4294 15.758L74.2131 15.3827L74.4294 15.758ZM79.2914 15.472L79.1082 15.8645L79.1115 15.866L79.2914 15.472ZM81.0734 16.748L80.7587 17.0457L80.7628 17.0499L81.0734 16.748ZM82.2834 18.596L81.8835 18.7626L81.8866 18.7696L82.2834 18.596ZM82.7454 20.84L83.1781 20.858L83.1785 20.849V20.84H82.7454ZM82.3274 21.698L82.6047 22.0307L82.3274 21.698ZM72.9994 22.028L72.5845 22.1525L72.6771 22.4611H72.9994V22.028ZM72.3394 19.828V19.3949H71.7573L71.9245 19.9525L72.3394 19.828ZM80.4134 19.828L80.7047 20.1485L81.5337 19.3949H80.4134V19.828ZM79.9294 20.268H79.4963V21.2471L80.2207 20.5885L79.9294 20.268ZM79.9294 19.674H80.3625V19.6591L80.3615 19.6442L79.9294 19.674ZM79.4674 18.53L79.1262 18.797L79.1335 18.8059L79.4674 18.53ZM78.4554 17.738L78.256 18.1225L78.2644 18.1269L78.273 18.1309L78.4554 17.738ZM75.9474 17.606L76.0748 18.02L75.9474 17.606ZM74.9574 18.2L75.2637 18.5063L74.9574 18.2ZM74.2974 19.322L74.707 19.4628L74.2974 19.322ZM74.5394 23.128L74.1644 23.3451L74.1715 23.3567L74.5394 23.128ZM75.8154 24.382L75.6005 24.7581L75.6068 24.7617L75.6132 24.7651L75.8154 24.382ZM78.7854 24.668L78.6714 24.2501L78.7854 24.668ZM79.5554 24.36L79.7824 24.7289L79.7896 24.7243L79.5554 24.36ZM80.1054 24.03L79.9117 23.6426L79.9048 23.6461L79.898 23.6498L80.1054 24.03ZM81.6454 24.162L81.3288 24.4575L81.3338 24.463L81.3391 24.4683L81.6454 24.162ZM81.3594 26.01L81.0918 25.6694L81.0856 25.6743L81.0796 25.6794L81.3594 26.01ZM79.7534 26.868L79.893 27.2781L79.9007 27.2753L79.7534 26.868ZM77.6194 26.7869C76.4331 26.7869 75.4227 26.543 74.5737 26.0714L74.153 26.8286C75.1521 27.3836 76.3124 27.6531 77.6194 27.6531V26.7869ZM74.5809 26.0754C73.737 25.5855 73.0894 24.9299 72.6297 24.1051L71.8731 24.5269C72.4107 25.4914 73.1711 26.2585 74.1459 26.8246L74.5809 26.0754ZM72.6323 24.1099C72.1862 23.2853 71.9585 22.3455 71.9585 21.28H71.0923C71.0923 22.4732 71.3485 23.5574 71.8704 24.5221L72.6323 24.1099ZM71.9585 21.28C71.9585 20.0174 72.2108 18.9735 72.6935 18.1289L71.9413 17.6991C71.3679 18.7025 71.0923 19.9026 71.0923 21.28H71.9585ZM72.6924 18.1308C73.2003 17.2522 73.8518 16.5907 74.6457 16.1333L74.2131 15.3827C73.2763 15.9226 72.5198 16.6985 71.9424 17.6972L72.6924 18.1308ZM74.6457 16.1333C75.4474 15.6713 76.2898 15.4431 77.1794 15.4431V14.5769C76.133 14.5769 75.1421 14.8474 74.2131 15.3827L74.6457 16.1333ZM77.1794 15.4431C77.8659 15.4431 78.5072 15.584 79.1082 15.8645L79.4746 15.0795C78.7556 14.744 77.9889 14.5769 77.1794 14.5769V15.4431ZM79.1115 15.866C79.7351 16.1507 80.2834 16.5432 80.7587 17.0456L81.388 16.4504C80.8367 15.8675 80.197 15.4093 79.4713 15.078L79.1115 15.866ZM80.7628 17.0499C81.2368 17.5374 81.6105 18.1071 81.8836 18.7626L82.6832 18.4294C82.3697 17.6769 81.9366 17.0146 81.3839 16.4461L80.7628 17.0499ZM81.8866 18.7696C82.1699 19.4172 82.3123 20.1059 82.3123 20.84H83.1785C83.1785 19.9901 83.0129 19.1828 82.6802 18.4224L81.8866 18.7696ZM82.3126 20.822C82.3029 21.0553 82.2175 21.2257 82.0501 21.3653L82.6047 22.0307C82.9652 21.7303 83.1585 21.3287 83.1781 20.858L82.3126 20.822ZM82.0501 21.3653C81.866 21.5187 81.6568 21.5949 81.4034 21.5949V22.4611C81.854 22.4611 82.2608 22.3173 82.6047 22.0307L82.0501 21.3653ZM81.4034 21.5949H72.9994V22.4611H81.4034V21.5949ZM73.4143 21.9035L72.7543 19.7035L71.9245 19.9525L72.5845 22.1525L73.4143 21.9035ZM72.3394 20.2611H80.4134V19.3949H72.3394V20.2611ZM80.122 19.5075L79.638 19.9475L80.2207 20.5885L80.7047 20.1485L80.122 19.5075ZM80.3625 20.268V19.674H79.4963V20.268H80.3625ZM80.3615 19.6442C80.3258 19.1261 80.136 18.6593 79.8013 18.2541L79.1335 18.8059C79.3561 19.0754 79.4744 19.3712 79.4973 19.7038L80.3615 19.6442ZM79.8085 18.2631C79.4999 17.8687 79.1069 17.563 78.6378 17.3451L78.273 18.1309C78.6252 18.2944 78.9069 18.5166 79.1263 18.7969L79.8085 18.2631ZM78.6548 17.3535C78.1959 17.1156 77.7021 16.9969 77.1794 16.9969V17.8631C77.5661 17.8631 77.9228 17.9498 78.256 18.1225L78.6548 17.3535ZM77.1794 16.9969C76.7006 16.9969 76.2466 17.0608 75.82 17.192L76.0748 18.02C76.4108 17.9166 76.7782 17.8631 77.1794 17.8631V16.9969ZM75.82 17.192C75.372 17.3299 74.9804 17.5645 74.6511 17.8937L75.2637 18.5063C75.4917 18.2782 75.7601 18.1168 76.0748 18.02L75.82 17.192ZM74.6511 17.8937C74.3154 18.2295 74.0651 18.6653 73.8878 19.1812L74.707 19.4628C74.8523 19.04 75.042 18.7279 75.2637 18.5063L74.6511 17.8937ZM73.8878 19.1812C73.7056 19.7112 73.6223 20.357 73.6223 21.104H74.4885C74.4885 20.4137 74.5665 19.8714 74.707 19.4628L73.8878 19.1812ZM73.6223 21.104C73.6223 21.9548 73.7958 22.7081 74.1646 23.345L74.9142 22.911C74.6376 22.4332 74.4885 21.8372 74.4885 21.104H73.6223ZM74.1715 23.3567C74.5437 23.9553 75.0198 24.4262 75.6005 24.7581L76.0303 24.0059C75.5844 23.7511 75.2098 23.386 74.9072 22.8993L74.1715 23.3567ZM75.6132 24.7651C76.2024 25.076 76.829 25.2331 77.4874 25.2331V24.3669C76.9725 24.3669 76.4844 24.2453 76.0176 23.9989L75.6132 24.7651ZM77.4874 25.2331C78.0478 25.2331 78.5238 25.1883 78.8994 25.0859L78.6714 24.2501C78.4016 24.3237 78.0123 24.3669 77.4874 24.3669V25.2331ZM78.8994 25.0859C79.2442 24.9918 79.5438 24.8757 79.7824 24.7289L79.3284 23.9911C79.1856 24.079 78.9719 24.1682 78.6714 24.2501L78.8994 25.0859ZM79.7896 24.7243C79.9888 24.5963 80.163 24.492 80.3128 24.4102L79.898 23.6498C79.7251 23.744 79.5326 23.8597 79.3212 23.9957L79.7896 24.7243ZM80.2991 24.4174C80.5181 24.3079 80.701 24.2651 80.8534 24.2651V23.3989C80.5364 23.3989 80.2207 23.4881 79.9117 23.6426L80.2991 24.4174ZM80.8534 24.2651C81.0657 24.2651 81.2117 24.3321 81.3288 24.4575L81.962 23.8665C81.6684 23.5519 81.2864 23.3989 80.8534 23.3989V24.2651ZM81.3391 24.4683C81.4834 24.6125 81.5423 24.761 81.5423 24.932H82.4085C82.4085 24.5163 82.2474 24.1515 81.9517 23.8557L81.3391 24.4683ZM81.5423 24.932C81.5423 25.1552 81.4339 25.4006 81.0918 25.6694L81.627 26.3506C82.1062 25.9741 82.4085 25.5008 82.4085 24.932H81.5423ZM81.0796 25.6794C80.7513 25.9571 80.2676 26.2214 79.6061 26.4607L79.9007 27.2753C80.6179 27.0159 81.2048 26.7082 81.6392 26.3406L81.0796 25.6794ZM79.6138 26.458C78.9697 26.6772 78.3056 26.7869 77.6194 26.7869V27.6531C78.3999 27.6531 79.1584 27.5281 79.893 27.278L79.6138 26.458Z" fill="#7A3100"/>
<defs>
<radialGradient id="paint0_radial_640_9714" cx="0" cy="0" r="1" gradientUnits="userSpaceOnUse" gradientTransform="translate(8402.31 144340) scale(3588.31 1186.05)">
<stop stop-color="#FFC65D"/>
<stop offset="1"/>
</radialGradient>
</defs>
</svg>
