<svg width="56" height="17" viewBox="0 0 56 17" fill="none" xmlns="http://www.w3.org/2000/svg">
<path d="M11 9.6377L9.40937 2.03863C9.13747 0.990696 8.34626 0.678938 7.35763 0.637695H0.0649642L0 0.984899C5.67994 2.35619 9.43821 5.6643 11 9.6377Z" fill="#F79F1A"/>
<path d="M27.1423 0.279053H22.6896L19.9086 16.5989H24.354L27.1423 0.279053Z" fill="#42DAFF"/>
<path d="M13.8879 16.5821L20.8909 0.289795H16.1783L11.8219 11.421L11.3569 9.74035C10.5029 7.71848 8.06235 4.8084 5.19714 2.97645L9.17937 16.5877L13.8879 16.5821Z" fill="#42DAFF"/>
<path d="M39.8424 11.2641C39.8589 9.41129 38.6693 7.99807 36.1057 6.83079C34.5477 6.07685 33.598 5.5741 33.6094 4.80904C33.6094 4.13313 34.4136 3.40708 36.156 3.40708C37.614 3.3847 38.6638 3.70303 39.4849 4.03261L39.8872 4.21702L40.4906 0.681541C39.608 0.351836 38.2283 0 36.5028 0C32.1071 0 29.0129 2.21191 28.9849 5.38431C28.9569 7.73025 31.197 9.03719 32.8835 9.81901C34.6148 10.616 35.1957 11.126 35.1846 11.8409C35.1734 12.934 33.8048 13.4325 32.5259 13.4325C30.7442 13.4325 29.8002 13.1868 28.3363 12.5769L27.7674 12.3156L27.1425 15.9726C28.1806 16.4264 30.1017 16.823 32.0959 16.8395C36.7704 16.8395 39.8089 14.6557 39.8424 11.2641Z" fill="#42DAFF"/>
<path d="M45.1315 14.153C45.6397 14.153 50.1805 14.1587 50.8286 14.1587C50.9627 14.7269 51.3704 16.6049 51.3704 16.6049H55.4978L51.8953 0.296143H48.4604C47.3935 0.296143 46.6007 0.586589 46.1313 1.6476L39.5241 16.6049H44.1993C44.1989 16.6049 44.9583 14.5945 45.1315 14.153ZM48.1809 6.24985C48.1588 6.29449 48.5497 5.30599 48.7731 4.69159L49.0746 6.09894C49.0746 6.09894 49.9238 9.99764 50.1023 10.8131H46.4104C46.7791 9.87486 48.1809 6.24985 48.1809 6.24985Z" fill="#42DAFF"/>
</svg>
